<svg width="50" height="50" viewBox="0 0 50 50" fill="none" xmlns="http://www.w3.org/2000/svg">
<path d="M25 0.5C38.531 0.5 49.5 11.469 49.5 25C49.5 38.531 38.531 49.5 25 49.5C11.469 49.5 0.5 38.531 0.5 25C0.5 11.469 11.469 0.5 25 0.5Z" stroke="#1A2F46"/>
<path d="M35.9373 29.5356C35.9257 30.4486 35.7504 31.352 35.4198 32.2031C35.1353 32.9326 34.7025 33.5951 34.1488 34.1488C33.5951 34.7025 32.9326 35.1353 32.2031 35.4198C31.3478 35.7354 30.4469 35.9102 29.5356 35.9372C28.3588 35.9846 27.9944 36 25 36C22.0056 36 21.6423 35.9846 20.4644 35.9372C19.5514 35.9257 18.648 35.7504 17.7969 35.4198C17.0674 35.1353 16.4049 34.7025 15.8512 34.1488C15.2975 33.5951 14.8647 32.9326 14.5802 32.2031C14.2646 31.3477 14.0899 30.4469 14.0627 29.5356C14.0154 28.3588 14 27.9944 14 25C14 22.0056 14.0154 21.6423 14.0627 20.4644C14.0743 19.5514 14.2496 18.648 14.5802 17.7969C14.8647 17.0674 15.2975 16.4049 15.8512 15.8512C16.4049 15.2975 17.0674 14.8647 17.7969 14.5802C18.6523 14.2646 19.5531 14.0898 20.4644 14.0628C21.6412 14.0154 22.0056 14 25 14C27.9944 14 28.3577 14.0154 29.5356 14.0628C30.4486 14.0743 31.352 14.2496 32.2031 14.5802C32.9326 14.8647 33.5951 15.2975 34.1488 15.8512C34.7025 16.4049 35.1353 17.0674 35.4198 17.7969C35.7354 18.6523 35.9101 19.5531 35.9373 20.4644C35.9846 21.6412 36 22.0056 36 25C36 27.9944 35.9846 28.3577 35.9373 29.5356ZM33.9755 20.559C33.9627 19.863 33.8354 19.1739 33.599 18.5191C33.4198 18.0425 33.1418 17.6091 32.7832 17.2476C32.4301 16.8787 31.9942 16.5991 31.5117 16.4318C30.8591 16.1875 30.1686 16.0601 29.4718 16.0553C28.3103 16.008 27.9658 15.9926 25.0308 15.9926C22.0959 15.9926 21.7513 16.008 20.5899 16.0553C19.8939 16.0682 19.2047 16.1954 18.5499 16.4318C18.0733 16.611 17.64 16.889 17.2784 17.2476C16.9062 17.598 16.6261 18.0347 16.4627 18.5191C16.2184 19.1717 16.0909 19.8622 16.0862 20.559C16.0388 21.7205 16.0234 22.0651 16.0234 25C16.0234 27.9349 16.0388 28.2795 16.0862 29.441C16.099 30.137 16.2262 30.8261 16.4627 31.4809C16.6418 31.9575 16.9198 32.3909 17.2784 32.7524C17.6316 33.1213 18.0674 33.4009 18.5499 33.5682C19.2025 33.8125 19.8931 33.9399 20.5899 33.9447C21.7513 33.992 22.0959 34.0074 25.0308 34.0074C27.9658 34.0074 28.3103 33.992 29.4718 33.9447C30.1678 33.9318 30.857 33.8046 31.5117 33.5682C31.9884 33.389 32.4217 33.111 32.7832 32.7524C33.1521 32.3992 33.4317 31.9634 33.599 31.4809C33.8433 30.8283 33.9707 30.1378 33.9755 29.441C34.0228 28.2795 34.0382 27.9349 34.0382 25C34.0382 22.0651 34.0228 21.7205 33.9755 20.559ZM25.0154 30.6332C23.9013 30.6332 22.8121 30.3028 21.8858 29.6838C20.9594 29.0649 20.2374 28.1851 19.811 27.1557C19.3846 26.1264 19.2731 24.9937 19.4904 23.901C19.7078 22.8083 20.2443 21.8045 21.0321 21.0167C21.82 20.2289 22.8237 19.6924 23.9164 19.475C25.0092 19.2577 26.1418 19.3692 27.1712 19.7956C28.2005 20.222 29.0803 20.944 29.6993 21.8704C30.3182 22.7967 30.6486 23.8859 30.6486 25C30.6472 26.4936 30.0532 27.9256 28.9971 28.9817C27.941 30.0378 26.509 30.6318 25.0154 30.6332ZM25.0154 21.3275C24.2891 21.3275 23.579 21.5429 22.9751 21.9464C22.3711 22.3499 21.9004 22.9235 21.6224 23.5946C21.3445 24.2656 21.2717 25.0041 21.4134 25.7165C21.5551 26.4289 21.9049 27.0833 22.4185 27.5969C22.9322 28.1105 23.5865 28.4603 24.2989 28.602C25.0113 28.7437 25.7498 28.6709 26.4208 28.393C27.0919 28.115 27.6655 27.6443 28.069 27.0404C28.4726 26.4364 28.688 25.7264 28.688 25C28.6868 24.0263 28.2995 23.0929 27.611 22.4044C26.9225 21.7159 25.9891 21.3286 25.0154 21.3275ZM30.8688 20.4644C30.6075 20.4644 30.3521 20.3869 30.1349 20.2417C29.9176 20.0966 29.7483 19.8903 29.6483 19.6489C29.5483 19.4075 29.5221 19.1418 29.5731 18.8856C29.6241 18.6293 29.7499 18.3939 29.9347 18.2092C30.1194 18.0244 30.3548 17.8986 30.6111 17.8476C30.8673 17.7967 31.1329 17.8228 31.3743 17.9228C31.6157 18.0228 31.8221 18.1921 31.9672 18.4094C32.1124 18.6266 32.1899 18.882 32.1899 19.1433C32.1919 19.3174 32.1592 19.4901 32.0935 19.6513C32.0279 19.8125 31.9306 19.959 31.8075 20.0821C31.6844 20.2051 31.538 20.3024 31.3768 20.368C31.2156 20.4337 31.0428 20.4664 30.8688 20.4644Z" fill="#1A2F46"/>
</svg>
