<svg width="29" height="28" viewBox="0 0 29 28" fill="none" xmlns="http://www.w3.org/2000/svg">
<path d="M28.886 27.9567H23.0961V18.8726C23.0961 16.7172 23.0555 13.9217 20.0821 13.9217C17.0681 13.9217 16.6087 16.2774 16.6087 18.713V27.9567H10.8188V9.2928H16.3888V11.8488H16.4686C17.028 10.899 17.8332 10.1176 18.7995 9.58716C19.7657 9.05671 20.8572 8.79679 21.9588 8.83482C27.8286 8.83482 28.9266 12.7074 28.9266 17.7186L28.886 27.9567ZM4.25156 6.73538C3.58699 6.73676 2.93693 6.54111 2.38351 6.17316C1.8301 5.8052 1.39818 5.28147 1.14233 4.66812C0.886475 4.05477 0.818179 3.37935 0.946067 2.7272C1.07396 2.07505 1.39228 1.47544 1.86084 1.00415C2.32939 0.532861 2.92712 0.211036 3.57852 0.079349C4.22991 -0.0523378 4.90572 0.0120199 5.52055 0.264292C6.13538 0.516565 6.66163 0.945431 7.03281 1.49669C7.40398 2.04795 7.60341 2.69686 7.60591 3.36143C7.60757 3.80332 7.52207 4.2412 7.35433 4.65001C7.18659 5.05883 6.93988 5.43056 6.62833 5.74393C6.31678 6.05731 5.94649 6.30618 5.53866 6.4763C5.13083 6.64642 4.69345 6.73446 4.25156 6.73538ZM7.14652 27.9581H1.33559V9.2928H7.14512L7.14652 27.9581Z" fill="#1A2F46"/>
</svg>
