<svg width="29" height="28" viewBox="0 0 29 28" fill="none" xmlns="http://www.w3.org/2000/svg">
<path d="M28.4807 19.7554C28.466 20.9169 28.243 22.0663 27.8225 23.149C27.4605 24.0771 26.9099 24.92 26.2055 25.6244C25.501 26.3288 24.6581 26.8794 23.73 27.2414C22.6419 27.6429 21.4958 27.8652 20.3365 27.8997C18.8393 27.9599 18.3757 27.9795 14.5662 27.9795C10.7567 27.9795 10.2945 27.9599 8.79587 27.8997C7.63442 27.885 6.48503 27.662 5.40232 27.2414C4.47422 26.8794 3.63131 26.3288 2.9269 25.6244C2.22248 24.92 1.67187 24.0771 1.30987 23.149C0.908406 22.0608 0.686097 20.9148 0.651608 19.7554C0.591384 18.2582 0.571777 17.7946 0.571777 13.9851C0.571777 10.1756 0.591384 9.71342 0.651608 8.21482C0.666351 7.05337 0.889304 5.90398 1.30987 4.82126C1.67187 3.89316 2.22248 3.05026 2.9269 2.34584C3.63131 1.64143 4.47422 1.09082 5.40232 0.728818C6.49046 0.327304 7.63653 0.104998 8.79587 0.0705588C10.2931 0.0103347 10.7567 -0.00927734 14.5662 -0.00927734C18.3757 -0.00927734 18.8379 0.0103347 20.3365 0.0705588C21.4979 0.085271 22.6473 0.30822 23.73 0.728818C24.6581 1.09082 25.501 1.64143 26.2055 2.34584C26.9099 3.05026 27.4605 3.89316 27.8225 4.82126C28.2239 5.90941 28.4463 7.05548 28.4807 8.21482C28.541 9.71202 28.5606 10.1756 28.5606 13.9851C28.5606 17.7946 28.541 18.2568 28.4807 19.7554ZM25.9849 8.33527C25.9686 7.44978 25.8068 6.573 25.506 5.74003C25.278 5.13363 24.9243 4.58233 24.4681 4.12238C24.0189 3.65306 23.4644 3.29733 22.8505 3.08456C22.0203 2.77375 21.1417 2.61161 20.2553 2.60557C18.7777 2.54535 18.3393 2.52574 14.6054 2.52574C10.8715 2.52574 10.4331 2.54535 8.95553 2.60557C8.07004 2.6219 7.19327 2.78372 6.3603 3.08456C5.7539 3.3125 5.20261 3.66618 4.74265 4.12238C4.26915 4.56821 3.91271 5.12378 3.70483 5.74003C3.39402 6.57027 3.23188 7.44877 3.22584 8.33527C3.16562 9.81286 3.14601 10.2512 3.14601 13.9851C3.14601 17.719 3.16562 18.1574 3.22584 19.635C3.24217 20.5205 3.40399 21.3972 3.70483 22.2302C3.93276 22.8366 4.28646 23.3879 4.74265 23.8479C5.19194 24.3172 5.74641 24.6729 6.3603 24.8857C7.19054 25.1965 8.06904 25.3586 8.95553 25.3647C10.4331 25.4249 10.8715 25.4445 14.6054 25.4445C18.3393 25.4445 18.7777 25.4249 20.2553 25.3647C21.1407 25.3483 22.0175 25.1865 22.8505 24.8857C23.4569 24.6578 24.0082 24.3041 24.4681 23.8479C24.9375 23.3986 25.2932 22.8441 25.506 22.2302C25.8167 21.4 25.9789 20.5215 25.9849 19.635C26.0452 18.1574 26.0648 17.719 26.0648 13.9851C26.0648 10.2512 26.0452 9.81286 25.9849 8.33527ZM14.5858 21.1518C13.1684 21.1518 11.7827 20.7315 10.6042 19.944C9.42564 19.1565 8.50708 18.0372 7.96465 16.7277C7.42222 15.4181 7.28029 13.9772 7.55682 12.587C7.83335 11.1968 8.51591 9.9198 9.51818 8.91753C10.5205 7.91525 11.7974 7.23269 13.1876 6.95616C14.5778 6.67963 16.0188 6.82155 17.3284 7.36398C18.6379 7.90641 19.7572 8.82499 20.5447 10.0035C21.3321 11.1821 21.7524 12.5677 21.7524 13.9851C21.7506 15.8853 20.9949 17.7071 19.6513 19.0507C18.3077 20.3943 16.4859 21.1499 14.5858 21.1518ZM14.5858 9.31285C13.6617 9.31285 12.7584 9.58688 11.99 10.1003C11.2217 10.6137 10.6228 11.3434 10.2692 12.1971C9.91554 13.0509 9.82301 13.9903 10.0033 14.8966C10.1836 15.803 10.6286 16.6355 11.282 17.2889C11.9354 17.9423 12.7679 18.3873 13.6743 18.5676C14.5806 18.7479 15.52 18.6554 16.3738 18.3017C17.2275 17.9481 17.9572 17.3492 18.4706 16.5809C18.984 15.8125 19.2581 14.9092 19.2581 13.9851C19.2566 12.7464 18.7638 11.5589 17.8879 10.683C17.012 9.80707 15.8245 9.31434 14.5858 9.31285ZM22.0326 8.21482C21.7002 8.21482 21.3752 8.11625 21.0988 7.93157C20.8224 7.7469 20.607 7.48441 20.4798 7.17731C20.3526 6.8702 20.3193 6.53228 20.3842 6.20626C20.449 5.88024 20.6091 5.58078 20.8441 5.34573C21.0792 5.11068 21.3787 4.95061 21.7047 4.88576C22.0307 4.82092 22.3686 4.8542 22.6757 4.9814C22.9828 5.10861 23.2453 5.32403 23.43 5.60041C23.6147 5.8768 23.7132 6.20174 23.7132 6.53414C23.7159 6.75558 23.6742 6.97531 23.5907 7.18041C23.5071 7.3855 23.3834 7.57183 23.2268 7.72842C23.0702 7.88501 22.8839 8.00871 22.6788 8.09224C22.4737 8.17577 22.254 8.21745 22.0326 8.21482Z" fill="#1A2F46"/>
</svg>
