<svg width="15" height="19" viewBox="0 0 15 19" fill="none" xmlns="http://www.w3.org/2000/svg">
<path d="M7.33327 18.5476C7.11938 18.5476 6.90549 18.5094 6.69161 18.433C6.47772 18.3566 6.28674 18.242 6.11869 18.0893C5.12563 17.1726 4.24716 16.2788 3.48327 15.408C2.71938 14.5372 2.08154 13.6931 1.56973 12.8757C1.05792 12.0584 0.668342 11.2715 0.400981 10.5153C0.13362 9.75905 -6.10352e-05 9.03717 -6.10352e-05 8.34967C-6.10352e-05 6.05801 0.737092 4.23231 2.2114 2.87259C3.6857 1.51287 5.39299 0.833008 7.33327 0.833008C9.27355 0.833008 10.9808 1.51287 12.4551 2.87259C13.9295 4.23231 14.6666 6.05801 14.6666 8.34967C14.6666 9.03717 14.5329 9.75905 14.2656 10.5153C13.9982 11.2715 13.6086 12.0584 13.0968 12.8757C12.585 13.6931 11.9472 14.5372 11.1833 15.408C10.4194 16.2788 9.54091 17.1726 8.54786 18.0893C8.3798 18.242 8.18883 18.3566 7.97494 18.433C7.76105 18.5094 7.54716 18.5476 7.33327 18.5476ZM7.33327 9.99967C7.83744 9.99967 8.26904 9.82016 8.62806 9.46113C8.98709 9.10211 9.1666 8.67051 9.1666 8.16634C9.1666 7.66217 8.98709 7.23058 8.62806 6.87155C8.26904 6.51252 7.83744 6.33301 7.33327 6.33301C6.82911 6.33301 6.39751 6.51252 6.03848 6.87155C5.67945 7.23058 5.49994 7.66217 5.49994 8.16634C5.49994 8.67051 5.67945 9.10211 6.03848 9.46113C6.39751 9.82016 6.82911 9.99967 7.33327 9.99967Z" fill="#E97737"/>
</svg>
