<svg width="49" height="46" viewBox="0 0 49 46" fill="none" xmlns="http://www.w3.org/2000/svg">
<g clip-path="url(#clip0_346_17315)">
<path d="M29.629 7.84949L32.8575 2.25949V2.26144C33.0723 1.88839 33.5489 1.76144 33.922 1.97823C34.295 2.19308 34.4239 2.66768 34.2091 3.04268L30.9806 8.63268V8.63073C30.7657 9.00378 30.2892 9.13073 29.9161 8.91394C29.5431 8.69909 29.4161 8.22254 29.629 7.84949ZM24.5 8.21082C24.9316 8.21082 25.2812 7.86121 25.2812 7.42957V0.976566C25.2812 0.544926 24.9316 0.197266 24.5 0.197266C24.0684 0.197266 23.7188 0.544921 23.7188 0.976566V7.42957C23.7188 7.6366 23.8027 7.83582 23.9492 7.98232C24.0938 8.1288 24.2929 8.21082 24.5 8.21082ZM18.0195 8.63074C18.2363 9.00378 18.7129 9.13074 19.084 8.91394C19.457 8.6991 19.5859 8.22254 19.3711 7.84949L16.1445 2.26149C15.9277 1.88845 15.4512 1.76149 15.0781 1.97829C14.7051 2.19313 14.5781 2.66774 14.791 3.04274L18.0195 8.63074ZM48.66 30.0232C48.5467 30.4607 48.2616 30.8318 47.869 31.0564L43.8065 33.4002L43.8045 33.4021C43.5487 33.5506 43.2576 33.6307 42.9608 33.6307C42.8124 33.6307 42.6639 33.6111 42.5194 33.5721C42.0819 33.4568 41.7088 33.1717 41.4842 32.7791L41.2167 32.3162C40.7948 32.6854 40.2987 32.9627 39.7636 33.1307C39.955 33.4744 40.0624 33.8572 40.0761 34.2498C40.1093 35.2654 39.6073 36.2244 38.7538 36.7752C38.2128 37.1209 37.5585 37.2459 36.9296 37.1229C36.9179 37.5701 36.8007 38.0076 36.5898 38.4022C36.121 39.2772 35.2011 39.9256 34.121 39.8631C34.1191 39.9022 34.1171 39.9432 34.1152 39.9823C34.0234 41.1405 33.0371 42.3221 31.8203 42.7303C31.498 42.8436 31.1562 42.8924 30.8144 42.8768C30.75 43.5682 30.4355 44.2108 29.9277 44.6834C29.4609 45.1209 28.8457 45.367 28.2051 45.367C27.7519 45.3631 27.3047 45.2499 26.9062 45.035L23.6758 43.3436C23.6035 43.3065 23.5273 43.2753 23.4511 43.246L23.4453 43.244L22.5722 44.6093C22.0312 45.4511 21.2578 45.8046 20.4941 45.8046C19.4414 45.7928 18.4883 45.1776 18.043 44.2225C17.7422 44.3514 17.418 44.4159 17.0899 44.4159C16.5469 44.412 16.0176 44.2479 15.5664 43.9452C14.8574 43.4745 14.3535 42.6815 14.3516 41.7889C14.3086 41.7889 14.2637 41.787 14.2207 41.785C13.2363 41.7147 12.3613 41.1346 11.916 40.2557C11.6133 39.6542 11.5723 38.9549 11.8027 38.3202C10.9824 38.1698 10.2754 37.6503 9.8848 36.912C9.47464 36.121 9.53324 35.2108 10.045 34.4139L10.3594 33.9217L7.84966 32.4979L7.51567 33.074C7.20903 33.5994 6.64652 33.9236 6.03717 33.9236C5.74225 33.9236 5.45122 33.8455 5.19537 33.6971L1.13092 31.3494C0.318423 30.8807 0.0410734 29.8436 0.507873 29.0311L8.26387 15.5976C8.49043 15.2089 8.86152 14.9237 9.29707 14.8066C9.73262 14.6913 10.1975 14.7538 10.5881 14.9784L14.6486 17.3222C15.4592 17.7929 15.7365 18.83 15.2697 19.6425L14.6955 20.6366L18.0822 22.705L19.6603 20.7323C22.0334 17.7655 26.2343 18.8437 30.2953 19.8847C31.7426 20.2558 33.2231 20.6347 34.5746 20.8105L33.7309 19.3476L33.7328 19.3495C33.2621 18.537 33.5414 17.498 34.352 17.0292L38.4164 14.6816C39.2289 14.2167 40.2641 14.4941 40.7348 15.3027L48.4908 28.7362C48.7173 29.1249 48.7798 29.5897 48.6607 30.0233L48.66 30.0232ZM12.961 20.5152C12.9649 20.5094 12.9669 20.5055 12.9708 20.4996L13.9161 18.861V18.8629C13.9356 18.8297 13.9395 18.7926 13.9297 18.7574C13.9219 18.7223 13.8985 18.693 13.8692 18.6754L9.80474 16.3317V16.3297C9.78326 16.318 9.75982 16.3102 9.73638 16.3102C9.72466 16.3102 9.71099 16.3121 9.69927 16.316C9.66412 16.3239 9.63482 16.3473 9.61724 16.3785L1.85924 29.81C1.82409 29.8764 1.84752 29.9585 1.91002 29.9975L5.97447 32.3452H5.97643C6.04283 32.3803 6.12682 32.3569 6.16393 32.2905L6.87488 31.06C6.87683 31.0542 6.88074 31.0503 6.88269 31.0444L12.961 20.5152ZM12.9298 36.4682L13.3087 35.896L14.0626 34.7182C14.5645 33.9311 13.8926 33.4448 13.752 33.3549H13.7559C13.6622 33.2963 13.5587 33.2495 13.4532 33.2163C13.4415 33.2143 13.4317 33.2104 13.42 33.2085C13.045 33.1479 12.6719 33.3178 12.3731 33.6713L11.3575 35.2553C11.1465 35.5835 11.1172 35.8999 11.2696 36.1948H11.2715C11.4629 36.5444 11.8184 36.7729 12.2168 36.8002C12.4961 36.8139 12.7637 36.6889 12.9317 36.4663L12.9298 36.4682ZM17.4961 36.2827C17.5098 36.2632 17.5235 36.2436 17.5372 36.2241L17.8809 35.7065H17.8829C18.0372 35.4956 18.1075 35.2338 18.0762 34.9741C18.0215 34.7339 17.8965 34.5171 17.7188 34.3471C17.5157 34.1636 17.2579 34.0522 16.9864 34.0288C16.9649 34.0268 16.9434 34.0268 16.9239 34.0268C16.5938 34.0268 16.3165 34.1928 16.0997 34.521L14.6173 36.7495L14.3478 37.1713C14.299 37.2456 14.2482 37.3178 14.1954 37.3862L13.422 38.5502C13.1896 38.8999 13.1544 39.2397 13.3146 39.5619L13.3126 39.56C13.5138 39.9389 13.8907 40.1889 14.3165 40.226C14.6739 40.2494 14.9728 40.0834 15.2052 39.7338L15.5079 39.2787L17.4961 36.2827ZM19.2969 40.2417V40.2397C19.3555 40.1499 19.418 40.062 19.4864 39.978L20.5802 38.3296V38.3276C20.7149 38.144 20.7852 37.9214 20.7852 37.6929C20.754 37.519 20.6915 37.353 20.5997 37.2007C20.5684 37.1479 20.5333 37.0991 20.4962 37.0503C20.4298 36.978 20.3555 36.9136 20.2735 36.8589C20.0782 36.7319 19.8516 36.6616 19.6192 36.6538C19.3673 36.6538 19.0802 36.7534 18.8341 37.0913L16.836 40.0971L16.1212 41.1733C15.5548 42.0287 16.336 42.5834 16.4278 42.644C16.5196 42.7045 17.336 43.2123 17.9044 42.3569L18.8888 40.8745L19.2969 40.2417ZM22.461 41.478C22.418 41.3003 22.334 41.1343 22.2169 40.9937C22.1465 40.9155 22.0665 40.8491 21.9786 40.7925C21.8028 40.6773 21.5977 40.6128 21.3868 40.6089C21.1329 40.6089 20.8926 40.7222 20.7344 40.9214L20.1993 41.7261L19.5782 42.6949C19.0762 43.48 19.7481 43.9683 19.8887 44.0562C20.0294 44.146 20.752 44.5542 21.2579 43.7671L22.2872 42.1577V42.1558C22.4278 41.9585 22.4903 41.7163 22.461 41.478ZM38.5155 34.314C38.4999 33.9332 38.2948 33.6382 37.9041 33.4332C37.5702 33.2594 37.2382 33.0816 36.9061 32.9019C36.7479 32.8316 36.5936 32.7535 36.4452 32.6676L35.9549 32.3844C33.8299 31.2145 31.7186 29.9742 29.6619 28.7652C28.6736 28.1851 27.6541 27.5836 26.6522 27.0055V27.0035C26.3299 26.8238 25.9803 26.6969 25.617 26.6305C25.3494 26.5875 25.0741 26.5836 24.8045 26.6227C24.3045 26.7125 23.8319 26.9215 23.4295 27.234L19.3709 30.5387L19.369 30.5407C19.3533 30.5543 19.3338 30.5641 19.3182 30.5758C19.3026 30.5875 19.2869 30.5992 19.2713 30.609H19.2694C19.2459 30.6227 19.2205 30.6344 19.1951 30.6461C19.1854 30.65 19.1756 30.6559 19.1658 30.6617L19.1639 30.6598C19.1287 30.6735 19.0916 30.6852 19.0565 30.695H19.0526C18.9022 30.7301 18.7459 30.7203 18.6014 30.6657C18.5994 30.6657 18.5975 30.6637 18.5955 30.6637C18.576 30.6559 18.5565 30.6461 18.5389 30.6364C18.5213 30.6285 18.5037 30.6227 18.4881 30.6129C15.953 29.1598 14.6639 28.4196 14.6639 28.4196C14.6444 28.4078 14.6249 28.3961 14.6073 28.3825C14.6034 28.3786 14.5975 28.3766 14.5936 28.3727C14.578 28.361 14.5624 28.3473 14.5467 28.3336C14.5409 28.3278 14.535 28.3239 14.5292 28.318C14.5155 28.3063 14.5038 28.2926 14.4901 28.2789C14.4842 28.2711 14.4764 28.2653 14.4706 28.2575C14.4588 28.2457 14.451 28.2321 14.4413 28.2203C14.4334 28.2106 14.4256 28.2028 14.4198 28.193C14.412 28.1832 14.4061 28.1715 14.3983 28.1598C14.3905 28.1481 14.3807 28.1344 14.3749 28.1227C14.369 28.1129 14.3651 28.1032 14.3612 28.0934C14.3534 28.0778 14.3456 28.0641 14.3377 28.0485C14.3338 28.0387 14.3299 28.027 14.326 28.0153C14.3202 27.9996 14.3143 27.984 14.3084 27.9684C14.3045 27.9586 14.3045 27.9489 14.3006 27.9391C14.2967 27.9215 14.2909 27.9039 14.287 27.8864C14.285 27.8766 14.285 27.8688 14.2831 27.859C14.2811 27.8395 14.2772 27.8219 14.2752 27.8024V27.777C14.2752 27.7575 14.2733 27.7379 14.2733 27.7184C14.2733 27.7145 14.2752 27.7086 14.2752 27.7047C14.2772 27.6813 14.2772 27.6578 14.2811 27.6364C14.2831 27.6286 14.285 27.6207 14.285 27.6129C14.2889 27.5934 14.2909 27.5739 14.2967 27.5543C14.3006 27.5426 14.3045 27.5289 14.3084 27.5172C14.3124 27.5035 14.3163 27.4879 14.3221 27.4743C14.326 27.4625 14.3319 27.4528 14.3358 27.443C14.3417 27.4274 14.3475 27.4118 14.3553 27.3981C14.3573 27.3922 14.3612 27.3883 14.3651 27.3825C14.3749 27.3629 14.3846 27.3434 14.3983 27.3258C14.4002 27.3219 14.4022 27.32 14.4042 27.316C14.4178 27.2965 14.4315 27.275 14.4471 27.2555L17.1034 23.9352L13.9139 21.988L8.62892 31.144L11.211 32.6088V32.6108C11.8047 31.7787 12.8614 31.4135 13.8418 31.7026C14.5157 31.8666 15.1016 32.2866 15.4707 32.8745C16.2422 32.392 17.2031 32.3276 18.0332 32.7006C18.3887 32.8608 18.7051 33.0932 18.9649 33.3842C18.9942 33.4155 19.0196 33.4467 19.0469 33.4799C19.0489 33.4819 19.0489 33.4838 19.0508 33.4838V33.4858C19.1817 33.644 19.2949 33.8159 19.3887 33.9994C19.4981 34.2201 19.5742 34.4545 19.6133 34.6967C19.6348 34.7963 19.6504 34.8979 19.6621 34.9994C20.4277 35.0404 21.1426 35.3959 21.6387 35.9799C22.0684 36.4271 22.3223 37.015 22.3516 37.6361C22.3965 38.099 22.3223 38.5658 22.1367 38.9935C22.7168 39.2728 23.2188 39.6947 23.5918 40.2201C23.6543 40.308 23.709 40.3998 23.7598 40.4955C23.7598 40.4974 23.7618 40.4974 23.7618 40.4994C23.7774 40.5287 23.7911 40.5599 23.8047 40.5892C23.9864 40.9681 24.0723 41.3861 24.0547 41.806C24.1719 41.8509 24.2872 41.9017 24.4004 41.9603L27.6309 43.6517C28.2481 43.9759 28.6699 43.7201 28.8653 43.5384C29.1504 43.2728 29.3868 42.7533 29.1954 42.1126L28.0059 41.3626C27.8321 41.2533 27.7071 41.0775 27.6622 40.8763C27.6153 40.6732 27.6524 40.4622 27.7618 40.2864C27.9922 39.9212 28.4747 39.8118 28.8399 40.0423L30.2539 40.9329H30.2559V40.9349C30.2774 40.9485 30.2988 40.9642 30.3184 40.9798C30.3203 40.9817 30.3223 40.9837 30.3242 40.9856C30.3418 40.9993 30.3574 41.013 30.3731 41.0286C30.3828 41.0364 30.3906 41.0462 30.4004 41.056C30.4063 41.0638 30.4141 41.0696 30.4199 41.0755C30.502 41.1673 30.75 41.4446 31.3223 41.2513C31.9492 41.0403 32.5156 40.4036 32.5586 39.8587C32.5684 39.7298 32.5997 39.3352 31.9082 38.972C31.9024 38.9681 31.8965 38.9642 31.8907 38.9622C31.8868 38.9603 31.8848 38.9583 31.8809 38.9563L28.9219 37.2493C28.7422 37.1458 28.6114 36.9759 28.5567 36.7747C28.5039 36.5755 28.5313 36.3626 28.6348 36.1829C28.8516 35.8098 29.3281 35.6809 29.7012 35.8958L32.6465 37.595L33.6973 38.1477C34.4199 38.5266 34.9649 38.1243 35.2109 37.6653C35.457 37.2044 35.4844 36.5227 34.7461 36.1204C34.7422 36.1185 34.7402 36.1165 34.7363 36.1145C34.7344 36.1126 34.7324 36.1126 34.7285 36.1106L29.674 33.1907C29.4943 33.0872 29.3635 32.9173 29.3107 32.7161C29.256 32.5169 29.2853 32.304 29.3889 32.1243C29.6037 31.7513 30.0822 31.6224 30.4553 31.8392L35.4983 34.7513L36.8459 35.4544C37.2365 35.6595 37.5979 35.6595 37.9201 35.4563H37.9182C38.299 35.2024 38.5233 34.7711 38.5155 34.314ZM40.4159 30.9293L35.5292 22.4643C33.7656 22.3862 31.8065 21.8842 29.9082 21.3979C26.1621 20.4369 22.6232 19.5287 20.8807 21.7084L18.4139 24.7905C18.3084 24.9233 18.1854 25.0776 18.0448 25.2534C17.6053 25.8022 16.9979 26.562 16.2323 27.519L18.7987 28.9916C19.3827 28.5151 20.5838 27.5385 22.4002 26.06L22.4608 26.0111V26.0092C23.2244 25.3783 24.1854 25.0307 25.1756 25.0268C25.9491 25.0327 26.7049 25.2358 27.3748 25.6205C27.3846 25.6264 27.3943 25.6303 27.4041 25.6362C27.41 25.6401 27.4158 25.642 27.4217 25.6459H27.4236L36.7206 31.0229C37.0117 31.1831 37.3046 31.3432 37.5956 31.5014C38.6112 31.9409 39.5898 31.7573 40.3866 30.9624L40.4159 30.9293ZM47.1384 29.5191L39.3844 16.0856C39.359 16.0427 39.3121 16.0173 39.2614 16.0173C39.2379 16.0173 39.2164 16.0231 39.195 16.0349L35.1325 18.3825V18.3806C35.1012 18.4001 35.0778 18.4294 35.07 18.4645C35.0602 18.4997 35.0641 18.5349 35.0817 18.5661L42.8377 31.9996C42.8552 32.0308 42.8865 32.0543 42.9217 32.0641C42.9549 32.0719 42.992 32.068 43.0232 32.0504L47.0896 29.7047C47.1209 29.6871 47.1423 29.6559 47.1521 29.6207C47.1619 29.5875 47.1579 29.5504 47.1384 29.5191Z" fill="#1A2F46"/>
</g>
<defs>
<clipPath id="clip0_346_17315">
<rect width="49" height="46" fill="white"/>
</clipPath>
</defs>
</svg>
