<svg width="46" height="46" viewBox="0 0 46 46" fill="none" xmlns="http://www.w3.org/2000/svg">
<g clip-path="url(#clip0_346_17307)">
<path d="M19.5601 15.187C19.6764 15.2714 19.8141 15.3214 19.9574 15.3314C20.1008 15.3414 20.2441 15.311 20.3709 15.2435L23 13.8438L25.6291 15.2435C25.7559 15.311 25.8993 15.3415 26.0427 15.3315C26.186 15.3215 26.3237 15.2714 26.44 15.1869C26.5563 15.1024 26.6465 14.9869 26.7003 14.8536C26.7541 14.7203 26.7693 14.5746 26.7442 14.433L26.2258 11.5004L28.3689 9.43247C28.4724 9.33269 28.5457 9.20583 28.5806 9.06637C28.6154 8.92691 28.6103 8.78046 28.5659 8.64375C28.5214 8.50704 28.4395 8.38558 28.3293 8.29323C28.2192 8.20088 28.0853 8.14136 27.9429 8.12147L24.9938 7.70819L23.6892 5.03087C23.6188 4.91055 23.5182 4.81075 23.3973 4.7414C23.2763 4.67204 23.1394 4.63555 23 4.63555C22.8606 4.63555 22.7237 4.67204 22.6027 4.7414C22.4818 4.81075 22.3812 4.91055 22.3108 5.03087L21.0062 7.70822L18.0571 8.1215C17.9147 8.14139 17.7808 8.20091 17.6707 8.29326C17.5605 8.38561 17.4785 8.50707 17.4341 8.64378C17.3897 8.78049 17.3846 8.92694 17.4194 9.0664C17.4543 9.20586 17.5276 9.33272 17.6311 9.4325L19.7742 11.5004L19.2558 14.4331C19.2308 14.5746 19.246 14.7203 19.2998 14.8536C19.3536 14.9869 19.4438 15.1024 19.5601 15.187ZM21.6231 9.17005C21.7476 9.15274 21.8658 9.10505 21.9675 9.03122C22.0692 8.95738 22.1511 8.85965 22.206 8.74666L23 7.11712L23.794 8.74666C23.8489 8.85965 23.9308 8.95738 24.0325 9.03122C24.1342 9.10505 24.2524 9.15274 24.3769 9.17005L26.1719 9.42161L24.8673 10.6802C24.7769 10.7675 24.7093 10.8756 24.6705 10.9951C24.6316 11.1146 24.6227 11.2419 24.6445 11.3656L24.9601 13.1505L23.3601 12.2985C23.2493 12.2395 23.1256 12.2086 23 12.2086C22.8744 12.2086 22.7507 12.2395 22.6399 12.2985L21.0399 13.1505L21.3555 11.3656C21.3773 11.2419 21.3684 11.1147 21.3295 10.9952C21.2907 10.8757 21.2231 10.7675 21.1327 10.6802L19.8281 9.42165L21.6231 9.17005ZM41.5992 8.64371C41.5548 8.507 41.4728 8.38553 41.3627 8.29319C41.2525 8.20084 41.1186 8.14135 40.9762 8.1215L38.0271 7.70822L36.7225 5.03087C36.6521 4.91055 36.5515 4.81075 36.4306 4.7414C36.3097 4.67204 36.1727 4.63555 36.0333 4.63555C35.8939 4.63555 35.757 4.67204 35.6361 4.7414C35.5152 4.81075 35.4145 4.91055 35.3442 5.03087L34.0395 7.70822L31.0904 8.1215C30.9481 8.14139 30.8142 8.20091 30.704 8.29326C30.5938 8.38561 30.5119 8.50707 30.4675 8.64378C30.423 8.78049 30.4179 8.92694 30.4528 9.0664C30.4876 9.20586 30.5609 9.33272 30.6644 9.4325L32.8076 11.5004L32.2891 14.4331C32.264 14.5746 32.2793 14.7203 32.3331 14.8536C32.3869 14.9869 32.477 15.1024 32.5933 15.1869C32.7096 15.2714 32.8473 15.3215 32.9907 15.3315C33.1341 15.3415 33.2774 15.311 33.4043 15.2435L36.0333 13.8438L38.6624 15.2435C38.7893 15.311 38.9326 15.3415 39.076 15.3315C39.2194 15.3215 39.3571 15.2714 39.4733 15.1869C39.5896 15.1024 39.6798 14.9869 39.7336 14.8536C39.7874 14.7203 39.8026 14.5746 39.7776 14.433L39.2591 11.5004L41.4022 9.43247C41.5057 9.33267 41.579 9.2058 41.6138 9.06634C41.6487 8.92687 41.6436 8.78043 41.5992 8.64371ZM37.9006 10.6802C37.8102 10.7675 37.7426 10.8756 37.7038 10.9951C37.665 11.1146 37.6561 11.2419 37.6778 11.3656L37.9934 13.1505L36.3935 12.2985C36.2826 12.2395 36.1589 12.2086 36.0333 12.2086C35.9077 12.2086 35.7841 12.2395 35.6732 12.2985L34.0732 13.1505L34.3888 11.3656C34.4106 11.2419 34.4017 11.1147 34.3629 10.9952C34.324 10.8757 34.2564 10.7675 34.1661 10.6802L32.8615 9.42165L34.6565 9.17009C34.7809 9.15278 34.8992 9.10509 35.0008 9.03125C35.1025 8.95741 35.1844 8.85969 35.2393 8.7467L36.0333 7.11712L36.8273 8.74666C36.8823 8.85965 36.9642 8.95738 37.0658 9.03122C37.1675 9.10505 37.2857 9.15274 37.4102 9.17005L39.2052 9.42161L37.9006 10.6802ZM15.5325 8.64371C15.4881 8.507 15.4061 8.38553 15.296 8.29319C15.1858 8.20084 15.0519 8.14135 14.9096 8.1215L11.9605 7.70822L10.6558 5.03087C10.5855 4.91055 10.4848 4.81075 10.3639 4.7414C10.243 4.67204 10.1061 4.63555 9.96667 4.63555C9.82728 4.63555 9.69032 4.67204 9.56941 4.7414C9.4485 4.81075 9.34786 4.91055 9.27749 5.03087L7.97288 7.70822L5.02376 8.1215C4.8814 8.14139 4.74749 8.20091 4.63734 8.29326C4.52718 8.38561 4.44522 8.50707 4.40079 8.64378C4.35637 8.78049 4.35128 8.92694 4.38611 9.0664C4.42094 9.20586 4.49427 9.33272 4.59775 9.4325L6.7409 11.5004L6.22243 14.4331C6.19737 14.5746 6.21261 14.7203 6.26641 14.8536C6.3202 14.9869 6.41038 15.1024 6.52666 15.1869C6.64293 15.2714 6.78062 15.3215 6.92401 15.3315C7.06741 15.3415 7.21072 15.311 7.33761 15.2435L9.96667 13.8438L12.5957 15.2435C12.7226 15.311 12.8659 15.3415 13.0093 15.3315C13.1527 15.3215 13.2904 15.2714 13.4067 15.1869C13.523 15.1024 13.6131 14.9869 13.6669 14.8536C13.7207 14.7203 13.736 14.5746 13.7109 14.433L13.1924 11.5004L15.3356 9.43247C15.439 9.33267 15.5124 9.2058 15.5472 9.06634C15.582 8.92687 15.5769 8.78043 15.5325 8.64371ZM11.8339 10.6802C11.7435 10.7675 11.676 10.8756 11.6371 10.9951C11.5983 11.1146 11.5894 11.2419 11.6112 11.3656L11.9268 13.1505L10.3268 12.2985C10.2159 12.2395 10.0923 12.2086 9.96667 12.2086C9.84108 12.2086 9.71741 12.2395 9.60654 12.2985L8.00658 13.1505L8.32215 11.3656C8.34394 11.2419 8.33502 11.1147 8.29618 10.9952C8.25735 10.8757 8.18978 10.7675 8.09941 10.6802L6.79481 9.42165L8.58981 9.17009C8.71425 9.15278 8.83251 9.10509 8.93417 9.03125C9.03582 8.95741 9.11773 8.85969 9.17268 8.7467L9.96667 7.11712L10.7607 8.74666C10.8156 8.85965 10.8975 8.95738 10.9992 9.03122C11.1008 9.10505 11.2191 9.15274 11.3435 9.17005L13.1385 9.42161L11.8339 10.6802ZM46 3.71317V16.2202C45.9988 17.2046 45.6073 18.1484 44.9112 18.8445C44.215 19.5406 43.2713 19.9322 42.2868 19.9333H34.5C34.2967 19.9333 34.1017 19.8526 33.9579 19.7088C33.8141 19.565 33.7333 19.37 33.7333 19.1667C33.7333 18.9633 33.8141 18.7683 33.9579 18.6245C34.1017 18.4808 34.2967 18.4 34.5 18.4H42.2868C42.8648 18.3994 43.4188 18.1695 43.8275 17.7608C44.2362 17.3522 44.466 16.7981 44.4667 16.2202V3.71317C44.466 3.13523 44.2362 2.58115 43.8275 2.17249C43.4188 1.76382 42.8648 1.53396 42.2868 1.53333H3.71317C3.13523 1.53396 2.58115 1.76382 2.17249 2.17249C1.76382 2.58115 1.53396 3.13523 1.53333 3.71317V16.2202C1.53396 16.7981 1.76382 17.3522 2.17249 17.7608C2.58115 18.1695 3.13523 18.3994 3.71317 18.4H24.5333C24.7367 18.4 24.9317 18.4808 25.0754 18.6245C25.2192 18.7683 25.3 18.9633 25.3 19.1667C25.3 19.37 25.2192 19.565 25.0754 19.7088C24.9317 19.8526 24.7367 19.9333 24.5333 19.9333H3.71317C2.72873 19.9322 1.78495 19.5406 1.08885 18.8445C0.392746 18.1484 0.00116464 17.2046 0 16.2202V3.71317C0.00116464 2.72873 0.392746 1.78495 1.08885 1.08885C1.78495 0.392746 2.72873 0.00116464 3.71317 0H42.2868C43.2713 0.00116464 44.215 0.392746 44.9112 1.08885C45.6073 1.78495 45.9988 2.72873 46 3.71317ZM41.2907 23.7805C40.9168 23.7438 40.5394 23.7853 40.1823 23.9023C39.8253 24.0192 39.4965 24.2092 39.2168 24.46C39.1764 24.4967 39.1372 24.5343 39.0992 24.573C38.8496 24.3177 38.5515 24.1148 38.2224 23.9764C37.8933 23.8379 37.5399 23.7666 37.1828 23.7667C36.8258 23.7668 36.4723 23.8382 36.1433 23.9768C35.8142 24.1154 35.5162 24.3184 35.2667 24.5738C34.8763 24.1743 34.371 23.9067 33.8211 23.8085C33.2713 23.7102 32.7046 23.7862 32.2 24.0257V18.126C32.2086 17.4481 31.968 16.7906 31.5239 16.2783C31.0798 15.7661 30.463 15.4347 29.7907 15.3472C29.4172 15.3089 29.0398 15.3494 28.6829 15.4662C28.326 15.5829 27.9976 15.7732 27.7188 16.0248C27.4401 16.2764 27.2173 16.5837 27.0647 16.9268C26.9122 17.2699 26.8334 17.6412 26.8333 18.0167V28.2742L25.3079 26.1385C24.9527 25.6425 24.4846 25.2381 23.9421 24.959C23.3996 24.6799 22.7985 24.5339 22.1884 24.5333C21.8179 24.5333 21.4533 24.6267 21.1284 24.8049C20.8035 24.9831 20.5288 25.2403 20.3297 25.5528C20.1305 25.8652 20.0134 26.2229 19.989 26.5926C19.9647 26.9624 20.034 27.3323 20.1905 27.6681L24.5745 37.0778C25.1487 38.3287 26.0322 39.4127 27.1417 40.2272C26.8133 40.4333 26.5424 40.7193 26.3544 41.0585C26.1664 41.3976 26.0674 41.7789 26.0667 42.1667V45.2333C26.0667 45.4367 26.1474 45.6317 26.2912 45.7754C26.435 45.9192 26.63 46 26.8333 46C27.0367 46 27.2317 45.9192 27.3754 45.7754C27.5192 45.6317 27.6 45.4367 27.6 45.2333V42.1667C27.6003 41.9634 27.6811 41.7686 27.8248 41.6248C27.9686 41.4811 28.1634 41.4003 28.3667 41.4H39.8667C40.0699 41.4003 40.2648 41.4811 40.4085 41.6248C40.5522 41.7686 40.6331 41.9634 40.6333 42.1667V45.2333C40.6333 45.4367 40.7141 45.6317 40.8579 45.7754C41.0017 45.9192 41.1967 46 41.4 46C41.6033 46 41.7983 45.9192 41.9421 45.7754C42.0859 45.6317 42.1667 45.4367 42.1667 45.2333V42.1667C42.1658 41.8064 42.08 41.4514 41.9162 41.1305C41.7525 40.8096 41.5154 40.5318 41.2241 40.3197C42.2097 39.1728 43.7 37.0225 43.7 34.5V26.5593C43.7086 25.8814 43.468 25.2239 43.0239 24.7117C42.5797 24.1994 41.963 23.8681 41.2907 23.7805ZM42.1667 34.5C42.1667 37.025 40.1931 39.2223 39.5554 39.8667H29.3336C28.7564 39.5325 26.697 38.243 25.9809 36.4676L21.5805 27.0205C21.5328 26.9183 21.5117 26.8057 21.5191 26.6932C21.5264 26.5807 21.5621 26.4718 21.6227 26.3768C21.6833 26.2817 21.7669 26.2034 21.8658 26.1492C21.9647 26.095 22.0756 26.0666 22.1884 26.0667C22.5544 26.067 22.915 26.1545 23.2404 26.322C23.5659 26.4894 23.8467 26.7319 24.0598 27.0295L26.9759 31.1121C27.0703 31.2443 27.2043 31.3431 27.3585 31.3943C27.5127 31.4454 27.6791 31.4463 27.8338 31.3967C27.9885 31.3472 28.1235 31.2498 28.2193 31.1186C28.315 30.9874 28.3666 30.8291 28.3667 30.6667V18.0167C28.3669 17.8559 28.4007 17.697 28.4659 17.5501C28.5311 17.4031 28.6264 17.2715 28.7455 17.1635C28.8651 17.0545 29.0067 16.9721 29.1606 16.922C29.3146 16.872 29.4774 16.8552 29.6383 16.873C29.9332 16.9202 30.2006 17.0737 30.39 17.3046C30.5795 17.5354 30.6779 17.8276 30.6667 18.126V28.3667C30.6667 28.57 30.7474 28.765 30.8912 28.9088C31.035 29.0526 31.23 29.1333 31.4333 29.1333C31.6367 29.1333 31.8317 29.0526 31.9754 28.9088C32.1192 28.765 32.2 28.57 32.2 28.3667V26.45C32.2 26.145 32.3212 25.8525 32.5368 25.6368C32.7525 25.4212 33.045 25.3 33.35 25.3C33.655 25.3 33.9475 25.4212 34.1632 25.6368C34.3788 25.8525 34.5 26.145 34.5 26.45V28.3667C34.5 28.57 34.5808 28.765 34.7245 28.9088C34.8683 29.0526 35.0633 29.1333 35.2667 29.1333C35.47 29.1333 35.665 29.0526 35.8088 28.9088C35.9526 28.765 36.0333 28.57 36.0333 28.3667V26.45C36.0333 26.145 36.1545 25.8525 36.3702 25.6368C36.5858 25.4212 36.8783 25.3 37.1833 25.3C37.4883 25.3 37.7808 25.4212 37.9965 25.6368C38.2122 25.8525 38.3333 26.145 38.3333 26.45V28.3667C38.3333 28.57 38.4141 28.765 38.5579 28.9088C38.7017 29.0526 38.8967 29.1333 39.1 29.1333C39.3033 29.1333 39.4983 29.0526 39.6421 28.9088C39.7859 28.765 39.8667 28.57 39.8667 28.3667V26.45C39.8669 26.2892 39.9007 26.1303 39.9659 25.9834C40.0311 25.8365 40.1264 25.7048 40.2455 25.5969C40.3652 25.4878 40.5067 25.4055 40.6606 25.3554C40.8146 25.3053 40.9774 25.2886 41.1383 25.3064C41.4332 25.3536 41.7006 25.5071 41.89 25.7379C42.0795 25.9687 42.1779 26.2609 42.1667 26.5593V34.5Z" fill="#1A2F46"/>
</g>
<defs>
<clipPath id="clip0_346_17307">
<rect width="46" height="46" fill="white"/>
</clipPath>
</defs>
</svg>
