<svg width="46" height="46" viewBox="0 0 46 46" fill="none" xmlns="http://www.w3.org/2000/svg">
<path d="M36.7808 20.7214V13.7808C36.7808 6.18206 30.5987 0 23 0C15.4013 0 9.21922 6.18206 9.21922 13.7808V20.7214C8.28772 21.4132 7.68271 22.5212 7.68271 23.7683V38.7498C7.68271 40.8344 8.8894 42.7314 10.7569 43.5828C14.1762 45.1415 18.5242 46 23 46C27.4758 46 31.8238 45.1415 35.243 43.5828C37.1107 42.7314 38.3174 40.8343 38.3174 38.7498V23.7683C38.3174 22.5214 37.7124 21.4134 36.7808 20.7214ZM10.6597 13.7808C10.6597 6.97637 16.1955 1.44046 23 1.44046C29.8045 1.44046 35.3403 6.97637 35.3403 13.7808V20.0644C35.0771 20.0063 34.8042 19.975 34.524 19.975H33.7077V13.7808C33.7077 7.87651 28.9042 3.07302 22.9999 3.07302C17.0956 3.07302 12.2922 7.8766 12.2922 13.7808V19.975H11.4759C11.1957 19.975 10.9227 20.0065 10.6596 20.0644L10.6597 13.7808ZM32.2672 13.7808V19.975H13.7328V13.7808C13.7328 8.67082 17.89 4.51357 23 4.51357C28.1099 4.51357 32.2672 8.67082 32.2672 13.7808ZM36.8768 38.7498C36.8768 40.2717 36.001 41.6543 34.6455 42.2721C31.4099 43.7472 27.274 44.5595 23 44.5595C18.7259 44.5595 14.5901 43.7472 11.3544 42.2721C9.99906 41.6543 9.12317 40.2717 9.12317 38.7498V23.7683C9.12317 22.4709 10.1787 21.4154 11.476 21.4154H34.524C35.8213 21.4154 36.8768 22.4709 36.8768 23.7683V38.7498Z" fill="#1A2F46"/>
<path d="M23 26.8896C20.9084 26.8896 19.2067 28.5914 19.2067 30.6829C19.2067 31.8771 19.7863 33.0043 20.7432 33.7161V36.0608C20.7432 37.3052 21.7556 38.3176 23 38.3176C24.2444 38.3176 25.2568 37.3052 25.2568 36.0608V33.7161C26.2137 33.0043 26.7933 31.8771 26.7933 30.6829C26.7933 28.5914 25.0917 26.8896 23 26.8896ZM24.1743 32.7073C23.9526 32.8364 23.8162 33.0735 23.8162 33.3298V36.0609C23.8162 36.511 23.45 36.8772 22.9999 36.8772C22.5498 36.8772 22.1836 36.511 22.1836 36.0609V33.3299C22.1836 33.0735 22.0473 32.8364 21.8256 32.7074C21.0877 32.2778 20.6471 31.5211 20.6471 30.683C20.6471 29.3857 21.7026 28.3302 22.9999 28.3302C24.2973 28.3302 25.3528 29.3857 25.3528 30.683C25.3528 31.5211 24.9123 32.2778 24.1743 32.7073Z" fill="#1A2F46"/>
<path d="M34.524 23.0479C34.1262 23.0479 33.8037 23.3703 33.8037 23.7681V24.5364C33.8037 24.9341 34.1262 25.2567 34.524 25.2567C34.9217 25.2567 35.2443 24.9342 35.2443 24.5364V23.7681C35.2443 23.3704 34.9218 23.0479 34.524 23.0479Z" fill="#1A2F46"/>
<path d="M34.524 26.8896C34.1262 26.8896 33.8037 27.2121 33.8037 27.6099V33.756C33.8037 34.1538 34.1262 34.4763 34.524 34.4763C34.9217 34.4763 35.2443 34.1539 35.2443 33.756V27.6099C35.2443 27.2122 34.9218 26.8896 34.524 26.8896Z" fill="#1A2F46"/>
<path d="M11.476 29.9629C11.0783 29.9629 10.7557 30.2853 10.7557 30.6832V39.1341C10.7557 39.5319 11.0782 39.8544 11.476 39.8544C11.8738 39.8544 12.1963 39.532 12.1963 39.1341V30.6832C12.1962 30.2853 11.8738 29.9629 11.476 29.9629Z" fill="#1A2F46"/>
</svg>
