<svg width="14" height="15" viewBox="0 0 14 15" fill="none" xmlns="http://www.w3.org/2000/svg">
<path d="M12.877 9.95463C12.0276 9.9555 11.1836 9.82046 10.377 9.55462C10.1876 9.49335 9.98555 9.4827 9.79081 9.52376C9.59608 9.56481 9.41548 9.65613 9.26698 9.78862L7.69998 10.9796C6.00401 10.1359 4.62976 8.7616 3.78598 7.06563L4.93898 5.53562C5.08644 5.38878 5.19044 5.20404 5.2395 5.0018C5.28856 4.79957 5.28076 4.58771 5.21698 4.38963C4.95151 3.58288 4.81648 2.73893 4.81698 1.88963C4.81673 1.59281 4.69918 1.30812 4.48996 1.09759C4.28074 0.887056 3.99679 0.767736 3.69998 0.765625H1.12398C0.826136 0.765889 0.540547 0.884258 0.329842 1.09478C0.119137 1.30529 0.000514134 1.59078 -1.52588e-05 1.88863C0.0036905 5.30268 1.36156 8.57584 3.77566 10.9899C6.18977 13.404 9.46293 14.7619 12.877 14.7656C13.1747 14.7651 13.46 14.6466 13.6705 14.4361C13.881 14.2256 13.9995 13.9403 14 13.6426V11.0786C13.9995 10.7809 13.881 10.4954 13.6705 10.2848C13.4601 10.0741 13.1748 9.95542 12.877 9.95463Z" fill="#E97737"/>
</svg>
