<svg width="46" height="46" viewBox="0 0 46 46" fill="none" xmlns="http://www.w3.org/2000/svg">
<path fill-rule="evenodd" clip-rule="evenodd" d="M19.1831 28.3658H17.0306V33.5554H19.1831V28.3658ZM19.6198 27.0829C19.8207 26.8881 20.0378 26.7107 20.2688 26.5528C20.8687 26.1155 21.6175 25.5693 21.2713 23.8589C21.2679 23.8442 21.2648 23.8294 21.2623 23.8139C21.09 22.7656 21.3881 22.0553 21.9002 21.662C22.2005 21.4358 22.5682 21.3175 22.944 21.3262C23.3108 21.3329 23.6703 21.429 23.9915 21.6062C24.8126 22.0495 25.5343 23.0214 25.5343 24.3985V26.6546H28.2611C28.3715 26.6554 28.4816 26.6661 28.5901 26.6864C29.0915 26.7849 29.5368 27.0701 29.8361 27.4843C30.0999 27.8255 30.2525 28.2395 30.2732 28.6703C30.2725 28.7451 30.2652 28.8198 30.2514 28.8933L29.4756 33.1872C29.3901 33.6952 29.1408 34.1612 28.7659 34.5143C28.3921 34.8585 27.9011 35.0472 27.393 35.0418H21.3345C20.8739 35.0418 20.4237 34.9044 20.0415 34.6471C19.8524 34.7871 19.6232 34.8625 19.3879 34.8623H16.8257C16.5334 34.8619 16.2532 34.7456 16.0465 34.5389C15.8398 34.3322 15.7235 34.052 15.7231 33.7596V28.1609C15.7247 27.869 15.8414 27.5895 16.0478 27.383C16.2543 27.1766 16.5338 27.0599 16.8257 27.0583C17.4797 27.0616 17.5762 27.0597 19.6199 27.0829H19.6198ZM20.4906 33.1052C20.4906 33.5132 20.9848 33.7348 21.3345 33.7348H27.3933C27.847 33.7348 28.1184 33.3755 28.1938 32.958C28.3584 32.0452 28.9658 29.4009 28.9658 28.6708C28.9497 28.5221 28.8901 28.3814 28.7944 28.2665C28.6918 28.1167 28.537 28.0107 28.3603 27.9692C27.7384 27.8573 25.6541 27.9629 24.8806 27.9629C24.7072 27.9629 24.5409 27.894 24.4183 27.7714C24.2958 27.6488 24.2269 27.4825 24.2269 27.3091V24.3992C24.2269 23.5681 23.8277 23.0012 23.3734 22.756C23.2408 22.6794 23.0917 22.636 22.9387 22.6293C22.8509 22.6247 22.764 22.6494 22.6917 22.6995C22.5411 22.8151 22.4666 23.1031 22.5491 23.6052V23.606C23.06 26.1282 21.9353 26.9482 21.0343 27.6053C20.741 27.8193 20.4901 28.0021 20.4901 28.1609V33.1052H20.4906ZM30.4757 21.7997C32.2056 23.5297 33.2822 25.8059 33.522 28.2406C33.7618 30.6753 33.1499 33.1178 31.7907 35.152C30.4315 37.1862 28.4091 38.6862 26.0679 39.3963C23.7268 40.1065 21.2118 39.983 18.9516 39.0467C16.6913 38.1105 14.8256 36.4195 13.6723 34.2619C12.5191 32.1043 12.1496 29.6136 12.6268 27.2141C13.1041 24.8146 14.3986 22.6549 16.2898 21.1028C18.1809 19.5508 20.5517 18.7025 22.9982 18.7025C24.3872 18.7006 25.7628 18.9733 27.046 19.5049C28.3293 20.0364 29.4948 20.8163 30.4757 21.7997ZM22.9982 17.3951C25.7472 17.395 28.4113 18.3482 30.5363 20.0921C32.6614 21.8361 34.1161 24.2629 34.6524 26.9591C35.1888 29.6554 34.7736 32.4542 33.4778 34.8786C32.1819 37.3031 30.0855 39.2032 27.5457 40.2553C25.0059 41.3073 22.1799 41.4462 19.5492 40.6482C16.9185 39.8502 14.6459 38.1647 13.1186 35.879C11.5913 33.5932 10.9038 30.8486 11.1732 28.1128C11.4427 25.377 12.6524 22.8192 14.5963 20.8753C15.6984 19.7703 17.008 18.894 18.4499 18.2967C19.8918 17.6995 21.4375 17.393 22.9982 17.3951ZM32.881 19.3945C35.1675 21.6809 36.5904 24.6894 36.9074 27.9073C37.2244 31.1253 36.4158 34.3536 34.6194 37.0421C32.8229 39.7307 30.1499 41.7132 27.0556 42.6519C23.9614 43.5906 20.6374 43.4273 17.65 42.19C14.6626 40.9526 12.1967 38.7177 10.6724 35.866C9.14806 33.0143 8.6597 29.7223 9.29049 26.5509C9.92128 23.3795 11.6322 20.525 14.1317 18.4736C16.6312 16.4223 19.7647 15.3011 22.9982 15.3011C24.8339 15.2987 26.6521 15.6591 28.3481 16.3616C30.0441 17.064 31.5846 18.0948 32.881 19.3945ZM22.9982 13.9936C26.5342 13.9935 29.9608 15.2195 32.6942 17.4627C35.4276 19.7058 37.2986 22.8274 37.9885 26.2954C38.6784 29.7634 38.1444 33.3634 36.4776 36.4819C34.8108 39.6004 32.1143 42.0444 28.8474 43.3976C25.5806 44.7508 21.9457 44.9294 18.5619 43.903C15.1782 42.8766 12.255 40.7087 10.2905 37.7686C8.32601 34.8286 7.4417 31.2983 7.78827 27.7793C8.13483 24.2604 9.69084 20.9705 12.1911 18.4701C13.6088 17.0488 15.2933 15.9216 17.1479 15.1534C19.0026 14.3851 20.9907 13.991 22.9982 13.9936ZM23.8166 5.36273L22.9982 3.62092L22.2031 5.31331C22.1615 5.42595 22.0896 5.52495 21.9955 5.59944C21.9013 5.67394 21.7884 5.72104 21.6692 5.73558L19.764 5.97483L21.1469 7.27182C21.2334 7.34671 21.2987 7.44306 21.3362 7.55117C21.3738 7.65929 21.3822 7.77538 21.3607 7.88778L20.9992 9.7763L22.6765 8.85307C22.7733 8.79822 22.8826 8.76905 22.9938 8.76833C23.1051 8.7676 23.2147 8.79535 23.3122 8.84893L24.9971 9.77666L24.6361 7.8885C24.6155 7.78064 24.6224 7.66931 24.6563 7.56484C24.6902 7.46038 24.7499 7.36616 24.8299 7.29095L26.2325 5.97483L24.3278 5.73306C24.2182 5.71972 24.1138 5.6787 24.0244 5.61387C23.935 5.54903 23.8636 5.46251 23.8168 5.36246L23.8166 5.36273ZM23.5881 1.8139L24.8422 4.48342L27.7711 4.85178C27.8977 4.86764 28.0169 4.92015 28.114 5.00287C28.2112 5.08558 28.282 5.19488 28.3178 5.31733C28.3537 5.43978 28.3529 5.57002 28.3157 5.69205C28.2784 5.81407 28.2063 5.92254 28.1082 6.00412L25.9851 7.99524L26.5398 10.8956C26.5628 11.0172 26.5507 11.1428 26.5051 11.2578C26.4594 11.3728 26.3821 11.4724 26.282 11.5452C26.1819 11.618 26.0632 11.6608 25.9398 11.6687C25.8163 11.6767 25.6931 11.6494 25.5845 11.5901L22.9982 10.166L20.4112 11.5901C20.3026 11.6492 20.1795 11.6764 20.0561 11.6683C19.9327 11.6603 19.8141 11.6174 19.7141 11.5447C19.6141 11.4719 19.5368 11.3723 19.4911 11.2574C19.4455 11.1424 19.4333 11.0169 19.4562 10.8954L20.0112 7.99506L17.8572 5.97483C17.7673 5.88974 17.7033 5.78082 17.6729 5.66078C17.6425 5.54073 17.6469 5.41451 17.6855 5.29685C17.7241 5.17919 17.7954 5.07493 17.891 4.99625C17.9867 4.91758 18.1027 4.86772 18.2256 4.8525L21.1545 4.48289L22.4085 1.81354C22.4613 1.70166 22.5447 1.60709 22.6492 1.54086C22.7536 1.47462 22.8748 1.43945 22.9985 1.43945C23.1221 1.43945 23.2433 1.47462 23.3477 1.54086C23.4522 1.60709 23.5356 1.70166 23.5884 1.81354L23.5881 1.8139ZM6.66926 11.7892L4.85622 11.1352L5.49087 12.8946C5.54084 13.0033 5.56001 13.1236 5.54631 13.2424C5.53261 13.3612 5.48655 13.474 5.41316 13.5684L4.23351 15.0877L6.15554 15.0267C6.26527 15.0232 6.3741 15.0475 6.4719 15.0974C6.56969 15.1474 6.65325 15.2212 6.71481 15.3121L7.79599 16.9051L8.3302 15.0619C8.35998 14.9549 8.41661 14.8574 8.49471 14.7785C8.57282 14.6995 8.66981 14.6419 8.77646 14.6111L10.6261 14.075L9.05758 13.0104C8.95965 12.9503 8.87934 12.8654 8.82481 12.7643C8.77028 12.6632 8.74346 12.5494 8.74708 12.4346L8.80871 10.5125L7.28838 11.6904C7.20186 11.7577 7.09975 11.8021 6.99151 11.8193C6.88327 11.8366 6.77243 11.8262 6.66926 11.7892ZM3.99515 9.44046C3.87899 9.39875 3.75338 9.39087 3.63292 9.41775C3.51246 9.44462 3.40211 9.50514 3.3147 9.59227C3.22728 9.67941 3.1664 9.78956 3.13914 9.90993C3.11187 10.0303 3.11935 10.1559 3.16068 10.2722L4.16235 13.049L2.35155 15.3835C2.27599 15.4813 2.22975 15.5985 2.21819 15.7215C2.20664 15.8445 2.23025 15.9683 2.28627 16.0784C2.3423 16.1885 2.42845 16.2805 2.53469 16.3435C2.64092 16.4066 2.76289 16.4382 2.88639 16.4347L5.83902 16.3401L7.48397 18.7636C7.551 18.8697 7.64721 18.9542 7.76106 19.007C7.87491 19.0598 8.00156 19.0786 8.12584 19.0612C8.25011 19.0438 8.36673 18.9909 8.46172 18.9089C8.5567 18.8269 8.62602 18.7193 8.66137 18.5989L9.48353 15.7625L12.3197 14.9399C12.4382 14.9052 12.5445 14.8376 12.626 14.7449C12.7076 14.6522 12.7611 14.5382 12.7804 14.4162C12.7997 14.2942 12.7839 14.1693 12.7349 14.056C12.6859 13.9426 12.6058 13.8455 12.5037 13.776L10.061 12.1181L10.154 9.21388C10.1672 9.08656 10.1427 8.95819 10.0836 8.84467C10.0245 8.73114 9.93335 8.63745 9.82151 8.57521C9.70968 8.51296 9.58204 8.4849 9.45441 8.49449C9.32678 8.50408 9.20476 8.55091 9.10349 8.62917L6.77007 10.4414L3.99515 9.44046ZM40.4863 12.9482L41.1402 11.1352L39.3809 11.7698C39.2723 11.8197 39.152 11.8389 39.0331 11.8252C38.9143 11.8115 38.8015 11.7654 38.7071 11.692L37.1882 10.5124L37.2492 12.4346C37.2527 12.5443 37.2283 12.6531 37.1784 12.7509C37.1285 12.8487 37.0547 12.9322 36.9638 12.9938L35.3707 14.075L37.2133 14.6088C37.3202 14.6386 37.4178 14.6952 37.4967 14.7733C37.5756 14.8514 37.6332 14.9483 37.664 15.055L38.2002 16.9047L39.265 15.3365C39.3251 15.2386 39.41 15.1583 39.5112 15.1038C39.6123 15.0493 39.7261 15.0225 39.8409 15.0261L41.763 15.0877L40.585 13.5674C40.5177 13.4809 40.4734 13.3788 40.4561 13.2705C40.4388 13.1623 40.4492 13.0514 40.4862 12.9482H40.4863ZM42.835 10.2741C42.8767 10.158 42.8846 10.0324 42.8577 9.91189C42.8308 9.79143 42.7703 9.68107 42.6832 9.59366C42.596 9.50625 42.4859 9.44538 42.3655 9.41813C42.2451 9.39089 42.1195 9.39838 42.0032 9.43974L39.2264 10.4414L36.8919 8.63061C36.7941 8.55506 36.6769 8.50881 36.5539 8.49725C36.4309 8.4857 36.3071 8.50931 36.197 8.56534C36.0869 8.62137 35.995 8.70751 35.9319 8.81375C35.8688 8.91999 35.8372 9.04195 35.8407 9.16545L35.9353 12.1181L33.5117 13.763C33.4058 13.8301 33.3214 13.9263 33.2687 14.0401C33.216 14.1539 33.1973 14.2804 33.2146 14.4046C33.232 14.5288 33.2848 14.6453 33.3667 14.7403C33.4487 14.8352 33.5562 14.9046 33.6765 14.94L36.5128 15.7621L37.3354 18.5982C37.3701 18.7168 37.4377 18.823 37.5305 18.9046C37.6232 18.9862 37.7372 19.0397 37.8592 19.059C37.9812 19.0783 38.1061 19.0625 38.2195 19.0135C38.3328 18.9645 38.4299 18.8843 38.4995 18.7822L40.1574 16.3395L43.0615 16.4326C43.1888 16.4457 43.3171 16.4212 43.4306 16.3621C43.5442 16.3029 43.6378 16.2118 43.7001 16.1C43.7623 15.9882 43.7904 15.8606 43.7808 15.7329C43.7713 15.6053 43.7245 15.4833 43.6463 15.382L41.834 13.0486L42.835 10.2741Z" fill="#1A2F46"/>
</svg>
