<svg width="16" height="14" viewBox="0 0 16 14" fill="none" xmlns="http://www.w3.org/2000/svg">
<path d="M9.33798 9.52348C8.94339 9.79141 8.47743 9.93465 8.00048 9.93465C7.52353 9.93465 7.05757 9.79141 6.66298 9.52348L0.10698 5.09848C0.06998 5.07348 0.03498 5.04748 -2.00214e-05 5.02148V12.2735C-0.00146929 12.4682 0.0355034 12.6613 0.108781 12.8418C0.18206 13.0222 0.290204 13.1864 0.427025 13.325C0.563845 13.4636 0.726655 13.5738 0.906134 13.6494C1.08561 13.725 1.27824 13.7644 1.47298 13.7655H14.524C14.7186 13.7644 14.9112 13.725 15.0906 13.6495C15.27 13.574 15.4328 13.4638 15.5696 13.3254C15.7064 13.1869 15.8146 13.0228 15.8879 12.8425C15.9612 12.6621 15.9983 12.4691 15.997 12.2745V5.02148C15.962 5.04748 15.927 5.07348 15.89 5.09848L9.33798 9.52348Z" fill="#E97737"/>
<path d="M0.623974 3.44163L7.18397 7.86563C7.42498 8.02934 7.70962 8.11687 8.00097 8.11687C8.29233 8.11687 8.57696 8.02934 8.81797 7.86563L15.374 3.44163C15.5675 3.31036 15.7258 3.13355 15.835 2.92674C15.9441 2.71994 16.0008 2.48947 16 2.25562C16.0016 1.86239 15.847 1.48459 15.5703 1.20522C15.2935 0.925849 14.9172 0.767742 14.524 0.765625H1.47297C1.08034 0.769059 0.705053 0.927852 0.429197 1.20727C0.15334 1.48669 -0.000627352 1.86398 0.000974113 2.25663C-1.47417e-05 2.49003 0.0562658 2.72012 0.164882 2.92672C0.273499 3.13332 0.431136 3.31012 0.623974 3.44163Z" fill="#E97737"/>
</svg>
