<svg width="44" height="44" viewBox="0 0 44 44" fill="none" xmlns="http://www.w3.org/2000/svg">
<path d="M40.3793 18.0007H39.0462V7.33422C39.0462 6.96573 38.7476 6.6676 38.3795 6.6676H34.3415L33.0158 2.46757C32.9602 2.29227 32.8352 2.14788 32.6704 2.06784C32.505 1.98762 32.3139 1.97977 32.1422 2.04511L26.7132 4.11413L24.2747 0.308312C24.1787 0.158412 24.0268 0.052797 23.8525 0.0158652C23.6787 -0.0232391 23.4961 0.0106847 23.3482 0.109448L13.339 6.6676H7.7135C5.13763 6.67045 3.05023 8.75818 3.04706 11.3341V35.3334C3.05023 37.9093 5.13763 39.997 7.7135 40H38.3795C38.7476 40 39.0462 39.7014 39.0462 39.3332V31.3334H40.3793C41.8522 31.3334 43.0461 30.1395 43.0461 28.6671V20.6673C43.0461 19.1942 41.8522 18.0007 40.3793 18.0007ZM40.3793 19.3339C41.1158 19.3339 41.7127 19.9305 41.7127 20.6673C41.7127 21.4036 41.1158 22.0003 40.3793 22.0003H39.0462V19.3339H40.3793ZM37.7127 8.00099V14.6673H36.8683L34.763 8.00099H37.7127ZM35.4705 14.6673H33.5272L31.6789 9.12332C31.5883 8.8511 31.3335 8.6671 31.0464 8.66727C30.3693 8.66944 29.7192 8.40039 29.2418 7.92028L28.8509 7.5294C28.6671 7.34541 28.3927 7.28509 28.1483 7.37533L8.4244 14.6673H7.7135C6.82463 14.6671 5.97269 14.3112 5.34853 13.6785L31.9573 3.54561L35.4705 14.6673ZM32.1219 14.6673H12.2683L28.2107 8.77389L28.2989 8.86279C28.9064 9.47359 29.701 9.86363 30.5558 9.96974L32.1219 14.6673ZM23.5133 1.59491L25.4378 4.60076L9.88914 10.5221L23.5133 1.59491ZM7.7135 8.00099H11.3037L4.57463 12.4098C4.45047 12.0647 4.38463 11.7009 4.38045 11.3341C4.38279 9.49414 5.87376 8.00283 7.7135 8.00099ZM37.7127 38.6664H7.7135C5.87376 38.6643 4.38279 37.1731 4.38045 35.3334V14.6006C4.3868 14.6064 4.39365 14.612 4.39967 14.6186C4.4518 14.6706 4.50695 14.7184 4.56126 14.7679C4.61507 14.8172 4.67306 14.8737 4.73239 14.9231C4.79188 14.9726 4.8492 15.0124 4.90769 15.0565C4.96634 15.1006 5.02918 15.1511 5.09301 15.1955C5.15702 15.2391 5.21902 15.2731 5.28185 15.312C5.34469 15.3508 5.41153 15.3945 5.48172 15.432C5.55191 15.4691 5.61842 15.4985 5.6871 15.5326C5.75578 15.5663 5.82062 15.5993 5.89114 15.6312C5.96183 15.6631 6.04271 15.6878 6.11842 15.7151C6.19445 15.7425 6.25177 15.7685 6.32196 15.7896C6.40568 15.8165 6.49208 15.8354 6.57814 15.8564C6.64499 15.8723 6.70582 15.8927 6.77099 15.9059C6.86908 15.9265 6.97102 15.9383 7.07046 15.9525C7.12627 15.9601 7.18058 15.9718 7.23723 15.9778C7.39532 15.9935 7.55441 16.001 7.7135 16.0008H8.58065L8.59017 16.0262L8.66153 16.0008H37.7127V22.0003H30.3796C27.8027 22.0003 25.7132 24.0896 25.7132 26.6669C25.7132 29.2441 27.8027 31.3334 30.3796 31.3334H37.7127V38.6664ZM41.7127 28.6671C41.7127 29.4034 41.1158 30.0002 40.3793 30.0002H30.3796C28.5389 30.0002 27.0466 28.5079 27.0466 26.6669C27.0466 24.8259 28.5389 23.3339 30.3796 23.3339H40.3793C40.5404 23.3322 40.7001 23.3158 40.8582 23.2851C40.896 23.2786 40.9336 23.2711 40.9709 23.262C41.1216 23.2294 41.2693 23.1833 41.412 23.1252L41.4348 23.1143C41.5302 23.0739 41.6228 23.0271 41.7127 22.9758V28.6671Z" fill="#1A2F46"/>
<path d="M17.4281 18H20.0949V19.3332H17.4281V18Z" fill="#1A2F46"/>
<path d="M12.0952 18H14.7617V19.3332H12.0952V18Z" fill="#1A2F46"/>
<path d="M33.4277 18H35.7127V19.3332H33.4277V18Z" fill="#1A2F46"/>
<path d="M28.0946 18H30.7611V19.3332H28.0946V18Z" fill="#1A2F46"/>
<path d="M6.92699 17.9092L6.61499 19.2025C6.97495 19.2895 7.3436 19.3345 7.71359 19.3358H9.42833V18.0026H7.71359C7.44888 18.0019 7.18484 17.9707 6.92699 17.9092Z" fill="#1A2F46"/>
<path d="M22.7613 18H25.4279V19.3332H22.7613V18Z" fill="#1A2F46"/>
<path d="M6.92696 35.2402L6.61496 36.5333C6.97492 36.6206 7.34357 36.6657 7.71356 36.667H9.4283V35.3337H7.71356C7.44885 35.3328 7.18482 35.3021 6.92696 35.2402Z" fill="#1A2F46"/>
<path d="M33.4277 35.332H35.7127V36.6654H33.4277V35.332Z" fill="#1A2F46"/>
<path d="M17.4282 35.332H20.0949V36.6654H17.4282V35.332Z" fill="#1A2F46"/>
<path d="M28.0946 35.332H30.761V36.6654H28.0946V35.332Z" fill="#1A2F46"/>
<path d="M12.0952 35.332H14.7617V36.6654H12.0952V35.332Z" fill="#1A2F46"/>
<path d="M22.7613 35.332H25.4279V36.6654H22.7613V35.332Z" fill="#1A2F46"/>
<path d="M30.3797 24.668C29.2753 24.668 28.3797 25.5632 28.3797 26.6678C28.3797 27.7721 29.2753 28.668 30.3797 28.668C31.4841 28.668 32.3795 27.7721 32.3795 26.6678C32.3795 25.5632 31.4841 24.668 30.3797 24.668ZM30.3797 27.3346C30.0117 27.3346 29.7131 27.036 29.7131 26.6678C29.7131 26.2995 30.0117 26.0012 30.3797 26.0012C30.7478 26.0012 31.0465 26.2995 31.0465 26.6678C31.0465 27.036 30.7478 27.3346 30.3797 27.3346Z" fill="#1A2F46"/>
</svg>
