<svg width="26" height="26" viewBox="0 0 26 26" fill="none" xmlns="http://www.w3.org/2000/svg">
<g clip-path="url(#clip0_346_17166)">
<path d="M0.604006 26C0.45801 26 0.315981 25.9423 0.21065 25.8358C0.0717949 25.6953 0.0182365 25.4914 0.0704064 25.3008L1.76067 19.1285C0.708346 17.2256 0.153521 15.0729 0.154314 12.8877C0.15729 5.78133 5.9404 0 13.0462 0C16.4928 0.00138855 19.7313 1.34392 22.1654 3.77983C24.5991 6.21594 25.9389 9.45424 25.9379 12.898C25.9347 20.0046 20.1516 25.7864 13.0462 25.7864C13.0462 25.7864 13.0409 25.7864 13.0407 25.7864C10.9652 25.7856 8.90753 25.2797 7.07544 24.3216L0.74425 25.9819C0.697833 25.994 0.650622 26 0.604006 26Z" fill="#E5E5E5"/>
<path d="M0.604004 25.4467L2.35437 19.0549C1.27467 17.1841 0.706757 15.062 0.70755 12.8879C0.710327 6.08659 6.24509 0.553223 13.0462 0.553223C16.3466 0.554611 19.4444 1.83922 21.774 4.17079C24.1034 6.50237 25.3858 9.60161 25.3847 12.8978C25.3817 19.6989 19.8461 25.2331 13.0462 25.2331C13.0458 25.2331 13.0464 25.2331 13.0462 25.2331H13.0408C10.9759 25.2323 8.94701 24.7144 7.14487 23.7315L0.604004 25.4467ZM7.44777 21.4985L7.82248 21.7205C9.3967 22.6548 11.2016 23.1489 13.0422 23.1499H13.0462C18.6984 23.1499 23.2989 18.5502 23.3012 12.897C23.3022 10.1574 22.2366 7.58127 20.3004 5.64345C18.364 3.70563 15.7894 2.63783 13.05 2.63664C7.39322 2.63664 2.79295 7.23572 2.79077 12.8887C2.78998 14.8259 3.33191 16.7124 4.35864 18.3449L4.60263 18.7329L3.56638 22.5161L7.44777 21.4985Z" fill="white"/>
<path d="M1.03308 25.0157L2.72295 18.8448C1.68034 17.0389 1.13226 14.99 1.13286 12.8915C1.13544 6.32564 6.47877 0.983887 13.044 0.983887C16.2306 0.985275 19.2213 2.22545 21.4698 4.47629C23.7188 6.72713 24.9566 9.71906 24.9554 12.9008C24.9526 19.4669 19.6091 24.8092 13.0446 24.8092C13.044 24.8092 13.0448 24.8092 13.0446 24.8092H13.0393C11.0459 24.8084 9.08707 24.3082 7.34741 23.36L1.03308 25.0157Z" fill="#1A2F46"/>
<path d="M0.604004 25.4467L2.35437 19.0549C1.27467 17.1841 0.706757 15.062 0.70755 12.8879C0.710327 6.08659 6.24509 0.553223 13.0462 0.553223C16.3466 0.554611 19.4444 1.83922 21.774 4.17079C24.1034 6.50237 25.3858 9.60161 25.3847 12.8978C25.3817 19.6989 19.8461 25.2331 13.0462 25.2331C13.0458 25.2331 13.0464 25.2331 13.0462 25.2331H13.0408C10.9759 25.2323 8.94701 24.7144 7.14487 23.7315L0.604004 25.4467ZM7.44777 21.4985L7.82248 21.7205C9.3967 22.6548 11.2016 23.1489 13.0422 23.1499H13.0462C18.6984 23.1499 23.2989 18.5502 23.3012 12.897C23.3022 10.1574 22.2366 7.58127 20.3004 5.64345C18.364 3.70563 15.7894 2.63783 13.05 2.63664C7.39322 2.63664 2.79295 7.23572 2.79077 12.8887C2.78998 14.8259 3.33191 16.7124 4.35864 18.3449L4.60263 18.7329L3.56638 22.5161L7.44777 21.4985Z" fill="white"/>
<path fill-rule="evenodd" clip-rule="evenodd" d="M9.96236 7.73087C9.73146 7.2175 9.48827 7.20719 9.26848 7.19826C9.08876 7.19052 8.88306 7.19092 8.67775 7.19092C8.47224 7.19092 8.1382 7.26828 7.85573 7.57674C7.57306 7.8852 6.77643 8.63105 6.77643 10.1479C6.77643 11.665 7.88132 13.1307 8.03545 13.3366C8.18958 13.5423 10.1683 16.7547 13.3018 17.9905C15.9061 19.0176 16.436 18.8133 17.0013 18.7619C17.5667 18.7105 18.8253 18.0161 19.0822 17.2962C19.3392 16.5763 19.3392 15.9594 19.2621 15.8303C19.1849 15.7019 18.9794 15.6248 18.6711 15.4706C18.3629 15.3165 16.8472 14.5705 16.5645 14.4677C16.2818 14.3648 16.0763 14.3136 15.8708 14.6222C15.6651 14.9305 15.0748 15.6248 14.8949 15.8303C14.715 16.0364 14.535 16.0622 14.2268 15.9078C13.9185 15.7533 12.9255 15.428 11.7476 14.3777C10.8312 13.5606 10.2123 12.5513 10.0324 12.2427C9.85266 11.9344 10.0294 11.7821 10.1679 11.6137C10.4172 11.3104 10.8356 10.765 10.9383 10.5595C11.0411 10.3536 10.9897 10.1737 10.9127 10.0194C10.8356 9.86527 10.2363 8.34064 9.96236 7.73087Z" fill="white"/>
</g>
<defs>
<clipPath id="clip0_346_17166">
<rect width="26" height="26" fill="white"/>
</clipPath>
</defs>
</svg>
