<svg width="41" height="29" viewBox="0 0 41 29" fill="none" xmlns="http://www.w3.org/2000/svg">
<path d="M39.5408 5.3565C39.312 4.5097 38.8647 3.73787 38.2439 3.11822C37.623 2.49858 36.8503 2.05287 36.003 1.82569C32.8854 0.985351 20.3826 0.985352 20.3826 0.985352C20.3826 0.985352 7.87839 0.985351 4.76075 1.82569C3.91309 2.05357 3.14019 2.50022 2.51952 3.12089C1.89885 3.74155 1.4522 4.51444 1.22432 5.3621C0.64656 8.53687 0.36525 11.7585 0.383996 14.9854C0.36525 18.2122 0.64656 21.4338 1.22432 24.6086C1.4522 25.4563 1.89885 26.2291 2.51952 26.8498C3.14019 27.4705 3.91309 27.9171 4.76075 28.145C7.87839 28.9853 20.3826 28.9854 20.3826 28.9854C20.3826 28.9854 32.8868 28.9853 36.0044 28.145C36.8521 27.9171 37.625 27.4705 38.2456 26.8498C38.8663 26.2291 39.313 25.4563 39.5408 24.6086C40.1186 21.4338 40.3999 18.2122 40.3812 14.9854C40.4003 11.7566 40.119 8.53311 39.5408 5.3565ZM16.384 20.9783V8.98255L26.7719 14.9797L16.384 20.9783Z" fill="#1A2F46"/>
</svg>
