<svg width="20" height="20" viewBox="0 0 20 20" fill="none" xmlns="http://www.w3.org/2000/svg">
<g clip-path="url(#clip0_2759_3563)">
<path d="M18.5688 7.80188C18.2095 7.53552 17.9034 7.20417 17.6663 6.825C17.5556 6.36847 17.5329 5.89503 17.5994 5.43C17.6531 4.55875 17.7138 3.57125 17.0713 2.93C16.4288 2.28875 15.4425 2.34875 14.5713 2.40188C14.1062 2.46797 13.6328 2.44506 13.1763 2.33437C12.7966 2.09715 12.4648 1.79081 12.1981 1.43125C11.6113 0.760625 10.9463 0 10 0C9.05375 0 8.38875 0.760625 7.80188 1.43125C7.53535 1.79034 7.20403 2.09643 6.825 2.33375C6.36847 2.44443 5.89503 2.46712 5.43 2.40062C4.55938 2.34687 3.57188 2.28687 2.93 2.92937C2.28813 3.57187 2.3475 4.55875 2.40125 5.42938C2.46775 5.8944 2.44505 6.36784 2.33438 6.82437C2.09712 7.20383 1.79078 7.5354 1.43125 7.80188C0.76 8.38875 0 9.05375 0 10C0 10.9462 0.76 11.6112 1.43125 12.1981C1.7905 12.4645 2.09662 12.7958 2.33375 13.175C2.44444 13.6317 2.46714 14.1054 2.40063 14.5706C2.34688 15.4412 2.28625 16.4287 2.92875 17.0706C3.57125 17.7125 4.5575 17.6525 5.42875 17.5988C5.89383 17.5327 6.36723 17.5556 6.82375 17.6663C7.20312 17.9034 7.53468 18.2095 7.80125 18.5687C8.38813 19.2394 9.05125 20 9.99938 20C10.9475 20 11.6106 19.2394 12.1975 18.5687C12.464 18.2097 12.7953 17.9036 13.1744 17.6663C13.6309 17.5556 14.1043 17.5329 14.5694 17.5994C15.44 17.6531 16.4281 17.7137 17.0694 17.0706C17.7106 16.4275 17.6519 15.4412 17.5981 14.5706C17.5316 14.1054 17.5543 13.6317 17.665 13.175C17.9021 12.7958 18.2083 12.4645 18.5675 12.1981C19.2388 11.6112 19.9988 10.9481 19.9988 10C19.9988 9.05188 19.24 8.38875 18.5688 7.80188ZM17.7463 11.2575C17.2323 11.6383 16.8103 12.1295 16.5113 12.695C16.3141 13.3253 16.2597 13.9916 16.3519 14.6456C16.3888 15.2531 16.4313 15.9419 16.1869 16.1856C15.9425 16.4294 15.2544 16.3862 14.6469 16.3506C13.9929 16.2587 13.3266 16.3131 12.6963 16.51C12.1309 16.8092 11.6397 17.2312 11.2588 17.745C10.8256 18.24 10.3788 18.75 10 18.75C9.62125 18.75 9.17438 18.24 8.7425 17.7463C8.36153 17.2324 7.87035 16.8104 7.305 16.5112C6.92805 16.3705 6.52711 16.3053 6.125 16.3194C5.86875 16.3194 5.60875 16.3356 5.35125 16.3512C4.74313 16.3894 4.05563 16.4312 3.81125 16.1869C3.56688 15.9425 3.61 15.2544 3.64688 14.6475C3.73911 13.9933 3.68467 13.3268 3.4875 12.6962C3.18848 12.1308 2.76646 11.6396 2.2525 11.2587C1.76 10.825 1.25 10.3787 1.25 10C1.25 9.62125 1.76 9.175 2.25375 8.7425C2.76771 8.36169 3.18973 7.87047 3.48875 7.305C3.68591 6.67466 3.74035 6.00836 3.64813 5.35438C3.61125 4.74563 3.56875 4.05687 3.8125 3.8125C4.05625 3.56813 4.745 3.61125 5.3525 3.6475C6.00647 3.74021 6.67288 3.68576 7.30313 3.48812C7.86848 3.18893 8.35966 2.76694 8.74063 2.25312C9.17438 1.76 9.62125 1.25 10 1.25C10.3788 1.25 10.8256 1.76 11.2575 2.25375C11.6385 2.76756 12.1297 3.18955 12.695 3.48875C13.3255 3.68617 13.992 3.74082 14.6463 3.64875C15.255 3.61125 15.9419 3.56875 16.1863 3.81312C16.4306 4.0575 16.3875 4.74563 16.3506 5.3525C16.2584 6.00669 16.3128 6.6732 16.51 7.30375C16.809 7.86922 17.231 8.36044 17.745 8.74125C18.24 9.175 18.75 9.62125 18.75 10C18.75 10.3787 18.24 10.825 17.7463 11.2575Z" fill="black"/>
<path d="M9.375 7.5C9.375 7.12916 9.26503 6.76665 9.05901 6.45831C8.85298 6.14996 8.56014 5.90964 8.21753 5.76773C7.87492 5.62581 7.49792 5.58868 7.13421 5.66103C6.77049 5.73338 6.4364 5.91195 6.17418 6.17418C5.91195 6.4364 5.73338 6.77049 5.66103 7.13421C5.58868 7.49792 5.62581 7.87492 5.76773 8.21753C5.90964 8.56014 6.14996 8.85298 6.45831 9.05901C6.76665 9.26503 7.12916 9.375 7.5 9.375C7.99728 9.375 8.4742 9.17746 8.82583 8.82583C9.17746 8.4742 9.375 7.99728 9.375 7.5ZM6.875 7.5C6.875 7.37639 6.91166 7.25555 6.98033 7.15277C7.04901 7.04999 7.14662 6.96988 7.26082 6.92258C7.37503 6.87527 7.50069 6.86289 7.62193 6.88701C7.74317 6.91113 7.85453 6.97065 7.94194 7.05806C8.02935 7.14547 8.08888 7.25683 8.11299 7.37807C8.13711 7.49931 8.12473 7.62497 8.07743 7.73918C8.03012 7.85338 7.95001 7.95099 7.84723 8.01967C7.74445 8.08835 7.62361 8.125 7.5 8.125C7.33424 8.125 7.17527 8.05915 7.05806 7.94194C6.94085 7.82473 6.875 7.66576 6.875 7.5Z" fill="black"/>
<path d="M12.5 10.625C12.1292 10.625 11.7666 10.735 11.4583 10.941C11.15 11.147 10.9096 11.4399 10.7677 11.7825C10.6258 12.1251 10.5887 12.5021 10.661 12.8658C10.7334 13.2295 10.912 13.5636 11.1742 13.8258C11.4364 14.088 11.7705 14.2666 12.1342 14.339C12.4979 14.4113 12.8749 14.3742 13.2175 14.2323C13.5601 14.0904 13.853 13.85 14.059 13.5417C14.265 13.2334 14.375 12.8708 14.375 12.5C14.375 12.0027 14.1775 11.5258 13.8258 11.1742C13.4742 10.8225 12.9973 10.625 12.5 10.625ZM12.5 13.125C12.3764 13.125 12.2556 13.0883 12.1528 13.0197C12.05 12.951 11.9699 12.8534 11.9226 12.7392C11.8753 12.625 11.8629 12.4993 11.887 12.3781C11.9111 12.2568 11.9707 12.1455 12.0581 12.0581C12.1455 11.9706 12.2568 11.9111 12.3781 11.887C12.4993 11.8629 12.625 11.8753 12.7392 11.9226C12.8534 11.9699 12.951 12.05 13.0197 12.1528C13.0883 12.2555 13.125 12.3764 13.125 12.5C13.125 12.6658 13.0592 12.8247 12.9419 12.9419C12.8247 13.0592 12.6658 13.125 12.5 13.125Z" fill="black"/>
<path d="M13.5527 6.44745C13.4985 6.38622 13.4322 6.33695 13.3579 6.30276C13.2836 6.26857 13.203 6.25021 13.1212 6.24886C13.0394 6.24751 12.9583 6.26319 12.8829 6.2949C12.8075 6.32662 12.7396 6.37368 12.6834 6.43308L6.43336 12.6831C5.87398 13.2425 6.74586 14.14 7.31711 13.5668L13.5671 7.31683C13.6259 7.26028 13.6724 7.19222 13.7038 7.11689C13.7351 7.04157 13.7506 6.96059 13.7493 6.87901C13.7479 6.79744 13.7298 6.71701 13.6959 6.64276C13.6621 6.56851 13.6134 6.50203 13.5527 6.44745Z" fill="black"/>
</g>
<defs>
<clipPath id="clip0_2759_3563">
<rect width="20" height="20" fill="white"/>
</clipPath>
</defs>
</svg>
