<svg width="24" height="24" viewBox="0 0 24 24" fill="none" xmlns="http://www.w3.org/2000/svg">
<path d="M12.0001 21.7499C9.9454 21.7476 7.97554 20.9303 6.52265 19.4774C5.06976 18.0245 4.25248 16.0546 4.2501 13.9999C4.20181 12.9729 4.37507 11.9475 4.75812 10.9933C5.14117 10.0391 5.72504 9.17852 6.4701 8.46995C6.7701 8.16995 7.1051 7.86995 7.4561 7.56095C8.8291 6.34395 10.2501 5.08495 10.2501 2.99995C10.2501 2.8642 10.287 2.73101 10.3567 2.61456C10.4265 2.49812 10.5265 2.40279 10.6462 2.33874C10.7659 2.27469 10.9007 2.24432 11.0363 2.25087C11.1719 2.25743 11.3032 2.30065 11.4161 2.37595C11.4761 2.41595 16.8161 6.07595 14.5771 12.3759C15.0855 11.9992 15.5033 11.5137 15.8001 10.9549C16.1054 10.349 16.2598 9.67835 16.2501 8.99995C16.25 8.85101 16.2943 8.70543 16.3773 8.58175C16.4602 8.45806 16.5781 8.36189 16.716 8.30546C16.8538 8.24904 17.0053 8.23494 17.1512 8.26494C17.2971 8.29495 17.4307 8.36771 17.5351 8.47395C18.9641 9.95773 19.7586 11.94 19.7501 13.9999C19.7477 16.0546 18.9304 18.0245 17.4775 19.4774C16.0247 20.9303 14.0548 21.7476 12.0001 21.7499ZM11.5621 4.47195C10.9737 6.15789 9.88882 7.62627 8.4501 8.68395C8.1241 8.97295 7.8091 9.25095 7.5301 9.52995C6.92676 10.1012 6.45501 10.7969 6.14763 11.5688C5.84025 12.3408 5.7046 13.1703 5.7501 13.9999C5.7501 15.6575 6.40858 17.2473 7.58068 18.4194C8.75278 19.5915 10.3425 20.2499 12.0001 20.2499C13.6577 20.2499 15.2474 19.5915 16.4195 18.4194C17.5916 17.2473 18.2501 15.6575 18.2501 13.9999C18.2514 12.9073 17.9795 11.8317 17.4591 10.8709C17.3704 11.1369 17.2614 11.3957 17.1331 11.6449C16.2727 13.1521 14.8532 14.2597 13.1821 14.7279C13.0395 14.7636 12.8895 14.7566 12.7509 14.7077C12.6122 14.6589 12.4909 14.5703 12.4022 14.4531C12.3134 14.3359 12.2611 14.1952 12.2516 14.0485C12.2422 13.9018 12.2761 13.7556 12.3491 13.6279C14.9751 9.03095 12.9361 5.88795 11.5621 4.47195Z" fill="black"/>
</svg>
