<svg width="16" height="12" viewBox="0 0 16 12" fill="none" xmlns="http://www.w3.org/2000/svg">
<g clip-path="url(#clip0_2376_47037)">
<path fill-rule="evenodd" clip-rule="evenodd" d="M12.2664 6C13.8374 6 15.1109 4.69753 15.1109 3.09091C15.1109 1.48427 13.8374 0.181824 12.2664 0.181824C10.9411 0.181824 9.82741 1.10893 9.5116 2.36364H1.59978C1.20705 2.36364 0.888672 2.68926 0.888672 3.09091C0.888672 3.49258 1.20705 3.81819 1.59978 3.81819H9.5116C9.82741 5.07288 10.9411 6 12.2664 6ZM10.8442 3.09091C10.8442 3.89424 11.481 4.54546 12.2664 4.54546C13.0519 4.54546 13.6887 3.89424 13.6887 3.09091C13.6887 2.28759 13.0519 1.63637 12.2664 1.63637C11.481 1.63637 10.8442 2.28759 10.8442 3.09091ZM0.888672 8.90909C0.888672 7.30248 2.16217 6 3.73312 6C5.05851 6 6.17218 6.92713 6.48795 8.18182H14.3998C14.7925 8.18182 15.1109 8.50742 15.1109 8.90909C15.1109 9.31077 14.7925 9.63637 14.3998 9.63637H6.48795C6.17218 10.8911 5.05851 11.8182 3.73312 11.8182C2.16217 11.8182 0.888672 10.5157 0.888672 8.90909ZM5.15534 8.90909C5.15534 8.10575 4.51859 7.45455 3.73312 7.45455C2.94764 7.45455 2.31089 8.10575 2.31089 8.90909C2.31089 9.71244 2.94764 10.3636 3.73312 10.3636C4.51859 10.3636 5.15534 9.71244 5.15534 8.90909Z" fill="white"/>
</g>
<defs>
<clipPath id="clip0_2376_47037">
<rect width="16" height="12" fill="white"/>
</clipPath>
</defs>
</svg>
