<svg width="15" height="12" viewBox="0 0 15 12" fill="none" xmlns="http://www.w3.org/2000/svg">
<g clip-path="url(#clip0_2376_47045)">
<path fill-rule="evenodd" clip-rule="evenodd" d="M7.91099 9.08901L10.536 11.714C10.7923 11.9703 11.2077 11.9703 11.464 11.714L14.089 9.08901C14.3453 8.83273 14.3453 8.41727 14.089 8.16099C13.8327 7.9047 13.4173 7.9047 13.161 8.16099L11.6562 9.66564V0.75C11.6562 0.387566 11.3624 0.09375 11 0.09375C10.6376 0.09375 10.3437 0.387566 10.3437 0.75V9.66564L8.83901 8.16099C8.58272 7.9047 8.16727 7.9047 7.91099 8.16099C7.6547 8.41727 7.6547 8.83273 7.91099 9.08901ZM4.46404 0.285961C4.20776 0.0296823 3.79224 0.0296823 3.53596 0.285961L0.910959 2.91096C0.65468 3.16724 0.65468 3.58276 0.910959 3.83904C1.16724 4.09532 1.58276 4.09532 1.83904 3.83904L3.34375 2.33433V11.25C3.34375 11.6124 3.63756 11.9062 4 11.9062C4.36243 11.9062 4.65625 11.6124 4.65625 11.25V2.33433L6.16099 3.83904C6.41727 4.09532 6.83272 4.09532 7.08901 3.83904C7.3453 3.58276 7.3453 3.16724 7.08901 2.91096L4.46404 0.285961Z" fill="white"/>
</g>
<defs>
<clipPath id="clip0_2376_47045">
<rect width="15" height="12" fill="white"/>
</clipPath>
</defs>
</svg>
