<svg width="24" height="24" viewBox="0 0 24 24" fill="none" xmlns="http://www.w3.org/2000/svg">
<path d="M1.72787 8.59424C1.87362 8.7356 2.06186 8.80591 2.25009 8.80591C2.44564 8.80591 2.6412 8.72974 2.78842 8.57812L4.38441 6.93329L4.38473 18.9199C4.38473 19.3345 4.72055 19.6699 5.13473 19.6699C5.54892 19.6699 5.88473 19.3345 5.88473 18.9199L5.88441 6.93329L7.48068 8.57812C7.76962 8.87549 8.24423 8.88281 8.54123 8.59424C8.83859 8.30566 8.84555 7.83105 8.55734 7.53369L5.6727 4.56079C5.67247 4.56052 5.67205 4.56047 5.67183 4.5602C5.53546 4.41916 5.34608 4.33008 5.13437 4.33008C4.92265 4.33008 4.73327 4.41916 4.5969 4.5602C4.59668 4.56047 4.59626 4.56052 4.59604 4.56079L1.71176 7.53369C1.42318 7.83105 1.43051 8.30566 1.72787 8.59424Z" fill="black"/>
<path d="M20.1602 9.69214C20.1602 9.27759 19.8243 8.94214 19.4102 8.94214H11.2715C10.8573 8.94214 10.5215 9.27759 10.5215 9.69214C10.5215 10.1067 10.8573 10.4421 11.2715 10.4421H19.4102C19.8243 10.4421 20.1602 10.1067 20.1602 9.69214Z" fill="black"/>
<path d="M17.8201 14.3049C17.8201 13.8904 17.4843 13.5549 17.0701 13.5549H11.2715C10.8573 13.5549 10.5215 13.8904 10.5215 14.3049C10.5215 14.7195 10.8573 15.0549 11.2715 15.0549H17.0701C17.4843 15.0549 17.8201 14.7195 17.8201 14.3049Z" fill="black"/>
<path d="M11.2715 18.1699C10.8573 18.1699 10.5215 18.5054 10.5215 18.9199C10.5215 19.3345 10.8573 19.6699 11.2715 19.6699H14.7303C15.1445 19.6699 15.4803 19.3345 15.4803 18.9199C15.4803 18.5054 15.1445 18.1699 14.7303 18.1699H11.2715Z" fill="black"/>
<path d="M21.7502 4.33008H11.2715C10.8573 4.33008 10.5215 4.66553 10.5215 5.08008C10.5215 5.49463 10.8573 5.83008 11.2715 5.83008H21.7502C22.1644 5.83008 22.5002 5.49463 22.5002 5.08008C22.5002 4.66553 22.1644 4.33008 21.7502 4.33008Z" fill="black"/>
</svg>
