<svg width="20" height="20" viewBox="0 0 20 20" fill="none" xmlns="http://www.w3.org/2000/svg">
<g clip-path="url(#clip0_2759_2089)">
<path d="M4.47642 19.5955C4.2573 19.5955 4.03971 19.5272 3.854 19.3929C3.50808 19.1422 3.34648 18.7113 3.44063 18.2954L4.72729 12.6277L0.363771 8.80103C0.0430227 8.52102 -0.0795085 8.07759 0.0521782 7.67185C0.183865 7.26687 0.54215 6.98015 0.966356 6.94093L6.73982 6.41678L9.02244 1.075C9.19075 0.682532 9.57406 0.429077 9.99994 0.429077C10.4258 0.429077 10.8091 0.682532 10.9774 1.07408L13.2601 6.41678L19.0326 6.94093C19.4577 6.97923 19.816 7.26687 19.9477 7.67185C20.0794 8.07683 19.9576 8.52102 19.6369 8.80103L15.2734 12.627L16.56 18.2945C16.6543 18.7113 16.4926 19.1422 16.1468 19.3921C15.8018 19.6421 15.3417 19.6613 14.9784 19.4429L9.99994 16.4678L5.02148 19.4446C4.85317 19.5446 4.66564 19.5955 4.47642 19.5955ZM9.99994 15.1862C10.1892 15.1862 10.3765 15.237 10.545 15.337L15.2435 18.1471L14.0291 12.7977C13.9425 12.417 14.0717 12.0195 14.3659 11.7619L18.486 8.14854L13.035 7.65354C12.6425 7.61768 12.305 7.37094 12.1516 7.00929L9.99994 1.96827L7.84565 7.01006C7.69397 7.36926 7.35644 7.616 6.96489 7.65186L1.51309 8.14687L5.63307 11.7602C5.92818 12.0186 6.05728 12.4153 5.96984 12.7969L4.75643 18.1462L9.45488 15.337C9.62319 15.237 9.81073 15.1862 9.99994 15.1862ZM6.69572 6.52008C6.69572 6.52008 6.69572 6.521 6.6948 6.52176L6.69572 6.52008ZM13.3025 6.51764L13.3034 6.51932C13.3034 6.51841 13.3034 6.51841 13.3025 6.51764Z" fill="black"/>
</g>
<defs>
<clipPath id="clip0_2759_2089">
<rect width="20" height="20" fill="white"/>
</clipPath>
</defs>
</svg>
