<svg width="24" height="24" viewBox="0 0 24 24" fill="none" xmlns="http://www.w3.org/2000/svg">
<g clip-path="url(#clip0_2759_3183)">
<path d="M17.2095 4.64539C17.598 4.64539 17.9734 4.79239 18.2642 5.04675L18.3833 5.16199L23.4839 10.6874C24.0329 11.2845 24.0491 12.2018 23.521 12.8153L18.4009 18.785C18.0967 19.1424 17.6539 19.3446 17.1851 19.3446H1.68994C0.809713 19.3446 0.090332 18.6252 0.090332 17.745V6.245C0.090332 5.36477 0.809713 4.64539 1.68994 4.64539H17.2095ZM1.68994 5.85046C1.47021 5.85046 1.28961 6.03016 1.28955 6.24988V17.7499C1.28955 17.9696 1.47017 18.1503 1.68994 18.1503H17.1851C17.3004 18.1502 17.4125 18.0978 17.4888 18.0096L22.6138 12.035L22.6567 11.9735C22.7428 11.823 22.7233 11.6334 22.5981 11.5048L22.5962 11.5028L17.4966 5.97742L17.4956 5.97644C17.425 5.89814 17.3168 5.85046 17.2046 5.85046H1.68994Z" fill="#010101" stroke="black" stroke-width="0.2"/>
<path d="M19.645 10.25C18.82 10.25 18.145 10.925 18.145 11.75C18.145 12.575 18.82 13.25 19.645 13.25C20.47 13.25 21.145 12.575 21.145 11.75C21.145 10.925 20.475 10.25 19.645 10.25ZM19.645 12.25C19.37 12.25 19.145 12.025 19.145 11.75C19.145 11.475 19.37 11.25 19.645 11.25C19.92 11.25 20.145 11.475 20.145 11.75C20.145 12.025 19.92 12.25 19.645 12.25Z" fill="#010101"/>
<path d="M5.33502 12.745L3.52002 9.78003H2.64502V14.22H3.48002V11.325L5.27002 14.22H6.17002V9.78003H5.33502V12.745Z" fill="#010101"/>
<path d="M8.00975 12.265H10.2397V11.515H8.00975V10.53H10.4047V9.78003H7.11475V14.22H10.4897V13.47H8.00975V12.265Z" fill="#010101"/>
<path d="M15.0648 12.88L14.2848 9.78003H13.2198L12.4098 12.83L11.7398 9.78003H10.8198L11.8798 14.22H12.8548L13.7348 10.9L14.6198 14.22H15.5698L16.6448 9.78003H15.7448L15.0648 12.88Z" fill="#010101"/>
</g>
<defs>
<clipPath id="clip0_2759_3183">
<rect width="24" height="24" fill="white"/>
</clipPath>
</defs>
</svg>
