<svg width="41" height="49" viewBox="0 0 41 49" fill="none" xmlns="http://www.w3.org/2000/svg">
<path d="M40.6577 12.5068C40.6577 9.48875 38.5577 7.03475 35.9667 7.03475C35.3299 7.04413 34.7029 7.19296 34.1298 7.47078C33.5567 7.74859 33.0515 8.14864 32.6497 8.64275C31.4617 8.47893 30.2557 8.77042 29.2737 9.45875C29.6586 8.43675 29.7933 7.33747 29.6667 6.25275H31.2767V4.68975H29.3057C28.8224 3.31854 27.9255 2.13106 26.7388 1.29108C25.5521 0.451097 24.1341 0 22.6802 0C21.2263 0 19.8082 0.451097 18.6215 1.29108C17.4348 2.13106 16.538 3.31854 16.0547 4.68975H14.0777V6.25275H15.6877C15.5359 7.57297 15.7641 8.90908 16.3455 10.1041C16.9269 11.2991 17.8373 12.3033 18.9697 12.9988L9.36967 16.9438C9.32745 16.1321 9.07496 15.3454 8.63697 14.6608C8.19897 13.9762 7.59053 13.4172 6.87133 13.0387C6.15213 12.6602 5.34688 12.4752 4.5346 12.5018C3.72231 12.5284 2.93089 12.7657 2.23799 13.1904C1.54509 13.6152 0.974508 14.2128 0.582234 14.9245C0.189959 15.6363 -0.0105337 16.4379 0.000426405 17.2505C0.0113865 18.0632 0.233423 18.859 0.644751 19.5599C1.05608 20.2609 1.64257 20.8429 2.34667 21.2488V46.1188C2.34667 46.7408 2.59378 47.3374 3.03365 47.7773C3.47352 48.2171 4.0701 48.4643 4.69217 48.4643C5.31423 48.4643 5.91082 48.2171 6.35069 47.7773C6.79056 47.3374 7.03767 46.7408 7.03767 46.1188V24.6288L16.4187 20.8788V29.3788L14.4367 31.3618C14.0729 31.7246 13.7848 32.156 13.5889 32.6309C13.3931 33.1059 13.2934 33.615 13.2957 34.1288V42.2148H11.7327C10.9033 42.2148 10.108 42.5442 9.52155 43.1306C8.93512 43.7171 8.60567 44.5124 8.60567 45.3418C8.60567 46.1711 8.93512 46.9664 9.52155 47.5529C10.108 48.1393 10.9033 48.4688 11.7327 48.4688H17.2057C18.0348 48.468 18.8297 48.1383 19.4159 47.552C20.0022 46.9657 20.3319 46.1708 20.3327 45.3418V36.2568L23.4987 32.6988L27.1557 41.8418L26.0057 42.4108C25.3632 42.7343 24.8485 43.2649 24.5446 43.9169C24.2407 44.5689 24.1654 45.3043 24.3307 46.0044C24.4961 46.7045 24.8925 47.3284 25.4561 47.7756C26.0196 48.2227 26.7173 48.4669 27.4367 48.4688H27.5787C28.074 48.4676 28.5624 48.352 29.0057 48.1308L33.3697 45.9488C33.9145 45.6788 34.3729 45.2618 34.6931 44.7449C35.0134 44.228 35.1826 43.6318 35.1817 43.0238C35.1903 42.3524 34.9797 41.6965 34.5817 41.1558L29.1437 28.9098L30.1937 28.4878C30.8729 28.2099 31.4892 27.798 32.0057 27.2768C32.7456 27.2059 33.4804 27.0887 34.2057 26.9258C35.8181 26.5405 37.2537 25.6234 38.2813 24.3225C39.3088 23.0216 39.8683 21.4125 39.8697 19.7548V19.6548C39.8643 18.5673 39.6188 17.4944 39.1507 16.5128C40.1311 15.409 40.6658 13.98 40.6507 12.5038L40.6577 12.5068ZM35.9667 8.59875C37.6917 8.59875 39.0937 10.3528 39.0937 12.5078C39.1012 13.3951 38.8462 14.2649 38.3607 15.0078L36.2427 11.1248C35.7985 10.3111 35.1295 9.64249 34.3157 9.19875C34.7827 8.8184 35.3644 8.60697 35.9667 8.59875ZM22.6767 1.56275C23.7109 1.56445 24.7235 1.85905 25.5973 2.41246C26.471 2.96587 27.1701 3.75544 27.6137 4.68975H17.7397C18.1832 3.75544 18.8823 2.96587 19.7561 2.41246C20.6298 1.85905 21.6424 1.56445 22.6767 1.56275ZM17.2057 7.03475C17.208 6.77292 17.2291 6.51159 17.2687 6.25275H28.0887C28.1948 6.99573 28.1469 7.75259 27.948 8.47626C27.749 9.19992 27.4032 9.87489 26.9321 10.4591C26.4611 11.0434 25.8748 11.5244 25.2097 11.8723C24.5447 12.2202 23.8152 12.4275 23.0666 12.4813C22.318 12.5351 21.5664 12.4342 20.8585 12.185C20.1505 11.9358 19.5015 11.5435 18.9517 11.0326C18.4019 10.5217 17.9632 9.90308 17.6628 9.2153C17.3624 8.52752 17.2068 7.78527 17.2057 7.03475ZM20.3317 14.1988V22.6728C20.3314 22.8801 20.2489 23.0788 20.1023 23.2254C19.9557 23.372 19.757 23.4545 19.5497 23.4548H17.9867V15.0988L19.7727 14.3648C19.9545 14.2953 20.1414 14.2398 20.3317 14.1988ZM4.69667 14.0738C5.31522 14.0738 5.91987 14.2572 6.43415 14.6009C6.94842 14.9446 7.34922 15.4331 7.58583 16.0046C7.82245 16.5761 7.88426 17.2049 7.76344 17.8115C7.64262 18.4182 7.3446 18.9753 6.90708 19.4126C6.46957 19.8498 5.9122 20.1475 5.30549 20.2679C4.69878 20.3883 4.06998 20.3261 3.49863 20.0892C2.92728 19.8522 2.43905 19.4511 2.09569 18.9366C1.75233 18.4221 1.56927 17.8173 1.56967 17.1988C1.5702 16.3695 1.89979 15.5743 2.48607 14.9879C3.07235 14.4014 3.86741 14.0715 4.69667 14.0708V14.0738ZM4.69667 46.9078C4.48935 46.9075 4.2906 46.825 4.14401 46.6784C3.99741 46.5318 3.91494 46.3331 3.91467 46.1258V21.8178C4.43178 21.9116 4.96156 21.9116 5.47867 21.8178V46.1228C5.4784 46.3301 5.39593 46.5288 5.24934 46.6754C5.10274 46.822 4.90399 46.9045 4.69667 46.9048V46.9078ZM7.04167 22.9498V21.2538C8.01108 20.6912 8.74794 19.8011 9.11967 18.7438L16.4197 15.7438V19.1988L7.04167 22.9498ZM17.2057 46.9048H11.7327C11.524 46.91 11.3164 46.8735 11.1221 46.7973C10.9278 46.7211 10.7507 46.6068 10.6013 46.4611C10.4518 46.3154 10.3331 46.1412 10.252 45.9489C10.1709 45.7566 10.1291 45.55 10.1291 45.3413C10.1291 45.1325 10.1709 44.9259 10.252 44.7336C10.3331 44.5413 10.4518 44.3671 10.6013 44.2214C10.7507 44.0757 10.9278 43.9614 11.1221 43.8852C11.3164 43.809 11.524 43.7725 11.7327 43.7778H14.8597V39.8688H18.7687V45.3408C18.7684 45.7553 18.6037 46.1528 18.3106 46.446C18.0176 46.7392 17.6202 46.9042 17.2057 46.9048ZM19.1637 35.2188C18.9072 35.5042 18.7649 35.874 18.7637 36.2578V38.3058H14.8597V34.1288C14.8614 33.5072 15.1083 32.9114 15.5467 32.4708L17.9867 30.0298V25.0158H19.5507C20.1724 25.015 20.7684 24.7676 21.208 24.328C21.6476 23.8884 21.8949 23.2924 21.8957 22.6708V14.0708H25.0227V23.7778L21.5147 25.2398C20.8403 25.5097 20.281 26.006 19.9327 26.6435C19.5845 27.2809 19.469 28.0197 19.6061 28.733C19.7432 29.4463 20.1243 30.0896 20.6841 30.5525C21.2439 31.0154 21.9473 31.269 22.6737 31.2698L19.1637 35.2188ZM26.5857 14.0708H28.1497C28.4123 14.0707 28.6743 14.0972 28.9317 14.1498V22.1498L26.5867 23.1268L26.5857 14.0708ZM33.2927 42.0358C33.5117 42.3149 33.6279 42.661 33.6217 43.0158C33.6227 43.3345 33.5345 43.6471 33.3669 43.9182C33.1994 44.1894 32.9592 44.4081 32.6737 44.5498L28.3057 46.7318C28.0787 46.8454 27.8285 46.905 27.5747 46.9058H27.4327C27.0629 46.9079 26.7034 46.7845 26.4128 46.5558C26.1222 46.3272 25.9178 46.0067 25.8329 45.6468C25.748 45.2869 25.7877 44.9089 25.9455 44.5745C26.1034 44.24 26.3699 43.9691 26.7017 43.8058L29.1367 42.5878L27.3127 38.0278L30.7237 36.3228L33.1897 41.8698L33.2927 42.0358ZM30.0927 34.8948L26.7357 36.5738L24.4287 30.8078L27.6917 29.4988L30.0927 34.8948ZM29.6057 27.0368L23.2587 29.5988C22.8729 29.7464 22.4448 29.738 22.0652 29.5755C21.6855 29.4129 21.384 29.1088 21.2247 28.7278C21.1487 28.5362 21.1113 28.3315 21.1144 28.1254C21.1176 27.9193 21.1614 27.7159 21.2432 27.5267C21.325 27.3376 21.4433 27.1664 21.5913 27.0229C21.7392 26.8795 21.914 26.7666 22.1057 26.6908L29.5327 23.5968C29.8179 23.4785 30.0616 23.2783 30.2328 23.0214C30.4041 22.7645 30.4952 22.4625 30.4947 22.1538V14.8548C30.9806 15.2182 31.375 15.69 31.6465 16.2327C31.918 16.7754 32.0591 17.3739 32.0587 17.9808V23.4128C32.0606 24.1932 31.8277 24.9562 31.3903 25.6025C30.9528 26.2488 30.331 26.7486 29.6057 27.0368ZM38.3057 19.7548C38.3069 21.0575 37.8696 22.3227 37.0642 23.3465C36.2587 24.3704 35.1321 25.0933 33.8657 25.3988C33.6387 25.4508 33.4117 25.4868 33.1847 25.5298C33.4705 24.859 33.6194 24.1379 33.6227 23.4088V17.9798C33.6208 16.5291 33.0437 15.1383 32.0179 14.1125C30.9921 13.0867 29.6014 12.5096 28.1507 12.5078H28.0507L29.8677 10.9508C30.2379 10.6343 30.6741 10.4045 31.1445 10.278C31.6148 10.1516 32.1075 10.1316 32.5865 10.2197C33.0655 10.3077 33.5189 10.5015 33.9135 10.787C34.3081 11.0724 34.6341 11.4424 34.8677 11.8698L37.6057 16.8808C38.0698 17.7331 38.3132 18.6882 38.3137 19.6588L38.3057 19.7548Z" fill="#E97737"/>
</svg>
