<svg width="41" height="49" viewBox="0 0 41 49" fill="none" xmlns="http://www.w3.org/2000/svg">
<path d="M38.8083 41.5523L34.1954 34.9849L33.4831 33.81L31.4991 21.6108C31.3779 20.8733 31.2209 20.1231 31.0313 19.3982C31.0313 19.3802 31.0218 19.3634 31.0165 19.3465L26.1371 4.3994C25.9433 3.8034 25.5801 3.27677 25.0918 2.88393C24.6035 2.4911 24.0113 2.24908 23.3877 2.18749C22.764 2.12589 22.1359 2.24739 21.5802 2.53712C21.0245 2.82684 20.5653 3.27224 20.2587 3.81883C19.9515 3.27306 19.4921 2.82848 18.9366 2.53936C18.381 2.25023 17.7533 2.12906 17.1301 2.19061C16.5068 2.25216 15.915 2.49379 15.4267 2.88601C14.9384 3.27822 14.5749 3.80407 14.3804 4.3994L9.49986 19.3423C9.4946 19.3592 9.48933 19.3771 9.48511 19.3939C9.29546 20.122 9.13741 20.8691 9.01729 21.6066L7.02905 33.8111L6.31678 34.9859L1.7081 41.5523C1.63921 41.6504 1.59064 41.7613 1.56525 41.8784C1.53986 41.9956 1.53816 42.1166 1.56025 42.2344C1.58234 42.3522 1.62778 42.4644 1.69388 42.5644C1.75999 42.6644 1.84543 42.7502 1.94517 42.8167L9.75064 48.0207C9.9434 48.1494 10.1785 48.1986 10.4067 48.158C10.6349 48.1173 10.8385 47.99 10.975 47.8026L15.7849 41.2109L19.0407 36.7539C19.1313 36.63 19.1886 36.4849 19.2072 36.3325L20.2608 27.997L21.3145 36.3335C21.333 36.486 21.3903 36.6311 21.481 36.755L24.7304 41.2099L29.5425 47.7973C29.6789 47.9847 29.8825 48.112 30.1108 48.1527C30.339 48.1933 30.5741 48.1441 30.7668 48.0154L38.5723 42.8114C38.672 42.7449 38.7575 42.6592 38.8236 42.5592C38.8897 42.4592 38.9351 42.347 38.9572 42.2292C38.9793 42.1113 38.9776 41.9903 38.9522 41.8731C38.9268 41.756 38.8782 41.6451 38.8093 41.547L38.8083 41.5523ZM10.0309 46.0472L3.70899 41.8326L7.31143 36.7034L13.7766 40.918L10.0309 46.0472ZM19.3442 20.8722L17.4539 35.8805L14.8366 39.4629L8.29343 35.1988L8.66011 34.594C8.71972 34.4954 8.75978 34.3863 8.77811 34.2726L10.7895 21.8985C10.8949 21.2199 11.0435 20.5393 11.211 19.8734L16.0905 4.95678C16.2015 4.61536 16.4369 4.32821 16.7499 4.15238C17.063 3.97656 17.4307 3.92492 17.78 4.00775C18.1294 4.09057 18.4347 4.30178 18.6355 4.59942C18.8363 4.89706 18.9177 5.25933 18.8637 5.61426L17.6109 13.8696C17.6109 13.8907 17.6056 13.9128 17.6035 13.9339L17.3675 16.9442C16.4837 16.9646 15.6367 17.3018 14.9807 17.8944C14.3247 18.487 13.9034 19.2954 13.7935 20.1726L13.1855 25.0584L13.096 25.7791C13.0746 26.0114 13.1445 26.243 13.2907 26.4248C13.437 26.6066 13.6482 26.7244 13.8798 26.7532C14.1113 26.7821 14.345 26.7198 14.5314 26.5795C14.7178 26.4392 14.8424 26.2319 14.8788 26.0014L15.5763 20.3928C15.6062 20.1467 15.6847 19.909 15.8071 19.6934C15.9296 19.4778 16.0936 19.2886 16.2896 19.1369L16.3012 19.1379C16.694 18.8343 17.1912 18.699 17.6836 18.7618C17.7743 18.7733 17.8641 18.7912 17.9523 18.8155L17.9807 18.8229C18.4144 18.9465 18.7898 19.2205 19.0397 19.5959C19.2896 19.9713 19.3975 20.4245 19.3442 20.8722ZM20.2566 18.2381C19.9445 17.8756 19.5652 17.5769 19.1397 17.3583L19.3937 14.1141L20.2587 8.39064L21.1248 14.1099L21.3788 17.353C20.951 17.5714 20.5696 17.8705 20.2556 18.2339L20.2566 18.2381ZM23.0625 35.8805L21.1659 20.8627C21.1582 20.7966 21.1539 20.7302 21.1533 20.6636C21.1533 20.6636 21.1533 20.6552 21.1533 20.652C21.1519 20.2385 21.2858 19.8359 21.5344 19.5056C21.783 19.1752 22.1327 18.9351 22.5304 18.8218L22.5641 18.8134C22.6523 18.7891 22.7421 18.7712 22.8328 18.7596C23.0789 18.7287 23.3286 18.7465 23.5678 18.8122C23.8069 18.8779 24.0308 18.99 24.2265 19.1423C24.4222 19.2946 24.586 19.484 24.7085 19.6997C24.8309 19.9153 24.9096 20.153 24.9401 20.3991L25.6376 26.0077C25.674 26.2382 25.7985 26.4455 25.985 26.5858C26.1714 26.7261 26.4051 26.7884 26.6366 26.7596C26.8682 26.7307 27.0794 26.6129 27.2257 26.4311C27.3719 26.2493 27.4418 26.0178 27.4204 25.7854L27.3308 25.0668L26.7229 20.181C26.6646 19.7006 26.5116 19.2365 26.2726 18.8156C26.0337 18.3948 25.7137 18.0255 25.331 17.7292L25.3194 17.7197C25.0212 17.4885 24.6893 17.3044 24.3353 17.1739C23.9549 17.0344 23.554 16.9592 23.1489 16.9516L22.9129 13.9413C22.9129 13.9202 22.9129 13.8981 22.9055 13.877L21.6548 5.61426C21.6008 5.25933 21.6822 4.89706 21.883 4.59942C22.0838 4.30178 22.3891 4.09057 22.7385 4.00775C23.0878 3.92492 23.4555 3.97656 23.7686 4.15238C24.0816 4.32821 24.317 4.61536 24.428 4.95678L29.3001 19.8755C29.4729 20.5403 29.6162 21.222 29.7216 21.9006L31.733 34.2736C31.7517 34.3874 31.7921 34.4965 31.8521 34.595L32.2187 35.1998L25.6787 39.4629L23.0625 35.8805ZM30.4855 46.0472L26.7408 40.9159L33.206 36.7013L36.8085 41.8305L30.4855 46.0472Z" fill="#E97737"/>
<path d="M37.3733 12.5201H34.1838C34.0633 12.5159 33.9432 12.5361 33.8306 12.5794C33.718 12.6227 33.6153 12.6882 33.5285 12.772C33.4418 12.8558 33.3728 12.9562 33.3257 13.0673C33.2786 13.1783 33.2543 13.2977 33.2543 13.4183C33.2543 13.5389 33.2786 13.6583 33.3257 13.7693C33.3728 13.8804 33.4418 13.9808 33.5285 14.0646C33.6153 14.1484 33.718 14.2139 33.8306 14.2572C33.9432 14.3005 34.0633 14.3207 34.1838 14.3165H37.3743C37.4949 14.3207 37.615 14.3005 37.7276 14.2572C37.8402 14.2139 37.9429 14.1484 38.0296 14.0646C38.1164 13.9808 38.1854 13.8804 38.2325 13.7693C38.2796 13.6583 38.3039 13.5389 38.3039 13.4183C38.3039 13.2977 38.2796 13.1783 38.2325 13.0673C38.1854 12.9562 38.1164 12.8558 38.0296 12.772C37.9429 12.6882 37.8402 12.6227 37.7276 12.5794C37.615 12.5361 37.4949 12.5159 37.3743 12.5201H37.3733Z" fill="#E97737"/>
<path d="M36.8549 19.2821L34.599 17.0263C34.4292 16.8642 34.2027 16.7749 33.968 16.7776C33.7332 16.7804 33.5088 16.8748 33.3428 17.0408C33.1768 17.2068 33.0824 17.4312 33.0797 17.6659C33.077 17.9007 33.1662 18.1272 33.3283 18.297L35.5842 20.5528C35.754 20.715 35.9805 20.8042 36.2152 20.8015C36.45 20.7988 36.6743 20.7043 36.8403 20.5383C37.0063 20.3723 37.1008 20.1479 37.1035 19.9132C37.1062 19.6784 37.017 19.4519 36.8549 19.2821Z" fill="#E97737"/>
<path d="M36.8559 6.39393C36.6873 6.22548 36.4588 6.13086 36.2205 6.13086C35.9822 6.13086 35.7537 6.22548 35.5852 6.39393L33.3293 8.6498C33.2427 8.73251 33.1734 8.83171 33.1257 8.94156C33.0779 9.05141 33.0526 9.1697 33.0512 9.28947C33.0498 9.40925 33.0724 9.52809 33.1176 9.63901C33.1628 9.74994 33.2297 9.85072 33.3144 9.93541C33.3991 10.0201 33.4999 10.087 33.6108 10.1322C33.7217 10.1774 33.8406 10.2 33.9603 10.1986C34.0801 10.1972 34.1984 10.1719 34.3082 10.1241C34.4181 10.0764 34.5173 10.0071 34.6 9.92051L36.8559 7.66464C37.0243 7.4961 37.1189 7.26757 37.1189 7.02929C37.1189 6.791 37.0243 6.56247 36.8559 6.39393Z" fill="#E97737"/>
<path d="M6.33266 12.6297H3.14325C3.0227 12.6255 2.90256 12.6457 2.78997 12.689C2.67739 12.7323 2.57467 12.7978 2.48793 12.8816C2.40119 12.9654 2.33221 13.0658 2.2851 13.1769C2.23799 13.2879 2.21371 13.4073 2.21371 13.5279C2.21371 13.6485 2.23799 13.7679 2.2851 13.879C2.33221 13.99 2.40119 14.0904 2.48793 14.1742C2.57467 14.258 2.67739 14.3235 2.78997 14.3668C2.90256 14.4101 3.0227 14.4303 3.14325 14.4262H6.33371C6.45426 14.4303 6.57441 14.4101 6.68699 14.3668C6.79958 14.3235 6.9023 14.258 6.98903 14.1742C7.07577 14.0904 7.14475 13.99 7.19186 13.879C7.23897 13.7679 7.26325 13.6485 7.26325 13.5279C7.26325 13.4073 7.23897 13.2879 7.19186 13.1769C7.14475 13.0658 7.07577 12.9654 6.98903 12.8816C6.9023 12.7978 6.79958 12.7323 6.68699 12.689C6.57441 12.6457 6.45321 12.6255 6.33266 12.6297Z" fill="#E97737"/>
<path d="M7.18715 8.64882L4.93127 6.39295C4.76134 6.23098 4.53477 6.14193 4.30002 6.14484C4.06528 6.14776 3.841 6.24241 3.67513 6.40855C3.50927 6.57469 3.41499 6.79913 3.41247 7.03388C3.40994 7.26863 3.49937 7.49504 3.66162 7.66471L5.91749 9.92058C6.0002 10.0072 6.0994 10.0765 6.20925 10.1242C6.3191 10.172 6.43738 10.1973 6.55716 10.1987C6.67693 10.2001 6.79578 10.1775 6.90671 10.1323C7.01763 10.0871 7.1184 10.0202 7.2031 9.93549C7.2878 9.85079 7.35471 9.75002 7.39991 9.63909C7.4451 9.52816 7.46767 9.40932 7.46628 9.28955C7.46489 9.16977 7.43958 9.05148 7.39183 8.94164C7.34407 8.83179 7.27484 8.73259 7.1882 8.64988L7.18715 8.64882Z" fill="#E97737"/>
<path d="M7.18821 17.0263C7.01967 16.8578 6.79114 16.7632 6.55286 16.7632C6.31457 16.7632 6.08604 16.8578 5.9175 17.0263L3.66163 19.2821C3.57499 19.3648 3.50576 19.464 3.45801 19.5739C3.41025 19.6837 3.38493 19.802 3.38354 19.9218C3.38216 20.0416 3.40472 20.1604 3.44992 20.2713C3.49512 20.3823 3.56203 20.483 3.64672 20.5677C3.73142 20.6524 3.8322 20.7194 3.94313 20.7645C4.05406 20.8097 4.1729 20.8323 4.29267 20.8309C4.41244 20.8295 4.53073 20.8042 4.64058 20.7565C4.75043 20.7087 4.84962 20.6395 4.93234 20.5528L7.18821 18.297C7.35665 18.1284 7.45128 17.8999 7.45128 17.6616C7.45128 17.4233 7.35665 17.1948 7.18821 17.0263Z" fill="#E97737"/>
</svg>
