<svg width="49" height="49" viewBox="0 0 49 49" fill="none" xmlns="http://www.w3.org/2000/svg">
<path d="M36.1464 30.4147C36.4359 31.6679 37.0774 32.8123 37.9953 33.7132C38.9132 34.6141 40.0694 35.2341 41.3278 35.5001C42.5861 35.7661 43.8943 35.6671 45.0983 35.2147C46.3023 34.7623 47.352 33.9754 48.1239 32.9466L48.6527 32.2401L47.4153 31.3137L46.8865 32.0202C46.2919 32.8136 45.483 33.4205 44.5549 33.7695C43.6269 34.1185 42.6185 34.1949 41.6484 33.9899C40.6784 33.7848 39.7872 33.3068 39.0798 32.6121C38.3724 31.9174 37.8783 31.035 37.6556 30.0689L36.378 24.5344C35.6953 21.5258 34.0078 18.8397 31.5935 16.919C29.1793 14.9984 26.1826 13.9578 23.0976 13.9688C19.522 13.9641 15.9858 14.7144 12.7203 16.1708L10.5575 17.1322C10.3957 17.2046 10.2637 17.3305 10.1835 17.4886C10.1034 17.6467 10.0799 17.8275 10.117 18.0009C10.1542 18.1742 10.2497 18.3295 10.3876 18.4409C10.5255 18.5523 10.6975 18.613 10.8747 18.6128H14.9148C15.9529 18.6127 16.9676 18.9204 17.8308 19.497C18.6939 20.0736 19.3666 20.8933 19.7639 21.8523C20.1612 22.8113 20.2651 23.8666 20.0625 24.8847C19.86 25.9028 19.3601 26.8379 18.626 27.5718L18.4272 27.7707C16.4247 25.8438 13.7458 24.7798 10.9669 24.8077C8.18805 24.8356 5.53112 25.9531 3.56769 27.9198L1.02942 30.4581C0.920978 30.5663 0.84711 30.7044 0.817168 30.8546C0.787227 31.0049 0.802559 31.1607 0.861224 31.3023C0.919889 31.4438 1.01925 31.5648 1.14671 31.6499C1.27418 31.7349 1.42402 31.7802 1.57726 31.7801H6.49093C7.20416 31.7799 7.90142 31.9912 8.49451 32.3874C9.0876 32.7835 9.54987 33.3467 9.82284 34.0056C10.0958 34.6645 10.1672 35.3896 10.028 36.0891C9.88881 36.7886 9.54527 37.4311 9.04084 37.9354L8.20956 38.7656C8.06572 38.7561 7.92189 38.7444 7.77699 38.7444C6.93873 38.7421 6.10832 38.906 5.33386 39.2268C4.5594 39.5476 3.85628 40.0188 3.26521 40.6132L1.03259 42.8416L2.12828 43.9373L4.35773 41.7079C4.80654 41.2591 5.33936 40.903 5.92577 40.6601C6.51218 40.4172 7.14068 40.2922 7.77541 40.2922C8.41013 40.2922 9.03864 40.4172 9.62504 40.6601C10.2114 40.903 10.7443 41.2591 11.1931 41.7079L11.7801 42.2948C12.9768 43.4915 14.5999 44.1638 16.2924 44.1638C17.9848 44.1638 19.6079 43.4915 20.8047 42.2948L21.3917 41.7079C21.8405 41.2591 22.3733 40.903 22.9597 40.6601C23.5461 40.4172 24.1746 40.2922 24.8093 40.2922C25.4441 40.2922 26.0726 40.4172 26.659 40.6601C27.2454 40.903 27.7782 41.2591 28.227 41.7079L28.814 42.2948C30.0108 43.4915 31.6339 44.1638 33.3263 44.1638C35.0187 44.1638 36.6418 43.4915 37.8386 42.2948L38.4256 41.7079C38.8744 41.2591 39.4072 40.903 39.9936 40.6601C40.58 40.4172 41.2085 40.2922 41.8433 40.2922C42.478 40.2922 43.1065 40.4172 43.6929 40.6601C44.2793 40.903 44.8121 41.2591 45.2609 41.7079L47.4904 43.9373L48.5818 42.8416L46.3524 40.6122C45.1556 39.4155 43.5325 38.7432 41.8401 38.7432C40.1477 38.7432 38.5245 39.4155 37.3278 40.6122L36.7408 41.1992C36.292 41.648 35.7592 42.004 35.1728 42.2469C34.5863 42.4898 33.9578 42.6148 33.3231 42.6148C32.6884 42.6148 32.0599 42.4898 31.4735 42.2469C30.8871 42.004 30.3543 41.648 29.9054 41.1992L29.3185 40.6122C28.1217 39.4155 26.4986 38.7432 24.8062 38.7432C23.1137 38.7432 21.4906 39.4155 20.2939 40.6122L19.7069 41.1992C19.2581 41.648 18.7252 42.004 18.1388 42.2469C17.5524 42.4898 16.9239 42.6148 16.2892 42.6148C15.6545 42.6148 15.026 42.4898 14.4396 42.2469C13.8532 42.004 13.3203 41.648 12.8715 41.1992L12.2845 40.6122C11.6391 39.9679 10.8625 39.4701 10.0075 39.1527L10.1334 39.0268C10.8538 38.3058 11.3443 37.3874 11.5429 36.3877C11.7414 35.3879 11.6392 34.3518 11.249 33.4101C10.8589 32.4685 10.1983 31.6637 9.35082 31.0974C8.50336 30.5311 7.50702 30.2287 6.48776 30.2286H3.4503L4.66232 29.0165C5.9325 27.7477 7.5503 26.8839 9.31128 26.5342C11.0723 26.1845 12.8974 26.3647 14.556 27.0519C16.2146 27.7392 17.6322 28.9027 18.6298 30.3954C19.6274 31.8881 20.1601 33.643 20.1606 35.4384V36.423H21.7089V35.4384C21.7085 33.0778 20.9177 30.7854 19.4626 28.9266L19.7185 28.6707C20.6695 27.7203 21.3173 26.5093 21.5799 25.1907C21.8426 23.8722 21.7083 22.5054 21.1941 21.2631C20.6799 20.0209 19.8089 18.959 18.6912 18.2119C17.5735 17.4647 16.2593 17.0658 14.9148 17.0655H14.6134C17.3238 16.0377 20.1989 15.513 23.0976 15.5172C25.8321 15.5073 28.4883 16.4295 30.6283 18.1317C32.7683 19.834 34.2644 22.2147 34.8699 24.8813L36.1464 30.4147Z" fill="#E97737"/>
<path d="M41.8406 43.3898C41.0023 43.3874 40.1719 43.5514 39.3974 43.8721C38.623 44.1929 37.9198 44.6642 37.3288 45.2586L36.7418 45.8456C36.293 46.2944 35.7602 46.6504 35.1738 46.8933C34.5874 47.1362 33.9588 47.2612 33.3241 47.2612C32.6894 47.2612 32.0609 47.1362 31.4745 46.8933C30.8881 46.6504 30.3553 46.2944 29.9064 45.8456L29.3195 45.2586C28.1227 44.0619 26.4996 43.3896 24.8072 43.3896C23.1147 43.3896 21.4916 44.0619 20.2949 45.2586L19.7079 45.8456C19.2591 46.2944 18.7262 46.6504 18.1398 46.8933C17.5534 47.1362 16.9249 47.2612 16.2902 47.2612C15.6555 47.2612 15.027 47.1362 14.4406 46.8933C13.8542 46.6504 13.3213 46.2944 12.8725 45.8456L12.2855 45.2586C11.0888 44.0619 9.46565 43.3896 7.77323 43.3896C6.08081 43.3896 4.4577 44.0619 3.26092 45.2586L1.03253 47.488L2.12716 48.5827L4.35661 46.3511C4.80543 45.9023 5.33825 45.5463 5.92465 45.3034C6.51106 45.0605 7.13957 44.9354 7.77429 44.9354C8.40901 44.9354 9.03752 45.0605 9.62393 45.3034C10.2103 45.5463 10.7432 45.9023 11.192 46.3511L11.7789 46.9381C12.9757 48.1347 14.5988 48.807 16.2913 48.807C17.9837 48.807 19.6068 48.1347 20.8036 46.9381L21.3905 46.3511C22.2967 45.4463 23.525 44.9381 24.8056 44.9381C26.0862 44.9381 27.3144 45.4463 28.2206 46.3511L28.8076 46.9381C30.0044 48.1347 31.6275 48.807 33.3199 48.807C35.0123 48.807 36.6354 48.1347 37.8322 46.9381L38.4192 46.3511C38.868 45.9023 39.4008 45.5463 39.9872 45.3034C40.5736 45.0605 41.2021 44.9354 41.8369 44.9354C42.4716 44.9354 43.1001 45.0605 43.6865 45.3034C44.2729 45.5463 44.8057 45.9023 45.2545 46.3511L47.484 48.5805L48.5786 47.4859L46.3492 45.2565C45.7583 44.6628 45.0556 44.1922 44.2817 43.8718C43.5079 43.5514 42.6781 43.3875 41.8406 43.3898Z" fill="#E97737"/>
<path d="M25.7966 17.6814L25.3661 19.1673C27.0981 19.669 28.6467 20.6637 29.8231 22.0303C30.9994 23.3969 31.7527 25.0762 31.991 26.8636L32.5558 31.1025L34.0904 30.8984L33.5256 26.6595C33.2474 24.5744 32.3685 22.6153 30.9961 21.0211C29.6237 19.427 27.8171 18.2665 25.7966 17.6814Z" fill="#E97737"/>
<path d="M22.3625 18.6216L22.618 17.0945L24.166 17.3535L23.9105 18.8806L22.3625 18.6216Z" fill="#E97737"/>
<path d="M3.90291 11.6466H13.9682C14.995 11.6466 15.9797 11.2388 16.7057 10.5127C17.4317 9.7867 17.8396 8.802 17.8396 7.77524C17.8396 6.74849 17.4317 5.76379 16.7057 5.03776C15.9797 4.31173 14.995 3.90386 13.9682 3.90386C13.6271 3.90438 13.2877 3.95135 12.9593 4.04346C12.6678 3.10272 12.082 2.28046 11.288 1.69781C10.494 1.11517 9.53383 0.802953 8.549 0.807171C7.31757 0.809128 6.13711 1.29911 5.26625 2.16977C4.39539 3.04042 3.90514 4.22077 3.90291 5.4522C3.08161 5.4522 2.29396 5.77846 1.71321 6.3592C1.13247 6.93994 0.806213 7.72759 0.806213 8.54889C0.806213 9.37018 1.13247 10.1578 1.71321 10.7386C2.29396 11.3193 3.08161 11.6466 3.90291 11.6466ZM3.90291 7.0016C4.11076 7.00139 4.31651 7.04312 4.50786 7.12428C4.64092 7.18202 4.78751 7.20121 4.93094 7.17968C5.07438 7.15815 5.20888 7.09676 5.31912 7.0025C5.42936 6.90825 5.5109 6.78492 5.55446 6.64658C5.59801 6.50823 5.60183 6.36044 5.56547 6.22003C5.49798 5.96993 5.46245 5.71229 5.45971 5.45326C5.46027 4.63332 5.78566 3.847 6.36465 3.26642C6.94364 2.68585 7.72907 2.35831 8.549 2.35551C9.32403 2.35332 10.0711 2.64462 10.6401 3.17084C11.2091 3.69707 11.5578 4.41919 11.6161 5.19203C11.6274 5.32289 11.6719 5.44873 11.7452 5.55772C11.8185 5.66671 11.9183 5.75528 12.0352 5.81512C12.1522 5.87496 12.2824 5.90411 12.4137 5.89983C12.545 5.89554 12.673 5.85797 12.7858 5.79064C13.1419 5.57184 13.5513 5.45513 13.9693 5.45326C14.2861 5.43413 14.6034 5.48001 14.9018 5.58808C15.2002 5.69615 15.4733 5.86412 15.7044 6.08166C15.9355 6.2992 16.1196 6.56171 16.2455 6.85306C16.3713 7.1444 16.4363 7.45841 16.4363 7.77577C16.4363 8.09314 16.3713 8.40715 16.2455 8.69849C16.1196 8.98983 15.9355 9.25235 15.7044 9.46989C15.4733 9.68743 15.2002 9.8554 14.9018 9.96347C14.6034 10.0715 14.2861 10.1174 13.9693 10.0983H3.90291C3.49226 10.0983 3.09843 9.93516 2.80806 9.64479C2.51769 9.35442 2.35456 8.96059 2.35456 8.54994C2.35456 8.1393 2.51769 7.74547 2.80806 7.4551C3.09843 7.16473 3.49226 7.0016 3.90291 7.0016Z" fill="#E97737"/>
<path d="M34.8719 11.6466H44.9373C45.964 11.6466 46.9487 11.2388 47.6747 10.5127C48.4008 9.7867 48.8086 8.802 48.8086 7.77524C48.8086 6.74849 48.4008 5.76379 47.6747 5.03776C46.9487 4.31173 45.964 3.90386 44.9373 3.90386C44.5962 3.90438 44.2567 3.95135 43.9283 4.04346C43.6369 3.10272 43.051 2.28046 42.257 1.69781C41.463 1.11517 40.5029 0.802953 39.518 0.807171C38.2868 0.809408 37.1066 1.29951 36.236 2.17014C35.3653 3.04077 34.8752 4.22095 34.873 5.4522C34.0517 5.4522 33.2641 5.77846 32.6833 6.3592C32.1026 6.93994 31.7763 7.72759 31.7763 8.54889C31.7763 9.37018 32.1026 10.1578 32.6833 10.7386C33.2641 11.3193 34.0517 11.6456 34.873 11.6456L34.8719 11.6466ZM34.8719 7.0016C35.0798 7.00139 35.2855 7.04312 35.4769 7.12428C35.61 7.18213 35.7568 7.20137 35.9003 7.17981C36.0439 7.15825 36.1785 7.09675 36.2888 7.00235C36.3991 6.90794 36.4806 6.78443 36.5241 6.64591C36.5675 6.50739 36.5711 6.35945 36.5345 6.21897C36.4669 5.9689 36.4313 5.71124 36.4288 5.4522C36.4296 4.63117 36.7561 3.844 37.3367 3.26344C37.9172 2.68288 38.7044 2.35635 39.5254 2.35551C40.3005 2.35332 41.0476 2.64462 41.6166 3.17084C42.1856 3.69707 42.5343 4.41919 42.5925 5.19203C42.6039 5.32289 42.6483 5.44873 42.7216 5.55772C42.7949 5.66671 42.8947 5.75528 43.0117 5.81512C43.1286 5.87496 43.2588 5.90411 43.3901 5.89983C43.5214 5.89554 43.6495 5.85797 43.7622 5.79064C44.1184 5.57184 44.5278 5.45513 44.9457 5.45326C45.5374 5.48899 46.0932 5.74924 46.4996 6.18087C46.9059 6.6125 47.1322 7.18296 47.1322 7.77577C47.1322 8.36859 46.9059 8.93905 46.4996 9.37068C46.0932 9.80231 45.5374 10.0626 44.9457 10.0983H34.8719C34.4613 10.0983 34.0675 9.93516 33.7771 9.64479C33.4867 9.35442 33.3236 8.96059 33.3236 8.54994C33.3236 8.1393 33.4867 7.74547 33.7771 7.4551C34.0675 7.16473 34.4613 7.0016 34.8719 7.0016Z" fill="#E97737"/>
</svg>
