<svg width="50" height="49" viewBox="0 0 50 49" fill="none" xmlns="http://www.w3.org/2000/svg">
<path d="M20.1067 8.72859C15.8749 4.49789 7.58656 4.00732 1.72938 4.00732C1.43787 4.00763 1.15838 4.12356 0.952252 4.32969C0.746121 4.53583 0.630184 4.81531 0.629883 5.10683C0.629883 10.9743 1.11817 19.2513 5.35113 23.4843C7.33741 25.2531 9.9338 26.1801 12.5912 26.0691C15.3305 26.1756 18.0105 25.2526 20.1033 23.482C23.2596 20.3303 23.8378 12.4539 20.1067 8.72859ZM18.552 21.9318C16.1982 24.2833 9.66263 24.6862 6.90819 21.9318C3.49359 18.5171 2.90059 11.5741 2.83571 6.21658C8.19435 6.28032 15.1351 6.87218 18.5508 10.2879C21.3053 13.0401 20.9035 19.578 18.552 21.9295V21.9318Z" fill="#E97737"/>
<path d="M47.9768 8.35864C42.1139 8.35864 33.8324 8.84693 29.5994 13.0799C25.8684 16.8087 26.4466 24.6816 29.5994 27.8345C31.6928 29.6039 34.3726 30.5259 37.1115 30.4193C39.7688 30.53 42.3652 29.604 44.3527 27.8367C48.5834 23.6049 49.074 15.3165 49.074 9.45928C49.074 9.16796 48.9585 8.88853 48.7528 8.68222C48.5471 8.47591 48.2681 8.35955 47.9768 8.35864ZM42.7957 26.2785C40.0412 29.033 33.5034 28.6301 31.1519 26.2785C28.8004 23.927 28.3974 17.3892 31.1519 14.6347C34.5665 11.2201 41.5095 10.6271 46.867 10.5633C46.8033 15.9243 46.2125 22.8639 42.7957 26.2785Z" fill="#E97737"/>
<path d="M40.0321 17.8784C39.8837 17.6154 39.6407 17.4188 39.3525 17.3286C39.0644 17.2383 38.7527 17.2611 38.4807 17.3924C30.0444 21.359 25.9002 28.2747 24.0165 35.3851C21.6866 20.2675 14.9485 15.66 12.0916 13.7035C11.816 13.5325 11.5528 13.3423 11.304 13.1344C11.2024 13.0299 11.0811 12.9468 10.9471 12.8896C10.8131 12.8325 10.6691 12.8025 10.5234 12.8015C10.3778 12.8005 10.2334 12.8285 10.0986 12.8838C9.96382 12.939 9.84138 13.0205 9.73837 13.1235C9.63537 13.2265 9.55386 13.349 9.49858 13.4838C9.4433 13.6185 9.41536 13.7629 9.41636 13.9086C9.41737 14.0543 9.44731 14.1983 9.50444 14.3323C9.56158 14.4663 9.64477 14.5876 9.74919 14.6891C10.0942 14.9952 10.4626 15.2737 10.851 15.5223C14.0709 17.7247 22.6268 23.5785 22.6268 46.9071C22.6268 47.1989 22.7427 47.4787 22.949 47.685C23.1553 47.8913 23.4351 48.0072 23.7268 48.0072C24.0186 48.0072 24.2984 47.8913 24.5047 47.685C24.711 47.4787 24.8269 47.1989 24.8269 46.9071C24.8269 37.4805 27.3594 25.0536 39.4186 19.3877L39.5973 19.3023C39.7221 19.2403 39.833 19.1535 39.9231 19.0472C40.0132 18.9409 40.0807 18.8173 40.1214 18.684C40.1621 18.5507 40.1752 18.4105 40.1598 18.272C40.1445 18.1335 40.101 17.9995 40.0321 17.8784Z" fill="#E97737"/>
</svg>
