<svg width="48" height="48" viewBox="0 0 48 48" fill="none" xmlns="http://www.w3.org/2000/svg">
<path d="M46.56 29.0098C40.7077 26.0621 31.0708 14.4022 27.7477 10.242C28.2277 10.2233 28.6154 9.81287 28.6154 9.32782C28.6154 8.80545 28.2093 8.39502 27.6923 8.39502H26.5662L24.8862 1.6416C24.6831 0.802084 23.2985 0.802084 23.0954 1.6416L21.4339 8.39502H20.3077C19.7908 8.39502 19.3846 8.80545 19.3846 9.32782C19.3846 9.81287 19.7723 10.2233 20.2523 10.242C16.9293 14.4022 7.29234 26.0621 1.44003 29.0098C0.978489 29.2336 0.793874 29.7933 1.03387 30.2597C1.18157 30.5955 1.51387 30.7821 1.84618 30.7821C1.99387 30.7821 2.1231 30.7448 2.25234 30.6888C4.26464 29.6627 6.66464 27.7225 9.0831 25.4465L10.4123 26.7897C10.597 26.9763 10.837 27.0696 11.0585 27.0696C11.28 27.0696 11.5385 26.9763 11.7046 26.7897C12.0739 26.4166 12.0739 25.8383 11.7046 25.4651L10.4123 24.1592C11.2062 23.3757 12 22.5548 12.7754 21.734L14.0862 23.0585C14.2708 23.2451 14.5108 23.3384 14.7323 23.3384C14.9539 23.3384 15.2123 23.2451 15.3785 23.0585C15.7477 22.6854 15.7477 22.1071 15.3785 21.734L14.0123 20.3534C14.8431 19.4953 15.6 18.6558 16.3385 17.8162L17.8154 19.3087C18 19.4953 18.24 19.5885 18.4616 19.5885C18.6831 19.5885 18.9416 19.4953 19.1077 19.3087C19.477 18.9356 19.477 18.3573 19.1077 17.9841L17.557 16.417C18.7939 14.9619 19.9016 13.6373 20.7693 12.5739L19.5139 21.4541H18.4616C17.9446 21.4541 17.5385 21.8646 17.5385 22.3869V26.1181C17.5385 26.6405 17.9446 27.0509 18.4616 27.0509H19.3846V29.4388C12.8308 31.0059 8.49234 35.9124 8.32618 42.498L5.1508 45.7068H3.69234C3.17541 45.7068 2.76926 46.1172 2.76926 46.6396C2.76926 47.1619 3.17541 47.5724 3.69234 47.5724H5.53849H42.4616H44.3077C44.8246 47.5724 45.2308 47.1619 45.2308 46.6396C45.2308 46.1172 44.8246 45.7068 44.3077 45.7068H42.8493L39.6739 42.498C39.5077 35.9311 35.1877 31.0059 28.6154 29.4388V27.0509H29.5385C30.0554 27.0509 30.4616 26.6405 30.4616 26.1181V22.3869C30.4616 21.8646 30.0554 21.4541 29.5385 21.4541H28.4862L27.2308 12.5553C28.0985 13.6373 29.2062 14.9619 30.4431 16.417L28.8739 18.0028C28.5046 18.3759 28.5046 18.9542 28.8739 19.3274C29.0585 19.5139 29.2985 19.6072 29.52 19.6072C29.7416 19.6072 30 19.5139 30.1662 19.3274L31.6431 17.8349C32.3631 18.6558 33.12 19.5139 33.9139 20.3721L32.5477 21.7526C32.1785 22.1257 32.1785 22.7041 32.5477 23.0772C32.7323 23.2638 32.9723 23.357 33.1939 23.357C33.4154 23.357 33.6739 23.2638 33.84 23.0772L35.1508 21.7526C35.9262 22.5735 36.72 23.3943 37.5139 24.1779L36.2216 25.4838C35.8523 25.8569 35.8523 26.4353 36.2216 26.8084C36.4062 26.9949 36.6462 27.0882 36.8677 27.0882C37.0893 27.0882 37.3477 26.9949 37.5139 26.8084L38.8431 25.4651C41.2616 27.7598 43.6616 29.7 45.6739 30.7074C45.8031 30.7821 45.9508 30.8007 46.08 30.8007C46.4123 30.8007 46.7446 30.6142 46.9108 30.2784C47.2062 29.812 47.0216 29.2523 46.56 29.0098ZM24 5.70858L24.6646 8.39502H23.3354L24 5.70858ZM7.77234 45.7068L9.61849 43.8412H38.4L40.2462 45.7068H7.77234ZM37.7908 41.9756H10.2093C10.7077 34.2707 17.3723 30.7821 24 30.7821C30.6277 30.7821 37.2923 34.2707 37.7908 41.9756ZM26.7693 29.103C25.8831 28.9911 24.96 28.9165 24 28.9165C23.04 28.9165 22.117 28.9911 21.2308 29.103V27.0509H26.7693V29.103ZM28.6154 25.1853H27.6923H20.3077H19.3846V23.3197H20.3077H27.6923H28.6154V25.1853ZM21.3785 21.4541L22.9662 10.2606H25.0523L26.64 21.4541H21.3785Z" fill="#E97737"/>
</svg>
