<svg width="42" height="48" viewBox="0 0 42 48" fill="none" xmlns="http://www.w3.org/2000/svg">
<g clip-path="url(#clip0_2013_17114)">
<path d="M40.6031 0.65611C40.3333 0.397821 39.9679 0.263891 39.6273 0.277282L1.46929 1.24923C0.707803 1.27793 0.110889 1.88636 0.110889 2.63443V6.91823C0.110889 7.66629 0.707852 8.27472 1.46929 8.30342L3.30029 8.3723C3.21611 10.475 3.52414 12.5585 3.82834 14.5981C4.24161 17.3685 4.62044 19.9956 4.07324 22.5935L2.73967 22.5916C1.48266 22.5916 0.497338 23.6267 0.497338 24.9488V29.5004C0.497338 35.376 3.68101 40.7197 8.82779 43.5762V45.8529C8.82779 46.8842 9.66578 47.7241 10.697 47.7241H27.0729C28.1041 47.7241 28.944 46.8842 28.944 45.8529V43.5762C34.0928 40.7216 37.2745 35.376 37.2745 29.5004L37.2764 24.9488C37.2764 24.1796 36.9378 23.5157 36.4116 23.089C36.2681 17.9271 32.0341 13.7697 26.8376 13.7697C25.0583 13.7697 23.3421 14.2595 21.8402 15.1817C20.3861 14.292 18.6833 13.7697 16.858 13.7697C15.821 13.7697 14.8127 13.9323 13.8465 14.2518C13.5653 12.3615 13.2993 10.5344 13.3395 8.73184L39.6161 9.27522H39.6696C40.0179 9.27522 40.3469 9.14129 40.6033 8.89639C40.8769 8.63428 41.0338 8.26691 41.0338 7.89001L41.0319 1.66226C41.0319 1.28534 40.8748 0.918249 40.6031 0.65611ZM39.5011 1.80982V4.01009H1.64131V2.77413L39.5011 1.80982ZM12.3497 14.5979C12.763 17.3683 13.1418 19.9935 12.5965 22.5914H11.3185C11.8274 19.821 11.4237 17.0542 11.0238 14.3682C10.5685 11.3127 10.1494 8.42158 10.9626 5.5406H12.2253C11.4715 8.60373 11.9097 11.6479 12.3497 14.5979ZM20.1693 22.5914C19.8192 21.0818 18.4703 19.9511 16.8555 19.9511C15.8645 19.9511 14.9786 20.3835 14.3549 21.0608C14.4008 20.4255 14.4065 19.7903 14.3855 19.1552C15.1336 18.7151 15.9754 18.4702 16.8555 18.4702C19.2892 18.4702 21.3058 20.261 21.677 22.5914L20.1693 22.5914ZM18.566 22.5914H15.147C15.4416 21.939 16.0941 21.4817 16.8555 21.4817C17.617 21.4817 18.2713 21.939 18.566 22.5914ZM8.34152 14.3702C7.88616 11.3147 7.471 8.42158 8.28412 5.5406H9.38425C8.63427 8.60182 9.07048 11.6459 9.51052 14.594C9.92379 17.3644 10.3026 19.993 9.75542 22.5914H8.63614C9.14318 19.8229 8.74139 17.0542 8.34152 14.3702ZM1.64111 6.77831V5.54045H3.69786C3.59072 5.97668 3.50654 6.41097 3.44531 6.84532L1.64111 6.77831ZM5.34137 14.3702C4.88601 11.3147 4.47086 8.42011 5.28589 5.5406H6.70169C5.95171 8.60182 6.38983 11.6439 6.82796 14.5959C7.24123 17.3683 7.61815 19.995 7.07286 22.5914H5.636C6.14303 19.8229 5.74124 17.0562 5.34137 14.3702ZM27.0741 46.1937H10.6983C10.5146 46.1937 10.3596 46.0387 10.3596 45.8531V43.8939H27.4143V45.8531C27.4143 46.0387 27.2597 46.1937 27.0741 46.1937ZM35.745 29.5004C35.745 34.898 32.7794 39.8092 27.9905 42.3635H9.78382C4.99494 39.8093 2.02937 34.898 2.02937 29.5004L2.02746 24.9488C2.02746 24.4781 2.33358 24.1222 2.73918 24.1222H35.0334C35.439 24.1222 35.7451 24.4781 35.7451 24.9488L35.745 29.5004ZM30.1486 22.5919C29.8003 21.0823 28.4515 19.9516 26.8386 19.9516C26.5038 19.9516 26.1766 19.9994 25.8628 20.0932C25.6926 19.6263 25.4955 19.171 25.2582 18.7405C25.7653 18.5683 26.2991 18.4688 26.8386 18.4688C29.2723 18.4688 31.2888 20.2596 31.6601 22.59L30.1486 22.5919ZM26.2723 21.574C26.4521 21.5166 26.6415 21.4841 26.8367 21.4841C27.5981 21.4841 28.2505 21.9414 28.5433 22.5938H26.4043C26.3775 22.2475 26.3335 21.9069 26.2723 21.574ZM26.8367 15.2988C31.021 15.2988 34.4687 18.5054 34.8551 22.5923H33.2039C32.8232 19.4144 30.1159 16.9406 26.8366 16.9406C25.9909 16.9406 25.1567 17.1147 24.3819 17.4342C24.0222 16.9788 23.6223 16.5579 23.188 16.1752C24.313 15.6032 25.5548 15.2988 26.8367 15.2988ZM24.8756 22.5923H23.2225C22.8418 19.4144 20.1345 16.9406 16.8552 16.9406C15.9521 16.9406 15.0815 17.1395 14.2723 17.4973C14.2168 16.931 14.146 16.3666 14.0695 15.8041C14.9572 15.475 15.8909 15.299 16.8552 15.299C21.0395 15.299 24.4872 18.5073 24.8756 22.5923ZM13.4628 7.20194C13.5355 6.6471 13.6427 6.09417 13.7976 5.54124H39.5007V7.7415L13.4628 7.20194Z" fill="#E97737"/>
<path d="M24.9473 31.3529C25.1769 30.4001 25.2897 29.4224 24.6488 28.9345C24.3924 28.7413 24.0997 28.6934 23.8682 28.6705C23.1086 28.6054 22.4524 28.8656 21.821 29.2636C22.0085 28.5422 22.0582 27.8363 21.7674 27.138C21.6851 26.9409 21.5454 26.6596 21.2795 26.4779C20.6271 26.0148 19.7278 26.4166 18.886 26.9256C18.0461 26.4205 17.1488 26.0148 16.5002 26.4702C16.2227 26.6596 16.0831 26.9447 16.0027 27.1379C15.7157 27.8306 15.7617 28.5289 15.9453 29.2445C15.3235 28.858 14.6749 28.6054 13.9249 28.6705C13.6953 28.6915 13.4007 28.7432 13.1501 28.9383C12.5149 29.4243 12.6239 30.4001 12.8554 31.3529C12.115 31.9995 11.4625 32.7304 11.7017 33.4995C11.8012 33.8095 12.0231 34.0257 12.1877 34.1673C12.8018 34.6839 13.5404 34.8331 14.3382 34.8599C13.7221 35.3918 13.24 35.9887 13.0907 36.7904C13.0525 36.997 13.0161 37.3051 13.1386 37.615C13.437 38.3535 14.409 38.5066 15.3866 38.541C15.8075 39.4096 16.328 40.2285 17.1162 40.2285H17.1506C17.4759 40.2132 17.7437 40.0563 17.9178 39.9377C18.3464 39.6469 18.6392 39.2623 18.8611 38.8242C19.083 39.2604 19.3739 39.6431 19.8005 39.9339C19.9727 40.0525 20.2387 40.2132 20.5792 40.2285H20.6136C21.3923 40.2285 21.9127 39.4115 22.3337 38.541C23.3113 38.5066 24.2852 38.3535 24.5837 37.6112C24.7042 37.307 24.6679 36.997 24.6296 36.7904C24.4804 35.9887 24.0001 35.3956 23.386 34.8637C24.2125 34.8446 24.9778 34.6973 25.6111 34.1635C25.789 34.0104 26.0071 33.7961 26.0932 33.4976C26.342 32.7342 25.6877 32.0015 24.9473 31.3529ZM18.89 34.8121C18.0252 34.8121 17.3211 34.108 17.3211 33.2432C17.3211 32.3803 18.0252 31.6781 18.89 31.6781C19.7528 31.6781 20.455 32.3803 20.455 33.2432C20.455 34.108 19.7528 34.8121 18.89 34.8121ZM17.3746 27.8594C17.5583 27.9302 17.8682 28.0871 18.3925 28.4181L18.4824 28.4755C18.733 28.6304 19.0487 28.6304 19.2975 28.4736L19.3759 28.4238C19.904 28.0871 20.2178 27.9302 20.4014 27.8575C20.5602 28.4545 20.2465 29.2714 19.8868 30.2051C19.8734 30.2395 19.86 30.2778 19.8466 30.3142C19.5443 30.2147 19.2248 30.1458 18.89 30.1458C18.5532 30.1458 18.2337 30.2147 17.9295 30.3142C17.9161 30.2797 17.9027 30.2415 17.8893 30.2051C17.5297 29.2734 17.2177 28.4583 17.3746 27.8594ZM14.2101 32.2159C14.4378 32.0246 14.5354 31.7204 14.4588 31.4333L14.4378 31.353C14.2732 30.7369 14.2178 30.3887 14.2063 30.1935C14.8243 30.2242 15.5073 30.7714 16.2898 31.3989C16.3147 31.418 16.3415 31.4391 16.3663 31.4582C16.0067 31.9633 15.7904 32.5775 15.7904 33.2452C15.7904 33.2624 15.7943 33.2777 15.7962 33.2949C15.7598 33.2968 15.7197 33.2987 15.6852 33.3006C14.6827 33.36 13.8064 33.4116 13.2898 33.0825C13.4161 32.9237 13.6763 32.6578 14.2101 32.2159ZM17.168 38.5891C17.0532 38.4284 16.8791 38.128 16.6227 37.5655L16.5768 37.4661C16.4544 37.2001 16.1903 37.0298 15.8976 37.0222L15.7905 37.0203C15.1706 37.0126 14.8262 36.9724 14.6329 36.9323C14.8281 36.3449 15.536 35.834 16.3472 35.2486C16.3874 35.2199 16.4295 35.1874 16.4697 35.1567C16.8676 35.658 17.4148 36.0311 18.0481 36.2109L18.0194 36.341C17.8109 37.3225 17.6272 38.1778 17.168 38.5891ZM21.9378 37.0222L21.8307 37.0241C21.5379 37.0298 21.2739 37.202 21.1515 37.468L21.1055 37.5674C20.8492 38.1299 20.6751 38.4303 20.5603 38.5891C20.0992 38.1758 19.9174 37.3187 19.7069 36.3372C19.6993 36.3008 19.6897 36.2645 19.6821 36.2281C20.3249 36.0559 20.8798 35.6847 21.2873 35.1797C21.3198 35.2026 21.3523 35.2275 21.3849 35.2524C22.196 35.8378 22.9021 36.3506 23.0953 36.936C22.9021 36.9743 22.5577 37.0126 21.9378 37.0222ZM22.1215 33.2989C22.0756 33.2951 22.0258 33.2951 21.9799 33.2913C21.9799 33.276 21.9856 33.2588 21.9856 33.2434C21.9856 32.5833 21.7752 31.975 21.4213 31.4718C21.4538 31.4469 21.4882 31.422 21.5188 31.3952C22.3033 30.7677 22.9882 30.2205 23.6005 30.1918C23.589 30.3889 23.5335 30.7314 23.3747 31.334L23.3479 31.4373C23.2733 31.7224 23.3709 32.0247 23.5966 32.2141L23.6655 32.2715C24.1515 32.6752 24.3945 32.9277 24.5169 33.0789C23.9946 33.4099 23.1221 33.3602 22.1215 33.2989Z" fill="#E97737"/>
</g>
<defs>
<clipPath id="clip0_2013_17114">
<rect width="41.1429" height="48" fill="white"/>
</clipPath>
</defs>
</svg>
