<svg width="57" height="48" viewBox="0 0 57 48" fill="none" xmlns="http://www.w3.org/2000/svg">
<g clip-path="url(#clip0_2013_4564)">
<path fill-rule="evenodd" clip-rule="evenodd" d="M42.087 8.45164L36.2792 5.85244C34.6643 5.13058 32.7682 5.83604 32.0135 7.4368V7.43915C31.6409 8.23367 31.6034 9.14303 31.908 9.96335C32.2127 10.786 32.8362 11.4493 33.6354 11.8079L40.6878 14.9602V26.7256H40.6831C39.3753 26.7256 38.2221 27.3912 37.5448 28.4014L26.0674 4.42001C25.9057 4.08251 25.5588 3.87626 25.1861 3.88797C24.8111 3.90438 24.483 4.13876 24.3471 4.48797L18.5674 19.4268L14.4049 10.776C14.2502 10.4525 13.9197 10.2439 13.5612 10.2439C13.2002 10.2439 12.8721 10.4525 12.7175 10.776L0.166663 36.8574C0.0283814 37.148 0.0471314 37.4902 0.22057 37.7621C0.38932 38.0363 0.68932 38.2003 1.01275 38.2003H32.9369V45.1141C32.9369 46.6469 34.1791 47.8915 35.7143 47.8915H45.6515C46.3874 47.8915 47.0952 47.5985 47.6155 47.0782C48.1358 46.5579 48.4288 45.85 48.4288 45.1141V36.8197L50.3577 42.0205C50.9389 43.5792 52.6358 44.4135 54.2249 43.9237L54.2296 43.9213C54.9936 43.6846 55.6311 43.1479 55.9967 42.4354C56.3624 41.7229 56.4257 40.8932 56.1702 40.1338L51.5132 26.2C53.1538 26.1602 54.471 24.8149 54.471 23.1649V13.3585C54.471 11.0757 52.7553 9.19597 50.5452 8.93581C51.3515 8.00065 51.8413 6.78193 51.8413 5.44831C51.8413 2.49985 49.4483 0.106934 46.5023 0.106934C43.5562 0.106934 41.1609 2.49991 41.1609 5.44831C41.1609 6.55927 41.5031 7.59283 42.0867 8.45065L42.087 8.45164ZM46.5542 38.0628C46.0831 38.2738 45.5675 38.4027 45.0237 38.4238V39.0121C45.0237 39.53 44.6041 39.9496 44.0862 39.9496C43.5705 39.9496 43.1487 39.53 43.1487 39.0121V38.4261H38.2174V39.0121C38.2174 39.53 37.7955 39.9496 37.2799 39.9496C36.7619 39.9496 36.3424 39.53 36.3424 39.0121V38.4238C35.7986 38.4027 35.283 38.2738 34.8119 38.0628V45.1152C34.8119 45.6145 35.2174 46.0176 35.7143 46.0176H45.6515C45.8905 46.0176 46.1202 45.9238 46.289 45.7527C46.4577 45.584 46.5538 45.3543 46.5538 45.1152L46.5542 38.0628ZM50.0182 10.779H42.9052C42.7739 10.779 42.6427 10.7533 42.5232 10.6994L35.5152 7.5634C34.8331 7.25871 34.0292 7.55637 33.7105 8.23372V8.23606C33.5511 8.57356 33.537 8.96026 33.666 9.31186C33.7949 9.66108 34.0597 9.94234 34.4019 10.0947C37.28 11.3837 42.0099 13.4978 42.0099 13.4978C42.3474 13.6478 42.563 13.983 42.563 14.3533V27.2275C43.5943 27.8205 44.3185 28.8869 44.4404 30.1314H48.0591C48.5771 30.1314 48.9966 30.5486 48.9966 31.0689V32.9626L52.1185 41.3674C52.3505 41.9955 53.0302 42.3307 53.67 42.1338L53.6747 42.1314C53.9583 42.0424 54.1926 41.8455 54.3286 41.583C54.4645 41.3182 54.4879 41.0111 54.3942 40.7299L49.2145 25.2427C48.7083 24.6989 48.3965 23.9677 48.3965 23.1661V16.6363C48.3965 16.1207 48.8161 15.6988 49.334 15.6988C49.852 15.6988 50.2715 16.1207 50.2715 16.6363V23.1661C50.2715 23.8083 50.7895 24.3263 51.4317 24.3263H51.4364C52.0762 24.3263 52.5965 23.8083 52.5965 23.1661V13.3597C52.5965 11.9347 51.4408 10.779 50.0182 10.779ZM47.1213 32.0064H34.2447V34.2869C34.2447 35.4799 35.1705 36.4596 36.3424 36.5463V35.6064C36.3424 35.0885 36.7619 34.6689 37.2799 34.6689C37.7955 34.6689 38.2174 35.0885 38.2174 35.6064V36.551H43.1487V35.6064C43.1487 35.0885 43.5705 34.6689 44.0862 34.6689C44.6041 34.6689 45.0237 35.0885 45.0237 35.6064V36.5463C46.1955 36.4596 47.1213 35.4799 47.1213 34.2869V32.0064ZM19.5633 25.821L16.3149 29.0695C16.111 29.2734 15.8274 29.3695 15.5414 29.339C15.2578 29.3039 15.0047 29.1422 14.8547 28.8984L13.4649 26.6414L10.1133 30.8859C9.9024 31.1531 9.55787 31.2867 9.22036 31.2281C8.88284 31.1695 8.60164 30.9328 8.49148 30.6094L7.14148 26.6859L2.50318 36.3255H24.6162L19.5633 25.821ZM31.2237 19.533L30.2909 22.2424C30.1784 22.5682 29.8995 22.8049 29.562 22.8611C29.2222 22.9197 28.88 22.7885 28.6667 22.5189L25.3175 18.2768L23.93 20.5338C23.7777 20.7775 23.5245 20.9392 23.2386 20.9721C22.955 21.0049 22.6691 20.9064 22.4675 20.7049L20.7495 18.9869L19.6832 21.7455L26.6978 36.3261H32.9066C32.5644 35.7238 32.3698 35.03 32.3698 34.2871V31.0691C32.3698 30.5488 32.7894 30.1316 33.3073 30.1316H36.2956L31.2237 19.533ZM42.5463 30.1314C42.3752 29.2596 41.6065 28.601 40.683 28.601C39.7596 28.601 38.9909 29.2596 38.8197 30.1314H42.5463ZM8.29954 24.2838C8.66516 25.3478 9.70816 28.376 9.70816 28.376L12.8253 24.4268C13.0152 24.1854 13.3105 24.0541 13.6175 24.0705C13.9222 24.0893 14.1988 24.2557 14.3582 24.5158L15.83 26.9041L18.7011 24.0307L13.5613 13.3453L8.29954 24.2838ZM21.4875 17.0742L22.9547 18.539L24.4219 16.1507C24.5836 15.8906 24.8602 15.7242 25.1672 15.7078C25.4719 15.689 25.7672 15.8203 25.9547 16.0617L29.0766 20.0109L30.068 17.1234L25.3125 7.18796L21.4875 17.0742ZM46.7391 8.90398H46.2657C44.4634 8.78445 43.036 7.27978 43.036 5.4493C43.036 3.5368 44.5899 1.98292 46.5024 1.98292C48.4149 1.98292 49.9664 3.5368 49.9664 5.4493C49.9664 7.27978 48.5415 8.78446 46.7391 8.90398Z" fill="#E97737"/>
</g>
<defs>
<clipPath id="clip0_2013_4564">
<rect width="56.4" height="48" fill="white"/>
</clipPath>
</defs>
</svg>
