<svg width="19" height="18" viewBox="0 0 19 18" fill="none" xmlns="http://www.w3.org/2000/svg">
<path d="M2.98934 17.9827H16.1534C16.8167 17.9822 17.4527 17.7304 17.9218 17.2827C18.3908 16.8349 18.6546 16.2278 18.6551 15.5946V3.69594C18.6546 3.06273 18.3908 2.4556 17.9218 2.00785C17.4527 1.56011 16.8167 1.30833 16.1534 1.3078H15.1608V0.641484C15.1538 0.469102 15.0772 0.306005 14.9469 0.186406C14.8167 0.0668068 14.643 0 14.4623 0C14.2815 0 14.1078 0.0668068 13.9776 0.186406C13.8474 0.306005 13.7707 0.469102 13.7637 0.641484V1.3088H5.37899V0.641484C5.37199 0.469102 5.29533 0.306005 5.16509 0.186406C5.03485 0.0668068 4.86116 0 4.68043 0C4.49971 0 4.32601 0.0668068 4.19578 0.186406C4.06554 0.306005 3.98888 0.469102 3.98188 0.641484V1.3088H2.98934C2.32618 1.30933 1.69032 1.56097 1.22129 2.0085C0.752263 2.45603 0.488381 3.0629 0.487549 3.69594V15.5946C0.488104 16.2278 0.751863 16.8349 1.22092 17.2827C1.68998 17.7304 2.32599 17.9822 2.98934 17.9827ZM1.88465 3.69594C1.88548 3.4166 2.00217 3.14895 2.20919 2.95152C2.41621 2.75409 2.69671 2.64296 2.98934 2.64244H3.98188V3.30975C3.97824 3.39949 3.99361 3.48901 4.02708 3.57295C4.06054 3.65688 4.11141 3.73351 4.17664 3.79823C4.24186 3.86295 4.3201 3.91444 4.40667 3.94961C4.49324 3.98478 4.58635 4.0029 4.68043 4.0029C4.77452 4.0029 4.86763 3.98478 4.9542 3.94961C5.04077 3.91444 5.11901 3.86295 5.18423 3.79823C5.24946 3.73351 5.30033 3.65688 5.33379 3.57295C5.36726 3.48901 5.38263 3.39949 5.37899 3.30975V2.64244H13.7637V3.30975C13.7707 3.48213 13.8474 3.64523 13.9776 3.76483C14.1078 3.88443 14.2815 3.95124 14.4623 3.95124C14.643 3.95124 14.8167 3.88443 14.9469 3.76483C15.0772 3.64523 15.1538 3.48213 15.1608 3.30975V2.64244H16.1534C16.4458 2.64323 16.726 2.75448 16.9328 2.95187C17.1396 3.14927 17.2562 3.41677 17.257 3.69594V15.5946C17.2562 15.8738 17.1396 16.1413 16.9328 16.3387C16.726 16.5361 16.4458 16.6473 16.1534 16.6481H2.98934C2.69689 16.6473 2.41666 16.5361 2.20987 16.3387C2.00307 16.1413 1.88653 15.8738 1.8857 15.5946L1.88465 3.69594Z" fill="#333333"/>
<path d="M5.55254 7.64256C6.03446 7.64256 6.42514 7.26962 6.42514 6.80956C6.42514 6.34951 6.03446 5.97656 5.55254 5.97656C5.07061 5.97656 4.67993 6.34951 4.67993 6.80956C4.67993 7.26962 5.07061 7.64256 5.55254 7.64256Z" fill="#333333"/>
<path d="M9.3958 7.64256C9.87772 7.64256 10.2684 7.26962 10.2684 6.80956C10.2684 6.34951 9.87772 5.97656 9.3958 5.97656C8.91387 5.97656 8.52319 6.34951 8.52319 6.80956C8.52319 7.26962 8.91387 7.64256 9.3958 7.64256Z" fill="#333333"/>
<path d="M13.2381 7.64256C13.72 7.64256 14.1107 7.26962 14.1107 6.80956C14.1107 6.34951 13.72 5.97656 13.2381 5.97656C12.7562 5.97656 12.3655 6.34951 12.3655 6.80956C12.3655 7.26962 12.7562 7.64256 13.2381 7.64256Z" fill="#333333"/>
<path d="M5.55254 10.9775C6.03446 10.9775 6.42514 10.6046 6.42514 10.1445C6.42514 9.68447 6.03446 9.31152 5.55254 9.31152C5.07061 9.31152 4.67993 9.68447 4.67993 10.1445C4.67993 10.6046 5.07061 10.9775 5.55254 10.9775Z" fill="#333333"/>
<path d="M9.3958 10.9775C9.87772 10.9775 10.2684 10.6046 10.2684 10.1445C10.2684 9.68447 9.87772 9.31152 9.3958 9.31152C8.91387 9.31152 8.52319 9.68447 8.52319 10.1445C8.52319 10.6046 8.91387 10.9775 9.3958 10.9775Z" fill="#333333"/>
<path d="M13.2381 10.9775C13.72 10.9775 14.1107 10.6046 14.1107 10.1445C14.1107 9.68447 13.72 9.31152 13.2381 9.31152C12.7562 9.31152 12.3655 9.68447 12.3655 10.1445C12.3655 10.6046 12.7562 10.9775 13.2381 10.9775Z" fill="#333333"/>
<path d="M5.55254 14.3135C6.03446 14.3135 6.42514 13.9405 6.42514 13.4805C6.42514 13.0204 6.03446 12.6475 5.55254 12.6475C5.07061 12.6475 4.67993 13.0204 4.67993 13.4805C4.67993 13.9405 5.07061 14.3135 5.55254 14.3135Z" fill="#333333"/>
<path d="M9.3958 14.3135C9.87772 14.3135 10.2684 13.9405 10.2684 13.4805C10.2684 13.0204 9.87772 12.6475 9.3958 12.6475C8.91387 12.6475 8.52319 13.0204 8.52319 13.4805C8.52319 13.9405 8.91387 14.3135 9.3958 14.3135Z" fill="#333333"/>
<path d="M13.2381 14.3135C13.72 14.3135 14.1107 13.9405 14.1107 13.4805C14.1107 13.0204 13.72 12.6475 13.2381 12.6475C12.7562 12.6475 12.3655 13.0204 12.3655 13.4805C12.3655 13.9405 12.7562 14.3135 13.2381 14.3135Z" fill="#333333"/>
</svg>
