<svg width="19" height="18" viewBox="0 0 19 18" fill="none" xmlns="http://www.w3.org/2000/svg">
<path d="M2.50179 17.9827H15.6658C16.3292 17.9822 16.9652 17.7304 17.4342 17.2827C17.9033 16.8349 18.167 16.2278 18.1676 15.5946V3.69594C18.167 3.06273 17.9033 2.4556 17.4342 2.00785C16.9652 1.56011 16.3292 1.30833 15.6658 1.3078H14.6733V0.641484C14.6663 0.469102 14.5896 0.306005 14.4594 0.186406C14.3291 0.0668068 14.1554 0 13.9747 0C13.794 0 13.6203 0.0668068 13.4901 0.186406C13.3598 0.306005 13.2832 0.469102 13.2762 0.641484V1.3088H4.89144V0.641484C4.88444 0.469102 4.80778 0.306005 4.67755 0.186406C4.54731 0.0668068 4.37361 0 4.19289 0C4.01216 0 3.83847 0.0668068 3.70823 0.186406C3.57799 0.306005 3.50133 0.469102 3.49433 0.641484V1.3088H2.50179C1.83863 1.30933 1.20277 1.56097 0.733741 2.0085C0.264714 2.45603 0.000832541 3.0629 0 3.69594V15.5946C0.000555102 16.2278 0.264315 16.8349 0.733371 17.2827C1.20243 17.7304 1.83845 17.9822 2.50179 17.9827ZM1.3971 3.69594C1.39794 3.4166 1.51462 3.14895 1.72164 2.95152C1.92866 2.75409 2.20916 2.64296 2.50179 2.64244H3.49433V3.30975C3.49069 3.39949 3.50606 3.48901 3.53953 3.57295C3.57299 3.65688 3.62386 3.73351 3.68909 3.79823C3.75431 3.86295 3.83255 3.91444 3.91912 3.94961C4.00569 3.98478 4.0988 4.0029 4.19289 4.0029C4.28697 4.0029 4.38008 3.98478 4.46665 3.94961C4.55322 3.91444 4.63146 3.86295 4.69669 3.79823C4.76191 3.73351 4.81278 3.65688 4.84624 3.57295C4.87971 3.48901 4.89508 3.39949 4.89144 3.30975V2.64244H13.2762V3.30975C13.2832 3.48213 13.3598 3.64523 13.4901 3.76483C13.6203 3.88443 13.794 3.95124 13.9747 3.95124C14.1554 3.95124 14.3291 3.88443 14.4594 3.76483C14.5896 3.64523 14.6663 3.48213 14.6733 3.30975V2.64244H15.6658C15.9583 2.64323 16.2385 2.75448 16.4453 2.95187C16.6521 3.14927 16.7686 3.41677 16.7694 3.69594V15.5946C16.7686 15.8738 16.6521 16.1413 16.4453 16.3387C16.2385 16.5361 15.9583 16.6473 15.6658 16.6481H2.50179C2.20934 16.6473 1.92911 16.5361 1.72232 16.3387C1.51552 16.1413 1.39898 15.8738 1.39815 15.5946L1.3971 3.69594Z" fill="white"/>
<path d="M5.06499 7.64256C5.54691 7.64256 5.93759 7.26962 5.93759 6.80956C5.93759 6.34951 5.54691 5.97656 5.06499 5.97656C4.58306 5.97656 4.19238 6.34951 4.19238 6.80956C4.19238 7.26962 4.58306 7.64256 5.06499 7.64256Z" fill="white"/>
<path d="M8.90831 7.64256C9.39024 7.64256 9.78092 7.26962 9.78092 6.80956C9.78092 6.34951 9.39024 5.97656 8.90831 5.97656C8.42638 5.97656 8.03571 6.34951 8.03571 6.80956C8.03571 7.26962 8.42638 7.64256 8.90831 7.64256Z" fill="white"/>
<path d="M12.7506 7.64256C13.2325 7.64256 13.6232 7.26962 13.6232 6.80956C13.6232 6.34951 13.2325 5.97656 12.7506 5.97656C12.2687 5.97656 11.878 6.34951 11.878 6.80956C11.878 7.26962 12.2687 7.64256 12.7506 7.64256Z" fill="white"/>
<path d="M5.06499 10.9775C5.54691 10.9775 5.93759 10.6046 5.93759 10.1445C5.93759 9.68447 5.54691 9.31152 5.06499 9.31152C4.58306 9.31152 4.19238 9.68447 4.19238 10.1445C4.19238 10.6046 4.58306 10.9775 5.06499 10.9775Z" fill="white"/>
<path d="M8.90831 10.9775C9.39024 10.9775 9.78092 10.6046 9.78092 10.1445C9.78092 9.68447 9.39024 9.31152 8.90831 9.31152C8.42638 9.31152 8.03571 9.68447 8.03571 10.1445C8.03571 10.6046 8.42638 10.9775 8.90831 10.9775Z" fill="white"/>
<path d="M12.7506 10.9775C13.2325 10.9775 13.6232 10.6046 13.6232 10.1445C13.6232 9.68447 13.2325 9.31152 12.7506 9.31152C12.2687 9.31152 11.878 9.68447 11.878 10.1445C11.878 10.6046 12.2687 10.9775 12.7506 10.9775Z" fill="white"/>
<path d="M5.06499 14.3135C5.54691 14.3135 5.93759 13.9405 5.93759 13.4805C5.93759 13.0204 5.54691 12.6475 5.06499 12.6475C4.58306 12.6475 4.19238 13.0204 4.19238 13.4805C4.19238 13.9405 4.58306 14.3135 5.06499 14.3135Z" fill="white"/>
<path d="M8.90831 14.3135C9.39024 14.3135 9.78092 13.9405 9.78092 13.4805C9.78092 13.0204 9.39024 12.6475 8.90831 12.6475C8.42638 12.6475 8.03571 13.0204 8.03571 13.4805C8.03571 13.9405 8.42638 14.3135 8.90831 14.3135Z" fill="white"/>
<path d="M12.7506 14.3135C13.2325 14.3135 13.6232 13.9405 13.6232 13.4805C13.6232 13.0204 13.2325 12.6475 12.7506 12.6475C12.2687 12.6475 11.878 13.0204 11.878 13.4805C11.878 13.9405 12.2687 14.3135 12.7506 14.3135Z" fill="white"/>
</svg>
