<svg width="17" height="15" viewBox="0 0 17 15" fill="none" xmlns="http://www.w3.org/2000/svg">
<path d="M10.8255 14.9611C10.7184 14.9613 10.6114 14.9526 10.5059 14.935C7.25303 14.3347 4.36718 12.562 2.44711 9.98468C1.47164 8.77199 0.764298 7.38284 0.367947 5.90145C-0.0284042 4.42006 -0.105508 2.87726 0.14131 1.36658C0.240774 0.92452 0.517606 0.537203 0.912528 0.287565C1.30745 0.0379272 1.78907 -0.054187 2.25426 0.0309466L4.47726 0.398121C4.61698 0.419004 4.74625 0.481378 4.84672 0.576386C4.94719 0.671393 5.01375 0.794203 5.03694 0.927373L5.5526 4.15091C5.56761 4.24645 5.55872 4.34403 5.52666 4.43567C5.4946 4.5273 5.44028 4.6104 5.36814 4.67816L4.22153 5.76668C4.8453 7.41246 5.95167 8.85232 7.40877 9.91465L8.9285 9.31436C9.02472 9.2755 9.12878 9.25749 9.23318 9.26165C9.33757 9.2658 9.4397 9.29201 9.5322 9.33838L12.6608 10.9011C12.7859 10.9614 12.8873 11.0586 12.9499 11.1783C13.0126 11.298 13.0332 11.4337 13.0087 11.5654L12.6136 13.5914C12.529 13.9826 12.3042 14.3334 11.9778 14.5834C11.6514 14.8334 11.244 14.967 10.8255 14.9611Z" fill="white"/>
<path d="M10.9503 2.12906C11.0526 2.13414 11.1511 2.16773 11.2336 2.22567C11.3161 2.28361 11.3791 2.36336 11.4146 2.45505C11.4501 2.54674 11.4567 2.64636 11.4335 2.74157C11.4103 2.83679 11.3583 2.92343 11.2841 2.99078C11.2098 3.05813 11.1165 3.10323 11.0156 3.12051C10.9148 3.13779 10.8109 3.12649 10.7167 3.088C10.6225 3.04951 10.5422 2.98552 10.4858 2.90395C10.4293 2.82239 10.3991 2.72682 10.399 2.62906C10.4034 2.49325 10.4637 2.36458 10.5669 2.27097C10.6701 2.17735 10.8079 2.12636 10.9503 2.12906ZM13.4447 2.12906C13.547 2.13414 13.6456 2.16773 13.7281 2.22567C13.8106 2.28361 13.8735 2.36336 13.909 2.45505C13.9445 2.54674 13.9511 2.64636 13.9279 2.74157C13.9047 2.83679 13.8528 2.92343 13.7785 2.99078C13.7043 3.05813 13.6109 3.10323 13.5101 3.12051C13.4093 3.13779 13.3053 3.12649 13.2111 3.088C13.117 3.04951 13.0367 2.98552 12.9802 2.90395C12.9237 2.82239 12.8936 2.72682 12.8934 2.62906C12.8978 2.49325 12.9582 2.36458 13.0614 2.27097C13.1646 2.17735 13.3024 2.12636 13.4447 2.12906ZM10.7721 6.64306C10.8448 6.67081 10.9243 6.67812 11.0012 6.66412C11.0781 6.65012 11.1491 6.6154 11.206 6.56406L12.6796 5.21306H14.1082C14.8351 5.23 15.5395 4.97135 16.0669 4.49376C16.5944 4.01618 16.902 3.35859 16.9223 2.66506C16.9028 1.97091 16.5956 1.31246 16.0681 0.834074C15.5406 0.355685 14.8358 0.0963983 14.1082 0.113061H10.9209C10.1964 0.0991232 9.49565 0.360181 8.9727 0.83888C8.44976 1.31758 8.14737 1.97477 8.13196 2.66606C8.14468 3.29094 8.39362 3.8904 8.83292 4.35402C9.27223 4.81763 9.87231 5.11419 10.5227 5.18906V6.30706C10.5235 6.38008 10.5473 6.45116 10.5911 6.51108C10.6348 6.571 10.6964 6.61699 10.7679 6.64306H10.7721Z" fill="white"/>
<path d="M10.5057 14.9351C7.25263 14.3353 4.36638 12.5629 2.44587 9.98573C1.47147 8.7724 0.76525 7.38287 0.369986 5.90133C-0.0252781 4.41978 -0.101355 2.87706 0.146364 1.36663C0.245623 0.925419 0.521575 0.538703 0.915345 0.288988C1.30911 0.0392736 1.78952 -0.053668 2.25407 0.0299932L4.47707 0.395167C4.61673 0.416194 4.74592 0.478615 4.84637 0.573597C4.94681 0.668579 5.01341 0.79131 5.03675 0.924419L5.55241 4.14795C5.56734 4.24349 5.55841 4.34105 5.52635 4.43267C5.4943 4.5243 5.44002 4.6074 5.36795 4.6752L4.21505 5.76572C4.84045 7.4123 5.94864 8.85251 7.40753 9.9147L8.92726 9.31441C9.02352 9.27568 9.12756 9.25776 9.23193 9.26191C9.3363 9.26606 9.43841 9.29219 9.53096 9.33842L12.6595 10.8962C12.7845 10.9564 12.8859 11.0534 12.9487 11.1728C13.0116 11.2923 13.0325 11.4278 13.0085 11.5595L12.6092 13.5914C12.525 13.9817 12.3012 14.3319 11.9761 14.5818C11.6509 14.8317 11.2448 14.9658 10.8275 14.9611C10.7196 14.9618 10.6119 14.9531 10.5057 14.9351ZM10.773 6.64714C10.7013 6.62099 10.6396 6.57483 10.5958 6.51469C10.5521 6.45454 10.5283 6.3832 10.5277 6.30998V5.19145C9.87641 5.11766 9.27507 4.82145 8.8347 4.3575C8.39433 3.89355 8.14465 3.29319 8.13177 2.66725C8.14882 1.97659 8.45189 1.32052 8.97463 0.842726C9.49736 0.36493 10.1971 0.104344 10.9207 0.118035H14.108C14.8351 0.101352 15.5396 0.360321 16.0672 0.838267C16.5948 1.31621 16.9026 1.97421 16.9231 2.66825C16.9023 3.36203 16.5944 4.01967 16.0668 4.49724C15.5392 4.97481 14.8349 5.23342 14.108 5.21646H12.6784L11.2016 6.5671C11.1247 6.63537 11.0237 6.67357 10.9186 6.67415C10.8687 6.6739 10.8193 6.66473 10.773 6.64714ZM12.8985 2.63423C12.893 2.73927 12.9207 2.84345 12.9779 2.93334C13.035 3.02324 13.1191 3.09472 13.2192 3.13857C13.3194 3.18242 13.431 3.19662 13.5396 3.17935C13.6483 3.16208 13.7491 3.11412 13.8289 3.04167C13.9088 2.96921 13.9641 2.87558 13.9876 2.77286C14.0112 2.67013 14.002 2.56302 13.9612 2.46533C13.9204 2.36765 13.8499 2.28387 13.7587 2.22481C13.6675 2.16576 13.5599 2.13412 13.4498 2.13399C13.3788 2.13186 13.3081 2.14312 13.2417 2.16712C13.1753 2.19112 13.1145 2.2274 13.0628 2.27387C13.0111 2.32034 12.9695 2.37609 12.9404 2.43793C12.9113 2.49976 12.8953 2.56647 12.8932 2.63423H12.8985ZM10.404 2.63423C10.3986 2.73927 10.4262 2.84345 10.4834 2.93334C10.5406 3.02324 10.6246 3.09472 10.7248 3.13857C10.8249 3.18242 10.9365 3.19662 11.0452 3.17935C11.1539 3.16208 11.2546 3.11412 11.3345 3.04167C11.4143 2.96921 11.4696 2.87558 11.4932 2.77286C11.5167 2.67013 11.5075 2.56302 11.4667 2.46533C11.4259 2.36765 11.3554 2.28387 11.2642 2.22481C11.1731 2.16576 11.0655 2.13412 10.9553 2.13399C10.8843 2.13186 10.8136 2.14312 10.7472 2.16712C10.6808 2.19112 10.62 2.2274 10.5683 2.27387C10.5166 2.32034 10.475 2.37609 10.4459 2.43793C10.4168 2.49976 10.4008 2.56647 10.3988 2.63423H10.404Z" fill="white"/>
</svg>
