<svg width="18" height="16" viewBox="0 0 18 16" fill="none" xmlns="http://www.w3.org/2000/svg">
<path d="M11.4808 15.4718C11.3737 15.472 11.2667 15.4633 11.1611 15.4458C7.90831 14.8455 5.02245 13.0727 3.10238 10.4954C2.12692 9.28273 1.41957 7.89359 1.02322 6.41219C0.626869 4.9308 0.549766 3.38801 0.796583 1.87732C0.896048 1.43526 1.17288 1.04795 1.5678 0.798307C1.96272 0.548669 2.44434 0.456555 2.90953 0.541689L5.13253 0.908864C5.27225 0.929746 5.40153 0.992121 5.502 1.08713C5.60247 1.18214 5.66902 1.30495 5.69221 1.43812L6.20787 4.66165C6.22288 4.75719 6.214 4.85477 6.18194 4.94641C6.14988 5.03805 6.09555 5.12114 6.02341 5.1889L4.8768 6.27742C5.50057 7.9232 6.60694 9.36307 8.06404 10.4254L9.58377 9.82511C9.68 9.78624 9.78406 9.76824 9.88845 9.77239C9.99284 9.77654 10.095 9.80275 10.1875 9.84912L13.316 11.4119C13.4411 11.4722 13.5425 11.5694 13.6052 11.689C13.6679 11.8087 13.6885 11.9445 13.664 12.0762L13.2689 14.1021C13.1843 14.4933 12.9595 14.8442 12.6331 15.0942C12.3067 15.3442 11.8992 15.4777 11.4808 15.4718Z" fill="#333333"/>
<path d="M11.6054 2.6398C11.7077 2.64489 11.8063 2.67847 11.8888 2.73641C11.9713 2.79435 12.0342 2.8741 12.0697 2.96579C12.1052 3.05748 12.1118 3.1571 12.0886 3.25232C12.0654 3.34753 12.0135 3.43417 11.9392 3.50152C11.865 3.56887 11.7716 3.61398 11.6708 3.63125C11.57 3.64853 11.466 3.63723 11.3718 3.59874C11.2777 3.56025 11.1974 3.49626 11.1409 3.4147C11.0844 3.33313 11.0543 3.23756 11.0541 3.1398C11.0585 3.004 11.1189 2.87532 11.2221 2.78171C11.3253 2.6881 11.463 2.63711 11.6054 2.6398ZM14.0999 2.6398C14.2022 2.64489 14.3007 2.67847 14.3832 2.73641C14.4657 2.79435 14.5287 2.8741 14.5642 2.96579C14.5997 3.05748 14.6063 3.1571 14.5831 3.25232C14.5599 3.34753 14.5079 3.43417 14.4337 3.50152C14.3594 3.56887 14.2661 3.61398 14.1653 3.63125C14.0644 3.64853 13.9605 3.63723 13.8663 3.59874C13.7721 3.56025 13.6918 3.49626 13.6354 3.4147C13.5789 3.33313 13.5487 3.23756 13.5486 3.1398C13.553 3.004 13.6133 2.87532 13.7165 2.78171C13.8198 2.6881 13.9575 2.63711 14.0999 2.6398ZM11.4272 7.1538C11.4999 7.18155 11.5794 7.18886 11.6563 7.17486C11.7332 7.16086 11.8043 7.12614 11.8612 7.0748L13.3348 5.7238H14.7633C15.4903 5.74074 16.1946 5.48209 16.7221 5.00451C17.2496 4.52692 17.5571 3.86934 17.5774 3.1758C17.558 2.48166 17.2508 1.8232 16.7232 1.34482C16.1957 0.866428 15.4909 0.60714 14.7633 0.623803H11.5761C10.8515 0.609865 10.1508 0.870923 9.62785 1.34962C9.10491 1.82832 8.80252 2.48551 8.78711 3.1768C8.79983 3.80169 9.04877 4.40114 9.48807 4.86476C9.92738 5.32838 10.5275 5.62493 11.1778 5.6998V6.8178C11.1786 6.89082 11.2025 6.9619 11.2462 7.02182C11.29 7.08174 11.3516 7.12773 11.4231 7.1538H11.4272Z" fill="#333333"/>
<path d="M11.1609 15.4458C7.90784 14.846 5.0216 13.0736 3.10109 10.4965C2.12669 9.28314 1.42046 7.89361 1.0252 6.41207C0.629934 4.93052 0.553857 3.38781 0.801576 1.87737C0.900835 1.43616 1.17679 1.04945 1.57056 0.799731C1.96433 0.550016 2.44474 0.457074 2.90929 0.540735L5.13229 0.905909C5.27194 0.926936 5.40114 0.989357 5.50158 1.08434C5.60202 1.17932 5.66863 1.30205 5.69197 1.43516L6.20763 4.6587C6.22255 4.75424 6.21362 4.85179 6.18157 4.94342C6.14951 5.03504 6.09524 5.11814 6.02316 5.18595L4.87026 6.27646C5.49566 7.92305 6.60385 9.36325 8.06275 10.4254L9.58248 9.82515C9.67874 9.78643 9.78277 9.7685 9.88714 9.77265C9.99151 9.7768 10.0936 9.80293 10.1862 9.84916L13.3147 11.4069C13.4397 11.4671 13.5411 11.5641 13.604 11.6836C13.6668 11.803 13.6878 11.9385 13.6637 12.0702L13.2644 14.1022C13.1802 14.4925 12.9564 14.8426 12.6313 15.0925C12.3062 15.3424 11.9001 15.4765 11.4827 15.4718C11.3748 15.4725 11.2671 15.4638 11.1609 15.4458ZM11.4282 7.15788C11.3565 7.13174 11.2948 7.08558 11.251 7.02543C11.2073 6.96528 11.1835 6.89394 11.1829 6.82072V5.70219C10.5316 5.6284 9.93029 5.33219 9.48991 4.86824C9.04954 4.4043 8.79986 3.80393 8.78698 3.17799C8.80403 2.48733 9.1071 1.83126 9.62984 1.35347C10.1526 0.875672 10.8524 0.615086 11.5759 0.628777H14.7632C15.4903 0.612094 16.1948 0.871063 16.7224 1.34901C17.25 1.82695 17.5578 2.48495 17.5784 3.17899C17.5575 3.87277 17.2496 4.53041 16.722 5.00798C16.1944 5.48555 15.4901 5.74416 14.7632 5.7272H13.3336L11.8568 7.07785C11.7799 7.14611 11.6789 7.18432 11.5738 7.1849C11.5239 7.18464 11.4745 7.17548 11.4282 7.15788ZM13.5537 3.14497C13.5482 3.25001 13.5759 3.35419 13.6331 3.44409C13.6902 3.53398 13.7743 3.60546 13.8744 3.64931C13.9746 3.69316 14.0862 3.70736 14.1949 3.69009C14.3035 3.67282 14.4043 3.62486 14.4841 3.55241C14.564 3.47996 14.6193 3.38633 14.6428 3.2836C14.6664 3.18087 14.6572 3.07376 14.6164 2.97607C14.5756 2.87839 14.5051 2.79462 14.4139 2.73556C14.3228 2.6765 14.2152 2.64487 14.105 2.64474C14.034 2.6426 13.9633 2.65386 13.8969 2.67786C13.8305 2.70186 13.7697 2.73814 13.718 2.78461C13.6663 2.83108 13.6247 2.88683 13.5956 2.94867C13.5665 3.01051 13.5505 3.07722 13.5485 3.14497H13.5537ZM11.0592 3.14497C11.0538 3.25001 11.0814 3.35419 11.1386 3.44409C11.1958 3.53398 11.2799 3.60546 11.38 3.64931C11.4801 3.69316 11.5917 3.70736 11.7004 3.69009C11.8091 3.67282 11.9098 3.62486 11.9897 3.55241C12.0695 3.47996 12.1248 3.38633 12.1484 3.2836C12.172 3.18087 12.1628 3.07376 12.1219 2.97607C12.0811 2.87839 12.0106 2.79462 11.9195 2.73556C11.8283 2.6765 11.7207 2.64487 11.6105 2.64474C11.5396 2.6426 11.4688 2.65386 11.4024 2.67786C11.336 2.70186 11.2752 2.73814 11.2235 2.78461C11.1718 2.83108 11.1302 2.88683 11.1011 2.94867C11.072 3.01051 11.056 3.07722 11.054 3.14497H11.0592Z" fill="#333333"/>
</svg>
