<svg width="24" height="23" viewBox="0 0 24 23" fill="none" xmlns="http://www.w3.org/2000/svg">
<path d="M9.38402 22.2589C8.06627 22.2589 6.99414 21.1867 6.99414 19.869C6.99414 18.5512 8.06627 17.4795 9.38402 17.4795C10.7018 17.4795 11.7739 18.5512 11.7739 19.869C11.7739 21.1867 10.7018 22.2589 9.38402 22.2589ZM9.38402 18.9795C8.89352 18.9795 8.49414 19.3785 8.49414 19.869C8.49414 20.3599 8.89314 20.7589 9.38402 20.7589C9.87489 20.7589 10.2739 20.3599 10.2739 19.869C10.2739 19.3785 9.87489 18.9795 9.38402 18.9795Z" fill="white"/>
<path d="M17.6917 22.2589C16.374 22.2589 15.3022 21.1867 15.3022 19.869C15.3022 18.5512 16.374 17.4795 17.6917 17.4795C19.0095 17.4795 20.0816 18.5512 20.0816 19.869C20.0816 21.1867 19.0091 22.2589 17.6917 22.2589ZM17.6917 18.9795C17.2012 18.9795 16.8022 19.3785 16.8022 19.869C16.8022 20.3599 17.2012 20.7589 17.6917 20.7589C18.1826 20.7589 18.5816 20.3599 18.5816 19.869C18.5816 19.3785 18.1822 18.9795 17.6917 18.9795Z" fill="white"/>
<path d="M19.4415 15.6274H7.65937C6.513 15.6274 5.53387 14.847 5.27812 13.7295L2.83275 3.05062C2.8005 2.90962 2.703 2.78887 2.57175 2.72812L0.543374 1.788C0.0738737 1.5705 -0.130501 1.01325 0.0869987 0.543374C0.304499 0.0738737 0.862124 -0.130501 1.33162 0.0869987L3.36 1.02712C4.01362 1.32975 4.5 1.92975 4.6605 2.63212L7.10587 13.3117C7.16512 13.5712 7.39275 13.7527 7.65937 13.7527H19.4415C19.707 13.7527 19.9342 13.5724 19.995 13.3136L21.8962 5.13375C21.9506 4.90125 21.8516 4.73212 21.7882 4.65225C21.7245 4.572 21.582 4.43775 21.3435 4.43775H7.4685C6.95062 4.43775 6.531 4.01812 6.531 3.50025C6.531 2.98237 6.95062 2.56275 7.4685 2.56275H21.3435C22.0931 2.56275 22.7899 2.89912 23.2564 3.486C23.7229 4.07287 23.8924 4.82812 23.7229 5.55825L21.8212 13.7385C21.5621 14.8504 20.5837 15.6274 19.4415 15.6274Z" fill="white"/>
</svg>
