<svg width="24" height="24" viewBox="0 0 24 24" fill="none" xmlns="http://www.w3.org/2000/svg">
<path d="M9.49046 23.129C8.17271 23.129 7.10059 22.0569 7.10059 20.7391C7.10059 19.4214 8.17271 18.3496 9.49046 18.3496C10.8082 18.3496 11.8803 19.4214 11.8803 20.7391C11.8803 22.0569 10.8082 23.129 9.49046 23.129ZM9.49046 19.8496C8.99996 19.8496 8.60059 20.2486 8.60059 20.7391C8.60059 21.23 8.99959 21.629 9.49046 21.629C9.98134 21.629 10.3803 21.23 10.3803 20.7391C10.3803 20.2486 9.98134 19.8496 9.49046 19.8496Z" fill="black"/>
<path d="M17.7982 23.129C16.4804 23.129 15.4087 22.0569 15.4087 20.7391C15.4087 19.4214 16.4804 18.3496 17.7982 18.3496C19.1159 18.3496 20.1881 19.4214 20.1881 20.7391C20.1881 22.0569 19.1156 23.129 17.7982 23.129ZM17.7982 19.8496C17.3077 19.8496 16.9087 20.2486 16.9087 20.7391C16.9087 21.23 17.3077 21.629 17.7982 21.629C18.2891 21.629 18.6881 21.23 18.6881 20.7391C18.6881 20.2486 18.2887 19.8496 17.7982 19.8496Z" fill="black"/>
<path d="M19.5479 16.4975H7.76582C6.61944 16.4975 5.64032 15.7171 5.38457 14.5996L2.93919 3.92074C2.90694 3.77974 2.80944 3.65899 2.67819 3.59824L0.649819 2.65812C0.180319 2.44062 -0.024056 1.88337 0.193444 1.41349C0.410944 0.943991 0.968569 0.739616 1.43807 0.957116L3.46644 1.89724C4.12007 2.19987 4.60644 2.79987 4.76694 3.50224L7.21232 14.1819C7.27157 14.4414 7.49919 14.6229 7.76582 14.6229H19.5479C19.8134 14.6229 20.0407 14.4425 20.1014 14.1837L22.0027 6.00387C22.0571 5.77137 21.9581 5.60224 21.8947 5.52237C21.8309 5.44212 21.6884 5.30787 21.4499 5.30787H7.57494C7.05707 5.30787 6.63744 4.88824 6.63744 4.37037C6.63744 3.85249 7.05707 3.43287 7.57494 3.43287H21.4499C22.1996 3.43287 22.8963 3.76924 23.3628 4.35612C23.8293 4.94299 23.9988 5.69824 23.8293 6.42837L21.9277 14.6086C21.6686 15.7205 20.6902 16.4975 19.5479 16.4975Z" fill="black"/>
</svg>
