<svg width="34" height="34" viewBox="0 0 34 34" fill="none" xmlns="http://www.w3.org/2000/svg">
<mask id="mask0_2614_1792" style="mask-type:alpha" maskUnits="userSpaceOnUse" x="0" y="0" width="34" height="34">
<rect width="34" height="34" fill="#D9D9D9"/>
</mask>
<g mask="url(#mask0_2614_1792)">
<path d="M10.2709 18.0628H23.7292V15.9378H10.2709V18.0628ZM17.0026 30.4587C15.1411 30.4587 13.3914 30.1054 11.7535 29.399C10.1156 28.6925 8.69086 27.7338 7.47937 26.5228C6.26789 25.3118 5.30869 23.8877 4.60177 22.2505C3.89509 20.6133 3.54175 18.8641 3.54175 17.0028C3.54175 15.1413 3.89497 13.3916 4.60141 11.7537C5.30786 10.1158 6.26659 8.6911 7.4776 7.47962C8.68862 6.26813 10.1127 5.30893 11.7499 4.60201C13.3871 3.89533 15.1363 3.54199 16.9976 3.54199C18.8591 3.54199 20.6088 3.89521 22.2467 4.60166C23.8846 5.3081 25.3093 6.26683 26.5208 7.47785C27.7323 8.68886 28.6915 10.113 29.3984 11.7502C30.1051 13.3874 30.4584 15.1366 30.4584 16.9978C30.4584 18.8593 30.1052 20.609 29.3987 22.247C28.6923 23.8849 27.7336 25.3095 26.5226 26.521C25.3115 27.7325 23.8874 28.6917 22.2502 29.3986C20.6131 30.1053 18.8638 30.4587 17.0026 30.4587ZM17.0001 28.3337C20.164 28.3337 22.8438 27.2357 25.0397 25.0399C27.2355 22.8441 28.3334 20.1642 28.3334 17.0003C28.3334 13.8364 27.2355 11.1566 25.0397 8.96074C22.8438 6.76491 20.164 5.66699 17.0001 5.66699C13.8362 5.66699 11.1563 6.76491 8.9605 8.96074C6.76466 11.1566 5.66675 13.8364 5.66675 17.0003C5.66675 20.1642 6.76466 22.8441 8.9605 25.0399C11.1563 27.2357 13.8362 28.3337 17.0001 28.3337Z" fill="#E97737"/>
</g>
</svg>
