<svg width="18" height="17" viewBox="0 0 18 17" fill="none" xmlns="http://www.w3.org/2000/svg">
<path d="M9.94146 16.9949H8.26451C7.47111 16.9949 6.54774 16.9949 5.638 16.9419C4.33373 16.9703 3.07044 16.5061 2.1227 15.6503C1.22689 14.7446 0.741759 13.5379 0.772762 12.2927C0.718262 11.3252 0.718262 10.3428 0.718262 9.3913C0.718262 9.25791 0.718262 9.12451 0.718262 8.99111C0.718262 8.85772 0.718262 8.72432 0.718262 8.59092C0.718262 7.64047 0.718262 6.659 0.772762 5.68954C0.742886 4.44372 1.22955 3.23702 2.1269 2.33194C3.07497 1.47536 4.33924 1.01111 5.64429 1.04033C6.54879 0.987305 7.47216 0.987305 8.26451 0.987305H9.94146C10.7349 0.987305 11.6582 0.987305 12.568 1.04033C13.8722 1.01207 15.1355 1.47622 16.0833 2.33194C16.9788 3.23776 17.4636 4.4444 17.4322 5.68954C17.4877 6.657 17.4877 7.63847 17.4877 8.59092C17.4877 8.72432 17.4877 8.85772 17.4877 8.99111C17.4877 9.14385 17.4877 9.29626 17.4877 9.44833C17.4877 10.3798 17.4877 11.3422 17.4332 12.2947C17.4629 13.5397 16.9767 14.7456 16.0801 15.6503C15.1317 16.5069 13.8671 16.9712 12.5617 16.9419C11.6561 16.9949 10.7317 16.9949 9.94146 16.9949ZM9.10299 4.88916C8.25309 4.88916 7.42227 5.12974 6.71561 5.58047C6.00894 6.03119 5.45816 6.67183 5.13292 7.42137C4.80767 8.1709 4.72258 8.99567 4.88838 9.79137C5.05419 10.5871 5.46346 11.318 6.06443 11.8916C6.6654 12.4653 7.43108 12.856 8.26465 13.0142C9.09822 13.1725 9.96224 13.0913 10.7474 12.7808C11.5326 12.4704 12.2038 11.9446 12.676 11.27C13.1481 10.5955 13.4002 9.8024 13.4002 8.99111C13.3985 7.9037 12.9452 6.86127 12.1397 6.09235C11.3342 5.32343 10.2422 4.89075 9.10299 4.88916ZM13.5794 3.75662C13.4308 3.75662 13.284 3.78809 13.1496 3.84874C13.0153 3.9094 12.8967 3.99774 12.8024 4.10741C12.7081 4.21708 12.6405 4.34534 12.6044 4.48295C12.5683 4.62057 12.5646 4.76412 12.5936 4.90326C12.6226 5.04241 12.6835 5.17368 12.7721 5.28763C12.8606 5.40158 12.9745 5.49537 13.1056 5.56225C13.2366 5.62912 13.3816 5.66742 13.5301 5.67438C13.6785 5.68134 13.8267 5.65679 13.964 5.6025C14.0865 5.55471 14.1977 5.48394 14.291 5.3944C14.4316 5.26022 14.5272 5.08928 14.566 4.9032C14.6048 4.71711 14.5849 4.52423 14.5088 4.34894C14.4328 4.17365 14.304 4.02382 14.1387 3.91839C13.9735 3.81296 13.7792 3.75667 13.5804 3.75662H13.5794ZM9.10299 11.6644C8.54956 11.6646 8.0085 11.5081 7.54821 11.2148C7.08792 10.9215 6.72908 10.5045 6.51705 10.0165C6.30503 9.52855 6.24934 8.99151 6.35703 8.47333C6.46472 7.95514 6.73095 7.47907 7.12206 7.1053C7.51317 6.73154 8.0116 6.47687 8.55433 6.37349C9.09705 6.27011 9.65971 6.32267 10.1711 6.52451C10.6826 6.72636 11.1198 7.06843 11.4276 7.50748C11.7354 7.94652 11.8999 8.46283 11.9003 8.99111C11.9001 9.69951 11.6054 10.3789 11.0809 10.8801C10.5564 11.3812 9.84509 11.6633 9.10299 11.6644Z" fill="#333333"/>
</svg>
