<svg width="17" height="16" viewBox="0 0 17 16" fill="none" xmlns="http://www.w3.org/2000/svg">
<path d="M9.2232 16.0076H7.54625C6.75285 16.0076 5.82948 16.0076 4.91974 15.9546C3.61547 15.983 2.35218 15.5188 1.40444 14.663C0.508625 13.7573 0.023497 12.5506 0.0545007 11.3054C0 10.3379 0 9.35545 0 8.404C0 8.2706 0 8.13721 0 8.00381C0 7.87041 0 7.73702 0 7.60362C0 6.65317 0 5.6717 0.0545007 4.70224C0.0246246 3.45641 0.511289 2.24972 1.40863 1.34464C2.35671 0.488052 3.62098 0.023801 4.92602 0.0530252C5.83053 0 6.75389 0 7.54625 0H9.2232C10.0166 0 10.94 0 11.8497 0.0530252C13.154 0.0247681 14.4172 0.488919 15.365 1.34464C16.2605 2.25046 16.7453 3.4571 16.7139 4.70224C16.7694 5.6697 16.7694 6.65117 16.7694 7.60362C16.7694 7.73702 16.7694 7.87041 16.7694 8.00381C16.7694 8.15655 16.7694 8.30896 16.7694 8.46103C16.7694 9.39247 16.7694 10.3549 16.7149 11.3074C16.7447 12.5524 16.2584 13.7583 15.3619 14.663C14.4134 15.5196 13.1488 15.9839 11.8434 15.9546C10.9379 16.0076 10.0135 16.0076 9.2232 16.0076ZM8.38472 3.90186C7.53482 3.90186 6.70401 4.14243 5.99734 4.59316C5.29068 5.04389 4.7399 5.68453 4.41466 6.43406C4.08941 7.18359 4.00431 8.00836 4.17012 8.80406C4.33593 9.59976 4.74519 10.3307 5.34616 10.9043C5.94713 11.478 6.71282 11.8687 7.54639 12.0269C8.37996 12.1852 9.24397 12.104 10.0292 11.7935C10.8144 11.4831 11.4855 10.9573 11.9577 10.2827C12.4299 9.60817 12.6819 8.8151 12.6819 8.00381C12.6802 6.91639 12.227 5.87397 11.4214 5.10505C10.6159 4.33612 9.52389 3.90345 8.38472 3.90186ZM12.8611 2.76932C12.7125 2.76932 12.5657 2.80078 12.4314 2.86144C12.297 2.9221 12.1784 3.01044 12.0842 3.12011C11.9899 3.22977 11.9222 3.35803 11.8861 3.49565C11.85 3.63327 11.8463 3.77682 11.8753 3.91596C11.9043 4.0551 11.9653 4.18638 12.0538 4.30032C12.1423 4.41427 12.2562 4.50806 12.3873 4.57494C12.5184 4.64182 12.6634 4.68012 12.8118 4.68708C12.9602 4.69404 13.1085 4.66949 13.2458 4.6152C13.3682 4.5674 13.4794 4.49664 13.5728 4.4071C13.7133 4.27292 13.809 4.10198 13.8477 3.91589C13.8865 3.72981 13.8666 3.53693 13.7905 3.36164C13.7145 3.18635 13.5857 3.03652 13.4205 2.93109C13.2552 2.82566 13.0609 2.76936 12.8622 2.76932H12.8611ZM8.38472 10.6771C7.8313 10.6773 7.29024 10.5208 6.82995 10.2275C6.36966 9.9342 6.01082 9.51719 5.79879 9.02922C5.58677 8.54124 5.53108 8.00421 5.63876 7.48602C5.74645 6.96783 6.01268 6.49176 6.4038 6.118C6.79491 5.74423 7.29334 5.48956 7.83607 5.38618C8.37879 5.28281 8.94145 5.33536 9.45288 5.53721C9.96432 5.73905 10.4016 6.08113 10.7094 6.52017C11.0172 6.95922 11.1817 7.47553 11.1821 8.00381C11.1818 8.7122 10.8871 9.39155 10.3626 9.89275C9.83818 10.3939 9.12683 10.676 8.38472 10.6771Z" fill="white"/>
</svg>
