<svg width="20" height="22" viewBox="0 0 20 22" fill="none" xmlns="http://www.w3.org/2000/svg">
<g clip-path="url(#clip0_549_3396)">
<path d="M10.0005 0.970703C12.7826 0.970875 15.0483 3.18249 15.0483 5.9082C15.0483 8.63395 12.7826 10.8465 10.0005 10.8467C7.21822 10.8467 4.95264 8.63406 4.95264 5.9082C4.95268 3.18238 7.21825 0.970703 10.0005 0.970703ZM10.0005 2.69824C8.18903 2.69824 6.7144 4.14242 6.71436 5.9082C6.71436 7.67402 8.189 9.11816 10.0005 9.11816C11.8118 9.11799 13.2856 7.67391 13.2856 5.9082C13.2856 4.14253 11.8118 2.69841 10.0005 2.69824Z" fill="black" stroke="black" stroke-width="0.2"/>
<path d="M13.1245 12.1738C16.4797 12.1738 19.2143 14.8439 19.2144 18.1299C19.2144 19.7354 17.8859 21.0312 16.2495 21.0312H3.74951C2.11323 21.0311 0.785645 19.7353 0.785645 18.1299C0.785664 14.844 3.51949 12.174 6.87451 12.1738H13.1245ZM6.87451 13.9014C4.49027 13.9015 2.54738 15.804 2.54736 18.1299C2.54736 18.7752 3.08401 19.3026 3.74951 19.3027H16.2495C16.9152 19.3027 17.4517 18.7753 17.4517 18.1299C17.4516 15.8039 15.5089 13.9014 13.1245 13.9014H6.87451Z" fill="black" stroke="black" stroke-width="0.2"/>
</g>
<defs>
<clipPath id="clip0_549_3396">
<rect width="20" height="22" fill="white"/>
</clipPath>
</defs>
</svg>
