<svg width="25" height="23" viewBox="0 0 25 23" fill="none" xmlns="http://www.w3.org/2000/svg">
<path d="M12.1504 22.1504L2.09193 11.8078C-0.497317 9.14525 -0.49727 4.81299 2.09203 2.15052C3.3464 0.860701 5.01413 0.150391 6.78801 0.150391C8.56194 0.150391 10.2297 0.860701 11.484 2.15052L12.15 2.83538L12.8161 2.15052C14.0704 0.860701 15.7381 0.150391 17.512 0.150391C19.2859 0.150391 20.9536 0.860701 22.208 2.15047C24.7973 4.81299 24.7974 9.14525 22.2081 11.8078L12.1504 22.1504ZM6.78806 1.59676C5.38988 1.59676 4.0754 2.15665 3.08669 3.17325C1.04583 5.27183 1.04583 8.68651 3.0866 10.7851L12.1501 20.1052L21.2136 10.7851C23.2544 8.68646 23.2544 5.27183 21.2135 3.17325C20.2248 2.15665 18.9104 1.59676 17.5122 1.59676C16.114 1.59676 14.7995 2.1566 13.8108 3.17325L12.1502 4.88083L10.4895 3.17325C9.50076 2.15665 8.18623 1.59676 6.78806 1.59676Z" fill="white" stroke="white" stroke-width="0.3"/>
</svg>
