<svg width="26" height="24" viewBox="0 0 26 24" fill="none" xmlns="http://www.w3.org/2000/svg">
<path d="M13.0004 23L2.94191 12.6574C0.352658 9.99485 0.352705 5.6626 2.942 3.00013C4.19637 1.71031 5.8641 1 7.63798 1C9.41191 1 11.0796 1.71031 12.334 3.00013L13 3.68499L13.666 3.00013C14.9204 1.71031 16.5881 1 18.362 1C20.1359 1 21.8036 1.71031 23.058 3.00008C25.6473 5.6626 25.6473 9.99485 23.0581 12.6574L13.0004 23ZM7.63803 2.44637C6.23986 2.44637 4.92538 3.00625 3.93667 4.02286C1.89581 6.12144 1.89581 9.53611 3.93657 11.6347L13.0001 20.9548L22.0636 11.6347C24.1044 9.53607 24.1044 6.12144 22.0635 4.02286C21.0748 3.00625 19.7603 2.44637 18.3622 2.44637C16.964 2.44637 15.6495 3.00621 14.6608 4.02286L13.0001 5.73044L11.3395 4.02286C10.3507 3.00625 9.03621 2.44637 7.63803 2.44637Z" fill="black" stroke="black" stroke-width="0.3"/>
</svg>
