<svg width="44" height="44" viewBox="0 0 44 44" fill="none" xmlns="http://www.w3.org/2000/svg">
<g clip-path="url(#clip0_3084_47042)">
<path d="M25.778 40.8443C25.8135 40.8262 27.6535 39.7583 27.6535 39.7583L26.3775 37.792C26.0411 36.6097 25.2966 35.492 24.4315 34.9915C23.2505 34.3084 22.2935 35.0332 22.2935 36.6107C22.2935 38.1882 23.2505 40.0206 24.4315 40.7034C24.9417 40.9987 25.4104 41.0304 25.778 40.8443Z" fill="#23292E"/>
<path d="M9.71304 29.3601L8.43741 27.3935C8.10071 26.2112 7.35614 25.0935 6.49106 24.593C5.31009 23.9099 4.35303 24.6351 4.35303 26.2126C4.35303 27.7897 5.31009 29.6221 6.49106 30.3053C7.05066 30.6288 7.55991 30.6359 7.94092 30.386L9.71304 29.3601Z" fill="#23292E"/>
<path d="M43.907 33.4845C43.816 28.7224 42.5532 23.4818 41.1553 19.6571C40.8153 18.5754 40.111 17.7466 39.1308 17.1799L11.812 1.37715C11.475 1.18677 11.0916 1.22142 10.8016 1.40641H10.8013L1.08194 7.02817C0.812714 7.17549 0.610291 7.44591 0.575043 7.79101L-0.0859375 14.291V21.2373C-0.0859375 21.6288 0.0560609 22.0069 0.313873 22.3008L3.19144 25.5863L31.5622 42.0234C32.3202 42.4623 33.1548 42.7176 34.0041 42.792V42.793C34.0175 42.794 34.0309 42.7946 34.044 42.7957C34.0746 42.7983 34.1051 42.8024 34.1357 42.8044V42.8024C35.0575 42.8626 35.9927 42.7085 36.8638 42.3308C38.7971 41.492 40.6216 40.4271 42.3041 39.1634C42.9983 38.5543 43.5243 37.7585 43.766 36.8809C43.766 36.8809 43.8926 36.3313 43.9087 35.9859L43.9141 35.9899V34.2026C43.9141 34.2026 43.907 33.4848 43.907 33.4845Z" fill="#72E8F1"/>
<path d="M43.092 37.3784C43.3791 37.2139 43.6167 36.9933 43.7993 36.7377C43.8588 36.4911 43.8974 36.2388 43.9088 35.9825L43.9142 35.9866V34.1992C43.9138 34.2315 43.092 35.4185 43.092 37.3784Z" fill="white"/>
<path d="M36.1495 39.7344H34.1458C34.5667 41.0068 35.9951 41.6334 37.2137 41.0801L37.4057 40.993C37.4057 40.2978 36.8434 39.7344 36.1495 39.7344Z" fill="white"/>
<path d="M32.4055 28.5816C32.7264 29.6028 33.002 30.6361 33.234 31.6788L43.0117 26.1236C42.5955 24.0278 41.9999 21.7773 41.1553 19.6562C41.1543 19.6569 41.1533 19.6573 41.1523 19.6579L31.3726 25.31C31.3729 25.3113 31.3736 25.3127 31.3742 25.3143C31.3836 25.3426 32.4055 28.5816 32.4055 28.5816Z" fill="#243B58"/>
<path d="M43.3185 27.832L33.582 33.44C33.9137 35.3559 34.098 37.2966 34.1295 39.2451C34.1359 39.4089 34.1413 39.5727 34.1457 39.7368H36.1494C36.8433 39.7368 37.4056 40.3002 37.4056 40.9954C39.5403 40.1717 41.4393 38.9649 43.0919 37.3814C43.0919 35.4214 43.9137 34.2345 43.914 34.2022C43.9177 33.2009 43.7935 30.7714 43.3185 27.832Z" fill="#243B58"/>
<path d="M34.1357 42.8012V39.8558C34.1357 36.0308 33.5522 32.2277 32.4055 28.5793L31.4048 25.3964C31.3961 25.3675 31.3836 25.3402 31.3739 25.3116C31.1987 24.7906 30.9325 24.3097 30.5911 23.8902C30.2473 23.4684 29.8233 23.1052 29.3524 22.8331L2.04303 7.03504C2.00443 7.01284 1.96548 6.99367 1.92587 6.97718C1.3317 6.72929 0.642853 7.12215 0.575043 7.78779L-0.0859375 14.2878V21.2341C-0.0859375 21.6256 0.0560609 22.0036 0.313873 22.2976L3.19144 25.5831L31.5622 42.0202C32.3595 42.482 33.241 42.743 34.1357 42.8012Z" fill="#2EB3BD"/>
<path d="M26.6658 27.8413L26.6645 32.5923L-0.0859375 17.1094V17.25L6.15091 20.859L6.14822 27.3358L6.28854 27.4165V23.7832L11.0034 26.5117L11.002 30.1426L11.1423 30.2233V23.7476L15.8934 26.4969L15.8907 32.972L16.031 33.0527V26.5766L20.7996 29.3357L20.7965 35.801L20.9369 35.8818V29.4154L26.6645 32.7298L26.6628 39.1881L26.8031 39.2688V27.922L26.6658 27.8413ZM11.0037 26.3725L6.28854 23.6433V20.9387L11.0047 23.6679L11.0037 26.3725Z" fill="#304E75"/>
<path d="M26.5692 39.0842C26.5692 40.6617 25.6121 41.3865 24.4315 40.7037C23.2509 40.0206 22.2935 38.1881 22.2935 36.6107C22.2935 35.0335 23.2509 34.3083 24.4315 34.9915C25.6121 35.6743 26.5692 37.5067 26.5692 39.0842Z" fill="#2E373D"/>
<path d="M25.4288 38.4551C25.4288 39.2307 24.9581 39.5872 24.3777 39.2512C23.7973 38.9155 23.3267 38.0145 23.3267 37.2388C23.3267 36.4636 23.7973 36.107 24.3777 36.4427C24.9581 36.7787 25.4288 37.6795 25.4288 38.4551Z" fill="#CECECE"/>
<path d="M24.9477 38.1796C24.9477 38.6001 24.6926 38.7935 24.3777 38.6112C24.0628 38.4292 23.8074 37.9405 23.8074 37.52C23.8074 37.0993 24.0628 36.9059 24.3777 37.0882C24.6926 37.2701 24.9477 37.7588 24.9477 38.1796Z" fill="#627681"/>
<path d="M24.3579 19.0025L32.5062 14.2939C31.9607 13.3643 31.1842 12.592 30.252 12.0525L12.9457 2.03801C12.755 1.92769 12.5398 1.94922 12.379 2.05517L4.28879 6.73044C4.1149 6.81654 3.98633 6.99346 3.98633 7.21579L24.3579 19.0025Z" fill="#A4EFF4"/>
<path d="M24.3579 19.0013L3.98633 7.21462C3.98633 6.79754 4.43716 6.53654 4.7977 6.74541L22.104 16.7599C23.0363 17.2994 23.8127 18.0717 24.3579 19.0013Z" fill="#2EB3BD"/>
<path d="M34.0961 31.1862L42.2628 26.5465C42.0181 25.407 41.7217 24.2779 41.3716 23.1635L40.9063 21.6836L32.7563 26.3996L33.2203 27.8758C33.563 28.9666 33.8547 30.0715 34.0961 31.1862Z" fill="#304E75"/>
<path d="M34.4338 32.9465C34.7292 34.714 34.8988 36.502 34.9397 38.2971L34.9471 38.3324L43.092 33.6242C43.0528 31.821 42.8839 30.0253 42.5878 28.25L34.4338 32.9465Z" fill="#304E75"/>
<path d="M26.8032 22.2933L2.0831 8.00111C1.82529 7.8521 1.49966 8.01692 1.46643 8.31324L1.03809 12.1295L1.54028 13.3198L26.8032 27.9204V22.2933Z" fill="#243B58"/>
<path d="M28.0701 30.5703L28.2349 31.3389C28.8683 34.2883 30.7207 36.8301 33.3317 38.3329V36.887C33.3317 35.7434 33.2508 34.6045 33.0951 33.4771L28.0701 30.5703Z" fill="#243B58"/>
<path d="M32.7113 31.3732C32.3766 29.901 31.909 28.4587 31.3101 27.0649L30.6894 25.6209C30.2883 24.6882 29.5974 23.9099 28.7196 23.4023L27.6182 22.7656V28.3924L32.7113 31.3732Z" fill="#243B58"/>
<path d="M38.3771 28.7556L41.9314 26.7362C41.6196 25.0898 41.1425 23.4749 40.5037 21.918L36.8843 24.0124L37.271 25.8143C37.4946 26.8549 37.8702 27.8445 38.3771 28.7556Z" fill="#59718B"/>
<path d="M39.2993 30.1462C40.1332 31.2114 41.1705 32.1199 42.3679 32.8091V31.3628C42.3679 30.3961 42.3102 29.4325 42.1984 28.4766L39.2993 30.1462Z" fill="#59718B"/>
<path d="M20.7966 24.4542L21.1162 24.6388V19.005L20.7966 18.8203V24.4542Z" fill="#304E75"/>
<path d="M15.8906 21.6193L16.2099 21.8039V16.169L15.8906 15.9844V21.6193Z" fill="#304E75"/>
<path d="M11.002 18.7921L11.3212 18.9765V13.3409L11.002 13.1562V18.7921Z" fill="#304E75"/>
<path d="M6.14819 15.9888L6.46744 16.1734V10.5366L6.14819 10.3516V15.9888Z" fill="#304E75"/>
<path d="M8.62875 28.6857C8.62875 30.2632 7.67169 30.9881 6.49106 30.3053C5.31042 29.6221 4.35303 27.7897 4.35303 26.2126C4.35303 24.6351 5.31042 23.9099 6.49106 24.593C7.67169 25.2762 8.62875 27.1083 8.62875 28.6857Z" fill="#2E373D"/>
<path d="M7.49371 28.0838C7.49371 28.8595 7.02307 29.216 6.44266 28.88C5.86191 28.5443 5.3916 27.6436 5.3916 26.8679C5.3916 26.0923 5.86191 25.7358 6.44266 26.0718C7.02307 26.4075 7.49371 27.3082 7.49371 28.0838Z" fill="#CECECE"/>
<path d="M7.01266 27.8045C7.01266 28.2249 6.75754 28.4183 6.44266 28.2363C6.12778 28.054 5.87231 27.5653 5.87231 27.1449C5.87231 26.7241 6.12778 26.5311 6.44266 26.713C6.75754 26.895 7.01266 27.3837 7.01266 27.8045Z" fill="#627681"/>
<path d="M0.894043 19.5664V21.6881L4.63736 23.8734V21.7523L0.894043 19.5664Z" fill="#304E75"/>
</g>
<defs>
<clipPath id="clip0_3084_47042">
<rect width="44" height="44" fill="white"/>
</clipPath>
</defs>
</svg>
