<svg width="19" height="16" viewBox="0 0 19 16" fill="none" xmlns="http://www.w3.org/2000/svg">
<path d="M11.5772 15.9998C11.4626 16 11.3482 15.9907 11.2353 15.972C7.75661 15.33 4.67039 13.4342 2.61701 10.6779C1.57382 9.38102 0.817363 7.89543 0.393494 6.31118C-0.0303762 4.72694 -0.112833 3.07703 0.151121 1.46146C0.257491 0.988709 0.553543 0.574501 0.975885 0.307531C1.39823 0.0405605 1.91328 -0.0579491 2.41077 0.0330952L4.78811 0.425763C4.93753 0.448095 5.07578 0.5148 5.18323 0.616404C5.29068 0.718008 5.36185 0.849344 5.38665 0.99176L5.93811 4.4391C5.95417 4.54128 5.94466 4.64563 5.91038 4.74363C5.87609 4.84163 5.818 4.93049 5.74084 5.00296L4.51462 6.16705C5.1817 7.9271 6.36489 9.46693 7.92316 10.603L9.5484 9.96105C9.65131 9.91949 9.76259 9.90024 9.87423 9.90468C9.98587 9.90912 10.0951 9.93714 10.194 9.98673L13.5398 11.658C13.6736 11.7225 13.782 11.8264 13.849 11.9544C13.9161 12.0824 13.9381 12.2275 13.9119 12.3684L13.4893 14.535C13.3989 14.9534 13.1585 15.3286 12.8094 15.5959C12.4604 15.8633 12.0246 16.0061 11.5772 15.9998Z" fill="white"/>
<path d="M11.7113 2.27787C11.8207 2.28331 11.926 2.31923 12.0143 2.38119C12.1025 2.44315 12.1698 2.52844 12.2078 2.62649C12.2458 2.72455 12.2528 2.83108 12.228 2.93291C12.2032 3.03474 12.1476 3.1274 12.0682 3.19942C11.9888 3.27145 11.889 3.31968 11.7812 3.33816C11.6733 3.35664 11.5622 3.34455 11.4615 3.30339C11.3607 3.26222 11.2749 3.1938 11.2145 3.10657C11.1541 3.01934 11.1218 2.91713 11.1217 2.81259C11.1264 2.66735 11.1909 2.52974 11.3013 2.42963C11.4117 2.32952 11.559 2.27499 11.7113 2.27787ZM14.3789 2.27787C14.4883 2.28331 14.5937 2.31923 14.6819 2.38119C14.7702 2.44315 14.8374 2.52844 14.8754 2.62649C14.9134 2.72455 14.9204 2.83108 14.8956 2.93291C14.8708 3.03474 14.8153 3.1274 14.7359 3.19942C14.6565 3.27145 14.5567 3.31968 14.4488 3.33816C14.341 3.35664 14.2298 3.34455 14.1291 3.30339C14.0284 3.26222 13.9425 3.1938 13.8821 3.10657C13.8217 3.01934 13.7895 2.91713 13.7893 2.81259C13.794 2.66735 13.8586 2.52974 13.9689 2.42963C14.0793 2.32952 14.2266 2.27499 14.3789 2.27787ZM11.5207 7.10528C11.5984 7.13495 11.6834 7.14277 11.7657 7.1278C11.8479 7.11282 11.9239 7.07569 11.9847 7.02079L13.5607 5.57599H15.0884C15.8658 5.59411 16.6191 5.3175 17.1832 4.80676C17.7473 4.29601 18.0762 3.59277 18.0979 2.85109C18.0771 2.10874 17.7486 1.40458 17.1844 0.892975C16.6203 0.381372 15.8665 0.104083 15.0884 0.121902H11.6799C10.905 0.106997 10.1556 0.386179 9.59638 0.898115C9.03713 1.41005 8.71374 2.11287 8.69727 2.85216C8.71087 3.52042 8.97709 4.1615 9.4469 4.6573C9.9167 5.15311 10.5585 5.47026 11.2539 5.55033V6.74595C11.2548 6.82403 11.2803 6.90005 11.3271 6.96413C11.3739 7.02821 11.4398 7.07739 11.5162 7.10528H11.5207Z" fill="white"/>
<path d="M11.2348 15.972C7.75584 15.3305 4.6692 13.4351 2.61535 10.679C1.5733 9.38146 0.818045 7.89545 0.395338 6.31105C-0.0273697 4.72664 -0.108729 3.07682 0.156189 1.46151C0.26234 0.989671 0.557452 0.576105 0.97856 0.309053C1.39967 0.0420003 1.91343 -0.0573941 2.41024 0.0320756L4.78758 0.422603C4.93693 0.44509 5.07509 0.511845 5.18251 0.613421C5.28993 0.714998 5.36116 0.84625 5.38612 0.9886L5.93758 4.43594C5.95354 4.53812 5.94399 4.64245 5.90971 4.74043C5.87543 4.83841 5.81739 4.92728 5.74031 4.9998L4.50736 6.16603C5.17618 7.92693 6.36131 9.46713 7.9215 10.6031L9.54674 9.9611C9.64968 9.91969 9.76095 9.90051 9.87256 9.90495C9.98418 9.90939 10.0934 9.93734 10.1924 9.98678L13.5381 11.6527C13.6718 11.7171 13.7802 11.8208 13.8474 11.9485C13.9146 12.0763 13.937 12.2212 13.9114 12.362L13.4843 14.5351C13.3943 14.9525 13.1549 15.3269 12.8072 15.5942C12.4595 15.8614 12.0252 16.0049 11.5789 15.9998C11.4635 16.0006 11.3483 15.9913 11.2348 15.972ZM11.5206 7.10865C11.444 7.08068 11.3779 7.03132 11.3311 6.967C11.2844 6.90267 11.259 6.82638 11.2583 6.74808V5.55189C10.5618 5.47297 9.9187 5.1562 9.44775 4.66004C8.97681 4.16388 8.70979 3.52184 8.69601 2.85243C8.71425 2.11382 9.03837 1.41221 9.59739 0.901236C10.1564 0.390267 10.9048 0.111588 11.6786 0.12623H15.0871C15.8648 0.108389 16.6182 0.385338 17.1824 0.896467C17.7466 1.4076 18.0758 2.11128 18.0978 2.8535C18.0755 3.59545 17.7462 4.29875 17.1819 4.80948C16.6177 5.32021 15.8645 5.59677 15.0871 5.57864H13.5583L11.979 7.02305C11.8967 7.09606 11.7887 7.13692 11.6764 7.13754C11.623 7.13726 11.5702 7.12746 11.5206 7.10865ZM13.7937 2.81713C13.7879 2.92945 13.8174 3.04087 13.8786 3.137C13.9397 3.23314 14.0296 3.30958 14.1367 3.35648C14.2438 3.40337 14.3631 3.41856 14.4794 3.40009C14.5956 3.38162 14.7033 3.33033 14.7887 3.25285C14.8741 3.17536 14.9332 3.07523 14.9584 2.96537C14.9837 2.85551 14.9738 2.74096 14.9302 2.6365C14.8865 2.53203 14.8111 2.44244 14.7136 2.37928C14.6161 2.31612 14.5011 2.28229 14.3832 2.28216C14.3073 2.27987 14.2317 2.29191 14.1607 2.31758C14.0897 2.34325 14.0246 2.38204 13.9694 2.43174C13.9141 2.48143 13.8696 2.54106 13.8385 2.60719C13.8074 2.67332 13.7902 2.74466 13.7881 2.81713H13.7937ZM11.126 2.81713C11.1202 2.92945 11.1498 3.04087 11.2109 3.137C11.2721 3.23314 11.362 3.30958 11.4691 3.35648C11.5761 3.40337 11.6955 3.41856 11.8117 3.40009C11.9279 3.38162 12.0357 3.33033 12.1211 3.25285C12.2065 3.17536 12.2656 3.07523 12.2908 2.96537C12.316 2.85551 12.3062 2.74096 12.2625 2.6365C12.2189 2.53203 12.1435 2.44244 12.046 2.37928C11.9485 2.31612 11.8334 2.28229 11.7156 2.28216C11.6397 2.27987 11.5641 2.29191 11.493 2.31758C11.422 2.34325 11.357 2.38204 11.3017 2.43174C11.2464 2.48143 11.202 2.54106 11.1708 2.60719C11.1397 2.67332 11.1226 2.74466 11.1204 2.81713H11.126Z" fill="white"/>
</svg>
