<svg width="18" height="18" viewBox="0 0 18 18" fill="none" xmlns="http://www.w3.org/2000/svg">
<path d="M8.36875 2.35944C1.30176 2.32937 -3.19718 13.0246 6.99542 16.0608C17.1882 19.097 20.0151 2.40916 8.36875 2.35944Z" fill="#E97737"/>
<path d="M8.00792 0.000910484C4.53187 0.114186 1.56044 1.96609 0.54577 5.39042C-0.370659 8.48274 0.331248 12.0987 2.21363 14.6985C4.24537 17.5043 7.55663 18.6509 10.8821 17.6356C14.9789 16.385 17.9383 12.765 17.6037 8.3823C17.2179 3.33141 12.9395 -0.0638471 8.00792 0.000910484C7.7501 0.00431878 7.74929 0.405294 8.00792 0.401886C12.2883 0.345749 16.1116 2.93445 17.0351 7.22909C17.9305 11.3926 15.6166 15.2743 11.7635 16.8898C8.68637 18.1799 5.34885 17.703 3.08936 15.1558C1.0941 12.9063 0.209553 9.61429 0.671677 6.6573C1.26753 2.84342 4.21149 0.525587 8.00792 0.401886C8.26515 0.393465 8.26635 -0.00771049 8.00792 0.000910484Z" fill="#29A4C1"/>
<path d="M6.41995 17.1955C3.28672 15.9854 0.785642 13.4243 0.674171 9.93786C0.586758 7.20521 1.86487 4.42906 3.96157 2.68121C9.88337 -2.2554 19.0194 5.48804 15.7869 12.2617C14.2374 15.5088 10.5187 17.4678 6.9751 16.6502C3.10188 15.7564 -0.124771 12.0289 0.543053 7.94682C1.08818 4.61491 3.82504 1.75536 7.09178 0.967839C10.7589 0.0836885 14.6438 2.17116 16.3691 5.44473C17.9923 8.52442 17.4841 12.5095 15.0924 15.0531C11.9697 18.3744 7.3472 17.6805 3.66003 15.7666C3.42306 15.6435 3.21676 15.9906 3.44972 16.1263C6.84318 18.1055 11.2351 18.8147 14.5307 16.2432C17.1725 14.182 18.3295 10.6029 17.5923 7.36059C16.7441 3.63071 13.3023 0.590119 9.47237 0.296204C5.71343 0.00770241 2.1267 2.49395 0.656127 5.88941C-0.987471 9.68424 0.585154 13.6254 3.94292 15.8504C7.35983 18.1143 11.8355 17.6747 14.6834 14.699C17.4462 11.8126 17.6896 7.52399 15.2392 4.3643C13.0611 1.55547 9.34226 -0.35959 5.83152 0.998915C-0.208577 3.336 -1.81929 12.2806 3.68209 16.0489C4.5077 16.6145 5.44437 16.9886 6.38887 17.3072C6.46065 17.3314 6.48811 17.222 6.41995 17.1955Z" fill="#29A4C1"/>
<path d="M13.6014 5.67201C9.7773 9.13623 9.54374 10.293 6.53863 14.4874C5.48426 12.5389 4.4299 10.5906 3.37573 8.64203L5.02815 7.94413L7.01017 10.848C7.01017 10.848 8.44807 7.53033 11.9408 4.3125L13.6014 5.67201Z" fill="white"/>
</svg>
