<svg width="175" height="20" viewBox="0 0 175 20" fill="none" xmlns="http://www.w3.org/2000/svg">
<path d="M174.999 9.9998C174.999 9.9998 173.875 10.1218 171.853 10.1218C169.83 10.2422 167.021 10.3626 163.652 10.4845C160.28 10.6049 156.236 10.7269 151.966 10.7269C149.832 10.7269 147.584 10.7269 145.45 10.8473C143.202 10.8473 140.956 10.8473 138.71 10.8473C136.462 10.8473 134.215 10.8473 131.967 10.8473C129.721 10.8473 127.474 10.8473 125.451 10.7269C121.182 10.6049 117.25 10.6049 113.766 10.4845C110.396 10.3626 107.475 10.2422 105.564 10.1218C103.43 10.1218 102.307 9.9998 102.307 9.9998C102.307 9.9998 103.43 9.87941 105.452 9.87941C107.475 9.75745 110.284 9.63705 113.655 9.51509C117.025 9.3947 121.069 9.27274 125.339 9.27274C127.474 9.27274 129.721 9.15234 131.855 9.15234C134.103 9.15234 136.349 9.15234 138.597 9.15234C140.844 9.15234 143.09 9.15234 145.338 9.15234C147.584 9.15234 149.832 9.15234 151.854 9.27274C156.123 9.3947 160.056 9.3947 163.539 9.51509C166.909 9.63705 169.83 9.75745 171.741 9.87941C173.875 9.9998 174.999 9.9998 174.999 9.9998Z" fill="#E97737"/>
<path d="M72.6923 9.94292C72.6923 9.94292 71.5691 10.0567 69.5461 10.0567C67.5245 10.169 64.7157 10.2813 61.3445 10.3951C57.9733 10.6212 53.9288 10.6212 49.6593 10.7335C47.5253 10.7335 45.2788 10.7335 43.1433 10.8473C40.8968 10.8473 38.6489 10.8473 36.4024 10.8473C34.1545 10.8473 31.908 10.8473 29.6615 10.8473C27.4135 10.8473 25.167 10.8473 23.1441 10.7335C18.8746 10.6212 14.9425 10.6212 11.4603 10.5074C8.0891 10.3951 5.1678 10.2813 3.25871 10.169C1.12325 10.0567 0 9.94292 0 9.94292C0 9.94292 1.12325 9.8306 3.14624 9.8306C5.1678 9.71683 7.97663 9.60452 11.3478 9.49074C14.7175 9.37843 18.7635 9.26466 23.0316 9.26466C25.167 9.26466 27.4135 9.15234 29.549 9.15234C31.7955 9.15234 34.0434 9.15234 36.2899 9.15234C38.5364 9.15234 40.7843 9.15234 43.0308 9.15234C45.2788 9.15234 47.5253 9.15234 49.5468 9.26466C53.8163 9.37843 57.7498 9.37843 61.232 9.49074C64.6032 9.60452 67.5245 9.71683 69.4336 9.8306C71.5691 9.94292 72.6923 9.94292 72.6923 9.94292Z" fill="#E97737"/>
<path d="M87.5003 0C86.153 7.49986 85.0604 8.61924 77.7407 10C85.0604 11.3808 86.153 12.5001 87.5003 20C88.8477 12.5001 89.9402 11.3808 97.26 10C89.9402 8.61924 88.8477 7.49986 87.5003 0Z" fill="#E97737"/>
</svg>
