<svg width="22" height="22" viewBox="0 0 22 22" fill="none" xmlns="http://www.w3.org/2000/svg">
<path d="M13.75 13.707V12.332" stroke="#1A2F46" stroke-miterlimit="10" stroke-linecap="round" stroke-linejoin="round"/>
<mask id="mask0_3020_42906" style="mask-type:luminance" maskUnits="userSpaceOnUse" x="0" y="0" width="22" height="22">
<path d="M21.5 21.5V0.499998H0.5V21.5H21.5Z" fill="white" stroke="white"/>
</mask>
<g mask="url(#mask0_3020_42906)">
<path d="M8.25 12.3527C8.25172 12.3273 8.25344 12.3019 8.25516 12.2766M8.25516 12.2766C8.31703 11.4022 8.55766 10.5939 9.22711 9.69418C9.76637 8.96972 10.0934 8.46695 10.3499 8.01152C10.8664 7.09238 10.7151 5.94468 9.96961 5.19922L8.14645 7.02234C5.60012 9.56824 5.64953 11.7953 5.69293 13.7594C5.70754 14.4233 5.71914 15.0661 5.62633 15.6827C5.53051 16.3216 4.99039 16.8008 4.34414 16.8008H0.429688V20.668H5.45187C6.61074 20.668 7.72191 20.2078 8.54133 19.3883C10.0594 17.8702 10.896 15.7935 10.8479 13.6468C10.8303 12.8609 10.82 12.3123 10.945 11.895C10.9824 11.7713 11 11.6462 11 11.5233C11 10.9691 10.6395 10.4569 10.0809 10.2897C9.39898 10.0852 8.68055 10.4723 8.47559 11.1542C8.3643 11.5255 8.2848 11.8954 8.25516 12.2766Z" stroke="#1A2F46" stroke-miterlimit="10" stroke-linecap="round" stroke-linejoin="round"/>
<path d="M8.25 13.707V12.332" stroke="#1A2F46" stroke-miterlimit="10" stroke-linecap="round" stroke-linejoin="round"/>
<path d="M11 1.33203V2.62109" stroke="#1A2F46" stroke-miterlimit="10" stroke-linecap="round" stroke-linejoin="round"/>
<path d="M6.48828 2.53949L7.13281 3.65625" stroke="#1A2F46" stroke-miterlimit="10" stroke-linecap="round" stroke-linejoin="round"/>
<path d="M3.1853 5.84375L4.30206 6.48828" stroke="#1A2F46" stroke-miterlimit="10" stroke-linecap="round" stroke-linejoin="round"/>
<path d="M15.5117 2.53949L14.8672 3.65625" stroke="#1A2F46" stroke-miterlimit="10" stroke-linecap="round" stroke-linejoin="round"/>
<path d="M18.8148 5.84375L17.698 6.48828" stroke="#1A2F46" stroke-miterlimit="10" stroke-linecap="round" stroke-linejoin="round"/>
<path d="M13.1328 18.9492C13.1328 18.9103 13.1014 18.8789 13.0625 18.8789C13.0334 18.8789 13.0087 18.8967 12.998 18.9219L12.9922 18.9492C12.9922 18.9881 13.0236 19.0195 13.0625 19.0195L13.0898 19.0137C13.115 19.003 13.1328 18.9783 13.1328 18.9492Z" fill="black" stroke="#1A2F46"/>
<path d="M13.75 12.3517C13.7487 12.3263 13.747 12.301 13.7448 12.2756C13.7152 11.8945 13.6357 11.5246 13.5244 11.1533C13.3195 10.4714 12.601 10.0842 11.9195 10.2888C11.3609 10.4559 11 10.9681 11 11.5224C11 11.6453 11.0176 11.7704 11.055 11.8941C11.18 12.3113 11.1697 12.86 11.1521 13.6459C11.1231 14.9396 11.4154 16.2078 11.9845 17.3437" stroke="#1A2F46" stroke-miterlimit="10" stroke-linecap="round" stroke-linejoin="round"/>
<path d="M14.5495 20.1841C15.1621 20.4992 15.8464 20.668 16.5482 20.668H21.5704V16.8008H17.656C17.0097 16.8008 16.4696 16.3216 16.3737 15.6827C16.281 15.0661 16.2925 14.4233 16.3071 13.7594C16.3505 11.7953 16.3999 9.56824 13.8537 7.02234L12.0305 5.19922C11.2849 5.94468 11.1337 7.09238 11.6502 8.01152C11.9067 8.46699 12.2337 8.96972 12.773 9.69418C13.4424 10.5939 13.6831 11.4022 13.7449 12.2766" stroke="#1A2F46" stroke-miterlimit="10" stroke-linecap="round" stroke-linejoin="round"/>
</g>
</svg>
