<svg width="44" height="44" viewBox="0 0 44 44" fill="none" xmlns="http://www.w3.org/2000/svg">
<path d="M33.2061 39.5345C33.4334 39.4277 33.531 39.1569 33.424 38.9296C33.3172 38.7025 33.0461 38.6051 32.8191 38.7117C29.9638 40.0544 27.1088 38.4413 27.0803 38.4249L15.8788 31.9669C15.6611 31.8418 15.3831 31.9164 15.2578 32.1338C15.1325 32.3512 15.2071 32.6293 15.4247 32.7547L26.626 39.2126C28.4461 40.2623 31.0751 40.5369 33.2061 39.5345Z" fill="#C4C2C0"/>
<path d="M18.2783 34.3259C18.5276 34.3259 18.7308 34.1247 18.7328 33.8748C18.7528 31.4057 19.6922 30.4413 19.7016 30.4318C19.8781 30.256 19.8822 29.9691 19.7084 29.7907C19.5346 29.6123 19.2515 29.6051 19.0711 29.7767C19.0211 29.8243 17.8469 30.9749 17.8235 33.8676C17.8215 34.1186 18.0234 34.3238 18.2745 34.3259C18.2758 34.3259 18.277 34.3259 18.2783 34.3259Z" fill="#C4C2C0"/>
<path d="M26.1271 38.783C26.3765 38.783 26.5797 38.5818 26.5817 38.332C26.6017 35.8627 27.5411 34.8983 27.5505 34.8889C27.727 34.7131 27.7311 34.4261 27.5573 34.2477C27.3835 34.0693 27.1003 34.0622 26.9199 34.2337C26.8699 34.2813 25.6958 35.432 25.6724 38.3247C25.6703 38.5757 25.8723 38.7809 26.1234 38.783C26.1246 38.783 26.1259 38.783 26.1271 38.783Z" fill="#C4C2C0"/>
<path d="M41.2873 33.5564C42.556 33.5564 43.6594 33.1289 43.7115 33.1084C43.9452 33.0164 44.0602 32.7524 43.9682 32.5188C43.8764 32.2852 43.6125 32.1705 43.3792 32.2619C43.3661 32.267 42.114 32.7479 40.8703 32.6275C40.6213 32.6038 40.3981 32.786 40.3738 33.036C40.3494 33.2859 40.5323 33.5082 40.7822 33.5325C40.952 33.5491 41.1211 33.5564 41.2873 33.5564Z" fill="#C4C2C0"/>
<path d="M16.6931 23.7145C16.704 24.9457 16.744 25.8732 16.744 25.8732C16.744 25.8732 16.8076 28.5483 19.692 30.3069C21.7137 31.5387 25.5252 33.7056 27.6273 34.8933C29.8481 36.148 32.3989 36.7374 34.9367 36.4808C36.3359 36.3393 37.8646 35.9386 39.377 35.0826C42.927 33.0748 42.3487 29.8323 41.6976 28.09C41.423 27.3572 41.1357 26.8898 41.1357 26.8898C41.1357 26.8898 39.4279 22.5797 36.7745 19.9427C34.1211 17.3057 28.0505 14.0213 24.2695 14.6178L20.4777 16.3655L19.6411 17.544L19.6393 17.5731C19.6393 17.5731 16.9259 17.9441 16.7658 20.3337C16.6931 21.4267 16.6822 22.6779 16.6931 23.7145Z" fill="#DD4A4A"/>
<path d="M16.7658 20.3337C16.9259 17.944 19.6393 17.5731 19.6393 17.5731L19.6411 17.544L20.4777 16.3655L24.2695 14.6178C26.9123 14.2009 30.6725 15.6804 33.6037 17.5092V36.5372C31.5154 36.509 29.4591 35.9282 27.6273 34.8933C25.5252 33.7056 21.7136 31.5387 19.692 30.3069C16.8076 28.5483 16.744 25.8732 16.744 25.8732C16.744 25.8732 16.704 24.9457 16.6931 23.7145C16.6822 22.6779 16.6931 21.4267 16.7658 20.3337Z" fill="#CC4848"/>
<path d="M2.61719 11.0424V12.841L16.6896 24.6056L16.9224 24.131C16.8097 23.9455 16.7351 23.8036 16.6933 23.7163C16.6842 22.8216 16.6915 21.7668 16.7406 20.792C16.7478 20.6374 16.7551 20.4847 16.766 20.3355C16.8424 19.1862 17.5098 18.5024 18.1828 18.1059L3.71566 10.2422L2.61719 11.0424Z" fill="#CC4848"/>
<path d="M16.7658 20.3322C16.9259 17.9426 19.6393 17.5716 19.6393 17.5716L19.6411 17.5425L20.4777 16.364L20.7759 16.2266V30.9549C20.3789 30.72 20.0128 30.5009 19.692 30.3054C16.8076 28.5468 16.744 25.8717 16.744 25.8717C16.744 25.8717 16.704 24.9442 16.6931 23.713C16.6822 22.6764 16.6931 21.4252 16.7658 20.3322Z" fill="#C44141"/>
<path d="M16.6931 23.7145C16.8986 24.1382 17.8461 25.8568 20.3722 27.2844C23.2802 28.9266 28.5797 32.9621 32.699 32.993C36.7473 33.0239 40.9429 31.329 41.6976 28.09C41.423 27.3572 41.1357 26.8898 41.1357 26.8898C41.1357 26.8898 39.4279 22.5797 36.7745 19.9427C34.1211 17.3057 28.0505 14.0213 24.2695 14.6178L20.4777 16.3655L19.6411 17.544L19.6393 17.5731C19.6393 17.5731 16.9259 17.9441 16.7658 20.3337C16.6931 21.4267 16.6822 22.6779 16.6931 23.7145Z" fill="#F25A5A"/>
<path d="M28.7271 25.9922L29.7637 31.7753C29.7637 31.7753 30.9422 32.019 32.5517 32.03C33.6756 32.039 35.0087 31.9354 36.2981 31.5517C36.8109 31.4025 37.3183 31.2079 37.8003 30.9588C38.8987 30.3932 39.8808 29.5494 40.5555 28.3091C40.7883 27.8835 40.9829 27.4125 41.1357 26.8888C40.6574 25.6921 40.0008 24.4737 39.2897 23.2461C39.2897 23.2461 39.0715 23.5789 38.5968 24.0263C37.9931 24.5973 36.9746 25.3557 35.4651 25.854C34.985 26.0122 34.454 26.1449 33.8702 26.2377C32.7444 26.4141 31.4241 26.4396 29.8892 26.2068C29.5145 26.1522 29.1272 26.0795 28.7271 25.9922Z" fill="#434240"/>
<path d="M19.4563 21.0039V25.858L26.233 29.871L26.5694 24.9929L19.4563 21.0039Z" fill="#434240"/>
<path d="M19.6394 17.5763C19.6394 17.5763 24.1442 18.8275 28.8054 21.9737L30.8513 23.3231C30.8513 23.3231 32.7136 24.5452 34.5305 23.2504C35.9417 22.2465 35.1288 20.6952 34.696 20.0514C34.5705 19.8659 34.4759 19.755 34.4759 19.755C34.4759 19.755 30.4185 15.2903 24.2697 14.6211L20.5924 16.316L20.4778 16.3688L19.6412 17.5472L19.6394 17.5763Z" fill="#CC4848"/>
<path d="M2.61719 11.0424L16.7406 20.792C16.7478 20.6374 16.7551 20.4847 16.766 20.3355C16.8424 19.1862 17.5098 18.5024 18.1828 18.1059L3.71566 10.2422L2.61719 11.0424Z" fill="#DD4A4A"/>
<path d="M42.3096 10.707L39.0134 13.5172L31.5152 14.8246L30.5977 14.0431L28.1851 14.6161V13.7033L42.3096 10.707Z" fill="#D6D4D2"/>
<path d="M8.53349 14.1531L9.68708 13.4828L7.20731 6.15625L6.05371 6.82663L8.53349 14.1531Z" fill="#CC4848"/>
<path d="M6.05386 6.82793L7.20745 6.15755L4.78299 4.75781L3.62939 5.42819L6.05386 6.82793Z" fill="#F25A5A"/>
<path d="M3.62923 5.42578L3.61255 11.311L8.53347 14.152L6.0537 6.82551L3.62923 5.42578Z" fill="#C44141"/>
<path d="M26.159 14.2142L10.073 12.397L14.1032 10.7461L23.4884 12.0777L23.9739 12.9274L26.6688 13.6072L26.159 14.2142Z" fill="#D6D4D2"/>
<path d="M25.9465 16.5933L25.9482 17.184C25.9488 17.3921 26.0856 17.5999 26.3588 17.7586C26.9081 18.0778 27.8042 18.0787 28.3578 17.7591C28.6361 17.5984 28.7749 17.3873 28.7743 17.1766L28.7726 16.5859C28.7732 16.7967 28.6345 17.0078 28.3562 17.1684C27.8025 17.4881 26.9064 17.4872 26.3571 17.168C26.0839 17.0092 25.9471 16.8014 25.9465 16.5933Z" fill="#2D2C2B"/>
<path d="M26.3637 16.0092C25.81 16.3289 25.8071 16.8471 26.3572 17.1667C26.9064 17.4859 27.8025 17.4868 28.3562 17.1671C28.9098 16.8475 28.9112 16.3284 28.3619 16.0093C27.8119 15.6896 26.9173 15.6896 26.3637 16.0092Z" fill="#434240"/>
<path d="M26.4111 14.3487L26.4123 16.5177C26.4127 16.6574 26.5045 16.7969 26.6879 16.9035C27.0566 17.1178 27.6582 17.1184 28.0299 16.9038C28.2167 16.796 28.3098 16.6543 28.3094 16.5128L28.3083 14.3438C28.3087 14.4852 28.2156 14.6269 28.0287 14.7348C27.6571 14.9493 27.0555 14.9487 26.6868 14.7345C26.5034 14.6279 26.4115 14.4884 26.4111 14.3487Z" fill="#B2B0AF"/>
<path d="M26.6912 13.9578C26.3195 14.1724 26.3175 14.5202 26.6868 14.7348C27.0555 14.9491 27.6571 14.9497 28.0287 14.7351C28.4004 14.5205 28.4013 14.1721 28.0326 13.9578C27.6634 13.7432 27.0628 13.7432 26.6912 13.9578Z" fill="#434240"/>
<path d="M27.2557 14.788V15.9676L25.9001 17.0746L25.9758 22.3673L28.4407 24.3431L27.9145 14.6211L27.2557 14.788Z" fill="#D6D4D2"/>
<path d="M25.9465 13.9488L25.9482 14.5394C25.9488 14.7475 26.0856 14.9553 26.3588 15.1141C26.9081 15.4333 27.8042 15.4342 28.3578 15.1146C28.6361 14.9539 28.7749 14.7428 28.7743 14.5321L28.7726 13.9414C28.7732 14.1522 28.6345 14.3632 28.3562 14.5239C27.8025 14.8435 26.9064 14.8426 26.3571 14.5234C26.0839 14.3647 25.9471 14.1569 25.9465 13.9488Z" fill="#2D2C2B"/>
<path d="M26.3637 13.3686C25.81 13.6883 25.8071 14.2064 26.3572 14.5261C26.9064 14.8452 27.8025 14.8461 28.3562 14.5265C28.9098 14.2069 28.9112 13.6878 28.3619 13.3686C27.8119 13.049 26.9173 13.049 26.3637 13.3686Z" fill="#434240"/>
<g opacity="0.15">
<path d="M35.4653 25.8511L37.8005 30.956C38.8989 30.3904 39.881 29.5465 40.5557 28.3062L38.597 24.0234C37.9933 24.5945 36.9748 25.3528 35.4653 25.8511Z" fill="#E9E8E6"/>
<path d="M29.8894 26.2109L32.5519 32.0341C33.6758 32.0432 35.0089 31.9395 36.2983 31.5558L33.8704 26.2419C32.7447 26.4183 31.4243 26.4437 29.8894 26.2109Z" fill="#E9E8E6"/>
</g>
<path d="M21.1213 21.6824C20.7987 21.7792 20.5084 21.9662 20.2633 22.2049C20.0374 22.4308 19.8568 22.7339 19.7278 23.05C19.7084 23.1726 19.56 23.1726 19.5278 23.05C19.3084 22.3985 18.7923 21.8888 18.1472 21.6824C18.0375 21.6308 18.0375 21.4889 18.1472 21.4631C18.4698 21.3598 18.773 21.1534 19.0052 20.9276C19.2439 20.6954 19.4245 20.4051 19.5278 20.0696C19.56 19.9664 19.7084 19.9664 19.7278 20.0696C19.8568 20.4051 20.0374 20.6954 20.2633 20.9276C20.5084 21.1534 20.7987 21.3598 21.1213 21.4631C21.2438 21.4889 21.2438 21.6308 21.1213 21.6824Z" fill="white"/>
<mask id="mask0_3084_46671" style="mask-type:luminance" maskUnits="userSpaceOnUse" x="3" y="8" width="2" height="2">
<path d="M4.69329 9.22905C4.55968 9.15191 4.43451 9.05084 4.31779 8.92578L3.85693 9.1936C3.97364 9.31866 4.09882 9.41973 4.23243 9.49687C4.38603 9.40764 4.53972 9.3183 4.69329 9.22905Z" fill="white"/>
</mask>
<g mask="url(#mask0_3084_46671)">
<path d="M4.37296 9.57105L4.83383 9.30323C4.78827 9.28439 4.74125 9.26098 4.69317 9.23322C4.57951 9.1676 4.47196 9.08467 4.37053 8.98438L3.90967 9.25219C4.0111 9.35248 4.11865 9.43542 4.23231 9.50104C4.28039 9.5288 4.32741 9.55221 4.37296 9.57105Z" fill="#ABAAA8"/>
<path d="M3.90977 9.24802L4.37065 8.9802C4.35284 8.9626 4.33522 8.94446 4.3178 8.92578L3.85693 9.1936C3.87436 9.21227 3.89196 9.23042 3.90977 9.24802Z" fill="#A7A5A4"/>
</g>
<mask id="mask1_3084_46671" style="mask-type:luminance" maskUnits="userSpaceOnUse" x="3" y="7" width="1" height="2">
<path d="M3.85675 8.1307C3.80554 7.96978 3.77707 7.8072 3.77751 7.65234L3.31666 7.92017C3.31621 8.07502 3.34467 8.2376 3.39589 8.39852C3.53416 8.31818 3.71851 8.21106 3.85675 8.1307Z" fill="white"/>
</mask>
<g mask="url(#mask1_3084_46671)">
<path d="M3.39564 8.39707L3.8565 8.12925C3.84942 8.10702 3.84278 8.08477 3.83659 8.0625L3.37573 8.33032C3.38192 8.35258 3.38856 8.37484 3.39564 8.39707Z" fill="#7C7B7A"/>
<path d="M3.37613 8.33258L3.83699 8.06476C3.82737 8.03014 3.81883 7.9955 3.81145 7.96094L3.35059 8.22875C3.35797 8.26332 3.36651 8.29796 3.37613 8.33258Z" fill="#787776"/>
<path d="M3.35044 8.22801L3.8113 7.96019C3.80214 7.9173 3.79474 7.87452 3.78923 7.83203L3.32837 8.09985C3.33388 8.14233 3.34128 8.18511 3.35044 8.22801Z" fill="#747271"/>
<path d="M3.32837 8.09979L3.78923 7.83197C3.78137 7.77132 3.77735 7.71127 3.77752 7.65234L3.31666 7.92016C3.31649 7.97909 3.32051 8.03914 3.32837 8.09979Z" fill="#6F6E6D"/>
</g>
<mask id="mask2_3084_46671" style="mask-type:luminance" maskUnits="userSpaceOnUse" x="4" y="9" width="2" height="1">
<path d="M5.06067 9.35233C4.95195 9.34724 4.82661 9.30368 4.69303 9.22656C4.53947 9.31581 4.38577 9.40515 4.23218 9.49439C4.36575 9.5715 4.49109 9.61506 4.5998 9.62014C4.73808 9.53982 4.92242 9.43268 5.06067 9.35233Z" fill="white"/>
</mask>
<g mask="url(#mask2_3084_46671)">
<path d="M4.59989 9.62484L5.06075 9.35702C5.04317 9.3562 5.02517 9.35437 5.00676 9.35156L4.5459 9.61938C4.56431 9.62219 4.58231 9.62402 4.59989 9.62484Z" fill="#9E9D9B"/>
<path d="M4.54579 9.61487L5.00666 9.34705C4.98377 9.34355 4.96026 9.33853 4.9362 9.33203L4.47534 9.59985C4.4994 9.60635 4.5229 9.61137 4.54579 9.61487Z" fill="#A3A1A0"/>
<path d="M4.47558 9.59997L4.93644 9.33215C4.90325 9.32318 4.86901 9.31139 4.83391 9.29688L4.37305 9.56469C4.40815 9.5792 4.44239 9.591 4.47558 9.59997Z" fill="#A7A5A4"/>
<path d="M4.37296 9.56323L4.83383 9.29542C4.78827 9.27658 4.74125 9.25317 4.69317 9.22541C4.57951 9.15979 4.47196 9.07685 4.37053 8.97656L3.90967 9.24438C4.0111 9.34467 4.11865 9.42761 4.23231 9.49323C4.28039 9.52099 4.32741 9.5444 4.37296 9.56323Z" fill="#ABAAA8"/>
</g>
<path d="M3.85661 9.19531L3.67017 12.9989L4.77235 13.6353L4.59973 9.62435C4.49102 9.61926 4.36568 9.5757 4.2321 9.49858C4.09849 9.42145 3.97332 9.32037 3.85661 9.19531Z" fill="#D6D4D2"/>
<path d="M4.77223 13.6342L5.23309 13.3664L5.06047 9.35547L4.59961 9.62329L4.77223 13.6342Z" fill="#757473"/>
<path d="M3.39752 7.5344L3.85838 7.26659L0.464279 5.10547L0.00341797 5.37329L3.39752 7.5344Z" fill="#E9E8E6"/>
<path d="M0.00359034 5.375L0 6.64144L3.39589 8.40037C3.34468 8.23945 3.31621 8.07687 3.31665 7.92201C3.31709 7.76784 3.34616 7.63827 3.39769 7.53612L0.00359034 5.375Z" fill="#D6D4D2"/>
<mask id="mask3_3084_46671" style="mask-type:luminance" maskUnits="userSpaceOnUse" x="3" y="7" width="1" height="1">
<path d="M3.77751 7.65152C3.77795 7.49734 3.80702 7.36778 3.85855 7.26562L3.3977 7.53345C3.34615 7.6356 3.31709 7.76516 3.31665 7.91933C3.45492 7.83899 3.63927 7.73187 3.77751 7.65152Z" fill="white"/>
</mask>
<g mask="url(#mask3_3084_46671)">
<path d="M3.31665 7.91933L3.77751 7.65152C3.77795 7.49734 3.80702 7.36778 3.85855 7.26562L3.39769 7.53344C3.34615 7.6356 3.31709 7.76516 3.31665 7.91933Z" fill="#6F6E6D"/>
</g>
<mask id="mask4_3084_46671" style="mask-type:luminance" maskUnits="userSpaceOnUse" x="4" y="9" width="2" height="1">
<path d="M4.88916 9.56496L5.35003 9.29715C5.42477 9.25371 5.48658 9.18795 5.53159 9.10156L5.07073 9.36938C5.02572 9.45577 4.96391 9.52152 4.88916 9.56496Z" fill="white"/>
</mask>
<g mask="url(#mask4_3084_46671)">
<path d="M4.88916 9.56496L5.35002 9.29715C5.42477 9.25371 5.48658 9.18795 5.53159 9.10156L5.07073 9.36938C5.02572 9.45577 4.96391 9.52152 4.88916 9.56496Z" fill="#21201F"/>
</g>
<mask id="mask5_3084_46671" style="mask-type:luminance" maskUnits="userSpaceOnUse" x="3" y="7" width="2" height="1">
<path d="M4.04484 7.06547L3.58398 7.3333C3.66339 7.28715 3.75745 7.26623 3.86191 7.27295C3.97671 7.28035 4.1039 7.32087 4.2381 7.39835L4.69896 7.13053C4.56476 7.05305 4.43757 7.01254 4.32277 7.00514C4.21831 6.99841 4.12425 7.01933 4.04484 7.06547Z" fill="white"/>
</mask>
<g mask="url(#mask5_3084_46671)">
<path d="M4.23811 7.39552L4.69897 7.1277C4.65432 7.10192 4.61045 7.08024 4.56755 7.0625L4.10669 7.33032C4.14959 7.34805 4.19346 7.36974 4.23811 7.39552Z" fill="#363533"/>
<path d="M4.10648 7.332L4.56734 7.06418C4.53078 7.04906 4.49491 7.03681 4.45988 7.02734L3.99902 7.29516C4.03405 7.30463 4.06991 7.31688 4.10648 7.332Z" fill="#343332"/>
<path d="M3.99914 7.29677L4.46 7.02895C4.43241 7.0215 4.40533 7.01577 4.37883 7.01172L3.91797 7.27954C3.94447 7.28358 3.97155 7.28931 3.99914 7.29677Z" fill="#333231"/>
<path d="M3.91826 7.27852L4.37912 7.0107C4.36011 7.00779 4.34139 7.00576 4.32298 7.00457C4.31888 7.00431 4.31479 7.00409 4.31071 7.00391L3.84985 7.27172C3.85393 7.2719 3.85802 7.27212 3.86212 7.27239C3.88052 7.27357 3.89925 7.27561 3.91826 7.27852Z" fill="#32312F"/>
<path d="M3.84953 7.27229L4.3104 7.00447C4.28981 7.00357 4.26964 7.00375 4.24992 7.005L3.78906 7.27282C3.80878 7.27157 3.82895 7.27138 3.84953 7.27229Z" fill="#30302E"/>
<path d="M3.78924 7.27172L4.2501 7.00391C4.23131 7.0051 4.21293 7.00726 4.19499 7.01037L3.73413 7.27819C3.75207 7.27508 3.77045 7.27292 3.78924 7.27172Z" fill="#21201F"/>
<path d="M3.73403 7.27954L4.19489 7.01172C4.17741 7.01475 4.16034 7.01869 4.14372 7.02352L3.68286 7.29133C3.69948 7.28651 3.71655 7.28257 3.73403 7.27954Z" fill="#2E2D2C"/>
<path d="M3.68266 7.28735L4.14352 7.01953C4.12703 7.02432 4.11098 7.02998 4.09538 7.03651L3.63452 7.30433C3.65011 7.2978 3.66617 7.29214 3.68266 7.28735Z" fill="#2C2C2A"/>
<path d="M3.63465 7.30297L4.09551 7.03516C4.07977 7.04174 4.0645 7.0492 4.04973 7.05753L3.58887 7.32534C3.60364 7.31702 3.61891 7.30956 3.63465 7.30297Z" fill="#2B2A29"/>
<path d="M3.58898 7.33032L4.04985 7.0625L4.04485 7.06536L3.58398 7.33318L3.58898 7.33032Z" fill="#2A2928"/>
</g>
<path d="M5.07085 9.36313L5.53172 9.09532C5.58432 8.99433 5.61418 8.86545 5.61462 8.71063C5.61505 8.55646 5.58628 8.3936 5.53481 8.23194C5.44169 7.93948 5.27365 7.65129 5.06659 7.42652C4.9537 7.30396 4.82932 7.20016 4.69914 7.125L4.23828 7.39282C4.36846 7.46798 4.49284 7.57178 4.60573 7.69434C4.81279 7.91911 4.98082 8.2073 5.07395 8.49976C5.12542 8.66141 5.15419 8.82427 5.15376 8.97845C5.15332 9.13327 5.12346 9.26215 5.07085 9.36313Z" fill="#21201F"/>
<mask id="mask6_3084_46671" style="mask-type:luminance" maskUnits="userSpaceOnUse" x="4" y="7" width="2" height="3">
<path d="M5.07085 9.36313L5.53172 9.09532C5.58432 8.99433 5.61418 8.86545 5.61462 8.71063C5.61505 8.55646 5.58628 8.3936 5.53481 8.23194C5.44169 7.93948 5.27365 7.65129 5.06659 7.42652C4.9537 7.30396 4.82932 7.20016 4.69914 7.125L4.23828 7.39282C4.36846 7.46798 4.49284 7.57178 4.60573 7.69434C4.81279 7.91911 4.98082 8.2073 5.07395 8.49976C5.12542 8.66141 5.15419 8.82427 5.15376 8.97845C5.15332 9.13327 5.12346 9.26215 5.07085 9.36313Z" fill="white"/>
</mask>
<g mask="url(#mask6_3084_46671)">
<path d="M5.0708 9.36517L5.53166 9.09735C5.58427 8.99637 5.61413 8.8675 5.61457 8.71267C5.61473 8.65456 5.61075 8.59521 5.60296 8.53516L5.1421 8.80297C5.14989 8.86303 5.15387 8.92237 5.15371 8.98049C5.15327 9.13531 5.12341 9.26419 5.0708 9.36517Z" fill="#232221"/>
<path d="M5.14197 8.80234L5.60284 8.53452C5.59733 8.49206 5.58992 8.44924 5.58073 8.40625L5.11987 8.67407C5.12906 8.71705 5.13647 8.75987 5.14197 8.80234Z" fill="#242423"/>
<path d="M5.11981 8.67349L5.58067 8.40568C5.57321 8.37079 5.56459 8.33579 5.55486 8.30078L5.09399 8.5686C5.10373 8.60361 5.11235 8.6386 5.11981 8.67349Z" fill="#262524"/>
<path d="M5.094 8.57219L5.55486 8.30437C5.54856 8.2817 5.54179 8.25902 5.53458 8.23637C5.53188 8.22789 5.52912 8.21941 5.52629 8.21094L5.06543 8.47875C5.06826 8.48723 5.07102 8.4957 5.07372 8.50418C5.08093 8.52684 5.0877 8.54952 5.094 8.57219Z" fill="#272625"/>
<path d="M5.06572 8.47928L5.52658 8.21147C5.51694 8.18257 5.50658 8.15372 5.49553 8.125L5.03467 8.39282C5.04572 8.42154 5.05608 8.45038 5.06572 8.47928Z" fill="#21201F"/>
<path d="M5.03443 8.38925L5.49529 8.12143C5.48468 8.09385 5.47344 8.06638 5.46159 8.03906L5.00073 8.30688C5.01258 8.3342 5.02382 8.36167 5.03443 8.38925Z" fill="#21201F"/>
<path d="M5.00115 8.30858L5.46201 8.04076C5.4504 8.01399 5.4382 7.98736 5.42546 7.96094L4.9646 8.22875C4.97734 8.25518 4.98953 8.28181 5.00115 8.30858Z" fill="#21201F"/>
<path d="M4.9643 8.22515L5.42516 7.95733C5.41246 7.93098 5.3992 7.90482 5.38542 7.87891L4.92456 8.14672C4.93834 8.17264 4.95159 8.19879 4.9643 8.22515Z" fill="#21201F"/>
<path d="M4.92445 8.1503L5.38531 7.88248C5.37138 7.85628 5.35692 7.83034 5.34196 7.80469L4.8811 8.0725C4.89606 8.09815 4.91052 8.1241 4.92445 8.1503Z" fill="#21201F"/>
<path d="M4.88135 8.07273L5.34221 7.80491C5.32678 7.77846 5.31082 7.75232 5.29436 7.72656L4.8335 7.99438C4.84996 8.02014 4.86592 8.04627 4.88135 8.07273Z" fill="#21201F"/>
<path d="M4.83338 7.99236L5.29424 7.72455C5.27692 7.69744 5.25904 7.67075 5.24065 7.64453L4.77979 7.91235C4.79818 7.93857 4.81605 7.96526 4.83338 7.99236Z" fill="#21201F"/>
<path d="M4.77967 7.91391L5.24053 7.6461C5.22057 7.61764 5.20001 7.58975 5.17888 7.5625L4.71802 7.83032C4.73914 7.85757 4.75971 7.88546 4.77967 7.91391Z" fill="#21201F"/>
<path d="M4.718 7.83088L5.17886 7.56306C5.15483 7.53206 5.13007 7.50189 5.10466 7.47266L4.6438 7.74047C4.66921 7.7697 4.69396 7.79988 4.718 7.83088Z" fill="#21201F"/>
<path d="M4.64398 7.74204L5.10484 7.47422C5.09225 7.45974 5.0795 7.44548 5.06659 7.43147C5.04627 7.40942 5.02559 7.38797 5.00456 7.36719L4.5437 7.635C4.56473 7.65579 4.58541 7.67723 4.60573 7.69929C4.61863 7.7133 4.63139 7.72755 4.64398 7.74204Z" fill="#21201F"/>
<path d="M4.5437 7.63006L5.00456 7.36224C4.90875 7.26753 4.8059 7.18663 4.69914 7.125L4.23828 7.39282C4.34504 7.45445 4.44789 7.53535 4.5437 7.63006Z" fill="#363533"/>
</g>
<path d="M4.23814 7.39616C4.10394 7.31868 3.97675 7.27816 3.86195 7.27076C3.65581 7.2575 3.49018 7.35185 3.39769 7.53535C3.34616 7.63751 3.31709 7.76707 3.31666 7.92124C3.31622 8.0761 3.34468 8.23868 3.3959 8.3996C3.53815 8.84692 3.85761 9.28103 4.23218 9.49729C4.60065 9.71002 4.92443 9.64724 5.07071 9.36647C5.12332 9.26549 5.15318 9.13661 5.15362 8.98179C5.15405 8.82762 5.12528 8.66476 5.07381 8.5031C4.98068 8.21064 4.81265 7.92245 4.60559 7.69768C4.4927 7.57512 4.36832 7.47132 4.23814 7.39616Z" fill="#434240"/>
<path d="M4.23663 7.91551C4.16885 7.87638 4.10461 7.85592 4.04663 7.85218C3.94253 7.84548 3.85888 7.89314 3.81217 7.98581C3.78614 8.0374 3.77146 8.10284 3.77124 8.1807C3.77102 8.25891 3.7854 8.34102 3.81126 8.42229C3.88311 8.6482 4.04444 8.86744 4.23362 8.97666C4.4197 9.08409 4.58323 9.05239 4.6571 8.91059C4.68367 8.85959 4.69875 8.7945 4.69897 8.71631C4.69919 8.63845 4.68466 8.5562 4.65867 8.47456C4.61164 8.32686 4.52677 8.18131 4.4222 8.06779C4.36519 8.0059 4.30237 7.95347 4.23663 7.91551Z" fill="#D6D4D2"/>
<path d="M8.47036 10.2632L5.0739 8.50391C5.12537 8.66556 5.15414 8.82842 5.15371 8.98259C5.15327 9.13742 5.12341 9.26629 5.0708 9.36728L8.46677 11.5296L8.47036 10.2632Z" fill="#D6D4D2"/>
<path d="M8.46655 11.5264L8.92741 11.2586L8.931 9.99219L8.47014 10.26L8.46655 11.5264Z" fill="#727170"/>
<path d="M4.60571 7.69687L5.06657 7.42905L5.26101 3.63672L4.80015 3.90454L4.60571 7.69687Z" fill="#C4C2C0"/>
<path d="M3.69751 3.26953L3.86162 7.27128C3.97643 7.27868 4.10362 7.3192 4.23782 7.39668C4.368 7.47184 4.49237 7.57564 4.60526 7.6982L4.7997 3.90587L3.69751 3.26953Z" fill="#D6D4D2"/>
<path d="M4.7997 3.90415L5.26056 3.63633L4.15837 3L3.69751 3.26782L4.7997 3.90415Z" fill="#E9E8E6"/>
<path d="M8.47043 10.2654L8.9313 9.99754L5.53484 8.23828L5.07397 8.5061L8.47043 10.2654Z" fill="#B8B6B4"/>
</svg>
