<svg width="56" height="56" viewBox="0 0 56 56" fill="none" xmlns="http://www.w3.org/2000/svg">
<path d="M27.0159 46.4335V50.2703C27.0159 52.771 24.9887 54.7982 22.4881 54.7982H15.6409H8.79367C6.29303 54.7982 4.26587 52.771 4.26587 50.2704V46.4336C4.26587 45.2254 5.24521 44.2461 6.45337 44.2461H24.8284C26.0365 44.246 27.0159 45.2254 27.0159 46.4335Z" stroke="#1A2F46" stroke-width="2" stroke-miterlimit="10" stroke-linejoin="round"/>
<path d="M19.1116 6.78125C19.1116 8.40656 19.9826 9.90708 21.394 10.7131C24.8703 12.6983 27.0159 16.3944 27.0159 20.3976V35.9321C27.0159 37.1403 26.0365 38.1196 24.8284 38.1196H15.6409H6.45337C5.24521 38.1196 4.26587 37.1403 4.26587 35.9321V20.3976C4.26587 16.3943 6.41148 12.6982 9.88774 10.7131C11.2991 9.90708 12.1702 8.40656 12.1702 6.78125" stroke="#1A2F46" stroke-width="2" stroke-miterlimit="10" stroke-linejoin="round"/>
<path d="M24.8284 44.2461H6.45337C5.24521 44.2461 4.26587 43.2667 4.26587 42.0586V40.3086C4.26587 39.1004 5.24521 38.1211 6.45337 38.1211H24.8284C26.0365 38.1211 27.0159 39.1004 27.0159 40.3086V42.0586C27.0159 43.2667 26.0365 44.2461 24.8284 44.2461Z" stroke="#1A2F46" stroke-width="2" stroke-miterlimit="10" stroke-linejoin="round"/>
<path d="M4.57007 18.8711H26.8174" stroke="#1A2F46" stroke-width="2" stroke-miterlimit="10" stroke-linejoin="round"/>
<path d="M49.988 26.3203H34.5864V39.8088H49.988V26.3203Z" stroke="#1A2F46" stroke-width="2" stroke-miterlimit="10" stroke-linejoin="round"/>
<path d="M34.5864 26.3185L34.0052 24.5137C32.9361 21.1936 33.9896 17.5569 36.6677 15.3223C38.1709 14.0683 39.0399 12.2115 39.0399 10.2539" stroke="#1A2F46" stroke-width="2" stroke-miterlimit="10" stroke-linejoin="round"/>
<path d="M45.5344 10.2539C45.5344 12.2116 46.4034 14.0683 47.9066 15.3223C50.5848 17.5569 51.6383 21.1936 50.5691 24.5137L49.9878 26.3185" stroke="#1A2F46" stroke-width="2" stroke-miterlimit="10" stroke-linejoin="round"/>
<path d="M50.6962 43.491C50.2283 42.3197 49.988 41.0699 49.988 39.8086H34.5865C34.5865 41.0699 34.346 42.3197 33.8783 43.491C33.1923 45.2085 32.8398 47.041 32.8398 48.8904V51.405C32.8398 53.2799 34.3597 54.7997 36.2346 54.7997C37.5559 54.7997 38.6999 54.0444 39.2609 52.9426C39.8219 54.0445 40.966 54.7997 42.2872 54.7997C43.6085 54.7997 44.7525 54.0444 45.3135 52.9426C45.8745 54.0445 47.0186 54.7997 48.3398 54.7997C50.2147 54.7999 51.7346 53.28 51.7346 51.4051V48.8905C51.7346 47.041 51.3822 45.2085 50.6962 43.491Z" stroke="#1A2F46" stroke-width="2" stroke-miterlimit="10" stroke-linejoin="round"/>
<path d="M18.0932 31.4702C16.7388 32.8246 14.543 32.8246 13.1886 31.4702C11.8343 30.1158 11.8343 27.92 13.1886 26.5656L15.6409 24.1133L18.0932 26.5656C19.4476 27.92 19.4476 30.1158 18.0932 31.4702Z" stroke="#29A4C1" stroke-width="2" stroke-miterlimit="10" stroke-linejoin="round"/>
<path d="M20.4534 1.20312H10.8284V6.78125H20.4534V1.20312Z" stroke="#29A4C1" stroke-width="2" stroke-miterlimit="10" stroke-linejoin="round"/>
<path d="M39.8306 33.0625H44.7442" stroke="#29A4C1" stroke-width="2" stroke-miterlimit="10" stroke-linecap="round" stroke-linejoin="round"/>
<path d="M46.8811 4.8125H37.6936V10.2812H46.8811V4.8125Z" stroke="#29A4C1" stroke-width="2" stroke-miterlimit="10" stroke-linejoin="round"/>
</svg>
