<svg width="56" height="56" viewBox="0 0 56 56" fill="none" xmlns="http://www.w3.org/2000/svg">
<path d="M55.0344 46.3458H0.965801C0.432601 46.3458 0.000244141 45.9134 0.000244141 45.3802V10.6218C0.000244141 10.0886 0.432601 9.65625 0.965801 9.65625H55.0345C55.5677 9.65625 56 10.0886 56 10.6218V45.3802C55.9999 45.9135 55.5676 46.3458 55.0344 46.3458Z" fill="#FFE15A"/>
<path d="M56.0002 12.5508H2.89673V43.4469H56.0002V12.5508Z" fill="#41479B"/>
<path d="M2.89673 12.5508L29.4482 27.9989L16.1726 12.5509L2.89673 12.5508Z" fill="#FF4B55"/>
<path d="M29.4482 27.9989V12.5508L42.7242 12.5509L29.4482 27.9989Z" fill="#FF4B55"/>
<path d="M55.9999 12.5508L29.4482 27.9989L55.9999 20.2748V12.5508Z" fill="#FF4B55"/>
<path d="M29.4482 28H55.9999V35.7241L29.4482 28Z" fill="#FF4B55"/>
<path d="M29.4483 27.9975L2.89697 20.2734V27.9976L29.4483 27.9975Z" fill="#FF4B55"/>
<path d="M2.89697 35.7242L29.4483 28L2.89697 43.4483V35.7242Z" fill="#FF4B55"/>
<path d="M29.8926 25.1762L33.3547 17.1914L30.7984 25.5105L29.8926 25.1762Z" fill="#FFE15A"/>
<path d="M34.4516 29.7667C34.5271 29.5531 34.593 29.3353 34.6408 29.1102L40.411 29.622L34.7348 28.4745C34.7487 28.3183 34.7587 28.1608 34.7587 28.0008C34.7587 27.8468 34.7485 27.6954 34.7356 27.5448L40.3655 26.3591L34.6463 26.9132C34.5962 26.6727 34.525 26.4406 34.4437 26.2132L39.5543 23.5414L34.1928 25.6255C34.0561 25.3533 33.8969 25.0953 33.7175 24.8523L37.9551 20.945L33.3079 24.361C32.8152 23.8386 32.2204 23.4143 31.5518 23.1255L33.2397 17.633L30.9517 22.9099C30.4746 22.769 29.9711 22.6905 29.4485 22.6905C28.9219 22.6905 28.4141 22.7698 27.9338 22.9126L25.6445 17.6328L27.334 23.1306C26.6677 23.4204 26.0749 23.8445 25.584 24.3663L20.929 20.9447L25.1744 24.8591C24.996 25.1013 24.8381 25.3583 24.7022 25.6294L19.3299 23.5411L24.4514 26.2187C24.3709 26.4448 24.3002 26.6752 24.2505 26.9141L18.5186 26.3588L24.1613 27.5473C24.1485 27.6969 24.1383 27.8475 24.1383 28.0006C24.1383 28.1597 24.1484 28.3163 24.162 28.4717L18.4731 29.6217L24.256 29.1087C24.3036 29.3323 24.3688 29.5486 24.4435 29.7608L19.3435 32.3669L24.6899 30.3458C25.5566 32.1009 27.3592 33.3111 29.4488 33.3111C31.5368 33.3111 33.3382 32.1029 34.2057 30.3502L39.5411 32.3671L34.4516 29.7667Z" fill="#FFE15A"/>
<path d="M55.9998 43.4501L30.0553 28.3551C29.68 28.1368 29.2166 28.1368 28.8414 28.3551L2.89673 43.4501H55.9998Z" fill="#F5F5F5"/>
<path d="M29.4536 35.7768C29.5646 35.7768 29.6545 35.6869 29.6545 35.5759C29.6545 35.465 29.5646 35.375 29.4536 35.375C29.3426 35.375 29.2527 35.465 29.2527 35.5759C29.2527 35.6869 29.3426 35.7768 29.4536 35.7768Z" fill="#FF4B55"/>
<path d="M29.1465 28.8438C29.7493 29.5889 28.774 29.9616 28.8945 30.6739C28.8945 30.6739 28.6973 30.3779 28.774 29.9616C28.8507 29.5452 28.5876 29.4136 28.5876 29.4136C28.5876 29.4136 28.7081 29.8848 28.4123 30.1478C28.1163 30.4108 28.2041 31.0135 28.2041 31.0135C28.2041 31.0135 27.8316 30.7615 27.9082 30.3779C27.9082 30.3779 27.4041 30.8163 27.8534 31.5505C27.8534 31.5505 27.5574 31.5286 27.4478 31.3424C27.4478 31.3424 27.1854 32.1149 28.2426 32.704C29.2999 33.2931 29.4533 31.8904 29.4533 31.8904L30.2094 32.8329C30.2094 32.8329 31.1153 32.8073 31.5464 31.8356L31.0276 31.9305C31.0605 31.6565 31.7545 31.5836 31.4806 30.7616C31.4806 30.7616 31.4586 30.937 31.2614 31.0576C31.2614 31.0576 31.2687 30.4915 30.8596 30.1187C30.8596 30.1187 30.845 30.4219 30.7135 30.5315C30.7135 30.5315 30.7574 30.1406 30.5163 29.8338C30.286 29.5407 30.2643 29.2713 30.2643 29.2713C30.2643 29.2713 29.9903 29.7754 30.089 30.0274C30.089 30.0274 29.8605 29.9718 29.837 29.6658C29.7858 29.0008 29.1465 28.8438 29.1465 28.8438Z" fill="#FF4B55"/>
<path d="M29.4537 35.5598C30.3983 35.5598 31.164 35.2316 31.164 34.8268C31.164 34.4219 30.3983 34.0938 29.4537 34.0938C28.5091 34.0938 27.7434 34.4219 27.7434 34.8268C27.7434 35.2316 28.5091 35.5598 29.4537 35.5598Z" fill="#FFE15A"/>
<path d="M29.4536 35.3295C30.2704 35.3295 30.9325 35.0328 30.9325 34.6667C30.9325 34.3007 30.2704 34.0039 29.4536 34.0039C28.6368 34.0039 27.9746 34.3007 27.9746 34.6667C27.9746 35.0328 28.6368 35.3295 29.4536 35.3295Z" fill="#FF4B55"/>
<path d="M29.7631 34.7539H29.143C29.1321 34.9473 29.2197 35.2277 29.4525 35.3294V35.3301L29.4527 35.3299C29.4527 35.3299 29.4532 35.3301 29.4534 35.3301V35.3294C29.6865 35.2277 29.7741 34.9473 29.7631 34.7539Z" fill="#FF82AA"/>
<path d="M30.2561 34.6328L29.6936 34.7648C29.7278 34.9554 29.8713 35.2099 30.1061 35.2593L30.1062 35.26L30.1065 35.2595L30.1068 35.2597V35.2591C30.2948 35.1104 30.3101 34.8187 30.2561 34.6328Z" fill="#FF82AA"/>
<path d="M30.5472 34.4297L30.1555 34.6863C30.2546 34.8526 30.4636 35.051 30.6665 35.0397L30.6668 35.0401L30.667 35.0397L30.6674 35.0398L30.6671 35.0393C30.7585 34.8577 30.6602 34.5867 30.5472 34.4297Z" fill="#FF82AA"/>
<path d="M30.5357 34.0352L30.3816 34.4241C30.5905 34.6899 30.9329 34.6624 30.9329 34.6624C30.9467 34.4461 30.6767 34.1676 30.5357 34.0352Z" fill="#FF82AA"/>
<path d="M28.645 34.6328L29.2075 34.7648C29.1733 34.9554 29.0298 35.2099 28.7952 35.2593L28.795 35.26L28.7947 35.2595L28.7943 35.2597L28.7944 35.2591C28.6062 35.1104 28.5907 34.8187 28.645 34.6328Z" fill="#FF82AA"/>
<path d="M28.3539 34.4297L28.7456 34.6863C28.6465 34.8526 28.4375 35.051 28.2346 35.0397L28.2342 35.0401L28.2341 35.0397L28.2337 35.0398L28.234 35.0393C28.1426 34.8577 28.2409 34.5867 28.3539 34.4297Z" fill="#FF82AA"/>
<path d="M28.3653 34.0352L28.5194 34.4241C28.3105 34.6899 27.968 34.6624 27.968 34.6624C27.9544 34.4461 28.2243 34.1676 28.3653 34.0352Z" fill="#FF82AA"/>
<path d="M29.4536 34.8024C30.1165 34.8024 30.6539 34.5615 30.6539 34.2645C30.6539 33.9674 30.1165 33.7266 29.4536 33.7266C28.7906 33.7266 28.2532 33.9674 28.2532 34.2645C28.2532 34.5615 28.7906 34.8024 29.4536 34.8024Z" fill="#FFE15A"/>
<path d="M29.4537 34.6132C29.947 34.6132 30.3468 34.4567 30.3468 34.2636C30.3468 34.0706 29.947 33.9141 29.4537 33.9141C28.9604 33.9141 28.5605 34.0706 28.5605 34.2636C28.5605 34.4567 28.9604 34.6132 29.4537 34.6132Z" fill="#FF4B55"/>
<path d="M29.5435 40.3082C28.9598 40.3579 28.4469 39.9239 28.3971 39.3409C28.3715 39.0495 28.5887 38.7923 28.8805 38.7676C29.1722 38.7427 29.4287 38.9591 29.4534 39.251C29.4782 39.5429 29.7353 39.7587 30.0265 39.7345C30.3186 39.7098 30.5352 39.4522 30.5099 39.161C30.5596 39.7449 30.1269 40.2583 29.5435 40.3082Z" fill="#41479B"/>
<path d="M28.3972 39.3384C28.3716 39.047 28.5888 38.7898 28.8806 38.765C29.1723 38.7402 29.4288 38.9565 29.4535 39.2485C29.4784 39.5404 29.7354 39.7562 30.0266 39.732C30.3187 39.7073 30.5353 39.4497 30.51 39.1585C30.4611 38.5741 29.9477 38.1418 29.3639 38.1914C28.7805 38.2414 28.3475 38.7546 28.3972 39.3384Z" fill="#FF9B55"/>
<path d="M29.4535 37.5156C28.4949 37.5156 27.7178 38.2927 27.7178 39.2514C27.7178 40.2101 28.4949 40.9872 29.4535 40.9872C30.4122 40.9872 31.1893 40.21 31.1893 39.2514C31.1893 38.2927 30.4121 37.5156 29.4535 37.5156ZM29.4535 40.6257C28.6947 40.6257 28.0794 40.0105 28.0794 39.2515C28.0794 38.4926 28.6946 37.8773 29.4535 37.8773C30.2125 37.8773 30.8277 38.4926 30.8277 39.2515C30.8277 40.0105 30.2124 40.6257 29.4535 40.6257Z" fill="#FFE15A"/>
<path d="M29.4535 37.875C28.6947 37.875 28.0793 38.4902 28.0793 39.2492C28.0793 40.0081 28.6946 40.6234 29.4535 40.6234C30.2125 40.6234 30.8277 40.0081 30.8277 39.2492C30.8277 38.4902 30.2124 37.875 29.4535 37.875ZM29.4535 40.3017C28.8722 40.3017 28.4009 39.8304 28.4009 39.2491C28.4009 38.6677 28.8722 38.1965 29.4535 38.1965C30.0348 38.1965 30.5061 38.6677 30.5061 39.2491C30.506 39.8305 30.0348 40.3017 29.4535 40.3017Z" fill="#FF4B55"/>
<path d="M28.9199 39.3823C28.9931 39.3823 29.0525 39.323 29.0525 39.2497C29.0525 39.1765 28.9931 39.1172 28.9199 39.1172C28.8467 39.1172 28.7874 39.1765 28.7874 39.2497C28.7874 39.323 28.8467 39.3823 28.9199 39.3823Z" fill="#FF9B55"/>
<path d="M29.9809 39.3823C30.0542 39.3823 30.1135 39.323 30.1135 39.2497C30.1135 39.1765 30.0542 39.1172 29.9809 39.1172C29.9077 39.1172 29.8484 39.1765 29.8484 39.2497C29.8484 39.323 29.9077 39.3823 29.9809 39.3823Z" fill="#41479B"/>
<path d="M29.4539 37.2471C29.5426 37.2471 29.6146 37.1752 29.6146 37.0865C29.6146 36.9977 29.5426 36.9258 29.4539 36.9258C29.3651 36.9258 29.2932 36.9977 29.2932 37.0865C29.2932 37.1752 29.3651 37.2471 29.4539 37.2471Z" fill="#FF4B55"/>
<path d="M29.6136 37.5284C29.7023 37.5284 29.7742 37.4564 29.7742 37.3677C29.7742 37.279 29.7023 37.207 29.6136 37.207C29.5248 37.207 29.4529 37.279 29.4529 37.3677C29.4529 37.4564 29.5248 37.5284 29.6136 37.5284Z" fill="#FF4B55"/>
<path d="M29.293 37.5284C29.3817 37.5284 29.4537 37.4564 29.4537 37.3677C29.4537 37.279 29.3817 37.207 29.293 37.207C29.2043 37.207 29.1323 37.279 29.1323 37.3677C29.1323 37.4564 29.2043 37.5284 29.293 37.5284Z" fill="#FF4B55"/>
<path d="M29.4539 41.5752C29.5426 41.5752 29.6146 41.5033 29.6146 41.4146C29.6146 41.3258 29.5426 41.2539 29.4539 41.2539C29.3651 41.2539 29.2932 41.3258 29.2932 41.4146C29.2932 41.5033 29.3651 41.5752 29.4539 41.5752Z" fill="#FF4B55"/>
<path d="M29.293 41.2979C29.3817 41.2979 29.4537 41.226 29.4537 41.1372C29.4537 41.0485 29.3817 40.9766 29.293 40.9766C29.2043 40.9766 29.1323 41.0485 29.1323 41.1372C29.1323 41.226 29.2043 41.2979 29.293 41.2979Z" fill="#FF4B55"/>
<path d="M29.6136 41.2979C29.7023 41.2979 29.7742 41.226 29.7742 41.1372C29.7742 41.0485 29.7023 40.9766 29.6136 40.9766C29.5248 40.9766 29.4529 41.0485 29.4529 41.1372C29.4529 41.226 29.5248 41.2979 29.6136 41.2979Z" fill="#FF4B55"/>
<path d="M29.1596 32.5395C29.0492 31.9238 28.7546 31.4616 28.5014 31.507C28.2482 31.5524 28.1323 32.0882 28.2427 32.7038C28.3223 33.148 28.4985 33.5051 28.6852 33.6565C28.6081 33.7888 28.5612 33.9904 28.5602 34.2402C28.6989 34.2521 28.8417 34.2514 28.9885 34.2252C29.1352 34.1988 29.2695 34.1498 29.3954 34.0906C29.3077 33.8568 29.1936 33.6839 29.0754 33.5866C29.1979 33.3798 29.2392 32.9838 29.1596 32.5395Z" fill="#FF9B55"/>
<path d="M29.7436 32.5395C29.854 31.9238 30.1486 31.4616 30.4018 31.507C30.655 31.5524 30.7708 32.0882 30.6605 32.7038C30.5809 33.148 30.4047 33.5051 30.218 33.6565C30.2951 33.7888 30.342 33.9904 30.343 34.2402C30.2043 34.2521 30.0615 34.2514 29.9147 34.2252C29.7679 34.199 29.6337 34.1498 29.5078 34.0906C29.5955 33.8568 29.7096 33.6839 29.8278 33.5866C29.7053 33.3798 29.6639 32.9838 29.7436 32.5395Z" fill="#41479B"/>
<path d="M29.9241 32.5248C29.9241 31.8467 29.7155 31.2969 29.4584 31.2969C29.2013 31.2969 28.9927 31.8466 28.9927 32.5248C28.9927 33.0142 29.1033 33.429 29.2602 33.6263C29.161 33.7528 29.0792 33.9589 29.0341 34.2255C29.1685 34.2647 29.3093 34.2912 29.4584 34.2912C29.6075 34.2912 29.7482 34.2646 29.8827 34.2255C29.8375 33.959 29.7558 33.7528 29.6566 33.6263C29.8137 33.429 29.9241 33.0141 29.9241 32.5248Z" fill="#F5F5F5"/>
<path d="M29.4532 33.8081C29.1498 33.8081 28.8715 33.7799 28.6905 33.7299C28.6282 33.7135 28.5917 33.6499 28.6086 33.5872C28.6259 33.5253 28.6914 33.4844 28.7514 33.5062C29.0715 33.5917 29.8348 33.5917 30.155 33.5062C30.2172 33.4836 30.281 33.5253 30.2977 33.5872C30.3144 33.65 30.2781 33.7136 30.2159 33.7299C30.0349 33.78 29.7566 33.8081 29.4532 33.8081Z" fill="#FFE15A"/>
<path d="M28.4561 35.6511C28.5821 35.6347 28.741 35.5963 28.752 35.4046C28.752 35.4046 28.4671 35.3772 28.4671 35.3991C28.4671 35.421 28.4561 35.6511 28.4561 35.6511Z" fill="#FFE15A"/>
<path d="M25.5959 34.9365C25.7384 34.9767 25.8773 35.0059 25.9211 35.1813C25.9211 35.1813 26.0672 34.8892 25.8627 34.7137C25.8254 34.6817 25.5959 34.9365 25.5959 34.9365Z" fill="#FF4B55"/>
<path d="M26.2024 34.4482C26.3448 34.4884 26.4837 34.5176 26.5276 34.693C26.5276 34.693 26.6737 34.4009 26.4692 34.2254C26.4319 34.1935 26.2024 34.4482 26.2024 34.4482Z" fill="#FF4B55"/>
<path d="M25.6399 35.4638C25.5522 35.4418 25.3987 35.2446 25.596 34.9378C25.7933 34.631 24.9275 35.0912 24.8947 35.3434C24.8619 35.5954 24.829 36.0447 25.0263 35.9243C25.2235 35.8035 25.6399 35.4638 25.6399 35.4638Z" fill="#FFE15A"/>
<path d="M26.5785 35.4958C26.6078 35.335 26.5785 35.2254 26.7831 35.0794C26.9876 34.9334 27.0168 34.8529 27.0168 34.7578C27.0168 34.7578 26.9055 34.8766 26.708 34.9258C26.5874 34.956 26.4835 35.0427 26.4835 35.0427C26.4835 35.0427 26.4323 34.8601 26.6151 34.7578C26.6151 34.7578 26.2935 34.7578 26.2426 35.05C26.1914 35.3421 26.3595 35.3861 26.1184 35.4153C25.8772 35.4445 25.3147 35.3277 25.1175 35.7732C24.9203 36.2189 25.5193 35.8974 25.68 35.839C25.8408 35.7806 26.3521 35.9047 26.4325 35.7951C26.5128 35.6857 26.5785 35.4958 26.5785 35.4958Z" fill="#FF4B55"/>
<path d="M24.4729 36.297L25.3386 34.8724C25.3386 34.8724 26.1988 34.54 26.2061 34.4961C26.2134 34.4522 26.491 34.0943 26.491 34.0431C26.491 33.992 26.4618 33.7436 26.3522 33.6998C26.2426 33.656 25.8937 33.8033 25.7422 33.842C25.5906 33.8807 25.3514 33.5977 25.3514 33.5977C25.3514 33.5977 23.956 33.8606 23.8536 34.0287C23.7513 34.1967 23.2691 35.4021 23.2472 35.5265C23.2252 35.6506 23.2472 36.5055 23.2764 36.4909C23.3056 36.476 24.4729 36.297 24.4729 36.297Z" fill="#FFF5E6"/>
<path d="M26.5421 33.831C26.4105 33.641 26.1695 33.641 26.0672 33.7946C25.9649 33.9479 25.7458 33.9479 25.6946 34.1379C25.6542 34.288 25.8992 34.5616 26.0454 34.5104C26.1916 34.4592 26.4618 34.2912 26.4618 34.2912C26.4618 34.2912 26.6736 34.0209 26.5421 33.831ZM26.142 34.2177C26.082 34.2944 25.9315 34.199 25.9306 34.1139C25.9296 34.0289 26.0552 34.0242 26.1177 34.0683C26.1584 34.0971 26.191 34.1553 26.142 34.2177ZM26.3672 34.0284C26.2795 34.0706 26.1865 33.9187 26.2232 33.8419C26.2599 33.7652 26.3747 33.8163 26.4113 33.8836C26.4352 33.9275 26.4387 33.9941 26.3672 34.0284Z" fill="#FF4B55"/>
<path d="M26.819 39.357C26.9645 39.3717 27.1573 39.3516 27.1973 39.0222C27.2432 38.6446 27.3574 38.5127 27.5465 38.6001C27.7356 38.6875 27.6888 38.8384 27.6888 38.8384C27.6888 38.8384 27.897 39.3863 27.7875 39.6054C27.6779 39.8246 27.4259 40.0875 27.2395 40.1314C27.0531 40.1752 26.6697 39.9232 26.6697 39.9232L26.819 39.357Z" fill="#FFF5E6"/>
<path d="M25.7676 38.0829C25.8918 38.0245 27.426 36.9579 27.6087 36.556C27.7914 36.1542 27.6891 35.8619 27.9303 35.8473C28.1715 35.8327 28.5805 35.8181 28.544 35.5186C28.5075 35.219 28.1056 35.409 27.996 35.3506C27.8864 35.2921 27.5431 35.1314 27.4773 35.3652C27.4114 35.599 27.4773 35.8109 27.3823 35.9277C27.2874 36.0446 26.8636 36.2493 26.7906 36.2345C26.7176 36.2199 26.5616 36.2008 26.4423 36.2762C26.3229 36.3515 26.2572 36.4537 26.2572 36.4537C26.2572 36.4537 25.8079 36.472 25.7439 36.5322C25.6799 36.5925 25.439 36.9139 25.439 36.9139L25.7676 38.0829Z" fill="#FFE6D7"/>
<path d="M25.9283 37.8421C25.9283 37.8421 26.2204 37.7325 26.4288 37.327C26.6369 36.9214 26.8452 37.0858 27.1521 36.8666C27.4589 36.6474 27.2617 36.3186 27.1741 36.1872C27.0865 36.0556 27.1467 35.716 27.4481 35.7268C27.6464 35.734 28.2809 36.3515 27.996 36.9652C27.996 36.9652 27.9522 36.8556 27.8427 36.724C27.8427 36.724 28.0071 37.1295 27.6235 37.5787C27.6235 37.5787 27.6344 37.3486 27.5139 37.1952C27.5139 37.1952 27.503 37.7651 27.0646 38.1266C27.0646 38.1266 27.1194 37.7541 27.0537 37.6006C27.0537 37.6006 26.9879 38.0938 26.3413 38.5431C26.3413 38.5431 26.44 38.3678 26.4181 38.0827L25.8701 38.3677L25.9283 37.8421Z" fill="#5AA587"/>
<path d="M21.7604 39.7161C21.7604 39.7161 21.5632 40.3189 22.1001 40.4942C22.637 40.6696 22.933 40.4394 23.1302 40.4942C23.3274 40.549 23.2836 40.8998 23.0097 41.1955C22.7357 41.4915 22.4617 41.5243 22.1548 41.3051C21.848 41.0859 21.826 40.8887 21.5083 40.9654C21.1906 41.0422 20.7522 40.7353 20.7522 40.7353C20.7522 40.7353 21.0371 39.4969 21.0699 39.5079C21.1029 39.5189 21.7604 39.7161 21.7604 39.7161Z" fill="#F5DCD2"/>
<path d="M18.974 38.2067C18.974 38.2067 19.3523 37.8428 20.8224 37.3916C22.2924 36.9405 23.0784 36.7512 23.0784 36.7512L24.2282 36.3874C24.2282 36.3874 24.7694 36.3853 25.1245 36.2844C25.4799 36.1836 25.4799 36.1836 25.4799 36.1836C25.4799 36.1836 26.426 37.5227 25.7129 38.8762L25.9603 39.1091C25.9603 39.1091 26.2204 39.1885 26.4178 39.258C26.6152 39.3276 26.4696 39.7059 26.4696 39.7059L25.7127 40.0551L23.5004 39.9533C23.5004 39.9533 23.4568 39.8515 22.729 40.0842C22.0012 40.3172 21.6811 39.7932 20.2838 39.7494C18.8867 39.7059 18.974 38.2067 18.974 38.2067Z" fill="#FFF5E6"/>
<path d="M25.2634 32.9848C25.2634 32.9848 25.4862 33.2076 25.3657 33.445C25.3657 33.445 25.1173 33.1894 24.9128 33.1309C24.5979 33.0409 24.5328 33.213 23.837 33.2459C23.3992 33.2666 23.2223 33.6861 22.7941 33.5839C22.3357 33.4743 21.9576 33.6843 21.9576 33.6843C21.9576 33.6843 22.2205 33.6515 22.4344 33.8543C22.648 34.0569 23.0261 34.0131 23.0261 34.0131C23.0261 34.0131 22.6809 34.2542 22.3905 34.1391C22.1001 34.0239 21.6836 34.2377 21.6836 34.2377C21.7603 34.2323 21.9301 34.2596 22.122 34.4623C22.3138 34.6649 22.7413 34.6156 22.7413 34.6156C22.6646 34.7088 22.4509 34.8128 22.249 34.7742C21.7913 34.6865 21.3029 34.8907 21.3029 34.8907C21.3029 34.8907 21.594 34.7889 21.9869 35.0799C22.3799 35.3709 22.8312 35.1964 22.8312 35.1964C22.8312 35.3856 22.4373 36.1145 21.7385 36.0898C20.8684 36.059 20.6479 36.5645 20.6479 36.5645C20.6479 36.5645 20.9972 36.4481 21.4485 36.5209C22.3225 36.6619 22.9185 36.157 22.9185 36.157C22.9185 36.157 22.7729 36.8411 22.1762 36.812C21.5796 36.7829 20.8227 37.3942 20.8227 37.3942C20.8227 37.3942 21.4951 37.273 22.3634 37.2624C22.649 37.2589 22.8812 37.1462 23.0797 37.0123C23.6018 36.6597 24.0839 36.6597 24.0839 36.6597C23.5141 36.7913 23.2182 37.4158 23.2182 37.4158C23.2182 37.4158 23.6566 37.0322 24.2921 37.0322C24.9278 37.0322 25.125 36.2871 25.125 36.2871C24.5333 36.2979 24.4455 35.8158 24.4455 35.8158C24.4455 35.8158 24.2702 35.8706 24.1058 36.0679C24.0018 36.1927 23.826 36.235 23.7057 36.2519C23.6619 35.8676 23.952 35.5167 23.952 35.5167C23.952 35.5167 23.5591 34.9201 24.0685 34.2796C24.578 33.6392 25.7423 33.843 25.7423 33.843C25.8626 33.3062 25.4097 32.9702 25.2634 32.9848Z" fill="#5AA587"/>
<path d="M24.0798 35.1034C24.2698 35.0742 25.1539 34.7818 25.1391 34.3874C25.1245 33.9929 24.5985 34.1317 24.6278 34.3435C24.657 34.5554 24.847 34.5115 24.847 34.5115C24.847 34.5115 24.8286 34.607 24.4378 34.6869C24.1164 34.7526 24.0798 35.1034 24.0798 35.1034Z" fill="#5AA587"/>
<path d="M26.4179 39.2586C26.4179 39.2586 26.9658 39.171 26.9438 39.5654C26.9219 39.9599 26.6077 40.3763 25.9576 40.5591C25.9576 40.5591 26.1988 40.3509 26.144 40.2303C26.0892 40.1098 25.8152 40.0769 25.6728 40.2851C25.5304 40.4932 25.2892 40.5811 25.0811 40.548C25.0811 40.548 25.4536 40.274 25.1907 40.1755C24.9538 40.0867 25.0445 40.4715 24.4783 40.5371C24.4783 40.5371 24.8947 40.2083 24.6536 40.1207C24.4126 40.0331 24.2811 40.6028 23.8536 40.5591C23.8536 40.5591 24.2116 40.2011 24.018 40.1427C23.713 40.0506 23.6344 40.5811 23.0865 40.3508C23.0865 40.3508 23.3605 40.2303 23.1413 39.9344C22.9221 39.6385 23.2289 39.2659 23.3825 39.1126C23.5361 38.9592 23.6454 38.8606 23.6017 38.707C23.6017 38.707 23.9926 38.9518 23.7953 39.3827C23.61 39.7875 24.3599 39.564 24.9423 39.5143C25.5414 39.4631 25.8968 39.8068 26.2793 39.6896C26.637 39.5799 26.4179 39.2586 26.4179 39.2586Z" fill="#5AA587"/>
<path d="M15.8157 39.4455C15.8157 39.4455 16.5345 39.777 16.942 39.4422C17.3495 39.1074 17.4602 39.5037 17.9406 39.2125C18.421 38.9215 18.3918 39.0816 18.7702 39.0816C19.1485 39.0816 19.4251 38.4703 19.1923 38.0482C19.1923 38.0482 19.9826 37.7417 19.8204 37.108C19.6999 36.6368 19.1049 36.7821 19.1049 36.7821C19.1049 36.7821 18.4771 36.3875 18.0424 36.8986C17.6873 37.3164 17.8823 37.5973 17.2856 37.67C16.6889 37.7427 16.6015 38.354 15.9611 38.2813C15.9611 38.2813 16.3978 38.8489 17.0672 38.4851C17.0672 38.4851 17.0517 39.0331 15.8157 39.4455Z" fill="#5AA587"/>
<path d="M22.1767 40.5156C22.1767 40.5156 22.7904 41.0636 21.585 41.3923C21.585 41.3923 21.6618 41.2936 21.7494 41.1183C21.7494 41.1183 21.3768 41.3923 20.8945 41.3703C20.8945 41.3703 21.0369 41.2607 21.0698 41.1291C21.0698 41.1291 20.6315 41.2496 20.3137 41.0415C20.3137 41.0415 20.6973 41.0195 20.9384 40.6579C20.9384 40.6579 21.048 40.8771 21.2781 40.7675C21.5082 40.6579 21.6401 40.8155 21.8479 40.8223C22.0177 40.8279 22.1656 40.7403 22.1767 40.5156Z" fill="#5AA587"/>
<path d="M21.8736 37.1328C21.8736 37.1328 21.4352 37.3373 21.6399 37.7245C21.7763 37.9827 22.2035 38.0447 22.3704 37.8049C22.5128 37.6004 22.3998 37.4018 22.2499 37.3738C22.0928 37.3446 21.9979 37.4103 21.9247 37.5418C21.9247 37.5418 21.6543 37.4397 21.8736 37.1328Z" fill="#5AA587"/>
<path d="M23.8425 37.8164C23.8425 37.8164 24.7944 37.8526 24.7466 38.5122C24.7256 38.8025 24.333 39.0052 24.0853 38.8529C23.874 38.7231 23.9083 38.5068 24.0185 38.4109C24.1399 38.3052 24.26 38.3433 24.3792 38.4343C24.3792 38.4343 24.4397 38.0739 23.8425 37.8164Z" fill="#5AA587"/>
<path d="M25.7439 36.5339C25.7439 36.5339 26.2576 36.1892 26.4578 36.5995C26.5457 36.7801 26.3817 37.037 26.1811 37.032C26.0099 37.0276 25.9555 36.8866 25.9879 36.7912C26.0238 36.6861 26.1088 36.6673 26.2113 36.6802C26.2113 36.6802 26.2424 36.4133 25.7439 36.5339Z" fill="#5AA587"/>
<path d="M26.4421 36.2773C26.4421 36.2773 26.9161 35.9593 27.1006 36.3379C27.1817 36.5045 27.0304 36.7415 26.8453 36.7368C26.6875 36.7329 26.6373 36.6028 26.6672 36.5148C26.7003 36.4179 26.7786 36.4004 26.8734 36.4123C26.8734 36.4123 26.9021 36.1662 26.4421 36.2773Z" fill="#5AA587"/>
<path d="M24.6667 38.3789C24.6667 38.3789 25.4859 38.4101 25.4447 38.9777C25.4266 39.2274 25.0888 39.4019 24.8757 39.2709C24.6938 39.1591 24.684 38.954 24.7629 38.8562C24.8998 38.6864 25.0642 38.763 25.0642 38.763C25.0642 38.763 25.1806 38.6005 24.6667 38.3789Z" fill="#5AA587"/>
<path d="M25.2671 38.8286C25.2671 38.8286 26.1712 38.741 26.104 39.3512C26.0865 39.5103 25.8764 39.6225 25.74 39.5387C25.6236 39.4673 25.6174 39.3361 25.6679 39.2735C25.7556 39.1649 25.8607 39.2139 25.8607 39.2139C25.8607 39.2139 25.804 38.9437 25.2671 38.8286Z" fill="#5AA587"/>
<path d="M19.469 41.7295C19.469 41.7295 19.5927 41.9806 19.6728 42.2243C19.7413 42.4329 20.0948 42.5735 20.2841 42.4426C20.4733 42.3117 20.7928 41.9201 20.6618 41.8328C20.5309 41.7454 19.9639 41.8168 19.8766 41.5111C19.7892 41.2054 19.8184 41.0016 19.8184 41.0016C19.8184 41.0016 20.577 41.2272 20.9387 40.6574C21.3004 40.0875 21.2486 39.5312 21.3904 39.255C21.5012 39.0391 21.6961 38.9348 21.6961 38.9348C21.4733 38.0526 18.7561 37.4212 19.0714 39.7111L18.6445 40.6814L19.469 41.7295Z" fill="#FFE6D7"/>
<path d="M18.5056 41.6928C18.692 41.8133 19.375 42.1604 19.7987 41.8973C20.1452 41.6823 20.1495 41.437 19.9303 41.3822C19.7111 41.3274 19.5906 41.4808 19.47 41.3822C19.3494 41.2836 18.6699 40.7246 18.922 40.5493C19.1741 40.374 19.3105 40.2321 19.3056 39.9247C19.302 39.6981 19.1046 39.479 18.8708 39.4571C18.5793 39.4299 18.352 39.552 18.0452 39.552L18.4032 39.7347C18.1731 39.8443 18.1548 40.1548 17.8809 40.2096C17.8809 40.2096 18.0672 40.4214 18.301 40.3557C18.301 40.3557 18.2206 40.5749 18.0014 40.6041C18.0014 40.6041 18.2059 40.8378 18.3959 40.9037C18.3959 40.9037 18.2718 40.9913 18.0782 40.9549C18.0782 40.9549 18.3814 41.4006 18.8343 41.5138L18.5056 41.6928Z" fill="#5AA587"/>
<path d="M19.8257 40.8577C19.8257 40.8577 19.9474 40.8366 19.9578 40.6883C19.9638 40.6029 19.8785 40.4921 19.7334 40.5004C19.5633 40.5102 19.4479 40.736 19.5294 40.8858C19.738 41.2687 20.5145 41.1149 20.6095 40.9761C20.6095 40.9761 19.9887 41.0053 19.8257 40.8577Z" fill="#5AA587"/>
<path d="M20.1897 42.6768C20.2234 42.6293 20.2508 42.5006 20.1851 42.4211C20.1851 42.4211 20.2207 42.2375 20.3604 42.3033C20.3604 42.3033 20.4198 42.4503 20.3722 42.5527C20.3248 42.6548 20.1897 42.6768 20.1897 42.6768Z" fill="#FFE15A"/>
<path d="M20.4747 42.5755C20.4723 42.4432 20.4425 42.3706 20.3358 42.3597C20.3358 42.3597 20.3084 42.168 20.4674 42.168C20.4674 42.168 20.5852 42.272 20.5862 42.3849C20.5872 42.4975 20.4747 42.5755 20.4747 42.5755Z" fill="#FFE15A"/>
<path d="M20.6511 42.4469C20.6251 42.3171 20.6005 42.2268 20.4816 42.218C20.4816 42.218 20.4183 42.0609 20.5936 42.0391C20.5936 42.0391 20.7053 42.1287 20.7267 42.2394C20.7479 42.3501 20.6511 42.4469 20.6511 42.4469Z" fill="#FFE15A"/>
<path d="M20.8272 42.246C20.7733 42.125 20.7196 42.0767 20.6017 42.0942C20.6017 42.0942 20.5003 41.9518 20.6401 41.875C20.6401 41.875 20.8103 41.9236 20.8552 42.0269C20.9003 42.1303 20.8272 42.246 20.8272 42.246Z" fill="#FFE15A"/>
<path d="M22.9075 41.505C22.9324 41.4523 22.9365 41.3207 22.8577 41.2542C22.8577 41.2542 22.8601 41.0673 23.0093 41.1071C23.0093 41.1071 23.0937 41.2413 23.0651 41.3503C23.0366 41.4594 22.9075 41.505 22.9075 41.505Z" fill="#FFE15A"/>
<path d="M23.1698 41.3529C23.144 41.2231 23.1019 41.157 22.9948 41.1652C22.9948 41.1652 22.9339 40.9813 23.0902 40.9531C23.0902 40.9531 23.2245 41.0346 23.2456 41.1454C23.2668 41.2562 23.1698 41.3529 23.1698 41.3529Z" fill="#FFE15A"/>
<path d="M23.3203 41.1959C23.2716 41.0728 23.2314 40.9882 23.1127 41.0007C23.1127 41.0007 23.0226 40.8573 23.1911 40.8047C23.1911 40.8047 23.317 40.8732 23.3577 40.9783C23.3984 41.0835 23.3203 41.1959 23.3203 41.1959Z" fill="#FFE15A"/>
<path d="M23.4582 40.9648C23.3836 40.8553 23.3221 40.8172 23.2092 40.8554C23.2092 40.8554 23.0842 40.7331 23.208 40.6328C23.208 40.6328 23.3841 40.6504 23.4469 40.744C23.5096 40.838 23.4582 40.9648 23.4582 40.9648Z" fill="#FFE15A"/>
<path d="M26.5493 34.2179C26.5731 34.3366 26.5128 34.4663 26.228 34.5905C25.9432 34.7146 25.9504 34.6635 25.7604 34.9046C25.5704 35.1458 25.5486 35.153 25.3147 35.1967C25.081 35.2406 24.9714 35.9638 25.249 35.8543C25.5266 35.7447 25.5631 35.5182 25.8699 35.5913C26.1767 35.6645 26.3375 35.7667 26.5786 35.4964C26.5786 35.4964 26.8123 35.8105 26.374 35.9421C25.9356 36.0737 25.6964 36.0837 25.4801 36.1846C25.2635 36.2854 24.4957 36.5321 24.4453 35.8143C24.4307 35.6061 24.5841 35.5257 24.6718 35.3723C24.7594 35.2189 24.8472 35.1166 25.059 34.9486C25.2709 34.7806 25.1394 34.6418 25.4827 34.5906C25.8261 34.5394 26.1111 34.5467 26.2132 34.2984C26.3156 34.0499 26.5201 34.0718 26.5493 34.2179Z" fill="#FFE6D7"/>
<path d="M20.796 37.7008C20.796 37.7008 20.7302 37.439 21.0355 37.3281C20.9638 37.3499 20.8979 37.3694 20.8226 37.3925C20.7584 37.4122 20.7074 37.4307 20.6474 37.4501C20.624 37.4817 20.5925 37.4984 20.5766 37.5427C20.4838 37.8028 20.7135 38.1402 20.9874 38.1035C21.2211 38.072 21.2873 37.8664 21.211 37.744C21.1308 37.6158 20.9548 37.5857 20.796 37.7008Z" fill="#5AA587"/>
<path d="M20.8905 40.4779C20.5592 40.552 20.4101 40.4241 20.4101 40.4241C20.4101 40.4241 20.5319 40.403 20.5422 40.2548C20.5483 40.1693 20.463 40.0585 20.3178 40.0668C20.1477 40.0766 20.0323 40.3024 20.1139 40.4522C20.2934 40.7815 20.8032 40.7037 21.0279 40.4702C21.0397 40.4462 21.0519 40.4223 21.0625 40.3984C21.0134 40.4295 20.9507 40.4645 20.8905 40.4779Z" fill="#5AA587"/>
<path d="M21.2253 39.9274C21.2337 39.8899 21.2457 39.8521 21.2529 39.8163C20.8635 39.9738 20.75 39.7755 20.75 39.7755C20.75 39.7755 20.8717 39.7544 20.8821 39.6062C20.8881 39.5208 20.8028 39.41 20.6577 39.4184C20.4876 39.4282 20.3722 39.654 20.4538 39.8037C20.6441 40.1528 20.983 40.0555 21.2253 39.9274Z" fill="#5AA587"/>
<path d="M22.1013 40.1116C21.875 40.3144 21.7021 40.3032 21.7021 40.3032C21.7021 40.3032 21.7924 40.2191 21.7204 40.0893C21.6787 40.0144 21.5468 39.9682 21.4298 40.0544C21.2925 40.1555 21.3192 40.4077 21.4692 40.4886C21.8387 40.6878 22.0785 40.3798 22.2066 40.1319C22.1716 40.127 22.1363 40.1188 22.1013 40.1116Z" fill="#5AA587"/>
<path d="M27.9336 39.9138C27.9173 39.8331 27.8327 39.6794 27.7286 39.6688C27.7286 39.6688 27.6059 39.4533 27.7453 39.375C27.7453 39.375 27.8987 39.458 27.9498 39.6062C28.001 39.7545 27.9336 39.9138 27.9336 39.9138Z" fill="#FFE15A"/>
<path d="M28.0309 39.5241C27.9248 39.3973 27.8489 39.357 27.7732 39.4552C27.7732 39.4552 27.6044 39.2959 27.7041 39.134C27.7041 39.134 27.8602 39.1155 27.9501 39.2243C28.04 39.3334 28.0309 39.5241 28.0309 39.5241Z" fill="#FFE15A"/>
<path d="M28.0398 39.2183C27.9208 39.1181 27.8341 39.055 27.7526 39.1678C27.7526 39.1678 27.5889 39.079 27.6814 38.8788C27.6814 38.8788 27.8224 38.8524 27.9231 38.9388C28.0241 39.0251 28.0398 39.2183 28.0398 39.2183Z" fill="#FFE15A"/>
<path d="M27.9913 38.8423C27.8619 38.7793 27.7899 38.7867 27.7299 38.924C27.7299 38.924 27.5538 38.8883 27.5807 38.6709C27.5807 38.6709 27.7257 38.5449 27.8357 38.5997C27.9457 38.6545 27.9913 38.8423 27.9913 38.8423Z" fill="#FFE15A"/>
<path d="M25.1684 34.8309C25.2814 34.8309 25.3729 34.7394 25.3729 34.6264C25.3729 34.5134 25.2814 34.4219 25.1684 34.4219C25.0554 34.4219 24.9639 34.5134 24.9639 34.6264C24.9639 34.7394 25.0554 34.8309 25.1684 34.8309Z" fill="#F5F5F5"/>
<path d="M25.1684 34.703C25.2093 34.703 25.2425 34.6698 25.2425 34.6288C25.2425 34.5879 25.2093 34.5547 25.1684 34.5547C25.1274 34.5547 25.0942 34.5879 25.0942 34.6288C25.0942 34.6698 25.1274 34.703 25.1684 34.703Z" fill="#41479B"/>
<path d="M25.5895 34.0471C25.6812 34.0471 25.7556 33.9727 25.7556 33.881C25.7556 33.7892 25.6812 33.7148 25.5895 33.7148C25.4977 33.7148 25.4233 33.7892 25.4233 33.881C25.4233 33.9727 25.4977 34.0471 25.5895 34.0471Z" fill="#F5F5F5"/>
<path d="M25.5896 33.9408C25.6228 33.9408 25.6498 33.9139 25.6498 33.8806C25.6498 33.8473 25.6228 33.8203 25.5896 33.8203C25.5563 33.8203 25.5293 33.8473 25.5293 33.8806C25.5293 33.9139 25.5563 33.9408 25.5896 33.9408Z" fill="#41479B"/>
<path d="M19.6892 37.8966C19.5 38.0422 18.8454 37.7213 18.3851 37.8747C17.7902 38.073 17.7952 38.4553 17.7952 38.4553C17.7952 38.4553 18.1659 37.9953 18.7833 38.2217C19.1248 38.3469 19.3235 38.3535 19.3235 38.3535L19.6892 37.8966Z" fill="#FFF5E6"/>
<path d="M30.4403 35.6511C30.3143 35.6347 30.1553 35.5963 30.1443 35.4046C30.1443 35.4046 30.4292 35.3772 30.4292 35.3991C30.4292 35.421 30.4403 35.6511 30.4403 35.6511Z" fill="#FFE15A"/>
<path d="M33.3005 34.9365C33.1581 34.9767 33.0192 35.0059 32.9754 35.1813C32.9754 35.1813 32.8293 34.8892 33.0338 34.7137C33.0711 34.6817 33.3005 34.9365 33.3005 34.9365Z" fill="#FF4B55"/>
<path d="M32.6941 34.4482C32.5517 34.4884 32.4128 34.5176 32.3689 34.693C32.3689 34.693 32.2228 34.4009 32.4273 34.2254C32.4646 34.1935 32.6941 34.4482 32.6941 34.4482Z" fill="#FF4B55"/>
<path d="M33.2566 35.4638C33.3442 35.4418 33.4978 35.2446 33.3005 34.9378C33.1031 34.631 33.9689 35.0912 34.0018 35.3434C34.0346 35.5956 34.0675 36.0447 33.8702 35.9243C33.6729 35.8035 33.2566 35.4638 33.2566 35.4638Z" fill="#FFE15A"/>
<path d="M32.3177 35.4958C32.2885 35.335 32.3177 35.2254 32.1131 35.0794C31.9086 34.9332 31.8794 34.8529 31.8794 34.7578C31.8794 34.7578 31.9907 34.8766 32.1882 34.9258C32.3088 34.956 32.4128 35.0427 32.4128 35.0427C32.4128 35.0427 32.464 34.8601 32.2812 34.7578C32.2812 34.7578 32.6028 34.7578 32.6538 35.05C32.705 35.3421 32.5368 35.3861 32.7779 35.4153C33.019 35.4445 33.5816 35.3277 33.7788 35.7732C33.976 36.2188 33.3771 35.8974 33.2163 35.839C33.0555 35.7806 32.5442 35.9047 32.4638 35.7951C32.3834 35.6856 32.3177 35.4958 32.3177 35.4958Z" fill="#FF4B55"/>
<path d="M34.4237 36.297L33.558 34.8724C33.558 34.8724 32.6978 34.54 32.6904 34.4961C32.6831 34.4522 32.4055 34.0943 32.4055 34.0431C32.4055 33.992 32.4347 33.7436 32.5443 33.6998C32.6539 33.656 33.0028 33.8033 33.1544 33.842C33.306 33.8807 33.5452 33.5977 33.5452 33.5977C33.5452 33.5977 34.9406 33.8606 35.043 34.0287C35.1452 34.1967 35.6275 35.4021 35.6493 35.5265C35.6713 35.6506 35.6493 36.5055 35.6201 36.4909C35.5908 36.476 34.4237 36.297 34.4237 36.297Z" fill="#FFF5E6"/>
<path d="M32.4347 34.2911C32.4347 34.2911 32.705 34.4591 32.8511 34.5103C32.9972 34.5613 33.2422 34.2876 33.2018 34.1377C33.1507 33.9478 32.9315 33.9478 32.8293 33.7944C32.727 33.6411 32.486 33.6411 32.3544 33.8308C32.2227 34.0207 32.4347 34.2911 32.4347 34.2911ZM32.7787 34.0681C32.8412 34.0239 32.9668 34.0287 32.9658 34.1137C32.9648 34.1988 32.8143 34.2941 32.7544 34.2175C32.7054 34.1551 32.738 34.0969 32.7787 34.0681ZM32.485 33.8833C32.5215 33.8161 32.6364 33.765 32.673 33.8417C32.7096 33.9183 32.6168 34.0704 32.5291 34.0281C32.4578 33.9939 32.4611 33.9273 32.485 33.8833Z" fill="#FF4B55"/>
<path d="M32.0772 39.357C31.9317 39.3717 31.7389 39.3516 31.6989 39.0222C31.653 38.6446 31.5388 38.5127 31.3497 38.6001C31.1606 38.6875 31.2074 38.8384 31.2074 38.8384C31.2074 38.8384 30.9992 39.3863 31.1087 39.6054C31.2183 39.8246 31.4703 40.0875 31.6567 40.1314C31.8431 40.1752 32.2266 39.9232 32.2266 39.9232L32.0772 39.357Z" fill="#FFF5E6"/>
<path d="M33.1287 38.0829C33.0046 38.0245 31.4704 36.9579 31.2876 36.556C31.1049 36.1541 31.2073 35.8619 30.9661 35.8473C30.7249 35.8327 30.3159 35.8181 30.3524 35.5186C30.3889 35.219 30.7908 35.409 30.9004 35.3506C31.0099 35.2921 31.3533 35.1314 31.4191 35.3652C31.4848 35.5989 31.4191 35.8109 31.5141 35.9277C31.609 36.0446 32.0328 36.2493 32.1058 36.2345C32.1788 36.2197 32.3348 36.2008 32.4541 36.2762C32.5733 36.3515 32.6392 36.4537 32.6392 36.4537C32.6392 36.4537 33.0885 36.472 33.1525 36.5322C33.2165 36.5925 33.4574 36.9139 33.4574 36.9139L33.1287 38.0829Z" fill="#FFE6D7"/>
<path d="M32.968 37.8421C32.968 37.8421 32.6759 37.7325 32.4675 37.327C32.2594 36.9214 32.0511 37.0858 31.7442 36.8666C31.4374 36.6474 31.6346 36.3186 31.7222 36.1872C31.8098 36.0556 31.7496 35.716 31.4482 35.7268C31.2499 35.734 30.6154 36.3515 30.9003 36.9652C30.9003 36.9652 30.9441 36.8556 31.0536 36.724C31.0536 36.724 30.8892 37.1295 31.2728 37.5787C31.2728 37.5787 31.2619 37.3486 31.3824 37.1952C31.3824 37.1952 31.3933 37.7651 31.8317 38.1266C31.8317 38.1266 31.7769 37.7541 31.8426 37.6006C31.8426 37.6006 31.9084 38.0938 32.555 38.5431C32.555 38.5431 32.4565 38.3678 32.4782 38.0827L33.0262 38.3677L32.968 37.8421Z" fill="#5AA587"/>
<path d="M37.1361 39.7161C37.1361 39.7161 37.3333 40.3189 36.7964 40.4942C36.2595 40.6696 35.9635 40.4394 35.7663 40.4942C35.5691 40.549 35.6129 40.8998 35.8868 41.1955C36.1608 41.4915 36.4348 41.5243 36.7417 41.3051C37.0485 41.0859 37.0705 40.8887 37.3882 40.9654C37.7059 41.0422 38.1443 40.7353 38.1443 40.7353C38.1443 40.7353 37.8594 39.4969 37.8266 39.5079C37.7935 39.5189 37.1361 39.7161 37.1361 39.7161Z" fill="#F5DCD2"/>
<path d="M39.9221 38.2067C39.9221 38.2067 39.5438 37.8428 38.0737 37.3916C36.6037 36.9405 35.8177 36.7512 35.8177 36.7512L34.6679 36.3874C34.6679 36.3874 34.1267 36.3853 33.7715 36.2844C33.4164 36.1836 33.4162 36.1836 33.4162 36.1836C33.4162 36.1836 32.4701 37.5227 33.1832 38.8762L32.9358 39.1091C32.9358 39.1091 32.6757 39.1885 32.4783 39.258C32.2809 39.3276 32.4265 39.7059 32.4265 39.7059L33.1833 40.0551L35.3956 39.9533C35.3956 39.9533 35.4393 39.8515 36.1671 40.0842C36.8948 40.3171 37.215 39.7932 38.6122 39.7494C40.0094 39.7059 39.9221 38.2067 39.9221 38.2067Z" fill="#FFF5E6"/>
<path d="M33.6328 32.9848C33.6328 32.9848 33.41 33.2076 33.5306 33.445C33.5306 33.445 33.7789 33.1894 33.9835 33.1309C34.2984 33.0409 34.3634 33.213 35.0593 33.2459C35.4971 33.2666 35.674 33.6861 36.1022 33.5839C36.5606 33.4743 36.9387 33.6843 36.9387 33.6843C36.9387 33.6843 36.6757 33.6515 36.4619 33.8543C36.2483 34.0569 35.8702 34.0131 35.8702 34.0131C35.8702 34.0131 36.2154 34.2542 36.5058 34.1391C36.7961 34.024 37.2126 34.2377 37.2126 34.2377C37.136 34.2323 36.9661 34.2596 36.7743 34.4623C36.5825 34.665 36.155 34.6156 36.155 34.6156C36.2317 34.7088 36.4454 34.8128 36.6473 34.7742C37.1049 34.6865 37.5934 34.8907 37.5934 34.8907C37.5934 34.8907 37.3023 34.7889 36.9093 35.0799C36.5164 35.3709 36.0651 35.1964 36.0651 35.1964C36.0651 35.3856 36.4589 36.1145 37.1577 36.0898C38.0278 36.059 38.2483 36.5645 38.2483 36.5645C38.2483 36.5645 37.8991 36.4481 37.4478 36.5209C36.5738 36.6619 35.9778 36.157 35.9778 36.157C35.9778 36.157 36.1234 36.8411 36.72 36.812C37.3167 36.7829 38.0735 37.3942 38.0735 37.3942C38.0735 37.3942 37.4012 37.273 36.5329 37.2624C36.2473 37.2589 36.0151 37.1462 35.8166 37.0123C35.2945 36.6597 34.8123 36.6597 34.8123 36.6597C35.3822 36.7913 35.678 37.4158 35.678 37.4158C35.678 37.4158 35.2396 37.0322 34.6041 37.0322C33.9684 37.0322 33.7712 36.2871 33.7712 36.2871C34.3629 36.2979 34.4506 35.8158 34.4506 35.8158C34.4506 35.8158 34.6259 35.8706 34.7903 36.0679C34.8943 36.1927 35.0701 36.235 35.1904 36.2519C35.2343 35.8676 34.9441 35.5167 34.9441 35.5167C34.9441 35.5167 35.3371 34.9201 34.8276 34.2796C34.3182 33.6391 33.1538 33.843 33.1538 33.843C33.0339 33.3062 33.4868 32.9702 33.6328 32.9848Z" fill="#5AA587"/>
<path d="M34.8166 35.1033C34.6266 35.0741 33.7425 34.7818 33.7573 34.3874C33.772 33.993 34.2979 34.1316 34.2686 34.3435C34.2394 34.5554 34.0494 34.5115 34.0494 34.5115C34.0494 34.5115 34.0678 34.607 34.4586 34.6868C34.7799 34.7526 34.8166 35.1033 34.8166 35.1033Z" fill="#5AA587"/>
<path d="M32.4785 39.2586C32.4785 39.2586 31.9306 39.171 31.9525 39.5654C31.9745 39.9599 32.2887 40.3763 32.9388 40.5591C32.9388 40.5591 32.6976 40.3509 32.7524 40.2303C32.8072 40.1098 33.0812 40.0769 33.2236 40.2851C33.366 40.4932 33.6072 40.5811 33.8153 40.548C33.8153 40.548 33.4428 40.274 33.7057 40.1755C33.9426 40.0867 33.8518 40.4715 34.4181 40.5371C34.4181 40.5371 34.0017 40.2083 34.2427 40.1207C34.4839 40.0331 34.6153 40.6028 35.0428 40.5591C35.0428 40.5591 34.6848 40.2011 34.8784 40.1427C35.1834 40.0506 35.262 40.5811 35.8099 40.3508C35.8099 40.3508 35.5359 40.2303 35.7551 39.9344C35.9742 39.6385 35.6674 39.2659 35.5139 39.1126C35.3605 38.9592 35.251 38.8606 35.2947 38.707C35.2947 38.707 34.9038 38.9518 35.1011 39.3827C35.2864 39.7875 34.5365 39.564 33.9541 39.5143C33.3549 39.4631 32.9996 39.8068 32.6171 39.6896C32.2593 39.5799 32.4785 39.2586 32.4785 39.2586Z" fill="#5AA587"/>
<path d="M43.0807 39.4455C43.0807 39.4455 42.3619 39.777 41.9543 39.4422C41.5468 39.1074 41.4361 39.5037 40.9557 39.2125C40.4754 38.9215 40.5046 39.0816 40.1261 39.0816C39.7478 39.0816 39.4712 38.4703 39.7041 38.0482C39.7041 38.0482 38.9136 37.7417 39.0759 37.108C39.1965 36.6368 39.7914 36.7821 39.7914 36.7821C39.7914 36.7821 40.4193 36.3875 40.8539 36.8986C41.209 37.3164 41.014 37.5973 41.6108 37.67C42.2074 37.7427 42.2948 38.354 42.9352 38.2813C42.9352 38.2813 42.4986 38.8489 41.8291 38.4851C41.8291 38.4851 41.8447 39.0331 43.0807 39.4455Z" fill="#5AA587"/>
<path d="M36.7197 40.5156C36.7197 40.5156 36.106 41.0636 37.3114 41.3923C37.3114 41.3923 37.2346 41.2936 37.147 41.1183C37.147 41.1183 37.5195 41.3923 38.0019 41.3703C38.0019 41.3703 37.8595 41.2607 37.8266 41.1291C37.8266 41.1291 38.2649 41.2496 38.5827 41.0415C38.5827 41.0415 38.1991 41.0195 37.958 40.6579C37.958 40.6579 37.8484 40.8771 37.6183 40.7675C37.3882 40.6579 37.2563 40.8155 37.0484 40.8223C36.8786 40.8279 36.7306 40.7403 36.7197 40.5156Z" fill="#5AA587"/>
<path d="M37.0226 37.1328C37.0226 37.1328 37.461 37.3373 37.2564 37.7245C37.12 37.9827 36.6928 38.0447 36.5259 37.8049C36.3835 37.6004 36.4964 37.4018 36.6464 37.3738C36.8036 37.3446 36.8984 37.4103 36.9716 37.5418C36.9716 37.5418 37.2418 37.4397 37.0226 37.1328Z" fill="#5AA587"/>
<path d="M35.0538 37.8164C35.0538 37.8164 34.1019 37.8526 34.1497 38.5122C34.1707 38.8025 34.5632 39.0052 34.811 38.8529C35.0223 38.7231 34.988 38.5068 34.8778 38.4109C34.7564 38.3052 34.6363 38.3433 34.5171 38.4343C34.5171 38.4343 34.4566 38.0739 35.0538 37.8164Z" fill="#5AA587"/>
<path d="M33.1525 36.5339C33.1525 36.5339 32.6388 36.1892 32.4386 36.5995C32.3507 36.7801 32.5147 37.037 32.7153 37.032C32.8865 37.0276 32.9409 36.8866 32.9085 36.7912C32.8726 36.6861 32.7876 36.6673 32.6852 36.6802C32.6852 36.6802 32.654 36.4133 33.1525 36.5339Z" fill="#5AA587"/>
<path d="M32.4543 36.2773C32.4543 36.2773 31.9804 35.9593 31.7959 36.3379C31.7147 36.5045 31.8661 36.7415 32.0512 36.7368C32.209 36.7329 32.2592 36.6028 32.2292 36.5148C32.1962 36.4179 32.1179 36.4004 32.023 36.4123C32.023 36.4123 31.9944 36.1662 32.4543 36.2773Z" fill="#5AA587"/>
<path d="M34.2294 38.3789C34.2294 38.3789 33.4103 38.4101 33.4514 38.9777C33.4696 39.2274 33.8074 39.4019 34.0205 39.2709C34.2024 39.1591 34.2121 38.954 34.1333 38.8562C33.9964 38.6864 33.832 38.763 33.832 38.763C33.832 38.763 33.7156 38.6005 34.2294 38.3789Z" fill="#5AA587"/>
<path d="M33.6293 38.8286C33.6293 38.8286 32.7252 38.741 32.7924 39.3512C32.8099 39.5103 33.02 39.6225 33.1564 39.5387C33.2728 39.4673 33.279 39.3361 33.2285 39.2735C33.1408 39.1649 33.0357 39.2139 33.0357 39.2139C33.0357 39.2139 33.0924 38.9437 33.6293 38.8286Z" fill="#5AA587"/>
<path d="M39.4274 41.7295C39.4274 41.7295 39.3037 41.9806 39.2236 42.2243C39.1551 42.4329 38.8016 42.5735 38.6124 42.4426C38.4231 42.3117 38.1037 41.9201 38.2346 41.8328C38.3655 41.7456 38.9325 41.8168 39.0199 41.5111C39.1073 41.2054 39.0781 41.0016 39.0781 41.0016C39.0781 41.0016 38.3196 41.2272 37.9579 40.6574C37.5963 40.0874 37.6479 39.5312 37.5061 39.255C37.3953 39.0391 37.2004 38.9348 37.2004 38.9348C37.4232 38.0526 40.1404 37.4212 39.8251 39.7111L40.252 40.6814L39.4274 41.7295Z" fill="#FFE6D7"/>
<path d="M40.3905 41.6928C40.2042 41.8133 39.5211 42.1604 39.0974 41.8973C38.7509 41.6823 38.7466 41.437 38.9658 41.3822C39.185 41.3274 39.3056 41.4808 39.4262 41.3822C39.5467 41.2836 40.2263 40.7246 39.9742 40.5493C39.7221 40.374 39.5857 40.2321 39.5906 39.9247C39.5942 39.6981 39.7915 39.479 40.0253 39.4571C40.3168 39.4299 40.5441 39.552 40.8509 39.552L40.4929 39.7347C40.723 39.8443 40.7413 40.1548 41.0153 40.2096C41.0153 40.2096 40.8289 40.4214 40.5952 40.3557C40.5952 40.3557 40.6756 40.5749 40.8948 40.6041C40.8948 40.6041 40.6902 40.8378 40.5002 40.9037C40.5002 40.9037 40.6244 40.9913 40.818 40.9549C40.818 40.9549 40.5148 41.4006 40.0619 41.5138L40.3905 41.6928Z" fill="#5AA587"/>
<path d="M39.0704 40.8577C39.0704 40.8577 38.9487 40.8366 38.9383 40.6883C38.9323 40.6029 39.0176 40.4921 39.1627 40.5004C39.3328 40.5102 39.4482 40.736 39.3667 40.8858C39.1581 41.2687 38.3816 41.1149 38.2866 40.9761C38.2866 40.9761 38.9074 41.0053 39.0704 40.8577Z" fill="#5AA587"/>
<path d="M38.7066 42.6768C38.6728 42.6293 38.6455 42.5006 38.7112 42.4211C38.7112 42.4211 38.6756 42.2375 38.5359 42.3033C38.5359 42.3033 38.4765 42.4503 38.5241 42.5527C38.5714 42.6548 38.7066 42.6768 38.7066 42.6768Z" fill="#FFE15A"/>
<path d="M38.4214 42.5755C38.4238 42.4432 38.4534 42.3706 38.5603 42.3597C38.5603 42.3597 38.5876 42.168 38.4287 42.168C38.4287 42.168 38.3109 42.272 38.3098 42.3849C38.3088 42.4975 38.4214 42.5755 38.4214 42.5755Z" fill="#FFE15A"/>
<path d="M38.2454 42.4469C38.2714 42.3171 38.296 42.2268 38.4149 42.218C38.4149 42.218 38.4781 42.0609 38.3029 42.0391C38.3029 42.0391 38.1911 42.1287 38.1698 42.2394C38.1485 42.35 38.2454 42.4469 38.2454 42.4469Z" fill="#FFE15A"/>
<path d="M38.0692 42.246C38.1231 42.125 38.1768 42.0767 38.2947 42.0942C38.2947 42.0942 38.3961 41.9518 38.2563 41.875C38.2563 41.875 38.0861 41.9236 38.041 42.0269C37.996 42.1303 38.0692 42.246 38.0692 42.246Z" fill="#FFE15A"/>
<path d="M35.9889 41.505C35.964 41.4523 35.9599 41.3207 36.0387 41.2542C36.0387 41.2542 36.0363 41.0673 35.887 41.1071C35.887 41.1071 35.8026 41.2413 35.831 41.3503C35.8597 41.4594 35.9889 41.505 35.9889 41.505Z" fill="#FFE15A"/>
<path d="M35.7265 41.3529C35.7524 41.2231 35.7945 41.157 35.9015 41.1652C35.9015 41.1652 35.9625 40.9813 35.8062 40.9531C35.8062 40.9531 35.6718 41.0346 35.6507 41.1454C35.6295 41.2562 35.7265 41.3529 35.7265 41.3529Z" fill="#FFE15A"/>
<path d="M35.576 41.1959C35.6247 41.0728 35.6649 40.9882 35.7836 41.0007C35.7836 41.0007 35.8737 40.8573 35.7052 40.8047C35.7052 40.8047 35.5793 40.8732 35.5386 40.9783C35.4979 41.0835 35.576 41.1959 35.576 41.1959Z" fill="#FFE15A"/>
<path d="M35.4383 40.9648C35.5129 40.8553 35.5744 40.8172 35.6872 40.8554C35.6872 40.8554 35.8123 40.7331 35.6884 40.6328C35.6884 40.6328 35.5123 40.6504 35.4496 40.744C35.3869 40.838 35.4383 40.9648 35.4383 40.9648Z" fill="#FFE15A"/>
<path d="M32.3469 34.2179C32.3231 34.3366 32.3834 34.4663 32.6684 34.5905C32.9533 34.7146 32.946 34.6635 33.136 34.9046C33.326 35.1458 33.3479 35.153 33.5817 35.1967C33.8154 35.2406 33.925 35.9638 33.6474 35.8543C33.3698 35.7447 33.3333 35.5182 33.0265 35.5913C32.7197 35.6645 32.5589 35.7667 32.3179 35.4964C32.3179 35.4964 32.0841 35.8105 32.5224 35.9421C32.9608 36.0737 33.2 36.0837 33.4163 36.1846C33.6329 36.2854 34.4007 36.5321 34.4511 35.8143C34.4658 35.6061 34.3123 35.5257 34.2246 35.3723C34.137 35.2189 34.0493 35.1166 33.8374 34.9486C33.6254 34.7806 33.757 34.6418 33.4137 34.5906C33.0704 34.5394 32.7853 34.5467 32.6832 34.2984C32.5806 34.0499 32.3761 34.0718 32.3469 34.2179Z" fill="#FFE6D7"/>
<path d="M38.1002 37.7008C38.1002 37.7008 38.166 37.439 37.8608 37.3281C37.9324 37.3499 37.9984 37.3694 38.0736 37.3925C38.1378 37.4122 38.1888 37.4307 38.2488 37.4501C38.2722 37.4817 38.3037 37.4984 38.3196 37.5427C38.4125 37.8028 38.1828 38.1402 37.9088 38.1035C37.6752 38.072 37.6089 37.8664 37.6852 37.744C37.7653 37.6158 37.9413 37.5857 38.1002 37.7008Z" fill="#5AA587"/>
<path d="M38.0055 40.4779C38.3368 40.552 38.4859 40.4241 38.4859 40.4241C38.4859 40.4241 38.3642 40.403 38.3538 40.2548C38.3478 40.1693 38.4331 40.0585 38.5782 40.0668C38.7483 40.0766 38.8637 40.3024 38.7821 40.4522C38.6026 40.7815 38.0928 40.7037 37.8682 40.4702C37.8564 40.4462 37.8441 40.4223 37.8335 40.3984C37.8827 40.4295 37.9456 40.4645 38.0055 40.4779Z" fill="#5AA587"/>
<path d="M37.6709 39.9274C37.6625 39.8899 37.6505 39.8521 37.6433 39.8163C38.0327 39.9738 38.1462 39.7755 38.1462 39.7755C38.1462 39.7755 38.0245 39.7544 38.0141 39.6062C38.0081 39.5208 38.0934 39.41 38.2385 39.4184C38.4086 39.4282 38.524 39.654 38.4424 39.8037C38.2522 40.1528 37.913 40.0555 37.6709 39.9274Z" fill="#5AA587"/>
<path d="M36.795 40.1116C37.0213 40.3144 37.1942 40.3032 37.1942 40.3032C37.1942 40.3032 37.1039 40.2191 37.176 40.0893C37.2176 40.0144 37.3496 39.9682 37.4666 40.0544C37.6038 40.1555 37.5772 40.4077 37.4271 40.4886C37.0576 40.6878 36.8179 40.3798 36.6897 40.1319C36.7245 40.127 36.7598 40.1188 36.795 40.1116Z" fill="#5AA587"/>
<path d="M30.9629 39.9138C30.9792 39.8331 31.0637 39.6794 31.1678 39.6688C31.1678 39.6688 31.2906 39.4533 31.1511 39.375C31.1511 39.375 30.9978 39.458 30.9467 39.6062C30.8955 39.7545 30.9629 39.9138 30.9629 39.9138Z" fill="#FFE15A"/>
<path d="M30.8655 39.5241C30.9716 39.3973 31.0475 39.357 31.1232 39.4552C31.1232 39.4552 31.2919 39.2959 31.1923 39.134C31.1923 39.134 31.0362 39.1155 30.9463 39.2243C30.8564 39.3333 30.8655 39.5241 30.8655 39.5241Z" fill="#FFE15A"/>
<path d="M30.8564 39.2183C30.9754 39.1181 31.0622 39.055 31.1437 39.1678C31.1437 39.1678 31.3074 39.079 31.2149 38.8788C31.2149 38.8788 31.0739 38.8524 30.973 38.9388C30.8723 39.0251 30.8564 39.2183 30.8564 39.2183Z" fill="#FFE15A"/>
<path d="M30.905 38.8423C31.0344 38.7793 31.1064 38.7867 31.1664 38.924C31.1664 38.924 31.3426 38.8883 31.3156 38.6709C31.3156 38.6709 31.1706 38.5449 31.0606 38.5997C30.9506 38.6548 30.905 38.8423 30.905 38.8423Z" fill="#FFE15A"/>
<path d="M33.728 34.8309C33.8409 34.8309 33.9325 34.7394 33.9325 34.6264C33.9325 34.5134 33.8409 34.4219 33.728 34.4219C33.615 34.4219 33.5234 34.5134 33.5234 34.6264C33.5234 34.7394 33.615 34.8309 33.728 34.8309Z" fill="#F5F5F5"/>
<path d="M33.728 34.703C33.7689 34.703 33.8021 34.6698 33.8021 34.6288C33.8021 34.5879 33.7689 34.5547 33.728 34.5547C33.687 34.5547 33.6538 34.5879 33.6538 34.6288C33.6538 34.6698 33.687 34.703 33.728 34.703Z" fill="#41479B"/>
<path d="M33.3058 34.0471C33.3975 34.0471 33.4719 33.9727 33.4719 33.881C33.4719 33.7892 33.3975 33.7148 33.3058 33.7148C33.214 33.7148 33.1396 33.7892 33.1396 33.881C33.1396 33.9727 33.214 34.0471 33.3058 34.0471Z" fill="#F5F5F5"/>
<path d="M33.3059 33.9408C33.3392 33.9408 33.3661 33.9139 33.3661 33.8806C33.3661 33.8473 33.3392 33.8203 33.3059 33.8203C33.2726 33.8203 33.2456 33.8473 33.2456 33.8806C33.2456 33.9139 33.2726 33.9408 33.3059 33.9408Z" fill="#41479B"/>
<path d="M39.207 37.8966C39.3962 38.0422 40.0509 37.7213 40.5111 37.8747C41.106 38.073 41.1011 38.4553 41.1011 38.4553C41.1011 38.4553 40.7303 37.9953 40.113 38.2217C39.7714 38.3469 39.5728 38.3535 39.5728 38.3535L39.207 37.8966Z" fill="#FFF5E6"/>
</svg>
