<svg width="56" height="56" viewBox="0 0 56 56" fill="none" xmlns="http://www.w3.org/2000/svg">
<path d="M23.4482 54.7956V41.8438H32.5532V54.7956" stroke="#29A4C1" stroke-width="2" stroke-miterlimit="10" stroke-linejoin="round"/>
<path d="M20.782 22.5938H15.9695V27.4062H20.782V22.5938Z" stroke="#29A4C1" stroke-width="2" stroke-miterlimit="10" stroke-linecap="round" stroke-linejoin="round"/>
<path d="M20.782 32.2188H15.9695V37.0312H20.782V32.2188Z" stroke="#29A4C1" stroke-width="2" stroke-miterlimit="10" stroke-linecap="round" stroke-linejoin="round"/>
<path d="M30.407 22.5938H25.5945V27.4062H30.407V22.5938Z" stroke="#29A4C1" stroke-width="2" stroke-miterlimit="10" stroke-linecap="round" stroke-linejoin="round"/>
<path d="M30.407 32.2188H25.5945V37.0312H30.407V32.2188Z" stroke="#29A4C1" stroke-width="2" stroke-miterlimit="10" stroke-linecap="round" stroke-linejoin="round"/>
<path d="M40.032 22.5938H35.2195V27.4062H40.032V22.5938Z" stroke="#29A4C1" stroke-width="2" stroke-miterlimit="10" stroke-linecap="round" stroke-linejoin="round"/>
<path d="M40.032 32.2188H35.2195V37.0312H40.032V32.2188Z" stroke="#29A4C1" stroke-width="2" stroke-miterlimit="10" stroke-linecap="round" stroke-linejoin="round"/>
<path d="M36.5229 9.49219H46.8042" stroke="#1A2F46" stroke-width="2" stroke-miterlimit="10" stroke-linecap="round" stroke-linejoin="round"/>
<path d="M19.5061 9.49219H9.22485" stroke="#1A2F46" stroke-width="2" stroke-miterlimit="10" stroke-linecap="round" stroke-linejoin="round"/>
<path d="M11.157 32.5693V9.58984" stroke="#1A2F46" stroke-width="2" stroke-miterlimit="10" stroke-linejoin="round"/>
<path d="M44.8445 9.58984V32.22" stroke="#1A2F46" stroke-width="2" stroke-miterlimit="10" stroke-linejoin="round"/>
<path d="M36.3042 1.20312H19.7249V17.7825H36.3042V1.20312Z" stroke="#29A4C1" stroke-width="2" stroke-miterlimit="10" stroke-linecap="round" stroke-linejoin="round"/>
<path d="M25.5945 6.01562V12.97" stroke="#29A4C1" stroke-width="2" stroke-miterlimit="10" stroke-linecap="round" stroke-linejoin="round"/>
<path d="M30.407 6.01562V12.97" stroke="#29A4C1" stroke-width="2" stroke-miterlimit="10" stroke-linecap="round" stroke-linejoin="round"/>
<path d="M25.5945 9.375H30.407" stroke="#29A4C1" stroke-width="2" stroke-miterlimit="10" stroke-linecap="round" stroke-linejoin="round"/>
<path d="M51.4583 42.5826C51.9789 41.4681 52.0169 40.1383 51.4484 38.94C50.9581 37.9065 50.1062 37.1617 49.1161 36.7825C49.0832 34.4507 47.1839 32.5703 44.8444 32.5703C42.5048 32.5703 40.6054 34.4507 40.5726 36.7825C39.5826 37.1617 38.7306 37.9065 38.2403 38.94C37.6718 40.1383 37.7097 41.468 38.2305 42.5826C37.6868 43.3201 37.365 44.2312 37.365 45.2177C37.365 47.6731 39.3555 49.6637 41.811 49.6637C42.9839 49.6637 44.05 49.2087 44.8445 48.4665C45.639 49.2087 46.7051 49.6637 47.878 49.6637C50.3335 49.6637 52.324 47.6731 52.324 45.2177C52.3238 44.2312 52.002 43.3201 51.4583 42.5826Z" stroke="#1A2F46" stroke-width="2" stroke-miterlimit="10" stroke-linejoin="round"/>
<path d="M44.844 54.7984V43.9141" stroke="#1A2F46" stroke-width="2" stroke-miterlimit="10" stroke-linecap="round" stroke-linejoin="round"/>
<path d="M4.54222 42.5826C4.02159 41.4681 3.98364 40.1383 4.55206 38.94C5.04239 37.9065 5.89431 37.1617 6.88437 36.7825C6.91729 34.4507 8.81659 32.5703 11.1561 32.5703C13.4957 32.5703 15.3951 34.4507 15.4279 36.7825C16.4179 37.1617 17.2699 37.9065 17.7602 38.94C18.3287 40.1383 18.2908 41.468 17.77 42.5826C18.3137 43.3201 18.6355 44.2312 18.6355 45.2177C18.6355 47.6731 16.645 49.6637 14.1895 49.6637C13.0166 49.6637 11.9505 49.2087 11.156 48.4665C10.3615 49.2087 9.29544 49.6637 8.1225 49.6637C5.66703 49.6637 3.67651 47.6731 3.67651 45.2177C3.67673 44.2312 3.99851 43.3201 4.54222 42.5826Z" stroke="#1A2F46" stroke-width="2" stroke-miterlimit="10" stroke-linejoin="round"/>
<path d="M11.1567 54.7984V43.9141" stroke="#1A2F46" stroke-width="2" stroke-miterlimit="10" stroke-linecap="round" stroke-linejoin="round"/>
<path d="M49.999 54.7969H6.03027" stroke="#1A2F46" stroke-width="2" stroke-miterlimit="10" stroke-linecap="round" stroke-linejoin="round"/>
</svg>
