<svg width="56" height="56" viewBox="0 0 56 56" fill="none" xmlns="http://www.w3.org/2000/svg">
<g clip-path="url(#clip0_3084_45999)">
<path d="M47.9066 8.33299L47.6659 8.08799C45.8832 6.32674 43.8734 4.81127 41.6897 3.58174C36.9304 0.902375 31.4895 -0.321835 26.0412 0.0607747C20.5929 0.443384 15.3766 2.416 11.0384 5.73424C8.51471 7.66201 6.3345 10.002 4.58969 12.6555C1.07321 18.0069 -0.497995 24.404 0.139164 30.7755C0.776322 37.1471 3.58316 43.1064 8.08969 47.6555C8.12469 47.6992 8.28219 47.8524 8.33032 47.8961C10.742 50.2799 13.5658 52.2068 16.6647 53.5836C20.3777 55.2299 24.4049 56.0475 28.4659 55.9795C32.527 55.9115 36.5245 54.9595 40.1803 53.1899C46.3184 50.2108 51.1637 45.1012 53.8128 38.8136C56.5346 32.3373 56.7143 25.0728 54.3159 18.4699C53.8591 17.2151 53.3138 15.9943 52.6841 14.8167C51.3986 12.4362 49.7779 10.2526 47.8716 8.33299H47.9066ZM14.3634 5.57674C18.0778 7.65049 20.9784 9.51424 21.7747 10.2974C23.1441 11.6799 24.6097 13.9286 24.6053 15.0749C24.6009 16.2211 24.5528 18.1374 24.5222 19.2399L21.8753 18.8111C21.0003 17.4286 19.6878 15.4686 17.8416 12.5899L16.8222 11.0149C16.6957 10.8199 16.497 10.6832 16.2697 10.6348C16.0424 10.5864 15.8053 10.6303 15.6103 10.7567C15.4154 10.8832 15.2787 11.082 15.2303 11.3092C15.1819 11.5365 15.2257 11.7737 15.3522 11.9686L16.3759 13.5392C22.2428 22.5867 22.2428 22.5867 22.9909 23.7767C24.0322 25.4305 23.4503 26.5767 22.7766 27.2417C22.6099 27.4054 22.4047 27.5244 22.1799 27.5879C21.9551 27.6513 21.718 27.6572 21.4903 27.6049C20.7688 27.4325 20.1153 27.0486 19.6134 26.5024C19.4207 26.2871 19.2465 26.0558 19.0928 25.8111C18.7603 25.3255 18.2572 24.5949 17.1897 23.2692C16.8091 22.7967 16.4503 22.3636 16.1091 21.9567C16.0457 21.8115 15.9426 21.6871 15.8116 21.598C14.4991 20.0361 13.4972 18.9467 12.8322 18.2249C12.6047 17.9755 12.4209 17.7874 12.2897 17.6255C11.6728 16.9299 10.7541 16.7505 9.77844 16.5405C8.46594 16.2692 6.94782 15.9586 5.55657 14.3924C7.74893 10.7949 10.7682 7.77268 14.3634 5.57674ZM8.00219 17.9361C8.51407 18.0849 8.99532 18.1855 9.42844 18.273L9.55532 18.2992C9.34532 19.6117 9.00844 22.5211 9.73032 23.4355C9.90969 23.6586 10.1678 24.0655 10.4434 24.503C10.7759 25.0236 11.1347 25.5924 11.5022 26.0824C11.4468 26.2292 11.362 26.3632 11.2529 26.4761C11.1438 26.5889 11.0127 26.6783 10.8678 26.7386C10.6334 26.8635 10.3602 26.894 10.1041 26.8241C9.84788 26.7542 9.62811 26.589 9.48969 26.3624C8.90344 25.4874 6.97407 21.5499 6.93032 20.8236C6.93032 20.4036 7.43782 19.0736 8.00219 17.9361ZM12.8147 24.9055C12.5128 24.468 12.1978 23.9955 11.9397 23.5667C11.6816 23.138 11.3797 22.6917 11.1522 22.3855C10.9728 21.9217 11.0822 20.1499 11.2134 19.0474L11.5634 19.428C12.1759 20.093 13.0816 21.0774 14.2453 22.4555L12.8147 24.9055ZM4.66844 15.9936C5.1763 16.4947 5.75216 16.9218 6.37907 17.2624C5.94157 18.2205 5.18469 19.918 5.18032 20.8017C5.18032 22.1536 7.64782 26.7299 8.03282 27.3117C8.28004 27.7021 8.62172 28.0238 9.02626 28.2471C9.4308 28.4704 9.88512 28.5881 10.3472 28.5892C10.4594 28.5958 10.5719 28.5958 10.6841 28.5892L8.93407 31.608C8.90744 31.6517 8.88684 31.6988 8.87282 31.748C8.85992 31.7863 8.85112 31.8259 8.84657 31.8661V31.9142C8.84438 31.9492 8.84438 31.9843 8.84657 32.0192C8.84657 32.0192 8.84657 32.063 8.84657 32.0849C8.84449 32.1155 8.84449 32.1462 8.84657 32.1767C8.84484 32.2015 8.84484 32.2264 8.84657 32.2511C8.85265 32.2768 8.86145 32.3017 8.87282 32.3255C8.88037 32.3541 8.89063 32.3819 8.90344 32.4086L8.94282 32.4742L8.99094 32.553L9.06094 32.6274L9.10907 32.6799C9.15349 32.7197 9.20186 32.7549 9.25344 32.7849L15.1947 36.2236C15.3265 36.3039 15.4779 36.3462 15.6322 36.3461C15.8259 36.3475 16.0146 36.2845 16.1687 36.167C16.3228 36.0496 16.4336 35.8843 16.4836 35.6972C16.5337 35.51 16.5202 35.3115 16.4453 35.1328C16.3703 34.9541 16.2383 34.8054 16.0697 34.7099L10.8897 31.7086L15.4222 23.873L15.8247 24.3717C16.8528 25.6449 17.3297 26.3449 17.6491 26.8042C17.8598 27.1367 18.1031 27.4474 18.3753 27.7317C19.1292 28.5361 20.1133 29.0877 21.1928 29.3111C21.3981 29.3458 21.6059 29.3633 21.8141 29.3636C22.2184 29.3694 22.6199 29.2951 22.9953 29.1449C23.3708 28.9947 23.7128 28.7717 24.0016 28.4886C24.5426 27.9801 24.9358 27.3344 25.1391 26.6203C25.3425 25.9062 25.3485 25.1503 25.1566 24.433L26.2066 25.0236C26.3068 25.0811 26.4174 25.1182 26.532 25.1329C26.6466 25.1476 26.763 25.1396 26.8745 25.1094C26.9861 25.0791 27.0905 25.0272 27.182 24.9565C27.2734 24.8859 27.35 24.7979 27.4075 24.6977C27.465 24.5974 27.5021 24.4868 27.5168 24.3722C27.5315 24.2576 27.5235 24.1412 27.4933 24.0297C27.463 23.9182 27.4111 23.8137 27.3404 23.7223C27.2698 23.6308 27.1818 23.5542 27.0816 23.4967L23.6691 21.5761L23.1572 20.7842L29.6059 21.8736C29.654 21.8779 29.7023 21.8779 29.7503 21.8736C29.8652 21.8831 29.9809 21.8699 30.0907 21.8346C30.2004 21.7994 30.3022 21.7429 30.3902 21.6684C30.4781 21.5938 30.5505 21.5027 30.6033 21.4002C30.656 21.2976 30.688 21.1857 30.6975 21.0708C30.707 20.9559 30.6937 20.8403 30.6585 20.7305C30.6233 20.6207 30.5668 20.5189 30.4923 20.4309C30.4177 20.343 30.3266 20.2706 30.224 20.2178C30.1215 20.1651 30.0096 20.1331 29.8947 20.1236L26.2503 19.5286C26.2766 18.4699 26.3334 16.2911 26.3378 15.0836C26.3378 12.9924 24.1503 10.2317 22.9997 9.06362C21.8491 7.89549 18.3972 5.85237 16.1616 4.57924C20.9578 2.1484 26.3862 1.25336 31.7089 2.01576C37.0317 2.77816 41.9906 5.16104 45.9116 8.84049L8.84219 45.9361C5.13889 41.9912 2.7491 36.9956 2.00167 31.6366C1.25424 26.2777 2.18589 20.8188 4.66844 16.0111V15.9936ZM28.0003 54.2486C21.3361 54.2559 14.9203 51.7193 10.0628 47.1567L47.1584 10.0611C50.6552 13.7972 52.9837 18.4739 53.8576 23.516C54.7314 28.558 54.1125 33.7456 52.077 38.4405C50.0414 43.1354 46.678 47.133 42.4004 49.9416C38.1228 52.7502 33.1175 54.2472 28.0003 54.2486Z" fill="#1A2F46"/>
<path d="M49.7222 24.0044C49.6566 23.9085 49.5725 23.8265 49.4748 23.7634C49.3771 23.7003 49.2679 23.6573 49.1534 23.6369L38.5441 21.7557C38.3155 21.7151 38.0801 21.7669 37.8898 21.8999C37.6994 22.0328 37.5697 22.2359 37.5291 22.4644C37.4884 22.693 37.5403 22.9284 37.6732 23.1187C37.8061 23.3091 38.0092 23.4388 38.2378 23.4794L47.9678 25.2032L45.2466 38.8094L41.6503 38.2101L43.9822 34.0144C44.0404 33.9139 44.078 33.8027 44.0927 33.6875C44.1075 33.5722 44.0992 33.4552 44.0682 33.3432C44.0373 33.2312 43.9843 33.1265 43.9124 33.0351C43.8406 32.9438 43.7513 32.8677 43.6497 32.8113L33.7228 27.2376C33.6228 27.1801 33.5125 27.1429 33.3982 27.1281C33.2838 27.1133 33.1677 27.1211 33.0564 27.1512C32.9451 27.1812 32.8408 27.2329 32.7494 27.3033C32.6581 27.3737 32.5815 27.4613 32.5241 27.5613C32.4666 27.6613 32.4294 27.7716 32.4146 27.8859C32.3998 28.0003 32.4076 28.1164 32.4377 28.2277C32.4677 28.3391 32.5194 28.4434 32.5898 28.5347C32.6602 28.626 32.7478 28.7026 32.8478 28.7601L42.0353 33.9226L35.3678 45.9013L22.2034 38.2669C22.0035 38.1623 21.7708 38.139 21.5541 38.2019C21.3373 38.2648 21.1532 38.409 21.0403 38.6044C20.9274 38.7998 20.8943 39.0312 20.948 39.2504C21.0017 39.4696 21.138 39.6596 21.3284 39.7807L35.2584 47.8613C35.3914 47.9384 35.5423 47.9792 35.6959 47.9794C35.7741 47.9776 35.8518 47.9673 35.9278 47.9488C36.041 47.9154 36.1462 47.8594 36.2372 47.7842C36.3282 47.709 36.403 47.6162 36.4572 47.5113L40.7403 39.8157L45.7934 40.6863C45.8415 40.6906 45.8898 40.6906 45.9378 40.6863C46.1431 40.6902 46.3433 40.6218 46.5033 40.4931C46.6632 40.3643 46.7728 40.1834 46.8128 39.9819L49.8753 24.6694C49.8956 24.554 49.8926 24.4356 49.8663 24.3214C49.8399 24.2072 49.791 24.0994 49.7222 24.0044Z" fill="#29A4C1"/>
</g>
<defs>
<clipPath id="clip0_3084_45999">
<rect width="56" height="56" fill="white" transform="translate(0.000244141)"/>
</clipPath>
</defs>
</svg>
