<svg width="56" height="56" viewBox="0 0 56 56" fill="none" xmlns="http://www.w3.org/2000/svg">
<g clip-path="url(#clip0_3084_45854)">
<path d="M17.522 6.20703H14.6575L23.5527 30.6689H35.7837L23.2656 9.48445C22.0653 7.45325 19.8814 6.20703 17.522 6.20703Z" stroke="#1A2F46" stroke-width="2" stroke-miterlimit="10" stroke-linecap="round" stroke-linejoin="round"/>
<path d="M14.6574 6.20703H12.4336" stroke="#1A2F46" stroke-width="2" stroke-miterlimit="10" stroke-linecap="round" stroke-linejoin="round"/>
<path d="M54.797 30.6675H43.678V23.9961" stroke="#29A4C1" stroke-width="2" stroke-miterlimit="10" stroke-linecap="round" stroke-linejoin="round"/>
<path d="M21.1267 23.9968H10.0986L5.65099 15.1016H1.20337L3.42718 30.6682L5.31926 32.9388C7.64304 35.7273 11.0854 37.3397 14.7153 37.3397H48.1257C51.8102 37.3397 54.7971 34.3528 54.7971 30.6682C54.7971 26.9837 51.8102 23.9968 48.1257 23.9968H31.8414" stroke="#1A2F46" stroke-width="2" stroke-miterlimit="10" stroke-linecap="round" stroke-linejoin="round"/>
<path d="M52.6074 10.3442C53.9291 9.44366 54.7972 7.92663 54.7972 6.2067C54.7972 3.44334 52.557 1.20312 49.7936 1.20312C47.0303 1.20312 44.79 3.44334 44.79 6.2067" stroke="#1A2F46" stroke-width="2" stroke-miterlimit="10" stroke-linecap="round" stroke-linejoin="round"/>
<path d="M16.8812 48.1248C16.8812 46.2826 15.3878 44.7891 13.5455 44.7891H6.87405C5.03185 44.7891 3.53833 46.2825 3.53833 48.1248C3.53833 49.967 5.03174 51.4605 6.87405 51.4605H12.4336C12.4336 53.3028 13.927 54.7962 15.7693 54.7962H22.4407C24.2829 54.7962 25.7765 53.3028 25.7765 51.4605C25.7765 49.6182 24.283 48.1248 22.4407 48.1248H16.8812Z" stroke="#29A4C1" stroke-width="2" stroke-miterlimit="10" stroke-linecap="round" stroke-linejoin="round"/>
<path d="M46.3466 50.6832H38.5633C36.7209 50.6832 35.2275 49.1897 35.2275 47.3474C35.2275 45.5051 36.7209 44.0117 38.5633 44.0117H46.3466C48.1889 44.0117 49.6823 45.5051 49.6823 47.3474C49.6822 49.1897 48.1888 50.6832 46.3466 50.6832Z" stroke="#29A4C1" stroke-width="2" stroke-miterlimit="10" stroke-linecap="round" stroke-linejoin="round"/>
<path d="M49.1263 10.0974C49.1263 8.25513 47.6329 6.76172 45.7906 6.76172H42.4549C40.6125 6.76172 39.1191 8.25513 39.1191 10.0974C39.1191 11.9398 40.6125 13.4332 42.4549 13.4332H44.6787C44.6787 15.2754 46.1721 16.7689 48.0144 16.7689H51.3501C53.1924 16.7689 54.6858 15.2755 54.6858 13.4332C54.6858 11.591 53.1924 10.0974 51.3501 10.0974H49.1263Z" stroke="#29A4C1" stroke-width="2" stroke-miterlimit="10" stroke-linecap="round" stroke-linejoin="round"/>
</g>
<defs>
<clipPath id="clip0_3084_45854">
<rect width="56" height="56" fill="white" transform="translate(0.000244141)"/>
</clipPath>
</defs>
</svg>
