<svg width="56" height="56" viewBox="0 0 56 56" fill="none" xmlns="http://www.w3.org/2000/svg">
<path d="M10.6481 37.6794C11.228 37.6794 11.6979 38.1493 11.6979 38.7292C11.6979 39.3091 11.228 39.779 10.6481 39.779C10.0682 39.779 9.59828 39.3091 9.59828 38.7292C9.59828 38.1493 10.0682 37.6794 10.6481 37.6794ZM16.2371 37.6794C16.817 37.6794 17.2869 38.1493 17.2869 38.7292C17.2869 39.3091 16.817 39.779 16.2371 39.779C15.6572 39.779 15.1873 39.3091 15.1873 38.7292C15.1873 38.1493 15.6572 37.6794 16.2371 37.6794ZM27.5851 27.3112C27.0352 27.3112 26.5853 27.7612 26.5853 28.3111V28.411C26.5853 28.961 27.0352 29.4109 27.5851 29.4109C29.1248 29.4109 30.3646 30.6606 30.3646 32.1904V45.458C30.3646 46.9877 29.1048 48.2475 27.5751 48.2475H11.278C10.998 48.2475 10.7281 48.3575 10.5381 48.5575L7.21871 51.8769V49.2973C7.21871 48.7174 6.74879 48.2475 6.1689 48.2475H4.88913C3.3494 48.2475 2.09963 46.9977 2.09963 45.458V32.1904C2.09963 30.6506 3.3494 29.4009 4.88913 29.4009H10.6381C11.218 29.4009 11.6879 28.931 11.6879 28.3511C11.6879 27.7712 11.218 27.3012 10.6381 27.3012H4.88913C2.18961 27.3012 0 29.4909 0 32.1904V45.458C0 48.1575 2.18961 50.3471 4.88913 50.3471H5.10909V54.4064C5.10909 54.8363 5.36904 55.2163 5.75897 55.3762C5.88895 55.4262 6.02892 55.4562 6.1589 55.4562C6.42885 55.4562 6.6988 55.3462 6.89877 55.1463L11.7079 50.3371H27.5751C30.2746 50.3371 32.4642 48.1475 32.4642 45.448V32.1704C32.4642 29.4709 30.2746 27.2812 27.5751 27.2812L27.5851 27.3112ZM21.8361 37.6794C22.416 37.6794 22.8859 38.1493 22.8859 38.7292C22.8859 39.3091 22.416 39.779 21.8361 39.779C21.2562 39.779 20.7863 39.3091 20.7863 38.7292C20.7863 38.1493 21.2562 37.6794 21.8361 37.6794Z" fill="#1A2F46"/>
<path d="M37.2934 0.209217H33.764C23.4359 0.209217 15.0674 8.57772 15.0674 18.9059V31.4836C15.0674 33.4433 16.3772 35.253 18.3068 35.6429C20.9363 36.1828 23.2559 34.1731 23.2559 31.6436V25.7247C23.2559 23.785 21.9761 22.0053 20.0865 21.5854C19.0267 21.3454 18.0069 21.5354 17.177 21.9953V18.9059C17.177 9.74751 24.6057 2.31884 33.764 2.31884H37.2934C46.4518 2.31884 53.8804 9.74751 53.8804 18.9059V21.9953C53.0406 21.5254 52.0308 21.3454 50.971 21.5854C49.0813 22.0053 47.8015 23.795 47.8015 25.7347V31.4836C47.8015 33.4233 49.0713 35.213 50.971 35.6329C52.0308 35.8728 53.0506 35.6829 53.8804 35.223V40.372C53.8804 42.3917 52.2407 44.0214 50.2311 44.0214H50.0511C49.5012 42.1117 47.5316 40.792 45.362 41.3119C43.9822 41.6418 42.8624 42.7716 42.5425 44.1514C41.9526 46.6909 43.8722 48.9605 46.3218 48.9605C48.1015 48.9605 49.6012 47.7507 50.0611 46.121H50.2411C53.4205 46.121 56.0001 43.5415 56.0001 40.362V18.8959C56.0001 8.56772 47.6316 0.199219 37.3034 0.199219L37.2934 0.209217ZM19.8165 23.685C20.6464 23.955 21.1463 24.7848 21.1463 25.6547V31.5536C21.1463 32.4235 20.6364 33.2633 19.8165 33.5233C18.4468 33.9632 17.177 32.9534 17.177 31.6436V25.5647C17.177 24.2549 18.4468 23.2451 19.8165 23.685ZM53.8904 31.6436C53.8904 32.9534 52.6207 33.9632 51.2509 33.5233C50.4211 33.2633 49.9112 32.4235 49.9112 31.5536V25.6547C49.9112 24.7848 50.4211 23.955 51.2409 23.685C52.6107 23.2451 53.8804 24.2549 53.8804 25.5647V31.6436H53.8904Z" fill="#1C8CA7"/>
</svg>
