<svg width="56" height="56" viewBox="0 0 56 56" fill="none" xmlns="http://www.w3.org/2000/svg">
<g clip-path="url(#clip0_3084_44842)">
<path d="M28.0001 6.01562L30.1591 9.26516L33.9168 10.3143L31.4934 13.3717L31.6568 17.2697L28.0001 15.9097L24.3435 17.2697L24.5069 13.3717L22.0835 10.3143L25.8412 9.26516L28.0001 6.01562Z" stroke="#29A4C1" stroke-width="2" stroke-miterlimit="10" stroke-linejoin="round"/>
<path d="M28.0001 42.2687C30.8853 42.2687 33.2243 39.9297 33.2243 37.0445C33.2243 34.1593 30.8853 31.8203 28.0001 31.8203C25.1148 31.8203 22.7759 34.1593 22.7759 37.0445C22.7759 39.9297 25.1148 42.2687 28.0001 42.2687Z" stroke="#1A2F46" stroke-width="2" stroke-miterlimit="10" stroke-linejoin="round"/>
<path d="M16.9641 54.7982V53.3056C16.9641 47.2105 21.9051 42.2695 28.0002 42.2695C34.0952 42.2695 39.0362 47.2105 39.0362 53.3056V54.7982H16.9641Z" stroke="#1A2F46" stroke-width="2" stroke-miterlimit="10" stroke-linejoin="round"/>
<path d="M45.5753 44.3284C47.9863 44.3284 49.9407 42.374 49.9407 39.963C49.9407 37.5521 47.9863 35.5977 45.5753 35.5977C43.1644 35.5977 41.21 37.5521 41.21 39.963C41.21 42.374 43.1644 44.3284 45.5753 44.3284Z" stroke="#1A2F46" stroke-width="2" stroke-miterlimit="10" stroke-linejoin="round"/>
<path d="M37.8367 48.5326C39.4808 46.0019 42.3326 44.3281 45.5754 44.3281C50.6684 44.3281 54.7972 48.4569 54.7972 53.55V54.7972H39.0364" stroke="#1A2F46" stroke-width="2" stroke-miterlimit="10" stroke-linejoin="round"/>
<path d="M10.4252 44.3284C12.8361 44.3284 14.7906 42.374 14.7906 39.963C14.7906 37.5521 12.8361 35.5977 10.4252 35.5977C8.01426 35.5977 6.05981 37.5521 6.05981 39.963C6.05981 42.374 8.01426 44.3284 10.4252 44.3284Z" stroke="#1A2F46" stroke-width="2" stroke-miterlimit="10" stroke-linejoin="round"/>
<path d="M16.9642 54.7973H1.20337V53.55C1.20337 48.4569 5.33217 44.3281 10.4252 44.3281C13.6084 44.3281 16.4149 45.941 18.0721 48.3939" stroke="#1A2F46" stroke-width="2" stroke-miterlimit="10" stroke-linejoin="round"/>
<path d="M28.0003 23.2702C34.094 23.2702 39.0339 18.3303 39.0339 12.2367C39.0339 6.143 34.094 1.20312 28.0003 1.20312C21.9067 1.20312 16.9668 6.143 16.9668 12.2367C16.9668 18.3303 21.9067 23.2702 28.0003 23.2702Z" stroke="#1A2F46" stroke-width="2" stroke-miterlimit="10" stroke-linejoin="round"/>
</g>
<defs>
<clipPath id="clip0_3084_44842">
<rect width="56" height="56" fill="white" transform="translate(0.000244141)"/>
</clipPath>
</defs>
</svg>
