<svg width="56" height="56" viewBox="0 0 56 56" fill="none" xmlns="http://www.w3.org/2000/svg">
<path d="M6.56274 23.1875C9.28102 23.1875 11.4846 20.9839 11.4846 18.2656C11.4846 15.5473 9.28102 13.3438 6.56274 13.3438C3.84447 13.3438 1.64087 15.5473 1.64087 18.2656C1.64087 20.9839 3.84447 23.1875 6.56274 23.1875Z" stroke="#29A4C1" stroke-width="2" stroke-miterlimit="10"/>
<path d="M12.4455 36.3122L7.80518 31.6719" stroke="#1A2F46" stroke-width="2" stroke-miterlimit="10"/>
<path d="M49.4377 23.1875C52.156 23.1875 54.3596 20.9839 54.3596 18.2656C54.3596 15.5473 52.156 13.3438 49.4377 13.3438C46.7195 13.3438 44.5159 15.5473 44.5159 18.2656C44.5159 20.9839 46.7195 23.1875 49.4377 23.1875Z" stroke="#29A4C1" stroke-width="2" stroke-miterlimit="10"/>
<path d="M43.5549 36.3122L48.1953 31.6719" stroke="#1A2F46" stroke-width="2" stroke-miterlimit="10"/>
<path d="M21.4377 36.3125C23.25 36.3125 24.719 34.8435 24.719 33.0312C24.719 31.219 23.25 29.75 21.4377 29.75H15.164L10.0442 24.6303C9.1534 23.7389 7.92249 23.1875 6.56274 23.1875C3.84445 23.1875 1.64087 25.3911 1.64087 28.1094V49.4375H54.3596V28.1094C54.3596 25.3911 52.156 23.1875 49.4377 23.1875C48.078 23.1875 46.8471 23.7389 45.9563 24.6303L40.8365 29.75H34.5627C32.7505 29.75 31.2815 31.219 31.2815 33.0312C31.2815 34.8435 32.7505 36.3125 34.5627 36.3125" stroke="#1A2F46" stroke-width="2" stroke-miterlimit="10"/>
<path d="M43.5549 49.4375V36.3125H12.4456V49.4375" stroke="#1A2F46" stroke-width="2" stroke-miterlimit="10"/>
<path d="M1.64087 42.875H12.4456" stroke="#1A2F46" stroke-width="2" stroke-miterlimit="10"/>
<path d="M43.5549 42.875H54.3597" stroke="#1A2F46" stroke-width="2" stroke-miterlimit="10"/>
<path d="M32.9221 11.4844C32.9221 14.2027 30.7185 16.4062 28.0002 16.4062C25.2819 16.4062 23.0784 14.2027 23.0784 11.4844C23.0784 8.76608 25.2819 6.5625 28.0002 6.5625C30.7185 6.5625 32.9221 8.76608 32.9221 11.4844Z" stroke="#29A4C1" stroke-width="2" stroke-miterlimit="10"/>
<path d="M36.2034 29.75V24.6094C36.2034 20.079 32.5307 16.4062 28.0002 16.4062C23.4698 16.4062 19.7971 20.079 19.7971 24.6094V29.75" stroke="#1A2F46" stroke-width="2" stroke-miterlimit="10"/>
</svg>
