<svg width="44" height="44" viewBox="0 0 44 44" fill="none" xmlns="http://www.w3.org/2000/svg">
<path fill-rule="evenodd" clip-rule="evenodd" d="M15.904 34.6701H0.515557C0.128914 34.6701 -0.103072 34.2577 0.0773614 33.9226L6.05744 22.8646C6.28943 22.4522 7.24315 22.6068 8.09376 22.6068C8.24842 22.2975 8.78972 21.3696 9.51146 20.1323C9.97543 20.1323 10.3621 20.1839 10.5425 20.1323L13.3779 18.9208L13.5841 21.8078C13.5841 22.0655 13.8161 22.2717 14.0996 22.2717C14.2543 22.2717 14.1512 22.7099 14.2285 22.5553L15.6204 17.7609C15.7751 17.4516 17.4505 10.2085 17.3732 9.7445L17.2959 9.58984L21.3685 17.7867C22.116 17.7867 23.2244 17.6578 23.4822 17.9929L25.7505 20.854C25.8794 21.0345 25.9051 21.2922 25.7505 21.4727L16.3164 34.4639C16.239 34.5928 16.0844 34.6701 15.904 34.6701Z" fill="#6F6F6F"/>
<path fill-rule="evenodd" clip-rule="evenodd" d="M11.2642 34.6676H2.44873L8.2226 26.1099C8.45459 25.7748 8.91856 25.8006 9.09899 26.1357L10.7487 29.1773C11.4446 28.8422 12.0117 28.3782 12.3983 28.6617C12.553 28.7906 12.6303 28.9968 12.5788 29.1773C12.5788 29.1773 11.8313 32.9664 11.2642 34.6676Z" fill="#565656"/>
<path fill-rule="evenodd" clip-rule="evenodd" d="M9.51147 20.1317C11.4962 16.7035 14.744 11.0327 14.8729 10.9296L16.4968 9.46037C16.8061 9.15105 17.399 9.38304 17.3474 9.87279C17.2701 10.8523 16.7804 18.5594 16.5999 18.8171L14.2285 22.5547C13.9708 22.9671 13.3264 22.8124 13.3006 22.3227L13.0944 19.4358L10.5425 20.1317C10.4136 20.1575 10.027 20.1575 9.51147 20.1317Z" fill="#DADADB"/>
<path fill-rule="evenodd" clip-rule="evenodd" d="M15.3884 34.6714C15.3884 34.5683 15.4142 34.4394 15.4915 34.3363L21.1365 26.5776L25.6731 25.3404L25.8793 27.9953C25.9051 28.4851 26.5495 28.6397 26.8331 28.2273L29.0498 24.7475C29.1787 24.5413 29.5911 19.1283 29.7973 16.2414L29.6942 16.0352L34.9526 25.8301C34.901 25.7786 34.8495 25.6755 34.7979 25.5208L34.9526 25.8301L39.4634 30.1347C39.8243 30.4698 40.3914 30.1347 40.3398 29.6708L40.1078 27.8664L43.9227 34.3878C43.9743 34.4909 43.9743 34.594 43.9743 34.6714H15.3884Z" fill="#565656"/>
<path fill-rule="evenodd" clip-rule="evenodd" d="M34.7979 25.5195L34.9525 25.8288C34.901 25.7773 34.8494 25.6742 34.7979 25.5195ZM34.9525 25.8288L38.587 25.7773C38.7674 25.7773 38.9478 25.8804 39.0252 26.0351L40.1078 27.8652L40.3397 29.6695C40.3913 30.1335 39.8242 30.4686 39.4633 30.1335L34.9525 25.8288Z" fill="#DADADB"/>
<path fill-rule="evenodd" clip-rule="evenodd" d="M21.1365 26.574L28.8178 15.98C29.1787 15.4902 29.7457 15.9542 29.7973 16.2378C29.5911 19.1247 29.1787 24.5377 29.0498 24.7439L26.833 28.2237C26.5495 28.6361 25.9051 28.4815 25.8793 27.9917L25.6731 25.3368L21.1365 26.574Z" fill="#DADADB"/>
</svg>
