<svg width="56" height="56" viewBox="0 0 56 56" fill="none" xmlns="http://www.w3.org/2000/svg">
<g clip-path="url(#clip0_3017_44725)">
<path d="M43.5752 9.53722C44.4502 11.0247 45.4127 12.2497 46.6377 13.0372C47.8627 13.8247 49.1752 14.3497 50.4877 13.9997C49.5252 10.0622 45.7627 8.13722 43.5752 9.53722Z" fill="url(#paint0_linear_3017_44725)"/>
<path d="M52.0626 4.89844C53.2876 7.08594 53.5501 9.27344 53.2001 10.9359C52.8501 12.5984 51.8001 13.7359 50.4876 13.9984C49.6126 10.3234 49.7001 6.29844 52.0626 4.89844Z" fill="url(#paint1_linear_3017_44725)"/>
<path d="M45.8501 15.575C46.2001 17.15 46.9001 18.55 47.7751 19.6C48.6501 20.65 49.8751 21.4375 51.1876 21.525C51.3626 17.5875 48.3876 14.875 45.8501 15.575Z" fill="url(#paint2_linear_3017_44725)"/>
<path d="M55.3 13.5625C55.825 15.8375 55.475 17.9375 54.6 19.425C53.725 20.9125 52.5 21.6125 51.1875 21.6125C51.3625 17.85 52.675 14.2625 55.3 13.5625Z" fill="url(#paint3_linear_3017_44725)"/>
<path d="M46.3748 21.875C46.2873 23.45 46.5498 24.9375 47.1623 26.1625C47.7748 27.3875 48.6498 28.525 49.9623 28.875C51.0998 25.1125 48.9998 21.875 46.3748 21.875Z" fill="url(#paint4_linear_3017_44725)"/>
<path d="M55.9999 22.3984C55.8249 24.6734 54.9499 26.5984 53.8124 27.7359C52.5874 28.8734 51.1874 29.3109 49.9624 28.8734C51.0124 25.3734 53.2874 22.3984 55.9999 22.3984Z" fill="url(#paint5_linear_3017_44725)"/>
<path d="M45.1501 27.9102C44.6251 29.3977 44.5376 30.8852 44.8001 32.2852C45.0626 33.6852 45.6751 34.9102 46.8126 35.6977C48.8251 32.2852 47.6876 28.6102 45.1501 27.9102Z" fill="url(#paint6_linear_3017_44725)"/>
<path d="M54.3375 30.9731C53.6375 33.0731 52.2375 34.7356 50.8375 35.5231C49.35 36.3106 47.95 36.3106 46.8125 35.6106C48.7375 32.5481 51.7125 30.1856 54.3375 30.9731Z" fill="url(#paint7_linear_3017_44725)"/>
<path d="M42.4374 33.4219C41.5624 34.7344 41.0374 36.1344 40.9499 37.5344C40.8624 38.9344 41.0374 40.3344 41.9124 41.2969C44.8874 38.6719 44.7124 34.7344 42.4374 33.4219Z" fill="url(#paint8_linear_3017_44725)"/>
<path d="M50.4876 38.7593C49.2626 40.5968 47.5126 41.8218 45.8501 42.2593C44.2751 42.6968 42.7876 42.2593 41.9126 41.2968C44.7126 38.8468 48.1251 37.3593 50.4876 38.7593Z" fill="url(#paint9_linear_3017_44725)"/>
<path d="M38.325 37.9727C37.1 39.0227 36.225 40.2477 35.7 41.5602C35.175 42.8727 35 44.2727 35.6125 45.4977C39.2875 43.7477 40.1625 39.8977 38.325 37.9727Z" fill="url(#paint10_linear_3017_44725)"/>
<path d="M44.6248 45.3238C42.8748 46.8113 40.8623 47.5113 39.1998 47.5113C37.5373 47.5113 36.2248 46.7238 35.6123 45.5863C39.1123 43.9238 42.7873 43.3988 44.6248 45.3238Z" fill="url(#paint11_linear_3017_44725)"/>
<path d="M33.0748 41.3867C31.5873 42.0867 30.3623 43.0492 29.3998 44.1867C28.4373 45.3242 27.8248 46.6367 28.0873 47.9492C32.2873 47.2492 34.2998 43.7492 33.0748 41.3867Z" fill="url(#paint12_linear_3017_44725)"/>
<path d="M37.1 50.2221C35 51.1846 32.725 51.3596 30.975 50.8346C29.225 50.3096 28.175 49.2596 28 47.9471C32.1125 47.3346 35.875 47.7721 37.1 50.2221Z" fill="url(#paint13_linear_3017_44725)"/>
<path d="M12.4252 9.53722C11.5502 11.0247 10.5877 12.2497 9.3627 13.0372C8.1377 13.8247 6.8252 14.3497 5.5127 13.9997C6.4752 10.0622 10.2377 8.13722 12.4252 9.53722Z" fill="url(#paint14_linear_3017_44725)"/>
<path d="M3.93743 4.89844C2.71243 7.08594 2.44993 9.27344 2.79993 10.9359C3.14993 12.5984 4.19993 13.7359 5.51243 13.9984C6.38743 10.3234 6.29993 6.29844 3.93743 4.89844Z" fill="url(#paint15_linear_3017_44725)"/>
<path d="M10.15 15.575C9.80005 17.15 9.10005 18.55 8.22505 19.6C7.35005 20.65 6.12505 21.4375 4.81255 21.525C4.63755 17.5875 7.61255 14.875 10.15 15.575Z" fill="url(#paint16_linear_3017_44725)"/>
<path d="M0.699794 13.5625C0.174795 15.8375 0.524794 17.9375 1.39979 19.425C2.27479 20.9125 3.49979 21.6125 4.81229 21.6125C4.63729 17.85 3.32479 14.2625 0.699794 13.5625Z" fill="url(#paint17_linear_3017_44725)"/>
<path d="M9.62501 21.875C9.71251 23.45 9.45002 24.9375 8.83752 26.1625C8.31252 27.3875 7.35001 28.525 6.12501 28.875C4.90001 25.1125 7.00001 21.875 9.62501 21.875Z" fill="url(#paint18_linear_3017_44725)"/>
<path d="M0 22.3984C0.175 24.6734 1.05 26.5984 2.1875 27.7359C3.4125 28.8734 4.8125 29.3109 6.125 28.8734C4.9875 25.3734 2.7125 22.3984 0 22.3984Z" fill="url(#paint19_linear_3017_44725)"/>
<path d="M10.8499 27.9102C11.3749 29.3977 11.4624 30.8852 11.1999 32.2852C10.9374 33.6852 10.3249 34.9102 9.18741 35.6977C7.17491 32.2852 8.31241 28.6102 10.8499 27.9102Z" fill="url(#paint20_linear_3017_44725)"/>
<path d="M1.6626 30.9731C2.3626 33.0731 3.7626 34.7356 5.1626 35.5231C6.6501 36.3106 8.0501 36.3106 9.1876 35.6106C7.2626 32.5481 4.2876 30.1856 1.6626 30.9731Z" fill="url(#paint21_linear_3017_44725)"/>
<path d="M13.5624 33.4219C14.4374 34.7344 14.9624 36.1344 15.0499 37.5344C15.1374 38.9344 14.9624 40.3344 14.0874 41.2969C11.1124 38.6719 11.2874 34.7344 13.5624 33.4219Z" fill="url(#paint22_linear_3017_44725)"/>
<path d="M5.5127 38.7593C6.7377 40.5968 8.4877 41.8218 10.1502 42.2593C11.7252 42.6968 13.2127 42.2593 14.0877 41.2968C11.2877 38.8468 7.8752 37.3593 5.5127 38.7593Z" fill="url(#paint23_linear_3017_44725)"/>
<path d="M17.6748 37.9727C18.8998 39.0227 19.7748 40.2477 20.2998 41.5602C20.8248 42.8727 20.9998 44.2727 20.3873 45.4977C16.7123 43.7477 15.8373 39.8977 17.6748 37.9727Z" fill="url(#paint24_linear_3017_44725)"/>
<path d="M11.375 45.3238C13.125 46.8113 15.1375 47.5113 16.8 47.5113C18.4625 47.5113 19.775 46.7238 20.3875 45.5863C16.8875 43.9238 13.2125 43.3988 11.375 45.3238Z" fill="url(#paint25_linear_3017_44725)"/>
<path d="M22.9249 41.3867C24.4124 42.0867 25.6374 43.0492 26.5999 44.1867C27.5624 45.3242 28.1749 46.6367 27.9124 47.9492C23.7124 47.2492 21.6999 43.7492 22.9249 41.3867Z" fill="url(#paint26_linear_3017_44725)"/>
<path d="M18.8999 50.2221C20.9999 51.1846 23.2749 51.3596 25.0249 50.8346C26.7749 50.3096 27.8249 49.2596 27.9999 47.9471C23.8874 47.3346 20.1249 47.7721 18.8999 50.2221Z" fill="url(#paint27_linear_3017_44725)"/>
<path d="M28 38.5C36.4569 38.5 43.3125 31.6444 43.3125 23.1875C43.3125 14.7306 36.4569 7.875 28 7.875C19.5431 7.875 12.6875 14.7306 12.6875 23.1875C12.6875 31.6444 19.5431 38.5 28 38.5Z" fill="#FFDB6F"/>
<path d="M28.0001 34.6516C34.3307 34.6516 39.4626 29.5196 39.4626 23.1891C39.4626 16.8585 34.3307 11.7266 28.0001 11.7266C21.6695 11.7266 16.5376 16.8585 16.5376 23.1891C16.5376 29.5196 21.6695 34.6516 28.0001 34.6516Z" fill="#FFCB5A"/>
<path d="M25.4624 17.5H30.0999V28.875H27.6499V19.6875H25.4624V17.5Z" fill="#DC9327"/>
</g>
<defs>
<linearGradient id="paint0_linear_3017_44725" x1="43.5752" y1="8.66883" x2="49.3873" y2="15.6111" gradientUnits="userSpaceOnUse">
<stop stop-color="#B4761A"/>
<stop offset="0.494792" stop-color="#E99D2C"/>
<stop offset="1" stop-color="#B4761A"/>
</linearGradient>
<linearGradient id="paint1_linear_3017_44725" x1="49.978" y1="4.15062" x2="56.2013" y2="6.14993" gradientUnits="userSpaceOnUse">
<stop stop-color="#B4761A"/>
<stop offset="0.494792" stop-color="#E99D2C"/>
<stop offset="1" stop-color="#B4761A"/>
</linearGradient>
<linearGradient id="paint2_linear_3017_44725" x1="45.8501" y1="14.9668" x2="52.7211" y2="20.232" gradientUnits="userSpaceOnUse">
<stop stop-color="#B4761A"/>
<stop offset="0.494792" stop-color="#E99D2C"/>
<stop offset="1" stop-color="#B4761A"/>
</linearGradient>
<linearGradient id="paint3_linear_3017_44725" x1="51.1875" y1="12.901" x2="58.4699" y2="16.3273" gradientUnits="userSpaceOnUse">
<stop stop-color="#B4761A"/>
<stop offset="0.494792" stop-color="#E99D2C"/>
<stop offset="1" stop-color="#B4761A"/>
</linearGradient>
<linearGradient id="paint4_linear_3017_44725" x1="46.3584" y1="21.2998" x2="52.826" y2="24.4468" gradientUnits="userSpaceOnUse">
<stop stop-color="#B4761A"/>
<stop offset="0.494792" stop-color="#E99D2C"/>
<stop offset="1" stop-color="#B4761A"/>
</linearGradient>
<linearGradient id="paint5_linear_3017_44725" x1="49.9624" y1="21.8526" x2="57.5491" y2="27.8444" gradientUnits="userSpaceOnUse">
<stop stop-color="#B4761A"/>
<stop offset="0.494792" stop-color="#E99D2C"/>
<stop offset="1" stop-color="#B4761A"/>
</linearGradient>
<linearGradient id="paint6_linear_3017_44725" x1="44.6567" y1="27.2702" x2="50.4289" y2="29.3223" gradientUnits="userSpaceOnUse">
<stop stop-color="#B4761A"/>
<stop offset="0.494792" stop-color="#E99D2C"/>
<stop offset="1" stop-color="#B4761A"/>
</linearGradient>
<linearGradient id="paint7_linear_3017_44725" x1="46.8125" y1="30.3844" x2="52.9079" y2="37.8967" gradientUnits="userSpaceOnUse">
<stop stop-color="#B4761A"/>
<stop offset="0.494792" stop-color="#E99D2C"/>
<stop offset="1" stop-color="#B4761A"/>
</linearGradient>
<linearGradient id="paint8_linear_3017_44725" x1="40.9297" y1="32.7747" x2="46.758" y2="34.8428" gradientUnits="userSpaceOnUse">
<stop stop-color="#B4761A"/>
<stop offset="0.494792" stop-color="#E99D2C"/>
<stop offset="1" stop-color="#B4761A"/>
</linearGradient>
<linearGradient id="paint9_linear_3017_44725" x1="41.9126" y1="37.8727" x2="46.148" y2="45.3671" gradientUnits="userSpaceOnUse">
<stop stop-color="#B4761A"/>
<stop offset="0.494792" stop-color="#E99D2C"/>
<stop offset="1" stop-color="#B4761A"/>
</linearGradient>
<linearGradient id="paint10_linear_3017_44725" x1="35.2241" y1="37.3543" x2="41.9846" y2="40.5009" gradientUnits="userSpaceOnUse">
<stop stop-color="#B4761A"/>
<stop offset="0.494792" stop-color="#E99D2C"/>
<stop offset="1" stop-color="#B4761A"/>
</linearGradient>
<linearGradient id="paint11_linear_3017_44725" x1="35.6123" y1="43.8129" x2="38.5546" y2="50.5545" gradientUnits="userSpaceOnUse">
<stop stop-color="#B4761A"/>
<stop offset="0.494792" stop-color="#E99D2C"/>
<stop offset="1" stop-color="#B4761A"/>
</linearGradient>
<linearGradient id="paint12_linear_3017_44725" x1="28.0264" y1="40.8474" x2="35.3192" y2="46.0648" gradientUnits="userSpaceOnUse">
<stop stop-color="#B4761A"/>
<stop offset="0.494792" stop-color="#E99D2C"/>
<stop offset="1" stop-color="#B4761A"/>
</linearGradient>
<linearGradient id="paint13_linear_3017_44725" x1="28" y1="47.4177" x2="30.9355" y2="54.1918" gradientUnits="userSpaceOnUse">
<stop stop-color="#B4761A"/>
<stop offset="0.494792" stop-color="#E99D2C"/>
<stop offset="1" stop-color="#B4761A"/>
</linearGradient>
<linearGradient id="paint14_linear_3017_44725" x1="5.5127" y1="8.66883" x2="11.3248" y2="15.6111" gradientUnits="userSpaceOnUse">
<stop stop-color="#B4761A"/>
<stop offset="0.494792" stop-color="#E99D2C"/>
<stop offset="1" stop-color="#B4761A"/>
</linearGradient>
<linearGradient id="paint15_linear_3017_44725" x1="2.65723" y1="4.15062" x2="8.88049" y2="6.14993" gradientUnits="userSpaceOnUse">
<stop stop-color="#B4761A"/>
<stop offset="0.494792" stop-color="#E99D2C"/>
<stop offset="1" stop-color="#B4761A"/>
</linearGradient>
<linearGradient id="paint16_linear_3017_44725" x1="4.80518" y1="14.9668" x2="11.6762" y2="20.232" gradientUnits="userSpaceOnUse">
<stop stop-color="#B4761A"/>
<stop offset="0.494792" stop-color="#E99D2C"/>
<stop offset="1" stop-color="#B4761A"/>
</linearGradient>
<linearGradient id="paint17_linear_3017_44725" x1="0.453125" y1="12.901" x2="7.73553" y2="16.3273" gradientUnits="userSpaceOnUse">
<stop stop-color="#B4761A"/>
<stop offset="0.494792" stop-color="#E99D2C"/>
<stop offset="1" stop-color="#B4761A"/>
</linearGradient>
<linearGradient id="paint18_linear_3017_44725" x1="5.7666" y1="21.2998" x2="12.1876" y2="24.3879" gradientUnits="userSpaceOnUse">
<stop stop-color="#B4761A"/>
<stop offset="0.494792" stop-color="#E99D2C"/>
<stop offset="1" stop-color="#B4761A"/>
</linearGradient>
<linearGradient id="paint19_linear_3017_44725" x1="-6.89509e-08" y1="21.8526" x2="7.61127" y2="27.951" gradientUnits="userSpaceOnUse">
<stop stop-color="#B4761A"/>
<stop offset="0.494792" stop-color="#E99D2C"/>
<stop offset="1" stop-color="#B4761A"/>
</linearGradient>
<linearGradient id="paint20_linear_3017_44725" x1="8.15674" y1="27.2702" x2="13.9289" y2="29.3223" gradientUnits="userSpaceOnUse">
<stop stop-color="#B4761A"/>
<stop offset="0.494792" stop-color="#E99D2C"/>
<stop offset="1" stop-color="#B4761A"/>
</linearGradient>
<linearGradient id="paint21_linear_3017_44725" x1="1.6626" y1="30.3844" x2="7.75796" y2="37.8967" gradientUnits="userSpaceOnUse">
<stop stop-color="#B4761A"/>
<stop offset="0.494792" stop-color="#E99D2C"/>
<stop offset="1" stop-color="#B4761A"/>
</linearGradient>
<linearGradient id="paint22_linear_3017_44725" x1="11.854" y1="32.7747" x2="17.6824" y2="34.8428" gradientUnits="userSpaceOnUse">
<stop stop-color="#B4761A"/>
<stop offset="0.494792" stop-color="#E99D2C"/>
<stop offset="1" stop-color="#B4761A"/>
</linearGradient>
<linearGradient id="paint23_linear_3017_44725" x1="5.5127" y1="37.8727" x2="9.74806" y2="45.3671" gradientUnits="userSpaceOnUse">
<stop stop-color="#B4761A"/>
<stop offset="0.494792" stop-color="#E99D2C"/>
<stop offset="1" stop-color="#B4761A"/>
</linearGradient>
<linearGradient id="paint24_linear_3017_44725" x1="16.7446" y1="37.3543" x2="23.5052" y2="40.5009" gradientUnits="userSpaceOnUse">
<stop stop-color="#B4761A"/>
<stop offset="0.494792" stop-color="#E99D2C"/>
<stop offset="1" stop-color="#B4761A"/>
</linearGradient>
<linearGradient id="paint25_linear_3017_44725" x1="11.375" y1="43.8129" x2="14.3173" y2="50.5545" gradientUnits="userSpaceOnUse">
<stop stop-color="#B4761A"/>
<stop offset="0.494792" stop-color="#E99D2C"/>
<stop offset="1" stop-color="#B4761A"/>
</linearGradient>
<linearGradient id="paint26_linear_3017_44725" x1="22.5698" y1="40.8474" x2="29.8627" y2="46.0648" gradientUnits="userSpaceOnUse">
<stop stop-color="#B4761A"/>
<stop offset="0.494792" stop-color="#E99D2C"/>
<stop offset="1" stop-color="#B4761A"/>
</linearGradient>
<linearGradient id="paint27_linear_3017_44725" x1="18.8999" y1="47.4177" x2="21.8354" y2="54.1918" gradientUnits="userSpaceOnUse">
<stop stop-color="#B4761A"/>
<stop offset="0.494792" stop-color="#E99D2C"/>
<stop offset="1" stop-color="#B4761A"/>
</linearGradient>
<clipPath id="clip0_3017_44725">
<rect width="56" height="56" fill="white"/>
</clipPath>
</defs>
</svg>
