<svg width="44" height="44" viewBox="0 0 44 44" fill="none" xmlns="http://www.w3.org/2000/svg">
<g clip-path="url(#clip0_3084_10535)">
<path d="M15.2462 8.09917L13.2922 6.14522L16.0653 3.37219C16.3428 3.09469 16.7927 3.09469 17.0702 3.37219L18.0191 4.32115C18.2966 4.59865 18.2966 5.04857 18.0191 5.32607L15.2462 8.09917Z" fill="#3D6687"/>
<path d="M20.4413 10.5484L18.4873 8.59444L21.2603 5.82141C21.5378 5.54391 21.9878 5.54391 22.2653 5.82141L23.2142 6.77037C23.4917 7.04787 23.4917 7.49778 23.2142 7.77529L20.4413 10.5484Z" fill="#3D6687"/>
<path d="M36.0649 28.9187L38.0189 30.8726L40.7919 28.0996C41.0694 27.8221 41.0694 27.3722 40.7919 27.0947L39.8429 26.1456C39.5654 25.8681 39.1155 25.8681 38.838 26.1456L36.0649 28.9187Z" fill="#3D6687"/>
<path d="M33.2854 23.7233L35.2394 25.6772L38.0124 22.9042C38.2899 22.6267 38.2899 22.1768 38.0124 21.8993L37.0634 20.9503C36.7859 20.6728 36.336 20.6728 36.0585 20.9503L33.2854 23.7233Z" fill="#3D6687"/>
<path d="M35.907 37.0531L23.5038 20.4364L6.88705 8.03315C6.3048 7.59852 6.24335 6.7485 6.75717 6.23468L8.46071 4.53107C9.22345 3.76832 10.3706 3.54025 11.367 3.95328L31.6009 12.3392L39.9868 32.5731C40.3997 33.5696 40.1716 34.7167 39.409 35.4793L37.7054 37.1829C37.1917 37.6968 36.3416 37.6355 35.907 37.0531Z" fill="#CCDFED"/>
<path d="M16.4918 40.6284L10.7877 33.0447L3.20407 27.3406C2.95551 27.1537 2.9299 26.7901 3.14989 26.5702L4.02433 25.6957C4.61355 25.1065 5.5061 24.9439 6.26521 25.2876L14.7183 29.1141L18.5449 37.5673C18.8885 38.3264 18.7259 39.2189 18.1368 39.8082L17.2623 40.6826C17.0423 40.9025 16.6787 40.877 16.4918 40.6284Z" fill="#CCDFED"/>
<path d="M18.5449 37.5692L17.2345 34.6744L16.4187 35.4901C15.7081 36.2008 14.533 36.1181 13.929 35.3149L11.6068 32.2275L11.5995 32.2347L3.54616 26.1758L3.14983 26.5721C2.92992 26.792 2.95553 27.1556 3.20401 27.3426L10.7877 33.0466L16.4918 40.6304C16.6787 40.8789 17.0424 40.9045 17.2623 40.6846L18.1368 39.81C18.7259 39.2208 18.8886 38.3283 18.5449 37.5692Z" fill="#BAD5E5"/>
<path d="M39.9423 34.713C39.9766 34.6388 40.0087 34.5638 40.0359 34.487C40.0919 34.3296 40.1311 34.1672 40.1567 34.0025C40.2303 33.5289 40.1783 33.0348 39.9869 32.5726L38.7679 29.6314L38.6905 29.4445C38.6183 30.0206 38.3586 30.5704 37.9303 30.9988L36.2267 32.7023C35.7129 33.2161 34.8629 33.1547 34.4282 32.5724L24.5718 19.368L6.88595 6.10547L6.75718 6.23424C6.41956 6.57186 6.3319 7.05413 6.47552 7.46879C6.55048 7.68529 6.68741 7.8836 6.88706 8.03263L17.6832 16.0912L23.5038 20.4359L27.8485 26.2565L35.9071 37.0526C36.0561 37.2523 36.2545 37.3892 36.4709 37.4642C36.8856 37.6078 37.3679 37.5201 37.7055 37.1825L39.4091 35.479C39.6351 35.253 39.8129 34.9926 39.9423 34.713Z" fill="#BAD5E5"/>
<path d="M10.7866 35.0824C9.48824 35.7019 8.13204 34.3457 8.75162 33.0474C10.1287 30.1615 11.8876 27.4739 13.9811 25.0569L28.3673 8.44782C30.4956 5.99059 33.4924 4.45249 36.7297 4.15569L37.6117 4.07486C38.8414 3.96212 39.8719 4.99257 39.7593 6.2223L39.6784 7.10439C39.3816 10.3416 37.8435 13.3384 35.3863 15.4668L18.7771 29.853C16.3601 31.9464 13.6726 33.7054 10.7866 35.0824Z" fill="#61AFF6"/>
<path d="M39.6784 7.10439L39.7592 6.2223C39.872 4.99265 38.8414 3.96212 37.6117 4.07486L36.7296 4.15569C36.7181 4.15672 36.7067 4.15821 36.6952 4.15925C36.3907 7.38323 34.8551 10.3664 32.4066 12.4872L9.05737 34.791C9.48153 35.2098 10.1412 35.3904 10.7867 35.0824C13.6725 33.7054 16.3601 31.9464 18.7771 29.853L35.3862 15.4667C37.8434 13.3384 39.3816 10.3417 39.6784 7.10439Z" fill="#399AEA"/>
<path d="M32.7537 7.17397C32.4409 7.14725 32.1657 7.37918 32.1388 7.69187C32.1121 8.00462 32.344 8.27998 32.6567 8.30677C34.3614 8.45268 35.3807 9.472 35.5265 11.1766C35.5385 11.3154 35.5993 11.4384 35.6908 11.5299C35.8052 11.6443 35.9675 11.7093 36.1413 11.6945C36.4542 11.6677 36.686 11.3924 36.6592 11.0796C36.4667 8.82689 35.0065 7.36664 32.7537 7.17397Z" fill="white"/>
<path d="M36.1416 11.6981C36.4544 11.6713 36.6863 11.396 36.6595 11.0832C36.5652 9.98112 36.1669 9.06949 35.5216 8.40234C35.3465 8.76913 35.1537 9.12731 34.9438 9.47554C35.2698 9.92613 35.4684 10.4981 35.5267 11.1801C35.5386 11.319 35.5995 11.442 35.6909 11.5334C35.8055 11.6478 35.9678 11.713 36.1416 11.6981Z" fill="#CCDFED"/>
</g>
<defs>
<clipPath id="clip0_3084_10535">
<rect width="38" height="38" fill="white" transform="translate(3 3)"/>
</clipPath>
</defs>
</svg>
