<svg width="56" height="56" viewBox="0 0 56 56" fill="none" xmlns="http://www.w3.org/2000/svg">
<mask id="mask0_3017_44825" style="mask-type:luminance" maskUnits="userSpaceOnUse" x="0" y="0" width="56" height="56">
<path d="M0 3.8147e-06H56V56H0V3.8147e-06Z" fill="white"/>
</mask>
<g mask="url(#mask0_3017_44825)">
<path d="M34.0213 34.5666C31.4594 34.5666 29.598 32.268 30.0699 29.7378L30.6475 26.6415C31.0044 24.7289 30.0475 22.8121 28.3086 21.956C27.5906 21.6026 26.7273 21.9639 26.4713 22.7248L23.7104 30.9291C22.9168 33.2877 21.2404 35.7409 19.0366 36.8789" stroke="#1A2F46" stroke-width="1.5" stroke-miterlimit="10" stroke-linecap="round" stroke-linejoin="round"/>
<path d="M19.0596 50.3078C19.0596 52.1225 20.7667 53.5938 24.9747 53.5938H38.0403C39.2433 53.5938 40.2185 52.6185 40.2185 51.4154C40.2185 50.2124 39.2433 49.2371 38.0403 49.2371H36.138H39.4887C40.8392 49.2371 41.9338 48.1425 41.9338 46.7922C41.9338 45.4418 40.8392 44.3472 39.4887 44.3472H36.138H40.1271C41.4774 44.3472 42.5721 43.2526 42.5721 41.9022C42.5721 40.552 41.4774 39.4571 40.1271 39.4571H36.138H39.4887C40.8392 39.4571 41.9338 38.3625 41.9338 37.0122C41.9338 35.6618 40.8392 34.5672 39.4887 34.5672H33.478" stroke="#1A2F46" stroke-width="1.5" stroke-miterlimit="10" stroke-linecap="round" stroke-linejoin="round"/>
<path d="M19.0369 43.8261V51.8855C19.0369 52.8289 18.2722 53.5938 17.3287 53.5938H15.136C14.1926 53.5938 13.4277 52.8289 13.4277 51.8855V36.2754C13.4277 35.332 14.1926 34.5672 15.136 34.5672H17.3287C18.2722 34.5672 19.0369 35.332 19.0369 36.2754V43.9758" stroke="#1A2F46" stroke-width="1.5" stroke-miterlimit="10" stroke-linecap="round" stroke-linejoin="round"/>
<path d="M18.1017 7.0423L18.9657 8.79306C18.9988 8.85989 19.0625 8.90627 19.1363 8.91699L21.199 9.21667C21.3849 9.24369 21.4589 9.47196 21.3246 9.60299L19.8319 11.0579C19.7785 11.11 19.7541 11.1849 19.7668 11.2584L20.1191 13.3129C20.1508 13.4978 19.9567 13.6389 19.7905 13.5516L17.9455 12.5817C17.8797 12.5469 17.8008 12.5469 17.7348 12.5817L15.8898 13.5516C15.7237 13.6389 15.5294 13.4978 15.5611 13.3129L15.9135 11.2584C15.9261 11.1849 15.9018 11.11 15.8483 11.0579L14.3558 9.60299C14.2213 9.47196 14.2955 9.24369 14.4813 9.21667L16.5441 8.91699C16.6179 8.90627 16.6817 8.85989 16.7146 8.79306L17.5787 7.0423C17.6856 6.82552 17.9947 6.82552 18.1017 7.0423Z" stroke="#E97737" stroke-width="1.5" stroke-miterlimit="10" stroke-linecap="round" stroke-linejoin="round"/>
<path d="M7.9386 7.0423L8.80266 8.79306C8.83569 8.85989 8.89946 8.90627 8.97318 8.91699L11.0359 9.21667C11.2218 9.24369 11.2959 9.47196 11.1616 9.60299L9.6688 11.0579C9.61554 11.11 9.59114 11.1849 9.60372 11.2584L9.95602 13.3129C9.98774 13.4978 9.7936 13.6389 9.62746 13.5516L7.78241 12.5817C7.71657 12.5469 7.63771 12.5469 7.57175 12.5817L5.72671 13.5516C5.56057 13.6389 5.36632 13.4978 5.39803 13.3129L5.75044 11.2584C5.76302 11.1849 5.73874 11.11 5.68525 11.0579L4.19272 9.60299C4.05819 9.47196 4.13246 9.24369 4.31818 9.21667L6.38099 8.91699C6.45482 8.90627 6.51858 8.85989 6.5515 8.79306L7.41557 7.0423C7.52254 6.82552 7.83163 6.82552 7.9386 7.0423Z" stroke="#E97737" stroke-width="1.5" stroke-miterlimit="10" stroke-linecap="round" stroke-linejoin="round"/>
<path d="M28.2643 7.0423L29.1283 8.79306C29.1614 8.85989 29.2251 8.90627 29.2989 8.91699L31.3616 9.21667C31.5475 9.24369 31.6215 9.47196 31.4871 9.60299L29.9945 11.0579C29.9411 11.11 29.9167 11.1849 29.9294 11.2584L30.2817 13.3129C30.3134 13.4978 30.1193 13.6389 29.953 13.5516L28.1081 12.5817C28.0422 12.5469 27.9634 12.5469 27.8974 12.5817L26.0524 13.5516C25.8862 13.6389 25.692 13.4978 25.7237 13.3129L26.0761 11.2584C26.0887 11.1849 26.0644 11.11 26.0109 11.0579L24.5184 9.60299C24.3839 9.47196 24.4581 9.24369 24.6439 9.21667L26.7067 8.91699C26.7805 8.90627 26.8443 8.85989 26.8771 8.79306L27.7412 7.0423C27.8481 6.82552 28.1573 6.82552 28.2643 7.0423Z" stroke="#E97737" stroke-width="1.5" stroke-miterlimit="10" stroke-linecap="round" stroke-linejoin="round"/>
<path d="M38.4245 7.0423L39.2885 8.79306C39.3215 8.85989 39.3853 8.90627 39.4591 8.91699L41.5218 9.21667C41.7077 9.24369 41.7817 9.47196 41.6474 9.60299L40.1547 11.0579C40.1014 11.11 40.077 11.1849 40.0897 11.2584L40.442 13.3129C40.4737 13.4978 40.2794 13.6389 40.1133 13.5516L38.2684 12.5817C38.2024 12.5469 38.1235 12.5469 38.0576 12.5817L36.2125 13.5516C36.0464 13.6389 35.8522 13.4978 35.8839 13.3129L36.2363 11.2584C36.2489 11.1849 36.2246 11.11 36.1711 11.0579L34.6786 9.60299C34.544 9.47196 34.6183 9.24369 34.804 9.21667L36.8668 8.91699C36.9407 8.90627 37.0044 8.85989 37.0373 8.79306L37.9014 7.0423C38.0084 6.82552 38.3175 6.82552 38.4245 7.0423Z" stroke="#E97737" stroke-width="1.5" stroke-miterlimit="10" stroke-linecap="round" stroke-linejoin="round"/>
<path d="M48.5842 7.0423L49.4481 8.79306C49.4811 8.85989 49.5449 8.90627 49.6187 8.91699L51.6814 9.21667C51.8673 9.24369 51.9414 9.47196 51.807 9.60299L50.3144 11.0579C50.261 11.11 50.2366 11.1849 50.2493 11.2584L50.6016 13.3129C50.6333 13.4978 50.4392 13.6389 50.2729 13.5516L48.428 12.5817C48.362 12.5469 48.2832 12.5469 48.2173 12.5817L46.3722 13.5516C46.2061 13.6389 46.0119 13.4978 46.0436 13.3129L46.396 11.2584C46.4085 11.1849 46.3842 11.11 46.3308 11.0579L44.8382 9.60299C44.7038 9.47196 44.7779 9.24369 44.9637 9.21667L47.0266 8.91699C47.1003 8.90627 47.164 8.85989 47.197 8.79306L48.0611 7.0423C48.168 6.82552 48.4771 6.82552 48.5842 7.0423Z" stroke="#E97737" stroke-width="1.5" stroke-miterlimit="10" stroke-linecap="round" stroke-linejoin="round"/>
<path d="M15.4599 18.4453H4.62256C2.74189 18.4453 1.21729 17.231 1.21729 15.7331V5.2097C1.21729 3.7118 2.74189 2.49749 4.62256 2.49749H47.4782" stroke="#E97737" stroke-width="1.5" stroke-miterlimit="10" stroke-linecap="round" stroke-linejoin="round"/>
<path d="M41.802 2.40625H52.4451C53.9552 2.40625 55.1795 3.63048 55.1795 5.14062V15.75C55.1795 17.2601 53.9552 18.4844 52.4451 18.4844H16.0732" stroke="#E97737" stroke-width="1.5" stroke-miterlimit="10" stroke-linecap="round" stroke-linejoin="round"/>
</g>
</svg>
