<svg width="32" height="27" viewBox="0 0 32 27" fill="none" xmlns="http://www.w3.org/2000/svg">
<path d="M31.247 17.3305L26.2161 3.95481C26.2161 3.95481 26.2161 3.94993 26.2161 3.94668C25.8427 2.94682 25.1296 2.11004 24.2017 1.58265C23.2738 1.05526 22.19 0.870805 21.1399 1.06155C20.0897 1.25229 19.14 1.80609 18.4568 2.62611C17.7737 3.44614 17.4004 4.48021 17.4025 5.54754V11.3984H14.8021V5.54754C14.8026 4.48137 14.4287 3.44888 13.7457 2.63022C13.0627 1.81156 12.1139 1.2587 11.0649 1.06812C10.0159 0.877533 8.93328 1.06132 8.00595 1.58741C7.07862 2.11349 6.36544 2.94848 5.99086 3.94668C5.99086 3.94668 5.99086 3.95156 5.99086 3.95481L0.957505 17.3305C0.588915 18.3108 0.44015 19.3601 0.521727 20.4042C0.603303 21.4484 0.913229 22.4618 1.4296 23.373C1.94597 24.2842 2.65617 25.0708 3.51001 25.6773C4.36385 26.2837 5.34049 26.6953 6.37088 26.8828C7.40127 27.0703 8.46027 27.0291 9.47302 26.7623C10.4858 26.4954 11.4275 26.0094 12.2318 25.3385C13.036 24.6677 13.6831 23.8283 14.1272 22.8799C14.5713 21.9314 14.8017 20.8969 14.8021 19.8496V19.1995H17.4025V19.8496C17.4028 20.8969 17.6332 21.9314 18.0773 22.8799C18.5215 23.8283 19.1685 24.6677 19.9728 25.3385C20.777 26.0094 21.7188 26.4954 22.7315 26.7623C23.7443 27.0291 24.8033 27.0703 25.8337 26.8828C26.8641 26.6953 27.8407 26.2837 28.6945 25.6773C29.5484 25.0708 30.2586 24.2842 30.7749 23.373C31.2913 22.4618 31.6012 21.4484 31.6828 20.4042C31.7644 19.3601 31.6156 18.3108 31.247 17.3305ZM7.65104 24.4003C6.75101 24.4003 5.87118 24.1334 5.12283 23.6334C4.37448 23.1333 3.79121 22.4226 3.44678 21.5911C3.10235 20.7596 3.01223 19.8446 3.18782 18.9618C3.36341 18.0791 3.79682 17.2682 4.43324 16.6318C5.06966 15.9954 5.88051 15.562 6.76325 15.3864C7.64599 15.2108 8.56098 15.3009 9.3925 15.6454C10.224 15.9898 10.9347 16.5731 11.4348 17.3214C11.9348 18.0698 12.2017 18.9496 12.2017 19.8496C12.2004 21.0561 11.7206 22.2129 10.8674 23.066C10.0143 23.9191 8.85756 24.399 7.65104 24.4003ZM24.5535 24.4003C23.6535 24.4003 22.7736 24.1334 22.0253 23.6334C21.2769 23.1333 20.6937 22.4226 20.3492 21.5911C20.0048 20.7596 19.9147 19.8446 20.0903 18.9618C20.2659 18.0791 20.6993 17.2682 21.3357 16.6318C21.9721 15.9954 22.783 15.562 23.6657 15.3864C24.5485 15.2108 25.4634 15.3009 26.295 15.6454C27.1265 15.9898 27.8372 16.5731 28.3372 17.3214C28.8373 18.0698 29.1042 18.9496 29.1042 19.8496C29.1029 21.0561 28.623 22.2129 27.7699 23.066C26.9167 23.9191 25.76 24.399 24.5535 24.4003Z" fill="white"/>
</svg>
