<svg width="24" height="26" viewBox="0 0 24 26" fill="none" xmlns="http://www.w3.org/2000/svg">
<path d="M1.51108 23C1.38755 23 1.26737 22.9512 1.17824 22.861C1.06075 22.7422 1.01543 22.5696 1.05957 22.4083L2.4898 17.1856C1.59937 15.5755 1.1299 13.754 1.13057 11.905C1.13309 5.89189 6.02649 1 12.0391 1C14.9554 1.00117 17.6957 2.13716 19.7553 4.19832C21.8147 6.25964 22.9483 8.99974 22.9475 11.9137C22.9448 17.927 18.0514 22.8192 12.0391 22.8192C12.0391 22.8192 12.0346 22.8192 12.0344 22.8192C10.2782 22.8186 8.53714 22.3905 6.98691 21.5798L1.62975 22.9847C1.59047 22.995 1.55053 23 1.51108 23Z" fill="#E5E5E5"/>
<path d="M1.51123 22.5318L2.99231 17.1232C2.07872 15.5403 1.59818 13.7447 1.59885 11.9051C1.6012 6.1501 6.28445 1.46802 12.0392 1.46802C14.8319 1.46919 17.4531 2.55617 19.4243 4.52904C21.3954 6.50191 22.4805 9.12434 22.4795 11.9135C22.477 17.6682 17.793 22.351 12.0392 22.351C12.0389 22.351 12.0394 22.351 12.0392 22.351H12.0347C10.2874 22.3503 8.57069 21.9121 7.04581 21.0804L1.51123 22.5318ZM7.30211 19.1909L7.61917 19.3788C8.9512 20.1693 10.4784 20.5874 12.0359 20.5883H12.0392C16.8219 20.5883 20.7146 16.6962 20.7166 11.9128C20.7174 9.59465 19.8158 7.41483 18.1774 5.77513C16.5389 4.13544 14.3604 3.23192 12.0424 3.23091C7.25595 3.23091 3.36342 7.12244 3.36157 11.9057C3.3609 13.5449 3.81946 15.1411 4.68823 16.5225L4.89468 16.8508L4.01785 20.052L7.30211 19.1909Z" fill="white"/>
<path d="M1.87402 22.1671L3.30391 16.9456C2.42171 15.4175 1.95795 13.6838 1.95845 11.9082C1.96063 6.35246 6.48192 1.83252 12.0371 1.83252C14.7334 1.83369 17.2641 2.88307 19.1666 4.78763C21.0696 6.69218 22.117 9.22382 22.116 11.9161C22.1136 17.472 17.5922 21.9924 12.0376 21.9924C12.0371 21.9924 12.0378 21.9924 12.0376 21.9924H12.0331C10.3464 21.9917 8.68893 21.5684 7.21692 20.7661L1.87402 22.1671Z" fill="#64B161"/>
<path d="M1.51123 22.5318L2.99231 17.1232C2.07872 15.5403 1.59818 13.7447 1.59885 11.9051C1.6012 6.1501 6.28445 1.46802 12.0392 1.46802C14.8319 1.46919 17.4531 2.55617 19.4243 4.52904C21.3954 6.50191 22.4805 9.12434 22.4795 11.9135C22.477 17.6682 17.793 22.351 12.0392 22.351C12.0389 22.351 12.0394 22.351 12.0392 22.351H12.0347C10.2874 22.3503 8.57069 21.9121 7.04581 21.0804L1.51123 22.5318ZM7.30211 19.1909L7.61917 19.3788C8.9512 20.1693 10.4784 20.5874 12.0359 20.5883H12.0392C16.8219 20.5883 20.7146 16.6962 20.7166 11.9128C20.7174 9.59465 19.8158 7.41483 18.1774 5.77513C16.5389 4.13544 14.3604 3.23192 12.0424 3.23091C7.25595 3.23091 3.36342 7.12244 3.36157 11.9057C3.3609 13.5449 3.81946 15.1411 4.68823 16.5225L4.89468 16.8508L4.01785 20.052L7.30211 19.1909Z" fill="white"/>
<path fill-rule="evenodd" clip-rule="evenodd" d="M9.42967 7.54129C9.2343 7.10691 9.02852 7.09818 8.84254 7.09062C8.69048 7.08408 8.51642 7.08441 8.3427 7.08441C8.16881 7.08441 7.88615 7.14987 7.64714 7.41088C7.40796 7.67188 6.73389 8.30298 6.73389 9.58651C6.73389 10.8702 7.66879 12.1104 7.79921 12.2846C7.92963 12.4587 9.6039 15.1768 12.2554 16.2225C14.459 17.0916 14.9073 16.9187 15.3857 16.8752C15.8641 16.8318 16.9291 16.2441 17.1464 15.635C17.364 15.0259 17.364 14.5039 17.2987 14.3946C17.2334 14.286 17.0595 14.2208 16.7986 14.0903C16.5378 13.9599 15.2553 13.3286 15.0161 13.2417C14.7769 13.1546 14.603 13.1113 14.4292 13.3725C14.2551 13.6333 13.7556 14.2208 13.6033 14.3946C13.4511 14.569 13.2989 14.5909 13.038 14.4603C12.7772 14.3295 11.937 14.0542 10.9403 13.1655C10.1648 12.4741 9.64116 11.6201 9.48892 11.359C9.33685 11.0981 9.4864 10.9692 9.60356 10.8267C9.81454 10.5701 10.1685 10.1087 10.2555 9.93479C10.3424 9.76056 10.299 9.60833 10.2338 9.47774C10.1685 9.34732 9.66147 8.05725 9.42967 7.54129Z" fill="white"/>
</svg>
