<svg width="36" height="37" viewBox="0 0 36 37" fill="none" xmlns="http://www.w3.org/2000/svg">
<g clip-path="url(#clip0_109_32246)">
<path d="M2.25 2.94945C-0.578999 5.88795 1.3262e-06 9.00945 1.3262e-06 18.4924C1.3262e-06 26.3674 -1.374 34.2619 5.817 36.1204C8.0625 36.6979 27.9585 36.6979 30.201 36.1174C33.195 35.3449 35.631 32.9164 35.964 28.6819C36.0105 28.0909 36.0105 8.90445 35.9625 8.30145C35.6085 3.79095 32.832 1.19145 29.1735 0.664948C28.335 0.543448 28.167 0.507448 23.865 0.499948C8.6055 0.507448 5.2605 -0.172053 2.25 2.94945Z" fill="url(#paint0_linear_109_32246)"/>
<path d="M17.997 5.20838C12.5505 5.20838 7.3785 4.72388 5.403 9.79389C4.587 11.8879 4.7055 14.6074 4.7055 18.5014C4.7055 21.9184 4.596 25.1299 5.403 27.2074C7.374 32.2804 12.588 31.7944 17.994 31.7944C23.2095 31.7944 28.587 32.3374 30.5865 27.2074C31.404 25.0924 31.284 22.4134 31.284 18.5014C31.284 13.3084 31.5705 9.95589 29.052 7.43888C26.502 4.88888 23.0535 5.20838 17.991 5.20838H17.997ZM16.806 7.60389C28.167 7.58589 29.613 6.32289 28.815 23.8684C28.5315 30.0739 23.8065 29.3929 17.9985 29.3929C7.4085 29.3929 7.104 29.0899 7.104 18.4954C7.104 7.77789 7.944 7.60989 16.806 7.60089V7.60389ZM25.092 9.81039C24.2115 9.81039 23.4975 10.5244 23.4975 11.4049C23.4975 12.2854 24.2115 12.9994 25.092 12.9994C25.9725 12.9994 26.6865 12.2854 26.6865 11.4049C26.6865 10.5244 25.9725 9.81039 25.092 9.81039ZM17.997 11.6749C14.2275 11.6749 11.172 14.7319 11.172 18.5014C11.172 22.2709 14.2275 25.3264 17.997 25.3264C21.7665 25.3264 24.8205 22.2709 24.8205 18.5014C24.8205 14.7319 21.7665 11.6749 17.997 11.6749ZM17.997 14.0704C23.8545 14.0704 23.862 22.9324 17.997 22.9324C12.141 22.9324 12.132 14.0704 17.997 14.0704Z" fill="white"/>
</g>
<defs>
<linearGradient id="paint0_linear_109_32246" x1="2.31903" y1="34.2006" x2="35.7772" y2="5.24292" gradientUnits="userSpaceOnUse">
<stop stop-color="#FFDD55"/>
<stop offset="0.5" stop-color="#FF543E"/>
<stop offset="1" stop-color="#C837AB"/>
</linearGradient>
<clipPath id="clip0_109_32246">
<rect width="36" height="36" fill="white" transform="translate(0 0.5)"/>
</clipPath>
</defs>
</svg>
