<svg width="10" height="12" viewBox="0 0 10 12" fill="none" xmlns="http://www.w3.org/2000/svg">
<path d="M1.25 6.94737C1.25 7.49474 1.35938 8.01316 1.57812 8.50263C1.79688 8.99211 2.10938 9.42105 2.51562 9.78947C2.50521 9.73684 2.5 9.68947 2.5 9.64737V9.50526C2.5 9.16842 2.5625 8.85263 2.6875 8.55789C2.8125 8.26316 2.99479 7.99474 3.23438 7.75263L5 6L6.76562 7.75263C7.00521 7.99474 7.1875 8.26316 7.3125 8.55789C7.4375 8.85263 7.5 9.16842 7.5 9.50526V9.64737C7.5 9.68947 7.49479 9.73684 7.48438 9.78947C7.89063 9.42105 8.20312 8.99211 8.42188 8.50263C8.64062 8.01316 8.75 7.49474 8.75 6.94737C8.75 6.42105 8.65365 5.92368 8.46094 5.45526C8.26823 4.98684 7.98958 4.56842 7.625 4.2C7.41667 4.33684 7.19792 4.43947 6.96875 4.50789C6.73958 4.57632 6.50521 4.61053 6.26563 4.61053C5.61979 4.61053 5.0599 4.39474 4.58594 3.96316C4.11198 3.53158 3.83854 3 3.76562 2.36842C3.35938 2.71579 3 3.07632 2.6875 3.45C2.375 3.82368 2.11198 4.20263 1.89844 4.58684C1.6849 4.97105 1.52344 5.36316 1.41406 5.76316C1.30469 6.16316 1.25 6.55789 1.25 6.94737ZM5 7.76842L4.10938 8.65263C3.99479 8.76842 3.90625 8.9 3.84375 9.04737C3.78125 9.19474 3.75 9.34737 3.75 9.50526C3.75 9.8421 3.8724 10.1316 4.11719 10.3737C4.36198 10.6158 4.65625 10.7368 5 10.7368C5.34375 10.7368 5.63802 10.6158 5.88281 10.3737C6.1276 10.1316 6.25 9.8421 6.25 9.50526C6.25 9.33684 6.21875 9.18158 6.15625 9.03947C6.09375 8.89737 6.00521 8.76842 5.89062 8.65263L5 7.76842ZM5 0V2.08421C5 2.44211 5.1224 2.74211 5.36719 2.98421C5.61198 3.22632 5.91146 3.34737 6.26563 3.34737C6.45313 3.34737 6.6276 3.30789 6.78906 3.22895C6.95052 3.15 7.09375 3.03158 7.21875 2.87368L7.5 2.52632C8.27083 2.96842 8.88021 3.58421 9.32812 4.37368C9.77604 5.16316 10 6.02105 10 6.94737C10 8.35789 9.51562 9.55263 8.54688 10.5316C7.57812 11.5105 6.39583 12 5 12C3.60417 12 2.42188 11.5105 1.45312 10.5316C0.484375 9.55263 0 8.35789 0 6.94737C0 5.58947 0.450521 4.3 1.35156 3.07895C2.2526 1.85789 3.46875 0.831579 5 0Z" fill="#1A2F46"/>
</svg>
