<svg width="34" height="34" viewBox="0 0 34 34" fill="none" xmlns="http://www.w3.org/2000/svg">
<path d="M19.947 33.081C19.2438 33.0714 18.5553 32.8781 17.9497 32.5204C17.8788 32.4805 17.8197 32.4223 17.7786 32.352C17.7375 32.2817 17.7159 32.2017 17.7158 32.1203V23.2899H16.2828V32.1207C16.2828 32.2022 16.2611 32.2821 16.22 32.3525C16.1789 32.4228 16.1199 32.4809 16.0489 32.5209C15.4474 32.8876 14.7566 33.0815 14.0521 33.0815C13.3477 33.0815 12.6568 32.8876 12.0553 32.5209C11.9844 32.4809 11.9253 32.4228 11.8842 32.3525C11.8431 32.2821 11.8215 32.2022 11.8214 32.1207V14.1329L4.50225 8.05882C4.29409 7.8843 4.12234 7.67048 3.99681 7.42958C3.87128 7.18868 3.79443 6.92541 3.77065 6.65481C3.72261 6.10831 3.89364 5.5651 4.24611 5.1447C4.59858 4.7243 5.10361 4.46113 5.65012 4.41309C6.19662 4.36505 6.73982 4.53608 7.16023 4.88855L12.8217 9.6945C13.3267 10.1395 13.8836 10.5217 14.4803 10.833C16.5764 11.8723 18.5649 11.6711 20.5604 10.216L26.838 4.88717C27.0477 4.70786 27.2917 4.57285 27.555 4.49025C27.8183 4.40766 28.0956 4.3792 28.3703 4.40658C28.6471 4.43227 28.916 4.51355 29.1607 4.64555C29.4054 4.77754 29.621 4.95755 29.7946 5.17479C30.0843 5.54246 30.2428 5.99641 30.2449 6.4645C30.2458 6.76958 30.1788 7.07105 30.0488 7.34705C29.9188 7.62305 29.729 7.86665 29.4932 8.0602L22.1777 14.1329V32.1207C22.1776 32.2022 22.156 32.2821 22.1149 32.3525C22.0738 32.4228 22.0147 32.4809 21.9438 32.5209C21.3384 32.8785 20.65 33.0716 19.947 33.081ZM18.6352 31.8404C19.041 32.0492 19.4907 32.1581 19.947 32.1581C20.4033 32.1581 20.853 32.0492 21.2587 31.8404V13.9169C21.2587 13.8494 21.2735 13.7827 21.3022 13.7215C21.3309 13.6604 21.3727 13.6063 21.4246 13.5631L28.9092 7.35125C29.0403 7.24368 29.1459 7.10823 29.2181 6.95477C29.2904 6.8013 29.3275 6.63366 29.3269 6.46404C29.3274 6.17752 29.2206 5.90119 29.0274 5.68958C28.8343 5.47796 28.5688 5.34642 28.2834 5.3209C28.1308 5.30581 27.9768 5.32167 27.8305 5.36754C27.6842 5.41341 27.5487 5.48834 27.432 5.58785L21.1283 10.935C18.836 12.6088 16.4693 12.8432 14.071 11.6532C13.4078 11.309 12.7887 10.8858 12.2271 10.3929L6.56661 5.58785C6.32551 5.39382 6.01787 5.3022 5.70991 5.33271C5.40194 5.36321 5.11825 5.5134 4.9199 5.75096C4.73295 5.98679 4.64602 6.28658 4.67781 6.58585C4.7096 6.88512 4.85757 7.15996 5.0899 7.35125L12.5745 13.5631C12.6264 13.6063 12.6682 13.6604 12.6969 13.7215C12.7256 13.7827 12.7404 13.8494 12.7404 13.9169V31.8427C13.1461 32.0515 13.5958 32.1604 14.0521 32.1604C14.5084 32.1604 14.9581 32.0515 15.3639 31.8427V22.8304C15.3639 22.7086 15.4123 22.5917 15.4985 22.5056C15.5846 22.4194 15.7015 22.371 15.8233 22.371H18.1758C18.2976 22.371 18.4145 22.4194 18.5007 22.5056C18.5868 22.5917 18.6352 22.7086 18.6352 22.8304V31.8404Z" fill="black"/>
<path d="M17.0003 10.0309C16.0992 10.0309 15.2184 9.76375 14.4692 9.26313C13.7199 8.76251 13.136 8.05095 12.7911 7.21845C12.4463 6.38595 12.3561 5.46989 12.5319 4.58612C12.7077 3.70234 13.1416 2.89054 13.7788 2.25337C14.4159 1.6162 15.2277 1.18228 16.1115 1.00649C16.9953 0.830695 17.9113 0.920919 18.7438 1.26575C19.5763 1.61059 20.2879 2.19454 20.7885 2.94377C21.2891 3.693 21.5563 4.57386 21.5563 5.47495C21.555 6.68286 21.0746 7.84092 20.2204 8.69505C19.3663 9.54918 18.2083 10.0296 17.0003 10.0309ZM17.0003 1.83833C16.281 1.83833 15.5778 2.05164 14.9797 2.45128C14.3816 2.85093 13.9154 3.41897 13.6401 4.08356C13.3648 4.74815 13.2928 5.47944 13.4331 6.18497C13.5735 6.89049 13.9199 7.53856 14.4285 8.04721C14.9372 8.55587 15.5853 8.90227 16.2908 9.0426C16.9963 9.18294 17.7276 9.11092 18.3922 8.83563C19.0568 8.56035 19.6248 8.09418 20.0245 7.49606C20.4241 6.89795 20.6374 6.19476 20.6374 5.47541C20.6364 4.51109 20.2529 3.58655 19.5711 2.90468C18.8892 2.2228 17.9647 1.8393 17.0003 1.83833Z" fill="black"/>
</svg>
