<svg width="18" height="18" viewBox="0 0 18 18" fill="none" xmlns="http://www.w3.org/2000/svg">
<mask id="mask0_868_14439" style="mask-type:alpha" maskUnits="userSpaceOnUse" x="0" y="0" width="18" height="18">
<rect width="18" height="18" fill="#D9D9D9"/>
</mask>
<g mask="url(#mask0_868_14439)">
<path d="M7.49902 13.502C7.08652 13.502 6.7334 13.3551 6.43965 13.0613C6.1459 12.7676 5.99902 12.4145 5.99902 12.002V11.0645C5.28652 10.577 4.7334 9.95195 4.33965 9.18945C3.9459 8.42695 3.74902 7.61445 3.74902 6.75195C3.74902 5.28945 4.2584 4.04883 5.27715 3.03008C6.2959 2.01133 7.53652 1.50195 8.99902 1.50195C10.4615 1.50195 11.7022 2.01133 12.7209 3.03008C13.7397 4.04883 14.249 5.28945 14.249 6.75195C14.249 7.61445 14.0522 8.42383 13.6584 9.18008C13.2647 9.93633 12.7115 10.5645 11.999 11.0645V12.002C11.999 12.4145 11.8521 12.7676 11.5584 13.0613C11.2646 13.3551 10.9115 13.502 10.499 13.502H7.49902ZM7.49902 16.502C7.28652 16.502 7.1084 16.4301 6.96465 16.2863C6.8209 16.1426 6.74902 15.9645 6.74902 15.752V15.002H11.249V15.752C11.249 15.9645 11.1772 16.1426 11.0334 16.2863C10.8896 16.4301 10.7115 16.502 10.499 16.502H7.49902Z" fill="#E97737"/>
</g>
</svg>
