<svg width="40" height="40" viewBox="0 0 40 40" fill="none" xmlns="http://www.w3.org/2000/svg">
<path d="M22.1703 38.9189C21.4515 38.9181 20.7624 38.6321 20.2541 38.1238C19.7458 37.6155 19.4598 36.9264 19.459 36.2076V24.9773C19.459 24.8339 19.5159 24.6964 19.6173 24.5951C19.7187 24.4937 19.8562 24.4368 19.9995 24.4368C20.1429 24.4368 20.2804 24.4937 20.3817 24.5951C20.4831 24.6964 20.5401 24.8339 20.5401 24.9773V36.2076C20.5401 36.64 20.7119 37.0547 21.0176 37.3605C21.3234 37.6663 21.7382 37.8381 22.1706 37.8381C22.6031 37.8381 23.0178 37.6663 23.3236 37.3605C23.6294 37.0547 23.8011 36.64 23.8011 36.2076V16.5405C23.8011 16.3972 23.8581 16.2597 23.9595 16.1583C24.0608 16.0569 24.1983 16 24.3417 16C24.485 16 24.6225 16.0569 24.7239 16.1583C24.8253 16.2597 24.8822 16.3972 24.8822 16.5405V36.2076C24.8814 36.9265 24.5954 37.6157 24.087 38.124C23.5785 38.6323 22.8893 38.9182 22.1703 38.9189Z" fill="black"/>
<path d="M17.8291 38.9189C17.1102 38.9182 16.4209 38.6323 15.9125 38.124C15.4041 37.6157 15.118 36.9265 15.1172 36.2076V16.5405C15.1172 16.3972 15.1741 16.2597 15.2755 16.1583C15.3769 16.0569 15.5144 16 15.6577 16C15.8011 16 15.9386 16.0569 16.0399 16.1583C16.1413 16.2597 16.1983 16.3972 16.1983 16.5405V36.2076C16.1983 36.64 16.3701 37.0547 16.6758 37.3605C16.9816 37.6663 17.3964 37.8381 17.8288 37.8381C18.2613 37.8381 18.676 37.6663 18.9818 37.3605C19.2876 37.0547 19.4594 36.64 19.4594 36.2076V24.9773C19.4594 24.8339 19.5163 24.6964 19.6177 24.5951C19.719 24.4937 19.8565 24.4368 19.9999 24.4368C20.1433 24.4368 20.2807 24.4937 20.3821 24.5951C20.4835 24.6964 20.5404 24.8339 20.5404 24.9773V36.2076C20.5396 36.9264 20.2536 37.6155 19.7453 38.1238C19.2371 38.6321 18.5479 38.9181 17.8291 38.9189Z" fill="black"/>
<path d="M25.8552 26.8151C25.3105 26.8151 24.788 26.5987 24.4028 26.2135C24.0176 25.8283 23.8012 25.3059 23.8012 24.7611V16.5405C23.8012 16.3972 23.8581 16.2597 23.9595 16.1583C24.0609 16.057 24.1984 16 24.3417 16C24.4851 16 24.6226 16.057 24.724 16.1583C24.8253 16.2597 24.8823 16.3972 24.8823 16.5405V24.7568C24.8823 25.0148 24.9848 25.2623 25.1673 25.4448C25.3497 25.6272 25.5972 25.7297 25.8552 25.7297C26.1133 25.7297 26.3608 25.6272 26.5432 25.4448C26.7257 25.2623 26.8282 25.0148 26.8282 24.7568V14.727C26.8274 13.9947 26.5361 13.2927 26.0183 12.7748C25.5004 12.257 24.7984 11.9657 24.0661 11.9649H15.9331C15.2008 11.9657 14.4987 12.257 13.9809 12.7748C13.4631 13.2927 13.1718 13.9947 13.1709 14.727V24.7611C13.1709 25.0191 13.2734 25.2666 13.4559 25.4491C13.6384 25.6316 13.8858 25.7341 14.1439 25.7341C14.4019 25.7341 14.6494 25.6316 14.8319 25.4491C15.0144 25.2666 15.1169 25.0191 15.1169 24.7611V16.5405C15.1169 16.3972 15.1738 16.2597 15.2752 16.1583C15.3766 16.057 15.5141 16 15.6574 16C15.8008 16 15.9383 16.057 16.0396 16.1583C16.141 16.2597 16.198 16.3972 16.198 16.5405V24.7568C16.198 25.0265 16.1448 25.2936 16.0416 25.5428C15.9384 25.792 15.7871 26.0185 15.5963 26.2092C15.4056 26.3999 15.1792 26.5512 14.9299 26.6545C14.6807 26.7577 14.4136 26.8108 14.1439 26.8108C13.8742 26.8108 13.6071 26.7577 13.3578 26.6545C13.1086 26.5512 12.8822 26.3999 12.6915 26.2092C12.5007 26.0185 12.3494 25.792 12.2462 25.5428C12.143 25.2936 12.0898 25.0265 12.0898 24.7568V14.727C12.091 13.7081 12.4963 12.7312 13.2168 12.0107C13.9373 11.2902 14.9141 10.8849 15.9331 10.8838H24.0661C25.085 10.8849 26.0619 11.2902 26.7824 12.0107C27.5029 12.7312 27.9082 13.7081 27.9093 14.727V24.7611C27.9086 25.3056 27.6919 25.8277 27.3069 26.2127C26.9218 26.5978 26.3998 26.8144 25.8552 26.8151Z" fill="black"/>
<path d="M19.9998 9.58268C19.1591 9.58268 18.3373 9.33337 17.6382 8.86629C16.9392 8.3992 16.3943 7.73532 16.0726 6.95858C15.7509 6.18185 15.6667 5.32715 15.8307 4.50258C15.9947 3.678 16.3996 2.92058 16.9941 2.32609C17.5885 1.7316 18.346 1.32675 19.1705 1.16273C19.9951 0.998716 20.8498 1.0829 21.6266 1.40463C22.4033 1.72636 23.0672 2.2712 23.5343 2.97024C24.0013 3.66929 24.2506 4.49114 24.2506 5.33187C24.2494 6.45886 23.8011 7.53932 23.0042 8.33622C22.2073 9.13313 21.1268 9.58139 19.9998 9.58268ZM19.9998 2.16214C19.3729 2.16214 18.7601 2.34804 18.2388 2.69633C17.7176 3.04463 17.3113 3.53967 17.0714 4.11886C16.8315 4.69806 16.7687 5.33538 16.891 5.95025C17.0133 6.56512 17.3152 7.12991 17.7585 7.5732C18.2018 8.0165 18.7666 8.31839 19.3815 8.44069C19.9963 8.563 20.6336 8.50023 21.2128 8.26032C21.792 8.02041 22.2871 7.61413 22.6354 7.09288C22.9837 6.57162 23.1696 5.95878 23.1696 5.33187C23.1687 4.49147 22.8345 3.68573 22.2402 3.09148C21.646 2.49722 20.8402 2.163 19.9998 2.16214Z" fill="black"/>
</svg>
