<svg width="36" height="36" viewBox="0 0 36 36" fill="none" xmlns="http://www.w3.org/2000/svg">
<path d="M28.1996 0H7.79961C7.13683 0 6.59961 0.537225 6.59961 1.2V34.8C6.59961 35.4628 7.13683 36 7.79961 36H28.1996C28.8624 36 29.3996 35.4628 29.3996 34.8V1.2C29.3996 0.537225 28.8624 0 28.1996 0ZM28.1996 34.8H7.79961V15H28.1996V34.8ZM28.1996 13.8H7.79961V11.4H28.1996V13.8ZM28.1996 10.2H7.79961V1.2H28.1996V10.2Z" fill="#E97737"/>
<path d="M21.5996 2.3999H14.3996C13.4055 2.3999 12.5996 3.20578 12.5996 4.1999V7.1999C12.5996 8.19403 13.4055 8.9999 14.3996 8.9999H21.5996C22.5937 8.9999 23.3996 8.19403 23.3996 7.1999V4.1999C23.3996 3.20578 22.5937 2.3999 21.5996 2.3999ZM22.1996 7.1999C22.1996 7.53125 21.931 7.7999 21.5996 7.7999H14.3996C14.0683 7.7999 13.7996 7.53125 13.7996 7.1999V4.1999C13.7996 3.86855 14.0683 3.5999 14.3996 3.5999H21.5996C21.931 3.5999 22.1996 3.86855 22.1996 4.1999V7.1999Z" fill="#E97737"/>
</svg>
