<svg width="36" height="36" viewBox="0 0 36 36" fill="none" xmlns="http://www.w3.org/2000/svg">
<path d="M15.75 1.5H0.750023C0.335461 1.5 0 1.83546 0 2.25002V31.5C0 33.1545 1.3462 34.5 3.00002 34.5H13.5C15.1538 34.5 16.5 33.1546 16.5 31.5V2.25002C16.5 1.83546 16.1646 1.5 15.75 1.5ZM15 31.5C15 32.3269 14.3276 33 13.5 33H3.00002C2.17237 33 1.50005 32.3269 1.50005 31.5V13.5H15V31.5H15ZM15 12H1.49998V3.00005H15V12Z" fill="#E97737"/>
<path d="M3.75002 10.5H12.75C13.1646 10.5 13.5 10.1645 13.5 9.74995V5.24995C13.5 4.83546 13.1646 4.5 12.75 4.5H3.75002C3.33546 4.5 3 4.83546 3 5.25002V9.75002C3.00007 10.1646 3.33553 10.5 3.75002 10.5ZM4.50005 5.99998H12.0001V9H4.50005V5.99998Z" fill="#E97737"/>
<path d="M35.25 1.5H20.25C19.8355 1.5 19.5 1.83546 19.5 2.25002V31.5C19.5 33.1545 20.8462 34.5 22.5 34.5H33C34.6538 34.5 36 33.1545 36 31.5V2.25002C36 1.83546 35.6646 1.5 35.25 1.5ZM34.5 31.5C34.5 32.3269 33.8276 33 33.0001 33H22.5C21.6724 33 21 32.3269 21 31.5V13.5H34.5V31.5ZM34.5 12H21V3.00005H34.5V12Z" fill="#E97737"/>
<path d="M23.25 10.5H32.25C32.6646 10.5 33 10.1646 33 9.75002V5.25002C33 4.83546 32.6646 4.5 32.25 4.5H23.25C22.8355 4.50007 22.5 4.83553 22.5 5.25009V9.75009C22.5 10.1647 22.8355 10.5 23.25 10.5ZM24 6.00005H31.5V9.00007H24V6.00005Z" fill="#E97737"/>
</svg>
