<svg width="36" height="36" viewBox="0 0 36 36" fill="none" xmlns="http://www.w3.org/2000/svg">
<path d="M34.7996 0H1.1999C0.881788 0.000390729 0.576815 0.126936 0.351875 0.351879C0.126934 0.576823 0.000390724 0.8818 0 1.19992L0 2.39984C0.00188362 2.93019 0.179577 3.44495 0.505262 3.86353C0.830946 4.28211 1.28624 4.58087 1.79985 4.71305V13.3108C1.44987 13.4341 1.14664 13.6627 0.931796 13.9652C0.716951 14.2678 0.601029 14.6294 0.599951 15.0005V19.8001C0.601029 20.1712 0.716951 20.5328 0.931796 20.8353C1.14664 21.1379 1.44987 21.3665 1.79985 21.4898V32.4834C1.28567 32.6158 0.829954 32.915 0.50421 33.3343C0.178466 33.7536 0.00112215 34.2691 0 34.8001C0.000390724 35.1182 0.126934 35.4232 0.351875 35.6481C0.576815 35.8731 0.881788 35.9996 1.1999 36H34.7996C35.1177 35.9996 35.4227 35.8731 35.6476 35.6481C35.8726 35.4232 35.9991 35.1182 35.9995 34.8001C35.9984 34.2691 35.821 33.7536 35.4953 33.3343C35.1696 32.915 34.7138 32.6158 34.1997 32.4834V21.4898C34.5496 21.3665 34.8529 21.1379 35.0677 20.8353C35.2826 20.5328 35.3985 20.1712 35.3996 19.8001V15C35.3985 14.6289 35.2826 14.2673 35.0677 13.9647C34.8529 13.6622 34.5496 13.4336 34.1997 13.3103V4.71502C34.7134 4.58293 35.1688 4.28421 35.4945 3.86562C35.8203 3.44704 35.9981 2.93223 36 2.4018V1.19992C35.9996 0.881715 35.873 0.576663 35.6479 0.351706C35.4229 0.126748 35.1178 0.000260476 34.7996 0ZM16.1997 6.00008V9.60033C16.1993 9.91845 16.0727 10.2234 15.8478 10.4484C15.6228 10.6733 15.3179 10.7999 14.9998 10.8002H6.59995C6.28184 10.7999 5.97686 10.6733 5.75192 10.4484C5.52698 10.2234 5.40044 9.91845 5.40005 9.60033V6.00008C5.40044 5.68196 5.52698 5.37699 5.75192 5.15204C5.97686 4.9271 6.28184 4.80056 6.59995 4.80016H14.9998C15.3179 4.80056 15.6228 4.9271 15.8478 5.15204C16.0727 5.37699 16.1993 5.68196 16.1997 6.00008ZM6.59995 12.0002H14.9998C15.636 11.9994 16.2459 11.7463 16.6958 11.2964C17.1457 10.8465 17.3988 10.2366 17.3996 9.60033V6.00008C17.3972 5.57752 17.282 5.16325 17.0659 4.80016H18.9336C18.7175 5.16325 18.6023 5.57752 18.6 6.00008V9.60033C18.6007 10.2366 18.8538 10.8465 19.3037 11.2964C19.7536 11.7463 20.3635 11.9994 20.9998 12.0002H29.3996C30.0358 11.9994 30.6457 11.7463 31.0956 11.2964C31.5455 10.8465 31.7986 10.2366 31.7994 9.60033V6.00008C31.7969 5.57754 31.6817 5.1633 31.4657 4.80016H32.9998V13.2001H3.00221V4.80016H4.53384C4.31777 5.1633 4.20257 5.57754 4.20015 6.00008V9.60033C4.20093 10.2366 4.45402 10.8465 4.9039 11.2964C5.35378 11.7463 5.96372 11.9994 6.59995 12.0002ZM30.6 6.00008V9.60033C30.5996 9.91845 30.473 10.2234 30.2481 10.4484C30.0231 10.6733 29.7182 10.7999 29.4 10.8002H20.9998C20.6816 10.7999 20.3767 10.6733 20.1517 10.4484C19.9268 10.2234 19.8002 9.91845 19.7999 9.60033V6.00008C19.8002 5.68196 19.9268 5.37699 20.1517 5.15204C20.3767 4.9271 20.6816 4.80056 20.9998 4.80016H29.3996C29.7178 4.80043 30.0229 4.92691 30.2479 5.15187C30.4729 5.37683 30.5996 5.68188 30.6 6.00008ZM32.9998 21.602V32.4002H3.00221V21.6L32.9998 21.602ZM34.8001 34.8021H1.1999C1.20029 34.4839 1.32684 34.179 1.55178 33.954C1.77672 33.7291 2.08169 33.6025 2.3998 33.6021H33.5997C33.9175 33.6025 34.2222 33.7288 34.447 33.9533C34.6719 34.1778 34.7987 34.4823 34.7996 34.8001L34.8001 34.8021ZM34.1997 19.8001C34.1995 19.9592 34.1363 20.1117 34.0238 20.2242C33.9113 20.3367 33.7588 20.4 33.5997 20.4001H2.3998C2.24073 20.4 2.0882 20.3367 1.97572 20.2242C1.86323 20.1117 1.79998 19.9592 1.79985 19.8001V15C1.79998 14.8409 1.86323 14.6884 1.97572 14.5759C2.0882 14.4634 2.24073 14.4001 2.3998 14.4H33.5997C33.7588 14.4001 33.9113 14.4634 34.0238 14.5759C34.1363 14.6884 34.1995 14.8409 34.1997 15V19.8001ZM34.7996 2.39984C34.7992 2.71795 34.6727 3.02293 34.4477 3.24787C34.2228 3.47282 33.9178 3.59936 33.5997 3.59975H2.3998C2.08169 3.59936 1.77672 3.47282 1.55178 3.24787C1.32684 3.02293 1.20029 2.71795 1.1999 2.39984V1.19992H34.7996V2.39984Z" fill="#E97737"/>
</svg>
