<svg width="49" height="32" viewBox="0 0 49 32" fill="none" xmlns="http://www.w3.org/2000/svg">
<g clip-path="url(#clip0_2751_14249)">
<path fill-rule="evenodd" clip-rule="evenodd" d="M0 24.7673C0.435564 24.5471 0.764526 24.1674 1.09034 23.7616C1.48788 23.2677 1.87728 22.7984 2.35974 22.3968C2.93788 21.9163 3.71112 21.4565 4.6835 21.3109C4.4922 22.4342 4.39124 23.5887 4.39022 24.7673H0ZM3.27394 12.3839C3.76013 12.4138 4.23277 12.2514 4.715 12.0652C5.30296 11.8387 5.87223 11.6298 6.48781 11.5262C7.22926 11.4024 8.13123 11.3967 9.04954 11.7688C7.59353 13.5344 6.42737 15.5535 5.62569 17.752C4.85479 17.1331 4.41183 16.3425 4.14808 15.6329C3.92857 15.0408 3.82263 14.437 3.72233 13.8079C3.64027 13.2912 3.5429 12.7956 3.27394 12.3839ZM12.22 3.31829C12.6262 3.59072 13.1158 3.68935 13.6254 3.77247C14.2464 3.87429 14.8424 3.98137 15.4264 4.20393C16.1299 4.47213 16.9136 4.92401 17.5257 5.71184C15.354 6.52045 13.3592 7.70019 11.6142 9.17336C11.246 8.24185 11.2514 7.32675 11.374 6.57469C11.4759 5.9508 11.6821 5.37417 11.9058 4.7784C12.0898 4.28972 12.2497 3.81098 12.22 3.31829ZM24.4407 0V0.000667903L24.4413 0C24.6583 0.441781 25.0334 0.775213 25.4338 1.10508C25.9212 1.50813 26.3844 1.90278 26.7806 2.39147C27.2576 2.98108 27.7144 3.77076 27.855 4.76497C26.7453 4.57225 25.6051 4.47043 24.4409 4.47043C23.2768 4.47043 22.1367 4.57225 21.0266 4.76519C21.1674 3.77076 21.6237 2.98108 22.1011 2.39147C22.4974 1.90278 22.9605 1.50813 23.4479 1.10508C23.8486 0.775213 24.2234 0.441781 24.4407 0ZM36.6611 3.31807V3.31874C36.6314 3.81121 36.7919 4.28957 36.976 4.7784C37.1992 5.37417 37.4058 5.9508 37.5078 6.57469C37.6299 7.32653 37.6353 8.24163 37.2673 9.17314C35.5226 7.69996 33.5276 6.52067 31.356 5.71161C31.9681 4.92401 32.7517 4.47213 33.4551 4.20393C34.0393 3.98115 34.6353 3.87406 35.2563 3.77224C35.766 3.68935 36.2552 3.5905 36.6611 3.31807ZM45.6074 12.3834C45.3386 12.795 45.2415 13.2912 45.1594 13.8079C45.0589 14.4368 44.9532 15.0408 44.7337 15.6327C44.4699 16.3423 44.027 17.1328 43.2558 17.7518C42.4546 15.5532 41.2882 13.5342 39.8322 11.7686C40.7507 11.3967 41.6523 11.4022 42.3939 11.526C43.0095 11.6295 43.5788 11.8384 44.1667 12.065C44.6489 12.2514 45.1214 12.4136 45.6074 12.3834ZM44.198 21.3106C45.1704 21.4565 45.9438 21.9161 46.522 22.3968C47.0045 22.7981 47.3939 23.2675 47.7916 23.7616C48.117 24.1672 48.446 24.5471 48.8819 24.7673H44.4917C44.4905 23.5887 44.3893 22.4342 44.198 21.3106ZM30.268 6.9675C37.6476 9.43755 42.981 16.47 43.0118 24.7678H39.3603C39.6023 17.5195 36.4804 10.9772 30.268 6.9675Z" fill="#FAB401"/>
<path fill-rule="evenodd" clip-rule="evenodd" d="M31.0093 24.7678H32.9069C32.9987 22.6783 32.8219 20.2027 32.1549 18.041C32.0232 17.6146 31.8724 17.2004 31.7015 16.8051C31.2978 15.8711 30.7542 15.0254 30.1061 14.2439C29.3861 13.376 28.5277 12.5953 27.5602 11.9805C27.2748 11.7989 26.9787 11.6315 26.6731 11.4802C26.3697 11.3298 26.0561 11.1952 25.7331 11.079L25.7319 11.0784C22.0362 9.74893 18.2986 10.6945 15.1632 12.4228C14.552 12.7596 13.9636 13.1261 13.4035 13.511C12.8436 13.8958 12.3104 14.2999 11.8091 14.712L11.8081 14.7129C11.2129 15.2021 10.4679 15.8713 9.73106 16.6627C9.58592 16.8184 9.44261 16.977 9.30326 17.1375C8.93005 17.5658 8.35557 18.1664 8.52591 18.7876C8.66109 19.2803 9.2881 19.1349 9.50679 18.9651C9.84198 18.783 10.2104 18.4939 10.5255 18.2236C10.9522 17.8576 11.3551 17.4636 11.7777 17.0925C13.4866 15.5913 15.268 14.4337 17.0224 13.6501C17.4049 13.4795 17.7876 13.3257 18.1692 13.19C18.5494 13.0545 18.9279 12.9374 19.3027 12.8387L19.3044 12.8383C22.5691 11.979 26.1168 12.5358 28.3881 15.2335C30.5763 17.8323 30.9759 21.3111 31.0093 24.7678ZM7.46254 21.8303C7.66629 21.6374 7.87414 21.3858 8.09079 21.1071C8.3936 20.7177 8.42393 20.3407 8.30451 20.0685C8.25981 19.9669 8.1938 19.8796 8.11387 19.8116C8.03474 19.7445 7.94103 19.6965 7.83993 19.6732C7.59295 19.616 7.29762 19.7054 7.0472 20.0146C6.76373 20.3643 6.37198 20.9617 6.29205 21.4903C6.2771 21.5894 6.27314 21.6858 6.28333 21.776C6.29307 21.8642 6.31615 21.9477 6.3552 22.0238L6.35542 22.0248C6.41946 22.149 6.52716 22.2142 6.67083 22.2197C6.7008 22.2207 6.73318 22.2194 6.76747 22.2154C6.80132 22.2119 6.83766 22.2052 6.87649 22.1959L6.8781 22.1957C7.07167 22.1488 7.26501 22.0171 7.46254 21.8303ZM27.1481 24.7678H29.0303C29.1196 22.5158 28.7616 20.1899 27.7284 18.1774C26.7886 16.3466 25.2349 15.102 23.2237 14.8012C20.2877 14.3624 17.325 15.6216 14.8205 17.4238C12.0934 19.3859 9.84235 22.0503 7.87524 24.7678L10.3614 24.7644C12.5998 21.5494 17.7484 16.6688 21.5355 16.6368C22.7424 16.6266 23.9693 16.9139 24.8767 17.7341C25.5342 18.3284 26.3311 19.4827 26.292 20.4194C26.269 20.975 25.7824 21.1451 25.3159 20.9733C24.9535 20.8395 24.6975 20.5037 24.4439 20.1509C23.6198 19.0044 22.3346 18.4434 20.9247 18.6389C19.2431 18.872 17.1588 20.1949 15.8144 21.3982C14.655 22.4361 13.5908 23.5721 12.5867 24.7678H15.2598C16.2396 23.5696 17.274 22.5474 18.6039 21.7078C19.025 21.4421 19.5432 21.1611 20.088 20.9716C21.4622 20.4926 22.8298 20.6139 23.4368 22.348C23.6756 23.0296 23.7106 23.6274 23.641 24.7234L23.6407 24.7678H25.4586L25.4632 24.7116C25.4646 24.1117 25.4517 23.7074 25.5051 23.1126C25.551 22.6 25.7082 22.0689 26.178 22.0059C27.1763 21.7939 27.1283 24.0446 27.1481 24.7678ZM14.3356 30.5881H12.8585L12.4928 31.8924H11.3156L12.8731 26.8982H14.3649L15.9663 31.8924H14.7377L14.3356 30.5881ZM13.0268 29.7433H14.1601C13.8626 28.7679 13.6702 28.0985 13.5823 27.7354H13.5678L13.3339 28.6839L13.0268 29.7433ZM8.91048 30.5881H7.43345L7.06771 31.8924H5.89062L7.44803 26.8982H8.93957L10.5412 31.8924H9.31257L8.91048 30.5881ZM7.60167 29.7433H8.73479C8.43763 28.7679 8.24509 28.0985 8.15746 27.7354H8.14274L7.90887 28.6839L7.60167 29.7433ZM17.0917 31.87V26.9646C17.5791 26.8907 18.1008 26.8538 18.6566 26.8538C19.7073 26.8538 20.4615 27.0757 20.9187 27.5218C21.3754 27.9676 21.6036 28.5503 21.6036 29.2691C21.6036 30.1188 21.344 30.7773 20.8235 31.2441C20.3031 31.7109 19.5 31.9441 18.4153 31.9441C17.9133 31.9441 17.472 31.9195 17.0917 31.87ZM18.2252 27.7799V31.0326C18.2886 31.0476 18.4253 31.0551 18.6348 31.0551C19.1976 31.0551 19.6341 30.9043 19.9424 30.6041C20.2507 30.3041 20.4042 29.8743 20.4042 29.3138C20.4042 28.7998 20.2641 28.4085 19.9827 28.1393C19.7013 27.87 19.2952 27.7354 18.7662 27.7354C18.5445 27.7354 18.3642 27.7503 18.2252 27.7799ZM22.8167 26.8982H23.9502V28.8171H25.8879V26.8982H27.0212V31.8924H25.8879V29.8102H23.9502V31.8924H22.8167V26.8982ZM31.1304 30.5881H29.6534L29.2876 31.8924H28.1103L29.6677 26.8982H31.1595L32.7607 31.8924H31.5323L31.1304 30.5881ZM29.8216 29.7433H30.9547C30.6575 28.7679 30.4648 28.0985 30.3771 27.7354H30.3626L30.1286 28.6839L29.8216 29.7433ZM36.5555 30.5881H35.0785L34.7127 31.8924H33.5355L35.093 26.8982H36.5847L38.1859 31.8924H36.9576L36.5555 30.5881ZM35.2464 29.7433H36.3798C36.0826 28.7679 35.89 28.0985 35.8022 27.7354H35.7877L35.5536 28.6839L35.2464 29.7433ZM39.3116 31.8924V26.9646C39.7259 26.8907 40.2354 26.8538 40.8398 26.8538C41.5858 26.8538 42.1218 26.9783 42.4484 27.2278C42.7751 27.4772 42.9384 27.8343 42.9384 28.2985C42.9384 28.5751 42.8568 28.8246 42.6923 29.0481C42.5278 29.2717 42.3143 29.4299 42.0536 29.5212V29.5509C42.3608 29.6669 42.5826 29.973 42.719 30.4694C42.97 31.3638 43.1066 31.8379 43.1286 31.8924H41.9732C41.8757 31.7072 41.7587 31.3193 41.6223 30.729C41.5539 30.4326 41.4613 30.2252 41.3444 30.1066C41.2273 29.988 41.0397 29.9287 40.7811 29.9287H40.4304V31.8924H39.3116ZM40.4304 27.7354V29.1063H40.8983C41.1812 29.1063 41.404 29.0407 41.5674 28.9109C41.7307 28.7813 41.8125 28.6073 41.8125 28.3875C41.8125 28.1675 41.7392 27.9971 41.5918 27.8774C41.4443 27.7575 41.2347 27.6982 40.9642 27.6982C40.6983 27.6982 40.5205 27.7108 40.4304 27.7354ZM20.3636 24.7725L21.8721 24.7678C22.0703 23.4766 21.6827 22.4826 20.3938 22.7195C19.3075 22.9195 18.1407 24.013 17.4359 24.7678L19.4248 24.7589C19.6466 24.6113 20.0803 24.443 20.2584 24.5684C20.3251 24.6153 20.36 24.6818 20.3636 24.7725ZM35.7561 24.7688L35.7698 24.7682H35.7767C35.975 24.7794 36.3197 24.6866 36.5185 24.3468C36.5582 24.2789 36.592 24.2012 36.6178 24.1132C36.6441 24.0235 36.6624 23.9217 36.6699 23.8075L36.6715 23.784C36.8223 18.4428 35.208 14.0214 32.4674 11.0172C31.9351 10.434 31.3593 9.90351 30.7455 9.4296C30.1321 8.95627 29.481 8.53995 28.7975 8.18529L28.7867 8.1798C26.4829 6.98685 23.8701 6.52845 21.3054 6.74871C20.8053 6.7916 20.3079 6.85995 19.8167 6.9536C19.3243 7.04696 18.8356 7.16652 18.3546 7.31034L18.348 7.31249C15.7104 8.10299 13.2565 9.67212 11.2563 11.7312C10.8667 12.1323 10.4947 12.5517 10.1424 12.9866C9.96741 13.2027 9.79692 13.4229 9.63178 13.6465C11.0345 12.4203 12.5389 11.3447 14.1129 10.49C14.4675 10.2975 14.824 10.1168 15.1814 9.94915C15.5395 9.78128 15.9023 9.62455 16.2683 9.48028L16.2695 9.47984L16.2705 9.47939C17.661 8.93186 19.0317 8.58247 20.4028 8.42633C21.7739 8.27026 23.1458 8.30752 24.539 8.53193C25.5306 8.69186 26.4982 8.95479 27.3701 9.32295C27.5391 9.39405 27.7057 9.47019 27.8688 9.55012C28.0295 9.629 28.1877 9.71338 28.3429 9.80191L28.3456 9.80318C31.415 11.5063 33.5474 15.0015 34.4865 18.9474C34.6697 19.7169 34.8076 20.5031 34.8981 21.2949C34.9885 22.0867 35.0319 22.8867 35.0265 23.6857L35.0261 23.7318C35.0417 24.1594 35.1862 24.5168 35.4338 24.6778C35.4801 24.7076 35.5299 24.731 35.5831 24.7461C35.6372 24.7617 35.6953 24.7695 35.7561 24.7688Z" fill="#D32828"/>
</g>
<defs>
<clipPath id="clip0_2751_14249">
<rect width="49" height="32" fill="white"/>
</clipPath>
</defs>
</svg>
