<svg width="18" height="18" viewBox="0 0 18 18" fill="none" xmlns="http://www.w3.org/2000/svg">
<mask id="mask0_999_18123" style="mask-type:alpha" maskUnits="userSpaceOnUse" x="0" y="0" width="18" height="18">
<rect width="18" height="18" fill="#D9D9D9"/>
</mask>
<g mask="url(#mask0_999_18123)">
<path d="M3.98081 15.375C3.60681 15.375 3.28731 15.2426 3.02231 14.9777C2.75744 14.7127 2.625 14.3932 2.625 14.0192V3.98081C2.625 3.60681 2.75744 3.28731 3.02231 3.02231C3.28731 2.75744 3.60681 2.625 3.98081 2.625H14.0192C14.3932 2.625 14.7127 2.75744 14.9777 3.02231C15.2426 3.28731 15.375 3.60681 15.375 3.98081V6.02175H14.25V3.98081C14.25 3.91344 14.2284 3.85813 14.1851 3.81488C14.1419 3.77163 14.0866 3.75 14.0192 3.75H3.98081C3.91344 3.75 3.85813 3.77163 3.81488 3.81488C3.77163 3.85813 3.75 3.91344 3.75 3.98081V14.0192C3.75 14.0866 3.77163 14.1419 3.81488 14.1851C3.85813 14.2284 3.91344 14.25 3.98081 14.25H14.0192C14.0866 14.25 14.1419 14.2284 14.1851 14.1851C14.2284 14.1419 14.25 14.0866 14.25 14.0192V11.9782H15.375V14.0192C15.375 14.3932 15.2426 14.7127 14.9777 14.9777C14.7127 15.2426 14.3932 15.375 14.0192 15.375H3.98081ZM9.98081 12.375C9.60681 12.375 9.28731 12.2426 9.02231 11.9777C8.75744 11.7127 8.625 11.3932 8.625 11.0192V6.98081C8.625 6.60681 8.75744 6.28731 9.02231 6.02231C9.28731 5.75744 9.60681 5.625 9.98081 5.625H14.7692C15.1432 5.625 15.4627 5.75744 15.7277 6.02231C15.9926 6.28731 16.125 6.60681 16.125 6.98081V11.0192C16.125 11.3932 15.9926 11.7127 15.7277 11.9777C15.4627 12.2426 15.1432 12.375 14.7692 12.375H9.98081ZM14.7692 11.25C14.8366 11.25 14.8919 11.2284 14.9351 11.1851C14.9784 11.1419 15 11.0866 15 11.0192V6.98081C15 6.91344 14.9784 6.85813 14.9351 6.81488C14.8919 6.77163 14.8366 6.75 14.7692 6.75H9.98081C9.91344 6.75 9.85813 6.77163 9.81488 6.81488C9.77163 6.85813 9.75 6.91344 9.75 6.98081V11.0192C9.75 11.0866 9.77163 11.1419 9.81488 11.1851C9.85813 11.2284 9.91344 11.25 9.98081 11.25H14.7692ZM12 10.125C12.3125 10.125 12.5781 10.0156 12.7969 9.79688C13.0156 9.57812 13.125 9.3125 13.125 9C13.125 8.6875 13.0156 8.42188 12.7969 8.20312C12.5781 7.98438 12.3125 7.875 12 7.875C11.6875 7.875 11.4219 7.98438 11.2031 8.20312C10.9844 8.42188 10.875 8.6875 10.875 9C10.875 9.3125 10.9844 9.57812 11.2031 9.79688C11.4219 10.0156 11.6875 10.125 12 10.125Z" fill="white"/>
</g>
</svg>
