<svg width="20" height="20" viewBox="0 0 20 20" fill="none" xmlns="http://www.w3.org/2000/svg">
<mask id="mask0_1239_38611" style="mask-type:alpha" maskUnits="userSpaceOnUse" x="0" y="0" width="20" height="20">
<rect width="20" height="20" fill="#D9D9D9"/>
</mask>
<g mask="url(#mask0_1239_38611)">
<path d="M9.3763 13.9587H10.6263V10.6253H13.9596V9.37533H10.6263V6.04199H9.3763V9.37533H6.04297V10.6253H9.3763V13.9587ZM4.42443 17.0837C4.00345 17.0837 3.64714 16.9378 3.35547 16.6462C3.0638 16.3545 2.91797 15.9982 2.91797 15.5772V4.42345C2.91797 4.00248 3.0638 3.64616 3.35547 3.35449C3.64714 3.06283 4.00345 2.91699 4.42443 2.91699H15.5782C15.9992 2.91699 16.3555 3.06283 16.6471 3.35449C16.9388 3.64616 17.0846 4.00248 17.0846 4.42345V15.5772C17.0846 15.9982 16.9388 16.3545 16.6471 16.6462C16.3555 16.9378 15.9992 17.0837 15.5782 17.0837H4.42443ZM4.42443 15.8337H15.5782C15.6423 15.8337 15.7011 15.8069 15.7544 15.7535C15.8079 15.7001 15.8346 15.6414 15.8346 15.5772V4.42345C15.8346 4.35928 15.8079 4.30053 15.7544 4.2472C15.7011 4.19373 15.6423 4.16699 15.5782 4.16699H4.42443C4.36026 4.16699 4.30151 4.19373 4.24818 4.2472C4.19471 4.30053 4.16797 4.35928 4.16797 4.42345V15.5772C4.16797 15.6414 4.19471 15.7001 4.24818 15.7535C4.30151 15.8069 4.36026 15.8337 4.42443 15.8337Z" fill="white"/>
</g>
</svg>
