<svg width="18" height="18" viewBox="0 0 18 18" fill="none" xmlns="http://www.w3.org/2000/svg">
<mask id="mask0_999_18015" style="mask-type:alpha" maskUnits="userSpaceOnUse" x="0" y="0" width="18" height="18">
<rect width="18" height="18" fill="#D9D9D9"/>
</mask>
<g mask="url(#mask0_999_18015)">
<path d="M3.75 14.25V3.75V6.99806V6.60581V14.25ZM5.4375 9.5625H9.39375C9.414 9.35962 9.4585 9.16444 9.52725 8.97694C9.59588 8.78944 9.68119 8.60962 9.78319 8.4375H5.4375V9.5625ZM5.4375 12.5625H8.21531C8.38456 12.3701 8.57306 12.2079 8.78081 12.0758C8.98844 11.9435 9.20619 11.8346 9.43406 11.7491C9.40331 11.7029 9.37638 11.6529 9.35325 11.5991C9.33025 11.5452 9.31106 11.4914 9.29569 11.4375H5.4375V12.5625ZM5.4375 6.5625H12.5625V5.4375H5.4375V6.5625ZM3.98081 15.375C3.60194 15.375 3.28125 15.2438 3.01875 14.9813C2.75625 14.7188 2.625 14.3981 2.625 14.0192V3.98081C2.625 3.60194 2.75625 3.28125 3.01875 3.01875C3.28125 2.75625 3.60194 2.625 3.98081 2.625H14.0192C14.3981 2.625 14.7188 2.75625 14.9813 3.01875C15.2438 3.28125 15.375 3.60194 15.375 3.98081V8.05387C15.2336 7.825 15.0704 7.62281 14.8853 7.44731C14.7003 7.27181 14.4885 7.12206 14.25 6.99806V3.98081C14.25 3.92306 14.2259 3.87019 14.1778 3.82219C14.1298 3.77406 14.0769 3.75 14.0192 3.75H3.98081C3.92306 3.75 3.87019 3.77406 3.82219 3.82219C3.77406 3.87019 3.75 3.92306 3.75 3.98081V14.0192C3.75 14.0769 3.77406 14.1298 3.82219 14.1778C3.87019 14.2259 3.92306 14.25 3.98081 14.25H7.52306C7.51544 14.2961 7.50969 14.3423 7.50581 14.3884C7.50194 14.4346 7.5 14.4808 7.5 14.5269V15.375H3.98081ZM12.7067 11.625C12.2394 11.625 11.8414 11.4606 11.5125 11.1317C11.1836 10.8028 11.0192 10.4047 11.0192 9.9375C11.0192 9.47013 11.1836 9.07206 11.5125 8.74331C11.8414 8.41444 12.2394 8.25 12.7067 8.25C13.1741 8.25 13.5721 8.41444 13.9009 8.74331C14.2298 9.07206 14.3942 9.47013 14.3942 9.9375C14.3942 10.4047 14.2298 10.8028 13.9009 11.1317C13.5721 11.4606 13.1741 11.625 12.7067 11.625ZM9.14419 15.375V14.5125C9.14419 14.2461 9.21269 14.0016 9.34969 13.779C9.48681 13.5565 9.67988 13.3962 9.92888 13.2981C10.3644 13.1154 10.8156 12.9784 11.2824 12.8871C11.7493 12.7957 12.2241 12.75 12.7067 12.75C13.1798 12.75 13.6498 12.7957 14.1165 12.8871C14.5834 12.9784 15.0394 13.1154 15.4847 13.2981C15.7337 13.3962 15.9267 13.5565 16.0637 13.779C16.2007 14.0016 16.2692 14.2461 16.2692 14.5125V15.375H9.14419Z" fill="#1C1B1F"/>
</g>
</svg>
