<svg width="20" height="20" viewBox="0 0 20 20" fill="none" xmlns="http://www.w3.org/2000/svg">
<mask id="mask0_2330_43381" style="mask-type:alpha" maskUnits="userSpaceOnUse" x="0" y="0" width="20" height="20">
<rect width="20" height="20" fill="#D9D9D9"/>
</mask>
<g mask="url(#mask0_2330_43381)">
<path d="M4.30539 13.0227C4.05331 12.5537 3.86289 12.0694 3.73414 11.57C3.60539 11.0704 3.54102 10.561 3.54102 10.0419C3.54102 8.2395 4.16817 6.70561 5.42247 5.4402C6.67678 4.17464 8.2024 3.54186 9.99935 3.54186H10.65L9.10831 2.0002L9.98643 1.12207L13.0314 4.16686L9.98643 7.21165L9.10831 6.33353L10.65 4.79186H9.99935C8.55171 4.79186 7.32171 5.30145 6.30935 6.32061C5.29713 7.33992 4.79102 8.58033 4.79102 10.0419C4.79102 10.387 4.82865 10.7318 4.90393 11.0762C4.97935 11.4208 5.09234 11.7571 5.24289 12.0852L4.30539 13.0227ZM10.0123 18.8783L6.96727 15.8335L10.0123 12.7887L10.8904 13.6669L9.34872 15.2085H9.99935C11.447 15.2085 12.677 14.6989 13.6894 13.6798C14.7016 12.6605 15.2077 11.4201 15.2077 9.95853C15.2077 9.61339 15.17 9.2686 15.0948 8.92415C15.0194 8.57957 14.9064 8.24325 14.7558 7.9152L15.6933 6.9777C15.9454 7.44672 16.1358 7.93096 16.2646 8.4304C16.3933 8.92999 16.4577 9.43936 16.4577 9.95853C16.4577 11.7609 15.8305 13.2948 14.5762 14.5602C13.3219 15.8258 11.7963 16.4585 9.99935 16.4585H9.34872L10.8904 18.0002L10.0123 18.8783Z" fill="#E97737"/>
</g>
</svg>
