<svg width="24" height="24" viewBox="0 0 24 24" fill="none" xmlns="http://www.w3.org/2000/svg">
<mask id="mask0_1313_26753" style="mask-type:alpha" maskUnits="userSpaceOnUse" x="0" y="0" width="24" height="24">
<rect width="24" height="24" fill="#D9D9D9"/>
</mask>
<g mask="url(#mask0_1313_26753)">
<path d="M5.16725 15.6274C4.86475 15.0646 4.63625 14.4835 4.48175 13.8842C4.32725 13.2847 4.25 12.6734 4.25 12.0504C4.25 9.8876 5.00258 8.04693 6.50775 6.52843C8.01292 5.00976 9.84367 4.25043 12 4.25043H12.7808L10.9308 2.40043L11.9845 1.34668L15.6385 5.00043L11.9845 8.65418L10.9308 7.60043L12.7808 5.75043H12C10.2628 5.75043 8.78683 6.36193 7.572 7.58493C6.35733 8.8081 5.75 10.2966 5.75 12.0504C5.75 12.4646 5.79517 12.8783 5.8855 13.2917C5.976 13.7052 6.11158 14.1088 6.29225 14.5024L5.16725 15.6274ZM12.0155 22.6542L8.3615 19.0004L12.0155 15.3467L13.0693 16.4004L11.2192 18.2504H12C13.7372 18.2504 15.2132 17.6389 16.428 16.4159C17.6427 15.1928 18.25 13.7043 18.25 11.9504C18.25 11.5363 18.2048 11.1225 18.1145 10.7092C18.024 10.2957 17.8884 9.8921 17.7078 9.49843L18.8328 8.37343C19.1353 8.93626 19.3637 9.51735 19.5182 10.1167C19.6727 10.7162 19.75 11.3274 19.75 11.9504C19.75 14.1133 18.9974 15.9539 17.4923 17.4724C15.9871 18.9911 14.1563 19.7504 12 19.7504H11.2192L13.0693 21.6004L12.0155 22.6542Z" fill="#E97737"/>
</g>
</svg>
