<svg width="50" height="50" viewBox="0 0 50 50" fill="none" xmlns="http://www.w3.org/2000/svg">
<g filter="url(#filter0_d_2751_24680)">
<circle cx="25" cy="21" r="20" fill="white"/>
<circle cx="25" cy="21" r="20.5" stroke="#FFF1EB"/>
</g>
<path d="M33.5684 28.3926H17.1757C16.6944 28.3926 16.3066 28.7803 16.3066 29.2617V30.1308C16.3066 30.6121 16.6944 30.9999 17.1757 30.9999H33.5684C34.0498 30.9999 34.4375 30.6121 34.4375 30.1308V29.2617C34.4242 28.7803 34.0364 28.3926 33.5684 28.3926Z" fill="#FFC299"/>
<path d="M33.5684 30.1172H17.1757C16.9484 30.1172 16.7345 30.0236 16.5607 29.8631C16.4002 29.7027 16.3066 29.4887 16.3066 29.248V30.1172C16.3066 30.3445 16.4002 30.5584 16.5607 30.7322C16.7211 30.8927 16.9351 30.9863 17.1757 30.9863H33.5684C33.7957 30.9863 34.0097 30.8927 34.1835 30.7322C34.3439 30.5718 34.4375 30.3578 34.4375 30.1172V29.248C34.4375 29.4754 34.3439 29.6893 34.1835 29.8631C34.0097 30.0236 33.7957 30.1172 33.5684 30.1172Z" fill="#DD8158"/>
<path d="M14.6747 16.8919C14.3538 17.1058 13.966 17.1994 13.5783 17.1727C13.2039 17.146 12.8429 16.9855 12.5621 16.7181C12.2813 16.464 12.0941 16.1164 12.0272 15.742C11.9604 15.3676 12.0272 14.9799 12.2144 14.6322C12.3882 14.298 12.6824 14.0305 13.0301 13.8701C13.3777 13.7096 13.7788 13.6829 14.1532 13.7765C14.5276 13.8701 14.8619 14.084 15.0892 14.3916C15.3165 14.6991 15.4502 15.0735 15.4502 15.4479C15.4502 15.7286 15.3833 16.0228 15.2362 16.2635C15.1025 16.5309 14.9153 16.7448 14.6747 16.8919Z" fill="#DD8158"/>
<path d="M26.2549 15.209C25.9875 15.3695 25.6933 15.4497 25.3858 15.4497C25.0783 15.4497 24.7707 15.3695 24.5167 15.209C24.169 15.0218 23.915 14.7277 23.7679 14.38C23.6342 14.019 23.6075 13.6312 23.7144 13.2702C23.808 12.9092 24.0353 12.5883 24.3295 12.3476C24.6237 12.1203 24.998 12 25.3724 12C25.7468 12 26.1212 12.1203 26.4154 12.3476C26.7229 12.5749 26.9368 12.8958 27.0304 13.2702C27.124 13.6312 27.1106 14.019 26.9636 14.38C26.8299 14.7277 26.5758 15.0218 26.2549 15.209Z" fill="#DD8158"/>
<path d="M37.0185 17.1739C36.6708 17.1739 36.3499 17.0669 36.0558 16.8797C35.775 16.6925 35.5477 16.4251 35.414 16.1042C35.2803 15.7833 35.2535 15.4357 35.3204 15.1014C35.3872 14.7671 35.5477 14.4596 35.7884 14.2189C36.029 13.9783 36.3366 13.8178 36.6708 13.751C37.0051 13.6841 37.3528 13.7242 37.6737 13.8446C37.9946 13.9783 38.262 14.1922 38.4492 14.4864C38.6364 14.7805 38.7433 15.1148 38.7433 15.4491C38.7433 15.9037 38.5561 16.3449 38.2352 16.6658C37.9143 17.0001 37.4731 17.1739 37.0185 17.1739Z" fill="#DD8158"/>
<path d="M32.2704 17.5366C32.1367 17.5901 31.9896 17.6169 31.8426 17.6169C31.6554 17.6169 31.4682 17.5767 31.2944 17.4965C31.0269 17.3762 30.7996 17.1489 30.6659 16.8815C30.5322 16.614 30.5055 16.2931 30.5723 16.0124C30.6392 15.7182 30.813 15.4642 31.0537 15.277C31.2944 15.0898 31.5885 15.0095 31.8961 15.0229C32.1902 15.0363 32.4844 15.1566 32.7117 15.3572C32.939 15.5577 33.0861 15.8252 33.1262 16.1327C33.1663 16.4269 33.1128 16.7344 32.9524 16.9884C32.7919 17.2425 32.5512 17.4297 32.2704 17.5366Z" fill="#9E2C23"/>
<path d="M19.4484 17.4964C19.2746 17.5766 19.0874 17.6167 18.9002 17.6167C18.7531 17.6167 18.606 17.59 18.4723 17.5365C18.1915 17.4295 17.9509 17.2423 17.8038 16.9883C17.6433 16.7208 17.5898 16.4267 17.63 16.1192C17.6701 15.825 17.8171 15.5576 18.0444 15.357C18.2718 15.1565 18.5525 15.0361 18.8467 15.0227C19.1409 15.0094 19.435 15.103 19.6757 15.2768C19.9164 15.464 20.0902 15.718 20.157 16.0122C20.2239 16.3063 20.1972 16.6139 20.0634 16.8813C19.9297 17.1487 19.7158 17.3626 19.4484 17.4964Z" fill="#9E2C23"/>
<path d="M22.6711 22.6954C22.1496 23.5244 21.4811 24.0726 20.6254 24.0726C20.0103 24.0726 19.2348 23.4709 18.4727 22.6018V17.5343C18.6064 17.5877 18.7534 17.6145 18.9005 17.6145C19.0877 17.6145 19.2749 17.5744 19.4487 17.4941C19.7964 18.4301 20.9463 21.238 22.6711 22.6954Z" fill="#E8A989"/>
<path d="M32.2707 17.5359V22.6035C31.4952 23.4726 30.7331 24.0743 30.118 24.0743C29.2623 24.0743 28.5937 23.5127 28.0723 22.6837C29.7971 21.2263 30.947 18.4184 31.2946 17.4824C31.4685 17.5626 31.6557 17.6028 31.8428 17.6028C31.9899 17.6161 32.137 17.5894 32.2707 17.5359Z" fill="#E8A989"/>
<path d="M26.2684 27.0021C26.3487 27.0556 26.4289 27.0957 26.5225 27.0957C26.6161 27.0957 26.7097 27.0823 26.7899 27.0288C26.8701 26.9753 26.937 26.9085 26.9771 26.8149C27.0172 26.7347 27.0306 26.6277 27.0038 26.5475L26.7765 25.4377L27.3782 24.836C27.4451 24.7692 27.4852 24.6889 27.4986 24.6087C27.5119 24.5285 27.5119 24.4349 27.4718 24.3547C27.4451 24.2744 27.3782 24.2076 27.3114 24.1541C27.2445 24.1006 27.1509 24.0739 27.0707 24.0739H26.2283L25.7871 23.0443C25.747 22.9641 25.6935 22.8972 25.6133 22.8571C25.5464 22.8036 25.4528 22.7903 25.3726 22.7903C25.2924 22.7903 25.1988 22.817 25.1319 22.8571C25.0517 22.8972 24.9982 22.9641 24.9581 23.0443L24.5169 24.0739H23.6745C23.5809 24.0739 23.5007 24.1006 23.4338 24.1541C23.367 24.2076 23.3001 24.2744 23.2734 24.3547C23.2332 24.4349 23.2199 24.5285 23.2332 24.6087C23.26 24.7023 23.3001 24.7825 23.367 24.836L23.9686 25.4377L23.7413 26.5475C23.728 26.6411 23.7413 26.7347 23.7681 26.8149C23.8082 26.8951 23.875 26.9753 23.9553 27.0288C24.0355 27.0823 24.1291 27.1091 24.2227 27.0957C24.3163 27.0957 24.4099 27.0556 24.4767 27.0021L25.3726 26.3469L26.2684 27.0021ZM32.272 22.6031C33.9567 20.7178 35.6815 17.6157 36.0693 16.8937C36.3501 17.0809 36.6843 17.1745 37.0186 17.1745L33.5689 26.6678V28.3927H17.1762V26.6678L13.7266 17.1745C14.0608 17.1745 14.3951 17.0809 14.6759 16.8937C15.0636 17.6157 16.7885 20.7178 18.4732 22.6031C19.2487 23.4722 20.0109 24.0739 20.6259 24.0739C21.4817 24.0739 22.1502 23.5123 22.6717 22.6833C24.089 20.4504 24.4366 16.1583 24.4901 15.209C24.7575 15.3694 25.0651 15.4497 25.3726 15.4497C25.6801 15.4497 25.9876 15.3694 26.2417 15.209C26.3085 16.1583 26.6562 20.4504 28.0735 22.6967C28.595 23.5257 29.2635 24.0872 30.1192 24.0872C30.7343 24.0739 31.4964 23.4722 32.272 22.6031Z" fill="#FFC299"/>
<path d="M25.7855 23.0451L26.2267 24.0746H27.0691C27.1627 24.0746 27.2429 24.1014 27.3098 24.1548C27.3766 24.2083 27.4435 24.2752 27.4702 24.3554C27.497 24.4356 27.5104 24.5292 27.497 24.6095C27.4836 24.7031 27.4435 24.7833 27.3766 24.8368L26.775 25.4384L27.0023 26.5482C27.0156 26.6418 27.0156 26.7354 26.9755 26.8156C26.9354 26.8959 26.8686 26.9761 26.7883 27.0296C26.7081 27.0831 26.6145 27.1098 26.5209 27.0964C26.4273 27.0964 26.3337 27.0563 26.2669 27.0028L25.371 26.3477L24.4752 27.0028C24.3949 27.0563 24.3147 27.0964 24.2211 27.0964C24.1275 27.0964 24.0339 27.0831 23.9537 27.0296C23.8735 26.9761 23.8066 26.9092 23.7665 26.8156C23.7264 26.7354 23.713 26.6285 23.7398 26.5482L23.9671 25.4384L23.3654 24.8368C23.2985 24.7833 23.2584 24.7031 23.245 24.6095C23.2183 24.5292 23.2317 24.4356 23.2584 24.3554C23.2852 24.2752 23.352 24.2083 23.4189 24.1548C23.4991 24.1014 23.5793 24.0746 23.6729 24.0746H24.5153L24.9565 23.0451C24.9966 22.9648 25.0501 22.898 25.1303 22.8579C25.1972 22.8044 25.2774 22.791 25.371 22.791C25.4646 22.791 25.5448 22.8178 25.6117 22.8579C25.6919 22.898 25.7454 22.9648 25.7855 23.0451Z" fill="#D1013E"/>
<path d="M26.2549 14.3535C25.9875 14.5139 25.6933 14.5941 25.3858 14.5941C25.0783 14.5941 24.7708 14.5139 24.5167 14.3535C24.1022 14.1128 23.8214 13.7384 23.7011 13.3105C23.6075 13.6716 23.6342 14.0459 23.7813 14.3936C23.915 14.7412 24.1691 15.022 24.5033 15.2092C24.7574 15.3697 25.0649 15.4499 25.3724 15.4499C25.68 15.4499 25.9875 15.3697 26.2415 15.2092C26.5624 15.022 26.8165 14.7412 26.9636 14.3936C27.1107 14.0459 27.1374 13.6716 27.0304 13.3105C26.9235 13.7384 26.6427 14.1128 26.2549 14.3535Z" fill="#B24732"/>
<path d="M37.9009 16.0781C37.6334 16.2385 37.3393 16.3188 37.0318 16.3188C36.7242 16.3188 36.4167 16.2385 36.1627 16.0781C35.7749 15.8508 35.4807 15.4764 35.3738 15.0352C35.2802 15.3962 35.3069 15.7839 35.4406 16.1182C35.5877 16.4658 35.8418 16.7466 36.1627 16.9338C36.4301 17.0943 36.7242 17.1745 37.0318 17.1745C37.3393 17.1745 37.6468 17.0943 37.9009 16.9338C38.2218 16.7466 38.4758 16.4658 38.6229 16.1182C38.77 15.7706 38.7967 15.3962 38.6897 15.0352C38.5694 15.4764 38.2886 15.8508 37.9009 16.0781Z" fill="#B24732"/>
<path d="M14.6084 16.0781C14.341 16.2385 14.0469 16.3188 13.7393 16.3188C13.4318 16.3188 13.1243 16.2385 12.8702 16.0781C12.4557 15.8508 12.1749 15.4764 12.0546 15.0352C11.961 15.3962 11.9877 15.7706 12.1348 16.1182C12.2819 16.4658 12.5359 16.7466 12.8568 16.9338C13.1243 17.0943 13.4184 17.1745 13.726 17.1745C14.0335 17.1745 14.341 17.0943 14.5951 16.9338C14.916 16.7466 15.17 16.4658 15.3171 16.1182C15.4642 15.7706 15.4909 15.3962 15.3839 15.0352C15.277 15.4764 14.9962 15.8508 14.6084 16.0781Z" fill="#B24732"/>
<path d="M19.4487 16.626C19.2749 16.7062 19.0877 16.7464 18.9005 16.7464C18.7534 16.7464 18.6063 16.7196 18.4726 16.6661C18.2854 16.6127 18.125 16.5057 17.9913 16.372C17.8576 16.2383 17.7506 16.0778 17.6837 15.8906C17.6303 16.0243 17.6035 16.1714 17.6035 16.3185C17.6035 16.5859 17.6837 16.8533 17.8442 17.0673C18.0046 17.2812 18.2186 17.455 18.4726 17.5352C18.6063 17.5887 18.7534 17.6155 18.9005 17.6155C19.0877 17.6155 19.2749 17.5754 19.4487 17.4951C19.7429 17.3614 19.9702 17.1207 20.1039 16.8266C20.2242 16.5324 20.2376 16.1982 20.1306 15.8906C20.0771 16.0511 19.9835 16.1982 19.8632 16.3319C19.7429 16.4522 19.5958 16.5592 19.4487 16.626Z" fill="#B24732"/>
<path d="M32.3921 16.626C32.2182 16.7062 32.031 16.7464 31.8438 16.7464C31.6968 16.7464 31.5497 16.7196 31.416 16.6661C31.2288 16.5993 31.0683 16.5057 30.9346 16.372C30.8009 16.2383 30.694 16.0778 30.6271 15.8906C30.5736 16.0243 30.5469 16.1714 30.5469 16.3185C30.5469 16.5859 30.6271 16.8533 30.7876 17.0673C30.948 17.2812 31.1619 17.455 31.416 17.5352C31.5497 17.5887 31.6968 17.6155 31.8438 17.6155C32.031 17.6155 32.2182 17.5754 32.3921 17.4951C32.6862 17.3614 32.9135 17.1207 33.0472 16.8266C33.1676 16.5324 33.1809 16.1982 33.074 15.8906C33.0205 16.0511 32.9269 16.1982 32.8066 16.3319C32.6862 16.4656 32.5391 16.5592 32.3921 16.626Z" fill="#B24732"/>
<path d="M19.3418 22.6436C19.2081 22.5634 19.1011 22.4564 19.0209 22.3227C18.9406 22.189 18.9005 22.0419 18.9005 21.8948V19.341C18.9005 19.1137 18.9941 18.8864 19.1546 18.7259C19.315 18.5655 19.5423 18.4719 19.7696 18.4719H19.8499C19.676 18.0574 19.529 17.7231 19.4487 17.4824C19.2749 17.576 19.0877 17.6161 18.9005 17.6161C18.7534 17.6161 18.6064 17.5894 18.4727 17.5359V22.6035C19.2482 23.4726 20.0103 24.0743 20.6254 24.0743C21.4811 24.0743 22.1496 23.5127 22.6711 22.6837C22.631 22.6436 22.5909 22.6035 22.5374 22.5634C21.3474 23.5394 20.0103 23.018 19.3418 22.6436Z" fill="#AF3A35"/>
<path d="M31.8428 17.6145C31.6557 17.6145 31.4685 17.5744 31.2946 17.4941C31.2144 17.7214 31.0673 18.0691 30.8935 18.4836H30.9737C31.201 18.4836 31.4284 18.5772 31.5888 18.7376C31.7493 18.8981 31.8428 19.1254 31.8428 19.3527V21.8932C31.8428 22.0402 31.8027 22.2007 31.7225 22.3344C31.6423 22.4681 31.5353 22.5751 31.4016 22.6553C30.7331 23.0297 29.396 23.5511 28.206 22.5884C28.1659 22.6286 28.1257 22.6687 28.0723 22.7088C28.5937 23.5378 29.2623 24.0993 30.118 24.0993C30.7331 24.0993 31.5086 23.4977 32.2707 22.6286V17.5343C32.137 17.5877 31.9899 17.6145 31.8428 17.6145Z" fill="#AF3A35"/>
<path d="M35.9882 18.3787C36.0417 18.2851 36.1085 18.2182 36.2021 18.1781C36.2957 18.138 36.4027 18.138 36.4963 18.1648L36.63 18.2049L37.0044 17.1753C36.6701 17.1753 36.3358 17.0817 36.0551 16.8945C35.6673 17.6166 33.9425 20.7186 32.2577 22.6039C31.5892 23.366 30.9207 23.9142 30.3457 24.0479C31.1212 23.9142 33.528 23.0986 35.9882 18.3787Z" fill="#DD8158"/>
<path d="M26.2684 27.0029L25.8138 26.6686H24.9447L24.4901 27.0029C24.4233 27.0564 24.343 27.0831 24.2628 27.0965C24.1826 27.1099 24.1024 27.0965 24.0221 27.0564C23.9419 27.0163 23.875 26.9628 23.8349 26.8959C23.7815 26.8291 23.7547 26.7489 23.7547 26.6686H19.7702C19.4226 26.6686 19.1017 26.5349 18.861 26.2942C18.6069 26.0536 18.4732 25.7193 18.4732 25.3717L14.9299 18.6729C14.8898 18.606 14.8765 18.5391 14.8765 18.4589C14.8765 18.3787 14.9032 18.3118 14.9433 18.245C14.9834 18.1781 15.0369 18.1247 15.1038 18.0979C15.1706 18.0578 15.2375 18.0444 15.3177 18.0444H15.3311C15.0102 17.523 14.7829 17.1085 14.6759 16.8945C14.3951 17.0817 14.0608 17.1753 13.7266 17.1753L17.1762 26.6686V28.3935H33.5689V26.6686H27.0038C27.0038 26.7489 26.9637 26.8291 26.9236 26.8959C26.8701 26.9628 26.8166 27.0163 26.7364 27.0564C26.6562 27.0965 26.576 27.1099 26.4957 27.0965C26.4155 27.0831 26.3353 27.0564 26.2684 27.0029Z" fill="#DD8158"/>
<path d="M24.9037 17.121C24.917 16.9071 25.0106 16.6932 25.1711 16.5461C25.3315 16.399 25.5455 16.3188 25.7594 16.3188H26.3344C26.2809 15.824 26.2541 15.4363 26.2408 15.209C25.9733 15.3694 25.6792 15.4497 25.3717 15.4497C25.0641 15.4497 24.7566 15.3694 24.5026 15.209C24.4357 16.1583 24.0881 20.4504 22.6707 22.6967C22.1493 23.5257 21.4807 24.0739 20.625 24.0739C24.0747 24.0739 24.77 19.1133 24.9037 17.121Z" fill="#DD8158"/>
<path d="M27.8857 24.1948C27.8188 24.0343 27.7119 23.9006 27.5648 23.7937C27.4177 23.7001 27.2573 23.6466 27.0834 23.6466H26.5219L26.1876 22.8711C26.1876 22.8577 26.1742 22.8577 26.1742 22.8443C26.1074 22.6973 25.987 22.5769 25.84 22.4833C25.6929 22.3897 25.5324 22.3496 25.372 22.3496C25.1982 22.3496 25.0377 22.4031 24.8906 22.4967C24.7435 22.5903 24.6232 22.724 24.5564 22.8711L24.2355 23.6466H23.6739C23.5001 23.6466 23.3262 23.7001 23.1925 23.7937C23.0454 23.9006 22.9251 24.0343 22.8583 24.1948C22.8048 24.3552 22.778 24.5291 22.8181 24.7029C22.8583 24.8767 22.9385 25.0238 23.0588 25.1441L23.5001 25.572L23.3129 26.4545C23.2728 26.6283 23.2995 26.8155 23.3663 26.9759C23.4332 27.1364 23.5535 27.2835 23.714 27.3771C23.8611 27.4707 24.0349 27.5241 24.1953 27.5241C24.3825 27.5241 24.5697 27.4573 24.7302 27.3503L25.372 26.8823L26.0004 27.3503C26.1475 27.4573 26.3213 27.5241 26.5085 27.5241C26.6957 27.5241 26.8695 27.484 27.03 27.3771C27.177 27.2835 27.2974 27.1364 27.3776 26.9759C27.4445 26.8155 27.4712 26.6283 27.4311 26.4545L27.2439 25.572L27.6851 25.1441C27.8055 25.0238 27.8991 24.8633 27.9258 24.6895C27.9659 24.5291 27.9392 24.3552 27.8857 24.1948ZM27.3776 24.8366L26.7759 25.4383L27.0032 26.5481C27.0166 26.6417 27.0032 26.7353 26.9765 26.8155C26.9364 26.8957 26.8695 26.9759 26.7893 27.0294C26.7091 27.0829 26.6155 27.1096 26.5219 27.0963C26.4283 27.0963 26.3347 27.0562 26.2678 27.0027L25.372 26.3475L24.4761 27.0027C24.3959 27.0562 24.3157 27.0963 24.2221 27.0963C24.1285 27.0963 24.0349 27.0829 23.9547 27.0294C23.8744 26.9759 23.8076 26.9091 23.7675 26.8155C23.7274 26.7353 23.714 26.6283 23.7407 26.5481L23.968 25.4383L23.3663 24.8366C23.2995 24.7831 23.2594 24.7029 23.246 24.6093C23.2193 24.5291 23.2326 24.4355 23.2594 24.3552C23.2861 24.275 23.353 24.2082 23.4198 24.1547C23.5001 24.1012 23.5803 24.0745 23.6739 24.0745H24.5162L24.9575 23.0449C24.9976 22.9647 25.0511 22.8978 25.1313 22.8577C25.1982 22.8042 25.2918 22.7908 25.372 22.7908C25.4522 22.7908 25.5458 22.8176 25.6127 22.8577C25.6929 22.8978 25.7464 22.9647 25.7865 23.0449L26.2277 24.0745H27.0701C27.1637 24.0745 27.2439 24.1012 27.3108 24.1547C27.3776 24.2082 27.4445 24.275 27.4712 24.3552C27.4979 24.4355 27.5113 24.5291 27.4979 24.6093C27.4846 24.7029 27.4445 24.7831 27.3776 24.8366Z" fill="#9E2C23"/>
<path d="M32.2716 16.3186C32.5123 16.3186 32.6995 16.1314 32.6995 15.8908C32.6995 15.6501 32.5123 15.4629 32.2716 15.4629C32.0309 15.4629 31.8438 15.6501 31.8438 15.8908C31.8438 16.1181 32.0309 16.3186 32.2716 16.3186Z" fill="#DD8158"/>
<path d="M19.3283 16.3186C19.5689 16.3186 19.7561 16.1314 19.7561 15.8908C19.7561 15.6501 19.5689 15.4629 19.3283 15.4629C19.0876 15.4629 18.9004 15.6501 18.9004 15.8908C18.9004 16.1181 19.101 16.3186 19.3283 16.3186Z" fill="#DD8158"/>
<path d="M25.799 13.7249C26.0396 13.7249 26.2268 13.5377 26.2268 13.297C26.2268 13.0563 26.0396 12.8691 25.799 12.8691C25.5583 12.8691 25.3711 13.0563 25.3711 13.297C25.3711 13.5377 25.5583 13.7249 25.799 13.7249Z" fill="#FFFCED"/>
<path d="M37.8732 15.4495C38.1139 15.4495 38.301 15.2623 38.301 15.0216C38.301 14.7809 38.1139 14.5938 37.8732 14.5938C37.6325 14.5938 37.4453 14.7809 37.4453 15.0216C37.4453 15.2623 37.6459 15.4495 37.8732 15.4495Z" fill="#FFFCED"/>
<path d="M14.5945 15.4495C14.8352 15.4495 15.0224 15.2623 15.0224 15.0216C15.0224 14.7809 14.8352 14.5938 14.5945 14.5938C14.3538 14.5938 14.1666 14.7809 14.1666 15.0216C14.1533 15.2623 14.3538 15.4495 14.5945 15.4495Z" fill="#FFFCED"/>
<defs>
<filter id="filter0_d_2751_24680" x="0" y="0" width="50" height="50" filterUnits="userSpaceOnUse" color-interpolation-filters="sRGB">
<feFlood flood-opacity="0" result="BackgroundImageFix"/>
<feColorMatrix in="SourceAlpha" type="matrix" values="0 0 0 0 0 0 0 0 0 0 0 0 0 0 0 0 0 0 127 0" result="hardAlpha"/>
<feOffset dy="4"/>
<feGaussianBlur stdDeviation="2"/>
<feComposite in2="hardAlpha" operator="out"/>
<feColorMatrix type="matrix" values="0 0 0 0 0 0 0 0 0 0 0 0 0 0 0 0 0 0 0.06 0"/>
<feBlend mode="normal" in2="BackgroundImageFix" result="effect1_dropShadow_2751_24680"/>
<feBlend mode="normal" in="SourceGraphic" in2="effect1_dropShadow_2751_24680" result="shape"/>
</filter>
</defs>
</svg>
