<svg width="12" height="14" viewBox="0 0 12 14" fill="none" xmlns="http://www.w3.org/2000/svg">
<path d="M1.27606 14C0.919471 14 0.617647 13.8718 0.370588 13.6155C0.123529 13.3592 0 13.046 0 12.676V2.8732C0 2.50322 0.123529 2.19006 0.370588 1.93372C0.617647 1.67738 0.919471 1.54921 1.27606 1.54921H2.25335V0H3.33935V1.54921H8.68782V0H9.74665V1.54921H10.7239C11.0805 1.54921 11.3824 1.67738 11.6294 1.93372C11.8765 2.19006 12 2.50322 12 2.8732V12.676C12 13.046 11.8765 13.3592 11.6294 13.6155C11.3824 13.8718 11.0805 14 10.7239 14H1.27606ZM1.27606 12.9014H10.7239C10.7783 12.9014 10.8281 12.8779 10.8732 12.8309C10.9185 12.784 10.9412 12.7324 10.9412 12.676V5.8028H1.05882V12.676C1.05882 12.7324 1.08147 12.784 1.12676 12.8309C1.17194 12.8779 1.22171 12.9014 1.27606 12.9014ZM1.05882 4.7042H10.9412V2.8732C10.9412 2.81681 10.9185 2.76517 10.8732 2.7183C10.8281 2.6713 10.7783 2.64781 10.7239 2.64781H1.27606C1.22171 2.64781 1.17194 2.6713 1.12676 2.7183C1.08147 2.76517 1.05882 2.81681 1.05882 2.8732V4.7042ZM6 8.5634C5.82718 8.5634 5.67988 8.50023 5.55812 8.37389C5.43647 8.24767 5.37565 8.09485 5.37565 7.91541C5.37565 7.73609 5.43647 7.58326 5.55812 7.45693C5.67988 7.33071 5.82718 7.2676 6 7.2676C6.17282 7.2676 6.32012 7.33071 6.44188 7.45693C6.56353 7.58326 6.62435 7.73609 6.62435 7.91541C6.62435 8.09485 6.56353 8.24767 6.44188 8.37389C6.32012 8.50023 6.17282 8.5634 6 8.5634ZM3.17647 8.5634C3.00365 8.5634 2.85635 8.50023 2.73459 8.37389C2.61294 8.24767 2.55212 8.09485 2.55212 7.91541C2.55212 7.73609 2.61294 7.58326 2.73459 7.45693C2.85635 7.33071 3.00365 7.2676 3.17647 7.2676C3.34929 7.2676 3.49659 7.33071 3.61835 7.45693C3.74 7.58326 3.80082 7.73609 3.80082 7.91541C3.80082 8.09485 3.74 8.24767 3.61835 8.37389C3.49659 8.50023 3.34929 8.5634 3.17647 8.5634ZM8.82353 8.5634C8.65071 8.5634 8.50341 8.50023 8.38165 8.37389C8.26 8.24767 8.19918 8.09485 8.19918 7.91541C8.19918 7.73609 8.26 7.58326 8.38165 7.45693C8.50341 7.33071 8.65071 7.2676 8.82353 7.2676C8.99635 7.2676 9.14365 7.33071 9.26541 7.45693C9.38706 7.58326 9.44788 7.73609 9.44788 7.91541C9.44788 8.09485 9.38706 8.24767 9.26541 8.37389C9.14365 8.50023 8.99635 8.5634 8.82353 8.5634ZM6 11.4366C5.82718 11.4366 5.67988 11.3734 5.55812 11.2471C5.43647 11.1209 5.37565 10.9681 5.37565 10.7888C5.37565 10.6094 5.43647 10.4565 5.55812 10.3303C5.67988 10.204 5.82718 10.1408 6 10.1408C6.17282 10.1408 6.32012 10.204 6.44188 10.3303C6.56353 10.4565 6.62435 10.6094 6.62435 10.7888C6.62435 10.9681 6.56353 11.1209 6.44188 11.2471C6.32012 11.3734 6.17282 11.4366 6 11.4366ZM3.17647 11.4366C3.00365 11.4366 2.85635 11.3734 2.73459 11.2471C2.61294 11.1209 2.55212 10.9681 2.55212 10.7888C2.55212 10.6094 2.61294 10.4565 2.73459 10.3303C2.85635 10.204 3.00365 10.1408 3.17647 10.1408C3.34929 10.1408 3.49659 10.204 3.61835 10.3303C3.74 10.4565 3.80082 10.6094 3.80082 10.7888C3.80082 10.9681 3.74 11.1209 3.61835 11.2471C3.49659 11.3734 3.34929 11.4366 3.17647 11.4366ZM8.82353 11.4366C8.65071 11.4366 8.50341 11.3734 8.38165 11.2471C8.26 11.1209 8.19918 10.9681 8.19918 10.7888C8.19918 10.6094 8.26 10.4565 8.38165 10.3303C8.50341 10.204 8.65071 10.1408 8.82353 10.1408C8.99635 10.1408 9.14365 10.204 9.26541 10.3303C9.38706 10.4565 9.44788 10.6094 9.44788 10.7888C9.44788 10.9681 9.38706 11.1209 9.26541 11.2471C9.14365 11.3734 8.99635 11.4366 8.82353 11.4366Z" fill="#5A5A5A"/>
</svg>
