<svg width="24" height="24" viewBox="0 0 24 24" fill="none" xmlns="http://www.w3.org/2000/svg">
<mask id="mask0_1468_42138" style="mask-type:alpha" maskUnits="userSpaceOnUse" x="0" y="0" width="24" height="24">
<rect width="24" height="24" fill="#D9D9D9"/>
</mask>
<g mask="url(#mask0_1468_42138)">
<path d="M5.92127 20.5L3.85002 9.21552C3.32318 9.28718 2.86393 9.15193 2.47227 8.80977C2.0806 8.46743 1.88477 8.0341 1.88477 7.50977C1.88477 7.0366 2.05335 6.63143 2.39052 6.29427C2.72768 5.9571 3.13602 5.78851 3.61552 5.78851C4.08852 5.78851 4.4936 5.9571 4.83077 6.29427C5.16793 6.63143 5.33652 7.0366 5.33652 7.50977C5.33652 7.72377 5.3016 7.92435 5.23177 8.11152C5.16193 8.29868 5.06035 8.46601 4.92702 8.61351C5.26152 8.79818 5.60027 8.95168 5.94327 9.07402C6.28627 9.19652 6.64685 9.25777 7.02502 9.25777C7.80318 9.25777 8.5176 9.04877 9.16827 8.63076C9.81893 8.21276 10.3353 7.66468 10.7173 6.98652L11.1885 6.12502C10.9103 5.97368 10.6892 5.76568 10.525 5.50101C10.3608 5.23635 10.2788 4.93793 10.2788 4.60576C10.2788 4.13276 10.4474 3.72768 10.7848 3.39052C11.1219 3.05335 11.527 2.88477 12 2.88477C12.473 2.88477 12.8781 3.05335 13.2153 3.39052C13.5526 3.72768 13.7213 4.13276 13.7213 4.60576C13.7213 4.93793 13.6392 5.23635 13.475 5.50101C13.3108 5.76568 13.0897 5.97368 12.8115 6.12502L13.2828 6.98652C13.6648 7.66468 14.1811 8.21276 14.8318 8.63076C15.4824 9.04877 16.1968 9.25777 16.975 9.25777C17.3532 9.25777 17.7138 9.1991 18.0568 9.08177C18.3998 8.96443 18.7385 8.81351 19.073 8.62901C18.9397 8.48151 18.8381 8.3116 18.7683 8.11927C18.6984 7.92693 18.6635 7.72377 18.6635 7.50977C18.6635 7.0366 18.8321 6.63143 19.1693 6.29427C19.5064 5.9571 19.9115 5.78851 20.3845 5.78851C20.864 5.78851 21.2724 5.9571 21.6095 6.29427C21.9467 6.63143 22.1153 7.0366 22.1153 7.50977C22.1153 8.0341 21.9194 8.46743 21.5278 8.80977C21.1361 9.15193 20.68 9.28718 20.1595 9.21552L18.0788 20.5H5.92127ZM7.18277 19H16.8173L18.3848 10.5423C18.1564 10.6013 17.923 10.6528 17.6845 10.697C17.4462 10.7413 17.2097 10.7635 16.975 10.7635C15.9313 10.7635 14.9723 10.4974 14.098 9.96526C13.2237 9.43326 12.5243 8.7141 12 7.80777C11.4692 8.70777 10.7666 9.42535 9.89227 9.96052C9.01793 10.4958 8.06218 10.7635 7.02502 10.7635C6.79035 10.7635 6.55385 10.7413 6.31552 10.697C6.07702 10.6528 5.8436 10.6013 5.61527 10.5423L7.18277 19Z" fill="#E97737"/>
</g>
</svg>
