<svg width="18" height="18" viewBox="0 0 18 18" fill="none" xmlns="http://www.w3.org/2000/svg">
<mask id="mask0_999_17999" style="mask-type:alpha" maskUnits="userSpaceOnUse" x="0" y="0" width="18" height="18">
<rect width="18" height="18" fill="#D9D9D9"/>
</mask>
<g mask="url(#mask0_999_17999)">
<path d="M4.49609 16.126C3.97209 16.126 3.52859 15.9445 3.16559 15.5815C2.80259 15.2185 2.62109 14.775 2.62109 14.251V12.0876H4.87109V1.87598H15.3711V14.251C15.3711 14.775 15.1896 15.2185 14.8266 15.5815C14.4636 15.9445 14.0201 16.126 13.4961 16.126H4.49609ZM13.4961 15.001C13.7086 15.001 13.8867 14.9291 14.0305 14.7854C14.1742 14.6416 14.2461 14.4635 14.2461 14.251V3.00098H5.99609V12.0876H12.7461V14.251C12.7461 14.4635 12.818 14.6416 12.9617 14.7854C13.1055 14.9291 13.2836 15.001 13.4961 15.001ZM6.89028 6.52016V5.39516H13.3519V6.52016H6.89028ZM6.89028 8.68373V7.55873H13.3519V8.68373H6.89028ZM4.49609 15.001H11.6211V13.2124H3.74609V14.251C3.74609 14.4635 3.81797 14.6416 3.96172 14.7854C4.10547 14.9291 4.28359 15.001 4.49609 15.001ZM4.49609 15.001H3.74609H11.6211H4.49609Z" fill="#1C1B1F"/>
</g>
</svg>
