<svg width="12" height="7" viewBox="0 0 12 7" fill="none" xmlns="http://www.w3.org/2000/svg">
<path d="M6.02738 6.99999C5.91413 7.00065 5.80186 6.97859 5.69701 6.93507C5.59216 6.89155 5.4968 6.82742 5.41639 6.74637L0.253081 1.49906C0.091036 1.33438 0 1.11102 0 0.878129C0 0.645235 0.091036 0.421879 0.253081 0.257198C0.415126 0.092517 0.634906 0 0.864073 0C1.09324 0 1.31302 0.092517 1.47506 0.257198L6.02738 4.89232L10.5797 0.265944C10.7443 0.122669 10.9561 0.0478021 11.1727 0.0563037C11.3892 0.0648054 11.5947 0.15605 11.748 0.311803C11.9012 0.467555 11.991 0.676345 11.9994 0.896448C12.0077 1.11655 11.9341 1.33176 11.7931 1.49906L6.62977 6.74637C6.46948 6.90793 6.25314 6.99902 6.02738 6.99999Z" fill="white"/>
</svg>
