<svg width="18" height="18" viewBox="0 0 18 18" fill="none" xmlns="http://www.w3.org/2000/svg">
<path d="M17.8454 8.59925L12.4457 2.59958C12.3305 2.47239 12.1697 2.40039 11.9993 2.40039H8.39947C8.16308 2.40039 7.94829 2.53958 7.8511 2.75557C7.75511 2.97276 7.7947 3.22595 7.95309 3.40114L12.9916 9.00003L7.95309 14.5977C7.7947 14.7741 7.75391 15.0273 7.8511 15.2433C7.94829 15.4605 8.16308 15.5997 8.39947 15.5997H11.9993C12.1697 15.5997 12.3305 15.5265 12.4457 15.4017L17.8454 9.40201C18.0505 9.17402 18.0505 8.82604 17.8454 8.59925Z" fill="#E97737"/>
<path d="M10.0465 8.59925L4.64682 2.59958C4.53163 2.47239 4.37084 2.40039 4.20045 2.40039H0.600642C0.364255 2.40039 0.149467 2.53958 0.0522719 2.75557C-0.0437229 2.97276 -0.00412505 3.22595 0.154266 3.40114L5.19279 9.00003L0.154266 14.5977C-0.00412505 14.7741 -0.0449228 15.0273 0.0522719 15.2433C0.149467 15.4605 0.364255 15.5997 0.600642 15.5997H4.20045C4.37084 15.5997 4.53163 15.5265 4.64682 15.4017L10.0465 9.40201C10.2517 9.17402 10.2517 8.82604 10.0465 8.59925Z" fill="#E97737"/>
</svg>
