<svg width="50" height="51" viewBox="0 0 50 51" fill="none" xmlns="http://www.w3.org/2000/svg">
<path d="M14.5023 22.0549L9.79628 3.22881C9.4619 1.89229 8.26269 1 6.94491 1C6.70858 1 6.46835 1.02842 6.22909 1.08828C4.65331 1.48242 3.69433 3.07969 4.08856 4.65547L11.5606 34.5471C12.1062 36.7297 13.5172 38.2608 15.7287 38.2608H36.3202C37.9831 38.2608 39.3001 36.9438 39.3001 35.3192C39.3001 33.6946 37.9831 32.3776 36.3585 32.3776H20.1452C18.3454 32.3776 16.7766 31.1527 16.3401 29.4066L15.356 25.4699M32.4355 7.86377H46.1632M34.4864 42.1831H17.6387M36.3591 49.0468H15.7676L18.7092 38.2607H33.4174L36.3591 49.0468ZM31.4646 25.5137H15.7598C14.6811 25.5137 13.8066 24.6393 13.8066 23.5606V23.5447C13.8066 22.466 14.6811 21.5916 15.7598 21.5916H31.4645C32.5432 21.5916 33.4176 22.466 33.4176 23.5447V23.5606C33.4176 24.6393 32.5432 25.5137 31.4646 25.5137ZM39.2994 17.6693C35.5086 17.6693 32.4355 14.5963 32.4355 10.8055V7.83594C32.4355 4.06055 35.4961 1 39.2715 1H39.3273C43.1027 1 46.1633 4.06055 46.1633 7.83594V10.8055C46.1633 14.5963 43.0902 17.6693 39.2994 17.6693Z" stroke="url(#paint0_linear_2751_16333)" stroke-width="2" stroke-miterlimit="10" stroke-linecap="round" stroke-linejoin="round"/>
<defs>
<linearGradient id="paint0_linear_2751_16333" x1="4" y1="-2.94839" x2="58.4034" y2="38.5316" gradientUnits="userSpaceOnUse">
<stop stop-color="#B4761A"/>
<stop offset="0.385417" stop-color="#B4761A"/>
<stop offset="0.494792" stop-color="#DDAE68"/>
<stop offset="0.598958" stop-color="#B4761A"/>
<stop offset="1" stop-color="#B4761A"/>
</linearGradient>
</defs>
</svg>
