<svg width="50" height="50" viewBox="0 0 50 50" fill="none" xmlns="http://www.w3.org/2000/svg">
<g filter="url(#filter0_d_2751_22711)">
<circle cx="25" cy="21" r="20" fill="white"/>
<circle cx="25" cy="21" r="20.5" stroke="#D8A38D"/>
</g>
<path d="M33.5698 28.4102H17.1754C16.6988 28.4102 16.3125 28.7967 16.3125 29.2736V30.137C16.3125 30.6138 16.6988 31.0004 17.1754 31.0004H33.5698C34.0464 31.0004 34.4327 30.6138 34.4327 30.137V29.2736C34.4327 28.7967 34.0464 28.4102 33.5698 28.4102Z" fill="#FADF7D"/>
<path d="M33.5698 30.1368H17.1754C16.9467 30.1362 16.7277 30.045 16.566 29.8832C16.4043 29.7214 16.3132 29.5022 16.3125 29.2734V30.1368C16.3132 30.3656 16.4043 30.5848 16.566 30.7466C16.7277 30.9084 16.9467 30.9996 17.1754 31.0003H33.5698C33.7985 30.9996 34.0176 30.9084 34.1792 30.7466C34.3409 30.5848 34.432 30.3656 34.4327 30.1368V29.2734C34.432 29.5022 34.3409 29.7214 34.1792 29.8832C34.0176 30.045 33.7985 30.1362 33.5698 30.1368Z" fill="#FFBF40"/>
<path d="M14.6706 16.9023C14.3493 17.1127 13.967 17.2098 13.5844 17.1783C13.2017 17.1468 12.8404 16.9886 12.5578 16.7285C12.2751 16.4685 12.0872 16.1216 12.0237 15.7427C11.9603 15.3637 12.0249 14.9745 12.2074 14.6364C12.39 14.2984 12.6799 14.031 13.0314 13.8764C13.383 13.7218 13.776 13.689 14.1482 13.783C14.5205 13.8771 14.8508 14.0927 15.0869 14.3957C15.3229 14.6987 15.4512 15.0719 15.4515 15.4561C15.4517 15.7431 15.3804 16.0256 15.244 16.2781C15.1077 16.5306 14.9106 16.7452 14.6706 16.9023Z" fill="#FFC608"/>
<path d="M26.25 15.2147C25.9852 15.373 25.6826 15.4565 25.3742 15.4565C25.0658 15.4565 24.7631 15.373 24.4984 15.2147C24.1721 15.0225 23.9181 14.7282 23.7755 14.3772C23.6329 14.0263 23.6096 13.6382 23.7092 13.2726C23.8088 12.9071 24.0257 12.5845 24.3266 12.3546C24.6275 12.1246 24.9956 12 25.3742 12C25.7528 12 26.1209 12.1246 26.4218 12.3546C26.7226 12.5845 26.9396 12.9071 27.0391 13.2726C27.1387 13.6382 27.1154 14.0263 26.9728 14.3772C26.8302 14.7282 26.5762 15.0225 26.25 15.2147Z" fill="#FFC608"/>
<path d="M37.0246 17.1802C36.6832 17.1802 36.3496 17.0789 36.0658 16.8892C35.782 16.6994 35.5608 16.4297 35.4302 16.1142C35.2996 15.7987 35.2654 15.4515 35.332 15.1165C35.3986 14.7815 35.5629 14.4738 35.8043 14.2323C36.0456 13.9908 36.3531 13.8264 36.6879 13.7597C37.0226 13.6931 37.3696 13.7273 37.685 13.858C38.0003 13.9887 38.2698 14.21 38.4595 14.494C38.6491 14.778 38.7503 15.1118 38.7503 15.4534C38.7503 15.9114 38.5685 16.3506 38.2448 16.6744C37.9212 16.9983 37.4823 17.1802 37.0246 17.1802Z" fill="#FFC608"/>
<path d="M32.2766 17.5389C32.1388 17.5912 31.9926 17.6175 31.8452 17.6166C31.6573 17.6171 31.4716 17.5758 31.3016 17.4957C31.028 17.3703 30.8066 17.1535 30.6752 16.8826C30.5438 16.6117 30.5105 16.3036 30.5812 16.0109C30.6519 15.7182 30.822 15.4592 31.0625 15.2782C31.3031 15.0972 31.599 15.0055 31.8996 15.0188C32.2002 15.0322 32.4869 15.1496 32.7105 15.3512C32.9341 15.5527 33.0807 15.8257 33.1253 16.1235C33.1698 16.4213 33.1095 16.7253 32.9547 16.9836C32.7999 17.2418 32.5602 17.4381 32.2766 17.5389Z" fill="#FF9C00"/>
<path d="M19.4464 17.494C19.2764 17.574 19.0907 17.6153 18.9028 17.6149C18.7555 17.6158 18.6092 17.5895 18.4714 17.5372C18.1897 17.4364 17.9517 17.2407 17.7982 16.9838C17.6446 16.7268 17.5851 16.4245 17.6297 16.1284C17.6743 15.8324 17.8202 15.561 18.0427 15.3608C18.2651 15.1605 18.5501 15.0438 18.849 15.0306C19.1479 15.0173 19.4422 15.1084 19.6814 15.2882C19.9206 15.468 20.09 15.7254 20.1605 16.0164C20.2311 16.3073 20.1984 16.6137 20.0682 16.8833C19.9379 17.1528 19.7182 17.3687 19.4464 17.494Z" fill="#FF9C00"/>
<path d="M22.6748 22.7005C22.1528 23.5337 21.4841 24.0906 20.6298 24.0906C20.0086 24.0906 19.2449 23.4819 18.4727 22.6142V17.5373C18.6105 17.5896 18.7567 17.6159 18.9041 17.615C19.092 17.6155 19.2777 17.5742 19.4477 17.4941C19.7972 18.4309 20.9491 21.2413 22.6748 22.7005Z" fill="#FFAA00"/>
<path d="M32.2783 17.5373V22.6142C31.5061 23.4819 30.7424 24.0906 30.1212 24.0906C29.2669 24.0906 28.5982 23.5337 28.0762 22.7005C29.8019 21.2413 30.9538 18.4309 31.3033 17.4941C31.4733 17.5742 31.659 17.6155 31.8469 17.615C31.9943 17.6159 32.1405 17.5896 32.2783 17.5373Z" fill="#FFAA00"/>
<path d="M26.2664 27.0176C26.3413 27.0744 26.4316 27.1071 26.5255 27.1115C26.6194 27.1159 26.7123 27.0917 26.7922 27.0422C26.8721 26.9927 26.9351 26.9201 26.9729 26.834C27.0107 26.7479 27.0216 26.6524 27.0041 26.56L26.7755 25.4462L27.3838 24.8505C27.4462 24.7886 27.4888 24.7097 27.5064 24.6235C27.5239 24.5374 27.5155 24.448 27.4822 24.3667C27.449 24.2854 27.3924 24.2157 27.3196 24.1666C27.2467 24.1175 27.161 24.091 27.0732 24.0907H26.2319L25.7918 23.0546C25.753 22.9768 25.6933 22.9113 25.6194 22.8655C25.5454 22.8198 25.4602 22.7955 25.3733 22.7955C25.2864 22.7955 25.2012 22.8198 25.1273 22.8655C25.0533 22.9113 24.9936 22.9768 24.9548 23.0546L24.5148 24.0907H23.6735C23.5856 24.091 23.4999 24.1175 23.4271 24.1666C23.3543 24.2157 23.2976 24.2854 23.2644 24.3667C23.2311 24.448 23.2227 24.5374 23.2403 24.6235C23.2578 24.7097 23.3004 24.7886 23.3628 24.8505L23.9712 25.4462L23.7425 26.56C23.725 26.6524 23.7359 26.7479 23.7737 26.834C23.8116 26.9201 23.8746 26.9927 23.9544 27.0422C24.0343 27.0917 24.1273 27.1159 24.2211 27.1115C24.315 27.1071 24.4053 27.0744 24.4803 27.0176L25.3733 26.3615L26.2664 27.0176ZM32.2763 22.6143C33.9588 20.732 35.6889 17.6194 36.0772 16.9028C36.3582 17.0863 36.6865 17.1838 37.022 17.1834L33.5706 26.6809V28.4077H17.1761V26.6809L13.7246 17.1834C14.0601 17.1838 14.3885 17.0863 14.6694 16.9028C15.0577 17.6194 16.7878 20.732 18.4704 22.6143C19.2426 23.482 20.0063 24.0907 20.6275 24.0907C21.4818 24.0907 22.1505 23.5338 22.6725 22.7006C24.0833 20.4514 24.4371 16.1646 24.4975 15.2148C24.7623 15.3731 25.0649 15.4566 25.3733 15.4566C25.6817 15.4566 25.9844 15.3731 26.2491 15.2148C26.3095 16.1646 26.6633 20.4514 28.0741 22.7006C28.5961 23.5338 29.2648 24.0907 30.1191 24.0907C30.7404 24.0907 31.504 23.482 32.2763 22.6143Z" fill="#FADF7D"/>
<path d="M25.7929 23.054L26.233 24.0901H27.0743C27.1621 24.0904 27.2478 24.1169 27.3206 24.166C27.3935 24.2151 27.4501 24.2848 27.4833 24.3661C27.5166 24.4474 27.525 24.5368 27.5075 24.6229C27.4899 24.709 27.4473 24.788 27.3849 24.8499L26.7766 25.4456L27.0052 26.5594C27.0227 26.6518 27.0118 26.7473 26.974 26.8334C26.9362 26.9195 26.8732 26.9921 26.7933 27.0416C26.7134 27.0911 26.6204 27.1153 26.5266 27.1109C26.4327 27.1065 26.3424 27.0738 26.2675 27.017L25.3744 26.3608L24.4813 27.017C24.4064 27.0738 24.3161 27.1065 24.2222 27.1109C24.1284 27.1153 24.0354 27.0911 23.9555 27.0416C23.8756 26.9921 23.8126 26.9195 23.7748 26.8334C23.737 26.7473 23.7261 26.6518 23.7436 26.5594L23.9722 25.4456L23.3639 24.8499C23.3015 24.788 23.2589 24.709 23.2413 24.6229C23.2238 24.5368 23.2322 24.4474 23.2655 24.3661C23.2987 24.2848 23.3553 24.2151 23.4282 24.166C23.501 24.1169 23.5867 24.0904 23.6746 24.0901H24.5159L24.9559 23.054C24.9947 22.9762 25.0544 22.9107 25.1284 22.8649C25.2023 22.8192 25.2875 22.7949 25.3744 22.7949C25.4613 22.7949 25.5465 22.8192 25.6205 22.8649C25.6944 22.9107 25.7541 22.9762 25.7929 23.054Z" fill="#D1013E"/>
<path d="M26.2501 14.3501C25.9853 14.5083 25.6827 14.5919 25.3743 14.5919C25.0659 14.5919 24.7632 14.5083 24.4985 14.3501C24.1069 14.1208 23.822 13.7456 23.7063 13.3066C23.6095 13.6674 23.6347 14.0501 23.7779 14.395C23.9212 14.7399 24.1746 15.0277 24.4985 15.2135C24.7632 15.3717 25.0659 15.4553 25.3743 15.4553C25.6827 15.4553 25.9853 15.3717 26.2501 15.2135C26.574 15.0277 26.8273 14.7399 26.9706 14.395C27.1139 14.0501 27.1391 13.6674 27.0422 13.3066C26.9265 13.7456 26.6417 14.1208 26.2501 14.3501Z" fill="#FFAA00"/>
<path d="M37.9005 16.0786C37.6357 16.2368 37.3331 16.3204 37.0247 16.3204C36.7163 16.3204 36.4136 16.2368 36.1489 16.0786C35.7572 15.8493 35.4724 15.4741 35.3567 15.0352C35.2599 15.3959 35.285 15.7786 35.4283 16.1235C35.5716 16.4685 35.825 16.7562 36.1489 16.942C36.4136 17.1002 36.7163 17.1838 37.0247 17.1838C37.3331 17.1838 37.6357 17.1002 37.9005 16.942C38.2244 16.7562 38.4777 16.4685 38.621 16.1235C38.7643 15.7786 38.7894 15.3959 38.6926 15.0352C38.5769 15.4741 38.2921 15.8493 37.9005 16.0786Z" fill="#FFAA00"/>
<path d="M14.6016 16.0786C14.3369 16.2368 14.0342 16.3204 13.7258 16.3204C13.4174 16.3204 13.1148 16.2368 12.85 16.0786C12.4584 15.8493 12.1736 15.4741 12.0579 15.0352C11.961 15.3959 11.9862 15.7786 12.1295 16.1235C12.2728 16.4685 12.5261 16.7562 12.85 16.942C13.1148 17.1002 13.4174 17.1838 13.7258 17.1838C14.0342 17.1838 14.3369 17.1002 14.6016 16.942C14.9255 16.7562 15.1789 16.4685 15.3222 16.1235C15.4654 15.7786 15.4906 15.3959 15.3938 15.0352C15.2781 15.4741 14.9933 15.8493 14.6016 16.0786Z" fill="#FFAA00"/>
<path d="M19.4453 16.6293C19.2753 16.7093 19.0896 16.7506 18.9017 16.7501C18.7544 16.7511 18.6081 16.7247 18.4703 16.6724C18.2892 16.6098 18.1244 16.5071 17.9884 16.3719C17.8524 16.2368 17.7486 16.0727 17.6847 15.8919C17.6352 16.0287 17.609 16.1729 17.6074 16.3184C17.6061 16.5861 17.6887 16.8475 17.8434 17.0658C17.9982 17.2842 18.2174 17.4485 18.4703 17.5359C18.6081 17.5881 18.7544 17.6145 18.9017 17.6136C19.0896 17.614 19.2753 17.5727 19.4453 17.4927C19.7389 17.36 19.9715 17.1211 20.0964 16.8239C20.2212 16.5268 20.2291 16.1934 20.1184 15.8906C20.0612 16.0525 19.9722 16.2013 19.8566 16.3282C19.741 16.455 19.6012 16.5574 19.4453 16.6293Z" fill="#DE8800"/>
<path d="M32.3907 16.6293C32.2206 16.7093 32.035 16.7506 31.847 16.7501C31.6997 16.7511 31.5534 16.7247 31.4156 16.6724C31.2345 16.6098 31.0698 16.5071 30.9337 16.3719C30.7977 16.2368 30.6939 16.0727 30.63 15.8919C30.5805 16.0287 30.5544 16.1729 30.5527 16.3184C30.5515 16.5861 30.634 16.8475 30.7888 17.0658C30.9435 17.2842 31.1627 17.4485 31.4156 17.5359C31.5534 17.5881 31.6997 17.6145 31.847 17.6136C32.035 17.614 32.2206 17.5727 32.3907 17.4927C32.6843 17.36 32.9168 17.1211 33.0417 16.8239C33.1665 16.5268 33.1744 16.1934 33.0637 15.8906C33.0065 16.0525 32.9175 16.2013 32.8019 16.3282C32.6863 16.455 32.5465 16.5574 32.3907 16.6293Z" fill="#DE8800"/>
<path d="M19.3416 22.6487C19.2084 22.5736 19.0977 22.4643 19.0208 22.3321C18.9439 22.1999 18.9036 22.0496 18.9041 21.8967V19.3418C18.9041 19.1128 18.995 18.8932 19.1568 18.7313C19.3186 18.5694 19.5381 18.4784 19.767 18.4784H19.8485C19.6686 18.0692 19.5336 17.7247 19.4477 17.4941C19.2777 17.5742 19.092 17.6155 18.9041 17.615C18.7567 17.6159 18.6105 17.5896 18.4727 17.5373V22.6142C19.2449 23.4819 20.0086 24.0906 20.6298 24.0906C21.4841 24.0906 22.1528 23.5337 22.6748 22.7005C22.6317 22.6629 22.5885 22.6211 22.5454 22.5818C21.3512 23.5432 20.0142 23.0273 19.3416 22.6487Z" fill="#FF9C00"/>
<path d="M31.8469 17.615C31.659 17.6155 31.4733 17.5742 31.3033 17.4941C31.217 17.7247 31.0824 18.0692 30.9025 18.4784H30.984C31.2129 18.4784 31.4324 18.5694 31.5942 18.7313C31.756 18.8932 31.8469 19.1128 31.8469 19.3418V21.8967C31.8474 22.0496 31.8071 22.1999 31.7302 22.3321C31.6533 22.4643 31.5426 22.5736 31.4094 22.6487C30.7368 23.0273 29.4011 23.5402 28.2082 22.5805C28.165 22.6202 28.1219 22.6625 28.0762 22.7005C28.5982 23.5337 29.2669 24.0906 30.1212 24.0906C30.7424 24.0906 31.5061 23.4819 32.2783 22.6142V17.5373C32.1405 17.5896 31.9943 17.6159 31.8469 17.615Z" fill="#FF9C00"/>
<path d="M35.9927 18.3788C36.0396 18.2868 36.1177 18.2145 36.2131 18.1749C36.3084 18.1354 36.4147 18.1311 36.513 18.1629L36.6514 18.2091L37.0246 17.183C36.6891 17.1833 36.3608 17.0858 36.0798 16.9023C35.6915 17.619 33.9615 20.7316 32.2789 22.6138C31.6054 23.3706 30.9388 23.9296 30.3672 24.0604C31.1256 23.9206 33.5395 23.1077 35.9927 18.3788Z" fill="#FFBF40"/>
<path d="M26.2683 27.0172L25.8102 26.6804H24.9404L24.4822 27.0172C24.4154 27.0671 24.3365 27.0982 24.2537 27.1072C24.1708 27.1162 24.0871 27.1028 24.0112 27.0684C23.9353 27.034 23.87 26.9799 23.8221 26.9116C23.7742 26.8434 23.7454 26.7636 23.7388 26.6804H19.7666C19.4234 26.6804 19.0942 26.544 18.8514 26.3011C18.6087 26.0582 18.4723 25.7288 18.4723 25.3853L14.9247 18.6801C14.8898 18.6143 14.8726 18.5406 14.8747 18.4662C14.8767 18.3918 14.8979 18.3191 14.9363 18.2554C14.9747 18.1916 15.0289 18.1388 15.0937 18.1022C15.1585 18.0656 15.2316 18.0463 15.306 18.0464H15.3168C15.0122 17.5236 14.784 17.1104 14.6697 16.9023C14.3892 17.0855 14.0615 17.183 13.7266 17.183L17.178 26.6804V28.4073H33.5725V26.6804H27.0117C27.0051 26.7636 26.9764 26.8434 26.9285 26.9116C26.8806 26.9799 26.8153 27.034 26.7394 27.0684C26.6634 27.1028 26.5797 27.1162 26.4969 27.1072C26.414 27.0982 26.3351 27.0671 26.2683 27.0172Z" fill="#FFBF40"/>
<path d="M24.9087 17.1282C24.9228 16.9089 25.0199 16.7032 25.1802 16.5531C25.3405 16.4029 25.552 16.3196 25.7716 16.32H26.3489C26.2958 15.8235 26.266 15.4303 26.2522 15.2148C25.9874 15.3731 25.6848 15.4566 25.3764 15.4566C25.068 15.4566 24.7654 15.3731 24.5006 15.2148C24.4402 16.1646 24.0864 20.4514 22.6756 22.7006C22.1519 23.5338 21.4831 24.0907 20.6289 24.0907C24.0804 24.0907 24.7707 19.1175 24.9087 17.1282Z" fill="#FFBF40"/>
<path d="M27.8816 24.2034C27.8165 24.0426 27.7048 23.9049 27.5609 23.8082C27.417 23.7114 27.2474 23.6599 27.074 23.6604H26.5179L26.1895 22.8867C26.1861 22.8787 26.1822 22.8705 26.1779 22.8621C26.1037 22.7124 25.9891 22.5865 25.847 22.4987C25.7049 22.4109 25.5411 22.3646 25.3741 22.3652C25.2028 22.3658 25.0351 22.4152 24.8908 22.5075C24.7464 22.5999 24.6312 22.7314 24.5587 22.8867L24.2304 23.6604H23.6743C23.5007 23.6607 23.3312 23.7127 23.1872 23.8097C23.0433 23.9067 22.9314 24.0444 22.8657 24.2051C22.8001 24.3659 22.7838 24.5426 22.8187 24.7127C22.8537 24.8828 22.9384 25.0387 23.0621 25.1605L23.5017 25.5922L23.3209 26.4742C23.2836 26.6506 23.3013 26.8342 23.3717 27.0002C23.4421 27.1662 23.5617 27.3066 23.7144 27.4024C23.8599 27.4958 24.029 27.5457 24.2019 27.5461C24.3946 27.5461 24.582 27.4835 24.736 27.3678L25.3741 26.8981L26.0092 27.3652C26.1557 27.4757 26.3325 27.5385 26.5158 27.545C26.6991 27.5515 26.88 27.5014 27.0339 27.4015C27.1864 27.3059 27.3059 27.1658 27.3764 27C27.4468 26.8343 27.4648 26.6509 27.4278 26.4746L27.2466 25.5914L27.6875 25.1597C27.8114 25.0378 27.8961 24.8817 27.9307 24.7113C27.9653 24.5409 27.9482 24.364 27.8816 24.2034ZM27.3846 24.851L26.7763 25.4467L27.005 26.5605C27.0224 26.6529 27.0116 26.7484 26.9737 26.8345C26.9359 26.9206 26.8729 26.9932 26.793 27.0427C26.7132 27.0922 26.6202 27.1164 26.5263 27.112C26.4324 27.1077 26.3421 27.0749 26.2672 27.0182L25.3741 26.3628L24.4811 27.019C24.4062 27.0758 24.3158 27.1085 24.222 27.1129C24.1281 27.1173 24.0351 27.0931 23.9552 27.0436C23.8754 26.994 23.8124 26.9214 23.7745 26.8354C23.7367 26.7493 23.7258 26.6538 23.7433 26.5614L23.972 25.4476L23.3637 24.8519C23.3013 24.79 23.2586 24.711 23.2411 24.6249C23.2236 24.5388 23.232 24.4494 23.2652 24.3681C23.2985 24.2867 23.3551 24.2171 23.4279 24.168C23.5007 24.1188 23.5865 24.0924 23.6743 24.0921H24.5156L24.9556 23.056C24.9944 22.9781 25.0542 22.9127 25.1281 22.8669C25.202 22.8211 25.2872 22.7969 25.3741 22.7969C25.4611 22.7969 25.5463 22.8211 25.6202 22.8669C25.6941 22.9127 25.7538 22.9781 25.7926 23.056L26.2327 24.0921H27.074C27.1618 24.0924 27.2476 24.1188 27.3204 24.168C27.3932 24.2171 27.4498 24.2867 27.4831 24.3681C27.5163 24.4494 27.5247 24.5388 27.5072 24.6249C27.4897 24.711 27.447 24.79 27.3846 24.8519V24.851Z" fill="#FF9C00"/>
<path d="M32.2774 16.3204C32.5158 16.3204 32.7091 16.1272 32.7091 15.8887C32.7091 15.6503 32.5158 15.457 32.2774 15.457C32.039 15.457 31.8457 15.6503 31.8457 15.8887C31.8457 16.1272 32.039 16.3204 32.2774 16.3204Z" fill="#FFC608"/>
<path d="M19.334 16.3204C19.5725 16.3204 19.7658 16.1272 19.7658 15.8887C19.7658 15.6503 19.5725 15.457 19.334 15.457C19.0956 15.457 18.9023 15.6503 18.9023 15.8887C18.9023 16.1272 19.0956 16.3204 19.334 16.3204Z" fill="#FFC608"/>
<path d="M25.8067 13.7286C26.0451 13.7286 26.2384 13.5354 26.2384 13.2969C26.2384 13.0585 26.0451 12.8652 25.8067 12.8652C25.5683 12.8652 25.375 13.0585 25.375 13.2969C25.375 13.5354 25.5683 13.7286 25.8067 13.7286Z" fill="#FFFCED"/>
<path d="M37.8868 15.4572C38.1252 15.4572 38.3185 15.2639 38.3185 15.0255C38.3185 14.787 38.1252 14.5938 37.8868 14.5938C37.6484 14.5938 37.4551 14.787 37.4551 15.0255C37.4551 15.2639 37.6484 15.4572 37.8868 15.4572Z" fill="#FFFCED"/>
<path d="M14.5899 15.4572C14.8283 15.4572 15.0216 15.2639 15.0216 15.0255C15.0216 14.787 14.8283 14.5938 14.5899 14.5938C14.3515 14.5938 14.1582 14.787 14.1582 15.0255C14.1582 15.2639 14.3515 15.4572 14.5899 15.4572Z" fill="#FFFCED"/>
<defs>
<filter id="filter0_d_2751_22711" x="0" y="0" width="50" height="50" filterUnits="userSpaceOnUse" color-interpolation-filters="sRGB">
<feFlood flood-opacity="0" result="BackgroundImageFix"/>
<feColorMatrix in="SourceAlpha" type="matrix" values="0 0 0 0 0 0 0 0 0 0 0 0 0 0 0 0 0 0 127 0" result="hardAlpha"/>
<feOffset dy="4"/>
<feGaussianBlur stdDeviation="2"/>
<feComposite in2="hardAlpha" operator="out"/>
<feColorMatrix type="matrix" values="0 0 0 0 0 0 0 0 0 0 0 0 0 0 0 0 0 0 0.06 0"/>
<feBlend mode="normal" in2="BackgroundImageFix" result="effect1_dropShadow_2751_22711"/>
<feBlend mode="normal" in="SourceGraphic" in2="effect1_dropShadow_2751_22711" result="shape"/>
</filter>
</defs>
</svg>
