<svg width="24" height="24" viewBox="0 0 24 24" fill="none" xmlns="http://www.w3.org/2000/svg">
<mask id="mask0_1313_26759" style="mask-type:alpha" maskUnits="userSpaceOnUse" x="0" y="0" width="24" height="24">
<rect width="24" height="24" fill="#D9D9D9"/>
</mask>
<g mask="url(#mask0_1313_26759)">
<path d="M0.5 17.7884V16.5691C0.5 15.9038 0.847417 15.3573 1.54225 14.9296C2.23725 14.5021 3.14308 14.2884 4.25975 14.2884C4.44425 14.2884 4.63008 14.2941 4.81725 14.3056C5.00442 14.3171 5.19292 14.3395 5.38275 14.3729C5.18792 14.6845 5.04333 15.008 4.949 15.3431C4.85483 15.6785 4.80775 16.0224 4.80775 16.3749V17.7884H0.5ZM6.5 17.7884V16.4134C6.5 15.9452 6.63142 15.5173 6.89425 15.1296C7.15708 14.7418 7.53592 14.4037 8.03075 14.1154C8.52558 13.8269 9.11025 13.6105 9.78475 13.4664C10.4591 13.322 11.1962 13.2499 11.9963 13.2499C12.8116 13.2499 13.5564 13.322 14.2308 13.4664C14.9051 13.6105 15.4897 13.8269 15.9845 14.1154C16.4795 14.4037 16.8558 14.7418 17.1135 15.1296C17.3712 15.5173 17.5 15.9452 17.5 16.4134V17.7884H6.5ZM19.1923 17.7884V16.3779C19.1923 16.0017 19.1478 15.6472 19.0588 15.3144C18.9696 14.9817 18.8359 14.6679 18.6578 14.3729C18.8539 14.3395 19.0414 14.3171 19.2203 14.3056C19.3991 14.2941 19.5757 14.2884 19.75 14.2884C20.8667 14.2884 21.7708 14.4996 22.4625 14.9221C23.1542 15.3445 23.5 15.8935 23.5 16.5691V17.7884H19.1923ZM8.077 16.2884H15.9385V16.1826C15.836 15.7788 15.4103 15.439 14.6615 15.1634C13.9128 14.8877 13.0257 14.7499 12 14.7499C10.9743 14.7499 10.0872 14.8877 9.3385 15.1634C8.58967 15.439 8.16917 15.7788 8.077 16.1826V16.2884ZM4.257 13.3171C3.78567 13.3171 3.383 13.1495 3.049 12.8144C2.715 12.4792 2.548 12.0763 2.548 11.6056C2.548 11.1288 2.71567 10.726 3.051 10.3971C3.38617 10.0683 3.78908 9.90387 4.25975 9.90387C4.73658 9.90387 5.141 10.0683 5.473 10.3971C5.80517 10.726 5.97125 11.1298 5.97125 11.6086C5.97125 12.0733 5.80692 12.4742 5.47825 12.8114C5.14975 13.1485 4.74267 13.3171 4.257 13.3171ZM19.75 13.3171C19.2833 13.3171 18.8814 13.1485 18.5443 12.8114C18.2071 12.4742 18.0385 12.0733 18.0385 11.6086C18.0385 11.1298 18.2071 10.726 18.5443 10.3971C18.8814 10.0683 19.2839 9.90387 19.7518 9.90387C20.2339 9.90387 20.6394 10.0683 20.9683 10.3971C21.2971 10.726 21.4615 11.1288 21.4615 11.6056C21.4615 12.0763 21.2975 12.4792 20.9695 12.8144C20.6415 13.1495 20.235 13.3171 19.75 13.3171ZM12.0035 12.4999C11.2832 12.4999 10.6698 12.2475 10.1635 11.7426C9.65717 11.238 9.404 10.625 9.404 9.90387C9.404 9.1682 9.65633 8.55162 10.161 8.05412C10.6658 7.55645 11.2788 7.30762 12 7.30762C12.7355 7.30762 13.3521 7.55612 13.8497 8.05312C14.3472 8.54995 14.596 9.1657 14.596 9.90037C14.596 10.6205 14.3476 11.2339 13.8508 11.7404C13.3538 12.2467 12.738 12.4999 12.0035 12.4999ZM12.0048 10.9999C12.3106 10.9999 12.5689 10.8929 12.7797 10.6789C12.9908 10.4647 13.0962 10.2047 13.0962 9.89887C13.0962 9.5932 12.9912 9.33487 12.781 9.12387C12.5708 8.91303 12.3105 8.80762 12 8.80762C11.6975 8.80762 11.4392 8.9127 11.225 9.12287C11.0108 9.33287 10.9038 9.5932 10.9038 9.90387C10.9038 10.2064 11.0108 10.4647 11.225 10.6789C11.4392 10.8929 11.6991 10.9999 12.0048 10.9999Z" fill="#E97737"/>
</g>
</svg>
