<svg width="20" height="20" viewBox="0 0 20 20" fill="none" xmlns="http://www.w3.org/2000/svg">
<mask id="mask0_2330_43364" style="mask-type:alpha" maskUnits="userSpaceOnUse" x="0" y="0" width="20" height="20">
<rect width="20" height="20" fill="#D9D9D9"/>
</mask>
<g mask="url(#mask0_2330_43364)">
<path d="M10.0134 14.6387C10.2516 14.6387 10.4527 14.5567 10.6168 14.3927C10.7808 14.2288 10.8628 14.0277 10.8628 13.7894C10.8628 13.5512 10.7808 13.35 10.6168 13.186C10.4527 13.022 10.2516 12.94 10.0134 12.94C9.77524 12.94 9.57413 13.022 9.4101 13.186C9.24608 13.35 9.16406 13.5512 9.16406 13.7894C9.16406 14.0277 9.24608 14.2288 9.4101 14.3927C9.57413 14.5567 9.77524 14.6387 10.0134 14.6387ZM9.42365 11.6548H10.5968C10.6075 11.2189 10.6697 10.8869 10.7834 10.6587C10.8972 10.4307 11.1266 10.1441 11.4718 9.79893C11.9151 9.3556 12.2321 8.97879 12.4228 8.66852C12.6135 8.3581 12.7089 8.00525 12.7089 7.60997C12.7089 6.91664 12.4723 6.35761 11.9991 5.93289C11.5257 5.50817 10.9162 5.29581 10.1705 5.29581C9.49205 5.29581 8.91219 5.46865 8.43094 5.81435C7.94955 6.1599 7.6074 6.6099 7.40448 7.16435L8.4749 7.59393C8.59351 7.24032 8.79066 6.95157 9.06635 6.72768C9.34191 6.50393 9.68753 6.39206 10.1032 6.39206C10.553 6.39206 10.9041 6.51407 11.1568 6.7581C11.4095 7.00227 11.5359 7.299 11.5359 7.64831C11.5359 7.90581 11.4595 8.15852 11.3068 8.40643C11.154 8.65435 10.9184 8.92199 10.5999 9.20935C10.147 9.61741 9.83774 9.99615 9.67219 10.3456C9.50649 10.6949 9.42365 11.1313 9.42365 11.6548ZM4.42052 17.0827C3.99955 17.0827 3.64323 16.9368 3.35156 16.6452C3.0599 16.3535 2.91406 15.9972 2.91406 15.5762V4.42247C2.91406 4.0015 3.0599 3.64518 3.35156 3.35352C3.64323 3.06185 3.99955 2.91602 4.42052 2.91602H15.5743C15.9952 2.91602 16.3516 3.06185 16.6432 3.35352C16.9349 3.64518 17.0807 4.0015 17.0807 4.42247V15.5762C17.0807 15.9972 16.9349 16.3535 16.6432 16.6452C16.3516 16.9368 15.9952 17.0827 15.5743 17.0827H4.42052ZM4.42052 15.8327H15.5743C15.6384 15.8327 15.6972 15.8059 15.7505 15.7525C15.804 15.6991 15.8307 15.6404 15.8307 15.5762V4.42247C15.8307 4.35831 15.804 4.29956 15.7505 4.24622C15.6972 4.19275 15.6384 4.16602 15.5743 4.16602H4.42052C4.35635 4.16602 4.2976 4.19275 4.24427 4.24622C4.1908 4.29956 4.16406 4.35831 4.16406 4.42247V15.5762C4.16406 15.6404 4.1908 15.6991 4.24427 15.7525C4.2976 15.8059 4.35635 15.8327 4.42052 15.8327Z" fill="#E97737"/>
</g>
</svg>
