<svg width="32" height="32" viewBox="0 0 32 32" fill="none" xmlns="http://www.w3.org/2000/svg">
<g clip-path="url(#clip0_2509_17732)">
<path d="M15.5102 21.4512C14.5952 21.4512 13.8545 22.2137 13.8545 23.1287C13.8545 24.0219 14.5734 24.8062 15.5102 24.8062C16.4469 24.8062 17.1877 24.0219 17.1877 23.1287C17.1877 22.2137 16.4252 21.4512 15.5102 21.4512Z" fill="black"/>
<path d="M15.7927 8.75C12.8517 8.75 11.501 10.4928 11.501 11.6693C11.501 12.5189 12.2199 12.9111 12.8081 12.9111C13.9845 12.9111 13.5052 11.2336 15.7274 11.2336C16.8167 11.2336 17.6881 11.7129 17.6881 12.715C17.6881 13.8915 16.4681 14.5668 15.7492 15.1768C15.1174 15.7214 14.2895 16.6147 14.2895 18.4882C14.2895 19.6211 14.5945 19.9479 15.4877 19.9479C16.5552 19.9479 16.773 19.4686 16.773 19.0547C16.773 17.9218 16.7949 17.2683 17.9931 16.3315C18.5813 15.874 20.4331 14.3926 20.4331 12.3447C20.4331 10.2968 18.5813 8.75 15.7927 8.75Z" fill="black"/>
<path d="M16 0C7.15725 0 0 7.15606 0 16V30.75C0 31.4404 0.559625 32 1.25 32H16C24.8427 32 32 24.8439 32 16C32 7.15725 24.8439 0 16 0ZM16 29.5H2.5V16C2.5 8.53894 8.53794 2.5 16 2.5C23.4611 2.5 29.5 8.53794 29.5 16C29.5 23.4611 23.4621 29.5 16 29.5Z" fill="black"/>
</g>
<defs>
<clipPath id="clip0_2509_17732">
<rect width="32" height="32" fill="white"/>
</clipPath>
</defs>
</svg>
