<svg width="50" height="50" viewBox="0 0 50 50" fill="none" xmlns="http://www.w3.org/2000/svg">
<path d="M16.3317 23.0004H11.6657C11.2976 23.0004 10.9991 23.2988 10.9991 23.6669V30.3326C10.9991 30.7007 11.2976 30.9992 11.6657 30.9992H16.3317C16.6998 30.9992 16.9983 30.7007 16.9983 30.3326V23.6669C16.9983 23.2988 16.6998 23.0004 16.3317 23.0004ZM15.6652 29.6661H12.3323V24.3335H15.6652V29.6661Z" fill="url(#paint0_linear_2751_1664)"/>
<path d="M27.6634 23.0004H22.9973C22.6292 23.0004 22.3308 23.2988 22.3308 23.6669V30.3326C22.3308 30.7007 22.6292 30.9992 22.9973 30.9992H27.6634C28.0315 30.9992 28.3299 30.7007 28.3299 30.3326V23.6669C28.3299 23.2988 28.0315 23.0004 27.6634 23.0004ZM26.9968 29.6661H23.664V24.3335H26.9968V29.6661Z" fill="url(#paint1_linear_2751_1664)"/>
<path d="M27.6634 33.6654H22.9973C22.6292 33.6654 22.3308 33.9639 22.3308 34.332V40.9977C22.3308 41.3658 22.6292 41.6643 22.9973 41.6643H27.6634C28.0315 41.6643 28.3299 41.3658 28.3299 40.9977V34.332C28.3299 33.9639 28.0315 33.6654 27.6634 33.6654ZM26.9968 40.3311H23.664V34.9986H26.9968V40.3311Z" fill="url(#paint2_linear_2751_1664)"/>
<path d="M38.3285 23.0004H33.6625C33.2944 23.0004 32.9959 23.2988 32.9959 23.6669V30.3326C32.9959 30.7007 33.2944 30.9992 33.6625 30.9992H38.3285C38.6966 30.9992 38.9951 30.7007 38.9951 30.3326V23.6669C38.9951 23.2988 38.6966 23.0004 38.3285 23.0004ZM37.662 29.6661H34.3291V24.3335H37.662V29.6661Z" fill="url(#paint3_linear_2751_1664)"/>
<path d="M16.3317 33.6654H11.6657C11.2976 33.6654 10.9991 33.9639 10.9991 34.332V40.9977C10.9991 41.3658 11.2976 41.6643 11.6657 41.6643H16.3317C16.6998 41.6643 16.9983 41.3658 16.9983 40.9977V34.332C16.9983 33.9639 16.6998 33.6654 16.3317 33.6654ZM15.6652 40.3311H12.3323V34.9986H15.6652V40.3311Z" fill="url(#paint4_linear_2751_1664)"/>
<path d="M38.3285 33.6654H33.6625C33.2944 33.6654 32.9959 33.9639 32.9959 34.332V40.9977C32.9959 41.3658 33.2944 41.6643 33.6625 41.6643H38.3285C38.6966 41.6643 38.9951 41.3658 38.9951 40.9977V34.332C38.9951 33.9639 38.6966 33.6654 38.3285 33.6654ZM37.662 40.3311H34.3291V34.9986H37.662V40.3311Z" fill="url(#paint5_linear_2751_1664)"/>
<path d="M42.328 43.664V21.0006H42.9945C43.3627 21.0006 43.6611 20.7021 43.6611 20.334V17.0012C43.6611 16.6331 43.3627 16.3346 42.9945 16.3346H42.328V13.6684C42.328 13.3003 42.0295 13.0018 41.6614 13.0018H40.3283V5.66949C40.3283 5.30137 40.0298 5.00293 39.6617 5.00293H10.3326C9.96445 5.00293 9.66602 5.30137 9.66602 5.66949V13.0018H8.33289C7.96477 13.0018 7.66633 13.3002 7.66633 13.6683V16.3346H6.99977C6.63164 16.3346 6.3332 16.633 6.3332 17.0011V20.3339C6.3332 20.7021 6.63164 21.0005 6.99977 21.0005H7.66633V43.6639H5V44.997H45V43.6639L42.328 43.664ZM10.9991 6.33605H38.9951V13.0018H10.9991V6.33605ZM8.99945 14.3349H40.9948V16.3346H8.99945V14.3349ZM40.9948 43.664H8.99945V21.0006H40.9948L40.9948 43.664ZM7.66633 19.6675V17.6678H42.328V19.6675H7.66633Z" fill="url(#paint6_linear_2751_1664)"/>
<path d="M23.9733 8.6166C23.8673 8.34566 23.7184 8.11168 23.5263 7.91473C23.3344 7.71777 23.1034 7.56324 22.8334 7.45129C22.5634 7.33934 22.2645 7.28332 21.9366 7.28332C21.6086 7.28332 21.3091 7.33879 21.0382 7.4498C20.7673 7.56082 20.5353 7.71527 20.3423 7.91324C20.1494 8.11121 19.9999 8.34566 19.8939 8.61668C19.7879 8.88762 19.7349 9.18207 19.7349 9.50004C19.7349 9.81801 19.7879 10.1125 19.8939 10.3834C19.9999 10.6543 20.1494 10.8888 20.3423 11.0868C20.5353 11.2848 20.7673 11.4393 21.0382 11.5503C21.3091 11.6613 21.6086 11.7168 21.9366 11.7168C22.2645 11.7168 22.5634 11.6613 22.8334 11.5503C23.1034 11.4393 23.3344 11.2848 23.5263 11.0868C23.7183 10.8889 23.8673 10.6544 23.9733 10.3834C24.0793 10.1125 24.1323 9.81801 24.1323 9.50004C24.1323 9.18199 24.0792 8.88754 23.9733 8.6166ZM23.2098 10.1404C23.1469 10.3293 23.0563 10.4893 22.9384 10.6203C22.8204 10.7513 22.6769 10.8518 22.5079 10.9218C22.3389 10.9918 22.1484 11.0268 21.9365 11.0268C21.7245 11.0268 21.5335 10.9918 21.3636 10.9218C21.1936 10.8518 21.0491 10.7513 20.9302 10.6203C20.8112 10.4893 20.7197 10.3293 20.6557 10.1404C20.5917 9.95137 20.5597 9.73793 20.5597 9.49996C20.5597 9.26199 20.5917 9.04855 20.6557 8.85957C20.7197 8.67059 20.8112 8.51012 20.9302 8.37816C21.0491 8.24621 21.1936 8.1452 21.3636 8.0752C21.5336 8.0052 21.7245 7.9702 21.9365 7.9702C22.1484 7.9702 22.3389 8.0052 22.5079 8.0752C22.6769 8.1452 22.8203 8.24621 22.9384 8.37816C23.0563 8.51012 23.1468 8.67059 23.2098 8.85957C23.2728 9.04855 23.3043 9.26199 23.3043 9.49996C23.3043 9.73793 23.2729 9.95137 23.2098 10.1404Z" fill="url(#paint7_linear_2751_1664)"/>
<path d="M18.283 7.33129V9.19699H16.2494V7.33129H15.4365V11.6686H16.2494V9.77293H18.283V11.6686H19.0959V7.33129H18.283Z" fill="url(#paint8_linear_2751_1664)"/>
<path d="M32.3451 11.0027V7.33129H31.5381V11.6686H34.0818V11.0027H32.3451Z" fill="url(#paint9_linear_2751_1664)"/>
<path d="M24.1682 7.33129V7.99418H25.4791V11.6686H26.2859V7.99418H27.5907V7.33129H24.1682Z" fill="url(#paint10_linear_2751_1664)"/>
<path d="M30.8393 7.97316V7.33129H28.1037V11.6686H30.8393V11.0237H28.9166V9.79691H30.4313V9.17598H28.9166V7.97316H30.8393Z" fill="url(#paint11_linear_2751_1664)"/>
<defs>
<linearGradient id="paint0_linear_2751_1664" x1="5" y1="1.7163" x2="51.5017" y2="42.1251" gradientUnits="userSpaceOnUse">
<stop stop-color="#B4761A"/>
<stop offset="0.385417" stop-color="#B4761A"/>
<stop offset="0.494792" stop-color="#DDAE68"/>
<stop offset="0.598958" stop-color="#B4761A"/>
<stop offset="1" stop-color="#B4761A"/>
</linearGradient>
<linearGradient id="paint1_linear_2751_1664" x1="5" y1="1.7163" x2="51.5017" y2="42.1251" gradientUnits="userSpaceOnUse">
<stop stop-color="#B4761A"/>
<stop offset="0.385417" stop-color="#B4761A"/>
<stop offset="0.494792" stop-color="#DDAE68"/>
<stop offset="0.598958" stop-color="#B4761A"/>
<stop offset="1" stop-color="#B4761A"/>
</linearGradient>
<linearGradient id="paint2_linear_2751_1664" x1="5" y1="1.7163" x2="51.5017" y2="42.1251" gradientUnits="userSpaceOnUse">
<stop stop-color="#B4761A"/>
<stop offset="0.385417" stop-color="#B4761A"/>
<stop offset="0.494792" stop-color="#DDAE68"/>
<stop offset="0.598958" stop-color="#B4761A"/>
<stop offset="1" stop-color="#B4761A"/>
</linearGradient>
<linearGradient id="paint3_linear_2751_1664" x1="5" y1="1.7163" x2="51.5017" y2="42.1251" gradientUnits="userSpaceOnUse">
<stop stop-color="#B4761A"/>
<stop offset="0.385417" stop-color="#B4761A"/>
<stop offset="0.494792" stop-color="#DDAE68"/>
<stop offset="0.598958" stop-color="#B4761A"/>
<stop offset="1" stop-color="#B4761A"/>
</linearGradient>
<linearGradient id="paint4_linear_2751_1664" x1="5" y1="1.7163" x2="51.5017" y2="42.1251" gradientUnits="userSpaceOnUse">
<stop stop-color="#B4761A"/>
<stop offset="0.385417" stop-color="#B4761A"/>
<stop offset="0.494792" stop-color="#DDAE68"/>
<stop offset="0.598958" stop-color="#B4761A"/>
<stop offset="1" stop-color="#B4761A"/>
</linearGradient>
<linearGradient id="paint5_linear_2751_1664" x1="5" y1="1.7163" x2="51.5017" y2="42.1251" gradientUnits="userSpaceOnUse">
<stop stop-color="#B4761A"/>
<stop offset="0.385417" stop-color="#B4761A"/>
<stop offset="0.494792" stop-color="#DDAE68"/>
<stop offset="0.598958" stop-color="#B4761A"/>
<stop offset="1" stop-color="#B4761A"/>
</linearGradient>
<linearGradient id="paint6_linear_2751_1664" x1="5" y1="1.7163" x2="51.5017" y2="42.1251" gradientUnits="userSpaceOnUse">
<stop stop-color="#B4761A"/>
<stop offset="0.385417" stop-color="#B4761A"/>
<stop offset="0.494792" stop-color="#DDAE68"/>
<stop offset="0.598958" stop-color="#B4761A"/>
<stop offset="1" stop-color="#B4761A"/>
</linearGradient>
<linearGradient id="paint7_linear_2751_1664" x1="5" y1="1.7163" x2="51.5017" y2="42.1251" gradientUnits="userSpaceOnUse">
<stop stop-color="#B4761A"/>
<stop offset="0.385417" stop-color="#B4761A"/>
<stop offset="0.494792" stop-color="#DDAE68"/>
<stop offset="0.598958" stop-color="#B4761A"/>
<stop offset="1" stop-color="#B4761A"/>
</linearGradient>
<linearGradient id="paint8_linear_2751_1664" x1="5" y1="1.7163" x2="51.5017" y2="42.1251" gradientUnits="userSpaceOnUse">
<stop stop-color="#B4761A"/>
<stop offset="0.385417" stop-color="#B4761A"/>
<stop offset="0.494792" stop-color="#DDAE68"/>
<stop offset="0.598958" stop-color="#B4761A"/>
<stop offset="1" stop-color="#B4761A"/>
</linearGradient>
<linearGradient id="paint9_linear_2751_1664" x1="5" y1="1.7163" x2="51.5017" y2="42.1251" gradientUnits="userSpaceOnUse">
<stop stop-color="#B4761A"/>
<stop offset="0.385417" stop-color="#B4761A"/>
<stop offset="0.494792" stop-color="#DDAE68"/>
<stop offset="0.598958" stop-color="#B4761A"/>
<stop offset="1" stop-color="#B4761A"/>
</linearGradient>
<linearGradient id="paint10_linear_2751_1664" x1="5" y1="1.7163" x2="51.5017" y2="42.1251" gradientUnits="userSpaceOnUse">
<stop stop-color="#B4761A"/>
<stop offset="0.385417" stop-color="#B4761A"/>
<stop offset="0.494792" stop-color="#DDAE68"/>
<stop offset="0.598958" stop-color="#B4761A"/>
<stop offset="1" stop-color="#B4761A"/>
</linearGradient>
<linearGradient id="paint11_linear_2751_1664" x1="5" y1="1.7163" x2="51.5017" y2="42.1251" gradientUnits="userSpaceOnUse">
<stop stop-color="#B4761A"/>
<stop offset="0.385417" stop-color="#B4761A"/>
<stop offset="0.494792" stop-color="#DDAE68"/>
<stop offset="0.598958" stop-color="#B4761A"/>
<stop offset="1" stop-color="#B4761A"/>
</linearGradient>
</defs>
</svg>
