<svg width="30" height="30" viewBox="0 0 30 30" fill="none" xmlns="http://www.w3.org/2000/svg">
<circle cx="15" cy="15" r="15" fill="#DDF9FF"/>
<path d="M21.1277 20.2617H8.86977C8.51346 20.2617 8.22461 20.5506 8.22461 20.9069V21.552C8.22461 21.9083 8.51346 22.1972 8.86977 22.1972H21.1277C21.4841 22.1972 21.7729 21.9083 21.7729 21.552V20.9069C21.7729 20.5506 21.4841 20.2617 21.1277 20.2617Z" fill="#FADF7D"/>
<path d="M21.1277 21.5514H8.86977C8.69882 21.5509 8.53502 21.4828 8.41414 21.3619C8.29326 21.241 8.22512 21.0772 8.22461 20.9062V21.5514C8.22512 21.7224 8.29326 21.8862 8.41414 22.007C8.53502 22.1279 8.69882 22.1961 8.86977 22.1966H21.1277C21.2987 22.1961 21.4625 22.1279 21.5834 22.007C21.7043 21.8862 21.7724 21.7224 21.7729 21.5514V20.9062C21.7724 21.0772 21.7043 21.241 21.5834 21.3619C21.4625 21.4828 21.2987 21.5509 21.1277 21.5514Z" fill="#FFBF40"/>
<path d="M6.99676 11.665C6.75653 11.8222 6.47074 11.8947 6.18462 11.8712C5.8985 11.8477 5.62839 11.7294 5.41704 11.5351C5.2057 11.3408 5.06519 11.0816 5.01774 10.7985C4.9703 10.5153 5.01864 10.2245 5.1551 9.97188C5.29157 9.71931 5.50837 9.51945 5.7712 9.40395C6.03402 9.28845 6.32786 9.2639 6.60621 9.33419C6.88456 9.40447 7.13152 9.56558 7.30801 9.79201C7.48449 10.0184 7.58043 10.2973 7.58063 10.5843C7.58078 10.7988 7.52747 11.0099 7.42553 11.1986C7.32358 11.3873 7.17622 11.5476 6.99676 11.665Z" fill="#FFC608"/>
<path d="M15.6541 10.4031C15.4562 10.5213 15.2299 10.5838 14.9993 10.5838C14.7687 10.5838 14.5424 10.5213 14.3445 10.4031C14.1005 10.2594 13.9106 10.0395 13.804 9.7773C13.6974 9.51506 13.68 9.22504 13.7544 8.95193C13.8289 8.67881 13.9911 8.43776 14.216 8.26591C14.441 8.09407 14.7162 8.00098 14.9993 8.00098C15.2824 8.00098 15.5576 8.09407 15.7826 8.26591C16.0075 8.43776 16.1697 8.67881 16.2442 8.95193C16.3186 9.22504 16.3012 9.51506 16.1946 9.7773C16.088 10.0395 15.8981 10.2594 15.6541 10.4031Z" fill="#FFC608"/>
<path d="M23.7102 11.8736C23.455 11.8736 23.2056 11.7979 22.9934 11.6561C22.7812 11.5144 22.6158 11.3128 22.5181 11.0771C22.4205 10.8413 22.3949 10.5819 22.4447 10.3316C22.4945 10.0813 22.6174 9.85135 22.7978 9.67089C22.9783 9.49044 23.2082 9.36755 23.4585 9.31776C23.7088 9.26798 23.9682 9.29353 24.204 9.39119C24.4398 9.48885 24.6413 9.65423 24.7831 9.86642C24.9249 10.0786 25.0006 10.3281 25.0006 10.5833C25.0006 10.9255 24.8646 11.2537 24.6226 11.4957C24.3806 11.7377 24.0524 11.8736 23.7102 11.8736Z" fill="#FFC608"/>
<path d="M20.16 12.1379C20.057 12.177 19.9476 12.1967 19.8374 12.196C19.6969 12.1963 19.5581 12.1654 19.431 12.1056C19.2265 12.0119 19.0609 11.8499 18.9626 11.6475C18.8644 11.4451 18.8395 11.2148 18.8924 10.9961C18.9452 10.7774 19.0724 10.5839 19.2522 10.4486C19.4321 10.3134 19.6533 10.2449 19.8781 10.2549C20.1029 10.2648 20.3172 10.3526 20.4844 10.5032C20.6516 10.6537 20.7612 10.8578 20.7945 11.0803C20.8278 11.3028 20.7828 11.53 20.667 11.7229C20.5513 11.9159 20.372 12.0626 20.16 12.1379Z" fill="#FF9C00"/>
<path d="M10.5664 12.1054C10.4393 12.1652 10.3005 12.196 10.16 12.1957C10.0498 12.1964 9.94044 12.1767 9.83741 12.1376C9.62676 12.0623 9.44883 11.9161 9.33403 11.7241C9.21924 11.5321 9.1747 11.3062 9.20805 11.085C9.2414 10.8637 9.35055 10.661 9.51685 10.5114C9.68315 10.3617 9.89627 10.2745 10.1198 10.2646C10.3432 10.2547 10.5632 10.3228 10.7421 10.4571C10.921 10.5915 11.0476 10.7838 11.1004 11.0012C11.1531 11.2186 11.1287 11.4476 11.0313 11.649C10.9339 11.8504 10.7696 12.0117 10.5664 12.1054Z" fill="#FF9C00"/>
<path d="M12.9818 15.9977C12.5914 16.6203 12.0914 17.0364 11.4527 17.0364C10.9882 17.0364 10.4173 16.5816 9.83984 15.9332V12.1397C9.94287 12.1787 10.0522 12.1984 10.1624 12.1977C10.3029 12.1981 10.4417 12.1672 10.5689 12.1074C10.8302 12.8074 11.6914 14.9074 12.9818 15.9977Z" fill="#FFAA00"/>
<path d="M20.1614 12.1397V15.9332C19.584 16.5816 19.0131 17.0364 18.5486 17.0364C17.9098 17.0364 17.4099 16.6203 17.0195 15.9977C18.3098 14.9074 19.1711 12.8074 19.4324 12.1074C19.5596 12.1672 19.6984 12.1981 19.8389 12.1977C19.9491 12.1984 20.0584 12.1787 20.1614 12.1397Z" fill="#FFAA00"/>
<path d="M15.6684 19.2226C15.7244 19.265 15.7919 19.2895 15.8621 19.2928C15.9323 19.296 16.0018 19.278 16.0615 19.241C16.1212 19.2039 16.1683 19.1497 16.1966 19.0854C16.2249 19.0211 16.2331 18.9497 16.22 18.8807L16.049 18.0484L16.5038 17.6033C16.5505 17.5571 16.5824 17.498 16.5955 17.4337C16.6086 17.3693 16.6023 17.3026 16.5775 17.2418C16.5526 17.181 16.5103 17.129 16.4558 17.0923C16.4014 17.0555 16.3373 17.0358 16.2716 17.0355H15.6426L15.3135 16.2613C15.2845 16.2032 15.2399 16.1543 15.1846 16.1201C15.1293 16.0859 15.0656 16.0678 15.0006 16.0678C14.9356 16.0678 14.8719 16.0859 14.8167 16.1201C14.7614 16.1543 14.7167 16.2032 14.6877 16.2613L14.3587 17.0355H13.7297C13.664 17.0358 13.5999 17.0555 13.5455 17.0923C13.491 17.129 13.4487 17.181 13.4238 17.2418C13.3989 17.3026 13.3927 17.3693 13.4058 17.4337C13.4189 17.498 13.4508 17.5571 13.4974 17.6033L13.9523 18.0484L13.7813 18.8807C13.7682 18.9497 13.7764 19.0211 13.8046 19.0854C13.8329 19.1497 13.88 19.2039 13.9397 19.241C13.9995 19.278 14.069 19.296 14.1392 19.2928C14.2093 19.2895 14.2769 19.265 14.3329 19.2226L15.0006 18.7323L15.6684 19.2226ZM20.1619 15.9323C21.4199 14.5259 22.7135 12.2001 23.0038 11.6646C23.2139 11.8017 23.4594 11.8745 23.7103 11.8743L21.1296 18.971V20.2613H8.87164V18.971L6.29102 11.8743C6.54187 11.8745 6.78737 11.8017 6.99746 11.6646C7.28778 12.2001 8.58132 14.5259 9.83938 15.9323C10.4168 16.5807 10.9878 17.0355 11.4523 17.0355C12.091 17.0355 12.591 16.6194 12.9813 15.9968C14.0361 14.3162 14.3006 11.113 14.3458 10.4033C14.5438 10.5216 14.77 10.584 15.0006 10.584C15.2312 10.584 15.4575 10.5216 15.6555 10.4033C15.7006 11.113 15.9651 14.3162 17.02 15.9968C17.4103 16.6194 17.9103 17.0355 18.549 17.0355C19.0135 17.0355 19.5845 16.5807 20.1619 15.9323Z" fill="#FADF7D"/>
<path d="M15.3129 16.261L15.6419 17.0352H16.2709C16.3366 17.0354 16.4007 17.0552 16.4552 17.0919C16.5096 17.1286 16.5519 17.1806 16.5768 17.2414C16.6017 17.3022 16.6079 17.369 16.5948 17.4333C16.5817 17.4977 16.5498 17.5567 16.5032 17.6029L16.0484 18.048L16.2193 18.8803C16.2324 18.9493 16.2243 19.0207 16.196 19.085C16.1677 19.1493 16.1206 19.2036 16.0609 19.2406C16.0012 19.2776 15.9316 19.2957 15.8614 19.2924C15.7913 19.2891 15.7237 19.2647 15.6677 19.2222L15 18.7319L14.3322 19.2222C14.2762 19.2647 14.2087 19.2891 14.1385 19.2924C14.0683 19.2957 13.9988 19.2776 13.9391 19.2406C13.8794 19.2036 13.8323 19.1493 13.804 19.085C13.7757 19.0207 13.7676 18.9493 13.7806 18.8803L13.9516 18.048L13.4968 17.6029C13.4501 17.5567 13.4182 17.4977 13.4051 17.4333C13.392 17.369 13.3983 17.3022 13.4232 17.2414C13.448 17.1806 13.4903 17.1286 13.5448 17.0919C13.5992 17.0552 13.6633 17.0354 13.729 17.0352H14.358L14.6871 16.261C14.7161 16.2028 14.7607 16.1539 14.816 16.1197C14.8713 16.0855 14.935 16.0674 15 16.0674C15.065 16.0674 15.1287 16.0855 15.1839 16.1197C15.2392 16.1539 15.2839 16.2028 15.3129 16.261Z" fill="#D1013E"/>
<path d="M15.6542 9.75721C15.4562 9.87545 15.23 9.93787 14.9994 9.93787C14.7688 9.93787 14.5425 9.87545 14.3445 9.75721C14.0517 9.58592 13.8388 9.30555 13.7523 8.97754C13.6799 9.2471 13.6987 9.53305 13.8058 9.79079C13.913 10.0485 14.1024 10.2636 14.3445 10.4024C14.5425 10.5206 14.7688 10.583 14.9994 10.583C15.23 10.583 15.4562 10.5206 15.6542 10.4024C15.8964 10.2636 16.0858 10.0485 16.1929 9.79079C16.3001 9.53305 16.3189 9.2471 16.2465 8.97754C16.16 9.30555 15.947 9.58592 15.6542 9.75721Z" fill="#FFAA00"/>
<path d="M24.3651 11.0492C24.1672 11.1674 23.9409 11.2299 23.7103 11.2299C23.4797 11.2299 23.2534 11.1674 23.0555 11.0492C22.7627 10.8779 22.5497 10.5975 22.4632 10.2695C22.3908 10.5391 22.4096 10.825 22.5168 11.0828C22.6239 11.3405 22.8133 11.5556 23.0555 11.6944C23.2534 11.8126 23.4797 11.875 23.7103 11.875C23.9409 11.875 24.1672 11.8126 24.3651 11.6944C24.6073 11.5556 24.7967 11.3405 24.9039 11.0828C25.011 10.825 25.0298 10.5391 24.9574 10.2695C24.8709 10.5975 24.6579 10.8779 24.3651 11.0492Z" fill="#FFAA00"/>
<path d="M6.94522 11.0492C6.74726 11.1674 6.52097 11.2299 6.29039 11.2299C6.0598 11.2299 5.83352 11.1674 5.63555 11.0492C5.34275 10.8779 5.12978 10.5975 5.0433 10.2695C4.97087 10.5391 4.9897 10.825 5.09683 11.0828C5.20397 11.3405 5.39339 11.5556 5.63555 11.6944C5.83352 11.8126 6.0598 11.875 6.29039 11.875C6.52097 11.875 6.74726 11.8126 6.94522 11.6944C7.18739 11.5556 7.37681 11.3405 7.48394 11.0828C7.59108 10.825 7.6099 10.5391 7.53748 10.2695C7.45099 10.5975 7.23802 10.8779 6.94522 11.0492Z" fill="#FFAA00"/>
<path d="M10.5676 11.4601C10.4404 11.5199 10.3016 11.5508 10.1611 11.5505C10.0509 11.5511 9.94156 11.5315 9.83853 11.4924C9.70308 11.4456 9.57993 11.3688 9.47823 11.2678C9.37653 11.1669 9.2989 11.0443 9.25111 10.9092C9.2141 11.0114 9.19458 11.1192 9.19337 11.2279C9.19241 11.4279 9.25412 11.6232 9.36983 11.7863C9.48554 11.9495 9.64944 12.0723 9.83853 12.1375C9.94156 12.1766 10.0509 12.1963 10.1611 12.1956C10.3016 12.1959 10.4404 12.1651 10.5676 12.1053C10.7871 12.0062 10.961 11.8276 11.0543 11.6056C11.1477 11.3835 11.1535 11.1344 11.0708 10.9082C11.028 11.0292 10.9615 11.1403 10.8751 11.2351C10.7886 11.3299 10.6841 11.4064 10.5676 11.4601Z" fill="#DE8800"/>
<path d="M20.2453 11.4601C20.1182 11.5199 19.9793 11.5508 19.8388 11.5505C19.7287 11.5511 19.6193 11.5315 19.5163 11.4924C19.3808 11.4456 19.2577 11.3688 19.156 11.2678C19.0543 11.1669 18.9766 11.0443 18.9288 10.9092C18.8918 11.0114 18.8723 11.1192 18.8711 11.2279C18.8701 11.4279 18.9318 11.6232 19.0476 11.7863C19.1633 11.9495 19.3272 12.0723 19.5163 12.1375C19.6193 12.1766 19.7287 12.1963 19.8388 12.1956C19.9793 12.1959 20.1182 12.1651 20.2453 12.1053C20.4648 12.0062 20.6387 11.8276 20.7321 11.6056C20.8254 11.3835 20.8313 11.1344 20.7485 10.9082C20.7058 11.0292 20.6392 11.1403 20.5528 11.2351C20.4664 11.3299 20.3618 11.4064 20.2453 11.4601Z" fill="#DE8800"/>
<path d="M10.4895 15.959C10.3899 15.9029 10.3071 15.8212 10.2497 15.7225C10.1922 15.6237 10.162 15.5114 10.1624 15.3971V13.4881C10.1624 13.317 10.2304 13.1529 10.3514 13.0319C10.4724 12.9109 10.6365 12.8429 10.8076 12.8429H10.8685C10.734 12.5371 10.6331 12.2797 10.5689 12.1074C10.4417 12.1672 10.3029 12.1981 10.1624 12.1977C10.0522 12.1984 9.94287 12.1787 9.83984 12.1397V15.9332C10.4173 16.5816 10.9882 17.0364 11.4527 17.0364C12.0914 17.0364 12.5914 16.6203 12.9818 15.9977C12.9495 15.9697 12.9172 15.9384 12.885 15.909C11.9921 16.6274 10.9924 16.2419 10.4895 15.959Z" fill="#FF9C00"/>
<path d="M19.8389 12.1977C19.6984 12.1981 19.5596 12.1672 19.4324 12.1074C19.3679 12.2797 19.2673 12.5371 19.1327 12.8429H19.1937C19.3648 12.8429 19.5289 12.9109 19.6499 13.0319C19.7709 13.1529 19.8389 13.317 19.8389 13.4881V15.3971C19.8392 15.5114 19.8091 15.6237 19.7516 15.7225C19.6941 15.8212 19.6113 15.9029 19.5118 15.959C19.0089 16.2419 18.0102 16.6251 17.1182 15.908C17.086 15.9377 17.0537 15.9693 17.0195 15.9977C17.4099 16.6203 17.9098 17.0364 18.5486 17.0364C19.0131 17.0364 19.584 16.5816 20.1614 15.9332V12.1397C20.0584 12.1787 19.9491 12.1984 19.8389 12.1977Z" fill="#FF9C00"/>
<path d="M22.9385 12.7692C22.9736 12.7005 23.032 12.6465 23.1033 12.6169C23.1746 12.5874 23.2541 12.5842 23.3276 12.6079L23.4311 12.6425L23.7101 11.8757C23.4593 11.876 23.2138 11.8031 23.0037 11.666C22.7134 12.2015 21.4198 14.5273 20.1618 15.9337C19.6582 16.4992 19.1598 16.9169 18.7324 17.0147C19.2995 16.9102 21.1043 16.3028 22.9385 12.7692Z" fill="#FFBF40"/>
<path d="M15.6684 19.224L15.3258 18.9724H14.6755L14.3329 19.224C14.283 19.2613 14.224 19.2845 14.162 19.2913C14.1001 19.298 14.0375 19.288 13.9807 19.2623C13.924 19.2366 13.8751 19.1962 13.8393 19.1452C13.8035 19.0942 13.782 19.0345 13.7771 18.9724H10.8071C10.5505 18.9724 10.3043 18.8705 10.1228 18.689C9.94134 18.5075 9.83938 18.2613 9.83938 18.0047L7.18682 12.9944C7.16078 12.9452 7.1479 12.8902 7.14943 12.8346C7.15096 12.7789 7.16685 12.7247 7.19555 12.677C7.22424 12.6294 7.26478 12.5899 7.31322 12.5626C7.36165 12.5352 7.41634 12.5208 7.47198 12.5208H7.48004C7.2523 12.1302 7.08166 11.8215 6.99617 11.666C6.78645 11.8029 6.54143 11.8757 6.29102 11.8757L8.87164 18.9724V20.2627H21.1296V18.9724H16.2242C16.2193 19.0345 16.1978 19.0942 16.162 19.1452C16.1261 19.1962 16.0773 19.2366 16.0206 19.2623C15.9638 19.288 15.9012 19.298 15.8392 19.2913C15.7773 19.2845 15.7183 19.2613 15.6684 19.224Z" fill="#FFBF40"/>
<path d="M14.6531 11.834C14.6636 11.6701 14.7362 11.5164 14.8561 11.4042C14.9759 11.292 15.1341 11.2298 15.2983 11.2301H15.7299C15.6902 10.8591 15.6679 10.5653 15.6576 10.4043C15.4596 10.5225 15.2334 10.585 15.0028 10.585C14.7722 10.585 14.5459 10.5225 14.3479 10.4043C14.3028 11.114 14.0383 14.3172 12.9834 15.9978C12.5918 16.6204 12.0918 17.0365 11.4531 17.0365C14.0338 17.0365 14.5499 13.3204 14.6531 11.834Z" fill="#FFBF40"/>
<path d="M16.8751 17.1187C16.8264 16.9985 16.7429 16.8956 16.6353 16.8233C16.5277 16.751 16.4009 16.7125 16.2712 16.7129H15.8554L15.6099 16.1348C15.6073 16.1288 15.6044 16.1226 15.6012 16.1164C15.5457 16.0045 15.46 15.9105 15.3538 15.8448C15.2476 15.7792 15.1251 15.7447 15.0002 15.7451C14.8721 15.7456 14.7468 15.7824 14.6388 15.8514C14.5309 15.9204 14.4448 16.0187 14.3906 16.1348L14.1451 16.7129H13.7293C13.5995 16.7131 13.4728 16.752 13.3651 16.8245C13.2575 16.8969 13.1738 16.9998 13.1247 17.1199C13.0757 17.2401 13.0634 17.3721 13.0896 17.4992C13.1157 17.6263 13.1791 17.7428 13.2715 17.8338L13.6003 18.1564L13.4651 18.8154C13.4372 18.9472 13.4504 19.0844 13.5031 19.2085C13.5557 19.3325 13.6451 19.4374 13.7593 19.509C13.868 19.5788 13.9945 19.6161 14.1238 19.6164C14.2678 19.6164 14.408 19.5696 14.5231 19.4832L15.0002 19.1322L15.4751 19.4812C15.5846 19.5638 15.7168 19.6107 15.8539 19.6155C15.9909 19.6204 16.1261 19.5829 16.2412 19.5083C16.3552 19.4369 16.4446 19.3322 16.4973 19.2083C16.55 19.0845 16.5634 18.9475 16.5357 18.8157L16.4002 18.1558L16.7299 17.8332C16.8226 17.7421 16.8859 17.6254 16.9118 17.4981C16.9376 17.3708 16.9249 17.2387 16.8751 17.1187ZM16.5035 17.6025L16.0486 18.0477L16.2196 18.8799C16.2327 18.949 16.2245 19.0203 16.1962 19.0847C16.168 19.149 16.1209 19.2032 16.0611 19.2402C16.0014 19.2772 15.9319 19.2953 15.8617 19.292C15.7915 19.2887 15.724 19.2643 15.668 19.2219L15.0002 18.7322L14.3325 19.2225C14.2765 19.2649 14.209 19.2894 14.1388 19.2927C14.0686 19.2959 13.9991 19.2779 13.9393 19.2409C13.8796 19.2039 13.8325 19.1496 13.8042 19.0853C13.776 19.021 13.7678 18.9496 13.7809 18.8806L13.9519 18.0483L13.497 17.6032C13.4504 17.557 13.4185 17.4979 13.4054 17.4336C13.3923 17.3692 13.3986 17.3025 13.4234 17.2417C13.4483 17.1809 13.4906 17.1289 13.5451 17.0922C13.5995 17.0554 13.6636 17.0357 13.7293 17.0354H14.3583L14.6873 16.2612C14.7164 16.2031 14.761 16.1542 14.8163 16.12C14.8715 16.0858 14.9352 16.0677 15.0002 16.0677C15.0652 16.0677 15.1289 16.0858 15.1842 16.12C15.2395 16.1542 15.2841 16.2031 15.3131 16.2612L15.6422 17.0354H16.2712C16.3369 17.0357 16.401 17.0554 16.4554 17.0922C16.5099 17.1289 16.5522 17.1809 16.5771 17.2417C16.6019 17.3025 16.6082 17.3692 16.5951 17.4336C16.582 17.4979 16.5501 17.557 16.5035 17.6032V17.6025Z" fill="#FF9C00"/>
<path d="M20.1624 11.2291C20.3406 11.2291 20.485 11.0847 20.485 10.9066C20.485 10.7284 20.3406 10.584 20.1624 10.584C19.9843 10.584 19.8398 10.7284 19.8398 10.9066C19.8398 11.0847 19.9843 11.2291 20.1624 11.2291Z" fill="#FFC608"/>
<path d="M10.4827 11.2291C10.6609 11.2291 10.8053 11.0847 10.8053 10.9066C10.8053 10.7284 10.6609 10.584 10.4827 10.584C10.3046 10.584 10.1602 10.7284 10.1602 10.9066C10.1602 11.0847 10.3046 11.2291 10.4827 11.2291Z" fill="#FFC608"/>
<path d="M15.3226 9.29359C15.5007 9.29359 15.6452 9.14917 15.6452 8.97102C15.6452 8.79286 15.5007 8.64844 15.3226 8.64844C15.1444 8.64844 15 8.79286 15 8.97102C15 9.14917 15.1444 9.29359 15.3226 9.29359Z" fill="#FFFCED"/>
<path d="M24.3538 10.5846C24.532 10.5846 24.6764 10.4402 24.6764 10.262C24.6764 10.0839 24.532 9.93945 24.3538 9.93945C24.1757 9.93945 24.0312 10.0839 24.0312 10.262C24.0312 10.4402 24.1757 10.5846 24.3538 10.5846Z" fill="#FFFCED"/>
<path d="M6.93586 10.5846C7.11401 10.5846 7.25844 10.4402 7.25844 10.262C7.25844 10.0839 7.11401 9.93945 6.93586 9.93945C6.7577 9.93945 6.61328 10.0839 6.61328 10.262C6.61328 10.4402 6.7577 10.5846 6.93586 10.5846Z" fill="#FFFCED"/>
</svg>
