<svg width="24" height="24" viewBox="0 0 24 24" fill="none" xmlns="http://www.w3.org/2000/svg">
<mask id="mask0_1313_26741" style="mask-type:alpha" maskUnits="userSpaceOnUse" x="0" y="0" width="24" height="24">
<rect width="24" height="24" fill="#D9D9D9"/>
</mask>
<g mask="url(#mask0_1313_26741)">
<path d="M7.23158 20.5C6.73441 20.5 6.30883 20.323 5.95483 19.969C5.60083 19.615 5.42383 19.1894 5.42383 18.6923V8C5.42383 7.50283 5.60083 7.07725 5.95483 6.72325C6.30883 6.36925 6.73441 6.19225 7.23158 6.19225H9.30858V4.30775C9.30858 3.81058 9.48558 3.385 9.83958 3.031C10.1936 2.677 10.6192 2.5 11.1163 2.5H12.8853C13.3825 2.5 13.8081 2.677 14.1621 3.031C14.5161 3.385 14.6931 3.81058 14.6931 4.30775V6.19225H16.7701C17.2672 6.19225 17.6928 6.36925 18.0468 6.72325C18.4008 7.07725 18.5778 7.50283 18.5778 8V18.6923C18.5778 19.1894 18.4008 19.615 18.0468 19.969C17.6928 20.323 17.2672 20.5 16.7701 20.5V20.6152C16.7701 20.8603 16.6838 21.0689 16.5113 21.2413C16.339 21.4138 16.1303 21.5 15.8853 21.5C15.6405 21.5 15.4319 21.4138 15.2596 21.2413C15.0871 21.0689 15.0008 20.8603 15.0008 20.6152V20.5H9.00083V20.6152C9.00083 20.8603 8.91458 21.0689 8.74208 21.2413C8.56974 21.4138 8.36116 21.5 8.11633 21.5C7.87133 21.5 7.66266 21.4138 7.49033 21.2413C7.31783 21.0689 7.23158 20.8603 7.23158 20.6152V20.5ZM7.23158 19H16.7701C16.8597 19 16.9335 18.9712 16.9913 18.9135C17.049 18.8558 17.0778 18.7821 17.0778 18.6923V8C17.0778 7.91017 17.049 7.83642 16.9913 7.77875C16.9335 7.72108 16.8597 7.69225 16.7701 7.69225H7.23158C7.14191 7.69225 7.06816 7.72108 7.01033 7.77875C6.95266 7.83642 6.92383 7.91017 6.92383 8V18.6923C6.92383 18.7821 6.95266 18.8558 7.01033 18.9135C7.06816 18.9712 7.14191 19 7.23158 19ZM9.30858 17.6152H10.8086V9.077H9.30858V17.6152ZM13.1931 17.6152H14.6931V9.077H13.1931V17.6152ZM10.8086 6.19225H13.1931V4.30775C13.1931 4.21792 13.1642 4.14417 13.1066 4.0865C13.0489 4.02883 12.9752 4 12.8853 4H11.1163C11.0265 4 10.9527 4.02883 10.8951 4.0865C10.8374 4.14417 10.8086 4.21792 10.8086 4.30775V6.19225Z" fill="#E97737"/>
</g>
</svg>
