<svg width="44" height="44" viewBox="0 0 44 44" fill="none" xmlns="http://www.w3.org/2000/svg">
<path d="M15.1251 3.43799V13.0603H16.5004V3.43799H15.1251ZM6.87305 3.43799V13.0603H8.24838V3.43799H6.87305Z" fill="#92A1BA"/>
<path d="M4.7428 38.5008C4.74234 38.5013 4.74326 38.5004 4.7428 38.5008C4.57282 38.5175 4.41376 38.5983 4.29909 38.7248C4.18442 38.8514 4.12097 39.0162 4.12109 39.187V40.562C4.12109 41.6927 5.05688 42.6218 6.18762 42.6218C7.31836 42.6218 8.24744 41.6927 8.24744 40.562V39.187C8.24672 39.0056 8.17433 38.8319 8.04606 38.7036C7.91779 38.5753 7.74402 38.5029 7.56262 38.5022H4.81262C4.78939 38.5005 4.76608 38.5001 4.7428 38.5008Z" fill="#565D69"/>
<path d="M3.43676 12.374C2.30603 12.374 1.37695 13.3045 1.37695 14.4352V37.8115C1.37695 38.9422 2.30603 39.8767 3.43676 39.8767H19.9354C21.0662 39.8767 22.002 38.9422 22.002 37.8115V14.4352C22.002 13.3045 21.0662 12.374 19.9354 12.374H3.43676Z" fill="#FFA32D"/>
<path d="M26.8136 19.2515C25.6829 19.2515 24.748 20.1812 24.748 21.3119V24.0626H26.1234V21.3119C26.1234 20.9192 26.4208 20.6217 26.8136 20.6217H30.9396C31.3324 20.6217 31.6247 20.9192 31.6247 21.3119V24.0626H33.0001V21.3119C33.0001 20.1812 32.0703 19.2515 30.9396 19.2515H26.8136Z" fill="#92A1BA"/>
<path d="M11.675 16.4908C11.4935 16.4942 11.3207 16.5691 11.1942 16.6993C11.0678 16.8296 10.998 17.0046 11 17.1861V35.0604C11 35.2428 11.0725 35.4177 11.2015 35.5467C11.3304 35.6757 11.5053 35.748 11.6877 35.748C11.8701 35.748 12.045 35.6757 12.174 35.5467C12.3029 35.4177 12.3754 35.2428 12.3754 35.0604V17.1861C12.3764 17.0941 12.359 17.0028 12.3241 16.9176C12.2892 16.8325 12.2376 16.7551 12.1723 16.6903C12.107 16.6254 12.0293 16.5744 11.9439 16.5402C11.8585 16.5059 11.767 16.4891 11.675 16.4908Z" fill="#C26B0D"/>
<path d="M6.10716 19.2414C5.9374 19.2609 5.78099 19.3429 5.6684 19.4714C5.55581 19.5999 5.49512 19.7658 5.49816 19.9366V32.3096C5.49816 32.492 5.57061 32.6669 5.69957 32.7959C5.82853 32.9248 6.00344 32.9973 6.18582 32.9973C6.3682 32.9973 6.54312 32.9248 6.67208 32.7959C6.80104 32.6669 6.87349 32.492 6.87349 32.3096V19.9366C6.87524 19.8387 6.85603 19.7414 6.81714 19.6515C6.77826 19.5616 6.72061 19.4809 6.64804 19.4151C6.57547 19.3493 6.48968 19.2997 6.39639 19.2698C6.30311 19.2398 6.2045 19.2301 6.10716 19.2414Z" fill="#C26B0D"/>
<path d="M17.1091 19.2414C16.9394 19.2609 16.7829 19.3429 16.6704 19.4714C16.5578 19.5999 16.4971 19.7658 16.5001 19.9366V24.0627C16.5001 24.245 16.5726 24.4199 16.7015 24.5489C16.8305 24.6779 17.0054 24.7503 17.1878 24.7503C17.3702 24.7503 17.5451 24.6779 17.674 24.5489C17.803 24.4199 17.8754 24.245 17.8754 24.0627V19.9366C17.8772 19.8387 17.858 19.7414 17.8191 19.6515C17.7802 19.5616 17.7226 19.4809 17.65 19.4151C17.5774 19.3493 17.4916 19.2997 17.3983 19.2698C17.3051 19.2398 17.2064 19.2301 17.1091 19.2414Z" fill="#C26B0D"/>
<path d="M8.93823 1.37158C7.8075 1.37158 6.87305 2.30743 6.87305 3.43816V4.12297H16.5007V3.43816C16.5007 2.30743 15.5649 1.37158 14.4342 1.37158H8.93823Z" fill="#565D69"/>
<path d="M17.1855 12.374C18.3163 12.374 19.2521 13.3045 19.2521 14.4352V37.8115C19.2521 38.9422 18.3163 39.8767 17.1855 39.8767H19.9355C21.0663 39.8767 22.0021 38.9422 22.0021 37.8115V14.4352C22.0021 13.3045 21.0663 12.374 19.9355 12.374H17.1855Z" fill="#D0730F"/>
<path d="M17.1848 23.373C16.0541 23.373 15.125 24.3075 15.125 25.4383V40.5619C15.125 41.6927 16.0541 42.6217 17.1848 42.6217H40.5598C41.6906 42.6217 42.6263 41.6927 42.6263 40.5619V25.4383C42.6263 24.3075 41.6906 23.373 40.5598 23.373H17.1848Z" fill="#FC6067"/>
<path d="M19.9375 23.373V42.6217H22.6875V23.373H19.9375ZM35.0598 23.373V42.6217H37.8112V23.373H35.0598Z" fill="#E7EAEF"/>
<path d="M26.1223 30.9341C25.94 30.9348 25.7654 31.0079 25.637 31.1373C25.5086 31.2668 25.4368 31.4419 25.4375 31.6242V34.3756C25.4382 34.557 25.5106 34.7307 25.6389 34.859C25.7672 34.9873 25.9409 35.0597 26.1223 35.0604H31.6237C31.806 35.0611 31.9811 34.9893 32.1106 34.8609C32.24 34.7325 32.3131 34.5579 32.3139 34.3756V31.6242C32.3142 31.5335 32.2966 31.4436 32.262 31.3597C32.2275 31.2758 32.1766 31.1996 32.1125 31.1354C32.0483 31.0713 31.9721 31.0204 31.8882 30.9859C31.8043 30.9513 31.7144 30.9337 31.6237 30.9341H26.1223Z" fill="#FCB860"/>
<path d="M37.8105 23.373C38.9413 23.373 39.8771 24.3075 39.8771 25.4383V40.5619C39.8771 41.6927 38.9413 42.6217 37.8105 42.6217H40.5605C41.6913 42.6217 42.6271 41.6927 42.6271 40.5619V25.4383C42.6271 24.3075 41.6913 23.373 40.5605 23.373H37.8105Z" fill="#FB4B5B"/>
<path d="M11.6836 1.37158C12.8143 1.37158 13.7501 2.30743 13.7501 3.43816V4.12297H16.5001V3.43816C16.5001 2.30743 15.5643 1.37158 14.4336 1.37158H11.6836Z" fill="#4E5460"/>
</svg>
