<svg width="16" height="16" viewBox="0 0 16 16" fill="none" xmlns="http://www.w3.org/2000/svg">
<mask id="mask0_1313_26735" style="mask-type:alpha" maskUnits="userSpaceOnUse" x="0" y="0" width="16" height="16">
<rect width="16" height="16" fill="#D9D9D9"/>
</mask>
<g mask="url(#mask0_1313_26735)">
<path d="M2.66732 13.3337C2.30065 13.3337 1.98676 13.2031 1.72565 12.942C1.46454 12.6809 1.33398 12.367 1.33398 12.0003V4.00033C1.33398 3.63366 1.46454 3.31977 1.72565 3.05866C1.98676 2.79755 2.30065 2.66699 2.66732 2.66699H13.334C13.7007 2.66699 14.0145 2.79755 14.2757 3.05866C14.5368 3.31977 14.6673 3.63366 14.6673 4.00033V12.0003C14.6673 12.367 14.5368 12.6809 14.2757 12.942C14.0145 13.2031 13.7007 13.3337 13.334 13.3337H2.66732ZM8.00065 8.66699L2.66732 5.33366V12.0003H13.334V5.33366L8.00065 8.66699ZM8.00065 7.33366L13.334 4.00033H2.66732L8.00065 7.33366ZM2.66732 5.33366V4.00033V12.0003V5.33366Z" fill="#5A5A5A"/>
</g>
</svg>
