<svg width="20" height="20" viewBox="0 0 20 20" fill="none" xmlns="http://www.w3.org/2000/svg">
<mask id="mask0_2330_43386" style="mask-type:alpha" maskUnits="userSpaceOnUse" x="0" y="0" width="20" height="20">
<rect width="20" height="20" fill="#D9D9D9"/>
</mask>
<g mask="url(#mask0_2330_43386)">
<path d="M3.59044 16.25C3.16947 16.25 2.81315 16.1042 2.52148 15.8125C2.22982 15.5208 2.08398 15.1645 2.08398 14.7435V5.25646C2.08398 4.83549 2.22982 4.47917 2.52148 4.1875C2.81315 3.89583 3.16947 3.75 3.59044 3.75H16.4109C16.8318 3.75 17.1882 3.89583 17.4798 4.1875C17.7715 4.47917 17.9173 4.83549 17.9173 5.25646V14.7435C17.9173 15.1645 17.7715 15.5208 17.4798 15.8125C17.1882 16.1042 16.8318 16.25 16.4109 16.25H3.59044ZM10.0007 10.4648L3.33398 6.20187V14.7435C3.33398 14.8184 3.35801 14.8799 3.40607 14.9279C3.45412 14.976 3.51558 15 3.59044 15H16.4109C16.4857 15 16.5472 14.976 16.5952 14.9279C16.6433 14.8799 16.6673 14.8184 16.6673 14.7435V6.20187L10.0007 10.4648ZM10.0007 9.16667L16.5392 5H3.46211L10.0007 9.16667ZM3.33398 6.20187V5V14.7435C3.33398 14.8184 3.35801 14.8799 3.40607 14.9279C3.45412 14.976 3.51558 15 3.59044 15H3.33398V6.20187Z" fill="#E97737"/>
</g>
</svg>
