<svg width="50" height="50" viewBox="0 0 50 50" fill="none" xmlns="http://www.w3.org/2000/svg">
<path d="M47.5 16.6667H46.6167C46.1008 9.24333 38.7942 3.33333 29.8608 3.33333H29.0133C29.112 3.06645 29.1639 2.78453 29.1667 2.5C29.1667 1.83696 28.9033 1.20107 28.4344 0.732233C27.9656 0.263392 27.3297 0 26.6667 0C26.0036 0 25.3677 0.263392 24.8989 0.732233C24.4301 1.20107 24.1667 1.83696 24.1667 2.5C24.1694 2.78453 24.2213 3.06645 24.32 3.33333H23.4725C14.5392 3.33333 7.2325 9.24333 6.71667 16.6667H5.83334C5.17029 16.6667 4.53441 16.9301 4.06557 17.3989C3.59673 17.8677 3.33334 18.5036 3.33334 19.1667C3.33334 19.8297 3.59673 20.4656 4.06557 20.9344C4.53441 21.4033 5.17029 21.6667 5.83334 21.6667H15.0833C15.0331 21.8486 15.0065 22.0363 15.0042 22.225V25C15.1352 27.3084 14.5443 29.6003 13.3133 31.5575C13.0925 31.9792 12.8525 32.44 12.5925 32.96C11.9706 34.1882 11.4952 35.4851 11.1758 36.8242C10.7106 36.575 10.1789 36.4781 9.6557 36.547C9.13247 36.616 8.64404 36.8472 8.25917 37.2083C4.6275 40.6733 2.48417 41.8667 1.52917 42.2708C1.07581 42.4601 0.688644 42.7794 0.416505 43.1884C0.144366 43.5974 -0.000560695 44.0779 1.6302e-06 44.5692V47.5C1.6302e-06 48.163 0.263394 48.7989 0.732235 49.2678C1.20108 49.7366 1.83696 50 2.5 50H14.4167C14.9843 50.0001 15.535 49.807 15.9783 49.4525L18.2333 47.6475C18.493 47.4418 18.7087 47.1861 18.8678 46.8955C19.0268 46.605 19.1259 46.2854 19.1591 45.9559C19.1924 45.6263 19.1592 45.2934 19.0614 44.9769C18.9636 44.6604 18.8033 44.3667 18.59 44.1133C20.3891 42.1806 22.4995 40.5632 24.8333 39.3283C25.3145 39.0882 25.7437 38.7557 26.0967 38.35C28.3179 35.7708 30.8178 33.4456 33.5508 31.4167C34.4163 30.791 35.0052 29.8538 35.1933 28.8025C36.0325 24.3858 38.0308 22.2375 38.645 21.6642H47.5C48.163 21.6642 48.7989 21.4008 49.2678 20.9319C49.7366 20.4631 50 19.8272 50 19.1642C50 18.5011 49.7366 17.8652 49.2678 17.3964C48.7989 16.9276 48.163 16.6642 47.5 16.6642V16.6667ZM25.8333 2.5C25.8333 2.33518 25.8822 2.17407 25.9738 2.03702C26.0653 1.89998 26.1955 1.79317 26.3478 1.7301C26.5 1.66703 26.6676 1.65052 26.8292 1.68268C26.9909 1.71483 27.1394 1.7942 27.2559 1.91074C27.3725 2.02729 27.4518 2.17577 27.484 2.33742C27.5161 2.49908 27.4996 2.66663 27.4366 2.8189C27.3735 2.97117 27.2667 3.10132 27.1296 3.19289C26.9926 3.28446 26.8315 3.33333 26.6667 3.33333C26.4457 3.33333 26.2337 3.24554 26.0774 3.08926C25.9211 2.93298 25.8333 2.72101 25.8333 2.5ZM23.4725 5H29.8608C37.8683 5 44.4258 10.1667 44.9492 16.6667H8.38417C8.9075 10.1667 15.465 5 23.4725 5ZM17.1917 46.345L14.9358 48.1508C14.7884 48.2687 14.6054 48.333 14.4167 48.3333H2.5C2.27899 48.3333 2.06703 48.2455 1.91075 48.0893C1.75447 47.933 1.66667 47.721 1.66667 47.5V44.5692C1.66602 44.4064 1.71355 44.247 1.80326 44.1112C1.89297 43.9754 2.02087 43.8691 2.17084 43.8058C3.465 43.2592 5.77 41.8808 9.40167 38.4158C9.56005 38.265 9.77049 38.1812 9.98917 38.1817C10.0974 38.1812 10.2046 38.2021 10.3047 38.2431C10.4048 38.2842 10.4958 38.3446 10.5725 38.4208L17.2592 45.1067C17.3419 45.1896 17.4062 45.289 17.4479 45.3984C17.4896 45.5078 17.5078 45.6248 17.5013 45.7417C17.4948 45.8586 17.4637 45.9728 17.41 46.0769C17.3564 46.181 17.2814 46.2727 17.19 46.3458L17.1917 46.345ZM33.5567 28.495C33.4463 29.126 33.0952 29.6895 32.5775 30.0667C29.7402 32.1676 27.1446 34.5768 24.8383 37.25C24.6287 37.4914 24.3739 37.6896 24.0883 37.8333C21.6025 39.1466 19.3526 40.8645 17.4308 42.9167L12.6175 38.1033C12.8784 36.5712 13.3728 35.0881 14.0833 33.7058C14.3383 33.195 14.5742 32.7425 14.7908 32.3283C16.1468 30.1331 16.8012 27.5767 16.6667 25V22.225C16.6669 22.077 16.7258 21.9351 16.8304 21.8304C16.9351 21.7258 17.077 21.6669 17.225 21.6667C17.6101 21.6673 17.9835 21.7986 18.2842 22.0392C18.5806 22.2752 18.7839 22.6085 18.8583 22.98C19.0515 23.9192 19.1548 24.8746 19.1667 25.8333C19.1395 27.0116 19.0337 28.1867 18.85 29.3508C18.7821 29.847 18.8212 30.3519 18.9647 30.8317C19.1082 31.3114 19.3528 31.7549 19.682 32.1322C20.0113 32.5095 20.4175 32.8119 20.8734 33.0191C21.3293 33.2263 21.8242 33.3334 22.325 33.3333C23.1758 33.3328 23.998 33.0257 24.6408 32.4683L29.9158 27.8433C30.4128 27.41 30.7984 26.8635 31.04 26.25C32.0242 23.8042 33.2392 22.1075 34.315 21.6667H36.4167C34.9465 23.6901 33.9674 26.0278 33.5567 28.495ZM29.9492 21.6667H31.7367C30.7947 22.8715 30.0378 24.2101 29.4908 25.6383C29.347 26.0055 29.1159 26.3321 28.8175 26.59L27.0125 28.1733C27.1925 27.48 27.3567 26.7567 27.4883 25.9717C27.7745 24.2911 28.6462 22.766 29.9492 21.6667ZM25.845 25.695C25.6053 27.3106 25.1504 28.8868 24.4925 30.3817L23.5467 31.215C23.1704 31.5251 22.6896 31.6792 22.2031 31.6455C21.7167 31.6119 21.2617 31.3931 20.9317 31.0342C20.7596 30.8376 20.6319 30.6063 20.5575 30.3559C20.483 30.1055 20.4634 29.842 20.5 29.5833C20.6955 28.3423 20.8069 27.0894 20.8333 25.8333C20.821 24.7646 20.7068 23.6996 20.4925 22.6525C20.4207 22.3054 20.2926 21.9724 20.1133 21.6667H27.6583C26.7198 22.8326 26.0955 24.2194 25.845 25.695ZM47.5 20H5.83334C5.61232 20 5.40036 19.9122 5.24408 19.7559C5.0878 19.5996 5 19.3877 5 19.1667C5 18.9457 5.0878 18.7337 5.24408 18.5774C5.40036 18.4211 5.61232 18.3333 5.83334 18.3333H47.5C47.721 18.3333 47.933 18.4211 48.0893 18.5774C48.2455 18.7337 48.3333 18.9457 48.3333 19.1667C48.3333 19.3877 48.2455 19.5996 48.0893 19.7559C47.933 19.9122 47.721 20 47.5 20Z" fill="url(#paint0_linear_2751_16313)"/>
<path d="M23.3259 6.6665C17.7959 6.714 12.925 9.4215 10.9175 13.5632C10.8211 13.7621 10.8076 13.9912 10.88 14.2C10.9524 14.4089 11.1049 14.5804 11.3038 14.6769C11.5027 14.7734 11.7318 14.7869 11.9407 14.7145C12.1495 14.642 12.3211 14.4896 12.4175 14.2907C14.1259 10.769 18.5159 8.374 23.3425 8.33317C23.5631 8.33075 23.7737 8.24097 23.9282 8.08351C24.0827 7.92605 24.1685 7.71376 24.1667 7.49317C24.1624 7.27284 24.0719 7.06296 23.9148 6.90846C23.7576 6.75396 23.5462 6.66711 23.3259 6.6665Z" fill="url(#paint1_linear_2751_16313)"/>
<defs>
<linearGradient id="paint0_linear_2751_16313" x1="-5.62864e-07" y1="-4.1089" x2="58.1346" y2="46.4011" gradientUnits="userSpaceOnUse">
<stop stop-color="#B4761A"/>
<stop offset="0.385417" stop-color="#B4761A"/>
<stop offset="0.494792" stop-color="#DDAE68"/>
<stop offset="0.598958" stop-color="#B4761A"/>
<stop offset="1" stop-color="#B4761A"/>
</linearGradient>
<linearGradient id="paint1_linear_2751_16313" x1="-5.62864e-07" y1="-4.1089" x2="58.1346" y2="46.4011" gradientUnits="userSpaceOnUse">
<stop stop-color="#B4761A"/>
<stop offset="0.385417" stop-color="#B4761A"/>
<stop offset="0.494792" stop-color="#DDAE68"/>
<stop offset="0.598958" stop-color="#B4761A"/>
<stop offset="1" stop-color="#B4761A"/>
</linearGradient>
</defs>
</svg>
