<svg width="14" height="14" viewBox="0 0 14 14" fill="none" xmlns="http://www.w3.org/2000/svg">
<path d="M12.877 9.189C12.0277 9.18988 11.1837 9.05484 10.377 8.789C10.1877 8.72772 9.98556 8.71708 9.79083 8.75813C9.59609 8.79918 9.4155 8.8905 9.267 9.023L7.7 10.214C6.00402 9.37023 4.62977 7.99598 3.786 6.3L4.939 4.77C5.08645 4.62316 5.19045 4.43842 5.23951 4.23618C5.28857 4.03394 5.28078 3.82209 5.217 3.624C4.95153 2.81725 4.8165 1.97331 4.817 1.124C4.81674 0.827186 4.6992 0.542499 4.48998 0.331965C4.28075 0.121431 3.99681 0.00211057 3.7 0H1.124C0.826151 0.000264284 0.540562 0.118633 0.329857 0.32915C0.119152 0.539668 0.000529392 0.825151 0 1.123C0.00370575 4.53706 1.36158 7.81022 3.77568 10.2243C6.18978 12.6384 9.46294 13.9963 12.877 14C13.1747 13.9995 13.46 13.881 13.6705 13.6705C13.881 13.46 13.9995 13.1747 14 12.877V10.313C13.9995 10.0152 13.881 9.7298 13.6706 9.51915C13.4601 9.3085 13.1748 9.18979 12.877 9.189Z" fill="#E97737"/>
</svg>
