<svg width="50" height="50" viewBox="0 0 50 50" fill="none" xmlns="http://www.w3.org/2000/svg">
<path d="M39.1147 18.6502V22.9157H40.2435C40.558 22.9157 40.8079 23.1656 40.8079 23.4801C40.8079 23.7945 40.558 24.0445 40.2435 24.0445H38.5502C38.2358 24.0445 37.9858 23.7945 37.9858 23.4801V18.6502C37.9858 18.3358 38.2358 18.0858 38.5502 18.0858C38.8647 18.0858 39.1147 18.3358 39.1147 18.6502ZM49.8871 24.5847L47.4198 20.5451L48.1616 15.8684C48.21 15.5701 48.081 15.2637 47.8391 15.0863L44.009 12.3045L42.9044 7.70037C42.8318 7.40203 42.606 7.17626 42.3077 7.10369L37.7036 5.99903L34.9218 2.16901C34.7444 1.92711 34.4461 1.7981 34.1397 1.84648L29.463 2.58829L25.4233 0.120948C25.1653 -0.0403161 24.8428 -0.0403161 24.5847 0.120948L20.5451 2.58829L15.8684 1.84648C15.5701 1.7981 15.2637 1.92711 15.0863 2.16901L12.3045 5.99903L7.70037 7.10369C7.40203 7.17626 7.17626 7.40203 7.10369 7.70037L5.99903 12.3045L2.16901 15.0863C1.92711 15.2637 1.7981 15.562 1.84648 15.8684L2.58829 20.5451L0.120948 24.5847C-0.0403161 24.8428 -0.0403161 25.1653 0.120948 25.4233L2.58829 29.463L1.84648 34.1397C1.7981 34.438 1.92711 34.7444 2.16901 34.9218L5.99903 37.7036L7.10369 42.3077C7.17626 42.606 7.40203 42.8318 7.70037 42.9044L12.3045 44.009L12.6754 44.517C12.9334 44.8799 13.4414 44.9605 13.8042 44.6944C14.1671 44.4364 14.2477 43.9284 13.9816 43.5656L13.4414 42.8157C13.3285 42.6625 13.1672 42.5496 12.9737 42.5012L8.56314 41.4449L7.50685 37.0343C7.45847 36.8489 7.35365 36.6796 7.20045 36.5667L3.53169 33.9058L4.24125 29.4227C4.2735 29.2292 4.23319 29.0356 4.13643 28.8744L1.76584 25.004L4.13643 21.1337C4.23319 20.9724 4.2735 20.7789 4.24125 20.5854L3.53169 16.1022L7.20045 13.4414C7.35365 13.3285 7.46654 13.1672 7.50685 12.9737L8.56314 8.56314L12.9737 7.50685C13.1592 7.45847 13.3285 7.35365 13.4414 7.20045L16.1022 3.53169L20.5854 4.24125C20.7789 4.2735 20.9724 4.23319 21.1337 4.13643L25.0121 1.75778L28.8824 4.12837C29.0437 4.22512 29.2372 4.26544 29.4307 4.23319L33.9139 3.52363L36.5747 7.19239C36.6876 7.34559 36.8489 7.45847 37.0424 7.49879L41.453 8.55507L42.5093 12.9657C42.5577 13.1511 42.6625 13.3204 42.8237 13.4333L46.4925 16.0942L45.7829 20.5773C45.7507 20.7628 45.791 20.9644 45.8878 21.1256L48.2583 24.996L45.8878 28.8663C45.791 29.0276 45.7507 29.2211 45.7829 29.4146L46.4925 33.8978L42.8237 36.5586C42.6705 36.6715 42.5577 36.8328 42.5093 37.0263L41.453 41.4369L37.0424 42.4931C36.857 42.5415 36.6876 42.6463 36.5747 42.8076L33.9139 46.4764L29.4307 45.7668C29.2372 45.7346 29.0437 45.7749 28.8824 45.8716L25.0121 48.2503L21.1418 45.8797C20.9805 45.7829 20.787 45.7426 20.5935 45.7749L16.1103 46.4844L15.9894 46.3232C15.7313 45.9603 15.2234 45.8797 14.8605 46.1458C14.4977 46.4119 14.417 46.9118 14.6831 47.2746L15.0943 47.8391C15.2717 48.081 15.5701 48.21 15.8765 48.1616L20.5531 47.4198L24.5928 49.8871C24.7218 49.9597 24.867 50 25.0121 50C25.1572 50 25.3024 49.9597 25.4314 49.879L29.4711 47.4117L34.1477 48.1535C34.4541 48.2019 34.7525 48.0729 34.9299 47.831L37.7117 44.001L42.3158 42.8963C42.6141 42.8237 42.8399 42.598 42.9124 42.2996L44.0171 37.6955L47.8471 34.9137C48.089 34.7363 48.218 34.438 48.1697 34.1316L47.4278 29.4549L49.8952 25.4153C50.0484 25.1653 50.0484 24.8428 49.8871 24.5847ZM16.3925 26.1571C18.0374 26.1571 19.3678 27.4956 19.3678 29.1324C19.3678 30.7692 18.0294 32.1158 16.3925 32.1158C14.7557 32.1158 13.4172 30.7773 13.4172 29.1324C13.4172 27.4875 14.7476 26.1571 16.3925 26.1571ZM14.546 29.1405C14.546 30.1645 15.3766 30.9869 16.3925 30.9869C17.4085 30.9869 18.239 30.1564 18.239 29.1405C18.239 28.1245 17.4085 27.294 16.3925 27.294C15.3766 27.294 14.546 28.1164 14.546 29.1405ZM31.253 27.2859C31.5675 27.2859 31.8174 27.036 31.8174 26.7215C31.8174 26.407 31.5675 26.1571 31.253 26.1571H29.2211C28.9066 26.1571 28.6567 26.407 28.6567 26.7215V31.5514C28.6567 31.8658 28.9066 32.1158 29.2211 32.1158H31.253C31.5675 32.1158 31.8174 31.8658 31.8174 31.5514C31.8174 31.2369 31.5675 30.9869 31.253 30.9869H29.7855V29.7049H31.0273C31.3417 29.7049 31.5917 29.4549 31.5917 29.1405C31.5917 28.826 31.3417 28.576 31.0273 28.576H29.7855V27.294H31.253V27.2859ZM44.2832 24.109C44.3074 24.109 44.3316 24.109 44.3558 24.109C44.7992 24.0687 45.1298 23.6817 45.0895 23.2382C44.1945 12.9253 35.3733 4.84599 25.0121 4.84599C20.029 4.84599 15.2475 6.67634 11.5465 10.0065C11.2159 10.3048 11.1917 10.8128 11.482 11.1434C11.7804 11.474 12.2883 11.4981 12.6189 11.2079C16.0297 8.14385 20.4322 6.45864 25.0121 6.45864C34.5428 6.45864 42.6544 13.8849 43.4849 23.3672C43.5172 23.7865 43.872 24.109 44.2832 24.109ZM35.2201 29.7371L36.486 31.1805C36.6876 31.4143 36.6715 31.7691 36.4377 31.9787C36.3328 32.0755 36.1958 32.1158 36.0668 32.1158C35.9136 32.1158 35.7523 32.0513 35.6394 31.9223L34.0187 30.0758V31.5514C34.0187 31.8658 33.7687 32.1158 33.4543 32.1158C33.1398 32.1158 32.8899 31.8658 32.8899 31.5514V29.2372V26.7215C32.8899 26.407 33.1398 26.1571 33.4543 26.1571H34.7363C35.7765 26.1571 36.6231 26.9715 36.6231 27.9794C36.6312 28.826 36.0264 29.5275 35.2201 29.7371ZM35.5023 27.9794C35.5023 27.6084 35.1556 27.2859 34.7444 27.2859H34.0268V28.6728H34.7444C35.1556 28.6728 35.5023 28.3583 35.5023 27.9794ZM36.6554 24.0123C36.5909 24.0364 36.5183 24.0526 36.4538 24.0526C36.228 24.0526 36.0103 23.9155 35.9216 23.6897L35.6072 22.8512H33.4301L33.1076 23.6897C32.9947 23.98 32.6721 24.1251 32.3819 24.0203C32.0916 23.9074 31.9465 23.5849 32.0513 23.2946L33.8574 18.5615C33.9623 18.2874 34.2284 18.1019 34.5267 18.1019C34.825 18.1019 35.0911 18.2874 35.1959 18.5615L36.986 23.2946C37.0908 23.5768 36.9457 23.8994 36.6554 24.0123ZM35.1879 21.7142L34.5348 19.9726L33.8736 21.7142H35.1879ZM9.12756 12.6028C6.33769 16.1748 4.85406 20.4564 4.85406 25.004C4.85406 36.1151 13.8929 45.1621 25.0121 45.1621C35.3733 45.1621 44.1945 37.0908 45.0895 26.7779C45.1298 26.3345 44.7992 25.9394 44.3558 25.9071C43.9203 25.8668 43.5172 26.1974 43.4849 26.6409C42.6544 36.1151 34.5428 43.5494 25.0121 43.5494C14.7879 43.5494 6.4667 35.2282 6.4667 25.004C6.4667 20.8273 7.82132 16.8763 10.3935 13.5946C10.6676 13.2398 10.6031 12.7399 10.2564 12.4657C9.90969 12.1916 9.40171 12.248 9.12756 12.6028ZM23.0044 27.2859C23.3188 27.2859 23.5688 27.036 23.5688 26.7215C23.5688 26.407 23.3188 26.1571 23.0044 26.1571H21.045C20.7305 26.1571 20.4806 26.407 20.4806 26.7215V31.5514C20.4806 31.8658 20.7305 32.1158 21.045 32.1158C21.3595 32.1158 21.6094 31.8658 21.6094 31.5514V29.6565H22.8431C23.1576 29.6565 23.4075 29.4065 23.4075 29.0921C23.4075 28.7776 23.1576 28.5277 22.8431 28.5277H21.6094V27.2859H23.0044ZM15.312 24.0445C14.9976 24.0445 14.7476 23.7945 14.7476 23.4801V21.3836V18.6502C14.7476 18.3358 14.9976 18.0858 15.312 18.0858H16.6505C17.731 18.0858 18.6018 18.9486 18.6018 20.0129C18.6018 21.0772 17.7229 21.9481 16.6505 21.9481H15.8765V23.4801C15.8765 23.7945 15.6265 24.0445 15.312 24.0445ZM15.8765 20.8192H16.6505C17.094 20.8192 17.473 20.4483 17.473 20.021C17.473 19.5856 17.094 19.2227 16.6505 19.2227H15.8765V20.8192ZM18.6422 37.3085C18.6422 37.0827 18.8195 36.9053 19.0453 36.9053H23.4559C23.6333 36.2119 24.2622 35.6959 25.0121 35.6959C25.762 35.6959 26.3909 36.2119 26.5683 36.9053H30.9789C31.2046 36.9053 31.382 37.0827 31.382 37.3085C31.382 37.5343 31.2046 37.7117 30.9789 37.7117H26.5683C26.3909 38.4051 25.762 38.9211 25.0121 38.9211C24.2622 38.9211 23.6333 38.4051 23.4559 37.7117H19.0453C18.8195 37.7117 18.6422 37.5343 18.6422 37.3085ZM24.2058 37.3085C24.2058 37.752 24.5686 38.1148 25.0121 38.1148C25.4556 38.1148 25.8184 37.752 25.8184 37.3085C25.8184 36.865 25.4556 36.5022 25.0121 36.5022C24.5686 36.5022 24.2058 36.865 24.2058 37.3085ZM9.70005 19.5372C9.61942 20.1338 9.87744 20.6983 10.3693 21.0127C10.7321 21.2466 11.095 21.3675 11.8207 21.6175L11.9013 21.6417C12.1029 21.7142 12.5786 21.9158 12.506 22.319C12.4577 22.6093 12.1432 22.9157 11.6594 22.9157C11.1676 22.9157 10.6999 22.7141 10.3935 22.3835C10.1838 22.1497 9.82906 22.1335 9.59523 22.3432C9.36139 22.5528 9.34527 22.9076 9.55491 23.1414C10.0629 23.7059 10.8531 24.0445 11.6594 24.0445C12.6431 24.0445 13.4736 23.3914 13.6188 22.5044C13.7236 21.8594 13.4333 20.9724 12.2642 20.5693L12.1835 20.5451C11.5304 20.3193 11.2321 20.2225 10.974 20.0613C10.7966 19.9484 10.8047 19.7549 10.8128 19.6984C10.8289 19.6017 10.8934 19.3759 11.224 19.2711C11.9336 19.0534 12.5786 19.5775 12.5867 19.5856C12.8286 19.7871 13.1834 19.7549 13.3769 19.513C13.5785 19.2711 13.5462 18.9163 13.3043 18.7147C13.264 18.6744 12.1916 17.7955 10.8934 18.1826C10.2483 18.3841 9.78068 18.9002 9.70005 19.5372ZM22.2545 19.2146C22.5689 19.2146 22.8189 18.9647 22.8189 18.6502C22.8189 18.3358 22.5689 18.0858 22.2545 18.0858H20.2225C19.9081 18.0858 19.6581 18.3358 19.6581 18.6502V23.4801C19.6581 23.7945 19.9081 24.0445 20.2225 24.0445H22.2545C22.5689 24.0445 22.8189 23.7945 22.8189 23.4801C22.8189 23.1656 22.5689 22.9157 22.2545 22.9157H20.787V21.6336H22.0287C22.3432 21.6336 22.5931 21.3836 22.5931 21.0692C22.5931 20.7547 22.3432 20.5048 22.0287 20.5048H20.787V19.2227H22.2545V19.2146ZM29.8097 18.6502V23.4801C29.8097 23.7945 30.0597 24.0445 30.3741 24.0445C30.6886 24.0445 30.9386 23.7945 30.9386 23.4801V18.6502C30.9386 18.3358 30.6886 18.0858 30.3741 18.0858C30.0597 18.0858 29.8097 18.3358 29.8097 18.6502ZM30.9789 13.1027H26.5683C26.3909 13.7962 25.762 14.3122 25.0121 14.3122C24.2622 14.3122 23.6333 13.7962 23.4559 13.1027H19.0453C18.8195 13.1027 18.6422 12.9253 18.6422 12.6996C18.6422 12.4738 18.8195 12.2964 19.0453 12.2964H23.4559C23.6333 11.603 24.2622 11.0869 25.0121 11.0869C25.762 11.0869 26.3909 11.603 26.5683 12.2964H30.9789C31.2046 12.2964 31.382 12.4738 31.382 12.6996C31.382 12.9253 31.2046 13.1027 30.9789 13.1027ZM25.8184 12.6996C25.8184 12.2561 25.4556 11.8932 25.0121 11.8932C24.5686 11.8932 24.2058 12.2561 24.2058 12.6996C24.2058 13.143 24.5686 13.5059 25.0121 13.5059C25.4556 13.5059 25.8184 13.143 25.8184 12.6996ZM28.5518 23.1576C28.7534 22.9157 28.7212 22.5609 28.4793 22.3593C28.2454 22.1577 27.8826 22.19 27.681 22.4319C27.6407 22.4802 27.5923 22.5286 27.5439 22.577C27.294 22.8028 26.9715 22.9157 26.5925 22.9157C25.5685 22.9157 24.746 22.0851 24.746 21.0692C24.746 20.0532 25.5765 19.2227 26.5925 19.2227C26.9634 19.2227 27.3182 19.3356 27.6246 19.5372C27.8826 19.7146 28.2374 19.642 28.4067 19.384C28.5841 19.1259 28.5115 18.7712 28.2535 18.6018C27.7617 18.2712 27.1811 18.0939 26.5844 18.0939C24.9395 18.0939 23.601 19.4324 23.601 21.0692C23.601 22.706 24.9395 24.0445 26.5844 24.0445C27.2375 24.0445 27.8262 23.8268 28.2858 23.4236C28.3906 23.343 28.4712 23.2543 28.5518 23.1576ZM27.1327 27.2859C27.4472 27.2859 27.6971 27.036 27.6971 26.7215C27.6971 26.407 27.4472 26.1571 27.1327 26.1571H25.1734C24.8589 26.1571 24.6089 26.407 24.6089 26.7215V31.5514C24.6089 31.8658 24.8589 32.1158 25.1734 32.1158C25.4878 32.1158 25.7378 31.8658 25.7378 31.5514V29.6565H26.9715C27.2859 29.6565 27.5359 29.4065 27.5359 29.0921C27.5359 28.7776 27.2859 28.5277 26.9715 28.5277H25.7378V27.2859H27.1327Z" fill="url(#paint0_linear_2751_16293)"/>
<defs>
<linearGradient id="paint0_linear_2751_16293" x1="-5.62966e-07" y1="-4.1089" x2="58.1361" y2="46.4116" gradientUnits="userSpaceOnUse">
<stop stop-color="#B4761A"/>
<stop offset="0.385417" stop-color="#B4761A"/>
<stop offset="0.494792" stop-color="#DDAE68"/>
<stop offset="0.598958" stop-color="#B4761A"/>
<stop offset="1" stop-color="#B4761A"/>
</linearGradient>
</defs>
</svg>
