<svg width="80" height="80" viewBox="0 0 80 80" fill="none" xmlns="http://www.w3.org/2000/svg">
<rect width="80" height="80" rx="40" fill="#FFF0E8"/>
<path d="M56.8054 20H23.1137C21.3573 20 20 21.3573 20 23.1137V32.6943C20 34.4507 21.3573 35.808 23.1137 35.808H25.5088L28.4629 39.7999L31.4169 35.808H56.8054C58.5619 35.808 59.9191 34.4507 59.9191 32.6943V23.1137C59.9191 21.4371 58.5619 20 56.8054 20Z" fill="#FFC32E"/>
<path d="M56.8046 20H53.5312C55.2877 20 56.6449 21.3573 56.6449 23.1137V32.6943C56.6449 34.4507 55.2877 35.808 53.5312 35.808H56.8046C58.5611 35.808 59.9183 34.4507 59.9183 32.6943V23.1137C59.9183 21.4371 58.5611 20 56.8046 20Z" fill="#E5A82E"/>
<path d="M28.6224 24.0709L29.7401 26.3064C29.7401 26.3862 29.82 26.3862 29.8998 26.4661L32.3748 26.8653C32.5345 26.8653 32.6143 27.1048 32.5345 27.2645L30.6982 29.0209C30.6183 29.1007 30.6183 29.1806 30.6183 29.1806L31.0175 31.6556C31.0175 31.8152 30.8578 31.9749 30.6982 31.8951L28.4627 30.6975C28.3829 30.6975 28.303 30.6975 28.2232 30.6975L25.9877 31.8951C25.828 31.9749 25.6684 31.8152 25.6684 31.6556L26.0676 29.1806C26.0676 29.1007 26.0676 29.0209 25.9877 29.0209L24.1514 27.2645C23.9918 27.1048 24.0716 26.9451 24.3111 26.8653L26.7861 26.4661C26.8659 26.4661 26.9458 26.3862 26.9458 26.3064L28.0635 24.0709C28.303 23.9113 28.5425 23.9113 28.6224 24.0709Z" fill="white"/>
<path d="M40.1985 24.0709L41.3163 26.3064C41.3163 26.3862 41.3961 26.3862 41.476 26.4661L43.9509 26.8653C44.1106 26.8653 44.1905 27.1048 44.1106 27.2645L42.2743 29.0209C42.1945 29.1007 42.1945 29.1806 42.1945 29.1806L42.5937 31.6556C42.5937 31.8152 42.434 31.9749 42.2743 31.8951L40.0389 30.6975C39.959 30.6975 39.8792 30.6975 39.7994 30.6975L37.5639 31.8951C37.4042 31.9749 37.2445 31.8152 37.2445 31.6556L37.6437 29.1806C37.6437 29.1007 37.6437 29.0209 37.5639 29.0209L35.7276 27.2645C35.5679 27.1048 35.6478 26.9451 35.8873 26.8653L38.3623 26.4661C38.4421 26.4661 38.5219 26.3862 38.5219 26.3064L39.6397 24.0709C39.8792 23.9113 40.1187 23.9113 40.1985 24.0709Z" fill="white"/>
<path d="M51.6968 24.0709L52.8146 26.3064C52.8146 26.3862 52.8944 26.3862 52.9742 26.4661L55.4492 26.8653C55.6089 26.8653 55.6887 27.1048 55.6089 27.2645L53.7726 29.0209C53.6928 29.1007 53.6928 29.1806 53.6928 29.1806L54.092 31.6556C54.092 31.8152 53.9323 31.9749 53.7726 31.8951L51.5372 30.6975C51.4573 30.6975 51.3775 30.6975 51.2976 30.6975L49.142 31.8951C48.9823 31.9749 48.8227 31.8152 48.8227 31.6556L49.2218 29.1806C49.2218 29.1007 49.2218 29.0209 49.142 29.0209L47.3057 27.2645C47.1461 27.1048 47.2259 26.9451 47.4654 26.8653L49.9404 26.4661C50.0202 26.4661 50.1001 26.3862 50.1001 26.3064L51.2178 24.0709C51.3775 23.9113 51.617 23.9113 51.6968 24.0709Z" fill="white"/>
<path d="M28.4629 59.998C33.1368 59.998 36.9257 56.209 36.9257 51.5351C36.9257 46.8612 33.1368 43.0723 28.4629 43.0723C23.789 43.0723 20 46.8612 20 51.5351C20 56.209 23.789 59.998 28.4629 59.998Z" fill="#B0D0FF"/>
<path d="M28.4616 52.7357C30.1371 52.7357 31.4954 51.3774 31.4954 49.7018C31.4954 48.0263 30.1371 46.668 28.4616 46.668C26.786 46.668 25.4277 48.0263 25.4277 49.7018C25.4277 51.3774 26.786 52.7357 28.4616 52.7357Z" fill="#4B5AAF"/>
<path d="M28.462 52.7344C25.5878 52.7344 23.2725 54.89 22.9531 57.6045V57.9239C24.4701 59.2013 26.3862 59.9997 28.462 59.9997C30.5378 59.9997 32.5337 59.2013 33.9708 57.9239V57.844C33.7313 54.9698 31.3361 52.7344 28.462 52.7344Z" fill="#4B5AAF"/>
<path d="M58.4011 46.9071H41.8746C39.9585 46.9071 39.9585 43.9531 41.8746 43.9531H58.4011C60.3172 43.9531 60.3971 46.9071 58.4011 46.9071Z" fill="#4B5AAF"/>
<path d="M58.4812 52.9735H41.9547C40.0385 52.9735 40.0385 50.0195 41.9547 50.0195H58.4812C60.3973 50.0195 60.3973 52.9735 58.4812 52.9735Z" fill="#4B5AAF"/>
<path d="M58.4812 59.122H41.9547C40.0385 59.122 40.0385 56.168 41.9547 56.168H58.4812C60.4771 56.168 60.4771 59.122 58.4812 59.122Z" fill="#4B5AAF"/>
</svg>
