<svg width="50" height="50" viewBox="0 0 50 50" fill="none" xmlns="http://www.w3.org/2000/svg">
<path d="M23.9171 24.2525C23.9171 19.0658 20.5899 14.6486 15.9661 13.0029C17.8897 9.88943 21.2454 7.98718 24.943 7.98718C26.0402 7.98718 27.116 8.15817 28.149 8.48589L27.8498 8.79225C27.4437 9.19835 27.3155 9.78256 27.515 10.324C27.7145 10.8655 28.1918 11.2217 28.7618 11.2716L34.2049 11.6919C34.6324 11.7276 35.0456 11.5708 35.3448 11.2716C35.6441 10.9724 35.8008 10.5591 35.7652 10.1317L35.3448 4.68852C35.3021 4.11855 34.9387 3.63408 34.3973 3.44172C33.8558 3.24223 33.2716 3.37048 32.8655 3.77657L31.9536 4.68852C29.6096 3.56284 26.2824 3 24.9359 3C19.8062 3 12.8384 6.833 10.7794 12.3616C4.73782 12.9459 0 18.0541 0 24.2525C0 30.8498 5.36478 36.2075 11.955 36.2075C18.5523 36.2146 23.9171 30.8498 23.9171 24.2525ZM24.943 4.57452C26.1756 4.57452 29.6879 5.19436 31.7256 6.33428C32.0319 6.50527 32.4238 6.4554 32.6731 6.19892L33.7846 5.08749L34.1693 10.0747L29.1821 9.68994L30.1368 8.73525C30.322 8.55001 30.4004 8.28641 30.3577 8.02992C30.3078 7.77344 30.1439 7.55258 29.9017 7.44571C28.3343 6.74038 26.6671 6.38416 24.943 6.38416C20.54 6.38416 16.5574 8.72813 14.3916 12.5326C13.7789 12.4044 13.1448 12.3403 12.5036 12.3118C14.5911 7.71644 20.5258 4.57452 24.943 4.57452ZM11.9621 34.6258C6.2411 34.6258 1.58877 29.9735 1.58877 24.2525C1.58877 18.5315 6.2411 13.8792 11.9621 13.8792C17.6831 13.8792 22.3354 18.5315 22.3354 24.2525C22.3354 29.9735 17.676 34.6258 11.9621 34.6258ZM50 24.2525C50 17.6623 44.6352 12.2975 38.045 12.2975C31.4548 12.2975 26.0829 17.6623 26.0829 24.2525C26.0829 29.4392 29.403 33.8493 34.0268 35.5021C32.1103 38.6654 28.7261 40.5962 24.9929 40.5962C23.8957 40.5962 22.8199 40.4252 21.7868 40.0975L22.0932 39.7911C22.4993 39.385 22.6275 38.8008 22.428 38.2593C22.2286 37.7179 21.7512 37.3616 21.1813 37.3118L15.7381 36.8986C15.3178 36.8629 14.8974 37.0197 14.5982 37.3189C14.2989 37.6181 14.1422 38.0313 14.1778 38.4588L14.5982 43.902C14.6409 44.4719 15.0043 44.9493 15.5457 45.1488C16.0872 45.3483 16.6714 45.22 17.0775 44.8139L17.9895 43.902C20.3334 45.0205 23.6606 45.5905 25.0071 45.5905C30.1582 45.5905 37.1687 41.7219 39.1992 36.1505C45.2479 35.5734 50 30.458 50 24.2525ZM25 44.0088C23.7675 44.0088 20.2551 43.3819 18.2174 42.2491C17.904 42.071 17.5192 42.128 17.2699 42.3773L16.1585 43.4888L15.7737 38.5016L20.7609 38.8863L19.8062 39.841C19.621 40.0262 19.5426 40.2898 19.5854 40.5463C19.6352 40.8028 19.8062 41.0237 20.0413 41.1305C21.6087 41.8359 23.2759 42.1921 25 42.1921C29.4315 42.1921 33.4426 39.8196 35.6013 35.9652C36.2069 36.0935 36.8339 36.1576 37.4751 36.1861C35.4232 40.8313 29.4457 44.0088 25 44.0088ZM38.0379 34.6258C32.3169 34.6258 27.6646 29.9735 27.6646 24.2525C27.6646 18.5315 32.3169 13.8792 38.0379 13.8792C43.7589 13.8792 48.4112 18.5315 48.4112 24.2525C48.4112 29.9735 43.7589 34.6258 38.0379 34.6258ZM36.3351 29.0829C36.0787 29.0829 35.8222 29.0046 35.6013 28.8407C35.2095 28.5557 35.0242 28.0855 35.1026 27.6153L35.4517 25.5634L33.9627 24.11C33.6207 23.7752 33.4996 23.2836 33.6492 22.8276C33.7988 22.3716 34.1835 22.0439 34.6609 21.9726L36.7199 21.6734L37.6389 19.8068C37.8527 19.3793 38.2801 19.1086 38.7646 19.1086C39.242 19.1086 39.6766 19.3793 39.8903 19.8068L40.8094 21.6734L42.8683 21.9726C43.3457 22.0439 43.7304 22.3716 43.88 22.8276C44.0296 23.2836 43.9085 23.7752 43.5666 24.11L42.0775 25.5634L42.4266 27.6153C42.505 28.0926 42.3198 28.5557 41.9279 28.8407C41.5432 29.1257 41.0302 29.1613 40.6099 28.9333L38.7646 27.9644L36.9194 28.9333C36.7341 29.0331 36.5346 29.0829 36.3351 29.0829ZM35.4802 23.4261L36.6486 24.566C36.9407 24.851 37.0761 25.2642 37.012 25.6774L36.7341 27.2875L38.1804 26.5323C38.5438 26.34 38.9783 26.34 39.3488 26.5323L40.7951 27.2947L40.5172 25.6845C40.446 25.2784 40.5814 24.8581 40.8806 24.5731L42.049 23.4332L40.4318 23.1981C40.0185 23.1411 39.6694 22.8846 39.4842 22.507L38.7646 21.0465L38.045 22.507C37.8669 22.8775 37.5107 23.1339 37.0975 23.1909L35.4802 23.4261ZM13.9926 29.7241H11.9763L11.9479 29.6956L8.44258 26.1904V24.5589H10.7153C11.0858 24.5589 11.4349 24.4449 11.7412 24.2311C12.0048 24.0388 12.2115 23.7894 12.3397 23.4902H8.44258V22.0653H12.3397C12.0547 21.4241 11.4206 20.9966 10.7153 20.9966H8.44258V19.5717H15.4745V20.9966H13.3656C13.5865 21.3172 13.7504 21.6877 13.8359 22.0653H15.4745V23.4902H13.8359C13.6791 24.1813 13.2873 24.8082 12.7387 25.2571C12.1687 25.7201 11.4491 25.9766 10.7153 25.9838H10.2522L13.9926 29.7241Z" fill="url(#paint0_linear_2751_3023)"/>
<defs>
<linearGradient id="paint0_linear_2751_3023" x1="-5.62864e-07" y1="-0.5" x2="50" y2="50.5" gradientUnits="userSpaceOnUse">
<stop stop-color="#B4761A"/>
<stop offset="0.385417" stop-color="#B4761A"/>
<stop offset="0.494792" stop-color="#DDAE68"/>
<stop offset="0.598958" stop-color="#B4761A"/>
<stop offset="1" stop-color="#B4761A"/>
</linearGradient>
</defs>
</svg>
