<svg width="50" height="50" viewBox="0 0 50 50" fill="none" xmlns="http://www.w3.org/2000/svg">
<g filter="url(#filter0_d_2751_33981)">
<circle cx="25" cy="21" r="20" fill="white"/>
<circle cx="25" cy="21" r="20.5" stroke="#FFF1EB"/>
</g>
<path d="M33.5687 28.3926H17.1758C16.6944 28.3926 16.3066 28.7803 16.3066 29.2617V30.1308C16.3066 30.6122 16.6944 30.9999 17.1758 30.9999H33.5687C34.0501 30.9999 34.4378 30.6122 34.4378 30.1308V29.2617C34.4245 28.7803 34.0367 28.3926 33.5687 28.3926Z" fill="#E0E0E0"/>
<path d="M33.5687 30.1191H17.1758C16.9485 30.1191 16.7345 30.0255 16.5607 29.8651C16.4002 29.7046 16.3066 29.4907 16.3066 29.25V30.1191C16.3066 30.3464 16.4002 30.5604 16.5607 30.7342C16.7211 30.8946 16.9351 30.9882 17.1758 30.9882H33.5687C33.796 30.9882 34.01 30.8946 34.1838 30.7342C34.3442 30.5737 34.4378 30.3598 34.4378 30.1191V29.25C34.4378 29.4773 34.3442 29.6912 34.1838 29.8651C34.01 30.0255 33.796 30.1191 33.5687 30.1191Z" fill="#AAAAAA"/>
<path d="M14.6747 16.8939C14.3538 17.1078 13.966 17.2014 13.5783 17.1747C13.2039 17.148 12.8429 16.9875 12.5621 16.7201C12.2813 16.466 12.0941 16.1184 12.0272 15.744C11.9604 15.3696 12.0272 14.9818 12.2144 14.6342C12.3883 14.2999 12.6824 14.0325 13.0301 13.872C13.3777 13.7116 13.7788 13.6848 14.1532 13.7784C14.5276 13.872 14.8619 14.086 15.0892 14.3935C15.3165 14.7011 15.4502 15.0754 15.4502 15.4498C15.4502 15.7306 15.3834 16.0248 15.2363 16.2655C15.1026 16.5329 14.9154 16.7468 14.6747 16.8939Z" fill="#D3D3D3"/>
<path d="M26.2549 15.2091C25.9875 15.3695 25.6934 15.4497 25.3858 15.4497C25.0783 15.4497 24.7708 15.3695 24.5167 15.2091C24.1691 15.0219 23.915 14.7277 23.7679 14.3801C23.6342 14.019 23.6075 13.6313 23.7144 13.2703C23.808 12.9092 24.0353 12.5883 24.3295 12.3476C24.6237 12.1203 24.9981 12 25.3725 12C25.7468 12 26.1212 12.1203 26.4154 12.3476C26.7229 12.575 26.9369 12.8959 27.0305 13.2703C27.1241 13.6313 27.1107 14.019 26.9636 14.3801C26.8299 14.7277 26.5759 15.0219 26.2549 15.2091Z" fill="#D3D3D3"/>
<path d="M37.0185 17.174C36.6709 17.174 36.35 17.067 36.0558 16.8798C35.775 16.6926 35.5477 16.4252 35.414 16.1043C35.2803 15.7834 35.2535 15.4357 35.3204 15.1014C35.3872 14.7672 35.5477 14.4596 35.7884 14.2189C36.0291 13.9783 36.3366 13.8178 36.6709 13.751C37.0051 13.6841 37.3528 13.7242 37.6737 13.8446C37.9946 13.9783 38.262 14.1922 38.4492 14.4864C38.6364 14.7805 38.7434 15.1148 38.7434 15.4491C38.7434 15.9037 38.5562 16.3449 38.2353 16.6659C37.9144 17.0001 37.4731 17.174 37.0185 17.174Z" fill="#D3D3D3"/>
<path d="M32.2724 17.5367C32.1387 17.5902 31.9916 17.6169 31.8445 17.6169C31.6573 17.6169 31.4702 17.5768 31.2963 17.4966C31.0289 17.3762 30.8016 17.1489 30.6679 16.8815C30.5342 16.6141 30.5074 16.2932 30.5743 16.0124C30.6411 15.7182 30.815 15.4642 31.0557 15.277C31.2963 15.0898 31.5905 15.0095 31.898 15.0229C32.1922 15.0363 32.4864 15.1566 32.7137 15.3572C32.941 15.5578 33.0881 15.8252 33.1282 16.1327C33.1683 16.4269 33.1148 16.7344 32.9543 16.9885C32.7939 17.2425 32.5532 17.4297 32.2724 17.5367Z" fill="#898989"/>
<path d="M19.4484 17.4964C19.2746 17.5766 19.0874 17.6167 18.9002 17.6167C18.7531 17.6167 18.606 17.59 18.4723 17.5365C18.1915 17.4295 17.9509 17.2423 17.8038 16.9883C17.6433 16.7209 17.5898 16.4267 17.63 16.1192C17.6701 15.825 17.8171 15.5576 18.0445 15.357C18.2718 15.1565 18.5526 15.0361 18.8467 15.0227C19.1409 15.0094 19.435 15.103 19.6757 15.2768C19.9164 15.464 20.0902 15.718 20.1571 16.0122C20.2239 16.3064 20.1972 16.6139 20.0635 16.8813C19.9298 17.1487 19.7158 17.3627 19.4484 17.4964Z" fill="#898989"/>
<path d="M22.6712 22.6955C22.1497 23.5245 21.4812 24.0727 20.6254 24.0727C20.0103 24.0727 19.2348 23.471 18.4727 22.6019V17.5343C18.6064 17.5877 18.7534 17.6145 18.9005 17.6145C19.0877 17.6145 19.2749 17.5744 19.4487 17.4941C19.7964 18.4301 20.9463 21.238 22.6712 22.6955Z" fill="#AFAFAF"/>
<path d="M32.2708 17.5359V22.6035C31.4953 23.4727 30.7331 24.0744 30.118 24.0744C29.2623 24.0744 28.5937 23.5128 28.0723 22.6838C29.7971 21.2263 30.947 18.4184 31.2947 17.4824C31.4685 17.5626 31.6557 17.6028 31.8429 17.6028C31.99 17.6161 32.1371 17.5894 32.2708 17.5359Z" fill="#AFAFAF"/>
<path d="M26.2686 27.0023C26.3489 27.0558 26.4291 27.0959 26.5227 27.0959C26.6163 27.0959 26.7099 27.0825 26.7901 27.029C26.8703 26.9755 26.9372 26.9087 26.9773 26.8151C27.0174 26.7349 27.0308 26.6279 27.0041 26.5477L26.7767 25.4379L27.3784 24.8362C27.4453 24.7693 27.4854 24.6891 27.4988 24.6089C27.5121 24.5286 27.5122 24.435 27.472 24.3548C27.4453 24.2746 27.3784 24.2077 27.3116 24.1542C27.2447 24.1008 27.1511 24.074 27.0709 24.074H26.2285L25.7873 23.0444C25.7472 22.9642 25.6937 22.8974 25.6135 22.8572C25.5466 22.8038 25.453 22.7904 25.3728 22.7904C25.2926 22.7904 25.199 22.8171 25.1321 22.8572C25.0519 22.8974 24.9984 22.9642 24.9583 23.0444L24.517 24.074H23.6747C23.5811 24.074 23.5008 24.1008 23.434 24.1542C23.3671 24.2077 23.3003 24.2746 23.2735 24.3548C23.2334 24.435 23.22 24.5286 23.2334 24.6089C23.2601 24.7025 23.3003 24.7827 23.3671 24.8362L23.9688 25.4379L23.7415 26.5477C23.7281 26.6413 23.7415 26.7349 23.7682 26.8151C23.8084 26.8953 23.8752 26.9755 23.9554 27.029C24.0357 27.0825 24.1293 27.1093 24.2229 27.0959C24.3165 27.0959 24.4101 27.0558 24.4769 27.0023L25.3728 26.3471L26.2686 27.0023ZM32.2723 22.6032C33.957 20.7179 35.6819 17.6158 36.0696 16.8937C36.3504 17.0809 36.6847 17.1745 37.019 17.1745L33.5693 26.668V28.3929H17.1763V26.668L13.7266 17.1745C14.0608 17.1745 14.3951 17.0809 14.6759 16.8937C15.0637 17.6158 16.7885 20.7179 18.4733 22.6032C19.2488 23.4723 20.011 24.074 20.626 24.074C21.4818 24.074 22.1503 23.5124 22.6718 22.6834C24.0892 20.4505 24.4368 16.1583 24.4903 15.209C24.7577 15.3694 25.0652 15.4497 25.3728 15.4497C25.6803 15.4497 25.9878 15.3694 26.2419 15.209C26.3088 16.1583 26.6564 20.4504 28.0737 22.6968C28.5952 23.5258 29.2638 24.0874 30.1195 24.0874C30.7346 24.074 31.4967 23.4723 32.2723 22.6032Z" fill="#E0E0E0"/>
<path d="M25.7875 23.0451L26.2288 24.0746H27.0711C27.1647 24.0746 27.245 24.1014 27.3118 24.1549C27.3787 24.2083 27.4455 24.2752 27.4723 24.3554C27.499 24.4357 27.5124 24.5293 27.499 24.6095C27.4856 24.7031 27.4455 24.7833 27.3787 24.8368L26.777 25.4385L27.0043 26.5483C27.0176 26.6419 27.0176 26.7355 26.9775 26.8157C26.9374 26.8959 26.8706 26.9762 26.7903 27.0296C26.7101 27.0831 26.6165 27.1099 26.5229 27.0965C26.4293 27.0965 26.3357 27.0564 26.2689 27.0029L25.373 26.3477L24.4771 27.0029C24.3969 27.0564 24.3167 27.0965 24.2231 27.0965C24.1295 27.0965 24.0359 27.0831 23.9557 27.0296C23.8754 26.9762 23.8086 26.9093 23.7685 26.8157C23.7284 26.7355 23.715 26.6285 23.7417 26.5483L23.969 25.4385L23.3673 24.8368C23.3005 24.7833 23.2604 24.7031 23.247 24.6095C23.2203 24.5293 23.2336 24.4357 23.2604 24.3554C23.2871 24.2752 23.354 24.2083 23.4208 24.1549C23.501 24.1014 23.5813 24.0746 23.6749 24.0746H24.5173L24.9585 23.0451C24.9986 22.9648 25.0521 22.898 25.1323 22.8579C25.1992 22.8044 25.2794 22.791 25.373 22.791C25.4666 22.791 25.5468 22.8178 25.6137 22.8579C25.6939 22.898 25.7474 22.9648 25.7875 23.0451Z" fill="#D1013E"/>
<path d="M26.255 14.3535C25.9875 14.5139 25.6934 14.5942 25.3858 14.5942C25.0783 14.5942 24.7708 14.5139 24.5167 14.3535C24.1022 14.1128 23.8214 13.7384 23.7011 13.3105C23.6075 13.6716 23.6342 14.046 23.7813 14.3936C23.915 14.7413 24.1691 15.022 24.5033 15.2092C24.7574 15.3697 25.0649 15.4499 25.3725 15.4499C25.68 15.4499 25.9875 15.3697 26.2416 15.2092C26.5625 15.022 26.8165 14.7413 26.9636 14.3936C27.1107 14.046 27.1375 13.6716 27.0305 13.3105C26.9235 13.7384 26.6427 14.1128 26.255 14.3535Z" fill="#AFAFAF"/>
<path d="M37.9009 16.0781C37.6335 16.2386 37.3393 16.3188 37.0318 16.3188C36.7243 16.3188 36.4167 16.2386 36.1627 16.0781C35.7749 15.8508 35.4807 15.4764 35.3738 15.0352C35.2802 15.3962 35.3069 15.7839 35.4406 16.1182C35.5877 16.4659 35.8418 16.7467 36.1627 16.9339C36.4301 17.0943 36.7243 17.1745 37.0318 17.1745C37.3393 17.1745 37.6469 17.0943 37.9009 16.9339C38.2218 16.7467 38.4759 16.4659 38.6229 16.1182C38.77 15.7706 38.7968 15.3962 38.6898 15.0352C38.5695 15.4764 38.2887 15.8508 37.9009 16.0781Z" fill="#AFAFAF"/>
<path d="M14.6085 16.0781C14.3411 16.2386 14.0469 16.3188 13.7394 16.3188C13.4318 16.3188 13.1243 16.2386 12.8702 16.0781C12.4557 15.8508 12.1749 15.4764 12.0546 15.0352C11.961 15.3962 11.9877 15.7706 12.1348 16.1182C12.2819 16.4659 12.536 16.7467 12.8569 16.9339C13.1243 17.0943 13.4184 17.1745 13.726 17.1745C14.0335 17.1745 14.3411 17.0943 14.5951 16.9339C14.916 16.7467 15.1701 16.4659 15.3171 16.1182C15.4642 15.7706 15.491 15.3962 15.384 15.0352C15.277 15.4764 14.9962 15.8508 14.6085 16.0781Z" fill="#AFAFAF"/>
<path d="M19.4487 16.626C19.2749 16.7063 19.0877 16.7464 18.9005 16.7464C18.7534 16.7464 18.6063 16.7196 18.4726 16.6661C18.2854 16.6127 18.125 16.5057 17.9913 16.372C17.8576 16.2383 17.7506 16.0778 17.6837 15.8906C17.6303 16.0243 17.6035 16.1714 17.6035 16.3185C17.6035 16.5859 17.6837 16.8533 17.8442 17.0673C18.0046 17.2812 18.2186 17.455 18.4726 17.5353C18.6063 17.5888 18.7534 17.6155 18.9005 17.6155C19.0877 17.6155 19.2749 17.5754 19.4487 17.4952C19.7429 17.3614 19.9702 17.1208 20.1039 16.8266C20.2242 16.5324 20.2376 16.1982 20.1307 15.8906C20.0772 16.0511 19.9836 16.1982 19.8632 16.3319C19.7429 16.4522 19.5958 16.5592 19.4487 16.626Z" fill="#A5A5A5"/>
<path d="M32.3921 16.626C32.2183 16.7063 32.0311 16.7464 31.8439 16.7464C31.6968 16.7464 31.5497 16.7196 31.416 16.6661C31.2288 16.5993 31.0683 16.5057 30.9346 16.372C30.8009 16.2383 30.694 16.0778 30.6271 15.8906C30.5736 16.0243 30.5469 16.1714 30.5469 16.3185C30.5469 16.5859 30.6271 16.8533 30.7876 17.0673C30.948 17.2812 31.1619 17.455 31.416 17.5353C31.5497 17.5888 31.6968 17.6155 31.8439 17.6155C32.0311 17.6155 32.2183 17.5754 32.3921 17.4952C32.6862 17.3614 32.9136 17.1208 33.0473 16.8266C33.1676 16.5324 33.181 16.1982 33.074 15.8906C33.0205 16.0511 32.9269 16.1982 32.8066 16.3319C32.6862 16.4656 32.5392 16.5592 32.3921 16.626Z" fill="#A5A5A5"/>
<path d="M19.3418 22.6437C19.2081 22.5634 19.1011 22.4565 19.0209 22.3228C18.9406 22.189 18.9005 22.042 18.9005 21.8949V19.341C18.9005 19.1137 18.9941 18.8864 19.1546 18.7259C19.315 18.5655 19.5423 18.4719 19.7697 18.4719H19.8499C19.6761 18.0574 19.529 17.7231 19.4487 17.4824C19.2749 17.576 19.0877 17.6161 18.9005 17.6161C18.7534 17.6161 18.6064 17.5894 18.4727 17.5359V22.6035C19.2482 23.4727 20.0103 24.0744 20.6254 24.0744C21.4812 24.0744 22.1497 23.5128 22.6712 22.6838C22.6311 22.6437 22.591 22.6035 22.5375 22.5634C21.3474 23.5395 20.0103 23.0181 19.3418 22.6437Z" fill="#898989"/>
<path d="M31.8429 17.6145C31.6557 17.6145 31.4685 17.5744 31.2947 17.4941C31.2145 17.7214 31.0674 18.0691 30.8936 18.4836H30.9738C31.2011 18.4836 31.4284 18.5772 31.5889 18.7377C31.7493 18.8981 31.8429 19.1254 31.8429 19.3527V21.8932C31.8429 22.0403 31.8028 22.2008 31.7226 22.3345C31.6423 22.4682 31.5354 22.5752 31.4017 22.6554C30.7331 23.0298 29.396 23.5512 28.206 22.5885C28.1659 22.6286 28.1257 22.6688 28.0723 22.7089C28.5937 23.5379 29.2623 24.0995 30.118 24.0995C30.7331 24.0995 31.5086 23.4978 32.2708 22.6286V17.5343C32.1371 17.5877 31.99 17.6145 31.8429 17.6145Z" fill="#898989"/>
<path d="M35.9883 18.3787C36.0418 18.2851 36.1086 18.2183 36.2022 18.1782C36.2958 18.138 36.4028 18.138 36.4964 18.1648L36.6301 18.2049L37.0045 17.1753C36.6702 17.1753 36.3359 17.0817 36.0552 16.8945C35.6674 17.6166 33.9425 20.7187 32.2578 22.604C31.5892 23.3661 30.9207 23.9144 30.3457 24.0481C31.1212 23.9144 33.528 23.0987 35.9883 18.3787Z" fill="#AAAAAA"/>
<path d="M26.2686 27.0031L25.814 26.6688H24.9449L24.4903 27.0031C24.4234 27.0566 24.3432 27.0833 24.263 27.0967C24.1828 27.11 24.1025 27.0967 24.0223 27.0566C23.9421 27.0164 23.8752 26.963 23.8351 26.8961C23.7816 26.8292 23.7549 26.749 23.7549 26.6688H19.7703C19.4226 26.6688 19.1017 26.5351 18.8611 26.2944C18.607 26.0537 18.4733 25.7194 18.4733 25.3718L14.93 18.6729C14.8898 18.606 14.8765 18.5392 14.8765 18.4589C14.8765 18.3787 14.9032 18.3119 14.9433 18.245C14.9834 18.1782 15.0369 18.1247 15.1038 18.0979C15.1706 18.0578 15.2375 18.0444 15.3177 18.0444H15.3311C15.0102 17.523 14.7829 17.1085 14.6759 16.8945C14.3951 17.0817 14.0608 17.1753 13.7266 17.1753L17.1763 26.6688V28.3937H33.5693V26.6688H27.0041C27.0041 26.749 26.9639 26.8292 26.9238 26.8961C26.8703 26.963 26.8169 27.0164 26.7366 27.0566C26.6564 27.0967 26.5762 27.11 26.4959 27.0967C26.4157 27.0833 26.3355 27.0566 26.2686 27.0031Z" fill="#AAAAAA"/>
<path d="M24.9037 17.121C24.9171 16.9071 25.0107 16.6932 25.1712 16.5461C25.3316 16.399 25.5456 16.3188 25.7595 16.3188H26.3345C26.281 15.8241 26.2542 15.4363 26.2409 15.209C25.9734 15.3694 25.6793 15.4497 25.3717 15.4497C25.0642 15.4497 24.7567 15.3694 24.5026 15.209C24.4358 16.1583 24.0881 20.4504 22.6708 22.6968C22.1493 23.5258 21.4807 24.074 20.625 24.074C24.0747 24.074 24.77 19.1133 24.9037 17.121Z" fill="#AAAAAA"/>
<path d="M27.8858 24.1948C27.8189 24.0344 27.712 23.9007 27.5649 23.7937C27.4178 23.7001 27.2573 23.6466 27.0835 23.6466H26.5219L26.1877 22.8711C26.1877 22.8577 26.1743 22.8577 26.1743 22.8443C26.1074 22.6973 25.9871 22.5769 25.84 22.4833C25.6929 22.3897 25.5325 22.3496 25.372 22.3496C25.1982 22.3496 25.0377 22.4031 24.8907 22.4967C24.7436 22.5903 24.6232 22.724 24.5564 22.8711L24.2355 23.6466H23.6739C23.5001 23.6466 23.3262 23.7001 23.1925 23.7937C23.0455 23.9007 22.9251 24.0344 22.8583 24.1948C22.8048 24.3553 22.778 24.5291 22.8181 24.7029C22.8583 24.8767 22.9385 25.0238 23.0588 25.1442L23.5001 25.572L23.3129 26.4545C23.2728 26.6284 23.2995 26.8156 23.3664 26.976C23.4332 27.1365 23.5536 27.2835 23.714 27.3771C23.8611 27.4707 24.0349 27.5242 24.1954 27.5242C24.3826 27.5242 24.5698 27.4574 24.7302 27.3504L25.372 26.8824L26.0005 27.3504C26.1475 27.4574 26.3214 27.5242 26.5086 27.5242C26.6958 27.5242 26.8696 27.4841 27.03 27.3771C27.1771 27.2835 27.2975 27.1365 27.3777 26.976C27.4445 26.8156 27.4713 26.6284 27.4312 26.4545L27.244 25.572L27.6852 25.1442C27.8056 25.0238 27.8992 24.8634 27.9259 24.6895C27.966 24.5291 27.9393 24.3553 27.8858 24.1948ZM27.3777 24.8366L26.776 25.4383L27.0033 26.5481C27.0167 26.6417 27.0033 26.7353 26.9766 26.8156C26.9364 26.8958 26.8696 26.976 26.7894 27.0295C26.7091 27.083 26.6155 27.1097 26.5219 27.0963C26.4283 27.0963 26.3347 27.0562 26.2679 27.0027L25.372 26.3476L24.4762 27.0027C24.3959 27.0562 24.3157 27.0963 24.2221 27.0963C24.1285 27.0963 24.0349 27.083 23.9547 27.0295C23.8745 26.976 23.8076 26.9091 23.7675 26.8156C23.7274 26.7353 23.714 26.6284 23.7407 26.5481L23.9681 25.4383L23.3664 24.8366C23.2995 24.7831 23.2594 24.7029 23.246 24.6093C23.2193 24.5291 23.2326 24.4355 23.2594 24.3553C23.2861 24.275 23.353 24.2082 23.4198 24.1547C23.5001 24.1012 23.5803 24.0745 23.6739 24.0745H24.5163L24.9575 23.0449C24.9976 22.9647 25.0511 22.8978 25.1313 22.8577C25.1982 22.8042 25.2918 22.7909 25.372 22.7909C25.4522 22.7909 25.5458 22.8176 25.6127 22.8577C25.6929 22.8978 25.7464 22.9647 25.7865 23.0449L26.2278 24.0745H27.0701C27.1637 24.0745 27.244 24.1012 27.3108 24.1547C27.3777 24.2082 27.4445 24.275 27.4713 24.3553C27.498 24.4355 27.5114 24.5291 27.498 24.6093C27.4847 24.7029 27.4445 24.7831 27.3777 24.8366Z" fill="#898989"/>
<path d="M32.2716 16.3186C32.5123 16.3186 32.6995 16.1314 32.6995 15.8908C32.6995 15.6501 32.5123 15.4629 32.2716 15.4629C32.0309 15.4629 31.8438 15.6501 31.8438 15.8908C31.8438 16.1181 32.0309 16.3186 32.2716 16.3186Z" fill="white"/>
<path d="M19.3283 16.3186C19.5689 16.3186 19.7561 16.1314 19.7561 15.8908C19.7561 15.6501 19.5689 15.4629 19.3283 15.4629C19.0876 15.4629 18.9004 15.6501 18.9004 15.8908C18.9004 16.1181 19.101 16.3186 19.3283 16.3186Z" fill="white"/>
<path d="M25.799 13.7249C26.0396 13.7249 26.2268 13.5377 26.2268 13.297C26.2268 13.0563 26.0396 12.8691 25.799 12.8691C25.5583 12.8691 25.3711 13.0563 25.3711 13.297C25.3711 13.5377 25.5583 13.7249 25.799 13.7249Z" fill="white"/>
<path d="M37.8732 15.4495C38.1139 15.4495 38.3011 15.2623 38.3011 15.0216C38.3011 14.7809 38.1139 14.5938 37.8732 14.5938C37.6325 14.5938 37.4453 14.7809 37.4453 15.0216C37.4453 15.2623 37.6459 15.4495 37.8732 15.4495Z" fill="white"/>
<path d="M14.5945 15.4495C14.8352 15.4495 15.0224 15.2623 15.0224 15.0216C15.0224 14.7809 14.8352 14.5938 14.5945 14.5938C14.3538 14.5938 14.1666 14.7809 14.1666 15.0216C14.1533 15.2623 14.3538 15.4495 14.5945 15.4495Z" fill="white"/>
<defs>
<filter id="filter0_d_2751_33981" x="0" y="0" width="50" height="50" filterUnits="userSpaceOnUse" color-interpolation-filters="sRGB">
<feFlood flood-opacity="0" result="BackgroundImageFix"/>
<feColorMatrix in="SourceAlpha" type="matrix" values="0 0 0 0 0 0 0 0 0 0 0 0 0 0 0 0 0 0 127 0" result="hardAlpha"/>
<feOffset dy="4"/>
<feGaussianBlur stdDeviation="2"/>
<feComposite in2="hardAlpha" operator="out"/>
<feColorMatrix type="matrix" values="0 0 0 0 0 0 0 0 0 0 0 0 0 0 0 0 0 0 0.06 0"/>
<feBlend mode="normal" in2="BackgroundImageFix" result="effect1_dropShadow_2751_33981"/>
<feBlend mode="normal" in="SourceGraphic" in2="effect1_dropShadow_2751_33981" result="shape"/>
</filter>
</defs>
</svg>
