<svg width="50" height="50" viewBox="0 0 50 50" fill="none" xmlns="http://www.w3.org/2000/svg">
<path d="M28.1926 28.5044H26.5157C26.1111 28.5044 25.7832 28.8323 25.7832 29.2369C25.7832 29.6415 26.1111 29.9694 26.5157 29.9694H28.1926C28.5972 29.9694 28.9251 29.6415 28.9251 29.2369C28.9251 28.8323 28.5972 28.5044 28.1926 28.5044Z" fill="url(#paint0_linear_2751_10238)"/>
<path d="M22.632 28.5044H20.9552C20.5506 28.5044 20.2227 28.8323 20.2227 29.2369C20.2227 29.6415 20.5506 29.9694 20.9552 29.9694H22.632C23.0366 29.9694 23.3645 29.6415 23.3645 29.2369C23.3645 28.8323 23.0366 28.5044 22.632 28.5044Z" fill="url(#paint1_linear_2751_10238)"/>
<path d="M17.0715 28.5044H15.3946C14.99 28.5044 14.6621 28.8323 14.6621 29.2369C14.6621 29.6415 14.99 29.9694 15.3946 29.9694H17.0715C17.4761 29.9694 17.804 29.6415 17.804 29.2369C17.804 28.8323 17.4761 28.5044 17.0715 28.5044Z" fill="url(#paint2_linear_2751_10238)"/>
<path d="M33.7531 28.5044H32.0763C31.6717 28.5044 31.3438 28.8323 31.3438 29.2369C31.3438 29.6415 31.6717 29.9694 32.0763 29.9694H33.7531C34.1577 29.9694 34.4856 29.6415 34.4856 29.2369C34.4857 28.8323 34.1576 28.5044 33.7531 28.5044Z" fill="url(#paint3_linear_2751_10238)"/>
<path d="M0.000173611 30.9771C-0.000217013 30.9676 0.000173611 30.9867 0.000173611 30.9771V30.9771Z" fill="url(#paint4_linear_2751_10238)"/>
<path d="M49.6182 26.4308C49.5484 26.2762 49.4712 26.1247 49.3831 25.9785L49.1582 25.6053C48.308 24.1944 46.8938 23.2011 45.278 22.8795L38.7826 21.5879C37.4829 21.3293 36.2142 20.5439 35.373 19.9758L30.6658 16.7957C29.0937 15.7336 27.2922 15.1104 25.4137 14.9723V13.6422C25.4137 12.7437 24.6827 12.0127 23.7842 12.0127H16.7841C15.8856 12.0127 15.1547 12.7437 15.1547 13.6422V14.9732C12.5819 15.1645 10.1876 16.256 8.34149 18.0955C7.05565 19.3765 5.4369 20.2504 3.66044 20.6224L2.63876 20.8365C1.11006 21.1566 0.00048828 22.5226 0.00048828 24.0846C0 24.0941 0 24.0845 0 24.0941L0.000173611 30.9771C0.000173611 31.8076 0.490722 32.5624 1.24961 32.8995L4.07421 34.1548C4.24775 35.0514 4.68095 35.9072 5.37382 36.6002C6.29833 37.5247 7.51268 37.9869 8.72713 37.9869C9.94149 37.9869 11.156 37.5247 12.0804 36.6002C12.6711 36.0096 13.0721 35.3004 13.2854 34.5488H36.8894C37.1027 35.3004 37.5037 36.0096 38.0944 36.6002C39.0189 37.5247 40.2332 37.9869 41.4477 37.9869C42.662 37.9869 43.8766 37.5247 44.801 36.6002C45.3916 36.0096 45.7927 35.3004 46.006 34.5488H47.34C48.8066 34.5488 50 33.3555 50 31.8888V28.1974C49.9999 27.5863 49.8679 26.9845 49.6182 26.4308ZM48.0894 26.6701L48.1282 26.7346C48.2225 26.891 48.3001 27.0556 48.3621 27.2258C48.4753 27.5359 48.5348 27.8644 48.5348 28.1972V28.2097H46.601V27.3736C46.601 26.9857 46.9166 26.6701 47.3045 26.6701H48.0894ZM16.6198 13.6422C16.6198 13.5515 16.6935 13.4777 16.7842 13.4777H23.7843C23.875 13.4777 23.9488 13.5515 23.9488 13.6422V14.9428H16.6198V13.6422ZM1.46543 26.7074H2.43261V28.1724H1.46543V26.7074ZM11.0444 35.564C9.76668 36.8418 7.68749 36.8417 6.40966 35.5641C5.13192 34.2863 5.13192 32.2072 6.40966 30.9294C7.68739 29.6514 9.76658 29.6514 11.0444 30.9294C12.3222 32.2073 12.3222 34.2863 11.0444 35.564ZM43.765 35.564C42.4871 36.8417 40.408 36.8417 39.1303 35.564C37.8526 34.2863 37.8526 32.2071 39.1303 30.9294C39.7492 30.3103 40.5722 29.9694 41.4477 29.9694C42.3232 29.9694 43.146 30.3103 43.765 30.9294C45.0427 32.2073 45.0427 34.2863 43.765 35.564ZM47.34 33.0835H46.1838C46.1442 31.9241 45.684 30.7765 44.801 29.8933C43.9053 28.9977 42.7144 28.5044 41.4477 28.5044C40.181 28.5044 38.99 28.9977 38.0944 29.8933C37.2114 30.7764 36.7511 31.924 36.7116 33.0835H13.4634C13.4238 31.9241 12.9635 30.7765 12.0805 29.8933C10.2315 28.0444 7.22294 28.0444 5.37392 29.8933C4.63036 30.6369 4.18642 31.5682 4.04091 32.5361L1.84463 31.5606C1.61435 31.4583 1.46562 31.2293 1.46562 30.9772V29.6377H2.75009C3.3829 29.6377 3.89775 29.1228 3.89775 28.49V26.3901C3.89775 25.7573 3.3829 25.2425 2.75009 25.2425H1.46543V24.0847C1.46543 23.2124 2.08505 22.4494 2.93886 22.2707L3.96064 22.0566C6.01542 21.6263 7.88788 20.6155 9.37537 19.1337C11.1191 17.3964 13.4288 16.4311 15.8869 16.4092C15.8868 16.4092 15.887 16.4092 15.8869 16.4092C15.9154 16.4089 15.9441 16.4081 15.9726 16.4081H24.6127L24.6749 16.4094C24.6765 16.4094 24.6782 16.4094 24.6798 16.4094C26.5279 16.4225 28.3128 16.9746 29.8455 18.0099L34.5527 21.19C35.5788 21.8833 36.9546 22.7183 38.4966 23.025L44.992 24.3167C45.7104 24.4595 46.3748 24.7807 46.9304 25.2381C45.9121 25.4158 45.1355 26.3054 45.1355 27.3738V28.4965C45.1355 29.1463 45.6642 29.675 46.3141 29.675H48.5345V31.8887C48.5347 32.5475 47.9989 33.0835 47.34 33.0835Z" fill="url(#paint5_linear_2751_10238)"/>
<path d="M35.0526 22.6196C34.7456 22.4507 34.4423 22.2655 34.1514 22.0689L29.444 18.8887C28.0119 17.9212 26.3413 17.4099 24.613 17.4099H15.9727C13.6737 17.4099 11.5105 18.3036 9.88163 19.9263C9.04775 20.7572 8.09795 21.452 7.05859 21.9915C6.43584 22.315 6.04883 22.9516 6.04883 23.6528C6.04883 24.6855 6.88896 25.5256 7.92158 25.5256H10.4729C10.8775 25.5256 11.2055 25.1977 11.2055 24.7931C11.2055 24.3885 10.8775 24.0606 10.4729 24.0606H7.92158C7.69677 24.0606 7.51386 23.8777 7.51386 23.6529C7.51386 23.5006 7.59814 23.3622 7.73359 23.2918C8.90537 22.6835 9.97587 21.9004 10.9155 20.9642C12.2679 19.617 14.0639 18.875 15.9726 18.875H19.0838V24.0606H13.8815C13.4769 24.0606 13.149 24.3885 13.149 24.7931C13.149 25.1977 13.4769 25.5256 13.8815 25.5256H35.057C35.6536 25.5256 36.1388 25.0403 36.1388 24.4437C36.1388 23.6871 35.7226 22.9882 35.0526 22.6196ZM20.5489 24.0608V18.8751H24.613C26.0478 18.8751 27.4349 19.2997 28.6239 20.1029L33.3313 23.283C33.6591 23.5045 34.0008 23.7133 34.3466 23.9035C34.4207 23.9443 34.4846 23.998 34.5357 24.0608H20.5489Z" fill="url(#paint6_linear_2751_10238)"/>
<path d="M43.1914 31.5037C42.7258 31.0381 42.1068 30.7817 41.4484 30.7817C40.7899 30.7817 40.171 31.0381 39.7055 31.5037C39.2405 31.9686 38.9844 32.5877 38.9844 33.2467C38.9844 33.9057 39.2404 34.5247 39.7055 34.9896C40.171 35.4552 40.79 35.7116 41.4484 35.7116C42.1068 35.7116 42.7259 35.4553 43.1914 34.9896C43.6569 34.5241 43.9134 33.9051 43.9134 33.2467C43.9135 32.5884 43.6571 31.9692 43.1914 31.5037ZM42.1554 33.9537C41.9666 34.1426 41.7155 34.2466 41.4484 34.2466C41.1813 34.2466 40.9303 34.1426 40.7414 33.9537C40.553 33.7654 40.4494 33.5143 40.4494 33.2468C40.4494 32.9792 40.5531 32.7281 40.7414 32.5398C40.9302 32.351 41.1813 32.247 41.4484 32.247C41.7155 32.247 41.9666 32.351 42.1554 32.5398C42.3441 32.7286 42.4482 32.9798 42.4482 33.2468C42.4482 33.5138 42.3442 33.7648 42.1554 33.9537Z" fill="url(#paint7_linear_2751_10238)"/>
<path d="M10.4707 31.5037C10.0051 31.0381 9.38613 30.7817 8.72773 30.7817C8.06923 30.7817 7.45029 31.0381 6.98476 31.5037C6.51982 31.9686 6.26367 32.5877 6.26367 33.2467C6.26367 33.9057 6.51973 34.5247 6.98476 34.9896C7.45029 35.4552 8.06933 35.7116 8.72773 35.7116C9.38622 35.7116 10.0052 35.4553 10.4706 34.9896C10.9362 34.5241 11.1927 33.9051 11.1927 33.2467C11.1927 32.5884 10.9362 31.9692 10.4707 31.5037ZM9.43456 33.9537C9.24579 34.1426 8.99482 34.2466 8.72773 34.2466C8.46064 34.2466 8.20957 34.1426 8.0207 33.9537C7.83232 33.7654 7.72871 33.5143 7.72871 33.2468C7.72871 32.9792 7.83242 32.7281 8.0207 32.5398C8.20947 32.351 8.46064 32.247 8.72773 32.247C8.99482 32.247 9.24589 32.351 9.43466 32.5398C9.62343 32.7287 9.72753 32.9798 9.72753 33.2468C9.72753 33.5138 9.62353 33.7647 9.43456 33.9537Z" fill="url(#paint8_linear_2751_10238)"/>
<defs>
<linearGradient id="paint0_linear_2751_10238" x1="-5.62864e-07" y1="9.87819" x2="26.8663" y2="54.8126" gradientUnits="userSpaceOnUse">
<stop stop-color="#B4761A"/>
<stop offset="0.385417" stop-color="#B4761A"/>
<stop offset="0.494792" stop-color="#DDAE68"/>
<stop offset="0.598958" stop-color="#B4761A"/>
<stop offset="1" stop-color="#B4761A"/>
</linearGradient>
<linearGradient id="paint1_linear_2751_10238" x1="-5.62864e-07" y1="9.87819" x2="26.8663" y2="54.8126" gradientUnits="userSpaceOnUse">
<stop stop-color="#B4761A"/>
<stop offset="0.385417" stop-color="#B4761A"/>
<stop offset="0.494792" stop-color="#DDAE68"/>
<stop offset="0.598958" stop-color="#B4761A"/>
<stop offset="1" stop-color="#B4761A"/>
</linearGradient>
<linearGradient id="paint2_linear_2751_10238" x1="-5.62864e-07" y1="9.87819" x2="26.8663" y2="54.8126" gradientUnits="userSpaceOnUse">
<stop stop-color="#B4761A"/>
<stop offset="0.385417" stop-color="#B4761A"/>
<stop offset="0.494792" stop-color="#DDAE68"/>
<stop offset="0.598958" stop-color="#B4761A"/>
<stop offset="1" stop-color="#B4761A"/>
</linearGradient>
<linearGradient id="paint3_linear_2751_10238" x1="-5.62864e-07" y1="9.87819" x2="26.8663" y2="54.8126" gradientUnits="userSpaceOnUse">
<stop stop-color="#B4761A"/>
<stop offset="0.385417" stop-color="#B4761A"/>
<stop offset="0.494792" stop-color="#DDAE68"/>
<stop offset="0.598958" stop-color="#B4761A"/>
<stop offset="1" stop-color="#B4761A"/>
</linearGradient>
<linearGradient id="paint4_linear_2751_10238" x1="-5.62864e-07" y1="9.87819" x2="26.8663" y2="54.8126" gradientUnits="userSpaceOnUse">
<stop stop-color="#B4761A"/>
<stop offset="0.385417" stop-color="#B4761A"/>
<stop offset="0.494792" stop-color="#DDAE68"/>
<stop offset="0.598958" stop-color="#B4761A"/>
<stop offset="1" stop-color="#B4761A"/>
</linearGradient>
<linearGradient id="paint5_linear_2751_10238" x1="-5.62864e-07" y1="9.87819" x2="26.8663" y2="54.8126" gradientUnits="userSpaceOnUse">
<stop stop-color="#B4761A"/>
<stop offset="0.385417" stop-color="#B4761A"/>
<stop offset="0.494792" stop-color="#DDAE68"/>
<stop offset="0.598958" stop-color="#B4761A"/>
<stop offset="1" stop-color="#B4761A"/>
</linearGradient>
<linearGradient id="paint6_linear_2751_10238" x1="-5.62864e-07" y1="9.87819" x2="26.8663" y2="54.8126" gradientUnits="userSpaceOnUse">
<stop stop-color="#B4761A"/>
<stop offset="0.385417" stop-color="#B4761A"/>
<stop offset="0.494792" stop-color="#DDAE68"/>
<stop offset="0.598958" stop-color="#B4761A"/>
<stop offset="1" stop-color="#B4761A"/>
</linearGradient>
<linearGradient id="paint7_linear_2751_10238" x1="-5.62864e-07" y1="9.87819" x2="26.8663" y2="54.8126" gradientUnits="userSpaceOnUse">
<stop stop-color="#B4761A"/>
<stop offset="0.385417" stop-color="#B4761A"/>
<stop offset="0.494792" stop-color="#DDAE68"/>
<stop offset="0.598958" stop-color="#B4761A"/>
<stop offset="1" stop-color="#B4761A"/>
</linearGradient>
<linearGradient id="paint8_linear_2751_10238" x1="-5.62864e-07" y1="9.87819" x2="26.8663" y2="54.8126" gradientUnits="userSpaceOnUse">
<stop stop-color="#B4761A"/>
<stop offset="0.385417" stop-color="#B4761A"/>
<stop offset="0.494792" stop-color="#DDAE68"/>
<stop offset="0.598958" stop-color="#B4761A"/>
<stop offset="1" stop-color="#B4761A"/>
</linearGradient>
</defs>
</svg>
