<svg width="18" height="18" viewBox="0 0 18 18" fill="none" xmlns="http://www.w3.org/2000/svg">
<mask id="mask0_999_18007" style="mask-type:alpha" maskUnits="userSpaceOnUse" x="0" y="0" width="18" height="18">
<rect width="18" height="18" fill="#D9D9D9"/>
</mask>
<g mask="url(#mask0_999_18007)">
<path d="M8.4375 11.8414V5.54137L6.58856 7.39031L5.79806 6.57694L9 3.375L12.2019 6.57694L11.4114 7.39031L9.5625 5.54137V11.8414H8.4375ZM4.73081 14.625C4.35194 14.625 4.03125 14.4938 3.76875 14.2313C3.50625 13.9688 3.375 13.6481 3.375 13.2692V11.2356H4.5V13.2692C4.5 13.3269 4.52406 13.3798 4.57219 13.4278C4.62019 13.4759 4.67306 13.5 4.73081 13.5H13.2692C13.3269 13.5 13.3798 13.4759 13.4278 13.4278C13.4759 13.3798 13.5 13.3269 13.5 13.2692V11.2356H14.625V13.2692C14.625 13.6481 14.4938 13.9688 14.2313 14.2313C13.9688 14.4938 13.6481 14.625 13.2692 14.625H4.73081Z" fill="#1C1B1F"/>
</g>
</svg>
