<svg width="50" height="50" viewBox="0 0 50 50" fill="none" xmlns="http://www.w3.org/2000/svg">
<path d="M24.5434 28.1523C25.0435 28.1523 25.5294 28.0023 25.9437 27.7308C26.3581 27.4593 26.6796 27.0592 26.8725 26.602C27.0654 26.1447 27.1154 25.6375 27.0154 25.1445C26.9154 24.6587 26.6796 24.2086 26.3224 23.8514C25.9723 23.5013 25.5222 23.2584 25.0293 23.1583C24.5434 23.0583 24.0362 23.1083 23.5718 23.3012C23.1145 23.4941 22.7145 23.8156 22.443 24.23C22.1643 24.6444 22.0214 25.1302 22.0214 25.6303C22.0214 26.3019 22.2858 26.9378 22.7573 27.4093C23.2289 27.888 23.8719 28.1523 24.5434 28.1523ZM24.5434 24.6373C24.7435 24.6373 24.9364 24.6944 25.1007 24.8087C25.265 24.923 25.3936 25.0802 25.4722 25.2588C25.5508 25.4446 25.5651 25.6446 25.5294 25.8447C25.4936 26.0376 25.3936 26.2233 25.2507 26.3591C25.1078 26.5019 24.9292 26.5948 24.7363 26.6377C24.5434 26.6806 24.3362 26.6591 24.1505 26.5805C23.9647 26.5019 23.8076 26.3733 23.7004 26.209C23.5861 26.0447 23.5289 25.8447 23.5289 25.6518C23.5289 25.3874 23.6361 25.1302 23.8218 24.9373C24.0147 24.7373 24.2719 24.6373 24.5434 24.6373ZM30.4947 30.4171C29.9946 30.4171 29.5088 30.5671 29.0944 30.8386C28.6801 31.1173 28.3586 31.5102 28.1657 31.9674C27.9728 32.4247 27.9228 32.9319 28.0228 33.4249C28.1228 33.9107 28.3586 34.3608 28.7158 34.718C29.0659 35.0681 29.516 35.311 30.0089 35.4111C30.4947 35.5111 31.002 35.4611 31.4664 35.2682C31.9236 35.0753 32.3237 34.7538 32.5952 34.3394C32.8738 33.925 33.0167 33.4392 33.0167 32.9391C33.0167 32.2675 32.7524 31.6317 32.2809 31.1601C31.8022 30.6814 31.1592 30.4171 30.4947 30.4171ZM30.4947 33.9393C30.2947 33.9393 30.1018 33.8821 29.9375 33.7678C29.7732 33.6535 29.6446 33.4963 29.566 33.3177C29.4874 33.1391 29.4731 32.9319 29.5088 32.7319C29.5445 32.539 29.6446 32.3532 29.7875 32.2175C29.9303 32.0746 30.1089 31.9817 30.3018 31.9389C30.4947 31.9031 30.7019 31.9174 30.8877 31.996C31.0734 32.0746 31.2306 32.2032 31.3378 32.3675C31.4521 32.5319 31.5093 32.7319 31.5093 32.9248C31.5093 33.1891 31.4021 33.4463 31.2163 33.6392C31.0163 33.8321 30.7591 33.9393 30.4947 33.9393ZM32.0379 23.2727C31.8808 23.1512 31.6736 23.1012 31.4807 23.1298C31.2806 23.1584 31.102 23.2655 30.9806 23.4227L22.8431 34.2394C22.7216 34.3965 22.6716 34.6037 22.7002 34.7966C22.7287 34.9967 22.8359 35.1753 22.9931 35.2967C23.1503 35.4182 23.3575 35.4682 23.5504 35.4396C23.7504 35.4111 23.929 35.3039 24.0505 35.1467L32.1808 24.33C32.3023 24.1729 32.3523 23.9657 32.3237 23.7728C32.3023 23.5727 32.1951 23.3941 32.0379 23.2727ZM41.2686 36.3041H36.1103L36.2817 35.654L39.0181 33.8821C39.2681 33.7178 39.4539 33.4749 39.5396 33.1963C39.6325 32.9105 39.6253 32.6104 39.5182 32.3318L38.3536 29.2883L39.5182 26.2447C39.6253 25.9661 39.6325 25.6589 39.5396 25.3803C39.4467 25.0945 39.261 24.8587 39.0109 24.6944L36.2817 22.9154L35.4387 19.7719C35.3601 19.4861 35.1886 19.2361 34.9457 19.0646C34.7028 18.8931 34.417 18.8002 34.117 18.8145L30.8663 18.9789L28.33 16.9355C28.1014 16.7498 27.8084 16.6498 27.5155 16.6498C27.2226 16.6498 26.9297 16.7498 26.7011 16.9355L24.1648 18.9789L20.9141 18.8145C20.6211 18.8002 20.3282 18.886 20.0853 19.0646C19.8424 19.2361 19.6709 19.4861 19.5923 19.7719L18.7421 22.9154L16.013 24.6944C15.7629 24.8587 15.5772 25.1016 15.4914 25.3803C15.3986 25.6589 15.4057 25.9661 15.5129 26.2447L16.6774 29.2883L15.5129 32.3318C15.4057 32.6104 15.4057 32.9177 15.4914 33.1963C15.5843 33.4749 15.7701 33.7178 16.013 33.8821L18.7421 35.6611L18.9136 36.3113H13.7553C13.4195 36.3113 13.0909 36.447 12.8551 36.6828C12.6122 36.9257 12.4836 37.2472 12.4836 37.583V48.7283C12.4836 49.0641 12.6194 49.3927 12.8551 49.6285C13.098 49.8643 13.4195 50 13.7553 50H41.2614C41.5972 50 41.9258 49.8643 42.1616 49.6285C42.4045 49.3927 42.5331 49.0641 42.5331 48.7283V37.583C42.5331 37.2472 42.3974 36.9185 42.1616 36.6828C41.933 36.4399 41.6043 36.3041 41.2686 36.3041ZM20.1853 35.1824C20.0996 34.8752 19.9067 34.6037 19.6423 34.4323L16.9918 32.7033L18.1206 29.7455C18.2349 29.4455 18.2349 29.1168 18.1206 28.8167L16.9918 25.8589L19.6423 24.13C19.9138 23.9585 20.1067 23.687 20.1853 23.3798L21.0069 20.322L24.1648 20.4863C24.4863 20.5006 24.8006 20.4006 25.0507 20.2006L27.5155 18.2073L29.9803 20.1934C30.2304 20.3935 30.5448 20.5006 30.8663 20.4792L34.017 20.3292L34.8457 23.387C34.9314 23.6942 35.1243 23.9657 35.3887 24.1371L38.0393 25.8661L36.9105 28.8239C36.7961 29.124 36.7961 29.4526 36.9105 29.7527L38.0393 32.7105L35.3887 34.4394C35.1172 34.6109 34.9243 34.8824 34.8457 35.1896L34.5456 36.3113H20.4854L20.1853 35.1824ZM24.1362 48.4925H13.9982V37.8187H24.1362V48.4925ZM29.3802 45.1704V48.4997H25.6508V37.8187H29.3802V45.1704ZM30.8948 41.641V37.8187H41.0328V48.4925H30.8948V41.641ZM12.6051 20.0505L8.53989 22.3939L5.5821 17.2785L14.1983 12.3059L17.1561 17.4214L15.6629 18.2858L12.6051 20.0505ZM16.4202 19.5933L33.8669 9.52676C34.1741 9.34815 34.3956 9.06238 34.4813 8.71944C34.5742 8.37651 34.5242 8.01929 34.3527 7.71208L31.2163 2.2823C31.0377 1.97509 30.7519 1.75362 30.409 1.66788C30.0661 1.57501 29.7089 1.62502 29.4016 1.79648L27.6155 2.82528L26.6939 1.23207C26.4867 0.874851 26.1938 0.574784 25.8437 0.360451C25.4936 0.146118 25.0936 0.0246627 24.6863 0.00322943C24.2791 -0.0182039 23.8647 0.0675294 23.4932 0.24614C23.1217 0.424751 22.8073 0.69624 22.5644 1.03203L22.1358 1.63216L20.0853 4.49708L18.7993 6.29033C18.2992 6.02599 17.7348 5.89025 17.1632 5.89739C16.5917 5.90453 16.0344 6.06171 15.5414 6.34749C15.0485 6.63327 14.6341 7.0405 14.3412 7.52632C14.0483 8.01214 13.8839 8.56941 13.8625 9.14096L7.41822 9.76968C7.01098 9.81254 6.61804 9.94829 6.27511 10.1841C5.93217 10.4127 5.66068 10.727 5.46778 11.0914C5.27488 11.4558 5.18915 11.863 5.1963 12.2774C5.20344 12.6917 5.31775 13.0918 5.52494 13.4491L6.44657 15.0423L4.66761 16.0711C4.3604 16.2497 4.13892 16.5355 4.04604 16.8784C3.95316 17.2213 4.00318 17.5785 4.17464 17.8858L7.31105 23.3227C7.39678 23.4727 7.51109 23.6084 7.65398 23.7156C7.78973 23.8228 7.95405 23.9014 8.11837 23.9442C8.28984 23.9871 8.4613 24.0014 8.63277 23.98C8.80424 23.9585 8.9757 23.9014 9.12574 23.8085L13.3481 21.3722L16.4202 19.5933ZM23.3717 2.49664L23.8004 1.89651C23.8933 1.76791 24.0147 1.66788 24.1576 1.59644C24.3005 1.52499 24.4577 1.49642 24.6149 1.50356C24.7721 1.51071 24.9292 1.56072 25.0578 1.63931C25.1936 1.72504 25.3079 1.83935 25.3865 1.97509L26.301 3.5683L20.0067 7.20482L21.3141 5.3687M18.4635 16.6641L15.5057 11.5486L20.0639 8.91949L23.0217 14.0349L20.2568 15.6281L18.4635 16.6641ZM29.9875 3.18965L32.9453 8.30507L24.3291 13.2776L21.3713 8.16218L29.9875 3.18965ZM16.2988 7.65492C16.6631 7.44773 17.0918 7.362 17.5133 7.43344C17.9277 7.49774 18.3135 7.70493 18.5993 8.01929L15.47 9.82683C15.3414 9.42674 15.3485 8.99093 15.4986 8.59799C15.6558 8.1979 15.9344 7.86925 16.2988 7.65492ZM6.84666 12.6846C6.76807 12.5489 6.72521 12.3917 6.71806 12.2345C6.71092 12.0773 6.75378 11.9201 6.82523 11.7773C6.89667 11.6344 7.00384 11.5201 7.13244 11.4272C7.26104 11.3415 7.41107 11.2843 7.56825 11.27L14.0554 10.6413L7.76115 14.2778L6.84666 12.6846ZM33.4168 14.2278L34.017 11.6558C34.0241 11.6344 34.0384 11.6058 34.0527 11.5915C34.067 11.5701 34.0884 11.5558 34.117 11.5486C34.1384 11.5415 34.167 11.5344 34.1884 11.5344C34.217 11.5344 34.2384 11.5415 34.2599 11.5558L35.5744 12.3131C35.5959 12.3274 35.6173 12.3417 35.6316 12.3631C35.6459 12.3845 35.653 12.406 35.6602 12.4345C35.6602 12.4631 35.6602 12.4846 35.653 12.506C35.6459 12.5274 35.6316 12.5489 35.6102 12.5703L33.6812 14.385C33.6526 14.4064 33.624 14.4207 33.5883 14.4278C33.5526 14.4278 33.5168 14.4207 33.4883 14.4064C33.4597 14.3921 33.4383 14.3635 33.424 14.3278C33.4097 14.2992 33.4097 14.2635 33.4168 14.2278ZM46.041 30.2099L43.4619 29.4383C43.4333 29.4312 43.4047 29.4097 43.3833 29.3812C43.3619 29.3526 43.3547 29.324 43.3547 29.2883C43.3547 29.2526 43.369 29.224 43.3833 29.1954C43.4047 29.1668 43.4333 29.1525 43.4619 29.1382L46.041 28.3666C46.0625 28.3595 46.0911 28.3595 46.1125 28.3595C46.1339 28.3666 46.1625 28.3738 46.1768 28.3881C46.1982 28.4024 46.2125 28.4238 46.2268 28.4452C46.2411 28.4667 46.2411 28.4881 46.2411 28.5167V30.067C46.2411 30.0885 46.2339 30.117 46.2197 30.1385C46.2054 30.1599 46.1911 30.1813 46.1696 30.1885C46.1482 30.2028 46.1268 30.2099 46.1053 30.2171C46.0839 30.2171 46.0625 30.2171 46.041 30.2099ZM8.79709 30.017V28.5595C8.79709 28.531 8.80424 28.5024 8.81853 28.4738C8.83281 28.4452 8.8471 28.4238 8.87568 28.4095C8.90426 28.3952 8.92569 28.3809 8.95427 28.3738C8.98285 28.3666 9.01143 28.3738 9.04 28.3809L11.4763 29.1097C11.512 29.124 11.5477 29.1454 11.5763 29.174C11.6049 29.2025 11.612 29.2454 11.612 29.2883C11.612 29.3311 11.5977 29.3669 11.5763 29.4026C11.5548 29.4383 11.5191 29.4597 11.4763 29.4669L9.04 30.1956C9.01143 30.2028 8.98285 30.2028 8.95427 30.2028C8.92569 30.1956 8.89711 30.1885 8.87568 30.167C8.85425 30.1528 8.83281 30.1242 8.81853 30.1027C8.79709 30.0742 8.79709 30.0456 8.79709 30.017ZM40.0969 19.529L40.697 20.1291C40.7256 20.1577 40.747 20.2006 40.747 20.2434C40.747 20.2863 40.7327 20.3292 40.697 20.3577L40.0969 20.9579C40.0683 20.9864 40.0254 21.0079 39.9826 21.0079C39.9397 21.0079 39.8968 20.9936 39.8682 20.9579L39.261 20.3577C39.2467 20.3434 39.2324 20.322 39.2253 20.3077C39.2181 20.2863 39.211 20.2649 39.211 20.2434C39.211 20.222 39.2181 20.2006 39.2253 20.1791C39.2324 20.1577 39.2467 20.1434 39.261 20.1291L39.8611 19.529C39.8754 19.5147 39.8968 19.5004 39.9111 19.4933C39.9325 19.4861 39.954 19.479 39.9754 19.479C39.9968 19.479 40.0183 19.4861 40.0397 19.4933C40.0611 19.5004 40.0826 19.5147 40.0969 19.529ZM9.12574 37.19L8.5256 36.597C8.51131 36.5827 8.49703 36.5613 8.48988 36.5399C8.48274 36.5184 8.47559 36.497 8.47559 36.4756C8.47559 36.4541 8.48274 36.4327 8.49703 36.4184C8.50417 36.397 8.51846 36.3827 8.53275 36.3613L9.13288 35.7611C9.14717 35.7468 9.1686 35.7326 9.19004 35.7254C9.19718 35.7183 9.21861 35.7183 9.24719 35.7183C9.26863 35.7183 9.29006 35.7254 9.31149 35.7326C9.33293 35.7397 9.34721 35.754 9.36865 35.7683L9.96164 36.3684C9.97592 36.3827 9.99021 36.4041 9.99736 36.4256C10.0045 36.447 10.0116 36.4684 10.0116 36.4899C10.0116 36.5113 10.0045 36.5327 9.99736 36.5542C9.99021 36.5756 9.97592 36.5899 9.96164 36.6113L9.36865 37.2043C9.35436 37.2186 9.33293 37.2329 9.31149 37.24C9.29006 37.2472 9.26863 37.2543 9.24719 37.2543C9.22576 37.2543 9.20433 37.2472 9.18289 37.24C9.16146 37.2186 9.14003 37.2043 9.12574 37.19Z" fill="url(#paint0_linear_2751_16273)"/>
<defs>
<linearGradient id="paint0_linear_2751_16273" x1="4" y1="-4.1089" x2="60.0109" y2="37.0042" gradientUnits="userSpaceOnUse">
<stop stop-color="#B4761A"/>
<stop offset="0.385417" stop-color="#B4761A"/>
<stop offset="0.494792" stop-color="#DDAE68"/>
<stop offset="0.598958" stop-color="#B4761A"/>
<stop offset="1" stop-color="#B4761A"/>
</linearGradient>
</defs>
</svg>
