<svg width="18" height="20" viewBox="0 0 18 20" fill="none" xmlns="http://www.w3.org/2000/svg">
<path d="M1.13234 17.6921C1.03968 17.6921 0.94955 17.6545 0.882705 17.5852C0.794586 17.4938 0.760597 17.3611 0.793704 17.237L1.86637 13.2195C1.19855 11.9809 0.84645 10.5798 0.846954 9.1575C0.848842 4.53204 4.51889 0.769043 9.02835 0.769043C11.2156 0.769947 13.2708 1.64378 14.8155 3.22929C16.36 4.81492 17.2102 6.92269 17.2096 9.16422C17.2076 13.7898 13.5375 17.5531 9.02835 17.5531C9.02835 17.5531 9.02495 17.5531 9.02482 17.5531C7.70769 17.5525 6.40188 17.2233 5.23921 16.5997L1.22134 17.6804C1.19188 17.6882 1.16192 17.6921 1.13234 17.6921Z" fill="#E5E5E5"/>
<path d="M1.13281 17.3323L2.24362 13.1719C1.55843 11.9542 1.19802 10.573 1.19852 9.15789C1.20029 4.731 4.71273 1.12939 9.02882 1.12939C11.1233 1.1303 13.0892 1.96643 14.5676 3.48403C16.0459 5.00162 16.8598 7.01888 16.859 9.16434C16.8571 13.5911 13.3442 17.1932 9.02882 17.1932C9.02857 17.1932 9.02895 17.1932 9.02882 17.1932H9.02543C7.71496 17.1927 6.42741 16.8556 5.28375 16.2158L1.13281 17.3323ZM5.47597 14.7624L5.71377 14.9069C6.71279 15.515 7.85822 15.8366 9.02631 15.8373H9.02882C12.6158 15.8373 15.5353 12.8434 15.5368 9.16383C15.5375 7.38065 14.8612 5.70386 13.6324 4.44256C12.4036 3.18126 10.7697 2.48624 9.03122 2.48547C5.44135 2.48547 2.52195 5.47895 2.52057 9.15841C2.52007 10.4193 2.86398 11.6472 3.51556 12.7098L3.6704 12.9623L3.01278 15.4248L5.47597 14.7624Z" fill="white"/>
<path d="M1.40625 17.0517L2.47866 13.0351C1.81701 11.8597 1.46919 10.5261 1.46957 9.16018C1.47121 4.88655 4.86217 1.40967 9.02859 1.40967C11.0508 1.41057 12.9488 2.21779 14.3757 3.68283C15.803 5.14787 16.5885 7.09528 16.5877 9.16625C16.586 13.44 13.1949 16.9173 9.02896 16.9173C9.02859 16.9173 9.02909 16.9173 9.02896 16.9173H9.02557C7.76055 16.9168 6.51743 16.5911 5.41342 15.974L1.40625 17.0517Z" fill="#64B161"/>
<path d="M1.13281 17.3323L2.24362 13.1719C1.55843 11.9542 1.19802 10.573 1.19852 9.15789C1.20029 4.731 4.71273 1.12939 9.02882 1.12939C11.1233 1.1303 13.0892 1.96643 14.5676 3.48403C16.0459 5.00162 16.8598 7.01888 16.859 9.16434C16.8571 13.5911 13.3442 17.1932 9.02882 17.1932C9.02857 17.1932 9.02895 17.1932 9.02882 17.1932H9.02543C7.71496 17.1927 6.42741 16.8556 5.28375 16.2158L1.13281 17.3323ZM5.47597 14.7624L5.71377 14.9069C6.71279 15.515 7.85822 15.8366 9.02631 15.8373H9.02882C12.6158 15.8373 15.5353 12.8434 15.5368 9.16383C15.5375 7.38065 14.8612 5.70386 13.6324 4.44256C12.4036 3.18126 10.7697 2.48624 9.03122 2.48547C5.44135 2.48547 2.52195 5.47895 2.52057 9.15841C2.52007 10.4193 2.86398 11.6472 3.51556 12.7098L3.6704 12.9623L3.01278 15.4248L5.47597 14.7624Z" fill="white"/>
<path fill-rule="evenodd" clip-rule="evenodd" d="M7.07262 5.80115C6.92609 5.46701 6.77176 5.4603 6.63227 5.45449C6.51822 5.44945 6.38768 5.44971 6.25739 5.44971C6.12697 5.44971 5.91498 5.50006 5.73572 5.70083C5.55634 5.9016 5.05078 6.38707 5.05078 7.37439C5.05078 8.36185 5.75196 9.31586 5.84977 9.44988C5.94759 9.58377 7.20329 11.6746 9.1919 12.479C10.8446 13.1475 11.1809 13.0146 11.5397 12.9811C11.8984 12.9477 12.6972 12.4957 12.8602 12.0271C13.0233 11.5586 13.0233 11.157 12.9744 11.073C12.9254 10.9894 12.795 10.9392 12.5994 10.8389C12.4037 10.7386 11.4418 10.253 11.2625 10.1861C11.0831 10.1191 10.9526 10.0858 10.8222 10.2867C10.6917 10.4873 10.3171 10.9392 10.2029 11.073C10.0887 11.2071 9.97452 11.2239 9.7789 11.1234C9.58327 11.0229 8.95309 10.8111 8.20559 10.1275C7.624 9.59565 7.23124 8.93873 7.11706 8.73783C7.00301 8.53718 7.11517 8.43803 7.20304 8.32841C7.36127 8.131 7.62677 7.77606 7.69197 7.6423C7.75718 7.50828 7.72458 7.39118 7.67574 7.29073C7.62677 7.19041 7.24647 6.19805 7.07262 5.80115Z" fill="white"/>
</svg>
