<svg width="52" height="58" viewBox="0 0 52 58" fill="none" xmlns="http://www.w3.org/2000/svg">
<g clip-path="url(#clip0_2069_4411)">
<path fill-rule="evenodd" clip-rule="evenodd" d="M12.3748 29.8204C11.9069 29.8081 11.5351 29.4239 11.5351 28.9585C11.5351 28.4906 11.9069 28.1089 12.3748 28.0966H39.3209C39.7888 28.1089 40.1606 28.4906 40.1606 28.9585C40.1606 29.4239 39.7887 29.8081 39.3209 29.8204H12.3748ZM8.92709 51.834H42.7688C43.35 51.8389 43.909 51.6123 44.3227 51.2035C44.7315 50.7898 44.9581 50.2308 44.9532 49.6496V8.34858C44.9605 7.76739 44.734 7.20837 44.3227 6.79714C43.9115 6.38588 43.35 6.15687 42.7688 6.16425H8.92709C8.34591 6.15932 7.78689 6.38588 7.3732 6.79468L7.33379 6.83162C6.94716 7.24288 6.73537 7.78465 6.7403 8.34857V49.6521C6.73291 50.2333 6.96193 50.7923 7.37319 51.2036C7.78445 51.6148 8.34349 51.8438 8.92709 51.8365L8.92709 51.834ZM42.7714 53.5578H42.7689C43.8056 53.5627 44.803 53.1539 45.5393 52.4225L45.5443 52.4176C46.2757 51.6837 46.6845 50.6864 46.6795 49.6496V48.6153L48.9033 47.98C49.8859 47.6943 50.7158 47.0294 51.2108 46.1354C51.7082 45.2267 51.8265 44.158 51.5383 43.1631L46.6796 26.1167V8.34857C46.687 7.31182 46.2782 6.31195 45.5418 5.57812C44.8079 4.84178 43.8081 4.433 42.7714 4.44038H40.523L40.2398 3.49964C40.2324 3.46517 40.2225 3.43069 40.2102 3.39867C39.6094 1.37441 37.4964 0.204639 35.4598 0.768562C35.4204 0.775951 35.381 0.788263 35.344 0.800576L22.4472 4.44033H8.92757C7.88836 4.43294 6.88849 4.84174 6.1522 5.57562L6.10295 5.62979C5.40109 6.3587 5.01198 7.33392 5.0169 8.34854V9.38284L2.79317 10.0231C1.80566 10.3112 0.970834 10.9811 0.475816 11.8848C-0.0167106 12.7886 -0.132452 13.8525 0.160599 14.84L5.01936 31.8863L5.0169 49.652C5.00951 50.6887 5.41831 51.6886 6.15464 52.4224C6.88853 53.1588 7.88834 53.5676 8.92509 53.5602H11.171L11.4739 54.5699L11.4764 54.5674C11.762 55.5599 12.4294 56.3971 13.3357 56.8946C14.2394 57.3921 15.3058 57.5078 16.2957 57.2172L29.2493 53.5602L42.7714 53.5578ZM22.9127 53.5578L15.8329 55.5575L15.8304 55.555C15.2689 55.72 14.6631 55.656 14.1484 55.3753C13.651 55.097 13.284 54.634 13.1264 54.0848L12.9688 53.5578L22.9127 53.5578ZM5.0165 25.6018L1.81509 14.37C1.6501 13.8085 1.71412 13.2076 1.99487 12.6954C2.27068 12.198 2.73122 11.831 3.27541 11.6734L5.01648 11.176L5.0165 25.6018ZM28.7833 4.44064L35.863 2.44096H35.8655C36.427 2.27597 37.0304 2.33999 37.5426 2.62074C38.0425 2.89655 38.4094 3.362 38.5671 3.90872L38.7247 4.43818L28.7833 4.44064ZM46.6794 32.3992L49.8808 43.631C50.0458 44.19 49.9818 44.7934 49.7011 45.3056C49.4252 45.803 48.9647 46.1699 48.4205 46.3276L46.6794 46.825L46.6794 32.3992ZM37.9964 37.2505C38.3363 36.9279 38.8707 36.9378 39.2007 37.2727C39.5282 37.6052 39.5282 38.1396 39.2032 38.4744L33.5933 44.008H33.5908C33.2535 44.338 32.7141 44.338 32.3792 44.003L29.0916 40.7154C28.7715 40.3781 28.7764 39.8437 29.1088 39.5112C29.4388 39.1812 29.9732 39.1738 30.3106 39.4964L32.9948 42.1807L37.9989 37.248L37.9964 37.2505ZM41.6658 40.6293C41.6658 44.2149 39.1317 47.3006 35.615 47.9997C32.0984 48.6967 28.5769 46.8152 27.205 43.5005C25.8333 40.1882 26.9932 36.369 29.9755 34.3762C32.9577 32.3834 36.9298 32.7755 39.4667 35.312C40.8778 36.7207 41.6707 38.6341 41.6683 40.6289L41.6658 40.6293ZM40.6832 34.0936C42.7149 36.1277 43.6826 38.9868 43.3059 41.836C42.9291 44.6827 41.2496 47.1946 38.7599 48.6301C36.2726 50.0634 33.2583 50.2604 30.6033 49.1596C27.9511 48.0588 25.9588 45.7858 25.2175 43.0104C24.4763 40.2351 25.0648 37.2724 26.8158 34.9944C28.5667 32.7165 31.2756 31.3817 34.1471 31.3817C36.5999 31.3817 38.952 32.3574 40.6832 34.0936ZM12.3779 15.7076C11.91 15.6953 11.5382 15.3136 11.5382 14.8456C11.5382 14.3777 11.91 13.996 12.3779 13.9837H39.3214C39.7893 13.996 40.1612 14.3777 40.1612 14.8456C40.1612 15.3136 39.7893 15.6953 39.3214 15.7076H12.3779ZM12.3779 22.7678C11.9002 22.7678 11.516 22.3836 11.516 21.9059C11.516 21.4306 11.9001 21.044 12.3779 21.044H39.3214C39.7967 21.044 40.1833 21.4306 40.1833 21.9059C40.1833 22.3836 39.7967 22.7678 39.3214 22.7678H12.3779ZM12.3779 44.0204C11.9002 44.0204 11.516 43.6338 11.516 43.1585C11.516 42.6832 11.9001 42.2965 12.3779 42.2965H20.8762C21.3515 42.2965 21.7381 42.6832 21.7381 43.1585C21.7381 43.6338 21.3515 44.0204 20.8762 44.0204H12.3779ZM12.3779 36.9627C11.91 36.9504 11.5382 36.5687 11.5382 36.1008C11.5382 35.6329 11.91 35.2511 12.3779 35.2388H20.8762C21.1077 35.2339 21.3342 35.3201 21.5017 35.4826C21.6667 35.6452 21.7627 35.8693 21.7627 36.1008C21.7627 36.3347 21.6667 36.5563 21.5017 36.7189C21.3342 36.8814 21.1077 36.9701 20.8762 36.9627L12.3779 36.9627Z" fill="white"/>
</g>
<defs>
<clipPath id="clip0_2069_4411">
<rect width="51.6957" height="58" fill="white"/>
</clipPath>
</defs>
</svg>
