<svg width="43" height="50" viewBox="0 0 43 50" fill="none" xmlns="http://www.w3.org/2000/svg">
<g clip-path="url(#clip0_2069_489)">
<path fill-rule="evenodd" clip-rule="evenodd" d="M36.1006 38.5V46.5141C36.1006 48.3887 34.5973 49.9109 32.7413 49.9109H3.62811C1.77207 49.9109 0.268738 48.3887 0.268738 46.5141V3.48805C0.268738 1.61136 1.77207 0.0913086 3.62811 0.0913086H32.7413C34.5973 0.0913086 36.1006 1.61136 36.1006 3.48805V26.6794C36.1951 26.6114 36.2896 26.5456 36.382 26.484C37.5976 25.6752 39.25 25.7262 40.915 25.9618C41.4106 26.0318 41.799 26.4267 41.8682 26.9277C42.1013 28.6112 42.1517 30.282 41.3538 31.5091C40.936 32.1523 40.3817 32.8168 39.7288 33.4919L42.6094 39.0517C42.8425 39.5017 42.8845 40.0283 42.7249 40.508L42.5108 41.1619C42.3071 41.7754 41.8074 42.2383 41.1838 42.3868C40.5602 42.5354 39.9072 42.3486 39.4558 41.8901L36.1006 38.5ZM33.8624 27.8299V3.48805C33.8624 2.8618 33.3606 2.35653 32.7413 2.35653H3.62811C3.00875 2.35653 2.50694 2.86179 2.50694 3.48805V46.5141C2.50694 47.1383 3.00875 47.6457 3.62811 47.6457H32.7413C33.3606 47.6457 33.8624 47.1383 33.8624 46.5141V38.462C32.8315 39.2602 31.809 40.0499 30.8768 40.81C30.8033 41.4745 30.671 42.6824 30.6143 43.2068C30.5681 43.6293 30.3813 44.022 30.0852 44.3214L29.5771 44.8351C29.1677 45.2491 28.5903 45.4444 28.015 45.3637C27.4419 45.2809 26.94 44.9328 26.6587 44.4211L25.5711 42.4425L23.6143 41.3429C23.1062 41.0584 22.7619 40.5489 22.6821 39.9693C22.6023 39.3898 22.7955 38.806 23.2049 38.392L23.713 37.8782C24.009 37.5789 24.3974 37.39 24.8132 37.3433L27.1837 37.0758C28.244 35.751 29.3504 34.2544 30.4654 32.8022L26.115 28.4034C25.6635 27.947 25.4788 27.2846 25.6237 26.6563C25.7706 26.0257 26.2304 25.5183 26.8372 25.3145L27.4839 25.0959C27.9584 24.9366 28.4791 24.9791 28.9221 25.2147C29.7451 25.6499 32.3381 27.0232 33.8624 27.8299ZM34.2908 35.2647C34.3621 35.2074 34.4314 35.1522 34.5028 35.0948C34.9479 34.7403 35.5862 34.7764 35.9872 35.184L40.3733 39.6189L37.3604 33.7999C37.1273 33.3498 37.2176 32.8 37.5808 32.4518C38.3598 31.7045 39.0233 30.972 39.481 30.2673C39.8715 29.6665 39.861 28.898 39.7645 28.0891C38.9645 27.9936 38.2066 27.9808 37.6124 28.3757C37.0182 28.7727 36.4051 29.3162 35.7773 29.9573C35.6681 30.0677 35.5589 30.1824 35.4497 30.2991C35.1054 30.6664 34.5616 30.7577 34.1186 30.5221L28.3636 27.4735L32.7497 31.9084C33.1507 32.3138 33.1885 32.9592 32.8378 33.4114C31.4731 35.1586 30.1105 37.0268 28.8192 38.6339L28.8171 38.636C28.5126 39.0139 28.0717 39.2559 27.593 39.309L25.1995 39.5786L25.1575 39.619L26.7574 40.517C27.0577 40.6868 27.3075 40.9373 27.4734 41.243L28.3615 42.8586L28.4035 42.8182C28.4728 42.1856 28.6071 40.9628 28.6701 40.3981C28.7226 39.9119 28.962 39.4682 29.3357 39.1583H29.3378C30.8621 37.9057 32.6237 36.5873 34.2908 35.2647ZM9.22552 38.5871C8.60825 38.5871 8.10644 38.0797 8.10644 37.4556C8.10644 36.8293 8.60825 36.3241 9.22552 36.3241H20.4249C21.0421 36.3241 21.5439 36.8293 21.5439 37.4556C21.5439 38.0797 21.0421 38.5871 20.4249 38.5871H9.22552ZM9.22552 34.0589C8.60825 34.0589 8.10644 33.5515 8.10644 32.9273C8.10644 32.3011 8.60825 31.7937 9.22552 31.7937H27.1436C27.7609 31.7937 28.2627 32.3011 28.2627 32.9273C28.2627 33.5515 27.7609 34.0589 27.1436 34.0589H9.22552ZM9.22552 15.9436C9.22552 10.9441 13.24 6.88495 18.1846 6.88495C23.1291 6.88495 27.1436 10.9441 27.1436 15.9436C27.1436 20.9411 23.1291 25.0002 18.1846 25.0002C13.24 25.0002 9.22552 20.941 9.22552 15.9436ZM14.6908 10.1393C13.0615 11.1456 11.8879 12.8333 11.5582 14.8098H13.7397C13.8447 13.0266 14.1932 11.4152 14.6908 10.1393ZM24.8109 14.8098C24.4812 12.8334 23.3075 11.1456 21.6783 10.1393C22.178 11.4152 22.5265 13.0265 22.6315 14.8098H24.8109ZM21.6783 21.7457C23.3075 20.7394 24.4812 19.0517 24.8109 17.0752H22.6315C22.5265 18.8584 22.178 20.4698 21.6783 21.7457ZM11.5582 17.0752C11.8879 19.0516 13.0615 20.7394 14.6908 21.7457C14.1932 20.4698 13.8447 18.8585 13.7397 17.0752H11.5582ZM20.3893 14.8099C20.2676 12.8908 19.8372 11.22 19.201 10.1182C19.0057 9.77854 18.7958 9.50044 18.5585 9.31571C18.4388 9.22018 18.3192 9.15012 18.1848 9.15012C18.0525 9.15012 17.9307 9.22018 17.811 9.31571C17.5759 9.50041 17.3638 9.77852 17.1686 10.1182C16.5324 11.22 16.102 12.8908 15.9802 14.8099H20.3893ZM15.9802 17.0752C16.1019 18.9943 16.5323 20.6651 17.1685 21.7669C17.3638 22.1066 17.5759 22.3847 17.811 22.5694C17.9307 22.6649 18.0525 22.7371 18.1847 22.7371C18.3191 22.7371 18.4388 22.6649 18.5585 22.5694C18.7957 22.3847 19.0057 22.1066 19.2009 21.7669C19.8371 20.6651 20.2676 18.9943 20.3893 17.0752H15.9802Z" fill="#F9F0F0"/>
</g>
<defs>
<clipPath id="clip0_2069_489">
<rect width="43" height="50" fill="white"/>
</clipPath>
</defs>
</svg>
