<svg width="48" height="58" viewBox="0 0 48 58" fill="none" xmlns="http://www.w3.org/2000/svg">
<path d="M44.4083 11.5256L41.3869 8.78448V4.66693C41.3869 2.37456 39.5328 0.510254 37.253 0.510254H26.8819C24.6021 0.510254 22.748 2.37456 22.748 4.66693V8.78678L19.7128 11.5256C17.6276 13.4129 16.4327 16.1127 16.4327 18.932V27.5468C16.4327 28.1567 16.9249 28.6538 17.5337 28.6538C18.1403 28.6538 18.6347 28.159 18.6347 27.5468V18.932C18.6347 16.7385 19.5663 14.6395 21.1846 13.1688L24.2587 10.3954H39.8808L42.9434 13.1711C44.5731 14.6349 45.5116 16.7363 45.5116 18.932V41.7843C45.5116 43.239 44.326 44.4243 42.8702 44.4243H32.9268C32.3202 44.4243 31.8258 44.9191 31.8258 45.5313C31.8258 46.1413 32.3179 46.6384 32.9268 46.6384H42.8702C45.5414 46.6384 47.7136 44.4634 47.7136 41.7866V18.9343C47.7136 16.1079 46.5119 13.4059 44.4152 11.5279L44.4083 11.5256ZM26.8795 2.71995H37.2506C38.3173 2.71995 39.1848 3.59457 39.1848 4.66481V8.17701H24.9451V4.66481C24.9451 3.59227 25.8128 2.71995 26.8795 2.71995Z" fill="white"/>
<path d="M14.3267 29.2802C11.1222 26.0557 5.89867 26.0557 2.69866 29.2802C-0.508197 32.5025 -0.508197 37.7501 2.69866 40.9724L15.7184 54.064C17.3207 55.6751 19.4242 56.4807 21.5324 56.4807C23.6406 56.4807 25.7441 55.6751 27.3487 54.064C30.5532 50.8395 30.5532 45.5942 27.3464 42.3718L14.3267 29.2802ZM2.49943 35.1263C2.49943 33.5037 3.12203 31.9823 4.25278 30.8453C5.38582 29.7083 6.89652 29.0823 8.51024 29.0823C10.124 29.0823 11.6392 29.7083 12.77 30.8453L18.5015 36.6085L9.98437 45.1726L4.25284 39.4095C3.12209 38.2702 2.49943 36.7512 2.49943 35.1263ZM25.7919 52.4984C23.4411 54.8622 19.6234 54.8599 17.2748 52.5007L11.5432 46.7376L20.0604 38.1735L25.7919 43.9366C28.1381 46.298 28.1381 50.1392 25.7919 52.5007V52.4984Z" fill="white"/>
<path d="M8.4055 37.3217L7.36862 36.2791C6.75973 35.6646 6.75973 34.5874 7.37091 33.9729C7.80124 33.5402 7.79895 32.8405 7.36862 32.4078C6.93829 31.9751 6.24244 31.9775 5.81216 32.4102C4.34951 33.8832 4.34951 36.3712 5.81444 37.8442L6.85133 38.8868C7.06649 39.1032 7.34803 39.2113 7.62956 39.2113C7.91108 39.2113 8.19264 39.1032 8.40779 38.8868C8.83812 38.4564 8.83812 37.7544 8.40779 37.3241L8.4055 37.3217Z" fill="white"/>
<path d="M34.861 16.7017H29.2714C28.6648 16.7017 28.1704 17.1965 28.1704 17.8087V22.3382H23.668C23.0614 22.3382 22.567 22.8331 22.567 23.4453V29.0658C22.567 29.6757 23.0591 30.1729 23.668 30.1729H28.1704V34.7001C28.1704 35.31 28.6625 35.8071 29.2714 35.8071H34.861C35.4676 35.8071 35.962 35.3123 35.962 34.7001V30.1729H40.4667C41.0733 30.1729 41.5677 29.678 41.5677 29.0658V23.4453C41.5677 22.8354 41.0756 22.3382 40.4667 22.3382H35.962V17.8087C35.962 17.1988 35.4699 16.7017 34.861 16.7017ZM39.3634 24.5475V27.9562H34.8588C34.2522 27.9562 33.7578 28.451 33.7578 29.0633V33.5905H30.3678V29.0633C30.3678 28.4533 29.8757 27.9562 29.2668 27.9562H24.7644V24.5475H29.2668C29.8734 24.5475 30.3678 24.0527 30.3678 23.4405V18.9109H33.7578V23.4405C33.7578 24.0504 34.2499 24.5475 34.8588 24.5475H39.3634Z" fill="white"/>
</svg>
