<svg width="43" height="50" viewBox="0 0 43 50" fill="none" xmlns="http://www.w3.org/2000/svg">
<g clip-path="url(#clip0_2069_10181)">
<path d="M40.42 18.9655H39.56V16.3793C39.56 15.922 39.3788 15.4835 39.0562 15.1602C38.7337 14.8368 38.2962 14.6552 37.84 14.6552V7.75862C37.8377 5.70161 37.0215 3.7295 35.5705 2.27497C34.1195 0.820438 32.1521 0.00228177 30.1 0H12.9C10.848 0.00250944 8.88075 0.820739 7.42976 2.27522C5.97877 3.7297 5.1625 5.70168 5.16 7.75862V14.6552C4.70383 14.6552 4.26634 14.8368 3.94378 15.1602C3.62121 15.4835 3.44 15.922 3.44 16.3793V18.9655H2.58C1.89574 18.9655 1.23951 19.238 0.755665 19.723C0.271821 20.208 0 20.8658 0 21.5517V47.4138C0 48.0997 0.271821 48.7575 0.755665 49.2425C1.23951 49.7275 1.89574 50 2.58 50H40.42C41.1043 50 41.7605 49.7275 42.2443 49.2425C42.7282 48.7575 43 48.0997 43 47.4138V21.5517C43 20.8658 42.7282 20.208 42.2443 19.723C41.7605 19.238 41.1043 18.9655 40.42 18.9655ZM37.84 16.3793V18.9655H36.12V16.3793H37.84ZM6.88 7.75862C6.88182 6.15874 7.51665 4.6249 8.64523 3.49361C9.7738 2.36232 11.304 1.72596 12.9 1.72414H30.1C31.696 1.72596 33.2262 2.36232 34.3548 3.49361C35.4833 4.6249 36.1182 6.15874 36.12 7.75862V14.6552C35.6638 14.6552 35.2263 14.8368 34.9038 15.1602C34.5812 15.4835 34.4 15.922 34.4 16.3793V18.9655H30.1V12.8966C30.0978 11.9073 29.7539 10.9494 29.1268 10.1856C28.4996 9.42184 27.628 8.89932 26.66 8.7069V7.75862C26.66 7.52999 26.5694 7.31072 26.4081 7.14905C26.2468 6.98738 26.0281 6.89655 25.8 6.89655H17.2C16.9719 6.89655 16.7532 6.98738 16.5919 7.14905C16.4306 7.31072 16.34 7.52999 16.34 7.75862V8.7069C15.3716 8.89941 14.4996 9.4223 13.8724 10.1866C13.2452 10.9509 12.9016 11.9095 12.9 12.8991V18.9655H8.6V16.3793C8.6 15.922 8.41879 15.4835 8.09622 15.1602C7.77366 14.8368 7.33617 14.6552 6.88 14.6552V7.75862ZM12.04 20.6897H15.48V22.4138H12.04V20.6897ZM16.34 18.9655H14.62V12.8966C14.6206 12.3656 14.7867 11.8481 15.0951 11.4164C15.4035 10.9847 15.8387 10.6604 16.34 10.4888V11.2069C16.34 11.4355 16.4306 11.6548 16.5919 11.8165C16.7532 11.9781 16.9719 12.069 17.2 12.069H25.8C26.0281 12.069 26.2468 11.9781 26.4081 11.8165C26.5694 11.6548 26.66 11.4355 26.66 11.2069V10.4828C27.1615 10.6558 27.5967 10.9813 27.905 11.414C28.2133 11.8466 28.3794 12.3649 28.38 12.8966V18.9655H16.34ZM24.94 9.48276V10.3448H18.06V8.62069H24.94V9.48276ZM27.52 20.6897H30.96V22.4138H27.52V20.6897ZM5.16 16.3793H6.88V18.9655H5.16V16.3793ZM41.28 47.4138C41.28 47.6424 41.1894 47.8617 41.0281 48.0234C40.8668 48.185 40.6481 48.2759 40.42 48.2759H2.58C2.35191 48.2759 2.13317 48.185 1.97189 48.0234C1.81061 47.8617 1.72 47.6424 1.72 47.4138V21.5517C1.72 21.3231 1.81061 21.1038 1.97189 20.9421C2.13317 20.7805 2.35191 20.6897 2.58 20.6897H10.32V22.4138C10.32 22.8711 10.5012 23.3096 10.8238 23.6329C11.1463 23.9563 11.5838 24.1379 12.04 24.1379H15.48C15.9362 24.1379 16.3737 23.9563 16.6962 23.6329C17.0188 23.3096 17.2 22.8711 17.2 22.4138V20.6897H25.8V22.4138C25.8 22.8711 25.9812 23.3096 26.3038 23.6329C26.6263 23.9563 27.0638 24.1379 27.52 24.1379H30.96C31.4162 24.1379 31.8537 23.9563 32.1762 23.6329C32.4988 23.3096 32.68 22.8711 32.68 22.4138V20.6897H40.42C40.6481 20.6897 40.8668 20.7805 41.0281 20.9421C41.1894 21.1038 41.28 21.3231 41.28 21.5517V47.4138ZM36.12 25.8621H6.88C6.42383 25.8621 5.98634 26.0437 5.66378 26.3671C5.34121 26.6904 5.16 27.1289 5.16 27.5862V33.6207C5.1622 34.1537 5.32863 34.673 5.63652 35.1075C5.9444 35.542 6.3787 35.8706 6.88 36.0483V43.1034C6.88 43.5607 7.06121 43.9993 7.38378 44.3226C7.70634 44.6459 8.14383 44.8276 8.6 44.8276H34.4C34.8562 44.8276 35.2937 44.6459 35.6162 44.3226C35.9388 43.9993 36.12 43.5607 36.12 43.1034V36.0483C36.6213 35.8706 37.0556 35.542 37.3635 35.1075C37.6714 34.673 37.8378 34.1537 37.84 33.6207V27.5862C37.84 27.1289 37.6588 26.6904 37.3362 26.3671C37.0137 26.0437 36.5762 25.8621 36.12 25.8621ZM34.4 43.1034H8.6V36.2069H12.04V38.7931C12.04 39.479 12.3118 40.1368 12.7957 40.6218C13.2795 41.1068 13.9357 41.3793 14.62 41.3793C15.3043 41.3793 15.9605 41.1068 16.4443 40.6218C16.9282 40.1368 17.2 39.479 17.2 38.7931V36.2069H25.8V38.7931C25.8 39.479 26.0718 40.1368 26.5557 40.6218C27.0395 41.1068 27.6957 41.3793 28.38 41.3793C29.0643 41.3793 29.7205 41.1068 30.2043 40.6218C30.6882 40.1368 30.96 39.479 30.96 38.7931V36.2069H34.4V43.1034ZM13.76 36.2069H15.48V38.7931C15.48 39.0217 15.3894 39.241 15.2281 39.4027C15.0668 39.5643 14.8481 39.6552 14.62 39.6552C14.3919 39.6552 14.1732 39.5643 14.0119 39.4027C13.8506 39.241 13.76 39.0217 13.76 38.7931V36.2069ZM27.52 36.2069H29.24V38.7931C29.24 39.0217 29.1494 39.241 28.9881 39.4027C28.8268 39.5643 28.6081 39.6552 28.38 39.6552C28.1519 39.6552 27.9332 39.5643 27.7719 39.4027C27.6106 39.241 27.52 39.0217 27.52 38.7931V36.2069ZM36.12 33.6207C36.12 33.8493 36.0294 34.0686 35.8681 34.2303C35.7068 34.3919 35.4881 34.4828 35.26 34.4828H7.74C7.51191 34.4828 7.29317 34.3919 7.13189 34.2303C6.97061 34.0686 6.88 33.8493 6.88 33.6207V27.5862H36.12V33.6207Z" fill="#FFFBFB"/>
</g>
<defs>
<clipPath id="clip0_2069_10181">
<rect width="43" height="50" fill="white"/>
</clipPath>
</defs>
</svg>
