<svg width="25" height="24" viewBox="0 0 25 24" fill="none" xmlns="http://www.w3.org/2000/svg">
<g clip-path="url(#clip0_2123_41989)">
<path d="M1.05754 24C0.922779 24 0.791675 23.9467 0.694446 23.8484C0.566272 23.7188 0.516834 23.5305 0.56499 23.3546L2.12523 17.657C1.15386 15.9005 0.641712 13.9135 0.642444 11.8964C0.645191 5.33661 5.98345 0 12.5427 0C15.7241 0.00128174 18.7135 1.24054 20.9604 3.48907C23.2069 5.73779 24.4436 8.72699 24.4427 11.9059C24.4397 18.4658 19.1015 23.8028 12.5427 23.8028C12.5427 23.8028 12.5377 23.8028 12.5375 23.8028C10.6217 23.8021 8.72234 23.3351 7.03118 22.4507L1.187 23.9833C1.14415 23.9945 1.10057 24 1.05754 24Z" fill="#E5E5E5"/>
<path d="M1.05762 23.4894L2.67334 17.5892C1.6767 15.8623 1.15247 13.9034 1.1532 11.8966C1.15576 5.61847 6.26477 0.510742 12.5427 0.510742C15.5892 0.512024 18.4488 1.69781 20.5992 3.85004C22.7494 6.00226 23.9332 8.8631 23.9321 11.9058C23.9293 18.1837 18.8196 23.2922 12.5427 23.2922C12.5429 23.2922 12.5424 23.2922 12.5427 23.2922H12.5378C10.6317 23.2914 8.75885 22.8134 7.09534 21.9061L1.05762 23.4894ZM7.37494 19.8448L7.72083 20.0497C9.17395 20.9122 10.84 21.3683 12.5391 21.3692H12.5427C17.7601 21.3692 22.0067 17.1234 22.0089 11.905C22.0098 9.37616 21.0262 6.99817 19.2389 5.20941C17.4514 3.42065 15.0749 2.435 12.5462 2.4339C7.32458 2.4339 3.07819 6.6792 3.07617 11.8973C3.07544 13.6855 3.57568 15.4269 4.52344 16.9338L4.74866 17.292L3.79211 20.7842L7.37494 19.8448Z" fill="white"/>
<path d="M1.45361 23.0914L3.01349 17.3952C2.05109 15.7282 1.54517 13.8369 1.54572 11.8998C1.5481 5.83905 6.48041 0.908203 12.5406 0.908203C15.4821 0.909485 18.2427 2.05426 20.3182 4.13196C22.3943 6.20966 23.5369 8.97144 23.5358 11.9084C23.5332 17.9694 18.6007 22.9008 12.5412 22.9008C12.5414 22.9008 12.5406 22.9008 12.5412 22.9008H12.5363C10.6962 22.9001 8.88806 22.4383 7.28223 21.563L1.45361 23.0914Z" fill="#64B161"/>
<path d="M1.05762 23.4894L2.67334 17.5892C1.6767 15.8623 1.15247 13.9034 1.1532 11.8966C1.15576 5.61847 6.26477 0.510742 12.5427 0.510742C15.5892 0.512024 18.4488 1.69781 20.5992 3.85004C22.7494 6.00226 23.9332 8.8631 23.9321 11.9058C23.9293 18.1837 18.8196 23.2922 12.5427 23.2922C12.5429 23.2922 12.5424 23.2922 12.5427 23.2922H12.5378C10.6317 23.2914 8.75885 22.8134 7.09534 21.9061L1.05762 23.4894ZM7.37494 19.8448L7.72083 20.0497C9.17395 20.9122 10.84 21.3683 12.5391 21.3692H12.5427C17.7601 21.3692 22.0067 17.1234 22.0089 11.905C22.0098 9.37616 21.0262 6.99817 19.2389 5.20941C17.4514 3.42065 15.0749 2.435 12.5462 2.4339C7.32458 2.4339 3.07819 6.6792 3.07617 11.8973C3.07544 13.6855 3.57568 15.4269 4.52344 16.9338L4.74866 17.292L3.79211 20.7842L7.37494 19.8448Z" fill="white"/>
<path fill-rule="evenodd" clip-rule="evenodd" d="M9.69623 7.13611C9.48309 6.66223 9.25861 6.65271 9.05573 6.64447C8.88983 6.63733 8.69995 6.6377 8.51044 6.6377C8.32074 6.6377 8.01239 6.70911 7.75165 6.99384C7.49072 7.27857 6.75537 7.96704 6.75537 9.36725C6.75537 10.7676 7.77527 12.1206 7.91754 12.3107C8.05981 12.5006 9.88629 15.4658 12.7788 16.6065C15.1828 17.5546 15.6719 17.366 16.1937 17.3186C16.7156 17.2712 17.8774 16.6301 18.1145 15.9656C18.3518 15.3012 18.3518 14.7317 18.2806 14.6125C18.2094 14.494 18.0197 14.4228 17.7351 14.2805C17.4506 14.1382 16.0515 13.4496 15.7905 13.3547C15.5296 13.2597 15.3399 13.2125 15.1502 13.4974C14.9603 13.7819 14.4154 14.4228 14.2493 14.6125C14.0833 14.8027 13.9172 14.8265 13.6326 14.6841C13.3481 14.5414 12.4315 14.2412 11.3442 13.2716C10.4982 12.5174 9.92694 11.5858 9.76086 11.3008C9.59497 11.0163 9.75812 10.8757 9.88593 10.7202C10.1161 10.4403 10.5023 9.93689 10.5971 9.7472C10.692 9.55713 10.6445 9.39106 10.5735 9.2486C10.5023 9.10633 9.9491 7.69898 9.69623 7.13611Z" fill="white"/>
</g>
<defs>
<clipPath id="clip0_2123_41989">
<rect width="24" height="24" fill="white" transform="translate(0.5)"/>
</clipPath>
</defs>
</svg>
