<svg width="14" height="14" viewBox="0 0 14 14" fill="none" xmlns="http://www.w3.org/2000/svg">
<g clip-path="url(#clip0_2378_9850)">
<path d="M6.99992 0.583496C3.46175 0.583496 0.583252 3.462 0.583252 7.00016C0.583252 10.5383 3.46175 13.4168 6.99992 13.4168C10.5381 13.4168 13.4166 10.5383 13.4166 7.00016C13.4166 3.462 10.5381 0.583496 6.99992 0.583496Z" fill="#E97737"/>
<path d="M10.3596 7.37963L8.60958 9.4213C8.49422 9.55574 8.33073 9.62495 8.16638 9.62495C8.03208 9.62495 7.89707 9.57881 7.78699 9.48453C7.54246 9.2749 7.51412 8.90661 7.72376 8.66194L8.64833 7.58329H4.08333C3.76119 7.58329 3.5 7.3221 3.5 6.99995C3.5 6.67781 3.76119 6.41662 4.08333 6.41662H8.64833L7.72376 5.33797C7.51412 5.0933 7.54246 4.72501 7.78699 4.51538C8.03166 4.30574 8.39994 4.33422 8.60958 4.57861L10.3596 6.62027C10.5469 6.83874 10.5469 7.16117 10.3596 7.37963Z" fill="white"/>
</g>
<defs>
<clipPath id="clip0_2378_9850">
<rect width="14" height="14" fill="white"/>
</clipPath>
</defs>
</svg>
