<svg width="36" height="36" viewBox="0 0 36 36" fill="none" xmlns="http://www.w3.org/2000/svg">
<g clip-path="url(#clip0_2378_9170)">
<path d="M28.525 30.8938V34.9476H24.313V30.8938" stroke="#E97737" stroke-width="1.5" stroke-miterlimit="10" stroke-linecap="round" stroke-linejoin="round"/>
<path d="M11.6866 30.8938V34.9476H7.47461V30.8938" stroke="#E97737" stroke-width="1.5" stroke-miterlimit="10" stroke-linecap="round" stroke-linejoin="round"/>
<path d="M28.4077 30.8542H7.55303C6.35336 30.8542 5.38086 29.8817 5.38086 28.682V7.05835H30.5799V28.682C30.5799 29.8817 29.6074 30.8542 28.4077 30.8542Z" stroke="#E97737" stroke-width="1.5" stroke-miterlimit="10" stroke-linecap="round" stroke-linejoin="round"/>
<path d="M5.38086 7.05831V4.4402C5.38086 2.56922 6.89759 1.05249 8.7685 1.05249H27.1921C29.0631 1.05249 30.5798 2.56922 30.5798 4.4402V7.05831" stroke="#E97737" stroke-width="1.5" stroke-miterlimit="10" stroke-linecap="round" stroke-linejoin="round"/>
<path d="M5.38086 18.4949L12.059 20.5997L13.4622 22.5141H22.4986L23.9018 20.5997L30.5799 18.4949" stroke="#E97737" stroke-width="1.5" stroke-miterlimit="10" stroke-linecap="round" stroke-linejoin="round"/>
<path d="M13.7915 26.6953H22.2084" stroke="#E97737" stroke-width="1.5" stroke-miterlimit="10" stroke-linecap="round" stroke-linejoin="round"/>
<path d="M30.5767 7.05835L34.8895 8.46156V12.5904" stroke="#E97737" stroke-width="1.5" stroke-miterlimit="10" stroke-linecap="round" stroke-linejoin="round"/>
<path d="M5.4232 7.05835L1.11035 8.46156V12.5904" stroke="#E97737" stroke-width="1.5" stroke-miterlimit="10" stroke-linecap="round" stroke-linejoin="round"/>
<path d="M26.4199 26.6399V26.6732" stroke="#E97737" stroke-width="1.5" stroke-miterlimit="10" stroke-linecap="round" stroke-linejoin="round"/>
<path d="M9.58105 26.6399V26.6732" stroke="#E97737" stroke-width="1.5" stroke-miterlimit="10" stroke-linecap="round" stroke-linejoin="round"/>
</g>
<defs>
<clipPath id="clip0_2378_9170">
<rect width="36" height="36" fill="white"/>
</clipPath>
</defs>
</svg>
