<svg width="12" height="15" viewBox="0 0 12 15" fill="none" xmlns="http://www.w3.org/2000/svg">
<path d="M1.27606 14.5C0.919471 14.5 0.617647 14.3718 0.370588 14.1155C0.123529 13.8592 0 13.546 0 13.176V3.3732C0 3.00322 0.123529 2.69006 0.370588 2.43372C0.617647 2.17738 0.919471 2.04921 1.27606 2.04921H2.25335V0.5H3.33935V2.04921H8.68782V0.5H9.74665V2.04921H10.7239C11.0805 2.04921 11.3824 2.17738 11.6294 2.43372C11.8765 2.69006 12 3.00322 12 3.3732V13.176C12 13.546 11.8765 13.8592 11.6294 14.1155C11.3824 14.3718 11.0805 14.5 10.7239 14.5H1.27606ZM1.27606 13.4014H10.7239C10.7783 13.4014 10.8281 13.3779 10.8732 13.3309C10.9185 13.284 10.9412 13.2324 10.9412 13.176V6.3028H1.05882V13.176C1.05882 13.2324 1.08147 13.284 1.12676 13.3309C1.17194 13.3779 1.22171 13.4014 1.27606 13.4014ZM1.05882 5.2042H10.9412V3.3732C10.9412 3.31681 10.9185 3.26517 10.8732 3.2183C10.8281 3.1713 10.7783 3.14781 10.7239 3.14781H1.27606C1.22171 3.14781 1.17194 3.1713 1.12676 3.2183C1.08147 3.26517 1.05882 3.31681 1.05882 3.3732V5.2042ZM6 9.0634C5.82718 9.0634 5.67988 9.00023 5.55812 8.87389C5.43647 8.74767 5.37565 8.59485 5.37565 8.41541C5.37565 8.23609 5.43647 8.08326 5.55812 7.95693C5.67988 7.83071 5.82718 7.7676 6 7.7676C6.17282 7.7676 6.32012 7.83071 6.44188 7.95693C6.56353 8.08326 6.62435 8.23609 6.62435 8.41541C6.62435 8.59485 6.56353 8.74767 6.44188 8.87389C6.32012 9.00023 6.17282 9.0634 6 9.0634ZM3.17647 9.0634C3.00365 9.0634 2.85635 9.00023 2.73459 8.87389C2.61294 8.74767 2.55212 8.59485 2.55212 8.41541C2.55212 8.23609 2.61294 8.08326 2.73459 7.95693C2.85635 7.83071 3.00365 7.7676 3.17647 7.7676C3.34929 7.7676 3.49659 7.83071 3.61835 7.95693C3.74 8.08326 3.80082 8.23609 3.80082 8.41541C3.80082 8.59485 3.74 8.74767 3.61835 8.87389C3.49659 9.00023 3.34929 9.0634 3.17647 9.0634ZM8.82353 9.0634C8.65071 9.0634 8.50341 9.00023 8.38165 8.87389C8.26 8.74767 8.19918 8.59485 8.19918 8.41541C8.19918 8.23609 8.26 8.08326 8.38165 7.95693C8.50341 7.83071 8.65071 7.7676 8.82353 7.7676C8.99635 7.7676 9.14365 7.83071 9.26541 7.95693C9.38706 8.08326 9.44788 8.23609 9.44788 8.41541C9.44788 8.59485 9.38706 8.74767 9.26541 8.87389C9.14365 9.00023 8.99635 9.0634 8.82353 9.0634ZM6 11.9366C5.82718 11.9366 5.67988 11.8734 5.55812 11.7471C5.43647 11.6209 5.37565 11.4681 5.37565 11.2888C5.37565 11.1094 5.43647 10.9565 5.55812 10.8303C5.67988 10.704 5.82718 10.6408 6 10.6408C6.17282 10.6408 6.32012 10.704 6.44188 10.8303C6.56353 10.9565 6.62435 11.1094 6.62435 11.2888C6.62435 11.4681 6.56353 11.6209 6.44188 11.7471C6.32012 11.8734 6.17282 11.9366 6 11.9366ZM3.17647 11.9366C3.00365 11.9366 2.85635 11.8734 2.73459 11.7471C2.61294 11.6209 2.55212 11.4681 2.55212 11.2888C2.55212 11.1094 2.61294 10.9565 2.73459 10.8303C2.85635 10.704 3.00365 10.6408 3.17647 10.6408C3.34929 10.6408 3.49659 10.704 3.61835 10.8303C3.74 10.9565 3.80082 11.1094 3.80082 11.2888C3.80082 11.4681 3.74 11.6209 3.61835 11.7471C3.49659 11.8734 3.34929 11.9366 3.17647 11.9366ZM8.82353 11.9366C8.65071 11.9366 8.50341 11.8734 8.38165 11.7471C8.26 11.6209 8.19918 11.4681 8.19918 11.2888C8.19918 11.1094 8.26 10.9565 8.38165 10.8303C8.50341 10.704 8.65071 10.6408 8.82353 10.6408C8.99635 10.6408 9.14365 10.704 9.26541 10.8303C9.38706 10.9565 9.44788 11.1094 9.44788 11.2888C9.44788 11.4681 9.38706 11.6209 9.26541 11.7471C9.14365 11.8734 8.99635 11.9366 8.82353 11.9366Z" fill="#5A5A5A"/>
</svg>
