<svg width="37" height="36" viewBox="0 0 37 36" fill="none" xmlns="http://www.w3.org/2000/svg">
<path d="M15.3503 34.9453H2.86523V15.0315C2.86523 11.5839 5.66009 8.78906 9.10772 8.78906C12.5554 8.78906 15.3502 11.5839 15.3502 15.0315V34.9453H15.3503Z" stroke="#E97737" stroke-width="1.5" stroke-miterlimit="10"/>
<path d="M15.3503 30.7266H2.86523" stroke="#E97737" stroke-width="1.5" stroke-miterlimit="10"/>
<path d="M9.10791 8.78906C10.2729 8.78906 11.2173 7.84466 11.2173 6.67969C11.2173 5.51471 10.2729 4.57031 9.10791 4.57031C7.94293 4.57031 6.99854 5.51471 6.99854 6.67969C6.99854 7.84466 7.94293 8.78906 9.10791 8.78906Z" stroke="#E97737" stroke-width="1.5" stroke-miterlimit="10"/>
<path d="M2.86523 15.0315H15.3503" stroke="#E97737" stroke-width="1.5" stroke-miterlimit="10"/>
<path d="M9.10791 4.57031V1.05469" stroke="#E97737" stroke-width="1.5" stroke-miterlimit="10"/>
<path d="M6.34033 1.05469H11.8751" stroke="#E97737" stroke-width="1.5" stroke-miterlimit="10"/>
<path d="M30.2008 12.5156H29.3189C26.9564 12.5156 25.1269 10.4479 25.4146 8.10295L25.8555 4.50928C26.0976 2.5368 27.7727 1.05469 29.7599 1.05469C31.7472 1.05469 33.4222 2.5368 33.6642 4.50921L34.1052 8.10288C34.393 10.4479 32.5633 12.5156 30.2008 12.5156Z" stroke="#E97737" stroke-width="1.5" stroke-miterlimit="10"/>
<path d="M29.76 12.5156V29.85C29.76 32.6641 27.4787 34.9453 24.6646 34.9453C21.8505 34.9453 19.5693 32.664 19.5693 29.85V10.8984C19.5693 8.56849 17.6805 6.67969 15.3505 6.67969H11.2173" stroke="#E97737" stroke-width="1.5" stroke-miterlimit="10"/>
<path d="M29.7598 4.68042V8.88989" stroke="#E97737" stroke-width="1.5" stroke-miterlimit="10"/>
</svg>
