<svg width="17" height="16" viewBox="0 0 17 16" fill="none" xmlns="http://www.w3.org/2000/svg">
<path d="M8.50003 14.0084C7.4486 14.0152 6.41275 13.7542 5.49003 13.2501C5.47155 13.2424 5.45172 13.2384 5.4317 13.2384C5.41168 13.2384 5.39185 13.2424 5.37337 13.2501L3.3142 13.8334C3.18817 13.8735 3.05356 13.8783 2.92501 13.8472C2.79645 13.8162 2.67887 13.7505 2.58505 13.6572C2.49123 13.564 2.42477 13.4469 2.39288 13.3185C2.361 13.1902 2.36491 13.0555 2.4042 12.9292L3.02253 10.8584C3.03596 10.8227 3.03596 10.7833 3.02253 10.7476C2.39014 9.59176 2.13786 8.26613 2.30149 6.95883C2.46511 5.65152 3.03634 4.42897 3.93409 3.46467C4.83184 2.50038 6.01051 1.84334 7.3028 1.58682C8.59509 1.33029 9.93535 1.48731 11.1334 2.03558C12.3314 2.58385 13.3262 3.49553 13.9768 4.64121C14.6274 5.7869 14.9005 7.10838 14.7576 8.41811C14.6146 9.72783 14.0628 10.9593 13.1803 11.9376C12.2979 12.9159 11.1298 13.5915 9.8417 13.8684C9.40034 13.9602 8.95083 14.0071 8.50003 14.0084ZM5.4142 12.3342C5.58738 12.3366 5.75745 12.3806 5.91003 12.4626C6.66493 12.8766 7.50794 13.1039 8.36863 13.1256C9.22932 13.1473 10.0827 12.9627 10.8575 12.5873C11.6323 12.2119 12.306 11.6565 12.8224 10.9675C13.3387 10.2786 13.6827 9.4761 13.8256 8.62708C13.9685 7.77805 13.9062 6.90716 13.6438 6.08715C13.3814 5.26713 12.9266 4.52181 12.3174 3.91343C11.7082 3.30506 10.9623 2.8513 10.1419 2.59006C9.3215 2.32881 8.45053 2.26767 7.6017 2.41174C6.75123 2.55304 5.94713 2.8965 5.25702 3.41323C4.56692 3.92996 4.01099 4.60485 3.63599 5.38115C3.26099 6.15744 3.07788 7.01244 3.10208 7.87422C3.12628 8.73601 3.35707 9.57938 3.77503 10.3334C3.84075 10.4524 3.88232 10.5833 3.89733 10.7184C3.91235 10.8536 3.90052 10.9904 3.86253 11.1209L3.32003 12.9234L5.12253 12.3809C5.21694 12.3511 5.31522 12.3354 5.4142 12.3342Z" fill="#1C8CA7" stroke="#1C8CA7" stroke-width="0.2"/>
<path d="M6.16667 8.72884C6.56937 8.72884 6.89583 8.40238 6.89583 7.99967C6.89583 7.59697 6.56937 7.27051 6.16667 7.27051C5.76396 7.27051 5.4375 7.59697 5.4375 7.99967C5.4375 8.40238 5.76396 8.72884 6.16667 8.72884Z" fill="#1C8CA7" stroke="#1C8CA7" stroke-width="0.2"/>
<path d="M8.50016 8.72884C8.90287 8.72884 9.22933 8.40238 9.22933 7.99967C9.22933 7.59697 8.90287 7.27051 8.50016 7.27051C8.09746 7.27051 7.771 7.59697 7.771 7.99967C7.771 8.40238 8.09746 8.72884 8.50016 8.72884Z" fill="#1C8CA7" stroke="#1C8CA7" stroke-width="0.2"/>
<path d="M10.8332 8.72884C11.2359 8.72884 11.5623 8.40238 11.5623 7.99967C11.5623 7.59697 11.2359 7.27051 10.8332 7.27051C10.4305 7.27051 10.104 7.59697 10.104 7.99967C10.104 8.40238 10.4305 8.72884 10.8332 8.72884Z" fill="#1C8CA7" stroke="#1C8CA7" stroke-width="0.2"/>
</svg>
