<svg width="16" height="16" viewBox="0 0 16 16" fill="none" xmlns="http://www.w3.org/2000/svg">
<path d="M8.00003 14.0084C6.9486 14.0152 5.91275 13.7542 4.99003 13.2501C4.97155 13.2424 4.95172 13.2384 4.9317 13.2384C4.91168 13.2384 4.89185 13.2424 4.87337 13.2501L2.8142 13.8334C2.68817 13.8735 2.55356 13.8783 2.42501 13.8472C2.29645 13.8162 2.17887 13.7505 2.08505 13.6572C1.99123 13.564 1.92477 13.4469 1.89288 13.3185C1.861 13.1902 1.86491 13.0555 1.9042 12.9292L2.52253 10.8584C2.53596 10.8227 2.53596 10.7833 2.52253 10.7476C1.89014 9.59176 1.63786 8.26613 1.80149 6.95883C1.96511 5.65152 2.53634 4.42897 3.43409 3.46467C4.33184 2.50038 5.51051 1.84334 6.8028 1.58682C8.09509 1.33029 9.43535 1.48731 10.6334 2.03558C11.8314 2.58385 12.8262 3.49553 13.4768 4.64121C14.1274 5.7869 14.4005 7.10838 14.2576 8.41811C14.1146 9.72783 13.5628 10.9593 12.6803 11.9376C11.7979 12.9159 10.6298 13.5915 9.3417 13.8684C8.90034 13.9602 8.45083 14.0071 8.00003 14.0084ZM4.9142 12.3342C5.08738 12.3366 5.25745 12.3806 5.41003 12.4626C6.16493 12.8766 7.00794 13.1039 7.86863 13.1256C8.72932 13.1473 9.58271 12.9627 10.3575 12.5873C11.1323 12.2119 11.806 11.6565 12.3224 10.9675C12.8387 10.2786 13.1827 9.4761 13.3256 8.62708C13.4685 7.77805 13.4062 6.90716 13.1438 6.08715C12.8814 5.26713 12.4266 4.52181 11.8174 3.91343C11.2082 3.30506 10.4623 2.8513 9.64188 2.59006C8.8215 2.32881 7.95053 2.26767 7.1017 2.41174C6.25123 2.55304 5.44713 2.8965 4.75702 3.41323C4.06692 3.92996 3.51099 4.60485 3.13599 5.38115C2.76099 6.15744 2.57788 7.01244 2.60208 7.87422C2.62628 8.73601 2.85707 9.57938 3.27503 10.3334C3.34075 10.4524 3.38232 10.5833 3.39733 10.7184C3.41235 10.8536 3.40052 10.9904 3.36253 11.1209L2.82003 12.9234L4.62253 12.3809C4.71694 12.3511 4.81522 12.3354 4.9142 12.3342Z" fill="#1C8CA7" stroke="#1C8CA7" stroke-width="0.2"/>
<path d="M5.66667 8.72884C6.06937 8.72884 6.39583 8.40238 6.39583 7.99967C6.39583 7.59697 6.06937 7.27051 5.66667 7.27051C5.26396 7.27051 4.9375 7.59697 4.9375 7.99967C4.9375 8.40238 5.26396 8.72884 5.66667 8.72884Z" fill="#1C8CA7" stroke="#1C8CA7" stroke-width="0.2"/>
<path d="M8.00016 8.72884C8.40287 8.72884 8.72933 8.40238 8.72933 7.99967C8.72933 7.59697 8.40287 7.27051 8.00016 7.27051C7.59746 7.27051 7.271 7.59697 7.271 7.99967C7.271 8.40238 7.59746 8.72884 8.00016 8.72884Z" fill="#1C8CA7" stroke="#1C8CA7" stroke-width="0.2"/>
<path d="M10.3332 8.72884C10.7359 8.72884 11.0623 8.40238 11.0623 7.99967C11.0623 7.59697 10.7359 7.27051 10.3332 7.27051C9.93046 7.27051 9.604 7.59697 9.604 7.99967C9.604 8.40238 9.93046 8.72884 10.3332 8.72884Z" fill="#1C8CA7" stroke="#1C8CA7" stroke-width="0.2"/>
</svg>
