<svg width="18" height="18" viewBox="0 0 18 18" fill="none" xmlns="http://www.w3.org/2000/svg">
<mask id="mask0_2378_11355" style="mask-type:alpha" maskUnits="userSpaceOnUse" x="0" y="0" width="18" height="18">
<rect width="18" height="18" fill="#D9D9D9"/>
</mask>
<g mask="url(#mask0_2378_11355)">
<path d="M7.93556 12.1903L12.9778 7.14806L12.1875 6.35775L7.93556 10.6097L5.79806 8.47219L5.00775 9.2625L7.93556 12.1903ZM9.00131 16.125C8.01581 16.125 7.0895 15.938 6.22237 15.564C5.35525 15.19 4.601 14.6824 3.95962 14.0413C3.31825 13.4002 2.81044 12.6463 2.43619 11.7795C2.06206 10.9128 1.875 9.98669 1.875 9.00131C1.875 8.01581 2.062 7.0895 2.436 6.22237C2.81 5.35525 3.31756 4.601 3.95869 3.95962C4.59981 3.31825 5.35375 2.81044 6.2205 2.43619C7.08725 2.06206 8.01331 1.875 8.99869 1.875C9.98419 1.875 10.9105 2.062 11.7776 2.436C12.6448 2.81 13.399 3.31756 14.0404 3.95869C14.6818 4.59981 15.1896 5.35375 15.5638 6.2205C15.9379 7.08725 16.125 8.01331 16.125 8.99869C16.125 9.98419 15.938 10.9105 15.564 11.7776C15.19 12.6448 14.6824 13.399 14.0413 14.0404C13.4002 14.6818 12.6463 15.1896 11.7795 15.5638C10.9128 15.9379 9.98669 16.125 9.00131 16.125ZM9 15C10.675 15 12.0938 14.4187 13.2563 13.2563C14.4187 12.0938 15 10.675 15 9C15 7.325 14.4187 5.90625 13.2563 4.74375C12.0938 3.58125 10.675 3 9 3C7.325 3 5.90625 3.58125 4.74375 4.74375C3.58125 5.90625 3 7.325 3 9C3 10.675 3.58125 12.0938 4.74375 13.2563C5.90625 14.4187 7.325 15 9 15Z" fill="#1C1B1F"/>
</g>
</svg>
