<svg width="24" height="24" viewBox="0 0 24 24" fill="none" xmlns="http://www.w3.org/2000/svg">
<mask id="mask0_728_6294" style="mask-type:alpha" maskUnits="userSpaceOnUse" x="0" y="0" width="24" height="24">
<rect width="24" height="24" fill="#D9D9D9"/>
</mask>
<g mask="url(#mask0_728_6294)">
<path d="M6 21.5C5.30133 21.5 4.71 21.258 4.226 20.774C3.742 20.29 3.5 19.6987 3.5 19V16.1155H6.5V2.5H20.5V19C20.5 19.6987 20.258 20.29 19.774 20.774C19.29 21.258 18.6987 21.5 18 21.5H6ZM18 20C18.2833 20 18.5208 19.9042 18.7125 19.7125C18.9042 19.5208 19 19.2833 19 19V4H8V16.1155H17V19C17 19.2833 17.0958 19.5208 17.2875 19.7125C17.4792 19.9042 17.7167 20 18 20ZM9.19225 8.69225V7.19225H17.8077V8.69225H9.19225ZM9.19225 11.577V10.077H17.8077V11.577H9.19225ZM6 20H15.5V17.6152H5V19C5 19.2833 5.09583 19.5208 5.2875 19.7125C5.47917 19.9042 5.71667 20 6 20ZM6 20H5H15.5H6Z" fill="#5A5A5A"/>
</g>
</svg>
