<svg width="14" height="14" viewBox="0 0 14 14" fill="none" xmlns="http://www.w3.org/2000/svg">
<mask id="mask0_750_10771" style="mask-type:alpha" maskUnits="userSpaceOnUse" x="0" y="0" width="14" height="14">
<rect width="14" height="14" fill="#D9D9D9"/>
</mask>
<g mask="url(#mask0_750_10771)">
<path d="M2.40087 12.5416V6.1922H1.4585V3.1523H4.47506C4.39281 3.05732 4.33691 2.95033 4.30735 2.83132C4.2778 2.71242 4.26302 2.58754 4.26302 2.45668C4.26302 2.02044 4.4157 1.64964 4.72108 1.34426C5.02645 1.03889 5.39726 0.8862 5.8335 0.8862C6.05711 0.8862 6.26429 0.933109 6.45504 1.02693C6.64569 1.12085 6.81617 1.24631 6.96648 1.40332C7.11678 1.24028 7.28731 1.11336 7.47806 1.02255C7.66871 0.931651 7.87584 0.8862 8.09946 0.8862C8.53579 0.8862 8.90664 1.03889 9.21202 1.34426C9.51739 1.64964 9.67008 2.02044 9.67008 2.45668C9.67008 2.58608 9.6538 2.70912 9.62123 2.82578C9.58866 2.94245 9.53426 3.05129 9.45804 3.1523H12.5418V6.1922H11.5995V12.5416H2.40087ZM8.09946 1.7612C7.90239 1.7612 7.73721 1.82785 7.60391 1.96114C7.47062 2.09443 7.40398 2.25961 7.40398 2.45668C7.40398 2.65375 7.47062 2.81893 7.60391 2.95222C7.73721 3.08561 7.90239 3.1523 8.09946 3.1523C8.29652 3.1523 8.46175 3.08561 8.59514 2.95222C8.72843 2.81893 8.79508 2.65375 8.79508 2.45668C8.79508 2.25961 8.72843 2.09443 8.59514 1.96114C8.46175 1.82785 8.29652 1.7612 8.09946 1.7612ZM5.13802 2.45668C5.13802 2.65375 5.20466 2.81893 5.33795 2.95222C5.47125 3.08561 5.63643 3.1523 5.8335 3.1523C6.03057 3.1523 6.19575 3.08561 6.32904 2.95222C6.46233 2.81893 6.52898 2.65375 6.52898 2.45668C6.52898 2.25961 6.46233 2.09443 6.32904 1.96114C6.19575 1.82785 6.03057 1.7612 5.8335 1.7612C5.63643 1.7612 5.47125 1.82785 5.33795 1.96114C5.20466 2.09443 5.13802 2.25961 5.13802 2.45668ZM2.3335 4.02716V5.31735H6.56266V4.02716H2.3335ZM6.56266 11.6666V6.1922H3.27573V11.6666H6.56266ZM7.43766 11.6666H10.7246V6.1922H7.43766V11.6666ZM11.6668 5.31735V4.02716H7.43766V5.31735H11.6668Z" fill="#1C1B1F"/>
</g>
</svg>
