<svg width="22" height="23" viewBox="0 0 22 23" fill="none" xmlns="http://www.w3.org/2000/svg">
<mask id="mask0_643_15668" style="mask-type:alpha" maskUnits="userSpaceOnUse" x="0" y="0" width="22" height="23">
<rect y="0.5" width="22" height="22" fill="#D9D9D9"/>
</mask>
<g mask="url(#mask0_643_15668)">
<path d="M5.95833 3.25065C5.30613 3.25065 4.76109 3.61495 4.32323 4.34355C3.88552 5.07214 3.66667 5.93007 3.66667 6.91732C3.66667 7.79762 3.80913 8.66701 4.09406 9.52546C4.37915 10.3839 4.73031 11.0964 5.14754 11.6629L7.12181 11.1764C7.34395 10.6875 7.58748 10.0387 7.8524 9.23007C8.11747 8.42157 8.25 7.65065 8.25 6.91732C8.25 5.93007 8.03115 5.07214 7.59344 4.34355C7.15558 3.61495 6.61054 3.25065 5.95833 3.25065ZM7.21875 15.1673C7.52079 15.1673 7.76814 15.0545 7.96079 14.8288C8.1536 14.6032 8.25 14.3112 8.25 13.9527C8.25 13.693 8.1801 13.3962 8.04031 13.0624C7.90037 12.7288 7.71054 12.3845 7.47083 12.0296L5.5 12.5232C5.5 13.3222 5.64835 13.9627 5.94504 14.4445C6.24189 14.9264 6.66646 15.1673 7.21875 15.1673ZM16.0417 7.83398C15.3895 7.83398 14.8444 8.19828 14.4066 8.92688C13.9689 9.65548 13.75 10.5134 13.75 11.5007C13.75 12.234 13.8854 13.0011 14.1563 13.8019C14.4272 14.603 14.6678 15.2555 14.8782 15.7597L16.7821 16.3519C17.3286 15.5034 17.7238 14.7183 17.9676 13.9967C18.2114 13.2752 18.3333 12.4431 18.3333 11.5007C18.3333 10.5134 18.1145 9.65548 17.6768 8.92688C17.2389 8.19828 16.6939 7.83398 16.0417 7.83398ZM14.7812 19.7507C15.3102 19.7507 15.7289 19.5156 16.0373 19.0455C16.3458 18.5754 16.5 17.9702 16.5 17.2298L14.5468 16.5953C14.3893 16.8796 14.2171 17.1915 14.0303 17.5312C13.8434 17.8708 13.75 18.2058 13.75 18.5361C13.75 18.8534 13.8514 19.1351 14.0541 19.3812C14.2568 19.6275 14.4992 19.7507 14.7812 19.7507ZM7.21875 16.084C6.39497 16.084 5.74506 15.7602 5.269 15.1128C4.7931 14.4652 4.56454 13.646 4.58333 12.6552L4.0299 11.631C3.72083 11.1481 3.43024 10.4718 3.15815 9.60201C2.88605 8.73239 2.75 7.8375 2.75 6.91732C2.75 5.60221 3.05441 4.50954 3.66323 3.63932C4.2719 2.7691 5.03693 2.33398 5.95833 2.33398C6.89257 2.33398 7.66089 2.78735 8.26329 3.69409C8.86554 4.60067 9.16667 5.67508 9.16667 6.91732C9.16667 7.72123 9.04154 8.51805 8.79129 9.30775C8.54089 10.0975 8.30049 10.7509 8.0701 11.268L8.4826 11.9537C8.66365 12.2498 8.82292 12.5809 8.96042 12.9472C9.09792 13.3132 9.16667 13.6484 9.16667 13.9527C9.16667 14.5651 8.98364 15.0734 8.61758 15.4776C8.25153 15.8819 7.78525 16.084 7.21875 16.084ZM14.7812 20.6673C14.2148 20.6673 13.7485 20.4652 13.3824 20.0609C13.0164 19.6567 12.8333 19.1484 12.8333 18.5361C12.8333 18.2317 12.9021 17.8965 13.0396 17.5305C13.1771 17.1643 13.3364 16.8331 13.5174 16.537L13.9299 15.8514C13.7113 15.346 13.4739 14.6955 13.2176 13.8998C12.9614 13.1043 12.8333 12.3046 12.8333 11.5007C12.8333 10.2584 13.1345 9.184 13.7367 8.27742C14.3391 7.37069 15.1074 6.91732 16.0417 6.91732C16.9631 6.91732 17.7281 7.35243 18.3368 8.22265C18.9456 9.09287 19.25 10.1855 19.25 11.5007C19.25 12.4208 19.1169 13.309 18.8508 14.1652C18.5845 15.0213 18.2909 15.7027 17.9701 16.2091L17.4167 17.0799C17.4202 17.8944 17.226 18.6959 16.8341 19.4844C16.4421 20.273 15.7578 20.6673 14.7812 20.6673Z" fill="#5A5A5A"/>
</g>
</svg>
