<svg width="42" height="42" viewBox="0 0 42 42" fill="none" xmlns="http://www.w3.org/2000/svg">
<mask id="mask0_2378_8940" style="mask-type:alpha" maskUnits="userSpaceOnUse" x="0" y="0" width="42" height="42">
<rect width="42" height="42" fill="#D9D9D9"/>
</mask>
<g mask="url(#mask0_2378_8940)">
<path d="M24.7691 21.8074H31.9038V20.0574H24.7691V21.8074ZM24.7691 16.9612H31.9038V15.2112H24.7691V16.9612ZM10.0962 26.7883H21.6729V26.4987C21.6729 25.4779 21.1603 24.6876 20.1351 24.1279C19.1099 23.5682 17.6931 23.2883 15.8847 23.2883C14.0764 23.2883 12.6595 23.5682 11.634 24.1279C10.6088 24.6876 10.0962 25.4779 10.0962 26.4987V26.7883ZM15.8847 20.4612C16.6227 20.4612 17.2446 20.2083 17.7507 19.7026C18.2567 19.1965 18.5097 18.5744 18.5097 17.8362C18.5097 17.098 18.2567 16.476 17.7507 15.9703C17.2446 15.4642 16.6227 15.2112 15.8847 15.2112C15.1465 15.2112 14.5244 15.4642 14.0184 15.9703C13.5126 16.476 13.2597 17.098 13.2597 17.8362C13.2597 18.5744 13.5126 19.1965 14.0184 19.7026C14.5244 20.2083 15.1465 20.4612 15.8847 20.4612ZM8.07712 33.2498C7.27154 33.2498 6.59896 32.98 6.05937 32.4404C5.51979 31.9008 5.25 31.2282 5.25 30.4226V11.5769C5.25 10.7713 5.51979 10.0987 6.05937 9.55913C6.59896 9.01955 7.27154 8.74976 8.07712 8.74976H33.9229C34.7285 8.74976 35.401 9.01955 35.9406 9.55913C36.4802 10.0987 36.75 10.7713 36.75 11.5769V30.4226C36.75 31.2282 36.4802 31.9008 35.9406 32.4404C35.401 32.98 34.7285 33.2498 33.9229 33.2498H8.07712ZM8.07712 31.4998H33.9229C34.1924 31.4998 34.4393 31.3876 34.6636 31.1633C34.8879 30.939 35 30.6921 35 30.4226V11.5769C35 11.3074 34.8879 11.0605 34.6636 10.8362C34.4393 10.6119 34.1924 10.4998 33.9229 10.4998H8.07712C7.80762 10.4998 7.56073 10.6119 7.33644 10.8362C7.11215 11.0605 7 11.3074 7 11.5769V30.4226C7 30.6921 7.11215 30.939 7.33644 31.1633C7.56073 31.3876 7.80762 31.4998 8.07712 31.4998Z" fill="#E97737"/>
</g>
</svg>
