<svg width="42" height="42" viewBox="0 0 42 42" fill="none" xmlns="http://www.w3.org/2000/svg">
<mask id="mask0_2378_9009" style="mask-type:alpha" maskUnits="userSpaceOnUse" x="0" y="0" width="42" height="42">
<rect width="42" height="42" fill="#D9D9D9"/>
</mask>
<g mask="url(#mask0_2378_9009)">
<path d="M3.5 35V7H24.6348V35H16.9614V28.1348H11.1729V35H3.5ZM5.25 33.25H9.42287V26.3848H18.7114V33.25H22.8848V8.75H5.25V33.25ZM9.42287 22.2114H11.9809V19.6538H9.42287V22.2114ZM9.42287 15.4809H11.9809V12.9229H9.42287V15.4809ZM16.1538 22.2114H18.7114V19.6538H16.1538V22.2114ZM16.1538 15.4809H18.7114V12.9229H16.1538V15.4809ZM33.6538 25.8799L32.4152 24.675L35.2052 21.875H28.4038V20.125H35.2052L32.4152 17.325L33.6538 16.1201L38.5337 21L33.6538 25.8799Z" fill="#E97737"/>
</g>
</svg>
