<svg width="22" height="23" viewBox="0 0 22 23" fill="none" xmlns="http://www.w3.org/2000/svg">
<mask id="mask0_643_15619" style="mask-type:alpha" maskUnits="userSpaceOnUse" x="0" y="0" width="22" height="23">
<rect y="0.5" width="22" height="22" fill="#D9D9D9"/>
</mask>
<g mask="url(#mask0_643_15619)">
<path d="M2.38037 17.5649V16.0559C2.38037 15.6304 2.49052 15.2646 2.71083 14.9584C2.93113 14.6524 3.22722 14.4078 3.59908 14.2246C4.39429 13.846 5.18377 13.5442 5.96752 13.3192C6.75142 13.0941 7.69459 12.9816 8.79704 12.9816C9.89933 12.9816 10.8424 13.0941 11.6263 13.3192C12.4102 13.5442 13.1997 13.846 13.9948 14.2246C14.3666 14.4078 14.6627 14.6524 14.883 14.9584C15.1035 15.2646 15.2137 15.6304 15.2137 16.0559V17.5649H2.38037ZM17.047 17.5649V16.0135C17.047 15.4823 16.9395 14.9809 16.7244 14.5092C16.5094 14.0376 16.2045 13.633 15.8095 13.2953C16.2596 13.387 16.6933 13.5142 17.1105 13.6769C17.5276 13.8398 17.9401 14.0228 18.348 14.226C18.7452 14.4258 19.0567 14.6815 19.2823 14.993C19.5078 15.3047 19.6206 15.6448 19.6206 16.0135V17.5649H17.047ZM8.79704 10.9365C8.04079 10.9365 7.39339 10.6673 6.85485 10.1287C6.31631 9.59017 6.04704 8.94277 6.04704 8.18652C6.04704 7.43027 6.31631 6.78288 6.85485 6.24434C7.39339 5.70579 8.04079 5.43652 8.79704 5.43652C9.55329 5.43652 10.2007 5.70579 10.7392 6.24434C11.2778 6.78288 11.547 7.43027 11.547 8.18652C11.547 8.94277 11.2778 9.59017 10.7392 10.1287C10.2007 10.6673 9.55329 10.9365 8.79704 10.9365ZM15.4605 8.18652C15.4605 8.94277 15.1912 9.59017 14.6527 10.1287C14.1142 10.6673 13.4668 10.9365 12.7105 10.9365C12.6717 10.9365 12.6223 10.9322 12.5622 10.9235C12.5024 10.9146 12.453 10.9049 12.4142 10.8944C12.7248 10.5139 12.9634 10.092 13.1301 9.62844C13.297 9.16491 13.3804 8.68359 13.3804 8.18446C13.3804 7.68534 13.2931 7.20836 13.1184 6.75354C12.944 6.29872 12.7092 5.87385 12.4142 5.47892C12.4636 5.46135 12.5129 5.44989 12.5622 5.44454C12.6116 5.4392 12.661 5.43652 12.7105 5.43652C13.4668 5.43652 14.1142 5.70579 14.6527 6.24434C15.1912 6.78288 15.4605 7.43027 15.4605 8.18652ZM3.29704 16.6483H14.297V16.0559C14.297 15.8408 14.2433 15.6527 14.1357 15.4917C14.0281 15.3308 13.8351 15.1769 13.5566 15.0299C12.8726 14.6645 12.1516 14.3845 11.3935 14.19C10.6356 13.9955 9.77008 13.8983 8.79704 13.8983C7.82384 13.8983 6.95828 13.9955 6.20035 14.19C5.44227 14.3845 4.72123 14.6645 4.03725 15.0299C3.75873 15.1769 3.5657 15.3308 3.45814 15.4917C3.35074 15.6527 3.29704 15.8408 3.29704 16.0559V16.6483ZM8.79704 10.0199C9.3012 10.0199 9.7328 9.84034 10.0918 9.48131C10.4509 9.12229 10.6304 8.69069 10.6304 8.18652C10.6304 7.68236 10.4509 7.25076 10.0918 6.89173C9.7328 6.5327 9.3012 6.35319 8.79704 6.35319C8.29287 6.35319 7.86127 6.5327 7.50225 6.89173C7.14322 7.25076 6.9637 7.68236 6.9637 8.18652C6.9637 8.69069 7.14322 9.12229 7.50225 9.48131C7.86127 9.84034 8.29287 10.0199 8.79704 10.0199Z" fill="#5A5A5A"/>
</g>
</svg>
