<svg width="37" height="34" viewBox="0 0 37 34" fill="none" xmlns="http://www.w3.org/2000/svg">
<path d="M34 0H2.66667C1.95942 0 1.28115 0.280951 0.781048 0.781048C0.280951 1.28115 0 1.95942 0 2.66667V31.6667C0 32.2855 0.245833 32.879 0.683418 33.3166C1.121 33.7542 1.71449 34 2.33333 34H34.3333C34.9522 34 35.5457 33.7542 35.9832 33.3166C36.4208 32.879 36.6667 32.2855 36.6667 31.6667V2.66667C36.6667 1.95942 36.3857 1.28115 35.8856 0.781048C35.3855 0.280951 34.7072 0 34 0Z" fill="#EDEBF2"/>
<path d="M34 0H2.66667C1.95942 0 1.28115 0.280951 0.781048 0.781048C0.280951 1.28115 0 1.95942 0 2.66667V9H36.6667V2.66667C36.6667 1.95942 36.3857 1.28115 35.8856 0.781048C35.3855 0.280951 34.7072 0 34 0Z" fill="#E82525"/>
<path d="M23.6667 5.3335H13C12.7348 5.3335 12.4804 5.22814 12.2929 5.0406C12.1054 4.85307 12 4.59871 12 4.3335C12 4.06828 12.1054 3.81393 12.2929 3.62639C12.4804 3.43885 12.7348 3.3335 13 3.3335H23.6667C23.9319 3.3335 24.1862 3.43885 24.3738 3.62639C24.5613 3.81393 24.6667 4.06828 24.6667 4.3335C24.6667 4.59871 24.5613 4.85307 24.3738 5.0406C24.1862 5.22814 23.9319 5.3335 23.6667 5.3335Z" fill="#EDEBF2"/>
<path d="M18.3335 31.6665C23.8563 31.6665 28.3335 27.1894 28.3335 21.6665C28.3335 16.1437 23.8563 11.6665 18.3335 11.6665C12.8106 11.6665 8.3335 16.1437 8.3335 21.6665C8.3335 27.1894 12.8106 31.6665 18.3335 31.6665Z" fill="#0DBD5F"/>
<path d="M16.9999 25.3331C16.8686 25.3333 16.7385 25.3074 16.6172 25.2572C16.4958 25.2069 16.3856 25.1331 16.2929 25.0401L13.6262 22.3735C13.4398 22.1857 13.3355 21.9317 13.3359 21.6672C13.3364 21.4026 13.4417 21.149 13.6288 20.962C13.8159 20.7749 14.0695 20.6696 14.334 20.6691C14.5986 20.6686 14.8525 20.773 15.0403 20.9594L16.9999 22.919L21.6262 18.2927C21.814 18.1063 22.0679 18.002 22.3325 18.0024C22.5971 18.0029 22.8506 18.1082 23.0377 18.2953C23.2248 18.4824 23.3301 18.736 23.3306 19.0005C23.3311 19.2651 23.2267 19.519 23.0403 19.7068L17.7069 25.0401C17.6142 25.1331 17.504 25.2069 17.3827 25.2572C17.2613 25.3074 17.1313 25.3333 16.9999 25.3331Z" fill="white"/>
</svg>
