<svg width="22" height="22" viewBox="0 0 22 22" fill="none" xmlns="http://www.w3.org/2000/svg">
<mask id="mask0_644_16189" style="mask-type:alpha" maskUnits="userSpaceOnUse" x="0" y="0" width="22" height="22">
<rect width="22" height="22" fill="#D9D9D9"/>
</mask>
<g mask="url(#mask0_644_16189)">
<path d="M11.0002 20.3427V18.9677H17.1347C17.2171 18.9677 17.2847 18.9413 17.3375 18.8884C17.3904 18.8356 17.4168 18.768 17.4168 18.6856V17.8748H14.1732V11.3876H17.4168V10.0832C17.4168 8.31095 16.7904 6.79845 15.5377 5.54567C14.2849 4.29289 12.7724 3.6665 11.0002 3.6665C9.22794 3.6665 7.71544 4.29289 6.46266 5.54567C5.20988 6.79845 4.5835 8.31095 4.5835 10.0832V11.3876H7.82712V17.8748H4.8656C4.40253 17.8748 4.01058 17.7144 3.68975 17.3936C3.36891 17.0728 3.2085 16.6808 3.2085 16.2177V10.0832C3.2085 9.01144 3.41299 8.0031 3.82198 7.05817C4.23096 6.11324 4.78921 5.28709 5.49673 4.57973C6.20409 3.87222 7.03023 3.31397 7.97516 2.90498C8.92009 2.496 9.92843 2.2915 11.0002 2.2915C12.0719 2.2915 13.0802 2.496 14.0252 2.90498C14.9701 3.31397 15.7962 3.87222 16.5036 4.57973C17.2111 5.28709 17.7694 6.11324 18.1783 7.05817C18.5873 8.0031 18.7918 9.01144 18.7918 10.0832V18.6856C18.7918 19.1487 18.6314 19.5407 18.3106 19.8615C17.9897 20.1823 17.5978 20.3427 17.1347 20.3427H11.0002ZM4.8656 16.4998H6.45212V12.7626H4.5835V16.2177C4.5835 16.3001 4.60993 16.3677 4.66279 16.4205C4.71565 16.4734 4.78325 16.4998 4.8656 16.4998ZM15.5482 16.4998H17.4168V12.7626H15.5482V16.4998Z" fill="#5D5D5D"/>
</g>
</svg>
