<svg width="24" height="24" viewBox="0 0 24 24" fill="none" xmlns="http://www.w3.org/2000/svg">
<mask id="mask0_2378_11404" style="mask-type:alpha" maskUnits="userSpaceOnUse" x="0" y="0" width="24" height="24">
<rect width="24" height="24" fill="#D9D9D9"/>
</mask>
<g mask="url(#mask0_2378_11404)">
<path d="M1.5 20.5V3.5H14.5385V20.5H9.34625V16.5385H6.69225V20.5H1.5ZM3 19H5.19225V15.0385H10.8463V19H13.0385V5H3V19ZM5.19225 12.8463H6.923V11.1155H5.19225V12.8463ZM5.19225 8.923H6.923V7.19225H5.19225V8.923ZM9.1155 12.8463H10.8463V11.1155H9.1155V12.8463ZM9.1155 8.923H10.8463V7.19225H9.1155V8.923ZM19.3652 15.1442L18.3115 14.1L19.6462 12.75H16.1155V11.25H19.6462L18.3115 9.9L19.3652 8.85575L22.5095 12L19.3652 15.1442Z" fill="#29A4C1"/>
</g>
</svg>
