<svg width="24" height="24" viewBox="0 0 24 24" fill="none" xmlns="http://www.w3.org/2000/svg">
<mask id="mask0_2378_11434" style="mask-type:alpha" maskUnits="userSpaceOnUse" x="0" y="0" width="24" height="24">
<rect width="24" height="24" fill="#D9D9D9"/>
</mask>
<g mask="url(#mask0_2378_11434)">
<path d="M4.954 10.3078C5.11033 9.73342 5.1125 9.21608 4.9605 8.75575C4.80867 8.29558 4.5315 7.79367 4.129 7.25C3.63017 6.58983 3.29808 5.9815 3.13275 5.425C2.96742 4.86867 2.927 4.227 3.0115 3.5H4.4905C4.3955 4.09483 4.4035 4.60192 4.5145 5.02125C4.62533 5.44042 4.88208 5.92183 5.28475 6.4655C5.83458 7.18717 6.19225 7.82625 6.35775 8.38275C6.52308 8.93908 6.54808 9.58075 6.43275 10.3078H4.954ZM8.9155 10.3078C9.07183 9.73342 9.07658 9.21608 8.92975 8.75575C8.78308 8.29558 8.50842 7.79367 8.10575 7.25C7.60708 6.58983 7.2725 5.9815 7.102 5.425C6.9315 4.86867 6.8885 4.227 6.973 3.5H8.452C8.357 4.09483 8.365 4.60192 8.476 5.02125C8.58683 5.44042 8.84358 5.92183 9.24625 6.4655C9.79625 7.18717 10.1539 7.82625 10.3192 8.38275C10.4846 8.93908 10.5096 9.58075 10.3942 10.3078H8.9155ZM12.9155 10.3078C13.0718 9.73342 13.075 9.21608 12.925 8.75575C12.775 8.29558 12.4988 7.79367 12.0963 7.25C11.5974 6.58983 11.2644 5.9815 11.0973 5.425C10.9299 4.86867 10.8885 4.227 10.973 3.5H12.452C12.357 4.09483 12.365 4.60192 12.476 5.02125C12.5868 5.44042 12.8436 5.92183 13.2462 6.4655C13.7962 7.18717 14.1539 7.82625 14.3193 8.38275C14.4846 8.93908 14.5096 9.58075 14.3943 10.3078H12.9155ZM5 19.5C4.30133 19.5 3.71 19.258 3.226 18.774C2.742 18.29 2.5 17.6987 2.5 17V12.5H16.0155C16.0667 11.9653 16.258 11.4919 16.5895 11.0798C16.9208 10.6676 17.3403 10.3762 17.848 10.2057L22.2615 8.72325L22.7327 10.1423L18.3193 11.625C18.0744 11.7045 17.8767 11.851 17.726 12.0645C17.5753 12.278 17.5 12.5155 17.5 12.777V17C17.5 17.6923 17.258 18.2821 16.774 18.7693C16.29 19.2564 15.6987 19.5 15 19.5H5ZM5 18H15C15.2833 18 15.5208 17.9042 15.7125 17.7125C15.9042 17.5208 16 17.2833 16 17V14H4V17C4 17.2833 4.09583 17.5208 4.2875 17.7125C4.47917 17.9042 4.71667 18 5 18Z" fill="#29A4C1"/>
</g>
</svg>
