<svg width="17" height="18" viewBox="0 0 17 18" fill="none" xmlns="http://www.w3.org/2000/svg">
<mask id="mask0_2378_13130" style="mask-type:alpha" maskUnits="userSpaceOnUse" x="0" y="0" width="17" height="18">
<rect y="0.5" width="17" height="17" fill="#D9D9D9"/>
</mask>
<g mask="url(#mask0_2378_13130)">
<path d="M14.9443 13.5002L13.0712 11.6205L13.8109 10.8808L15.6908 12.7538L14.9443 13.5002ZM12.5373 5.1297L11.7977 4.39002L13.6707 2.51701L14.4171 3.25668L12.5373 5.1297ZM4.46234 5.1366L2.58933 3.25668L3.329 2.51701L5.20874 4.39002L4.46234 5.1366ZM2.04852 13.5002L1.30884 12.7538L3.18185 10.8808L3.92843 11.6205L2.04852 13.5002ZM5.95533 12.7921L8.49984 11.2623L11.0513 12.8165L10.3851 9.91909L12.6232 7.98764L9.67673 7.72326L8.49984 4.98803L7.32967 7.70555L4.38336 7.96303L6.62134 9.91909L5.95533 12.7921ZM4.34387 15.0205L5.44037 10.3101L1.77067 7.13357L6.61195 6.71796L8.49984 2.27051L10.3946 6.71796L15.2357 7.13357L11.566 10.3101L12.6627 15.0205L8.49984 12.5181L4.34387 15.0205Z" fill="#E97737"/>
</g>
</svg>
