<svg width="24" height="24" viewBox="0 0 24 24" fill="none" xmlns="http://www.w3.org/2000/svg">
<mask id="mask0_2378_11419" style="mask-type:alpha" maskUnits="userSpaceOnUse" x="0" y="0" width="24" height="24">
<rect width="24" height="24" fill="#D9D9D9"/>
</mask>
<g mask="url(#mask0_2378_11419)">
<path d="M5.61427 18.501V19.751C5.61427 19.9635 5.54244 20.1416 5.39877 20.2852C5.25494 20.4291 5.07677 20.501 4.86427 20.501H4.24902C4.03652 20.501 3.85844 20.4291 3.71477 20.2852C3.57094 20.1416 3.49902 19.9635 3.49902 19.751V12.078L5.54127 6.25098C5.61577 6.02148 5.75236 5.83914 5.95102 5.70398C6.14969 5.56864 6.37086 5.50098 6.61452 5.50098H17.422C17.656 5.50098 17.8685 5.56973 18.0595 5.70723C18.2504 5.84473 18.3828 6.02598 18.4568 6.25098L20.499 12.078V19.751C20.499 19.9635 20.4271 20.1416 20.2833 20.2852C20.1396 20.4291 19.9615 20.501 19.749 20.501H19.1338C18.9213 20.501 18.7431 20.4291 18.5993 20.2852C18.4556 20.1416 18.3838 19.9635 18.3838 19.751V18.501H5.61427ZM5.60677 10.578H18.3913L17.1298 7.00098H6.86827L5.60677 10.578ZM7.46277 15.8472C7.82661 15.8472 8.13519 15.7198 8.38852 15.465C8.64169 15.2103 8.76827 14.9011 8.76827 14.5372C8.76827 14.1734 8.64094 13.8648 8.38627 13.6115C8.13144 13.3583 7.82211 13.2317 7.45827 13.2317C7.09444 13.2317 6.78594 13.3591 6.53277 13.6137C6.27944 13.8686 6.15277 14.1779 6.15277 14.5417C6.15277 14.9056 6.28019 15.2141 6.53502 15.4672C6.78969 15.7206 7.09894 15.8472 7.46277 15.8472ZM16.5398 15.8472C16.9036 15.8472 17.2121 15.7198 17.4653 15.465C17.7186 15.2103 17.8453 14.9011 17.8453 14.5372C17.8453 14.1734 17.7179 13.8648 17.463 13.6115C17.2084 13.3583 16.8991 13.2317 16.5353 13.2317C16.1714 13.2317 15.8629 13.3591 15.6095 13.6137C15.3564 13.8686 15.2298 14.1779 15.2298 14.5417C15.2298 14.9056 15.3571 15.2141 15.6118 15.4672C15.8666 15.7206 16.1759 15.8472 16.5398 15.8472ZM4.99902 17.001H18.999V12.078H4.99902V17.001Z" fill="#29A4C1"/>
</g>
</svg>
