<svg width="11" height="15" viewBox="0 0 11 15" fill="none" xmlns="http://www.w3.org/2000/svg">
<path d="M5.50128 7.39726C5.86379 7.39726 6.17372 7.26678 6.43106 7.00583C6.68852 6.74487 6.81725 6.43119 6.81725 6.0648C6.81725 5.6984 6.68816 5.38509 6.42996 5.12487C6.17177 4.86477 5.86136 4.73472 5.49872 4.73472C5.13621 4.73472 4.82628 4.8652 4.56894 5.12616C4.31148 5.38712 4.18275 5.70086 4.18275 6.06737C4.18275 6.43377 4.31184 6.74702 4.57004 7.00712C4.82823 7.26721 5.13864 7.39726 5.50128 7.39726ZM5.5 13.03C6.92552 11.7402 8.0164 10.503 8.77264 9.31854C9.52888 8.13404 9.907 7.0966 9.907 6.2062C9.907 4.86361 9.48497 3.75988 8.64093 2.89501C7.79689 2.03015 6.74991 1.59771 5.5 1.59771C4.25009 1.59771 3.20311 2.03015 2.35907 2.89501C1.51503 3.75988 1.093 4.86361 1.093 6.2062C1.093 7.0966 1.47112 8.13404 2.22736 9.31854C2.9836 10.503 4.07448 11.7402 5.5 13.03ZM5.5 14.5C3.66618 12.894 2.29106 11.3994 1.37464 10.0162C0.458212 8.63282 0 7.36283 0 6.2062C0 4.50666 0.543891 3.13075 1.63167 2.07845C2.71958 1.02615 4.00902 0.5 5.5 0.5C6.99098 0.5 8.28042 1.02615 9.36833 2.07845C10.4561 3.13075 11 4.50666 11 6.2062C11 7.36283 10.5418 8.63282 9.62537 10.0162C8.70894 11.3994 7.33382 12.894 5.5 14.5Z" fill="#5A5A5A"/>
</svg>
