<svg width="24" height="24" viewBox="0 0 24 24" fill="none" xmlns="http://www.w3.org/2000/svg">
<mask id="mask0_641_15581" style="mask-type:alpha" maskUnits="userSpaceOnUse" x="0" y="0" width="24" height="24">
<rect width="24" height="24" fill="#D9D9D9"/>
</mask>
<g mask="url(#mask0_641_15581)">
<path d="M4.3097 19.5C3.80454 19.5 3.37695 19.325 3.02695 18.975C2.67695 18.625 2.50195 18.1974 2.50195 17.6923V6.30775C2.50195 5.80258 2.67695 5.375 3.02695 5.025C3.37695 4.675 3.80454 4.5 4.3097 4.5H19.6942C20.1994 4.5 20.627 4.675 20.977 5.025C21.327 5.375 21.502 5.80258 21.502 6.30775V17.6923C21.502 18.1974 21.327 18.625 20.977 18.975C20.627 19.325 20.1994 19.5 19.6942 19.5H4.3097ZM12.002 12.5577L4.00195 7.44225V17.6923C4.00195 17.7821 4.03079 17.8558 4.08845 17.9135C4.14612 17.9712 4.21987 18 4.3097 18H19.6942C19.784 18 19.8578 17.9712 19.9155 17.9135C19.9731 17.8558 20.002 17.7821 20.002 17.6923V7.44225L12.002 12.5577ZM12.002 11L19.8482 6H4.1557L12.002 11ZM4.00195 7.44225V6V17.6923C4.00195 17.7821 4.03079 17.8558 4.08845 17.9135C4.14612 17.9712 4.21987 18 4.3097 18H4.00195V7.44225Z" fill="#5D5D5D"/>
</g>
</svg>
