<svg width="22" height="22" viewBox="0 0 22 22" fill="none" xmlns="http://www.w3.org/2000/svg">
<mask id="mask0_644_16184" style="mask-type:alpha" maskUnits="userSpaceOnUse" x="0" y="0" width="22" height="22">
<rect width="22" height="22" fill="#D9D9D9"/>
</mask>
<g mask="url(#mask0_644_16184)">
<path d="M3.95105 17.875C3.48798 17.875 3.09603 17.7146 2.7752 17.3938C2.45436 17.0729 2.29395 16.681 2.29395 16.2179V5.7821C2.29395 5.31903 2.45436 4.92708 2.7752 4.60625C3.09603 4.28542 3.48798 4.125 3.95105 4.125H18.0535C18.5166 4.125 18.9085 4.28542 19.2294 4.60625C19.5502 4.92708 19.7106 5.31903 19.7106 5.7821V16.2179C19.7106 16.681 19.5502 17.0729 19.2294 17.3938C18.9085 17.7146 18.5166 17.875 18.0535 17.875H3.95105ZM11.0023 11.5113L3.66895 6.82206V16.2179C3.66895 16.3002 3.69538 16.3678 3.74824 16.4207C3.8011 16.4736 3.8687 16.5 3.95105 16.5H18.0535C18.1359 16.5 18.2035 16.4736 18.2563 16.4207C18.3092 16.3678 18.3356 16.3002 18.3356 16.2179V6.82206L11.0023 11.5113ZM11.0023 10.0833L18.1947 5.5H3.80988L11.0023 10.0833ZM3.66895 6.82206V5.5V16.2179C3.66895 16.3002 3.69538 16.3678 3.74824 16.4207C3.8011 16.4736 3.8687 16.5 3.95105 16.5H3.66895V6.82206Z" fill="#5D5D5D"/>
</g>
</svg>
