<svg width="16" height="16" viewBox="0 0 16 16" fill="none" xmlns="http://www.w3.org/2000/svg">
<mask id="mask0_2251_46861" style="mask-type:alpha" maskUnits="userSpaceOnUse" x="0" y="0" width="16" height="16">
<rect width="16" height="16" fill="#D9D9D9"/>
</mask>
<g mask="url(#mask0_2251_46861)">
<path d="M2.87338 13C2.5366 13 2.25155 12.8833 2.01821 12.65C1.78488 12.4167 1.66821 12.1316 1.66821 11.7948V4.20517C1.66821 3.86839 1.78488 3.58333 2.01821 3.35C2.25155 3.11667 2.5366 3 2.87338 3H13.1297C13.4665 3 13.7515 3.11667 13.9849 3.35C14.2182 3.58333 14.3349 3.86839 14.3349 4.20517V11.7948C14.3349 12.1316 14.2182 12.4167 13.9849 12.65C13.7515 12.8833 13.4665 13 13.1297 13H2.87338ZM8.00155 8.37183L2.66821 4.9615V11.7948C2.66821 11.8547 2.68744 11.9039 2.72588 11.9423C2.76432 11.9808 2.81349 12 2.87338 12H13.1297C13.1896 12 13.2388 11.9808 13.2772 11.9423C13.3157 11.9039 13.3349 11.8547 13.3349 11.7948V4.9615L8.00155 8.37183ZM8.00155 7.33333L13.2324 4H2.77071L8.00155 7.33333ZM2.66821 4.9615V4V11.7948C2.66821 11.8547 2.68744 11.9039 2.72588 11.9423C2.76432 11.9808 2.81349 12 2.87338 12H2.66821V4.9615Z" fill="#1C8CA7"/>
</g>
</svg>
