<svg width="16" height="16" viewBox="0 0 16 16" fill="none" xmlns="http://www.w3.org/2000/svg">
<mask id="mask0_2378_21669" style="mask-type:alpha" maskUnits="userSpaceOnUse" x="0" y="0" width="16" height="16">
<rect width="16" height="16" fill="#D9D9D9"/>
</mask>
<g mask="url(#mask0_2378_21669)">
<path d="M2.87314 13C2.53636 13 2.2513 12.8833 2.01797 12.65C1.78464 12.4167 1.66797 12.1316 1.66797 11.7948V4.20517C1.66797 3.86839 1.78464 3.58333 2.01797 3.35C2.2513 3.11667 2.53636 3 2.87314 3H13.1295C13.4662 3 13.7513 3.11667 13.9846 3.35C14.218 3.58333 14.3346 3.86839 14.3346 4.20517V11.7948C14.3346 12.1316 14.218 12.4167 13.9846 12.65C13.7513 12.8833 13.4662 13 13.1295 13H2.87314ZM8.0013 8.37183L2.66797 4.9615V11.7948C2.66797 11.8547 2.68719 11.9039 2.72564 11.9423C2.76408 11.9808 2.81325 12 2.87314 12H13.1295C13.1894 12 13.2385 11.9808 13.277 11.9423C13.3154 11.9039 13.3346 11.8547 13.3346 11.7948V4.9615L8.0013 8.37183ZM8.0013 7.33333L13.2321 4H2.77047L8.0013 7.33333ZM2.66797 4.9615V4V11.7948C2.66797 11.8547 2.68719 11.9039 2.72564 11.9423C2.76408 11.9808 2.81325 12 2.87314 12H2.66797V4.9615Z" fill="#1C8CA7"/>
</g>
</svg>
