<svg width="36" height="36" viewBox="0 0 36 36" fill="none" xmlns="http://www.w3.org/2000/svg">
<mask id="mask0_2378_9366" style="mask-type:luminance" maskUnits="userSpaceOnUse" x="0" y="0" width="36" height="36">
<path d="M0 3.8147e-06H36V36H0V3.8147e-06Z" fill="white"/>
</mask>
<g mask="url(#mask0_2378_9366)">
<path d="M34.9453 28.5469H1.05469V7.45312H34.9453V28.5469Z" stroke="#E97737" stroke-width="1.5" stroke-miterlimit="10"/>
</g>
<path d="M4.21875 24.3281H8.50781" stroke="#E97737" stroke-width="1.5" stroke-miterlimit="10"/>
<path d="M27.4922 11.6719H31.7812" stroke="#E97737" stroke-width="1.5" stroke-miterlimit="10"/>
<mask id="mask1_2378_9366" style="mask-type:luminance" maskUnits="userSpaceOnUse" x="0" y="0" width="36" height="36">
<path d="M0 3.8147e-06H36V36H0V3.8147e-06Z" fill="white"/>
</mask>
<g mask="url(#mask1_2378_9366)">
<path d="M12.7266 11.6719H15.8906C18.2206 11.6719 20.1094 13.5607 20.1094 15.8906C20.1094 18.2206 18.2206 20.1094 15.8906 20.1094H13.7812V20.2717L20.1094 25.3828" stroke="#E97737" stroke-width="1.5" stroke-miterlimit="10"/>
<path d="M12.7266 15.8906H23.2734" stroke="#E97737" stroke-width="1.5" stroke-miterlimit="10"/>
<path d="M15.8906 11.6719H23.2734" stroke="#E97737" stroke-width="1.5" stroke-miterlimit="10"/>
</g>
</svg>
