<svg width="22" height="22" viewBox="0 0 22 22" fill="none" xmlns="http://www.w3.org/2000/svg">
<g clip-path="url(#clip0_693_6312)">
<path d="M11 22C16.8141 22 21.5273 17.0751 21.5273 11C21.5273 4.92487 16.8141 0 11 0C5.18591 0 0.472656 4.92487 0.472656 11C0.472656 17.0751 5.18591 22 11 22Z" fill="#E88102"/>
<path d="M11 20.8398C16.7548 20.8398 21.4199 16.1747 21.4199 10.4199C21.4199 4.66516 16.7548 0 11 0C5.24524 0 0.580078 4.66516 0.580078 10.4199C0.580078 16.1747 5.24524 20.8398 11 20.8398Z" fill="#FDD835"/>
<path opacity="0.5" d="M15.1596 0.86377L1.44395 14.5751C0.98418 13.5224 0.696289 12.3794 0.610352 11.1806L11.7607 0.0258789C12.9596 0.116113 14.1025 0.404004 15.1596 0.86377Z" fill="white"/>
<path opacity="0.5" d="M20.0793 5.30664L5.88672 19.4992C5.00156 19.0008 4.20234 18.3777 3.50195 17.6516L18.2359 2.92188C18.9578 3.61797 19.5809 4.42148 20.0793 5.30664Z" fill="white"/>
<path opacity="0.5" d="M17.8104 2.53066L3.11514 17.226C2.8874 16.9596 2.66826 16.6803 2.46631 16.3924L16.9769 1.88184C17.2647 2.08379 17.544 2.30293 17.8104 2.53066Z" fill="white"/>
<path opacity="0.5" d="M21.0933 7.82022L8.40029 20.5132C8.01787 20.4144 7.64404 20.294 7.27881 20.1565L20.7366 6.69873C20.8741 7.06396 20.9944 7.43779 21.0933 7.82022Z" fill="white"/>
<path opacity="0.5" d="M21.4199 10.4199C21.4199 10.493 21.4199 10.5617 21.4156 10.6348C21.3039 4.98008 16.6848 0.429688 11 0.429688C5.31523 0.429688 0.696094 4.98008 0.584375 10.6348C0.584375 10.5617 0.580078 10.493 0.580078 10.4199C0.580078 4.66641 5.24648 0 11 0C16.7535 0 21.4199 4.66641 21.4199 10.4199Z" fill="white"/>
<path opacity="0.5" d="M19.4648 10.8711C19.4648 15.3785 15.8082 19.0352 11.3008 19.0352C8.76992 19.0352 6.50547 17.8793 5.00586 16.0703C6.49688 17.6816 8.62812 18.6914 11 18.6914C15.5074 18.6914 19.1641 15.0348 19.1641 10.5273C19.1641 8.55078 18.4637 6.7418 17.2949 5.32812C18.6398 6.78477 19.4648 8.73125 19.4648 10.8711Z" fill="white"/>
<path d="M11 18.6914C15.5089 18.6914 19.1641 15.0362 19.1641 10.5273C19.1641 6.01846 15.5089 2.36328 11 2.36328C6.49111 2.36328 2.83594 6.01846 2.83594 10.5273C2.83594 15.0362 6.49111 18.6914 11 18.6914Z" fill="#F39E09"/>
<path d="M17.1875 5.19922C15.7566 3.96602 13.8961 3.22266 11.8594 3.22266C7.35195 3.22266 3.69531 6.8793 3.69531 11.3867C3.69531 13.4234 4.43867 15.284 5.67188 16.7148C3.93594 15.2152 2.83594 13.0023 2.83594 10.5273C2.83594 6.01992 6.49258 2.36328 11 2.36328C13.4707 2.36328 15.6879 3.46328 17.1875 5.19922Z" fill="#E88102"/>
<path d="M15.0092 5.67188V5.02734L14.2615 5.67188H7.51113L6.9998 7.18437V7.82891H9.14395C9.82285 7.85039 10.2783 8.1125 10.5146 8.61953H7.42949L6.99121 9.65508V10.2996H10.5748C10.3514 10.9957 9.86152 11.3523 9.10098 11.3652H7.21895L7.22754 12.9035L10.8885 17.2734H13.8834V16.6289L13.3506 16.5L10.6479 13.1871C11.4643 12.9379 12.0959 12.5812 12.5385 12.1129C12.9811 11.6445 13.2646 11.043 13.3893 10.3039H14.5623L15.0006 8.62383V7.9793L14.3818 8.62383H13.4064C13.3377 8.15547 13.1873 7.73008 12.951 7.35625H14.5666L15.0092 5.67188Z" fill="#DB6704"/>
<path d="M14.5706 6.70742H12.955C13.187 7.08125 13.3417 7.50664 13.4104 7.975H15.0046L14.5663 9.65508H13.3933C13.2687 10.3941 12.9894 10.9957 12.5425 11.4641C12.0999 11.9324 11.4683 12.2891 10.6519 12.5383L13.8874 16.5086V16.6289H10.8925L7.23584 12.2633L7.22725 10.725H9.10928C9.86982 10.7078 10.3597 10.3555 10.5831 9.65508H6.99951L7.43779 7.975H10.5229C10.2909 7.47227 9.83115 7.20586 9.15225 7.18437H7.00811L7.51943 5.02734H15.0175L14.5706 6.70742Z" fill="#FDD835"/>
<path opacity="0.5" d="M7.4292 7.9751H8.04365L7.21436 8.80439L7.4292 7.9751Z" fill="white"/>
<path opacity="0.5" d="M10.9913 5.02734L8.83428 7.18438H6.99951L7.51084 5.02734H10.9913Z" fill="white"/>
<path opacity="0.5" d="M14.5709 6.70723H14.4463L14.6139 6.54395L14.5709 6.70723Z" fill="white"/>
<path opacity="0.5" d="M15.0003 7.975L14.562 9.65508H13.389C13.2687 10.3941 12.9851 10.9957 12.5382 11.4641C12.0956 11.9324 11.464 12.2891 10.6476 12.5383L11.6358 13.7457L9.91709 15.4645L7.98779 13.1613L13.3718 7.77734C13.3847 7.8418 13.3976 7.90625 13.4062 7.9707L15.0003 7.975Z" fill="white"/>
<path opacity="0.5" d="M9.10527 10.725C9.3373 10.7207 9.54785 10.682 9.72832 10.6133L7.61855 12.723L7.23184 12.2633L7.22754 11.6316L8.13418 10.725H9.10527Z" fill="white"/>
<path opacity="0.5" d="M15.0092 5.02734L14.9018 5.43984L13.6342 6.70742H12.9553C13.0455 6.84922 13.1229 6.99961 13.1873 7.15859L10.5189 9.82695C10.5404 9.77539 10.5619 9.71523 10.5791 9.65938H9.2041L13.8318 5.02734H15.0092Z" fill="white"/>
<path opacity="0.5" d="M13.2172 15.6924L12.2848 16.6291H10.8883L10.8496 16.5818L12.5555 14.876L13.2172 15.6924Z" fill="white"/>
<path opacity="0.25" d="M17.8105 6.01992C12.5254 7.87617 8.28008 11.9539 6.20039 17.1316C6.01992 16.9984 5.84375 16.8609 5.67188 16.7105C4.43867 15.2797 3.69531 13.4191 3.69531 11.3867C3.69531 6.8793 7.35195 3.22266 11.8594 3.22266C13.8961 3.22266 15.7566 3.96602 17.1832 5.19922C17.4109 5.46133 17.6172 5.73633 17.8105 6.01992Z" fill="white"/>
</g>
<defs>
<clipPath id="clip0_693_6312">
<rect width="22" height="22" fill="white"/>
</clipPath>
</defs>
</svg>
