<svg width="14" height="15" viewBox="0 0 14 15" fill="none" xmlns="http://www.w3.org/2000/svg">
<path d="M7 14.5C6.03167 14.5 5.12167 14.3162 4.27 13.9487C3.41833 13.5812 2.6775 13.0825 2.0475 12.4525C1.4175 11.8225 0.91875 11.0817 0.55125 10.23C0.18375 9.37833 0 8.46833 0 7.5C0 6.53167 0.18375 5.62167 0.55125 4.77C0.91875 3.91833 1.4175 3.1775 2.0475 2.5475C2.6775 1.9175 3.41833 1.41875 4.27 1.05125C5.12167 0.68375 6.03167 0.5 7 0.5C7.75833 0.5 8.47583 0.610833 9.1525 0.8325C9.82917 1.05417 10.4533 1.36333 11.025 1.76L10.01 2.7925C9.56667 2.5125 9.09417 2.29375 8.5925 2.13625C8.09083 1.97875 7.56 1.9 7 1.9C5.44833 1.9 4.12708 2.44542 3.03625 3.53625C1.94542 4.62708 1.4 5.94833 1.4 7.5C1.4 9.05167 1.94542 10.3729 3.03625 11.4637C4.12708 12.5546 5.44833 13.1 7 13.1C8.55167 13.1 9.87292 12.5546 10.9637 11.4637C12.0546 10.3729 12.6 9.05167 12.6 7.5C12.6 7.29 12.5883 7.08 12.565 6.87C12.5417 6.66 12.5067 6.45583 12.46 6.2575L13.5975 5.12C13.7258 5.49333 13.825 5.87833 13.895 6.275C13.965 6.67167 14 7.08 14 7.5C14 8.46833 13.8162 9.37833 13.4487 10.23C13.0812 11.0817 12.5825 11.8225 11.9525 12.4525C11.3225 13.0825 10.5817 13.5812 9.73 13.9487C8.87833 14.3162 7.96833 14.5 7 14.5ZM6.02 10.72L3.045 7.745L4.025 6.765L6.02 8.76L13.02 1.7425L14 2.7225L6.02 10.72Z" fill="#5A5A5A"/>
</svg>
