<svg width="36" height="36" viewBox="0 0 36 36" fill="none" xmlns="http://www.w3.org/2000/svg">
<path d="M20.2791 19.6963L21.1763 23.2857H24.3528C27.8616 23.2857 30.7057 26.1294 30.7057 29.6386V34.9328C24.9372 34.9328 11.1114 34.9328 5.29395 34.9328V29.6386C5.29395 26.1237 8.14345 23.2857 11.6469 23.2857H14.8234L15.7205 19.6963" stroke="#E97737" stroke-width="1.5" stroke-miterlimit="10"/>
<path d="M18 25.4119L21.1765 23.2854" stroke="#E97737" stroke-width="1.5" stroke-miterlimit="10"/>
<path d="M17.9994 25.4119L14.8232 23.2854" stroke="#E97737" stroke-width="1.5" stroke-miterlimit="10"/>
<path d="M18 25.4119V30.706" stroke="#E97737" stroke-width="1.5" stroke-miterlimit="10"/>
<path d="M26.4702 30.7058V34.9411" stroke="#E97737" stroke-width="1.5" stroke-miterlimit="10"/>
<path d="M9.5293 30.7058V34.9411" stroke="#E97737" stroke-width="1.5" stroke-miterlimit="10"/>
<path d="M11.647 11.647V13.7646C11.647 17.2733 14.4913 20.1176 17.9999 20.1176C21.5086 20.1176 24.3529 17.2733 24.3529 13.7646V11.647" stroke="#E97737" stroke-width="1.5" stroke-miterlimit="10"/>
<path d="M24.3528 7.41178C24.3528 3.90319 21.5085 1.05884 17.9999 1.05884C14.4913 1.05884 11.6469 3.90319 11.6469 7.41178L9.5293 11.6471H26.4705L24.3528 7.41178Z" stroke="#E97737" stroke-width="1.5" stroke-miterlimit="10"/>
<path d="M21.1762 30.7058H14.8232V34.9411H21.1762V30.7058Z" stroke="#E97737" stroke-width="1.5" stroke-miterlimit="10"/>
<path d="M11.647 7.41187H24.3529" stroke="#E97737" stroke-width="1.5" stroke-miterlimit="10"/>
</svg>
