<svg width="22" height="20" viewBox="0 0 22 20" fill="none" xmlns="http://www.w3.org/2000/svg">
<path d="M11.0004 19L2.61826 10.5379C0.460549 8.35943 0.460588 4.81486 2.61833 2.63647C3.66364 1.58116 5.05342 1 6.53165 1C8.00993 1 9.3997 1.58116 10.445 2.63647L11 3.19681L11.555 2.63647C12.6003 1.58116 13.9901 1 15.4683 1C16.9466 1 18.3364 1.58116 19.3817 2.63643C21.5394 4.81486 21.5394 8.35943 19.3817 10.5379L11.0004 19ZM6.53169 2.18339C5.36655 2.18339 4.27115 2.64148 3.44722 3.47325C1.74651 5.19027 1.74651 7.98409 3.44714 9.70111L11.0001 17.3267L18.553 9.70111C20.2536 7.98405 20.2536 5.19027 18.5529 3.47325C17.729 2.64148 16.6336 2.18339 15.4685 2.18339C14.3033 2.18339 13.2079 2.64144 12.384 3.47325L11.0001 4.87036L9.61624 3.47325C8.79228 2.64148 7.69684 2.18339 6.53169 2.18339Z" fill="#5A5A5A" stroke="#5A5A5A" stroke-width="0.3"/>
</svg>
