<svg width="18" height="20" viewBox="0 0 18 20" fill="none" xmlns="http://www.w3.org/2000/svg">
<path d="M1.13331 17.6923C1.04066 17.6923 0.950527 17.6547 0.883682 17.5854C0.795562 17.494 0.761573 17.3613 0.794681 17.2372L1.86735 13.2197C1.19953 11.9811 0.847427 10.58 0.84793 9.15769C0.849819 4.53222 4.51987 0.769226 9.02932 0.769226C11.2166 0.77013 13.2718 1.64397 14.8165 3.22947C16.361 4.81511 17.2112 6.92287 17.2106 9.1644C17.2086 13.79 13.5385 17.5533 9.02932 17.5533C9.02932 17.5533 9.02592 17.5533 9.0258 17.5533C7.70866 17.5527 6.40286 17.2235 5.24018 16.5999L1.22231 17.6806C1.19286 17.6884 1.16289 17.6923 1.13331 17.6923Z" fill="#E5E5E5"/>
<path d="M1.13333 17.3322L2.24414 13.1718C1.55895 11.9541 1.19854 10.5728 1.19904 9.15777C1.20081 4.73087 4.71325 1.12927 9.02934 1.12927C11.1238 1.13018 13.0898 1.96631 14.5682 3.4839C16.0464 5.0015 16.8603 7.01875 16.8595 9.16422C16.8576 13.591 13.3447 17.1931 9.02934 17.1931C9.02909 17.1931 9.02947 17.1931 9.02934 17.1931H9.02595C7.71548 17.1926 6.42793 16.8555 5.28426 16.2157L1.13333 17.3322ZM5.47649 14.7623L5.71429 14.9068C6.71331 15.5149 7.85874 15.8365 9.02683 15.8372H9.02934C12.6163 15.8372 15.5358 12.8433 15.5373 9.16371C15.538 7.38053 14.8617 5.70374 13.633 4.44244C12.4041 3.18113 10.7702 2.48612 9.03174 2.48534C5.44187 2.48534 2.52247 5.47883 2.52109 9.15828C2.52058 10.4192 2.8645 11.6471 3.51608 12.7097L3.67092 12.9622L3.0133 15.4246L5.47649 14.7623Z" fill="white"/>
<path d="M1.40561 17.0516L2.47802 13.0351C1.81637 11.8596 1.46855 10.526 1.46893 9.16012C1.47057 4.88649 4.86153 1.40961 9.02794 1.40961C11.0502 1.41051 12.9481 2.21772 14.375 3.68277C15.8023 5.14781 16.5878 7.09522 16.5871 9.16619C16.5853 13.44 13.1942 16.9172 9.02832 16.9172C9.02794 16.9172 9.02845 16.9172 9.02832 16.9172H9.02492C7.75991 16.9167 6.51679 16.5911 5.41278 15.9739L1.40561 17.0516Z" fill="#64B161"/>
<path d="M1.13333 17.3322L2.24414 13.1718C1.55895 11.9541 1.19854 10.5728 1.19904 9.15777C1.20081 4.73087 4.71325 1.12927 9.02934 1.12927C11.1238 1.13018 13.0898 1.96631 14.5682 3.4839C16.0464 5.0015 16.8603 7.01875 16.8595 9.16422C16.8576 13.591 13.3447 17.1931 9.02934 17.1931C9.02909 17.1931 9.02947 17.1931 9.02934 17.1931H9.02595C7.71548 17.1926 6.42793 16.8555 5.28426 16.2157L1.13333 17.3322ZM5.47649 14.7623L5.71429 14.9068C6.71331 15.5149 7.85874 15.8365 9.02683 15.8372H9.02934C12.6163 15.8372 15.5358 12.8433 15.5373 9.16371C15.538 7.38053 14.8617 5.70374 13.633 4.44244C12.4041 3.18113 10.7702 2.48612 9.03174 2.48534C5.44187 2.48534 2.52247 5.47883 2.52109 9.15828C2.52058 10.4192 2.8645 11.6471 3.51608 12.7097L3.67092 12.9622L3.0133 15.4246L5.47649 14.7623Z" fill="white"/>
<path fill-rule="evenodd" clip-rule="evenodd" d="M7.07228 5.80103C6.92575 5.46689 6.77142 5.46017 6.63194 5.45436C6.51789 5.44933 6.38734 5.44959 6.25705 5.44959C6.12664 5.44959 5.91465 5.49994 5.73539 5.70071C5.556 5.90148 5.05045 6.38695 5.05045 7.37427C5.05045 8.36173 5.75163 9.31574 5.84944 9.44976C5.94725 9.58365 7.20295 11.6745 9.19156 12.4789C10.8443 13.1474 11.1805 13.0144 11.5393 12.981C11.8981 12.9476 12.6968 12.4955 12.8598 12.027C13.023 11.5584 13.023 11.1569 12.974 11.0728C12.9251 10.9893 12.7946 10.9391 12.599 10.8388C12.4034 10.7384 11.4415 10.2528 11.2621 10.186C11.0827 10.119 10.9523 10.0856 10.8219 10.2865C10.6914 10.4872 10.3167 10.9391 10.2025 11.0728C10.0884 11.207 9.97419 11.2238 9.77856 11.1233C9.58294 11.0227 8.95276 10.811 8.20525 10.1273C7.62366 9.59553 7.2309 8.9386 7.11672 8.7377C7.00267 8.53706 7.11483 8.4379 7.2027 8.32829C7.36094 8.13087 7.62643 7.77594 7.69164 7.64218C7.75685 7.50816 7.72424 7.39106 7.6754 7.29061C7.62643 7.19029 7.24613 6.19793 7.07228 5.80103Z" fill="white"/>
</svg>
