<svg width="22" height="23" viewBox="0 0 22 23" fill="none" xmlns="http://www.w3.org/2000/svg">
<g clip-path="url(#clip0_641_15320)">
<path d="M0.511082 22.5C0.387547 22.5 0.267369 22.4512 0.178242 22.361C0.0607495 22.2422 0.0154309 22.0696 0.0595746 21.9083L1.4898 16.6856C0.599369 15.0755 0.129902 13.254 0.130574 11.405C0.133091 5.39189 5.02649 0.5 11.0391 0.5C13.9554 0.501175 16.6957 1.63716 18.7553 3.69832C20.8147 5.75964 21.9483 8.49974 21.9475 11.4137C21.9448 17.427 17.0514 22.3192 11.0391 22.3192C11.0391 22.3192 11.0346 22.3192 11.0344 22.3192C9.27822 22.3186 7.53714 21.8905 5.98691 21.0798L0.62975 22.4847C0.590474 22.495 0.550526 22.5 0.511082 22.5Z" fill="#E5E5E5"/>
<path d="M0.51123 22.032L1.99231 16.6235C1.07872 15.0405 0.598175 13.2449 0.598846 11.4053C0.601196 5.65034 5.28445 0.968262 11.0392 0.968262C13.8319 0.969437 16.4531 2.05641 18.4243 4.02928C20.3954 6.00215 21.4805 8.62459 21.4795 11.4137C21.477 17.1685 16.793 21.8512 11.0392 21.8512C11.0389 21.8512 11.0394 21.8512 11.0392 21.8512H11.0347C9.28743 21.8506 7.57069 21.4123 6.04581 20.5806L0.51123 22.032ZM6.30211 18.6912L6.61917 18.879C7.9512 19.6696 9.47844 20.0877 11.0359 20.0885H11.0392C15.8219 20.0885 19.7146 16.1965 19.7166 11.413C19.7174 9.09489 18.8158 6.91507 17.1774 5.27538C15.5389 3.63568 13.3604 2.73216 11.0424 2.73116C6.25595 2.73116 2.36342 6.62268 2.36157 11.406C2.3609 13.0452 2.81946 14.6414 3.68823 16.0228L3.89468 16.3511L3.01785 19.5522L6.30211 18.6912Z" fill="white"/>
<path d="M0.874023 21.6671L2.30391 16.4456C1.42171 14.9175 0.957947 13.1838 0.95845 11.4082C0.960632 5.85246 5.48192 1.33252 11.0371 1.33252C13.7334 1.33369 16.2641 2.38307 18.1666 4.28763C20.0696 6.19218 21.117 8.72382 21.116 11.4161C21.1136 16.972 16.5922 21.4924 11.0376 21.4924C11.0371 21.4924 11.0378 21.4924 11.0376 21.4924H11.0331C9.34642 21.4917 7.68893 21.0684 6.21692 20.2661L0.874023 21.6671Z" fill="#0ED221"/>
<path d="M0.51123 22.032L1.99231 16.6235C1.07872 15.0405 0.598175 13.2449 0.598846 11.4053C0.601196 5.65034 5.28445 0.968262 11.0392 0.968262C13.8319 0.969437 16.4531 2.05641 18.4243 4.02928C20.3954 6.00215 21.4805 8.62459 21.4795 11.4137C21.477 17.1685 16.793 21.8512 11.0392 21.8512C11.0389 21.8512 11.0394 21.8512 11.0392 21.8512H11.0347C9.28743 21.8506 7.57069 21.4123 6.04581 20.5806L0.51123 22.032ZM6.30211 18.6912L6.61917 18.879C7.9512 19.6696 9.47844 20.0877 11.0359 20.0885H11.0392C15.8219 20.0885 19.7146 16.1965 19.7166 11.413C19.7174 9.09489 18.8158 6.91507 17.1774 5.27538C15.5389 3.63568 13.3604 2.73216 11.0424 2.73116C6.25595 2.73116 2.36342 6.62268 2.36157 11.406C2.3609 13.0452 2.81946 14.6414 3.68823 16.0228L3.89468 16.3511L3.01785 19.5522L6.30211 18.6912Z" fill="white"/>
<path fill-rule="evenodd" clip-rule="evenodd" d="M8.42967 7.04135C8.2343 6.60697 8.02852 6.59824 7.84254 6.59069C7.69048 6.58414 7.51642 6.58448 7.3427 6.58448C7.16881 6.58448 6.88615 6.64994 6.64714 6.91094C6.40796 7.17194 5.73389 7.80304 5.73389 9.08657C5.73389 10.3703 6.66879 11.6105 6.79921 11.7847C6.92963 11.9588 8.6039 14.6769 11.2554 15.7226C13.459 16.5917 13.9073 16.4188 14.3857 16.3753C14.8641 16.3318 15.9291 15.7442 16.1464 15.1351C16.364 14.526 16.364 14.004 16.2987 13.8947C16.2334 13.7861 16.0595 13.7208 15.7986 13.5904C15.5378 13.46 14.2553 12.8287 14.0161 12.7418C13.7769 12.6547 13.603 12.6113 13.4292 12.8725C13.2551 13.1333 12.7556 13.7208 12.6033 13.8947C12.4511 14.0691 12.2989 14.0909 12.038 13.9603C11.7772 13.8296 10.937 13.5543 9.94029 12.6656C9.16484 11.9742 8.64116 11.1202 8.48892 10.859C8.33685 10.5982 8.4864 10.4693 8.60356 10.3268C8.81454 10.0701 9.16853 9.60874 9.25548 9.43485C9.34242 9.26062 9.29895 9.10839 9.23383 8.9778C9.16853 8.84738 8.66147 7.55731 8.42967 7.04135Z" fill="white"/>
</g>
<defs>
<clipPath id="clip0_641_15320">
<rect width="22" height="22" fill="white" transform="translate(0 0.5)"/>
</clipPath>
</defs>
</svg>
