<svg width="22" height="22" viewBox="0 0 22 22" fill="none" xmlns="http://www.w3.org/2000/svg">
<g clip-path="url(#clip0_644_16170)">
<path d="M0.511082 22C0.387547 22 0.267369 21.9512 0.178242 21.861C0.0607495 21.7422 0.0154309 21.5696 0.0595746 21.4083L1.4898 16.1856C0.599369 14.5755 0.129902 12.754 0.130574 10.905C0.133091 4.89189 5.02649 0 11.0391 0C13.9554 0.00117493 16.6957 1.13716 18.7553 3.19832C20.8147 5.25964 21.9483 7.99974 21.9475 10.9137C21.9448 16.927 17.0514 21.8192 11.0391 21.8192C11.0391 21.8192 11.0346 21.8192 11.0344 21.8192C9.27822 21.8186 7.53714 21.3905 5.98691 20.5798L0.62975 21.9847C0.590474 21.995 0.550526 22 0.511082 22Z" fill="#E5E5E5"/>
<path d="M0.51123 21.532L1.99231 16.1235C1.07872 14.5405 0.598175 12.7449 0.598846 10.9053C0.601196 5.15034 5.28445 0.468262 11.0392 0.468262C13.8319 0.469437 16.4531 1.55641 18.4243 3.52928C20.3954 5.50215 21.4805 8.12459 21.4795 10.9137C21.477 16.6685 16.793 21.3512 11.0392 21.3512C11.0389 21.3512 11.0394 21.3512 11.0392 21.3512H11.0347C9.28743 21.3506 7.57069 20.9123 6.04581 20.0806L0.51123 21.532ZM6.30211 18.1912L6.61917 18.379C7.9512 19.1696 9.47844 19.5877 11.0359 19.5885H11.0392C15.8219 19.5885 19.7146 15.6965 19.7166 10.913C19.7174 8.59489 18.8158 6.41507 17.1774 4.77538C15.5389 3.13568 13.3604 2.23216 11.0424 2.23116C6.25595 2.23116 2.36342 6.12268 2.36157 10.906C2.3609 12.5452 2.81946 14.1414 3.68823 15.5228L3.89468 15.8511L3.01785 19.0522L6.30211 18.1912Z" fill="white"/>
<path d="M0.874023 21.1671L2.30391 15.9456C1.42171 14.4175 0.957947 12.6838 0.95845 10.9082C0.960632 5.35246 5.48192 0.83252 11.0371 0.83252C13.7334 0.833694 16.2641 1.88307 18.1666 3.78763C20.0696 5.69218 21.117 8.22382 21.116 10.9161C21.1136 16.472 16.5922 20.9924 11.0376 20.9924C11.0371 20.9924 11.0378 20.9924 11.0376 20.9924H11.0331C9.34642 20.9917 7.68893 20.5684 6.21692 19.7661L0.874023 21.1671Z" fill="#0ED221"/>
<path d="M0.51123 21.532L1.99231 16.1235C1.07872 14.5405 0.598175 12.7449 0.598846 10.9053C0.601196 5.15034 5.28445 0.468262 11.0392 0.468262C13.8319 0.469437 16.4531 1.55641 18.4243 3.52928C20.3954 5.50215 21.4805 8.12459 21.4795 10.9137C21.477 16.6685 16.793 21.3512 11.0392 21.3512C11.0389 21.3512 11.0394 21.3512 11.0392 21.3512H11.0347C9.28743 21.3506 7.57069 20.9123 6.04581 20.0806L0.51123 21.532ZM6.30211 18.1912L6.61917 18.379C7.9512 19.1696 9.47844 19.5877 11.0359 19.5885H11.0392C15.8219 19.5885 19.7146 15.6965 19.7166 10.913C19.7174 8.59489 18.8158 6.41507 17.1774 4.77538C15.5389 3.13568 13.3604 2.23216 11.0424 2.23116C6.25595 2.23116 2.36342 6.12268 2.36157 10.906C2.3609 12.5452 2.81946 14.1414 3.68823 15.5228L3.89468 15.8511L3.01785 19.0522L6.30211 18.1912Z" fill="white"/>
<path fill-rule="evenodd" clip-rule="evenodd" d="M8.42967 6.54135C8.2343 6.10697 8.02852 6.09824 7.84254 6.09069C7.69048 6.08414 7.51642 6.08448 7.3427 6.08448C7.16881 6.08448 6.88615 6.14994 6.64714 6.41094C6.40796 6.67194 5.73389 7.30304 5.73389 8.58657C5.73389 9.87026 6.66879 11.1105 6.79921 11.2847C6.92963 11.4588 8.6039 14.1769 11.2554 15.2226C13.459 16.0917 13.9073 15.9188 14.3857 15.8753C14.8641 15.8318 15.9291 15.2442 16.1464 14.6351C16.364 14.026 16.364 13.504 16.2987 13.3947C16.2334 13.2861 16.0595 13.2208 15.7986 13.0904C15.5378 12.96 14.2553 12.3287 14.0161 12.2418C13.7769 12.1547 13.603 12.1113 13.4292 12.3725C13.2551 12.6333 12.7556 13.2208 12.6033 13.3947C12.4511 13.5691 12.2989 13.5909 12.038 13.4603C11.7772 13.3296 10.937 13.0543 9.94029 12.1656C9.16484 11.4742 8.64116 10.6202 8.48892 10.359C8.33685 10.0982 8.4864 9.96929 8.60356 9.82679C8.81454 9.57015 9.16853 9.10874 9.25548 8.93485C9.34242 8.76062 9.29895 8.60839 9.23383 8.4778C9.16853 8.34738 8.66147 7.05731 8.42967 6.54135Z" fill="white"/>
</g>
<defs>
<clipPath id="clip0_644_16170">
<rect width="22" height="22" fill="white"/>
</clipPath>
</defs>
</svg>
