<svg width="64" height="66" viewBox="0 0 64 66" fill="none" xmlns="http://www.w3.org/2000/svg">
<path d="M63.8475 26.6448V62.7797C63.8502 63.2255 63.758 63.6667 63.5769 64.0741C63.3959 64.4814 63.1302 64.8456 62.7975 65.1422L62.703 65.2367C62.1234 65.7311 61.3858 66.0015 60.624 65.9987H3.22054C2.46423 65.9985 1.73286 65.7282 1.15804 65.2367C1.11908 65.2137 1.08657 65.1812 1.06354 65.1422C0.728903 64.8464 0.461016 64.4827 0.27766 64.0754C0.0943042 63.6681 -0.000328476 63.2264 4.33895e-05 62.7797V26.6448C-0.0074817 25.8414 0.299985 25.0671 0.856543 24.4878C1.08372 24.2201 1.35641 23.9946 1.66204 23.8218C2.13856 23.5614 2.673 23.4252 3.21604 23.4258H60.6255C61.0718 23.4344 61.512 23.5316 61.9204 23.7119C62.3288 23.8921 62.6973 24.1518 63.0045 24.4758C63.5439 25.0697 63.8442 25.8424 63.8475 26.6448Z" fill="#29A4C1"/>
<path d="M63.0089 24.468C62.7824 24.75 31.941 49.275 31.941 49.275L0.855011 24.495L0.868511 24.4815V24.468L30.18 0.624054C30.6764 0.220378 31.2967 0 31.9365 0C32.5763 0 33.1966 0.220378 33.693 0.624054L63.0089 24.468Z" fill="#157C94"/>
<path d="M56.451 7.83984V29.7398L31.9365 49.2743L7.40854 29.7173V7.83984H56.451Z" fill="#EEEFEE"/>
<path d="M62.7974 65.1398C62.7698 65.1741 62.7386 65.2053 62.7044 65.2329L35.0834 46.8129L37.6109 44.7773L62.7974 65.1398Z" fill="#157C94"/>
<path d="M28.7714 46.8014L1.15648 65.2334C1.11606 65.2135 1.08336 65.1808 1.06348 65.1404L26.2304 44.7539L28.7714 46.8014Z" fill="#157C94"/>
<path d="M12.8415 13.5918H51.0029V15.2418H12.8415V13.5918Z" fill="#DBD8DD"/>
<path d="M12.8415 19.9785H51.0029V21.6285H12.8415V19.9785Z" fill="#DBD8DD"/>
<path d="M12.8415 26.3613H51.0029V28.0113H12.8415V26.3613Z" fill="#DBD8DD"/>
<path d="M19.2509 32.7539H44.6009V34.4039H19.2509V32.7539Z" fill="#DBD8DD"/>
</svg>
