<svg width="340" height="54" viewBox="0 0 340 54" fill="none" xmlns="http://www.w3.org/2000/svg">
<path d="M1.27954 50.9831C0.545397 51.3669 0.261422 52.2732 0.645262 53.0073C1.0291 53.7415 1.9354 54.0254 2.66954 53.6416L1.27954 50.9831ZM2.06315 52.266L1.37689 50.9322L1.36815 50.9367L2.06315 52.266ZM2.29823 52.1451L1.61198 50.8112L2.29823 52.1451ZM5.55778 50.475L4.87796 49.1379L5.55778 50.475ZM5.81197 50.3457L6.49179 51.6828L5.81197 50.3457ZM8.07756 49.13L8.81576 50.4358L8.07756 49.13ZM8.20219 49.0595L7.46399 47.7538L8.20219 49.0595ZM8.32683 48.9891L9.06503 50.2949L8.32683 48.9891ZM10.5954 47.7123L11.3287 49.0209L10.5954 47.7123ZM10.8503 47.5695L10.1171 46.2609L10.8503 47.5695ZM13.1633 46.4551L12.6008 45.0646L13.1633 46.4551ZM13.2929 46.4027L12.7304 45.0122L13.2929 46.4027ZM13.4225 46.3503L13.985 47.7408L13.4225 46.3503ZM15.7376 45.2909L15.0546 43.9554L15.7376 45.2909ZM15.9929 45.1603L16.676 46.4958L15.9929 45.1603ZM18.2856 43.9887L17.6035 42.6528L18.2856 43.9887ZM18.4127 43.9239L19.0947 45.2598L18.4127 43.9239ZM18.5397 43.859L17.8577 42.523L18.5397 43.859ZM20.8537 42.7495L21.4682 44.1179L20.8537 42.7495ZM20.9837 42.6911L20.3692 41.3228L20.9837 42.6911ZM21.1137 42.6327L21.7282 44.0011L21.1137 42.6327ZM23.504 41.7017L23.9771 43.1252L23.504 41.7017ZM23.6395 41.6567L24.1126 43.0801L23.6395 41.6567ZM23.7751 41.6116L23.302 40.1882L23.7751 41.6116ZM26.143 40.5977L25.4405 39.2724L26.143 40.5977ZM26.2706 40.5301L26.9731 41.8554L26.2706 40.5301ZM26.3981 40.4625L25.6957 39.1371L26.3981 40.4625ZM28.7354 39.4193L28.2204 38.0105L28.7354 39.4193ZM28.8675 39.371L29.3824 40.7799L28.8675 39.371ZM28.9996 39.3228L28.4847 37.9139L28.9996 39.3228ZM31.3636 38.2809L30.6748 36.9484L31.3636 38.2809ZM31.4941 38.2134L32.1829 39.5459L31.4941 38.2134ZM31.6246 38.1459L30.9358 36.8134L31.6246 38.1459ZM33.9993 37.1679L33.5564 35.7347L33.9993 37.1679ZM34.1327 37.1267L33.6898 35.6935L34.1327 37.1267ZM34.266 37.0855L34.7089 38.5186L34.266 37.0855ZM36.631 36.1593L35.9856 34.8053L36.631 36.1593ZM36.7605 36.0976L37.4058 37.4517L36.7605 36.0976ZM36.8899 36.0359L36.2445 34.6819L36.8899 36.0359ZM39.2668 35.0129L39.8069 36.4123L39.2668 35.0129ZM39.4015 34.9609L38.8613 33.5615L39.4015 34.9609ZM39.5361 34.9089L40.0763 36.3083L39.5361 34.9089ZM41.9398 34.0299L42.4291 35.4479L41.9398 34.0299ZM42.0722 33.9842L41.5829 32.5663L42.0722 33.9842ZM42.2046 33.9385L41.7154 32.5206L42.2046 33.9385ZM44.6236 33.113L44.1438 31.6918L44.6236 33.113ZM44.7599 33.067L45.2397 34.4882L44.7599 33.067ZM44.8963 33.0209L44.4165 31.5998L44.8963 33.0209ZM47.3062 32.0839L46.6998 30.7119L47.3062 32.0839ZM47.4376 32.0258L46.8312 30.6538L47.4376 32.0258ZM47.5691 31.9677L48.1755 33.3396L47.5691 31.9677ZM49.9584 31.0654L50.4084 32.4964L49.9584 31.0654ZM50.0925 31.0233L49.6425 29.5924L50.0925 31.0233ZM50.2266 30.9811L50.6765 32.412L50.2266 30.9811ZM52.6632 30.2034L53.1252 31.6305L52.6632 30.2034ZM52.7998 30.1592L53.2619 31.5862L52.7998 30.1592ZM52.9365 30.1149L52.4744 28.6879L52.9365 30.1149ZM55.4024 29.3255L54.9499 27.8954L55.4024 29.3255ZM55.6771 29.2386L56.1297 30.6687L55.6771 29.2386ZM58.1051 28.4369L57.6166 27.0186L58.1051 28.4369ZM58.2376 28.3912L58.7261 29.8094L58.2376 28.3912ZM58.37 28.3456L57.8815 26.9274L58.37 28.3456ZM60.7713 27.4978L60.2613 26.0872L60.7713 27.4978ZM61.04 27.4007L60.5301 25.99L61.04 27.4007ZM63.5016 26.5801L63.9407 28.0144L63.5016 26.5801ZM63.6408 26.5375L63.2017 25.1032L63.6408 26.5375ZM63.78 26.4949L64.219 27.9292L63.78 26.4949ZM66.2248 25.711L65.7472 24.289L66.2248 25.711ZM66.3573 25.6665L66.8349 27.0884L66.3573 25.6665ZM66.4898 25.622L66.0122 24.2L66.4898 25.622ZM68.89 24.8075L68.4037 23.3886L68.89 24.8075ZM69.1584 24.7156L69.6447 26.1345L69.1584 24.7156ZM71.5977 23.8933L72.0698 25.317L71.5977 23.8933ZM71.7345 23.8479L71.2624 22.4241L71.7345 23.8479ZM71.8714 23.8025L72.3435 25.2263L71.8714 23.8025ZM74.3301 23.0046L73.8762 21.5749L74.3301 23.0046ZM74.4664 22.9613L74.9202 24.391L74.4664 22.9613ZM74.6027 22.9181L74.1489 21.4884L74.6027 22.9181ZM77.043 22.1666L76.6141 20.7292L77.043 22.1666ZM77.1778 22.1263L77.6067 23.5637L77.1778 22.1263ZM77.3126 22.0861L76.8837 20.6487L77.3126 22.0861ZM79.7923 21.4838L79.5126 20.0101L79.7923 21.4838ZM79.9331 21.4571L80.2128 22.9308L79.9331 21.4571ZM80.0738 21.4304L79.7941 19.9567L80.0738 21.4304ZM82.5972 20.8525L82.2082 19.4038L82.5972 20.8525ZM82.7369 20.815L83.1259 22.2637L82.7369 20.815ZM82.8765 20.7775L82.4875 19.3288L82.8765 20.7775ZM85.3471 20.0504L84.8887 18.6222L85.3471 20.0504ZM85.482 20.0071L85.9404 21.4353L85.482 20.0071ZM85.6168 19.9638L85.1584 18.5356L85.6168 19.9638ZM88.0462 19.2018L87.6069 17.7676L88.0462 19.2018ZM88.1813 19.1605L88.6206 20.5947L88.1813 19.1605ZM88.3164 19.1191L88.7557 20.5533L88.3164 19.1191ZM90.7697 18.3941L91.1807 19.8367L90.7697 18.3941ZM91.0448 18.3157L90.6338 16.8731L91.0448 18.3157ZM93.5607 17.7058L93.2647 16.2353L93.5607 17.7058ZM93.7027 17.6773L93.9987 19.1478L93.7027 17.6773ZM93.8447 17.6487L93.5488 16.1782L93.8447 17.6487ZM96.3446 17.0378L96.7616 18.4787L96.3446 17.0378ZM96.4803 16.9986L96.0633 15.5577L96.4803 16.9986ZM96.6161 16.9593L97.0331 18.4001L96.6161 16.9593ZM99.0652 16.2698L98.6693 14.823L99.0652 16.2698ZM99.2016 16.2325L99.5975 17.6793L99.2016 16.2325ZM99.338 16.1952L98.9421 14.7484L99.338 16.1952ZM101.835 15.6395L102.091 17.1175L101.835 15.6395ZM101.976 15.615L101.72 14.137L101.976 15.615ZM102.117 15.5906L102.373 17.0686L102.117 15.5906ZM104.66 15.1103L104.96 16.5798L104.66 15.1103ZM104.801 15.0813L104.501 13.6118L104.801 15.0813ZM104.943 15.0524L105.243 16.5219L104.943 15.0524ZM107.456 14.4889L107.812 15.946L107.456 14.4889ZM107.731 14.4216L107.375 12.9645L107.731 14.4216ZM110.207 13.8239L110.555 15.283L110.207 13.8239ZM110.344 13.7912L109.996 12.3321L110.344 13.7912ZM110.482 13.7584L110.83 15.2175L110.482 13.7584ZM112.967 13.1709L113.309 14.6313L112.967 13.1709ZM113.106 13.1383L112.764 11.6779L113.106 13.1383ZM113.245 13.1058L113.587 14.5662L113.245 13.1058ZM115.755 12.5136L115.409 11.0541L115.755 12.5136ZM115.895 12.4803L116.242 13.9397L115.895 12.4803ZM116.036 12.447L115.689 10.9876L116.036 12.447ZM118.572 11.9549L118.796 13.4381L118.572 11.9549ZM118.713 11.9335L118.938 13.4167L118.713 11.9335ZM118.855 11.9121L118.631 10.4289L118.855 11.9121ZM121.386 11.5369L121.17 10.0525L121.386 11.5369ZM121.525 11.5167L121.741 13.0011L121.525 11.5167ZM121.665 11.4964L121.449 10.012L121.665 11.4964ZM124.171 11.0457L123.856 9.57909L124.171 11.0457ZM124.449 10.9861L124.763 12.4528L124.449 10.9861ZM127.103 10.4291L127.405 11.8983L127.103 10.4291ZM127.244 10.4002L126.941 8.93098L127.244 10.4002ZM129.787 9.90456L130.059 11.3797L129.787 9.90456ZM129.929 9.87836L129.657 8.4032L129.929 9.87836ZM130.071 9.85216L130.343 11.3273L130.071 9.85216ZM132.599 9.39637L132.859 10.8736L132.599 9.39637ZM132.737 9.37193L132.477 7.8947L132.737 9.37193ZM132.876 9.34748L133.136 10.8247L132.876 9.34748ZM135.39 8.97363L135.571 10.4627L135.39 8.97363ZM135.53 8.95653L135.349 7.4675L135.53 8.95653ZM135.671 8.93944L135.852 10.4285L135.671 8.93944ZM138.189 8.48908L138.534 9.94873L138.189 8.48908ZM138.328 8.45613L137.982 6.99648L138.328 8.45613ZM138.467 8.42319L138.812 9.88284L138.467 8.42319ZM141.007 7.98854L140.847 6.49709L141.007 7.98854ZM141.293 7.95785L141.133 6.4664L141.293 7.95785ZM143.856 7.61765L144.091 9.09915L143.856 7.61765ZM144.139 7.57274L143.905 6.09124L144.139 7.57274ZM146.679 7.25951L146.548 5.76527L146.679 7.25951ZM146.819 7.24716L146.951 8.7414L146.819 7.24716ZM146.96 7.23481L146.829 5.74057L146.96 7.23481ZM149.478 6.86741L149.779 8.33701L149.478 6.86741ZM149.757 6.81046L149.456 5.34085L149.757 6.81046ZM152.29 6.42507L152.14 4.93264L152.29 6.42507ZM152.575 6.39638L152.725 7.8888L152.575 6.39638ZM155.146 6.15036L155.281 7.64424L155.146 6.15036ZM155.432 6.12438L155.297 4.63049L155.432 6.12438ZM157.991 5.8016L157.75 4.321L157.991 5.8016ZM158.132 5.77873L158.372 7.25933L158.132 5.77873ZM158.273 5.75585L158.032 4.27525L158.273 5.75585ZM160.794 5.33535L160.541 3.85686L160.794 5.33535ZM160.933 5.3115L161.187 6.78999L160.933 5.3115ZM161.073 5.28765L160.82 3.80916L161.073 5.28765ZM163.609 5.03922L163.569 3.53974L163.609 5.03922ZM163.751 5.03547L163.791 6.53494L163.751 5.03547ZM163.894 5.03171L163.854 3.53223L163.894 5.03171ZM166.459 4.89798L166.343 3.40251L166.459 4.89798ZM166.744 4.87578L166.628 3.38031L166.744 4.87578ZM169.311 4.59951L169.107 3.11346L169.311 4.59951ZM169.453 4.57991L169.658 6.06596L169.453 4.57991ZM169.596 4.56032L169.392 3.07428L169.596 4.56032ZM172.147 4.16003L172.408 5.63715L172.147 4.16003ZM172.429 4.11027L172.168 2.63316L172.429 4.11027ZM174.967 3.83394L174.905 2.33521L174.967 3.83394ZM175.108 3.82812L175.17 5.32685L175.108 3.82812ZM175.249 3.8223L175.188 2.32357L175.249 3.8223ZM177.802 3.75714L177.787 2.25722L177.802 3.75714ZM177.944 3.75572L177.959 5.25565L177.944 3.75572ZM178.086 3.75431L178.072 2.25438L178.086 3.75431ZM180.649 3.63328L180.523 2.13861L180.649 3.63328ZM180.791 3.62126L180.918 5.11593L180.791 3.62126ZM180.934 3.60923L180.807 2.11455L180.934 3.60923ZM183.495 3.26511L183.224 1.78993L183.495 3.26511ZM183.638 3.23891L183.909 4.71409L183.638 3.23891ZM183.78 3.2127L183.508 1.73752L183.78 3.2127ZM186.35 2.98424L186.359 1.48426L186.35 2.98424ZM186.493 2.98506L186.485 4.48503L186.493 2.98506ZM186.637 2.98588L186.645 1.4859L186.637 2.98588ZM189.196 2.95781L189.238 4.45722L189.196 2.95781ZM189.337 2.95387L189.295 1.45445L189.337 2.95387ZM189.478 2.94993L189.52 4.44934L189.478 2.94993ZM192.018 2.75611L191.833 1.26763L192.018 2.75611ZM192.16 2.73852L192.345 4.227L192.16 2.73852ZM192.301 2.72092L192.115 1.23244L192.301 2.72092ZM194.855 2.52049L194.904 4.01968L194.855 2.52049ZM195.14 2.51114L195.091 1.01194L195.14 2.51114ZM197.714 2.38099L197.816 3.8775L197.714 2.38099ZM197.857 2.3712L197.755 0.874691L197.857 2.3712ZM198 2.36142L198.102 3.85793L198 2.36142ZM200.583 2.21745L200.648 3.71605L200.583 2.21745ZM200.871 2.20503L200.806 0.706427L200.871 2.20503ZM203.436 2.23853L203.331 3.73484L203.436 2.23853ZM203.719 2.2584L203.824 0.762092L203.719 2.2584ZM206.264 2.27359L206.351 3.77105L206.264 2.27359ZM206.405 2.26535L206.492 3.76281L206.405 2.26535ZM206.546 2.2571L206.459 0.759645L206.546 2.2571ZM209.101 2.16288L209.078 0.663058L209.101 2.16288ZM209.386 2.15842L209.409 3.65824L209.386 2.15842ZM211.954 2.05483L211.857 0.557983L211.954 2.05483ZM212.241 2.03626L212.338 3.53311L212.241 2.03626ZM214.823 1.90456L214.879 3.40352L214.823 1.90456ZM215.111 1.89386L215.166 3.39282L215.111 1.89386ZM217.684 1.88159L217.726 0.382182L217.684 1.88159ZM217.968 1.88956L217.926 3.38897L217.968 1.88956ZM220.518 1.8917L220.558 3.39118L220.518 1.8917ZM220.66 1.88796L220.62 0.388483L220.66 1.88796ZM220.801 1.88421L220.761 0.384736L220.801 1.88421ZM223.636 1.93455L223.716 0.436715L223.636 1.93455ZM226.199 2.01135L226.208 0.51138L226.199 2.01135ZM226.484 2.01313L226.475 3.5131L226.484 2.01313ZM229.059 2.09999L229.15 0.602783L229.059 2.09999ZM229.202 2.10875L229.111 3.60596L229.202 2.10875ZM229.345 2.11751L229.437 0.620302L229.345 2.11751ZM231.931 2.18981L231.923 0.689831L231.931 2.18981ZM232.075 2.18909L232.082 3.68907L232.075 2.18909ZM232.219 2.18836L232.226 3.68834L232.219 2.18836ZM234.781 2.25607L234.693 3.7535L234.781 2.25607ZM234.922 2.26432L235.009 0.766887L234.922 2.26432ZM235.062 2.27257L234.974 3.77L235.062 2.27257ZM237.608 2.23539L237.478 0.741049L237.608 2.23539ZM237.892 2.21063L238.022 3.70497L237.892 2.21063ZM240.733 2.2206L240.617 3.71609L240.733 2.2206ZM243.297 2.35653L243.34 0.857132L243.297 2.35653ZM243.44 2.36059L243.398 3.85999L243.44 2.36059ZM243.583 2.36466L243.626 0.865266L243.583 2.36466ZM246.301 2.55002L246.456 1.05806L246.301 2.55002ZM249.021 2.7156L249.001 4.21548L249.021 2.7156ZM249.307 2.71934L249.327 1.21947L249.307 2.71934ZM251.86 2.87366L251.698 4.36487L251.86 2.87366ZM254.678 3.13261L254.571 4.6288L254.678 3.13261ZM254.819 3.14271L254.926 1.64652L254.819 3.14271ZM254.961 3.15281L254.854 4.649L254.961 3.15281ZM257.514 3.30234L257.445 4.80077L257.514 3.30234ZM257.656 3.30886L257.725 1.81043L257.656 3.30886ZM257.798 3.31537L257.73 4.8138L257.798 3.31537ZM260.369 3.38425L260.357 4.88421L260.369 3.38425ZM260.513 3.38539L260.525 1.88544L260.513 3.38539ZM260.656 3.38653L260.644 4.88648L260.656 3.38653ZM263.226 3.62692L262.96 5.10321L263.226 3.62692ZM263.368 3.6525L263.102 5.12878L263.368 3.6525ZM263.51 3.67807L263.775 2.20179L263.51 3.67807ZM266.068 4.02779L265.929 5.52128L266.068 4.02779ZM266.353 4.05435L266.492 2.56086L266.353 4.05435ZM268.897 4.29501L269.04 2.80184L268.897 4.29501ZM269.037 4.30846L269.18 2.81529L269.037 4.30846ZM269.178 4.32192L269.035 5.81508L269.178 4.32192ZM271.713 4.55924L271.576 6.053L271.713 4.55924ZM271.995 4.58506L272.132 3.0913L271.995 4.58506ZM274.546 4.776L274.459 6.27345L274.546 4.776ZM274.831 4.7926L274.918 3.29515L274.831 4.7926ZM277.393 4.99179L277.538 3.49882L277.393 4.99179ZM277.678 5.01945L277.533 6.51243L277.678 5.01945ZM280.249 5.2402L280.361 3.74436L280.249 5.2402ZM280.536 5.2616L280.425 6.75744L280.536 5.2616ZM283.104 5.52285L283.296 4.03522L283.104 5.52285ZM283.387 5.55952L283.195 7.04715L283.387 5.55952ZM286.21 5.87822L286.359 4.38559L286.21 5.87822ZM288.735 6.20951L288.493 7.68994L288.735 6.20951ZM289.015 6.25518L289.256 4.77474L289.015 6.25518ZM291.538 6.67974L291.281 8.15768L291.538 6.67974ZM291.818 6.72841L292.075 5.25048L291.818 6.72841ZM294.368 7.03863L294.474 5.54238L294.368 7.03863ZM294.653 7.05889L294.547 8.55514L294.653 7.05889ZM297.215 7.35999L297.458 5.87991L297.215 7.35999ZM297.356 7.38332L297.113 8.86339L297.356 7.38332ZM297.498 7.40664L297.742 5.92657L297.498 7.40664ZM300.328 7.90988L300.05 9.38389L300.328 7.90988ZM302.858 8.32398L303.064 6.83817L302.858 8.32398ZM303.137 8.36268L302.932 9.84849L303.137 8.36268ZM305.647 8.77126L305.371 10.2457L305.647 8.77126ZM305.786 8.79731L306.062 7.3229L305.786 8.79731ZM305.926 8.82336L305.65 10.2978L305.926 8.82336ZM308.433 9.31369L308.133 10.7834L308.433 9.31369ZM308.572 9.34212L308.872 7.8724L308.572 9.34212ZM308.711 9.37055L308.411 10.8403L308.711 9.37055ZM311.231 9.84403L311.485 8.36572L311.231 9.84403ZM311.372 9.86821L311.626 8.3899L311.372 9.86821ZM311.512 9.89238L311.258 11.3707L311.512 9.89238ZM314.057 10.2849L313.853 11.771L314.057 10.2849ZM314.199 10.3043L314.402 8.81816L314.199 10.3043ZM314.341 10.3238L314.544 8.83759L314.341 10.3238ZM316.89 10.751L316.598 12.2222L316.89 10.751ZM317.031 10.779L317.323 9.30774L317.031 10.779ZM317.172 10.807L316.88 12.2783L317.172 10.807ZM319.717 11.1918L319.872 9.69982L319.717 11.1918ZM322.527 11.5787L322.261 13.0551L322.527 11.5787ZM322.805 11.6287L323.07 10.1524L322.805 11.6287ZM325.3 12.1539L324.948 13.6119L325.3 12.1539ZM325.438 12.1872L325.79 10.7291L325.438 12.1872ZM325.576 12.2205L325.224 13.6786L325.576 12.2205ZM328.056 12.8689L327.649 14.3128L328.056 12.8689ZM328.193 12.9076L328.6 11.4637L328.193 12.9076ZM328.331 12.9463L327.924 14.3902L328.331 12.9463ZM330.84 13.498L330.604 14.9792L330.84 13.498ZM331.123 13.5432L331.36 12.062L331.123 13.5432ZM333.646 14.0754L333.265 15.5262L333.646 14.0754ZM333.786 14.112L334.167 12.6612L333.786 14.112ZM333.925 14.1485L333.543 15.5992L333.925 14.1485ZM336.283 14.6814L336.011 16.1565L336.283 14.6814ZM336.406 14.7041L336.678 13.2289L336.406 14.7041ZM336.529 14.7267L336.257 16.2019L336.529 14.7267ZM337.644 14.8947L336.18 14.5709L337.644 14.8947ZM337.645 14.8907L339.11 15.2146L339.329 14.2226L338.489 13.6509L337.645 14.8907ZM337.556 14.8301L337.864 13.3621L336.712 16.07L337.556 14.8301ZM337.346 16.3187C338.157 16.4888 338.952 15.9695 339.122 15.1588C339.292 14.348 338.773 13.5528 337.962 13.3826L337.346 16.3187ZM1.97454 52.3123L2.66954 53.6416L2.75816 53.5953L2.06315 52.266L1.36815 50.9367L1.27954 50.9831L1.97454 52.3123ZM2.06315 52.266L2.7494 53.5998L2.98448 53.4789L2.29823 52.1451L1.61198 50.8112L1.37691 50.9322L2.06315 52.266ZM2.29823 52.1451L2.98448 53.4789C4.39426 52.7535 5.47825 52.1981 6.23759 51.8121L5.55778 50.475L4.87796 49.1379C4.11214 49.5272 3.0231 50.0852 1.61198 50.8112L2.29823 52.1451ZM5.55778 50.475L6.23759 51.8121L6.36469 51.7474L5.68488 50.4103L5.00506 49.0732L4.87796 49.1379L5.55778 50.475ZM5.68488 50.4103L6.36469 51.7474L6.49179 51.6828L5.81197 50.3457L5.13216 49.0086L5.00506 49.0732L5.68488 50.4103ZM5.81197 50.3457L6.49179 51.6828C7.27415 51.2851 8.04881 50.8694 8.81576 50.4358L8.07756 49.13L7.33935 47.8242C6.6107 48.2362 5.87497 48.631 5.13216 49.0086L5.81197 50.3457ZM8.07756 49.13L8.81576 50.4358L8.9404 50.3653L8.20219 49.0595L7.46399 47.7538L7.33935 47.8242L8.07756 49.13ZM8.20219 49.0595L8.9404 50.3653L9.06503 50.2949L8.32683 48.9891L7.58862 47.6833L7.46399 47.7538L8.20219 49.0595ZM8.32683 48.9891L9.06503 50.2949C9.81115 49.873 10.5657 49.4484 11.3287 49.0209L10.5954 47.7123L9.86221 46.4037C9.09598 46.8331 8.33812 47.2596 7.58862 47.6833L8.32683 48.9891ZM10.5954 47.7123L11.3287 49.0209L11.4561 48.9495L10.7229 47.6409L9.98964 46.3323L9.86221 46.4037L10.5954 47.7123ZM10.7229 47.6409L11.4561 48.9495L11.5835 48.8781L10.8503 47.5695L10.1171 46.2609L9.98964 46.3323L10.7229 47.6409ZM10.8503 47.5695L11.5835 48.8781C12.2955 48.4791 13.0096 48.1354 13.7258 47.8456L13.1633 46.4551L12.6008 45.0646C11.7623 45.4038 10.9343 45.803 10.1171 46.2609L10.8503 47.5695ZM13.1633 46.4551L13.7258 47.8456L13.8554 47.7932L13.2929 46.4027L12.7304 45.0122L12.6008 45.0646L13.1633 46.4551ZM13.2929 46.4027L13.8554 47.7932L13.985 47.7408L13.4225 46.3503L12.86 44.9597L12.7304 45.0122L13.2929 46.4027ZM13.4225 46.3503L13.985 47.7408C14.8044 47.4093 15.6163 47.0377 16.4206 46.6263L15.7376 45.2909L15.0546 43.9554C14.3269 44.3276 13.5954 44.6623 12.86 44.9597L13.4225 46.3503ZM15.7376 45.2909L16.4206 46.6263L16.5483 46.561L15.8653 45.2256L15.1822 43.8901L15.0546 43.9554L15.7376 45.2909ZM15.8653 45.2256L16.5483 46.561L16.676 46.4958L15.9929 45.1603L15.3099 43.8248L15.1822 43.8901L15.8653 45.2256ZM15.9929 45.1603L16.676 46.4958C17.4417 46.1041 18.2056 45.7138 18.9677 45.3247L18.2856 43.9887L17.6035 42.6528C16.8408 43.0422 16.0762 43.4329 15.3099 43.8248L15.9929 45.1603ZM18.2856 43.9887L18.9677 45.3247L19.0947 45.2598L18.4127 43.9239L17.7306 42.5879L17.6035 42.6528L18.2856 43.9887ZM18.4127 43.9239L19.0947 45.2598L19.2218 45.1949L18.5397 43.859L17.8577 42.523L17.7306 42.5879L18.4127 43.9239ZM18.5397 43.859L19.2218 45.1949C19.962 44.817 20.7108 44.458 21.4682 44.1179L20.8537 42.7495L20.2391 41.3812C19.4361 41.7418 18.6423 42.1224 17.8577 42.523L18.5397 43.859ZM20.8537 42.7495L21.4682 44.1179L21.5982 44.0595L20.9837 42.6911L20.3692 41.3228L20.2391 41.3812L20.8537 42.7495ZM20.9837 42.6911L21.5982 44.0595L21.7282 44.0011L21.1137 42.6327L20.4992 41.2644L20.3692 41.3228L20.9837 42.6911ZM21.1137 42.6327L21.7282 44.0011C22.4622 43.6715 23.2117 43.3795 23.9771 43.1252L23.504 41.7017L23.0309 40.2783C22.1697 40.5645 21.3257 40.8932 20.4992 41.2644L21.1137 42.6327ZM23.504 41.7017L23.9771 43.1252L24.1126 43.0801L23.6395 41.6567L23.1665 40.2332L23.0309 40.2783L23.504 41.7017ZM23.6395 41.6567L24.1126 43.0801L24.2482 43.0351L23.7751 41.6116L23.302 40.1882L23.1665 40.2332L23.6395 41.6567ZM23.7751 41.6116L24.2482 43.0351C25.1414 42.7382 26.0073 42.3673 26.8455 41.923L26.143 40.5977L25.4405 39.2724C24.748 39.6394 24.0354 39.9444 23.302 40.1882L23.7751 41.6116ZM26.143 40.5977L26.8455 41.923L26.9731 41.8554L26.2706 40.5301L25.5681 39.2048L25.4405 39.2724L26.143 40.5977ZM26.2706 40.5301L26.9731 41.8554L27.1006 41.7878L26.3981 40.4625L25.6957 39.1371L25.5681 39.2048L26.2706 40.5301ZM26.3981 40.4625L27.1006 41.7878C27.807 41.4134 28.5235 41.0938 29.2503 40.8282L28.7354 39.4193L28.2204 38.0105C27.3616 38.3244 26.52 38.7002 25.6957 39.1371L26.3981 40.4625ZM28.7354 39.4193L29.2503 40.8282L29.3824 40.7799L28.8675 39.371L28.3526 37.9622L28.2204 38.0105L28.7354 39.4193ZM28.8675 39.371L29.3824 40.7799L29.5146 40.7316L28.9996 39.3228L28.4847 37.9139L28.3526 37.9622L28.8675 39.371ZM28.9996 39.3228L29.5146 40.7316C30.3694 40.4191 31.2154 40.046 32.0523 39.6134L31.3636 38.2809L30.6748 36.9484C29.9454 37.3254 29.2154 37.6468 28.4847 37.9139L28.9996 39.3228ZM31.3636 38.2809L32.0523 39.6134L32.1829 39.5459L31.4941 38.2134L30.8053 36.8809L30.6748 36.9484L31.3636 38.2809ZM31.4941 38.2134L32.1829 39.5459L32.3134 39.4785L31.6246 38.1459L30.9358 36.8134L30.8053 36.8809L31.4941 38.2134ZM31.6246 38.1459L32.3134 39.4785C33.0218 39.1123 33.7313 38.8207 34.4422 38.601L33.9993 37.1679L33.5564 35.7347C32.6673 36.0095 31.7937 36.37 30.9358 36.8134L31.6246 38.1459ZM33.9993 37.1679L34.4422 38.601L34.5756 38.5598L34.1327 37.1267L33.6898 35.6935L33.5564 35.7347L33.9993 37.1679ZM34.1327 37.1267L34.5756 38.5598L34.7089 38.5186L34.266 37.0855L33.8231 35.6523L33.6898 35.6935L34.1327 37.1267ZM34.266 37.0855L34.7089 38.5186C35.5801 38.2493 36.436 37.9139 37.2764 37.5134L36.631 36.1593L35.9856 34.8053C35.2727 35.1451 34.5519 35.4271 33.8231 35.6523L34.266 37.0855ZM36.631 36.1593L37.2764 37.5134L37.4058 37.4517L36.7605 36.0976L36.1151 34.7436L35.9856 34.8053L36.631 36.1593ZM36.7605 36.0976L37.4058 37.4517L37.5353 37.39L36.8899 36.0359L36.2445 34.6819L36.1151 34.7436L36.7605 36.0976ZM36.8899 36.0359L37.5353 37.39C38.2772 37.0364 39.0344 36.7105 39.8069 36.4123L39.2668 35.0129L38.7267 33.6135C37.8833 33.939 37.0559 34.2951 36.2445 34.6819L36.8899 36.0359ZM39.2668 35.0129L39.8069 36.4123L39.9416 36.3603L39.4015 34.9609L38.8613 33.5615L38.7267 33.6135L39.2668 35.0129ZM39.4015 34.9609L39.9416 36.3603L40.0763 36.3083L39.5361 34.9089L38.996 33.5096L38.8613 33.5615L39.4015 34.9609ZM39.5361 34.9089L40.0763 36.3083C40.8679 36.0028 41.6522 35.716 42.4291 35.4479L41.9398 34.0299L41.4505 32.612C40.6384 32.8922 39.8203 33.1914 38.996 33.5096L39.5361 34.9089ZM41.9398 34.0299L42.4291 35.4479L42.5615 35.4022L42.0722 33.9842L41.5829 32.5663L41.4505 32.612L41.9398 34.0299ZM42.0722 33.9842L42.5615 35.4022L42.6939 35.3565L42.2046 33.9385L41.7154 32.5206L41.5829 32.5663L42.0722 33.9842ZM42.2046 33.9385L42.6939 35.3565C43.4852 35.0835 44.2883 34.8094 45.1034 34.5342L44.6236 33.113L44.1438 31.6918C43.3226 31.969 42.5131 32.2453 41.7154 32.5206L42.2046 33.9385ZM44.6236 33.113L45.1034 34.5342L45.2397 34.4882L44.7599 33.067L44.2801 31.6458L44.1438 31.6918L44.6236 33.113ZM44.7599 33.067L45.2397 34.4882L45.3761 34.4421L44.8963 33.0209L44.4165 31.5998L44.2801 31.6458L44.7599 33.067ZM44.8963 33.0209L45.3761 34.4421C46.2371 34.1515 47.0826 33.8227 47.9127 33.4558L47.3062 32.0839L46.6998 30.7119C45.9528 31.0421 45.1917 31.338 44.4165 31.5998L44.8963 33.0209ZM47.3062 32.0839L47.9127 33.4558L48.0441 33.3977L47.4376 32.0258L46.8312 30.6538L46.6998 30.7119L47.3062 32.0839ZM47.4376 32.0258L48.0441 33.3977L48.1755 33.3396L47.5691 31.9677L46.9626 30.5957L46.8312 30.6538L47.4376 32.0258ZM47.5691 31.9677L48.1755 33.3396C48.9141 33.0131 49.6584 32.7322 50.4084 32.4964L49.9584 31.0654L49.5085 29.6345C48.6497 29.9046 47.801 30.2251 46.9626 30.5957L47.5691 31.9677ZM49.9584 31.0654L50.4084 32.4964L50.5425 32.4542L50.0925 31.0233L49.6425 29.5924L49.5085 29.6345L49.9584 31.0654ZM50.0925 31.0233L50.5425 32.4542L50.6765 32.412L50.2266 30.9811L49.7766 29.5502L49.6425 29.5924L50.0925 31.0233ZM50.2266 30.9811L50.6765 32.412C51.4851 32.1578 52.3013 31.8973 53.1252 31.6305L52.6632 30.2034L52.2011 28.7764C51.385 29.0406 50.5769 29.2985 49.7766 29.5502L50.2266 30.9811ZM52.6632 30.2034L53.1252 31.6305L53.2619 31.5862L52.7998 30.1592L52.3378 28.7321L52.2011 28.7764L52.6632 30.2034ZM52.7998 30.1592L53.2619 31.5862L53.3986 31.542L52.9365 30.1149L52.4744 28.6879L52.3378 28.7321L52.7998 30.1592ZM52.9365 30.1149L53.3986 31.542C54.2154 31.2775 55.0342 31.0154 55.855 30.7556L55.4024 29.3255L54.9499 27.8954C54.1227 28.1572 53.2976 28.4213 52.4744 28.6879L52.9365 30.1149ZM55.4024 29.3255L55.855 30.7556L55.9923 30.7122L55.5398 29.2821L55.0872 27.852L54.9499 27.8954L55.4024 29.3255ZM55.5398 29.2821L55.9923 30.7122L56.1297 30.6687L55.6771 29.2386L55.2245 27.8085L55.0872 27.852L55.5398 29.2821ZM55.6771 29.2386L56.1297 30.6687C56.9653 30.4043 57.7867 30.1331 58.5937 29.8551L58.1051 28.4369L57.6166 27.0186C56.8342 27.2882 56.0368 27.5515 55.2245 27.8085L55.6771 29.2386ZM58.1051 28.4369L58.5937 29.8551L58.7261 29.8094L58.2376 28.3912L57.7491 26.973L57.6166 27.0186L58.1051 28.4369ZM58.2376 28.3912L58.7261 29.8094L58.8586 29.7638L58.37 28.3456L57.8815 26.9274L57.7491 26.973L58.2376 28.3912ZM58.37 28.3456L58.8586 29.7638C59.6606 29.4875 60.4682 29.2024 61.2813 28.9085L60.7713 27.4978L60.2613 26.0872C59.4622 26.3761 58.6689 26.6562 57.8815 26.9274L58.37 28.3456ZM60.7713 27.4978L61.2813 28.9085L61.4157 28.8599L60.9057 27.4492L60.3957 26.0386L60.2613 26.0872L60.7713 27.4978ZM60.9057 27.4492L61.4157 28.8599L61.55 28.8113L61.04 27.4007L60.5301 25.99L60.3957 26.0386L60.9057 27.4492ZM61.04 27.4007L61.55 28.8113C62.3323 28.5285 63.1292 28.2629 63.9407 28.0144L63.5016 26.5801L63.0626 25.1458C62.2042 25.4086 61.3601 25.69 60.5301 25.99L61.04 27.4007ZM63.5016 26.5801L63.9407 28.0144L64.0799 27.9718L63.6408 26.5375L63.2017 25.1032L63.0626 25.1458L63.5016 26.5801ZM63.6408 26.5375L64.0799 27.9718L64.219 27.9292L63.78 26.4949L63.3409 25.0606L63.2017 25.1032L63.6408 26.5375ZM63.78 26.4949L64.219 27.9292C65.0664 27.6698 65.8942 27.4044 66.7024 27.1329L66.2248 25.711L65.7472 24.289C64.9655 24.5516 64.1634 24.8088 63.3409 25.0606L63.78 26.4949ZM66.2248 25.711L66.7024 27.1329L66.8349 27.0884L66.3573 25.6665L65.8797 24.2445L65.7472 24.289L66.2248 25.711ZM66.3573 25.6665L66.8349 27.0884L66.9674 27.0439L66.4898 25.622L66.0122 24.2L65.8797 24.2445L66.3573 25.6665ZM66.4898 25.622L66.9674 27.0439C67.7654 26.7759 68.5683 26.5034 69.3763 26.2265L68.89 24.8075L68.4037 23.3886C67.6014 23.6635 66.8043 23.934 66.0122 24.2L66.4898 25.622ZM68.89 24.8075L69.3763 26.2265L69.5105 26.1805L69.0242 24.7616L68.5379 23.3426L68.4037 23.3886L68.89 24.8075ZM69.0242 24.7616L69.5105 26.1805L69.6447 26.1345L69.1584 24.7156L68.6721 23.2966L68.5379 23.3426L69.0242 24.7616ZM69.1584 24.7156L69.6447 26.1345C70.445 25.8602 71.2534 25.5878 72.0698 25.317L71.5977 23.8933L71.1256 22.4695C70.2999 22.7433 69.482 23.019 68.6721 23.2966L69.1584 24.7156ZM71.5977 23.8933L72.0698 25.317L72.2066 25.2717L71.7345 23.8479L71.2624 22.4241L71.1256 22.4695L71.5977 23.8933ZM71.7345 23.8479L72.2066 25.2717L72.3435 25.2263L71.8714 23.8025L71.3993 22.3788L71.2624 22.4241L71.7345 23.8479ZM71.8714 23.8025L72.3435 25.2263C73.1585 24.956 73.972 24.6921 74.7839 24.4343L74.3301 23.0046L73.8762 21.5749C73.052 21.8366 72.2264 22.1045 71.3993 22.3788L71.8714 23.8025ZM74.3301 23.0046L74.7839 24.4343L74.9202 24.391L74.4664 22.9613L74.0126 21.5317L73.8762 21.5749L74.3301 23.0046ZM74.4664 22.9613L74.9202 24.391L75.0566 24.3478L74.6027 22.9181L74.1489 21.4884L74.0126 21.5317L74.4664 22.9613ZM74.6027 22.9181L75.0566 24.3478C75.8665 24.0907 76.6716 23.8427 77.4719 23.604L77.043 22.1666L76.6141 20.7292C75.7969 20.973 74.9751 21.2261 74.1489 21.4884L74.6027 22.9181ZM77.043 22.1666L77.4719 23.604L77.6067 23.5637L77.1778 22.1263L76.7489 20.689L76.6141 20.7292L77.043 22.1666ZM77.1778 22.1263L77.6067 23.5637L77.7415 23.5235L77.3126 22.0861L76.8837 20.6487L76.7489 20.689L77.1778 22.1263ZM77.3126 22.0861L77.7415 23.5235C78.5003 23.2971 79.2771 23.1083 80.072 22.9575L79.7923 21.4838L79.5126 20.0101C78.6189 20.1797 77.7425 20.3925 76.8837 20.6487L77.3126 22.0861ZM79.7923 21.4838L80.072 22.9575L80.2128 22.9308L79.9331 21.4571L79.6534 19.9834L79.5126 20.0101L79.7923 21.4838ZM79.9331 21.4571L80.2128 22.9308L80.3535 22.904L80.0738 21.4304L79.7941 19.9567L79.6534 19.9834L79.9331 21.4571ZM80.0738 21.4304L80.3535 22.904C81.2349 22.7368 82.1125 22.5358 82.9862 22.3012L82.5972 20.8525L82.2082 19.4038C81.4061 19.6192 80.6014 19.8034 79.7941 19.9567L80.0738 21.4304ZM82.5972 20.8525L82.9862 22.3012L83.1259 22.2637L82.7369 20.815L82.3479 19.3663L82.2082 19.4038L82.5972 20.8525ZM82.7369 20.815L83.1259 22.2637L83.2655 22.2262L82.8765 20.7775L82.4875 19.3288L82.3479 19.3663L82.7369 20.815ZM82.8765 20.7775L83.2655 22.2262C84.1263 21.995 84.9729 21.7459 85.8055 21.4786L85.3471 20.0504L84.8887 18.6222C84.103 18.8744 83.3026 19.1099 82.4875 19.3288L82.8765 20.7775ZM85.3471 20.0504L85.8055 21.4786L85.9404 21.4353L85.482 20.0071L85.0235 18.5789L84.8887 18.6222L85.3471 20.0504ZM85.482 20.0071L85.9404 21.4353L86.0753 21.3921L85.6168 19.9638L85.1584 18.5356L85.0235 18.5789L85.482 20.0071ZM85.6168 19.9638L86.0753 21.3921C86.8781 21.1344 87.6815 20.8824 88.4855 20.6361L88.0462 19.2018L87.6069 17.7676C86.79 18.0179 85.9739 18.2738 85.1584 18.5356L85.6168 19.9638ZM88.0462 19.2018L88.4855 20.6361L88.6206 20.5947L88.1813 19.1605L87.7419 17.7262L87.6069 17.7676L88.0462 19.2018ZM88.1813 19.1605L88.6206 20.5947L88.7557 20.5533L88.3164 19.1191L87.877 17.6849L87.7419 17.7262L88.1813 19.1605ZM88.3164 19.1191L88.7557 20.5533C89.5566 20.308 90.3649 20.0691 91.1807 19.8367L90.7697 18.3941L90.3587 16.9515C89.5242 17.1892 88.697 17.4337 87.877 17.6849L88.3164 19.1191ZM90.7697 18.3941L91.1807 19.8367L91.3182 19.7975L90.9072 18.3549L90.4963 16.9123L90.3587 16.9515L90.7697 18.3941ZM90.9072 18.3549L91.3182 19.7975L91.4557 19.7583L91.0448 18.3157L90.6338 16.8731L90.4963 16.9123L90.9072 18.3549ZM91.0448 18.3157L91.4557 19.7583C92.2424 19.5342 93.0427 19.3402 93.8567 19.1764L93.5607 17.7058L93.2647 16.2353C92.3744 16.4145 91.4973 16.6271 90.6338 16.8731L91.0448 18.3157ZM93.5607 17.7058L93.8567 19.1764L93.9987 19.1478L93.7027 17.6773L93.4067 16.2068L93.2647 16.2353L93.5607 17.7058ZM93.7027 17.6773L93.9987 19.1478L94.1407 19.1192L93.8447 17.6487L93.5488 16.1782L93.4067 16.2068L93.7027 17.6773ZM93.8447 17.6487L94.1407 19.1192C95.0326 18.9397 95.9063 18.7263 96.7616 18.4787L96.3446 17.0378L95.9276 15.597C95.1541 15.8208 94.3612 16.0146 93.5488 16.1782L93.8447 17.6487ZM96.3446 17.0378L96.7616 18.4787L96.8973 18.4394L96.4803 16.9986L96.0633 15.5577L95.9276 15.597L96.3446 17.0378ZM96.4803 16.9986L96.8973 18.4394L97.0331 18.4001L96.6161 16.9593L96.199 15.5184L96.0633 15.5577L96.4803 16.9986ZM96.6161 16.9593L97.0331 18.4001C97.8405 18.1665 98.6498 17.9386 99.4611 17.7166L99.0652 16.2698L98.6693 14.823C97.8439 15.0489 97.0205 15.2807 96.199 15.5184L96.6161 16.9593ZM99.0652 16.2698L99.4611 17.7166L99.5975 17.6793L99.2016 16.2325L98.8057 14.7857L98.6693 14.823L99.0652 16.2698ZM99.2016 16.2325L99.5975 17.6793L99.7339 17.642L99.338 16.1952L98.9421 14.7484L98.8057 14.7857L99.2016 16.2325ZM99.338 16.1952L99.7339 17.642C100.505 17.4308 101.291 17.256 102.091 17.1175L101.835 15.6395L101.579 14.1615C100.686 14.3161 99.8071 14.5116 98.9421 14.7484L99.338 16.1952ZM101.835 15.6395L102.091 17.1175L102.232 17.0931L101.976 15.615L101.72 14.137L101.579 14.1615L101.835 15.6395ZM101.976 15.615L102.232 17.0931L102.373 17.0686L102.117 15.5906L101.861 14.1126L101.72 14.137L101.976 15.615ZM102.117 15.5906L102.373 17.0686C103.234 16.9195 104.097 16.7566 104.96 16.5798L104.66 15.1103L104.359 13.6407C103.525 13.8114 102.692 13.9687 101.861 14.1126L102.117 15.5906ZM104.66 15.1103L104.96 16.5798L105.102 16.5509L104.801 15.0813L104.501 13.6118L104.359 13.6407L104.66 15.1103ZM104.801 15.0813L105.102 16.5509L105.243 16.5219L104.943 15.0524L104.642 13.5828L104.501 13.6118L104.801 15.0813ZM104.943 15.0524L105.243 16.5219C106.111 16.3445 106.967 16.1526 107.812 15.946L107.456 14.4889L107.1 13.0318C106.292 13.2292 105.473 13.4129 104.642 13.5828L104.943 15.0524ZM107.456 14.4889L107.812 15.946L107.95 15.9124L107.594 14.4552L107.238 12.9981L107.1 13.0318L107.456 14.4889ZM107.594 14.4552L107.95 15.9124L108.087 15.8787L107.731 14.4216L107.375 12.9645L107.238 12.9981L107.594 14.4552ZM107.731 14.4216L108.087 15.8787C108.911 15.6774 109.734 15.4788 110.555 15.283L110.207 13.8239L109.859 12.3648C109.032 12.5619 108.204 12.7618 107.375 12.9645L107.731 14.4216ZM110.207 13.8239L110.555 15.283L110.692 15.2503L110.344 13.7912L109.996 12.3321L109.859 12.3648L110.207 13.8239ZM110.344 13.7912L110.692 15.2503L110.83 15.2175L110.482 13.7584L110.134 12.2993L109.996 12.3321L110.344 13.7912ZM110.482 13.7584L110.83 15.2175C111.652 15.0215 112.478 14.8261 113.309 14.6313L112.967 13.1709L112.625 11.7104C111.79 11.9061 110.96 12.1024 110.134 12.2993L110.482 13.7584ZM112.967 13.1709L113.309 14.6313L113.448 14.5987L113.106 13.1383L112.764 11.6779L112.625 11.7104L112.967 13.1709ZM113.106 13.1383L113.448 14.5987L113.587 14.5662L113.245 13.1058L112.903 11.6454L112.764 11.6779L113.106 13.1383ZM113.245 13.1058L113.587 14.5662C114.422 14.3706 115.26 14.1729 116.102 13.973L115.755 12.5136L115.409 11.0541C114.57 11.2534 113.734 11.4505 112.903 11.6454L113.245 13.1058ZM115.755 12.5136L116.102 13.973L116.242 13.9397L115.895 12.4803L115.549 11.0209L115.409 11.0541L115.755 12.5136ZM115.895 12.4803L116.242 13.9397L116.382 13.9065L116.036 12.447L115.689 10.9876L115.549 11.0209L115.895 12.4803ZM116.036 12.447L116.382 13.9065C117.183 13.7164 117.987 13.5603 118.796 13.4381L118.572 11.9549L118.348 10.4718C117.456 10.6065 116.57 10.7785 115.689 10.9876L116.036 12.447ZM118.572 11.9549L118.796 13.4381L118.938 13.4167L118.713 11.9335L118.489 10.4504L118.348 10.4718L118.572 11.9549ZM118.713 11.9335L118.938 13.4167L119.079 13.3953L118.855 11.9121L118.631 10.4289L118.489 10.4504L118.713 11.9335ZM118.855 11.9121L119.079 13.3953C119.927 13.2672 120.767 13.1426 121.602 13.0214L121.386 11.5369L121.17 10.0525C120.33 10.1746 119.484 10.3 118.631 10.4289L118.855 11.9121ZM121.386 11.5369L121.602 13.0214L121.741 13.0011L121.525 11.5167L121.31 10.0323L121.17 10.0525L121.386 11.5369ZM121.525 11.5167L121.741 13.0011L121.881 12.9808L121.665 11.4964L121.449 10.012L121.31 10.0323L121.525 11.5167ZM121.665 11.4964L121.881 12.9808C122.751 12.8543 123.619 12.6982 124.486 12.5124L124.171 11.0457L123.856 9.57909C123.055 9.75094 122.253 9.89521 121.449 10.012L121.665 11.4964ZM124.171 11.0457L124.486 12.5124L124.625 12.4826L124.31 11.0159L123.995 9.54929L123.856 9.57909L124.171 11.0457ZM124.31 11.0159L124.625 12.4826L124.763 12.4528L124.449 10.9861L124.134 9.51948L123.995 9.54929L124.31 11.0159ZM124.449 10.9861L124.763 12.4528C125.593 12.2748 126.427 12.0996 127.265 11.9272L126.963 10.458L126.661 8.98874C125.814 9.16285 124.972 9.33977 124.134 9.51948L124.449 10.9861ZM126.963 10.458L127.265 11.9272L127.405 11.8983L127.103 10.4291L126.801 8.95986L126.661 8.98874L126.963 10.458ZM127.103 10.4291L127.405 11.8983L127.546 11.8695L127.244 10.4002L126.941 8.93098L126.801 8.95986L127.103 10.4291ZM127.244 10.4002L127.546 11.8695C128.378 11.6983 129.216 11.535 130.059 11.3797L129.787 9.90456L129.515 8.42939C128.652 8.58842 127.794 8.75562 126.941 8.93098L127.244 10.4002ZM129.787 9.90456L130.059 11.3797L130.201 11.3535L129.929 9.87836L129.657 8.4032L129.515 8.42939L129.787 9.90456ZM129.929 9.87836L130.201 11.3535L130.343 11.3273L130.071 9.85216L129.799 8.377L129.657 8.4032L129.929 9.87836ZM130.071 9.85216L130.343 11.3273C131.192 11.1708 132.031 11.0196 132.859 10.8736L132.599 9.39637L132.338 7.91915C131.502 8.06652 130.656 8.21914 129.799 8.377L130.071 9.85216ZM132.599 9.39637L132.859 10.8736L132.998 10.8492L132.737 9.37193L132.477 7.8947L132.338 7.91915L132.599 9.39637ZM132.737 9.37193L132.998 10.8492L133.136 10.8247L132.876 9.34748L132.616 7.87026L132.477 7.8947L132.737 9.37193ZM132.876 9.34748L133.136 10.8247C133.942 10.6827 134.753 10.562 135.571 10.4627L135.39 8.97363L135.208 7.48459C134.339 7.59035 133.474 7.7189 132.616 7.87026L132.876 9.34748ZM135.39 8.97363L135.571 10.4627L135.711 10.4456L135.53 8.95653L135.349 7.4675L135.208 7.48459L135.39 8.97363ZM135.53 8.95653L135.711 10.4456L135.852 10.4285L135.671 8.93944L135.49 7.4504L135.349 7.4675L135.53 8.95653ZM135.671 8.93944L135.852 10.4285C136.751 10.3191 137.645 10.1591 138.534 9.94873L138.189 8.48908L137.843 7.02943C137.062 7.21439 136.277 7.35464 135.49 7.4504L135.671 8.93944ZM138.189 8.48908L138.534 9.94873L138.673 9.91578L138.328 8.45613L137.982 6.99648L137.843 7.02943L138.189 8.48908ZM138.328 8.45613L138.673 9.91578L138.812 9.88284L138.467 8.42319L138.121 6.96354L137.982 6.99648L138.328 8.45613ZM138.467 8.42319L138.812 9.88284C139.586 9.69972 140.371 9.56541 141.167 9.47999L141.007 7.98854L140.847 6.49709C139.927 6.59583 139.018 6.75128 138.121 6.96354L138.467 8.42319ZM141.007 7.98854L141.167 9.47999L141.31 9.46464L141.15 7.97319L140.99 6.48175L140.847 6.49709L141.007 7.98854ZM141.15 7.97319L141.31 9.46464L141.453 9.44929L141.293 7.95785L141.133 6.4664L140.99 6.48175L141.15 7.97319ZM141.293 7.95785L141.453 9.44929C142.337 9.35454 143.216 9.23783 144.091 9.09915L143.856 7.61765L143.621 6.13614C142.796 6.26691 141.967 6.37699 141.133 6.4664L141.293 7.95785ZM143.856 7.61765L144.091 9.09915L144.233 9.0767L143.998 7.59519L143.763 6.11369L143.621 6.13614L143.856 7.61765ZM143.998 7.59519L144.233 9.0767L144.374 9.05425L144.139 7.57274L143.905 6.09124L143.763 6.11369L143.998 7.59519ZM144.139 7.57274L144.374 9.05425C145.19 8.92488 146.002 8.82476 146.81 8.75376L146.679 7.25951L146.548 5.76527C145.669 5.84247 144.788 5.95117 143.905 6.09124L144.139 7.57274ZM146.679 7.25951L146.81 8.75376L146.951 8.7414L146.819 7.24716L146.688 5.75292L146.548 5.76527L146.679 7.25951ZM146.819 7.24716L146.951 8.7414L147.091 8.72905L146.96 7.23481L146.829 5.74057L146.688 5.75292L146.819 7.24716ZM146.96 7.23481L147.091 8.72905C147.992 8.64993 148.887 8.51918 149.779 8.33701L149.478 6.86741L149.178 5.3978C148.397 5.55731 147.614 5.67151 146.829 5.74057L146.96 7.23481ZM149.478 6.86741L149.779 8.33701L149.918 8.30854L149.617 6.83893L149.317 5.36932L149.178 5.3978L149.478 6.86741ZM149.617 6.83893L149.918 8.30854L150.057 8.28006L149.757 6.81046L149.456 5.34085L149.317 5.36932L149.617 6.83893ZM149.757 6.81046L150.057 8.28006C150.843 8.11941 151.638 7.99853 152.441 7.9175L152.29 6.42507L152.14 4.93264C151.236 5.02377 150.342 5.15982 149.456 5.34085L149.757 6.81046ZM152.29 6.42507L152.441 7.9175L152.583 7.90315L152.433 6.41072L152.282 4.9183L152.14 4.93264L152.29 6.42507ZM152.433 6.41072L152.583 7.90315L152.725 7.8888L152.575 6.39638L152.424 4.90395L152.282 4.9183L152.433 6.41072ZM152.575 6.39638L152.725 7.8888C153.574 7.80324 154.426 7.72171 155.281 7.64424L155.146 6.15036L155.01 4.65647C154.145 4.73486 153.283 4.81735 152.424 4.90395L152.575 6.39638ZM155.146 6.15036L155.281 7.64424L155.424 7.63125L155.289 6.13737L155.154 4.64348L155.01 4.65647L155.146 6.15036ZM155.289 6.13737L155.424 7.63125L155.568 7.61826L155.432 6.12438L155.297 4.63049L155.154 4.64348L155.289 6.13737ZM155.432 6.12438L155.568 7.61826C156.463 7.53717 157.351 7.42517 158.231 7.28221L157.991 5.8016L157.75 4.321C156.94 4.45254 156.123 4.55572 155.297 4.63049L155.432 6.12438ZM157.991 5.8016L158.231 7.28221L158.372 7.25933L158.132 5.77873L157.891 4.29812L157.75 4.321L157.991 5.8016ZM158.132 5.77873L158.372 7.25933L158.513 7.23646L158.273 5.75585L158.032 4.27525L157.891 4.29812L158.132 5.77873ZM158.273 5.75585L158.513 7.23646C159.362 7.09853 160.207 6.95765 161.047 6.81384L160.794 5.33535L160.541 3.85686C159.709 3.99921 158.873 4.13867 158.032 4.27525L158.273 5.75585ZM160.794 5.33535L161.047 6.81384L161.187 6.78999L160.933 5.3115L160.68 3.83301L160.541 3.85686L160.794 5.33535ZM160.933 5.3115L161.187 6.78999L161.326 6.76614L161.073 5.28765L160.82 3.80916L160.68 3.83301L160.933 5.3115ZM161.073 5.28765L161.326 6.76614C162.09 6.63525 162.864 6.55936 163.648 6.5387L163.609 5.03922L163.569 3.53974C162.643 3.56415 161.727 3.65388 160.82 3.80916L161.073 5.28765ZM163.609 5.03922L163.648 6.5387L163.791 6.53494L163.751 5.03547L163.712 3.53599L163.569 3.53974L163.609 5.03922ZM163.751 5.03547L163.791 6.53494L163.933 6.53119L163.894 5.03171L163.854 3.53223L163.712 3.53599L163.751 5.03547ZM163.894 5.03171L163.933 6.53119C164.814 6.50797 165.695 6.46206 166.576 6.39345L166.459 4.89798L166.343 3.40251C165.513 3.46714 164.683 3.51038 163.854 3.53223L163.894 5.03171ZM166.459 4.89798L166.576 6.39345L166.718 6.38235L166.602 4.88688L166.485 3.39141L166.343 3.40251L166.459 4.89798ZM166.602 4.88688L166.718 6.38235L166.861 6.37125L166.744 4.87578L166.628 3.38031L166.485 3.39141L166.602 4.88688ZM166.744 4.87578L166.861 6.37125C167.745 6.30234 168.63 6.20709 169.515 6.08555L169.311 4.59951L169.107 3.11346C168.28 3.22706 167.453 3.31599 166.628 3.38031L166.744 4.87578ZM169.311 4.59951L169.515 6.08555L169.658 6.06596L169.453 4.57991L169.249 3.09387L169.107 3.11346L169.311 4.59951ZM169.453 4.57991L169.658 6.06596L169.8 6.04636L169.596 4.56032L169.392 3.07428L169.249 3.09387L169.453 4.57991ZM169.596 4.56032L169.8 6.04636C170.675 5.9262 171.544 5.7898 172.408 5.63715L172.147 4.16003L171.886 2.68292C171.06 2.82885 170.229 2.95931 169.392 3.07428L169.596 4.56032ZM172.147 4.16003L172.408 5.63715L172.549 5.61227L172.288 4.13515L172.027 2.65804L171.886 2.68292L172.147 4.16003ZM172.288 4.13515L172.549 5.61227L172.69 5.58738L172.429 4.11027L172.168 2.63316L172.027 2.65804L172.288 4.13515ZM172.429 4.11027L172.69 5.58738C173.469 5.4496 174.249 5.36481 175.029 5.33267L174.967 3.83394L174.905 2.33521C173.99 2.37293 173.077 2.47236 172.168 2.63316L172.429 4.11027ZM174.967 3.83394L175.029 5.33267L175.17 5.32685L175.108 3.82812L175.046 2.32939L174.905 2.33521L174.967 3.83394ZM175.108 3.82812L175.17 5.32685L175.311 5.32102L175.249 3.8223L175.188 2.32357L175.046 2.32939L175.108 3.82812ZM175.249 3.8223L175.311 5.32102C176.143 5.28674 176.978 5.26542 177.817 5.25707L177.802 3.75714L177.787 2.25722C176.917 2.26588 176.051 2.28799 175.188 2.32357L175.249 3.8223ZM177.802 3.75714L177.817 5.25707L177.959 5.25565L177.944 3.75572L177.929 2.2558L177.787 2.25722L177.802 3.75714ZM177.944 3.75572L177.959 5.25565L178.101 5.25423L178.086 3.75431L178.072 2.25438L177.929 2.2558L177.944 3.75572ZM178.086 3.75431L178.101 5.25423C178.993 5.24535 179.884 5.20325 180.775 5.12796L180.649 3.63328L180.523 2.13861C179.706 2.20766 178.889 2.24624 178.072 2.25438L178.086 3.75431ZM180.649 3.63328L180.775 5.12796L180.918 5.11593L180.791 3.62126L180.665 2.12658L180.523 2.13861L180.649 3.63328ZM180.791 3.62126L180.918 5.11593L181.06 5.1039L180.934 3.60923L180.807 2.11455L180.665 2.12658L180.791 3.62126ZM180.934 3.60923L181.06 5.1039C181.964 5.02756 182.866 4.90629 183.767 4.7403L183.495 3.26511L183.224 1.78993C182.418 1.93841 181.612 2.04655 180.807 2.11455L180.934 3.60923ZM183.495 3.26511L183.767 4.7403L183.909 4.71409L183.638 3.23891L183.366 1.76373L183.224 1.78993L183.495 3.26511ZM183.638 3.23891L183.909 4.71409L184.052 4.68788L183.78 3.2127L183.508 1.73752L183.366 1.76373L183.638 3.23891ZM183.78 3.2127L184.052 4.68788C184.814 4.54752 185.576 4.47983 186.341 4.48421L186.35 2.98424L186.359 1.48426C185.404 1.47879 184.453 1.56341 183.508 1.73752L183.78 3.2127ZM186.35 2.98424L186.341 4.48421L186.485 4.48503L186.493 2.98506L186.502 1.48508L186.359 1.48426L186.35 2.98424ZM186.493 2.98506L186.485 4.48503L186.628 4.48585L186.637 2.98588L186.645 1.4859L186.502 1.48508L186.493 2.98506ZM186.637 2.98588L186.628 4.48585C187.504 4.49088 188.374 4.48134 189.238 4.45722L189.196 2.95781L189.154 1.45839C188.325 1.48156 187.488 1.49074 186.645 1.4859L186.637 2.98588ZM189.196 2.95781L189.238 4.45722L189.379 4.45328L189.337 2.95387L189.295 1.45445L189.154 1.45839L189.196 2.95781ZM189.337 2.95387L189.379 4.45328L189.52 4.44934L189.478 2.94993L189.436 1.45051L189.295 1.45445L189.337 2.95387ZM189.478 2.94993L189.52 4.44934C190.415 4.42435 191.31 4.35606 192.204 4.24459L192.018 2.75611L191.833 1.26763C191.033 1.3673 190.235 1.42822 189.436 1.45051L189.478 2.94993ZM192.018 2.75611L192.204 4.24459L192.345 4.227L192.16 2.73852L191.974 1.25004L191.833 1.26763L192.018 2.75611ZM192.16 2.73852L192.345 4.227L192.486 4.2094L192.301 2.72092L192.115 1.23244L191.974 1.25004L192.16 2.73852ZM192.301 2.72092L192.486 4.2094C193.288 4.1095 194.094 4.04625 194.904 4.01968L194.855 2.52049L194.806 1.02129C193.904 1.05083 193.008 1.12121 192.115 1.23244L192.301 2.72092ZM194.855 2.52049L194.904 4.01968L195.047 4.01501L194.998 2.51581L194.949 1.01662L194.806 1.02129L194.855 2.52049ZM194.998 2.51581L195.047 4.01501L195.19 4.01033L195.14 2.51114L195.091 1.01194L194.949 1.01662L194.998 2.51581ZM195.14 2.51114L195.19 4.01033C196.063 3.9817 196.939 3.93742 197.816 3.8775L197.714 2.38099L197.611 0.884478C196.769 0.941992 195.929 0.984477 195.091 1.01194L195.14 2.51114ZM197.714 2.38099L197.816 3.8775L197.959 3.86771L197.857 2.3712L197.755 0.874691L197.611 0.884478L197.714 2.38099ZM197.857 2.3712L197.959 3.86771L198.102 3.85793L198 2.36142L197.898 0.864906L197.755 0.874691L197.857 2.3712ZM198 2.36142L198.102 3.85793C198.949 3.80007 199.798 3.75277 200.648 3.71605L200.583 2.21745L200.518 0.718848C199.643 0.756648 198.77 0.805333 197.898 0.864906L198 2.36142ZM200.583 2.21745L200.648 3.71605L200.791 3.70984L200.727 2.21124L200.662 0.712638L200.518 0.718848L200.583 2.21745ZM200.727 2.21124L200.791 3.70984L200.935 3.70363L200.871 2.20503L200.806 0.706427L200.662 0.712638L200.727 2.21124ZM200.871 2.20503L200.935 3.70363C201.742 3.66878 202.541 3.67928 203.331 3.73484L203.436 2.23853L203.541 0.742227C202.636 0.678592 201.724 0.666758 200.806 0.706427L200.871 2.20503ZM203.436 2.23853L203.331 3.73484L203.472 3.74478L203.577 2.24847L203.683 0.752159L203.541 0.742227L203.436 2.23853ZM203.577 2.24847L203.472 3.74478L203.614 3.75471L203.719 2.2584L203.824 0.762092L203.683 0.752159L203.577 2.24847ZM203.719 2.2584L203.614 3.75471C204.525 3.81881 205.438 3.82426 206.351 3.77105L206.264 2.27359L206.176 0.776134C205.392 0.821867 204.608 0.817185 203.824 0.762092L203.719 2.2584ZM206.264 2.27359L206.351 3.77105L206.492 3.76281L206.405 2.26535L206.318 0.76789L206.176 0.776134L206.264 2.27359ZM206.405 2.26535L206.492 3.76281L206.634 3.75456L206.546 2.2571L206.459 0.759645L206.318 0.76789L206.405 2.26535ZM206.546 2.2571L206.634 3.75456C207.461 3.70634 208.291 3.67571 209.124 3.66269L209.101 2.16288L209.078 0.663058C208.202 0.676739 207.329 0.70893 206.459 0.759645L206.546 2.2571ZM209.101 2.16288L209.124 3.66269L209.267 3.66047L209.243 2.16065L209.22 0.660833L209.078 0.663058L209.101 2.16288ZM209.243 2.16065L209.267 3.66047L209.409 3.65824L209.386 2.15842L209.362 0.658607L209.22 0.660833L209.243 2.16065ZM209.386 2.15842L209.409 3.65824C210.288 3.6445 211.169 3.60898 212.052 3.55168L211.954 2.05483L211.857 0.557983C211.024 0.612113 210.192 0.645644 209.362 0.658607L209.386 2.15842ZM211.954 2.05483L212.052 3.55168L212.195 3.5424L212.098 2.04555L212 0.548699L211.857 0.557983L211.954 2.05483ZM212.098 2.04555L212.195 3.5424L212.338 3.53311L212.241 2.03626L212.143 0.539413L212 0.548699L212.098 2.04555ZM212.241 2.03626L212.338 3.53311C213.182 3.4783 214.029 3.4351 214.879 3.40352L214.823 1.90456L214.767 0.405591C213.89 0.438196 213.015 0.482801 212.143 0.539413L212.241 2.03626ZM214.823 1.90456L214.879 3.40352L215.023 3.39817L214.967 1.89921L214.911 0.400242L214.767 0.405591L214.823 1.90456ZM214.967 1.89921L215.023 3.39817L215.166 3.39282L215.111 1.89386L215.055 0.394894L214.911 0.400242L214.967 1.89921ZM215.111 1.89386L215.166 3.39282C215.998 3.36193 216.823 3.35801 217.642 3.381L217.684 1.88159L217.726 0.382182C216.841 0.357339 215.951 0.361606 215.055 0.394894L215.111 1.89386ZM217.684 1.88159L217.642 3.381L217.784 3.38499L217.826 1.88558L217.868 0.386168L217.726 0.382182L217.684 1.88159ZM217.826 1.88558L217.784 3.38499L217.926 3.38897L217.968 1.88956L218.01 0.390154L217.868 0.386168L217.826 1.88558ZM217.968 1.88956L217.926 3.38897C218.805 3.41365 219.683 3.41439 220.558 3.39118L220.518 1.8917L220.479 0.392231C219.658 0.413994 218.835 0.413307 218.01 0.390154L217.968 1.88956ZM220.518 1.8917L220.558 3.39118L220.699 3.38743L220.66 1.88796L220.62 0.388483L220.479 0.392231L220.518 1.8917ZM220.66 1.88796L220.699 3.38743L220.841 3.38368L220.801 1.88421L220.761 0.384736L220.62 0.388483L220.66 1.88796ZM220.801 1.88421L220.841 3.38368C221.649 3.36226 222.459 3.37338 223.271 3.41709L223.352 1.91926L223.432 0.421429C222.54 0.373428 221.65 0.361178 220.761 0.384736L220.801 1.88421ZM223.352 1.91926L223.271 3.41709L223.413 3.42474L223.494 1.9269L223.574 0.429071L223.432 0.421429L223.352 1.91926ZM223.494 1.9269L223.413 3.42474L223.555 3.43238L223.636 1.93455L223.716 0.436715L223.574 0.429071L223.494 1.9269ZM223.636 1.93455L223.555 3.43238C224.431 3.47952 225.309 3.50583 226.189 3.51132L226.199 2.01135L226.208 0.51138C225.375 0.506182 224.545 0.48129 223.716 0.436715L223.636 1.93455ZM226.199 2.01135L226.189 3.51132L226.332 3.51221L226.341 2.01224L226.351 0.512271L226.208 0.51138L226.199 2.01135ZM226.341 2.01224L226.332 3.51221L226.475 3.5131L226.484 2.01313L226.493 0.513163L226.351 0.512271L226.341 2.01224ZM226.484 2.01313L226.475 3.5131C227.304 3.51828 228.135 3.5463 228.967 3.5972L229.059 2.09999L229.15 0.602783C228.263 0.548563 227.378 0.518681 226.493 0.513163L226.484 2.01313ZM229.059 2.09999L228.967 3.5972L229.111 3.60596L229.202 2.10875L229.294 0.611542L229.15 0.602783L229.059 2.09999ZM229.202 2.10875L229.111 3.60596L229.254 3.61471L229.345 2.11751L229.437 0.620302L229.294 0.611542L229.202 2.10875ZM229.345 2.11751L229.254 3.61471C230.147 3.6693 231.042 3.69432 231.938 3.68979L231.931 2.18981L231.923 0.689831C231.093 0.694021 230.264 0.67084 229.437 0.620302L229.345 2.11751ZM231.931 2.18981L231.938 3.68979L232.082 3.68907L232.075 2.18909L232.067 0.689106L231.923 0.689831L231.931 2.18981ZM232.075 2.18909L232.082 3.68907L232.226 3.68834L232.219 2.18836L232.211 0.68838L232.067 0.689106L232.075 2.18909ZM232.219 2.18836L232.226 3.68834C233.059 3.68414 233.881 3.7059 234.693 3.7535L234.781 2.25607L234.869 0.758638C233.992 0.707245 233.106 0.683867 232.211 0.68838L232.219 2.18836ZM234.781 2.25607L234.693 3.7535L234.834 3.76175L234.922 2.26432L235.009 0.766887L234.869 0.758638L234.781 2.25607ZM234.922 2.26432L234.834 3.76175L234.974 3.77L235.062 2.27257L235.15 0.775136L235.009 0.766887L234.922 2.26432ZM235.062 2.27257L234.974 3.77C235.892 3.8238 236.814 3.81025 237.738 3.72973L237.608 2.23539L237.478 0.741049C236.697 0.809087 235.921 0.820324 235.15 0.775136L235.062 2.27257ZM237.608 2.23539L237.738 3.72973L237.88 3.71735L237.75 2.22301L237.62 0.728669L237.478 0.741049L237.608 2.23539ZM237.75 2.22301L237.88 3.71735L238.022 3.70497L237.892 2.21063L237.762 0.716289L237.62 0.728669L237.75 2.22301ZM237.892 2.21063L238.022 3.70497C238.793 3.63782 239.563 3.63419 240.333 3.69402L240.449 2.19853L240.565 0.703038C239.631 0.630442 238.696 0.634877 237.762 0.716289L237.892 2.21063ZM240.449 2.19853L240.333 3.69402L240.475 3.70506L240.591 2.20957L240.707 0.714075L240.565 0.703038L240.449 2.19853ZM240.591 2.20957L240.475 3.70506L240.617 3.71609L240.733 2.2206L240.849 0.725111L240.707 0.714075L240.591 2.20957ZM240.733 2.2206L240.617 3.71609C241.493 3.78422 242.373 3.83082 243.255 3.85592L243.297 2.35653L243.34 0.857132C242.507 0.833427 241.677 0.789416 240.849 0.725111L240.733 2.2206ZM243.297 2.35653L243.255 3.85592L243.398 3.85999L243.44 2.36059L243.483 0.8612L243.34 0.857132L243.297 2.35653ZM243.44 2.36059L243.398 3.85999L243.541 3.86405L243.583 2.36466L243.626 0.865266L243.483 0.8612L243.44 2.36059ZM243.583 2.36466L243.541 3.86405C244.361 3.88738 245.181 3.94171 246.003 4.02711L246.158 2.53515L246.313 1.04319C245.417 0.950068 244.522 0.890743 243.626 0.865266L243.583 2.36466ZM246.158 2.53515L246.003 4.02711L246.146 4.04198L246.301 2.55002L246.456 1.05806L246.313 1.04319L246.158 2.53515ZM246.301 2.55002L246.146 4.04198L246.289 4.05686L246.444 2.5649L246.599 1.07294L246.456 1.05806L246.301 2.55002ZM246.444 2.5649L246.289 4.05686C247.192 4.15078 248.097 4.20367 249.001 4.21548L249.021 2.7156L249.04 1.21573C248.227 1.20511 247.413 1.15754 246.599 1.07294L246.444 2.5649ZM249.021 2.7156L249.001 4.21548L249.144 4.21734L249.164 2.71747L249.184 1.2176L249.04 1.21573L249.021 2.7156ZM249.164 2.71747L249.144 4.21734L249.288 4.21921L249.307 2.71934L249.327 1.21947L249.184 1.2176L249.164 2.71747ZM249.307 2.71934L249.288 4.21921C250.1 4.22981 250.903 4.27842 251.698 4.36487L251.86 2.87366L252.023 1.38246C251.132 1.28557 250.233 1.23129 249.327 1.21947L249.307 2.71934ZM251.86 2.87366L251.698 4.36487L251.839 4.38015L252.001 2.88894L252.163 1.39774L252.023 1.38246L251.86 2.87366ZM252.001 2.88894L251.839 4.38015L251.979 4.39543L252.141 2.90422L252.303 1.41302L252.163 1.39774L252.001 2.88894ZM252.141 2.90422L251.979 4.39543C252.84 4.48911 253.704 4.5669 254.571 4.6288L254.678 3.13261L254.785 1.63642C253.955 1.57715 253.128 1.50268 252.303 1.41302L252.141 2.90422ZM254.678 3.13261L254.571 4.6288L254.712 4.6389L254.819 3.14271L254.926 1.64652L254.785 1.63642L254.678 3.13261ZM254.819 3.14271L254.712 4.6389L254.854 4.649L254.961 3.15281L255.067 1.65662L254.926 1.64652L254.819 3.14271ZM254.961 3.15281L254.854 4.649C255.715 4.7105 256.579 4.76109 257.445 4.80077L257.514 3.30234L257.582 1.80391C256.741 1.76539 255.903 1.7163 255.067 1.65662L254.961 3.15281ZM257.514 3.30234L257.445 4.80077L257.587 4.80729L257.656 3.30886L257.725 1.81043L257.582 1.80391L257.514 3.30234ZM257.656 3.30886L257.587 4.80729L257.73 4.8138L257.798 3.31537L257.867 1.81694L257.725 1.81043L257.656 3.30886ZM257.798 3.31537L257.73 4.8138C258.602 4.85377 259.478 4.87724 260.357 4.88421L260.369 3.38425L260.381 1.8843C259.54 1.87763 258.701 1.85517 257.867 1.81694L257.798 3.31537ZM260.369 3.38425L260.357 4.88421L260.501 4.88534L260.513 3.38539L260.525 1.88544L260.381 1.8843L260.369 3.38425ZM260.513 3.38539L260.501 4.88534L260.644 4.88648L260.656 3.38653L260.668 1.88657L260.525 1.88544L260.513 3.38539ZM260.656 3.38653L260.644 4.88648C261.419 4.89262 262.19 4.96474 262.96 5.10321L263.226 3.62692L263.491 2.15064C262.555 1.98223 261.614 1.89408 260.668 1.88657L260.656 3.38653ZM263.226 3.62692L262.96 5.10321L263.102 5.12878L263.368 3.6525L263.633 2.17621L263.491 2.15064L263.226 3.62692ZM263.368 3.6525L263.102 5.12878L263.244 5.15436L263.51 3.67807L263.775 2.20179L263.633 2.17621L263.368 3.6525ZM263.51 3.67807L263.244 5.15436C264.138 5.31524 265.033 5.43759 265.929 5.52128L266.068 4.02779L266.208 2.53429C265.398 2.45859 264.587 2.34779 263.775 2.20179L263.51 3.67807ZM266.068 4.02779L265.929 5.52128L266.071 5.53457L266.211 4.04107L266.35 2.54758L266.208 2.53429L266.068 4.02779ZM266.211 4.04107L266.071 5.53457L266.213 5.54785L266.353 4.05435L266.492 2.56086L266.35 2.54758L266.211 4.04107ZM266.353 4.05435L266.213 5.54785C267.065 5.62744 267.912 5.70755 268.754 5.78818L268.897 4.29501L269.04 2.80184C268.196 2.72099 267.346 2.64067 266.492 2.56086L266.353 4.05435ZM268.897 4.29501L268.754 5.78818L268.894 5.80163L269.037 4.30846L269.18 2.81529L269.04 2.80184L268.897 4.29501ZM269.037 4.30846L268.894 5.80163L269.035 5.81508L269.178 4.32192L269.321 2.82875L269.18 2.81529L269.037 4.30846ZM269.178 4.32192L269.035 5.81508C269.88 5.89602 270.727 5.97533 271.576 6.053L271.713 4.55924L271.849 3.06547C271.005 2.98819 270.162 2.90928 269.321 2.82875L269.178 4.32192ZM271.713 4.55924L271.576 6.053L271.717 6.06591L271.854 4.57215L271.991 3.07839L271.849 3.06547L271.713 4.55924ZM271.854 4.57215L271.717 6.06591L271.859 6.07883L271.995 4.58506L272.132 3.0913L271.991 3.07839L271.854 4.57215ZM271.995 4.58506L271.859 6.07883C272.722 6.15782 273.589 6.22269 274.459 6.27345L274.546 4.776L274.634 3.27854C273.796 3.22969 272.962 3.16727 272.132 3.0913L271.995 4.58506ZM274.546 4.776L274.459 6.27345L274.601 6.28175L274.689 4.7843L274.776 3.28685L274.634 3.27854L274.546 4.776ZM274.689 4.7843L274.601 6.28175L274.743 6.29005L274.831 4.7926L274.918 3.29515L274.776 3.28685L274.689 4.7843ZM274.831 4.7926L274.743 6.29005C275.578 6.33874 276.413 6.40364 277.248 6.48477L277.393 4.99179L277.538 3.49882C276.664 3.41398 275.791 3.34609 274.918 3.29515L274.831 4.7926ZM277.393 4.99179L277.248 6.48477L277.39 6.4986L277.535 5.00562L277.68 3.51265L277.538 3.49882L277.393 4.99179ZM277.535 5.00562L277.39 6.4986L277.533 6.51243L277.678 5.01945L277.823 3.52648L277.68 3.51265L277.535 5.00562ZM277.678 5.01945L277.533 6.51243C278.398 6.5965 279.266 6.67103 280.138 6.73605L280.249 5.2402L280.361 3.74436C279.512 3.681 278.666 3.60838 277.823 3.52648L277.678 5.01945ZM280.249 5.2402L280.138 6.73605L280.281 6.74674L280.393 5.2509L280.504 3.75506L280.361 3.74436L280.249 5.2402ZM280.393 5.2509L280.281 6.74674L280.425 6.75744L280.536 5.2616L280.648 3.76575L280.504 3.75506L280.393 5.2509ZM280.536 5.2616L280.425 6.75744C281.258 6.81962 282.087 6.90398 282.911 7.01049L283.104 5.52285L283.296 4.03522C282.418 3.92175 281.535 3.83194 280.648 3.76575L280.536 5.2616ZM283.104 5.52285L282.911 7.01049L283.053 7.02882L283.246 5.54119L283.438 4.05355L283.296 4.03522L283.104 5.52285ZM283.246 5.54119L283.053 7.02882L283.195 7.04715L283.387 5.55952L283.58 4.07188L283.438 4.05355L283.246 5.54119ZM283.387 5.55952L283.195 7.04715C284.061 7.159 284.923 7.25759 285.781 7.34291L285.929 5.85027L286.078 4.35764C285.249 4.27526 284.417 4.18002 283.58 4.07188L283.387 5.55952ZM285.929 5.85027L285.781 7.34291L285.921 7.35689L286.07 5.86425L286.218 4.37162L286.078 4.35764L285.929 5.85027ZM286.07 5.86425L285.921 7.35689L286.062 7.37086L286.21 5.87822L286.359 4.38559L286.218 4.37162L286.07 5.86425ZM286.21 5.87822L286.062 7.37086C286.874 7.4516 287.684 7.55795 288.493 7.68994L288.735 6.20951L288.976 4.72907C288.105 4.58705 287.233 4.47255 286.359 4.38559L286.21 5.87822ZM288.735 6.20951L288.493 7.68994L288.633 7.71278L288.875 6.23234L289.116 4.75191L288.976 4.72907L288.735 6.20951ZM288.875 6.23234L288.633 7.71278L288.773 7.73561L289.015 6.25518L289.256 4.77474L289.116 4.75191L288.875 6.23234ZM289.015 6.25518L288.773 7.73561C289.608 7.87181 290.444 8.0125 291.281 8.15768L291.538 6.67974L291.794 5.2018C290.947 5.05492 290.101 4.91256 289.256 4.77474L289.015 6.25518ZM291.538 6.67974L291.281 8.15768L291.422 8.18202L291.678 6.70408L291.934 5.22614L291.794 5.2018L291.538 6.67974ZM291.678 6.70408L291.422 8.18202L291.562 8.20635L291.818 6.72841L292.075 5.25048L291.934 5.22614L291.678 6.70408ZM291.818 6.72841L291.562 8.20635C292.454 8.36106 293.354 8.47055 294.262 8.53488L294.368 7.03863L294.474 5.54238C293.666 5.48516 292.867 5.38783 292.075 5.25048L291.818 6.72841ZM294.368 7.03863L294.262 8.53488L294.404 8.54501L294.51 7.04876L294.617 5.55251L294.474 5.54238L294.368 7.03863ZM294.51 7.04876L294.404 8.54501L294.547 8.55514L294.653 7.05889L294.759 5.56264L294.617 5.55251L294.51 7.04876ZM294.653 7.05889L294.547 8.55514C295.359 8.61264 296.166 8.7076 296.971 8.84006L297.215 7.35999L297.458 5.87991C296.563 5.73247 295.663 5.62669 294.759 5.56264L294.653 7.05889ZM297.215 7.35999L296.971 8.84006L297.113 8.86339L297.356 7.38332L297.6 5.90324L297.458 5.87991L297.215 7.35999ZM297.356 7.38332L297.113 8.86339L297.254 8.88672L297.498 7.40664L297.742 5.92657L297.6 5.90324L297.356 7.38332ZM297.498 7.40664L297.254 8.88672C298.093 9.02478 298.931 9.17273 299.768 9.33057L300.046 7.85655L300.324 6.38253C299.464 6.2204 298.603 6.06841 297.742 5.92657L297.498 7.40664ZM300.046 7.85655L299.768 9.33057L299.909 9.35723L300.187 7.88321L300.465 6.4092L300.324 6.38253L300.046 7.85655ZM300.187 7.88321L299.909 9.35723L300.05 9.38389L300.328 7.90988L300.606 6.43586L300.465 6.4092L300.187 7.88321ZM300.328 7.90988L300.05 9.38389C300.922 9.54831 301.79 9.6903 302.652 9.80979L302.858 8.32398L303.064 6.83817C302.25 6.7255 301.431 6.59142 300.606 6.43586L300.328 7.90988ZM302.858 8.32398L302.652 9.80979L302.792 9.82914L302.998 8.34333L303.203 6.85751L303.064 6.83817L302.858 8.32398ZM302.998 8.34333L302.792 9.82914L302.932 9.84849L303.137 8.36268L303.343 6.87686L303.203 6.85751L302.998 8.34333ZM303.137 8.36268L302.932 9.84849C303.746 9.96131 304.559 10.0937 305.371 10.2457L305.647 8.77126L305.923 7.29685C305.065 7.13621 304.205 6.99621 303.343 6.87686L303.137 8.36268ZM305.647 8.77126L305.371 10.2457L305.511 10.2717L305.786 8.79731L306.062 7.3229L305.923 7.29685L305.647 8.77126ZM305.786 8.79731L305.511 10.2717L305.65 10.2978L305.926 8.82336L306.202 7.34895L306.062 7.3229L305.786 8.79731ZM305.926 8.82336L305.65 10.2978C306.477 10.4526 307.305 10.6144 308.133 10.7834L308.433 9.31369L308.732 7.84397C307.888 7.67177 307.045 7.50676 306.202 7.34895L305.926 8.82336ZM308.433 9.31369L308.133 10.7834L308.272 10.8118L308.572 9.34212L308.872 7.8724L308.732 7.84397L308.433 9.31369ZM308.572 9.34212L308.272 10.8118L308.411 10.8403L308.711 9.37055L309.011 7.90083L308.872 7.8724L308.572 9.34212ZM308.711 9.37055L308.411 10.8403C309.263 11.014 310.118 11.1747 310.977 11.3223L311.231 9.84403L311.485 8.36572C310.657 8.22327 309.832 8.06831 309.011 7.90083L308.711 9.37055ZM311.231 9.84403L310.977 11.3223L311.118 11.3465L311.372 9.86821L311.626 8.3899L311.485 8.36572L311.231 9.84403ZM311.372 9.86821L311.118 11.3465L311.258 11.3707L311.512 9.89238L311.766 8.41407L311.626 8.3899L311.372 9.86821ZM311.512 9.89238L311.258 11.3707C312.119 11.5187 312.984 11.6521 313.853 11.771L314.057 10.2849L314.26 8.79872C313.424 8.68443 312.593 8.55621 311.766 8.41407L311.512 9.89238ZM314.057 10.2849L313.853 11.771L313.995 11.7905L314.199 10.3043L314.402 8.81816L314.26 8.79872L314.057 10.2849ZM314.199 10.3043L313.995 11.7905L314.138 11.8099L314.341 10.3238L314.544 8.83759L314.402 8.81816L314.199 10.3043ZM314.341 10.3238L314.138 11.8099C314.96 11.9224 315.78 12.0599 316.598 12.2222L316.89 10.751L317.182 9.2797C316.306 9.10566 315.426 8.95828 314.544 8.83759L314.341 10.3238ZM316.89 10.751L316.598 12.2222L316.739 12.2503L317.031 10.779L317.323 9.30774L317.182 9.2797L316.89 10.751ZM317.031 10.779L316.739 12.2503L316.88 12.2783L317.172 10.807L317.464 9.33577L317.323 9.30774L317.031 10.779ZM317.172 10.807L316.88 12.2783C317.772 12.4554 318.666 12.5906 319.562 12.6837L319.717 11.1918L319.872 9.69982C319.069 9.61636 318.266 9.49507 317.464 9.33577L317.172 10.807ZM319.717 11.1918L319.562 12.6837L319.703 12.6985L319.858 11.2065L320.013 9.71454L319.872 9.69982L319.717 11.1918ZM319.858 11.2065L319.703 12.6985L319.845 12.7132L320 11.2212L320.155 9.72925L320.013 9.71454L319.858 11.2065ZM320 11.2212L319.845 12.7132C320.658 12.7977 321.463 12.9116 322.261 13.0551L322.527 11.5787L322.792 10.1024C321.92 9.94571 321.041 9.82136 320.155 9.72925L320 11.2212ZM322.527 11.5787L322.261 13.0551L322.4 13.0801L322.666 11.6037L322.931 10.1274L322.792 10.1024L322.527 11.5787ZM322.666 11.6037L322.4 13.0801L322.539 13.1051L322.805 11.6287L323.07 10.1524L322.931 10.1274L322.666 11.6037ZM322.805 11.6287L322.539 13.1051C323.345 13.2499 324.148 13.4188 324.948 13.6119L325.3 12.1539L325.652 10.6958C324.795 10.4888 323.934 10.3077 323.07 10.1524L322.805 11.6287ZM325.3 12.1539L324.948 13.6119L325.086 13.6453L325.438 12.1872L325.79 10.7291L325.652 10.6958L325.3 12.1539ZM325.438 12.1872L325.086 13.6453L325.224 13.6786L325.576 12.2205L325.928 10.7625L325.79 10.7291L325.438 12.1872ZM325.576 12.2205L325.224 13.6786C326.034 13.8743 326.842 14.0857 327.649 14.3128L328.056 12.8689L328.462 11.425C327.619 11.1878 326.775 10.9669 325.928 10.7625L325.576 12.2205ZM328.056 12.8689L327.649 14.3128L327.787 14.3515L328.193 12.9076L328.6 11.4637L328.462 11.425L328.056 12.8689ZM328.193 12.9076L327.787 14.3515L327.924 14.3902L328.331 12.9463L328.737 11.5024L328.6 11.4637L328.193 12.9076ZM328.331 12.9463L327.924 14.3902C328.805 14.6381 329.698 14.8345 330.604 14.9792L330.84 13.498L331.077 12.0168C330.286 11.8904 329.506 11.7189 328.737 11.5024L328.331 12.9463ZM330.84 13.498L330.604 14.9792L330.745 15.0018L330.982 13.5206L331.219 12.0394L331.077 12.0168L330.84 13.498ZM330.982 13.5206L330.745 15.0018L330.886 15.0244L331.123 13.5432L331.36 12.062L331.219 12.0394L330.982 13.5206ZM331.123 13.5432L330.886 15.0244C331.686 15.1522 332.479 15.3194 333.265 15.5262L333.646 14.0754L334.028 12.6247C333.146 12.393 332.257 12.2055 331.36 12.062L331.123 13.5432ZM333.646 14.0754L333.265 15.5262L333.404 15.5627L333.786 14.112L334.167 12.6612L334.028 12.6247L333.646 14.0754ZM333.786 14.112L333.404 15.5627L333.543 15.5992L333.925 14.1485L334.306 12.6978L334.167 12.6612L333.786 14.112ZM333.925 14.1485L333.543 15.5992C334.408 15.8266 335.231 16.0128 336.011 16.1565L336.283 14.6814L336.555 13.2062C335.858 13.0779 335.109 12.9088 334.306 12.6978L333.925 14.1485ZM336.283 14.6814L336.011 16.1565L336.134 16.1792L336.406 14.7041L336.678 13.2289L336.555 13.2062L336.283 14.6814ZM336.406 14.7041L336.134 16.1792L336.257 16.2019L336.529 14.7267L336.801 13.2516L336.678 13.2289L336.406 14.7041ZM336.529 14.7267L336.257 16.2019C336.63 16.2706 336.927 16.3222 337.138 16.354C337.238 16.3691 337.347 16.3842 337.445 16.3924C337.484 16.3957 337.578 16.4033 337.687 16.3987C337.73 16.3969 337.868 16.3908 338.036 16.3448C338.117 16.3224 338.292 16.2682 338.481 16.1402C338.678 16.0078 338.998 15.7184 339.109 15.2186L337.644 14.8947L336.18 14.5709C336.29 14.0725 336.609 13.7845 336.804 13.6533C336.992 13.5265 337.164 13.4733 337.242 13.4518C337.403 13.4076 337.532 13.4026 337.563 13.4013C337.613 13.3992 337.65 13.4005 337.665 13.4011C337.683 13.4019 337.695 13.4029 337.698 13.4031C337.701 13.4034 337.67 13.4004 337.585 13.3875C337.424 13.3633 337.166 13.3189 336.801 13.2516L336.529 14.7267ZM337.644 14.8947L339.109 15.2186L339.11 15.2146L337.645 14.8907L336.18 14.5669L336.18 14.5709L337.644 14.8947ZM337.645 14.8907L338.489 13.6509L338.4 13.5903L337.556 14.8301L336.712 16.07L336.801 16.1306L337.645 14.8907ZM337.556 14.8301L337.248 16.2981L337.346 16.3187L337.654 14.8507L337.962 13.3826L337.864 13.3621L337.556 14.8301Z" fill="#365C85"/>
</svg>
